<?xml version="1.0" encoding="utf-8"?>
<!-- Generator: Adobe Illustrator 25.2.0, SVG Export Plug-In . SVG Version: 6.00 Build 0)  -->
<svg version="1.1" id="Layer_1" xmlns="http://www.w3.org/2000/svg" xmlns:xlink="http://www.w3.org/1999/xlink" x="0px" y="0px"
	 viewBox="0 0 256 256" style="enable-background:new 0 0 256 256;" xml:space="preserve">
<style type="text/css">
	.st0{fill:#7C4DFF;}
	.st1{fill:#666666;}
	.st2{opacity:0.3;fill:#7C4DFF;enable-background:new    ;}
	.st3{fill:#D3D3D3;}
</style>
<path class="st0" d="M8.8,176.8h-4c-1,0-1.9-0.8-1.9-1.9c0-1,0.8-1.9,1.9-1.9h4c1,0,1.9,0.8,1.9,1.9C10.7,175.9,9.8,176.8,8.8,176.8
	z"/>
<path class="st0" d="M24.2,176.8h-4.5c-0.5,0-1-0.2-1.3-0.6c-0.7-0.7-0.7-1.9,0-2.6c0,0,0,0,0,0c0.3-0.4,0.8-0.5,1.3-0.6h4.5
	c1,0,1.9,0.8,1.9,1.9c0,0.5-0.2,1-0.5,1.3C25.2,176.6,24.7,176.8,24.2,176.8z"/>
<path class="st0" d="M14.4,186.6c-1,0-1.9-0.8-1.9-1.9v-4c0.1-1,1-1.8,2-1.7c0.9,0.1,1.7,0.8,1.7,1.7v4
	C16.3,185.8,15.4,186.6,14.4,186.6z"/>
<path class="st0" d="M14.4,171.7c-1,0-1.9-0.8-1.9-1.8c0,0,0,0,0,0v-4.5c-0.1-1,0.7-1.9,1.7-2c1-0.1,1.9,0.7,2,1.7
	c0,0.1,0,0.2,0,0.3v4.5C16.3,170.8,15.4,171.7,14.4,171.7C14.4,171.7,14.4,171.7,14.4,171.7z"/>
<path class="st1" d="M226.9,226.1h-4c-0.5,0-1-0.2-1.3-0.5c-0.4-0.4-0.5-0.8-0.6-1.3c0-1,0.8-1.9,1.9-1.9h4c1,0,1.9,0.8,1.9,1.9
	c0,0.5-0.2,1-0.6,1.3C227.8,226,227.4,226.2,226.9,226.1z"/>
<path class="st1" d="M242.3,226.1h-4.5c-0.5,0-1-0.2-1.3-0.5c-0.4-0.4-0.5-0.8-0.6-1.3c0-1,0.8-1.9,1.9-1.9h4.5c1,0,1.9,0.8,1.9,1.9
	c0,0.5-0.2,1-0.6,1.3C243.3,226,242.8,226.2,242.3,226.1z"/>
<path class="st1" d="M232.5,236c-1,0-1.9-0.8-1.9-1.8c0,0,0,0,0,0v-4c0-0.2,0-0.5,0.1-0.7c0.2-0.5,0.5-0.8,1-1
	c0.2-0.1,0.5-0.1,0.7-0.1c0.2,0,0.5,0,0.7,0.1c0.2,0.1,0.4,0.2,0.6,0.4c0.2,0.2,0.3,0.4,0.4,0.6c0.1,0.2,0.1,0.5,0.1,0.7v4
	c0,0.5-0.2,1-0.6,1.3C233.4,235.8,233,236,232.5,236z"/>
<path class="st1" d="M232.5,221c-0.5,0-1-0.2-1.3-0.5c-0.4-0.4-0.5-0.8-0.6-1.3v-4.5c0-1,0.8-1.9,1.9-1.9c1,0,1.9,0.8,1.9,1.9v4.5
	c0,0.5-0.2,1-0.6,1.3C233.5,220.8,233,221,232.5,221z"/>
<path class="st0" d="M232.6,43.1h-4c-1,0-1.9-0.8-1.9-1.9c0-1,0.8-1.9,1.9-1.9l0,0h4c1,0,1.9,0.8,1.9,1.9
	C234.5,42.3,233.6,43.1,232.6,43.1z"/>
<path class="st0" d="M248.1,43.1h-4.5c-1,0-1.9-0.8-1.9-1.9c0-1,0.8-1.9,1.9-1.9h4.5c1,0,1.9,0.8,1.9,1.9
	C249.9,42.3,249.1,43.1,248.1,43.1z"/>
<path class="st0" d="M238.2,53c-0.5,0-1-0.2-1.3-0.5c-0.4-0.3-0.6-0.8-0.6-1.3v-4c0-0.5,0.2-1,0.5-1.3c0.4-0.4,0.8-0.5,1.3-0.5
	c1,0,1.9,0.8,1.9,1.9v4C240.1,52.2,239.3,53,238.2,53z"/>
<path class="st0" d="M238.2,38c-0.2,0-0.5-0.1-0.7-0.2c-0.2-0.1-0.4-0.2-0.6-0.4c-0.2-0.2-0.3-0.4-0.4-0.6c-0.1-0.2-0.1-0.5-0.1-0.7
	v-4.5c0-1,0.8-1.9,1.9-1.9c0.5,0,1,0.2,1.3,0.5c0.4,0.4,0.5,0.8,0.6,1.3v4.5c0,0.2-0.1,0.5-0.1,0.7c-0.1,0.2-0.2,0.4-0.4,0.6
	c-0.2,0.2-0.4,0.3-0.6,0.4C238.7,37.9,238.5,38,238.2,38z"/>
<path class="st2" d="M243.6,95.1c-3.4,0-6.1-2.7-6.1-6c0-0.4,0-0.8,0.1-1.2c0.5-2.4,2.4-4.3,4.8-4.8c2.4-0.5,4.9,0.5,6.2,2.6
	c1.9,2.8,1.1,6.5-1.7,8.4C245.9,94.8,244.8,95.1,243.6,95.1z M243.6,86.8c-0.5,0-0.9,0.1-1.3,0.4c-0.4,0.2-0.7,0.6-0.9,1
	c-0.5,1.2,0.1,2.6,1.3,3c0.1,0.1,0.3,0.1,0.4,0.1c0.4,0.1,0.9,0,1.3-0.1c0.9-0.4,1.4-1.2,1.4-2.2C245.9,87.7,244.9,86.7,243.6,86.8
	C243.6,86.7,243.6,86.7,243.6,86.8L243.6,86.8z"/>
<path class="st2" d="M202.8,35.8c-0.4,0-0.8-0.1-1.1-0.4c-3.6-2.6-7.3-5-11.2-7.2c-0.4-0.2-0.8-0.6-0.9-1.1c-0.3-1,0.3-2,1.3-2.3
	c0,0,0,0,0,0c0.5-0.1,1-0.1,1.4,0.2c4,2.3,7.9,4.7,11.6,7.5c0.3,0.2,0.6,0.6,0.7,0.9c0.1,0.4,0.1,0.8,0,1.2
	c-0.1,0.4-0.4,0.7-0.7,0.9C203.6,35.6,203.2,35.7,202.8,35.8z"/>
<path class="st3" d="M99.7,18.7c-0.4,0-0.9-0.2-1.2-0.5c-0.3-0.3-0.6-0.7-0.6-1.1c-0.1-0.9,0.4-1.8,1.3-2.1c20.4-6.3,42.2-7,62.9-2
	c0.2,0,0.5,0.2,0.7,0.3c0.2,0.1,0.4,0.3,0.5,0.5c0.1,0.2,0.2,0.4,0.3,0.7c0.1,0.2,0.1,0.5,0,0.7c-0.1,0.2-0.2,0.5-0.3,0.7
	c-0.1,0.2-0.3,0.4-0.5,0.5c-0.2,0.1-0.5,0.2-0.7,0.2c-0.2,0-0.5,0-0.7,0c-20.1-4.8-41.2-4.1-60.9,2C100.1,18.8,99.9,18.8,99.7,18.7z
	"/>
<path class="st2" d="M54.4,45.2c-0.4,0-0.7-0.1-1.1-0.3c-0.3-0.2-0.5-0.5-0.7-0.9c-0.1-0.3-0.2-0.7-0.1-1.1c0.1-0.4,0.3-0.7,0.5-1
	c1.8-1.7,3.8-3.5,5.7-5.1c0.4-0.3,0.9-0.5,1.4-0.4c0.2,0,0.5,0.1,0.7,0.2c0.7,0.3,1.1,1.1,1,1.8c0,0.2-0.1,0.5-0.2,0.7
	c-0.1,0.2-0.3,0.4-0.5,0.6c-1.9,1.6-3.8,3.2-5.6,4.9C55.3,45.1,54.9,45.2,54.4,45.2z"/>
<path class="st1" d="M18.8,144.7c-0.5,0-0.9-0.2-1.2-0.5c-0.3-0.3-0.5-0.7-0.6-1.2c-1.3-10-1.3-20,0-30c1.9-15.2,6.8-29.9,14.3-43.2
	c0.5-0.9,1.6-1.2,2.5-0.7c0,0,0,0,0,0c0.9,0.5,1.2,1.7,0.7,2.6c-7.3,12.9-12.1,27.2-13.9,41.9c-1.2,9.6-1.2,19.4,0,29.1
	c0.1,1-0.6,2-1.6,2.1L18.8,144.7z"/>
<path class="st2" d="M76.2,230.7c-0.3,0-0.7-0.1-0.9-0.2c-4.6-2.6-8.9-5.6-13.1-8.8c-0.4-0.3-0.6-0.7-0.7-1.2
	c-0.1-1,0.6-1.9,1.5-2.1c0.5-0.1,1,0,1.4,0.3c4,3.1,8.3,6,12.7,8.5c0.4,0.2,0.6,0.5,0.8,0.9c0.2,0.4,0.2,0.8,0.1,1.2
	c-0.1,0.4-0.3,0.7-0.7,1C76.9,230.6,76.5,230.7,76.2,230.7L76.2,230.7z"/>
<path class="st3" d="M134.3,246.2c-10.5,0-21-1.4-31.1-4.1c-0.2-0.1-0.5-0.2-0.7-0.3c-0.2-0.1-0.4-0.3-0.5-0.6
	c-0.1-0.2-0.2-0.4-0.2-0.7c0-0.2,0-0.5,0.1-0.7c0.1-0.2,0.2-0.5,0.3-0.7c0.2-0.2,0.3-0.4,0.6-0.5c0.2-0.1,0.4-0.2,0.7-0.2
	c0.2,0,0.5,0,0.7,0.1c17.8,4.8,36.6,5.3,54.6,1.4c1-0.2,2,0.4,2.2,1.4c0.1,0.5,0,1-0.2,1.4c-0.3,0.4-0.7,0.7-1.2,0.8
	C151.3,245.3,142.8,246.2,134.3,246.2z"/>
<path class="st2" d="M191.4,231.3c-0.9,0-1.6-0.6-1.8-1.4c-0.2-0.8,0.1-1.7,0.9-2.1c2.8-1.6,5.6-3.3,8.2-5.1c0.9-0.6,2-0.4,2.6,0.5
	c0.3,0.4,0.4,0.9,0.3,1.4c-0.1,0.5-0.4,0.9-0.8,1.2c-2.7,1.9-5.6,3.6-8.5,5.3C192,231.2,191.7,231.3,191.4,231.3z"/>
<path class="st0" d="M220.7,207.9c-1,0-1.9-0.8-1.9-1.9c0-0.1,0-0.2,0-0.3c0.1-0.4,0.2-0.7,0.5-1c12.8-14.1,21.8-31.2,26.4-49.7
	c0.1-0.5,0.4-0.9,0.9-1.1c0.4-0.2,0.9-0.3,1.4-0.2c1,0.2,1.6,1.2,1.4,2.2c-4.7,19.1-14,36.8-27.2,51.4c-0.2,0.2-0.4,0.3-0.6,0.4
	C221.2,207.8,221,207.9,220.7,207.9z"/>
<path class="st3" d="M250.7,129.9c-1,0-1.9-0.8-1.9-1.9c0-3.4-0.1-6.9-0.5-10.3c-0.2-2.8-0.6-5.6-1.1-8.4c0-0.2,0-0.5,0-0.7
	c0.1-0.2,0.2-0.5,0.3-0.7c0.1-0.2,0.3-0.4,0.5-0.5c0.2-0.1,0.4-0.2,0.7-0.2c0.2-0.1,0.5-0.1,0.7,0c0.5,0.1,0.9,0.4,1.2,0.8
	c0.1,0.2,0.2,0.4,0.3,0.7c0.5,2.8,0.8,5.8,1.1,8.6c0.3,3.5,0.5,7.1,0.5,10.7c0,0.5-0.2,1-0.6,1.3
	C251.7,129.7,251.2,129.9,250.7,129.9z"/>
<path class="st1" d="M145.4,205.9H44.8c-5.4,0-9.7-4.4-9.8-9.7v-93.7c0-5.4,4.4-9.7,9.8-9.7h138.4c5.9,0,10.8,4.8,10.8,10.8v33.7
	c0,1-0.8,1.9-1.9,1.9c-1,0-1.9-0.8-1.9-1.9v-33.7c0-3.9-3.1-7-7-7H44.8c-3.3,0-6,2.7-6,6v93.7c0,3.3,2.7,6,6,6h100.6
	c1,0,1.9,0.8,1.9,1.9C147.3,205.1,146.4,205.9,145.4,205.9L145.4,205.9z"/>
<path class="st0" d="M86.7,137.2c-6.7,0-12.2-5.5-12.2-12.2c0-6.7,5.5-12.2,12.2-12.2c6.7,0,12.2,5.5,12.2,12.2
	c0,3.2-1.3,6.3-3.6,8.6C93,136,89.9,137.3,86.7,137.2z M86.7,116.6c-4.7,0-8.5,3.8-8.5,8.5c0,0.6,0.1,1.1,0.2,1.7
	c0.3,1.6,1.1,3.1,2.3,4.3c1.2,1.2,2.7,2,4.3,2.4c4.6,0.9,9.1-2,10-6.6c0.9-4.6-2-9.1-6.6-10C87.8,116.6,87.2,116.6,86.7,116.6
	L86.7,116.6z"/>
<path class="st0" d="M66,137.2c-6.7,0-12.2-5.5-12.2-12.2s5.5-12.2,12.2-12.2c6.7,0,12.2,5.5,12.2,12.2c0,3.2-1.3,6.3-3.6,8.6
	C72.4,136,69.2,137.3,66,137.2z M66,116.6c-4.7,0-8.5,3.8-8.4,8.5c0,4.7,3.8,8.5,8.5,8.4c4.7,0,8.5-3.8,8.4-8.5c0-2.3-0.9-4.4-2.5-6
	C70.4,117.4,68.2,116.6,66,116.6z"/>
<path class="st0" d="M209.8,146.1c-0.2,0-0.5,0-0.7-0.1c-0.2-0.1-0.4-0.2-0.6-0.4c-0.2-0.2-0.3-0.4-0.4-0.6
	c-0.1-0.2-0.1-0.5-0.1-0.7V85.9c0-3.9-3.2-7-7.1-7H62.5c-3.3,0-6,2.7-6,6v4c0,1-0.8,1.9-1.9,1.9c-1,0-1.9-0.8-1.9-1.9v-4
	c0-5.4,4.4-9.7,9.7-9.7h138.4c6,0,10.8,4.8,10.8,10.8v58.4c0,0.5-0.2,1-0.6,1.3C210.8,146,210.3,146.2,209.8,146.1z"/>
<path class="st1" d="M226.4,165.1c-1,0-1.9-0.8-1.9-1.8c0,0,0,0,0-0.1V67.6c0-3.9-3.2-7-7.1-7H79c-3.3,0-6,2.7-6,6v3.3
	c0,1-0.8,1.9-1.9,1.9c-0.5,0-1-0.2-1.3-0.6c-0.3-0.4-0.5-0.8-0.5-1.3v-3.4c0-5.4,4.4-9.7,9.7-9.7c0,0,0,0,0,0h138.4
	c6,0,10.8,4.8,10.8,10.8v95.6c0,0.2,0,0.5-0.1,0.7c-0.1,0.2-0.2,0.4-0.4,0.6c-0.2,0.2-0.4,0.3-0.6,0.4
	C226.9,165,226.6,165.1,226.4,165.1z"/>
<path class="st0" d="M84.6,168.3H54.7c-1,0-1.9-0.8-1.9-1.9c0-1,0.8-1.9,1.9-1.9h29.9c0.5,0,1,0.2,1.3,0.6c0.7,0.7,0.7,1.9,0,2.6
	c0,0,0,0,0,0C85.6,168.1,85.1,168.3,84.6,168.3z"/>
<path class="st0" d="M84.6,185.9H54.7c-1,0-1.9-0.8-1.9-1.9c0-1,0.8-1.9,1.9-1.9h29.9c1,0,1.9,0.8,1.9,1.9c0,0.5-0.2,1-0.6,1.3
	C85.6,185.7,85.1,185.9,84.6,185.9z"/>
<path class="st0" d="M129.4,168.3h-28.6c-1,0-1.9-0.8-1.9-1.9c0-1,0.8-1.9,1.9-1.9h28.6c1,0,1.9,0.8,1.9,1.9
	C131.2,167.5,130.4,168.3,129.4,168.3z"/>
<path class="st0" d="M129.4,185.9h-28.6c-1,0-1.9-0.8-1.9-1.9c0-1,0.8-1.9,1.9-1.9h28.6c1,0,1.9,0.8,1.9,1.9
	C131.2,185.1,130.4,185.9,129.4,185.9z"/>
<path class="st1" d="M183.7,216.4c-19.7,0-35.7-15.9-35.7-35.7s15.9-35.7,35.7-35.7s35.7,15.9,35.7,35.7c0,9.5-3.8,18.6-10.5,25.3
	C202.2,212.6,193.2,216.4,183.7,216.4z M183.7,148.8c-17.6,0-31.9,14.3-31.9,31.9c0,17.6,14.3,31.9,31.9,31.9s31.9-14.3,31.9-31.9
	c0-8.5-3.4-16.6-9.3-22.6C200.3,152.2,192.2,148.8,183.7,148.8z"/>
<g>
	<path class="st2" d="M25.8,49.9c-5.5,0.3-10.2-3.9-10.6-9.4c-0.3-5.2,3.4-9.8,8.6-10.5c4-0.8,8,0.9,10.3,4.3
		c3.1,4.6,1.9,10.8-2.7,13.9C29.8,49.3,27.9,49.9,25.8,49.9L25.8,49.9z M25.8,33.7c-2.5,0-4.7,1.5-5.7,3.8c-1.3,3.2,0.2,6.8,3.3,8.1
		s6.8-0.2,8.1-3.3c1-2.3,0.4-5-1.3-6.8C29.1,34.3,27.5,33.7,25.8,33.7z"/>
</g>
<path class="st0" d="M198.3,179.9c0,1-0.8,1.8-1.8,1.8h-10.9v10.9c0.1,1-0.7,1.9-1.7,1.9c-1,0.1-1.9-0.7-1.9-1.7c0-0.1,0-0.2,0-0.3
	v-10.9h-10.9c-1,0-1.8-0.8-1.8-1.8c0-1,0.8-1.8,1.8-1.8H182v-10.9c0-1,0.8-1.8,1.8-1.8c1,0,1.8,0.8,1.8,1.8V178h10.9
	C197.5,178,198.3,178.8,198.3,179.9C198.3,179.8,198.3,179.8,198.3,179.9z"/>
</svg>
