<?xml version="1.0" encoding="utf-8"?>
<!-- Generator: Adobe Illustrator 25.2.0, SVG Export Plug-In . SVG Version: 6.00 Build 0)  -->
<svg version="1.1" id="Layer_1" xmlns="http://www.w3.org/2000/svg" xmlns:xlink="http://www.w3.org/1999/xlink" x="0px" y="0px"
	 viewBox="0 0 203.9 209" style="enable-background:new 0 0 203.9 209;" xml:space="preserve">
<style type="text/css">
	.st0{fill:#E4E4E4;}
	.st1{fill:#7C4DFF;fill-opacity:0.2;}
	.st2{fill:#494949;}
	.st3{fill:#FFFFFF;}
	.st4{fill:#C6B6FF;}
	.st5{fill:#666666;}
	.st6{fill:#D3D3D3;}
	.st7{fill:#F2F7FA;}
	.st8{fill:#EFF8FF;}
	.st9{fill-rule:evenodd;clip-rule:evenodd;fill:#C6B6FF;}
</style>
<path class="st0" d="M104.7,199.9c49.7,0,90-40.3,90-90s-40.3-90-90-90s-90,40.3-90,90S55,199.9,104.7,199.9z"/>
<path class="st1" d="M95.8,166.5c39.8,0,72.1-32.2,72.1-72c0-39.8-32.2-72.1-72-72.1c-39.8,0-72.1,32.2-72.1,72c0,0,0,0.1,0,0.1
	C23.8,134.3,56.1,166.5,95.8,166.5z"/>
<path class="st2" d="M60.3,125.7c-0.1,0-0.3-0.1-0.4-0.2c-0.7-0.7-1.3-1.3-2-2c-0.1-0.1-0.1-0.2-0.1-0.4c0-0.1,0.1-0.3,0.2-0.4
	c0.1-0.1,0.2-0.2,0.4-0.2c0.1,0,0.3,0,0.4,0.1c0.6,0.7,1.3,1.3,2,2c0.1,0.1,0.1,0.2,0.2,0.3c0,0.1,0,0.2,0,0.3
	c0,0.1-0.1,0.2-0.2,0.3C60.5,125.7,60.4,125.7,60.3,125.7L60.3,125.7z"/>
<path class="st2" d="M54.7,119.5c-0.1,0-0.2,0-0.2-0.1c-0.1,0-0.2-0.1-0.2-0.2c-1.2-1.5-2.2-3-3.2-4.6c-0.1-0.1-0.1-0.3-0.1-0.4
	c0-0.2,0.1-0.3,0.2-0.4c0.1-0.1,0.3-0.1,0.4-0.1c0.2,0,0.3,0.1,0.4,0.2l0.1,0.1c1,1.5,2,3,3.2,4.5c0.1,0.1,0.1,0.2,0.1,0.3
	c0,0.1,0,0.2,0,0.3c0,0.1-0.1,0.2-0.2,0.2C55,119.4,54.8,119.5,54.7,119.5L54.7,119.5z M154.1,116.5c-0.1,0-0.2,0-0.3-0.1
	c-0.1-0.1-0.2-0.1-0.2-0.2c-0.1-0.2-0.1-0.4,0-0.6c1-1.5,2-3.1,2.9-4.7c0.1-0.1,0.2-0.2,0.3-0.3c0.1-0.1,0.3-0.1,0.4,0
	c0.1,0.1,0.2,0.2,0.3,0.3c0.1,0.1,0.1,0.3,0,0.4l-0.1,0.1c-0.9,1.6-1.9,3.2-3,4.7c-0.1,0.1-0.1,0.1-0.2,0.2
	C154.3,116.4,154.2,116.5,154.1,116.5L154.1,116.5z M48.7,110.2c-0.1,0-0.2,0-0.3-0.1c-0.1-0.1-0.2-0.1-0.2-0.2
	c-0.9-1.6-1.7-3.3-2.4-5.1c-0.2-0.3-0.1-0.6,0.2-0.8c0,0,0,0,0,0c0.1-0.1,0.3-0.1,0.4,0c0.1,0,0.3,0.1,0.3,0.3v0.1
	c0.7,1.7,1.5,3.4,2.3,5c0.1,0.1,0.1,0.3,0,0.4c0,0.1-0.1,0.3-0.3,0.3C48.8,110.2,48.7,110.3,48.7,110.2L48.7,110.2z M159.6,106.8
	c-0.1,0-0.2,0-0.3-0.1c-0.1,0-0.1-0.1-0.2-0.2c-0.1-0.1-0.1-0.2-0.1-0.3c0-0.1,0-0.2,0.1-0.3c0.7-1.7,1.4-3.4,2-5.1
	c0-0.1,0-0.1,0.1-0.2c0-0.1,0.1-0.1,0.2-0.2c0.1,0,0.1-0.1,0.2-0.1c0.1,0,0.1,0,0.2,0c0.1,0,0.1,0.1,0.2,0.1c0.1,0,0.1,0.1,0.1,0.2
	c0,0.1,0.1,0.1,0.1,0.2c0,0.1,0,0.2,0,0.2c0,0,0,0.1,0,0.1c-0.6,1.8-1.3,3.5-2,5.2c0,0.1-0.1,0.2-0.2,0.2
	C159.9,106.8,159.7,106.8,159.6,106.8L159.6,106.8z M44.5,100c-0.2,0-0.5-0.2-0.5-0.4c-0.5-1.8-1-3.6-1.4-5.4c0-0.1,0-0.3,0.1-0.4
	c0.1-0.1,0.2-0.2,0.3-0.2c0.1,0,0.3,0,0.4,0.1c0.1,0.1,0.2,0.2,0.3,0.3c0.4,1.8,0.8,3.6,1.4,5.3c0.1,0.1,0.1,0.3,0,0.4
	c-0.1,0.1-0.2,0.2-0.3,0.3C44.6,100,44.6,100,44.5,100L44.5,100z M163.2,96.4H163c-0.3-0.1-0.5-0.4-0.4-0.7c0.4-1.8,0.8-3.6,1.1-5.4
	c0-0.1,0.1-0.3,0.2-0.3c0.1-0.1,0.3-0.1,0.4-0.1c0.1,0,0.3,0.1,0.4,0.2c0.1,0.1,0.1,0.2,0.1,0.4c-0.3,1.8-0.6,3.7-1.1,5.5
	c0,0.1-0.1,0.2-0.2,0.3C163.4,96.4,163.3,96.4,163.2,96.4L163.2,96.4z M42.2,89.2c-0.1,0-0.3-0.1-0.4-0.1c-0.1-0.1-0.2-0.2-0.2-0.3
	c-0.2-1.8-0.4-3.7-0.4-5.6c0-0.2,0-0.3,0.2-0.4c0.1-0.1,0.2-0.2,0.4-0.2c0.1,0,0.3,0,0.4,0.1c0.1,0.1,0.2,0.2,0.2,0.3v0
	c0.1,1.8,0.2,3.7,0.4,5.5C42.8,88.8,42.5,89.1,42.2,89.2L42.2,89.2z M164.9,85.5L164.9,85.5c-0.2,0-0.3-0.1-0.4-0.2
	c-0.1-0.1-0.2-0.3-0.1-0.4c0.1-1.2,0.1-2.5,0.1-3.8c0-0.6,0-1.2,0-1.7c0-0.1,0-0.3,0.1-0.4c0.1-0.1,0.2-0.2,0.4-0.2l0,0
	c0.1,0,0.3,0.1,0.4,0.2c0.1,0.1,0.2,0.2,0.2,0.4c0,0.6,0,1.2,0,1.7c0,1.3,0,2.6-0.1,3.8c0,0.1-0.1,0.3-0.2,0.4
	C165.2,85.4,165,85.5,164.9,85.5L164.9,85.5z M41.9,78.1L41.9,78.1c-0.1,0-0.3-0.1-0.4-0.2c-0.1-0.1-0.2-0.3-0.1-0.4
	c0.1-1.9,0.3-3.7,0.6-5.6c0-0.1,0-0.2,0.1-0.2c0-0.1,0.1-0.1,0.2-0.2c0.1-0.1,0.1-0.1,0.2-0.1c0.1,0,0.2,0,0.2,0
	c0.1,0,0.2,0,0.2,0.1c0.1,0,0.1,0.1,0.2,0.2c0,0.1,0.1,0.1,0.1,0.2c0,0.1,0,0.2,0,0.2c-0.3,1.8-0.5,3.6-0.6,5.5
	c0,0.1-0.1,0.3-0.2,0.4C42.2,78.1,42,78.1,41.9,78.1L41.9,78.1z M164.6,74.4c-0.1,0-0.3-0.1-0.4-0.1c-0.1-0.1-0.2-0.2-0.2-0.4
	c-0.2-1.8-0.5-3.6-0.9-5.4c-0.1-0.1-0.1-0.3,0-0.4c0.1-0.1,0.2-0.2,0.3-0.3c0.1-0.1,0.3-0.1,0.4,0c0.1,0.1,0.2,0.2,0.3,0.3v0.1
	c0.4,1.8,0.7,3.7,0.9,5.5C165.1,74.1,164.9,74.3,164.6,74.4L164.6,74.4z M43.4,67.1c-0.1,0-0.1,0-0.2,0c-0.1,0-0.1-0.1-0.2-0.1
	c-0.1-0.1-0.1-0.1-0.1-0.2c0-0.1,0-0.2,0-0.3c0.4-1.8,1-3.6,1.5-5.4c0.1-0.1,0.2-0.2,0.3-0.3c0.1-0.1,0.3-0.1,0.4,0
	c0.3,0.1,0.4,0.4,0.4,0.7c-0.6,1.7-1.1,3.5-1.5,5.3c0,0.1-0.1,0.2-0.2,0.3C43.7,67.1,43.5,67.2,43.4,67.1L43.4,67.1z M162.2,63.5
	c-0.1,0-0.2,0-0.3-0.1c-0.1-0.1-0.2-0.2-0.2-0.3c-0.5-1.7-1.2-3.5-1.9-5.2c0-0.1,0-0.3,0-0.4c0.1-0.1,0.2-0.2,0.3-0.3
	c0.1,0,0.3,0,0.4,0c0.1,0,0.2,0.1,0.3,0.3c0.7,1.7,1.3,3.5,1.9,5.3c0,0.1,0,0.2,0,0.3c0,0.1,0,0.2-0.1,0.2c-0.1,0.1-0.1,0.1-0.2,0.2
	C162.4,63.5,162.3,63.5,162.2,63.5L162.2,63.5z M47,56.7c-0.1,0-0.2,0-0.3-0.1c-0.1,0-0.1-0.1-0.2-0.2c-0.1-0.1-0.1-0.2-0.1-0.3
	c0-0.1,0-0.2,0-0.3c0.8-1.7,1.6-3.4,2.5-5c0.1-0.1,0.2-0.2,0.3-0.2c0.3-0.1,0.6,0.1,0.7,0.4c0,0.1,0,0.3,0,0.4
	c-0.9,1.6-1.7,3.2-2.5,4.9c0,0.1-0.1,0.2-0.2,0.2C47.2,56.6,47.1,56.6,47,56.7L47,56.7z M158.1,53.3c-0.1,0-0.2,0-0.3-0.1
	c-0.1-0.1-0.2-0.1-0.2-0.2c-0.8-1.6-1.8-3.2-2.7-4.8c0-0.1,0-0.3,0-0.4c0-0.1,0.1-0.3,0.2-0.3c0.1-0.1,0.3-0.1,0.4-0.1
	c0.1,0,0.3,0.1,0.4,0.2c1,1.6,1.9,3.2,2.8,4.8c0,0.1,0.1,0.1,0.1,0.2c0,0.1,0,0.1,0,0.2c0,0.1-0.1,0.1-0.1,0.2
	c0,0.1-0.1,0.1-0.2,0.1C158.3,53.3,158.2,53.3,158.1,53.3L158.1,53.3z M52.3,47c-0.1,0-0.2,0-0.3-0.1c-0.1-0.1-0.2-0.1-0.2-0.2
	c-0.1-0.2-0.1-0.4,0-0.6c1-1.5,2.2-3,3.3-4.5c0-0.1,0.1-0.1,0.2-0.2c0.1,0,0.1-0.1,0.2-0.1c0.1,0,0.2,0,0.2,0c0.1,0,0.1,0,0.2,0.1
	c0.1,0,0.1,0.1,0.2,0.2c0,0.1,0.1,0.1,0.1,0.2c0,0.1,0,0.2,0,0.2c0,0.1,0,0.1-0.1,0.2L56,42.4c-1.2,1.4-2.3,2.9-3.3,4.4
	c-0.1,0.1-0.1,0.1-0.2,0.2C52.5,47,52.4,47,52.3,47L52.3,47z M152.1,44c-0.1,0-0.2,0-0.2-0.1c-0.1,0-0.1-0.1-0.2-0.2
	c-1.1-1.4-2.3-2.8-3.5-4.2c-0.1-0.1-0.1-0.2-0.1-0.4c0-0.1,0.1-0.3,0.2-0.4c0.1-0.1,0.2-0.2,0.4-0.2c0.1,0,0.3,0.1,0.4,0.2
	c1.3,1.4,2.5,2.8,3.6,4.3c0.1,0.1,0.1,0.2,0.1,0.3c0,0.1,0,0.2-0.1,0.3c0,0.1-0.1,0.2-0.2,0.2C152.3,44,152.2,44,152.1,44z
	 M59.3,38.4c-0.1,0-0.2,0-0.3-0.1c-0.1-0.1-0.2-0.1-0.2-0.2c0-0.1,0-0.2,0-0.3c0-0.1,0.1-0.2,0.2-0.3c1.3-1.3,2.7-2.6,4.1-3.8
	c0.1-0.1,0.3-0.1,0.4-0.1c0.1,0,0.3,0.1,0.3,0.2c0.1,0.1,0.1,0.2,0.1,0.4c0,0.1-0.1,0.3-0.2,0.4c-1.4,1.2-2.7,2.4-4,3.7
	C59.7,38.4,59.6,38.4,59.3,38.4L59.3,38.4z M144.6,35.8c-0.1,0-0.3,0-0.4-0.1c-1.4-1.2-2.8-2.4-4.2-3.5c-0.2-0.2-0.2-0.5-0.1-0.8
	c0.1-0.1,0.2-0.2,0.3-0.2c0.1,0,0.3,0,0.4,0.1c1.5,1.1,2.9,2.3,4.3,3.6c0.1,0.1,0.1,0.2,0.2,0.3c0,0.1,0,0.2,0,0.3
	c0,0.1-0.1,0.2-0.2,0.3C144.8,35.8,144.7,35.8,144.6,35.8z M67.8,31.2c-0.1,0-0.2,0-0.3-0.1c-0.1-0.1-0.2-0.2-0.2-0.3
	c0-0.1,0-0.2,0-0.4c0-0.1,0.1-0.2,0.2-0.3c1.5-1.1,3.1-2.1,4.7-3c0.1-0.1,0.3-0.1,0.4-0.1c0.1,0,0.1,0,0.2,0.1
	c0.1,0.1,0.2,0.2,0.2,0.4c0,0.1,0,0.1,0,0.2c0,0.1,0,0.2,0,0.2c0,0.1-0.1,0.1-0.2,0.2l-0.1,0c-1.6,0.9-3.1,1.9-4.6,3
	C68,31.3,67.9,31.3,67.8,31.2L67.8,31.2z M135.8,29.2c-0.1,0-0.2,0-0.3-0.1c-1.6-1-3.2-1.9-4.8-2.7c-0.1-0.1-0.3-0.2-0.3-0.3
	c-0.1-0.1-0.1-0.3,0-0.4c0.1-0.1,0.2-0.2,0.3-0.3c0.1-0.1,0.3-0.1,0.4,0l0.1,0c1.7,0.8,3.3,1.8,4.9,2.7c0.1,0.1,0.2,0.2,0.2,0.3
	c0,0.1,0,0.2,0,0.4c0,0.1-0.1,0.2-0.2,0.3C136,29.2,135.9,29.2,135.8,29.2L135.8,29.2z M77.4,25.7c-0.1,0-0.3,0-0.3-0.1
	c-0.1-0.1-0.2-0.2-0.2-0.3c0-0.1,0-0.2,0-0.4c0.1-0.1,0.1-0.2,0.3-0.3c1.7-0.8,3.4-1.5,5.2-2.1c0.1-0.1,0.3-0.1,0.4,0
	c0.3,0.1,0.4,0.4,0.3,0.7c-0.1,0.1-0.2,0.2-0.3,0.3c-1.7,0.6-3.4,1.3-5.1,2.1C77.5,25.6,77.4,25.7,77.4,25.7L77.4,25.7z M125.9,24.2
	c-0.1,0-0.1,0-0.2,0c-1.7-0.7-3.4-1.3-5.2-1.8c-0.1-0.1-0.2-0.2-0.3-0.3c0-0.1,0-0.3,0-0.4c0-0.1,0.1-0.2,0.2-0.3
	c0.1-0.1,0.3-0.1,0.4-0.1c1.8,0.5,3.6,1.1,5.3,1.8c0.1,0,0.2,0.1,0.3,0.2c0.1,0.1,0.1,0.3,0.1,0.4c0,0.1-0.1,0.2-0.2,0.3
	C126.1,24.2,126,24.2,125.9,24.2z M87.8,22c-0.1,0-0.3-0.1-0.4-0.1c-0.1-0.1-0.2-0.2-0.2-0.3c0-0.1,0-0.3,0.1-0.4
	c0.1-0.1,0.2-0.2,0.3-0.2c1.8-0.5,3.6-0.9,5.5-1.2c0.1,0,0.2,0,0.2,0c0.1,0,0.1,0,0.2,0.1c0.1,0,0.1,0.1,0.2,0.1
	c0,0.1,0.1,0.1,0.1,0.2c0,0.1,0,0.1,0,0.2c0,0.1,0,0.1-0.1,0.2c0,0.1-0.1,0.1-0.2,0.2c-0.1,0-0.1,0.1-0.2,0.1h-0.1
	c-1.8,0.3-3.6,0.7-5.4,1.1C87.8,22,87.8,22,87.8,22L87.8,22z M115.2,21.2h-0.1c-1.8-0.4-3.6-0.6-5.4-0.8c-0.1,0-0.2,0-0.2,0
	c-0.1,0-0.1-0.1-0.2-0.1c-0.1-0.1-0.1-0.1-0.1-0.2c0-0.1,0-0.2,0-0.2c0-0.1,0-0.2,0.1-0.2c0-0.1,0.1-0.1,0.2-0.2
	c0.1,0,0.1-0.1,0.2-0.1c0.1,0,0.2,0,0.2,0c1.8,0.2,3.7,0.5,5.5,0.8c0.3,0.1,0.5,0.3,0.4,0.6C115.8,21,115.5,21.2,115.2,21.2
	L115.2,21.2z M98.7,20.2c-0.1,0-0.3-0.1-0.4-0.2c-0.2-0.2-0.2-0.5,0-0.8c0.1-0.1,0.2-0.2,0.3-0.2c1.8-0.1,3.7-0.2,5.6-0.2
	c0.1,0,0.3,0.1,0.4,0.2c0.1,0.1,0.1,0.2,0.1,0.4c0,0.1-0.1,0.3-0.2,0.4c-0.1,0.1-0.2,0.2-0.4,0.2l0,0C102.4,20,100.6,20,98.7,20.2
	L98.7,20.2z"/>
<path class="st2" d="M148.8,123.2c-0.2,0-0.4-0.1-0.5-0.3c0-0.1,0-0.2,0-0.3c0-0.1,0.1-0.2,0.1-0.3c0.6-0.7,1.2-1.4,1.8-2.1
	c0.1-0.1,0.2-0.2,0.4-0.2c0.1,0,0.3,0,0.4,0.1c0.1,0.1,0.2,0.2,0.2,0.3c0,0.1,0,0.3-0.1,0.4l-0.1,0.1c-0.6,0.7-1.2,1.4-1.9,2.1
	c-0.1,0.1-0.1,0.1-0.2,0.1C149,123.1,148.9,123.2,148.8,123.2z"/>
<path class="st2" d="M161.4,174.2H45.2c-0.2,0-0.3,0-0.4-0.1c-0.1,0-0.1-0.1-0.1-0.2c0-0.1-0.1-0.1-0.1-0.2c0-0.1,0-0.1,0-0.2
	c0-0.1,0.1-0.1,0.1-0.2c0-0.1,0.1-0.1,0.2-0.1c0.1,0,0.1-0.1,0.2-0.1c0,0,0.1,0,0.1,0h116.2c0.1,0,0.3,0.1,0.4,0.2
	c0.2,0.2,0.2,0.5,0,0.8C161.7,174.1,161.6,174.2,161.4,174.2z"/>
<path class="st1" d="M170.1,104.1c9.9,0,17.9-8,17.9-17.9s-8-17.9-17.9-17.9c-9.9,0-17.9,8-17.9,17.9l0,0
	C152.2,96.1,160.2,104.1,170.1,104.1z"/>
<path class="st3" d="M168,102c9.9,0,17.9-8,17.9-17.9s-8-17.9-17.9-17.9c-9.9,0-17.9,8-17.9,17.9l0,0C150.1,94,158.1,102,168,102z"
	/>
<path class="st3" d="M168,67.3c9.7,0,17.6,7.7,17.9,17.4c0-0.2,0-0.3,0-0.5c0-9.9-8-17.9-17.9-17.9s-17.9,8-17.9,17.9
	c0,0.2,0,0.3,0,0.5C150.4,75,158.3,67.3,168,67.3z"/>
<path class="st2" d="M168,102.6c-10.2,0-18.5-8.2-18.5-18.4s8.2-18.5,18.4-18.5c10.2,0,18.5,8.2,18.5,18.4c0,4.9-1.9,9.6-5.4,13.1
	C177.6,100.6,172.9,102.6,168,102.6z M168,66.8c-9.6,0-17.3,7.8-17.3,17.3s7.8,17.3,17.3,17.3c9.6,0,17.3-7.8,17.3-17.3
	c0-4.6-1.8-9-5.1-12.3C177,68.6,172.6,66.8,168,66.8z"/>
<path class="st4" d="M49.4,21.5V21V21.5L49.4,21.5z M49.4,21.5c-0.4,0-0.8-0.1-1.2-0.1l0.3-1.1c0.3,0.1,0.6,0.1,0.9,0.1L49.4,21.5z
	 M50.6,21.4l-0.3-1.1c0.3-0.1,0.6-0.2,0.8-0.4l0.5,0.9C51.3,21.1,51,21.3,50.6,21.4z M47.1,20.9c-0.3-0.2-0.7-0.4-1-0.7l0.8-0.8
	c0.2,0.2,0.5,0.4,0.7,0.6L47.1,20.9z M52.6,20.2l-0.8-0.8c0.2-0.2,0.4-0.5,0.6-0.7l1,0.5C53.2,19.6,53,19.9,52.6,20.2L52.6,20.2z
	 M45.4,19.2c-0.2-0.3-0.4-0.7-0.5-1.1l1-0.3c0.1,0.3,0.2,0.6,0.3,0.8L45.4,19.2z M53.8,18.1l-1.1-0.3c0.1-0.3,0.1-0.6,0.1-0.9l1.1,0
	v0C54,17.3,53.9,17.7,53.8,18.1z M44.8,16.9L44.8,16.9c0-0.4,0.1-0.8,0.2-1.2L46,16c-0.1,0.3-0.1,0.6-0.1,0.9L44.8,16.9z M52.8,15.9
	c-0.1-0.3-0.2-0.6-0.4-0.8l0.9-0.6c0.2,0.3,0.4,0.7,0.5,1.1L52.8,15.9z M46.3,15.2l-1-0.5c0.2-0.4,0.4-0.7,0.7-1l0.8,0.8
	C46.6,14.6,46.4,14.8,46.3,15.2L46.3,15.2z M51.8,14.4c-0.2-0.2-0.5-0.4-0.7-0.6l0.5-0.9c0.4,0.2,0.7,0.4,1,0.7L51.8,14.4z
	 M47.6,13.9L47,12.9c0.3-0.2,0.7-0.4,1.1-0.5l0.3,1C48.1,13.6,47.8,13.7,47.6,13.9L47.6,13.9z M50.2,13.5c-0.3-0.1-0.6-0.1-0.9-0.1
	v-1.1l0,0c0.4,0,0.8,0,1.2,0.1L50.2,13.5z"/>
<path class="st5" d="M43.7,32.6c-0.1,0-0.2,0-0.3-0.1c-0.1-0.1-0.2-0.1-0.2-0.2c-0.1-0.2,0-0.5,0.1-0.6l1.5-1.5
	c0.1-0.1,0.2-0.1,0.4-0.1c0.3,0,0.5,0.3,0.5,0.5c0,0.1,0,0.3-0.1,0.4l-1.5,1.5C44,32.5,43.9,32.6,43.7,32.6z"/>
<path class="st5" d="M41.6,32.6c-0.1,0-0.3-0.1-0.4-0.2L39.8,31c-0.1-0.1-0.1-0.2-0.1-0.4c0-0.1,0.1-0.3,0.2-0.4
	c0.1-0.1,0.2-0.2,0.4-0.2c0.1,0,0.3,0,0.4,0.1l1.4,1.4c0.2,0.2,0.2,0.6,0,0.8c0,0,0,0-0.1,0.1C41.8,32.6,41.7,32.6,41.6,32.6
	L41.6,32.6z"/>
<path class="st5" d="M40.2,36.2c-0.1,0-0.2,0-0.3-0.1c-0.1-0.1-0.2-0.1-0.2-0.2c0-0.1,0-0.2,0-0.3c0-0.1,0.1-0.2,0.2-0.3l1.5-1.5
	c0.1-0.1,0.2-0.1,0.4-0.1c0.3,0,0.5,0.3,0.5,0.5c0,0.1,0,0.3-0.1,0.4L40.6,36C40.5,36.1,40.3,36.2,40.2,36.2z"/>
<path class="st5" d="M45.2,36.2c-0.2,0-0.3-0.1-0.4-0.2l-1.5-1.5c-0.1-0.1-0.1-0.2-0.1-0.4c0-0.1,0.1-0.3,0.2-0.4
	c0.1-0.1,0.2-0.2,0.4-0.2c0.1,0,0.3,0,0.4,0.1l1.5,1.5c0.1,0.1,0.1,0.2,0.2,0.3c0,0.1,0,0.2,0,0.3c0,0.1-0.1,0.2-0.2,0.2
	C45.5,36.1,45.4,36.2,45.2,36.2L45.2,36.2z"/>
<path class="st2" d="M112.6,203.9c-0.1,0-0.2,0-0.3-0.1c-0.1-0.1-0.2-0.2-0.2-0.3l-3.2-8.2c-28-21.4-27.5-47.3-27.5-47.5
	c0-0.1,0.1-0.3,0.2-0.4c0.1-0.1,0.3-0.2,0.4-0.2h50.5v-40.8c0-0.1,0.1-0.3,0.1-0.4c0.1-0.1,0.2-0.2,0.3-0.2c0.1,0,0.3,0,0.4,0.1
	c0.1,0.1,0.2,0.2,0.2,0.3l10.4,28.1c3.3,9,4.8,18.6,4.2,28.2l-1.1,19.3l3.1,8.9c0.1,0.1,0.1,0.3,0,0.4c-0.1,0.1-0.2,0.2-0.3,0.3
	c-0.1,0.1-0.3,0.1-0.4,0c-0.1,0-0.3-0.1-0.3-0.3c0,0,0-0.1,0-0.1l-3.2-9c0-0.1,0-0.1,0-0.2l1.1-19.4c0.6-9.4-0.9-18.9-4.1-27.7
	l-9.3-25.2v38.3c0,0.3-0.3,0.6-0.6,0.6H82.5c0.1,3.8,1.8,26.8,27.2,46.1c0.1,0.1,0.1,0.1,0.2,0.2l3.3,8.3c0.1,0.1,0.1,0.3,0,0.4
	c-0.1,0.1-0.2,0.2-0.3,0.3C112.7,203.9,112.7,203.9,112.6,203.9z"/>
<path class="st3" d="M87.1,92.3c0,0-12.1-3.1-16.9-3.7s-10.6,10,1.7,13.9c4.4,1.5,8.9,2.7,13.5,3.7h0.3L87.1,92.3z"/>
<path class="st2" d="M85.6,106.8h-0.3c-0.2,0-3.9-0.7-13.6-3.8c-5.4-1.7-8.3-5.1-7.7-9.2c0.5-3.3,3.5-6.1,6.2-5.8
	c4.9,0.6,16.5,3.6,17,3.8c0.1,0,0.3,0.1,0.3,0.2c0.1,0.1,0.1,0.2,0.1,0.4l-1.5,13.9c0,0.1-0.1,0.3-0.2,0.4
	C85.9,106.7,85.7,106.8,85.6,106.8z M69.7,89.1c-2.1,0-4.2,2.2-4.7,4.9c-0.2,1.7-0.1,5.8,6.9,7.9c8.2,2.6,12.2,3.5,13.1,3.7
	l1.4-12.9c-2.3-0.6-12.1-3.1-16.4-3.6C70,89.1,69.8,89.1,69.7,89.1L69.7,89.1z"/>
<path class="st3" d="M86.1,112.3c0,0-12-3.1-16.9-3.7s-10.6,10.1,1.6,13.9c4.4,1.5,8.9,2.7,13.5,3.7h0.3L86.1,112.3z"/>
<path class="st2" d="M84.6,126.8h-0.3c-0.2,0-3.9-0.7-13.6-3.8c-5.4-1.7-8.3-5.1-7.7-9.2c0.5-3.3,3.5-6.2,6.2-5.8
	c4.9,0.6,16.5,3.6,17,3.8c0.1,0,0.2,0.1,0.3,0.2c0.1,0.1,0.1,0.2,0.1,0.4l-1.5,13.9c0,0.1-0.1,0.3-0.2,0.4
	C84.9,126.7,84.7,126.8,84.6,126.8z M68.7,109.1c-2.1,0-4.2,2.2-4.7,4.9c-0.3,1.7-0.1,5.8,6.9,7.9c8.2,2.6,12.1,3.5,13.1,3.7
	l1.4-12.9c-2.3-0.6-12.1-3.1-16.4-3.6L68.7,109.1L68.7,109.1z"/>
<path class="st3" d="M88.4,126.7c0,0-12-3.1-16.9-3.7s-10.6,10,1.7,13.9c4.4,1.5,8.9,2.7,13.5,3.7h0.3L88.4,126.7z"/>
<path class="st2" d="M86.9,141.2h-0.3c-4.6-1-9.1-2.2-13.6-3.8c-5.4-1.7-8.3-5.1-7.7-9.2c0.5-3.3,3.5-6.2,6.2-5.8
	c4.9,0.6,16.5,3.6,17,3.8c0.1,0,0.2,0.1,0.3,0.2c0.1,0.1,0.1,0.2,0.1,0.4l-1.5,13.9c0,0.1-0.1,0.3-0.2,0.4
	C87.2,141.1,87.1,141.2,86.9,141.2z M71.1,123.5c-2.1,0-4.2,2.2-4.7,4.9c-0.3,1.7-0.1,5.8,6.9,8c8.2,2.6,12.2,3.5,13.1,3.7l1.4-12.9
	c-2.3-0.6-12.1-3.1-16.4-3.6L71.1,123.5L71.1,123.5z"/>
<path class="st4" d="M36.1,174H23.5c-0.3,0-0.5-0.3-0.5-0.6c0-0.1,0-0.3,0.1-0.4c0.1-0.1,0.2-0.2,0.4-0.2h12.7
	c0.1,0,0.3,0.1,0.4,0.2c0.1,0.1,0.2,0.2,0.2,0.4c0,0.1-0.1,0.3-0.2,0.4C36.4,173.9,36.3,174,36.1,174z"/>
<path class="st4" d="M175.5,174.2h-4.3c-0.1,0-0.3-0.1-0.4-0.2c-0.2-0.2-0.2-0.5,0-0.8c0.1-0.1,0.2-0.2,0.4-0.2h4.3
	c0.1,0,0.3,0,0.4,0.1c0.2,0.2,0.3,0.6,0.1,0.8c0,0,0,0,0,0c-0.1,0.1-0.2,0.2-0.4,0.2L175.5,174.2z"/>
<path class="st1" d="M136.7,144.8v-30.2l-3.7-10.1V146H81.9c0.3,4.6,1.1,9.1,2.4,13.5c0.4,0,0.8,0.1,1.3,0.1H122
	C130.1,159.5,136.7,153,136.7,144.8L136.7,144.8z"/>
<path class="st6" d="M122,35.3H85.5c-8.1,0-14.7,6.6-14.7,14.7c0,0,0,0,0,0v92.9c0,8.1,6.6,14.7,14.7,14.7c0,0,0,0,0,0H122
	c8.1,0,14.7-6.6,14.7-14.6c0,0,0,0,0,0V50C136.7,41.9,130.1,35.3,122,35.3C122,35.3,122,35.3,122,35.3z"/>
<path class="st4" d="M122,155.6H85.5c-8.1,0-14.7-6.6-14.7-14.7v2c0,8.1,6.6,14.7,14.7,14.7c0,0,0,0,0,0H122
	c8.1,0,14.7-6.6,14.7-14.6c0,0,0,0,0,0v-2C136.7,149,130.1,155.6,122,155.6z"/>
<path class="st3" d="M122,35.3H85.5c-8.1,0-14.7,6.6-14.7,14.7c0,0,0,0,0,0v1c0-8.1,6.5-14.7,14.6-14.7c0,0,0,0,0,0H122
	c8.1,0,14.7,6.6,14.7,14.7c0,0,0,0,0,0.1v-1C136.7,41.9,130.1,35.3,122,35.3C122,35.3,122,35.3,122,35.3z"/>
<path class="st7" d="M129.5,51.6H78.1c-1.3,0-2.3,1-2.3,2.3v90.2c0,1.3,1,2.3,2.3,2.3c0,0,0,0,0,0h51.4c1.3,0,2.3-1,2.3-2.3
	c0,0,0,0,0,0V53.9C131.8,52.6,130.8,51.6,129.5,51.6z"/>
<path class="st4" d="M129.5,147H78.1c-1.6,0-2.9-1.3-2.9-2.9V53.9c0-0.8,0.3-1.5,0.8-2c0.5-0.5,1.2-0.8,2-0.8h51.4
	c0.8,0,1.5,0.3,2.1,0.8c0.5,0.5,0.8,1.2,0.9,2v90.2C132.3,145.7,131,147,129.5,147L129.5,147z M78.1,52.2c-0.5,0-0.9,0.2-1.3,0.5
	c-0.3,0.3-0.5,0.8-0.5,1.2v90.2c0,1,0.8,1.8,1.8,1.8h51.4c0.5,0,0.9-0.2,1.2-0.5c0.3-0.3,0.5-0.8,0.5-1.2V53.9
	c0-0.5-0.2-0.9-0.5-1.2c-0.3-0.3-0.8-0.5-1.2-0.5H78.1z"/>
<path class="st3" d="M122,158.1H85.5c-8.4,0-15.2-6.8-15.2-15.2V50c0-8.4,6.8-15.2,15.2-15.3c0,0,0,0,0,0h26c0.2,0,0.3,0,0.4,0.1
	c0.1,0.1,0.2,0.2,0.2,0.4c0,0.2,0,0.3-0.1,0.4c-0.1,0.1-0.2,0.2-0.4,0.2H85.5c-7.8,0-14.1,6.3-14.1,14.1c0,0,0,0,0,0v92.9
	c0,7.8,6.3,14.1,14.1,14.1H122c7.8,0,14.1-6.3,14.1-14.1V50c0-7.8-6.3-14.1-14.1-14.1c0,0,0,0,0,0h-5.4c-0.1,0-0.3-0.1-0.4-0.2
	c-0.1-0.1-0.1-0.2-0.1-0.4c0-0.3,0.2-0.5,0.5-0.6h5.4c8.4,0,15.2,6.8,15.3,15.2c0,0,0,0,0,0.1v92.9
	C137.2,151.3,130.4,158.1,122,158.1z"/>
<path class="st2" d="M105.6,41.7c0,0.4-0.1,0.7-0.3,1c-0.4,0.6-1.2,0.9-1.9,0.8c-0.4-0.1-0.7-0.2-1-0.5c-0.3-0.3-0.4-0.6-0.5-1
	c-0.1-0.4,0-0.7,0.1-1.1c0.1-0.3,0.4-0.6,0.7-0.8c0.8-0.6,2-0.4,2.6,0.5C105.5,40.9,105.6,41.3,105.6,41.7L105.6,41.7z"/>
<path class="st2" d="M111.1,46.9H96.5c-0.1,0-0.3-0.1-0.4-0.2c-0.2-0.2-0.2-0.5,0-0.8c0.1-0.1,0.2-0.2,0.4-0.2h14.6
	c0.1,0,0.3,0.1,0.4,0.2c0.2,0.2,0.2,0.5,0,0.8C111.4,46.8,111.2,46.9,111.1,46.9z"/>
<path class="st4" d="M79.9,54.8c0,0.2,0,0.3-0.1,0.5c-0.1,0.1-0.2,0.2-0.4,0.3c-0.3,0.1-0.6,0-0.9-0.2c-0.1-0.1-0.2-0.3-0.2-0.4
	c0-0.2,0-0.3,0-0.5c0.1-0.1,0.2-0.3,0.3-0.4c0.1-0.1,0.3-0.1,0.4-0.1C79.5,54,79.9,54.4,79.9,54.8L79.9,54.8z"/>
<path class="st4" d="M82.3,54.8c0,0.2,0,0.3-0.1,0.5c-0.1,0.1-0.2,0.2-0.4,0.3c-0.2,0-0.3,0-0.5,0c-0.2,0-0.3-0.1-0.4-0.2
	c-0.1-0.1-0.2-0.3-0.2-0.4c0-0.2,0-0.3,0-0.5c0.1-0.1,0.2-0.3,0.3-0.4c0.1-0.1,0.3-0.1,0.4-0.1C81.9,54,82.3,54.4,82.3,54.8
	L82.3,54.8z"/>
<path class="st4" d="M84.8,54.8c0,0.2,0,0.3-0.1,0.5c-0.1,0.1-0.2,0.2-0.4,0.3c-0.2,0-0.3,0-0.5,0c-0.3-0.1-0.6-0.3-0.6-0.6
	c0-0.2,0-0.3,0-0.5c0.1-0.1,0.2-0.3,0.3-0.4C83.6,54,83.8,54,84,54C84.4,54,84.8,54.4,84.8,54.8L84.8,54.8z"/>
<path class="st4" d="M93.8,55.4h-6.2c-0.1,0-0.3-0.1-0.4-0.2c-0.1-0.1-0.2-0.2-0.2-0.4c0-0.1,0.1-0.3,0.2-0.4
	c0.1-0.1,0.2-0.2,0.4-0.2h6.2c0.2,0,0.3,0,0.4,0.1c0.1,0.1,0.2,0.2,0.2,0.4c0,0.1,0,0.3-0.1,0.4c-0.1,0.1-0.2,0.2-0.4,0.2L93.8,55.4
	z"/>
<path class="st4" d="M126.7,56.2h-4.8c-0.2,0-0.3-0.1-0.4-0.2c-0.1-0.1-0.2-0.3-0.2-0.4V54c0-0.1,0.1-0.3,0.2-0.4
	c0.1-0.1,0.3-0.2,0.4-0.2h4.8c0.1,0,0.2,0,0.2,0c0.1,0,0.1,0.1,0.2,0.1c0.1,0,0.1,0.1,0.1,0.2c0,0.1,0,0.1,0,0.2v1.6
	c0,0.2-0.1,0.3-0.2,0.4C127,56.1,126.8,56.2,126.7,56.2z M122.4,55.1h3.7v-0.5h-3.7V55.1z"/>
<path class="st4" d="M127.7,54.3h-1v1h1V54.3z"/>
<path class="st3" d="M86.7,38.8h-1.4c-0.2,0-0.3,0-0.4-0.1c-0.1-0.1-0.2-0.2-0.2-0.4c0-0.1,0-0.3,0.1-0.4c0.1-0.1,0.2-0.2,0.4-0.2
	h1.5c0.2,0,0.3,0,0.4,0.1c0.1,0.1,0.2,0.2,0.2,0.4c0,0.2,0,0.3-0.1,0.4c-0.1,0.1-0.2,0.2-0.4,0.2L86.7,38.8z"/>
<path class="st3" d="M97,38.8h-7.5c-0.3,0-0.5-0.3-0.5-0.6c0-0.1,0-0.3,0.1-0.4c0.1-0.1,0.2-0.2,0.4-0.2H97c0.1,0,0.3,0,0.4,0.1
	c0.1,0.1,0.2,0.2,0.2,0.4c0,0.2,0,0.3-0.1,0.4c-0.1,0.1-0.2,0.2-0.4,0.2H97z"/>
<path class="st2" d="M107.9,151.8h-8.2c-0.1,0-0.3,0-0.4-0.1c-0.1-0.1-0.2-0.2-0.2-0.4c0-0.1,0-0.3,0.1-0.4c0.1-0.1,0.2-0.2,0.4-0.2
	h8.3c0.1,0,0.3,0.1,0.4,0.2c0.1,0.1,0.2,0.2,0.2,0.4c0,0.1-0.1,0.3-0.2,0.4C108.2,151.8,108,151.8,107.9,151.8z"/>
<path class="st3" d="M142.8,150.5c0,0-6.6-23.2-9.9-26.2s-19.8-8.8-23.5-10.2c-5.7-2.1-11.6,7.1-4.2,12.7c6.5,5,12.3,10.5,12.3,10.5
	l1.2,16.3c-7.5,9.4-9.6,22-5.5,33.4L142.8,150.5z"/>
<path class="st2" d="M113.2,187.5c-0.1,0-0.2,0-0.3-0.1c-0.1-0.1-0.2-0.2-0.2-0.3c-4.1-11.4-2-24.1,5.4-33.7l-1.1-15.9
	c-1-0.9-6.2-5.9-12.1-10.3c-4.4-3.3-4.2-7.7-2.7-10.4c1.6-3,4.7-4.3,7.5-3.3l0.9,0.3c8.4,3.1,19.9,7.4,22.8,10
	c3.4,3.1,9.8,25.5,10,26.5c0,0.1,0,0.3-0.1,0.4c-0.1,0.1-0.2,0.2-0.3,0.2c-0.1,0.1-0.3,0.1-0.4,0c-0.1-0.1-0.2-0.2-0.3-0.3
	c-1.8-6.4-7.1-23.6-9.7-25.9c-3-2.7-17.6-8-22.4-9.8l-0.9-0.3c-2.6-1-5,0.8-6.1,2.8c-1.3,2.3-1.4,6.1,2.4,9
	c6.5,5,12.3,10.5,12.3,10.6c0.1,0.1,0.2,0.2,0.2,0.4l1.2,16.3c0,0.1,0,0.1,0,0.2c0,0.1-0.1,0.1-0.1,0.2c-7.3,9.3-9.3,21.6-5.4,32.8
	c0,0.1,0,0.1,0,0.2c0,0.1,0,0.1,0,0.2c0,0.1-0.1,0.1-0.1,0.2c-0.1,0.1-0.1,0.1-0.2,0.1C113.4,187.6,113.3,187.6,113.2,187.5z"/>
<path class="st1" d="M57.9,53.5H20.4c-1.7,0-3.1,1.4-3.1,3.1v22.3c0,1.7,1.4,3.1,3.1,3.1h37.5c1.7,0,3.1-1.4,3.1-3.1V56.6
	C61,54.9,59.6,53.5,57.9,53.5z"/>
<path class="st3" d="M55.8,51.4H18.4c-1.7,0-3.1,1.4-3.1,3.1l0,0v22.3c0,1.7,1.4,3.1,3.1,3.1c0,0,0,0,0,0h37.5
	c1.7,0,3.1-1.4,3.1-3.1V54.5C58.9,52.8,57.5,51.4,55.8,51.4L55.8,51.4z"/>
<path class="st8" d="M55.8,77.9H18.4c-1.7,0-3.1-1.4-3.1-3.1c0,0,0,0,0,0v2.1c0,1.7,1.4,3.1,3.1,3.1c0,0,0,0,0,0h37.5
	c1.7,0,3.2-1.4,3.2-3.1c0,0,0,0,0-0.1v-2.1c0,0.4-0.1,0.8-0.2,1.2c-0.3,0.8-1,1.4-1.8,1.7C56.6,77.8,56.2,77.9,55.8,77.9L55.8,77.9z
	"/>
<path class="st2" d="M55.8,80.5H18.4c-2,0-3.7-1.7-3.7-3.7l0,0V54.5c0-2,1.7-3.7,3.7-3.7h37.5c2,0,3.7,1.7,3.7,3.7v22.3
	c0,1-0.4,1.9-1.1,2.6C57.7,80.2,56.8,80.5,55.8,80.5z M18.4,52c-0.7,0-1.3,0.3-1.8,0.8c-0.5,0.5-0.8,1.1-0.8,1.8v22.3
	c0,0.7,0.3,1.3,0.8,1.8c0.5,0.5,1.1,0.7,1.8,0.8h37.5c1.4,0,2.6-1.1,2.6-2.5c0,0,0,0,0,0V54.5c0-1.4-1.2-2.5-2.6-2.5H18.4z"/>
<path class="st3" d="M113.2,187c0,0,4.9,11.7,17.1,12.9s19.5-8.4,19.5-8.4l-2.8-9.6l0.9-14.7c0,0-3.8-14.7-5-16.7s-5.6,2.6-5.6,2.6
	l-22.9,25.3c0,0-1.1,4.1-1.1,4.3C112.4,184.1,112.4,185.7,113.2,187L113.2,187z"/>
<path class="st2" d="M127.5,199.3c-2.1,0-4.2-0.3-6.2-1.1c-4.3-1.6-7.2-5.2-8.8-10.6c-3.7-13.2-1.8-24.8,5.8-34.3
	c0-0.1,0.1-0.1,0.2-0.1c0.1,0,0.1-0.1,0.2-0.1c0.1,0,0.1,0,0.2,0c0.1,0,0.1,0.1,0.2,0.1c0,0,0.1,0.1,0.1,0.1c0,0.1,0,0.1,0.1,0.2
	c0,0.1,0,0.1,0,0.2c0,0.1,0,0.1-0.1,0.2l0,0c-7.4,9.3-9.2,20.5-5.6,33.4c1.4,5.1,4.2,8.5,8.2,10c10.1,3.8,25.2-4.9,27.6-6.3l-3.1-9
	c0-0.1,0-0.1,0-0.2l0.9-14.6c-0.5-2.3-1.1-4.6-1.8-6.9c-0.3-1-0.6-1.9-0.8-2.7c-0.8-2.8-3.3-11.9-3.3-12c0-0.1,0-0.1,0-0.2
	c0-0.1,0-0.1,0.1-0.2c0-0.1,0.1-0.1,0.1-0.1c0.1,0,0.1-0.1,0.2-0.1c0.1,0,0.1,0,0.2,0c0.1,0,0.1,0,0.2,0.1c0.1,0,0.1,0.1,0.1,0.1
	c0,0.1,0.1,0.1,0.1,0.2l0,0c0,0.1,2.5,9.2,3.3,12c0.2,0.8,0.5,1.7,0.8,2.7c0.8,2.3,1.4,4.7,1.9,7.1v0.1l-0.9,14.6l3.2,9.3
	c0,0.1,0,0.2,0,0.3c0,0.1-0.1,0.2-0.2,0.2C149.5,192,137.9,199.3,127.5,199.3z"/>
<path class="st9" d="M25.6,73.6h-4.9c-0.1,0-0.3,0-0.4-0.1c-0.1-0.1-0.2-0.1-0.3-0.2c-0.1-0.1-0.2-0.2-0.2-0.3
	c-0.1-0.2-0.1-0.5,0-0.8c0.1-0.1,0.1-0.2,0.2-0.3c0.1-0.1,0.2-0.2,0.3-0.2c0.1,0,0.3-0.1,0.4-0.1h4.9c0.1,0,0.3,0,0.4,0.1
	c0.1,0,0.2,0.1,0.3,0.2c0.1,0.1,0.2,0.2,0.2,0.3c0,0.1,0.1,0.2,0.1,0.4v0.1c0,0.3-0.1,0.5-0.3,0.7C26.1,73.5,25.9,73.6,25.6,73.6z"
	/>
<path class="st9" d="M34.8,73.6h-4.9c-0.1,0-0.3,0-0.4-0.1c-0.1-0.1-0.2-0.1-0.3-0.2C29.1,73.2,29,73.1,29,73
	c-0.1-0.2-0.1-0.5,0-0.8c0-0.1,0.1-0.2,0.2-0.3c0.1-0.1,0.2-0.2,0.3-0.2c0.1,0,0.3-0.1,0.4-0.1h4.9c0.3,0,0.5,0.1,0.7,0.3
	c0.4,0.4,0.4,1,0,1.4C35.3,73.5,35.1,73.6,34.8,73.6z"/>
<path class="st9" d="M43.4,73.5h-4.9c-0.3,0-0.5-0.1-0.7-0.3c-0.2-0.2-0.3-0.4-0.3-0.7c0-0.3,0.1-0.5,0.3-0.7
	c0.2-0.2,0.4-0.3,0.7-0.3h4.9c0.3,0,0.5,0.1,0.7,0.3c0.2,0.2,0.3,0.4,0.3,0.7c0,0.3-0.1,0.5-0.3,0.7C43.9,73.4,43.7,73.5,43.4,73.5z
	"/>
<path class="st9" d="M52.7,73.5h-4.9c-0.3,0-0.5-0.1-0.7-0.3c-0.2-0.2-0.3-0.4-0.3-0.7c0-0.3,0.1-0.5,0.3-0.7
	c0.2-0.2,0.4-0.3,0.7-0.3h4.8c0.3,0,0.5,0.1,0.7,0.3c0.2,0.2,0.3,0.4,0.3,0.7c0,0.3-0.1,0.5-0.3,0.7C53.2,73.4,52.9,73.5,52.7,73.5z
	"/>
<path class="st4" d="M32.8,57.8c-1.5-1.6-3.9-1.7-6.5-0.6c-2-1.5-4.8-1-6.3,1c-0.3,0.3-0.5,0.7-0.6,1.1c-1,2.4,0.1,5.1,2.4,6.1
	c1.2,0.5,2.5,0.5,3.7,0c0.4-0.2,0.7-0.4,1.1-0.6c1.8,1.5,4.5,1.3,6.2-0.3c0.9-0.9,1.4-2.1,1.4-3.3C34.2,59.9,33.7,58.7,32.8,57.8
	L32.8,57.8z M25,64.1c-0.6,0.3-1.3,0.3-1.9,0.2c-0.6-0.1-1.2-0.4-1.7-0.9c-0.6-0.6-1-1.4-1-2.2c0-0.8,0.3-1.6,0.8-2.2
	c1.1-1.3,3.1-1.5,4.5-0.5c-0.2,0.3-0.4,0.6-0.5,1l0,0v0v0.1l0,0l0,0l0,0l0,0c0,0.1-0.1,0.2-0.1,0.3l0,0v0.1l0,0v2l0,0l0,0l0,0l0,0
	l0,0v0.1l0,0l0,0l0,0v0.2l0,0l0,0v0.1l0,0l0.1,0.2c0.1,0.2,0.2,0.4,0.3,0.6l0.1,0.1l0,0l0,0l0,0l0,0l0,0l0,0l0,0l0,0l0,0
	c-0.2,0.2-0.4,0.3-0.6,0.4L25,64.1z M31.8,63.4c-1.3,1.3-3.4,1.3-4.6,0l0,0l-0.1-0.1c-0.3-0.3-0.5-0.6-0.7-1
	c-0.1-0.2-0.1-0.3-0.1-0.5l0,0v-0.1l0,0v-1.2l0,0v-0.1l0,0v-0.1l0,0l0,0l0,0l0,0l0,0l0,0l0,0v-0.1l0,0V60l0,0l0,0l0,0v-0.1v-0.1v0
	l0,0l0,0l0,0l0,0l0,0l0,0c0.2-0.5,0.6-0.9,1-1.2c0.9-0.7,2.1-0.9,3.2-0.6c0.5,0.2,0.9,0.4,1.3,0.8C33.1,60.1,33.1,62.2,31.8,63.4
	C31.8,63.4,31.8,63.4,31.8,63.4L31.8,63.4z"/>
<path class="st2" d="M87.8,108l-0.4,1h-0.8l2-4.5h0.8l2,4.5h-0.8l-0.4-1H87.8z M89.8,107.3l-0.8-1.9l-0.8,1.9L89.8,107.3z
	 M93.6,104.5c0.7,0,1.4,0.2,1.9,0.6c0.5,0.4,0.7,1,0.7,1.7c0,0.6-0.2,1.2-0.6,1.7c-0.6,0.5-1.3,0.7-2,0.6H92v-4.5H93.6z M95.4,106.8
	c0-1-0.6-1.6-1.8-1.6h-0.8v3.1h0.8c0.5,0,0.9-0.1,1.3-0.4C95.2,107.6,95.4,107.2,95.4,106.8L95.4,106.8z M98.7,104.5
	c0.7,0,1.4,0.2,1.9,0.6c0.5,0.4,0.7,1,0.7,1.7c0,0.6-0.2,1.2-0.6,1.7c-0.6,0.5-1.3,0.7-2,0.6h-1.5v-4.5H98.7z M100.4,106.8
	c0-1-0.6-1.6-1.8-1.6h-0.8v3.1h0.8c0.5,0,0.9-0.1,1.3-0.4C100.3,107.6,100.5,107.2,100.4,106.8L100.4,106.8z M106,108.3
	c0.2,0,0.5,0,0.7-0.1c0.2-0.1,0.4-0.3,0.6-0.4l0.5,0.5c-0.4,0.5-1.1,0.8-1.8,0.8c-0.6,0-1.3-0.2-1.7-0.7c-0.9-0.9-0.9-2.4,0-3.4
	c0.5-0.5,1.1-0.7,1.8-0.7c0.7,0,1.3,0.3,1.8,0.8l-0.5,0.5c-0.2-0.2-0.4-0.3-0.6-0.4c-0.2-0.1-0.4-0.1-0.7-0.1
	c-0.4,0-0.8,0.1-1.2,0.4c-0.3,0.3-0.5,0.7-0.5,1.1c0,0.4,0.2,0.9,0.5,1.2C105.2,108.1,105.6,108.3,106,108.3z M109.4,108l-0.5,1
	h-0.8l2-4.5h0.8l2,4.5h-0.8l-0.5-1H109.4z M111.4,107.3l-0.8-1.9l-0.8,1.9H111.4z M117.2,105.9c0.1,0.7-0.4,1.3-1,1.4l1.2,1.7h-1
	l-1.1-1.5h-1v1.5h-0.8v-4.5h1.7c0.5,0,1,0.1,1.5,0.3C117,105.1,117.2,105.5,117.2,105.9z M115.3,106.8c0.3,0,0.6,0,0.9-0.2
	c0.2-0.2,0.3-0.4,0.2-0.6c0-0.2-0.1-0.5-0.2-0.6c-0.3-0.1-0.6-0.2-0.9-0.2h-1v1.6L115.3,106.8z M119.9,104.5c0.7,0,1.3,0.2,1.9,0.6
	c0.5,0.4,0.7,1,0.7,1.7c0,0.6-0.2,1.2-0.6,1.7c-0.6,0.5-1.3,0.7-2,0.6h-1.5v-4.5H119.9z M121.6,106.7c0-1-0.6-1.6-1.8-1.6h-0.8v3.1
	h0.8c0.5,0,0.9-0.1,1.3-0.4C121.5,107.6,121.7,107.2,121.6,106.7z"/>
<path class="st6" d="M120.9,80.2c0.1,0,0.3,0,0.4-0.1c0.1-0.1,0.2-0.2,0.2-0.4l2.7-12c0-0.1,0-0.1,0-0.2c0-0.1,0-0.1-0.1-0.2
	c0-0.1-0.1-0.1-0.2-0.2c-0.1,0-0.1-0.1-0.2-0.1l-27.7-6.1c-0.1,0-0.1,0-0.2,0c-0.1,0-0.1,0-0.2,0.1c-0.1,0-0.1,0.1-0.2,0.2
	c0,0.1-0.1,0.1-0.1,0.2l-2.8,13.1c0,0.1,0,0.3,0.1,0.4c0.1,0.1,0.2,0.2,0.4,0.2c0.1,0,0.3,0,0.4-0.1c0.1-0.1,0.2-0.2,0.2-0.4
	l2.7-12.5L123,68l-2.5,11.5c0,0.1,0,0.1,0,0.2c0,0.1,0,0.1,0.1,0.2c0,0.1,0.1,0.1,0.2,0.2C120.8,80.1,120.8,80.1,120.9,80.2z"/>
<path class="st4" d="M118.9,77.5c0.1,0,0.3,0,0.4-0.1c0.1-0.1,0.2-0.2,0.2-0.3l1.2-5.3c0-0.1,0-0.3-0.1-0.4
	c-0.1-0.1-0.2-0.2-0.4-0.2c-0.4-0.1-0.8-0.3-1-0.7c-0.2-0.4-0.3-0.8-0.2-1.2c0-0.1,0-0.3-0.1-0.4c-0.1-0.1-0.2-0.2-0.4-0.2l-18.1-4
	c-0.1,0-0.1,0-0.2,0c-0.1,0-0.1,0-0.2,0.1c-0.1,0-0.1,0.1-0.2,0.2c0,0.1-0.1,0.1-0.1,0.2c0,0.2-0.1,0.4-0.2,0.6
	c-0.1,0.2-0.3,0.3-0.4,0.4c-0.4,0.2-0.8,0.3-1.2,0.2c-0.1,0-0.2,0-0.2,0c-0.1,0-0.1,0-0.2,0.1c-0.1,0.1-0.2,0.2-0.2,0.4l-1.2,5.3
	c0,0.1,0,0.3,0.1,0.4c0.1,0.1,0.2,0.2,0.4,0.2c0.4,0.1,0.8,0.3,1,0.7c0.1,0.2,0.2,0.4,0.2,0.6c0,0.2,0,0.4,0,0.6c0,0.1,0,0.2,0,0.2
	c0,0.1,0,0.1,0.1,0.2c0,0,0.1,0.1,0.1,0.1c0.1,0,0.1,0.1,0.2,0.1c0.1,0,0.2,0,0.2,0c0.1,0,0.1,0,0.2-0.1c0.1,0,0.1-0.1,0.2-0.2
	c0-0.1,0.1-0.1,0.1-0.2c0.2-0.7,0-1.5-0.4-2.1c-0.3-0.4-0.6-0.7-1.1-0.9l-0.1-0.1l1-4.3h0.1c1,0,1.9-0.6,2.4-1.5v-0.1h0.1l17,3.8
	v0.1c0,1,0.6,2,1.5,2.4h0.1l-1.1,4.8C118.4,77.1,118.5,77.4,118.9,77.5C118.8,77.5,118.9,77.5,118.9,77.5z"/>
<path class="st5" d="M106.1,71.4c-0.3,1.2,0.4,2.3,1.6,2.6c0.3,0.1,0.6,0.1,0.9,0c0.3,0,0.6-0.1,0.8-0.3c0.2-0.2,0.4-0.4,0.6-0.6
	c0.2-0.2,0.3-0.5,0.3-0.8c0.1-0.6,0-1.1-0.3-1.6c-0.2-0.2-0.4-0.4-0.6-0.6c-0.2-0.2-0.5-0.3-0.8-0.3c-0.2,0-0.3,0-0.5,0
	c-0.5,0-1,0.2-1.4,0.5C106.5,70.5,106.2,70.9,106.1,71.4L106.1,71.4z M107.2,71.6c0-0.1,0.1-0.3,0.2-0.4c0.1-0.1,0.2-0.2,0.3-0.3
	c0.2-0.1,0.5-0.2,0.8-0.1c0.2,0.1,0.5,0.2,0.6,0.4c0.2,0.2,0.2,0.5,0.2,0.7c0,0.3-0.1,0.5-0.3,0.7c-0.2,0.2-0.4,0.3-0.7,0.3
	c-0.1,0-0.1,0-0.2,0c-0.1,0-0.3-0.1-0.4-0.2c-0.1-0.1-0.2-0.2-0.3-0.3c-0.1-0.1-0.1-0.2-0.1-0.4C107.2,71.9,107.2,71.7,107.2,71.6z"
	/>
<path class="st5" d="M92.7,84.6c1.3,0,2.3-1,2.3-2.3c0-1.3-1-2.3-2.3-2.3c-0.3,0-0.6,0-0.9,0.2c-0.3,0.1-0.5,0.3-0.8,0.5
	c-0.2,0.2-0.4,0.5-0.5,0.8c-0.1,0.3-0.2,0.6-0.2,0.9c0,0.3,0.1,0.6,0.2,0.9c0.1,0.3,0.3,0.5,0.5,0.8C91.5,84.4,92.1,84.7,92.7,84.6
	l0,0.2L92.7,84.6z M91.8,83.1c-0.2-0.2-0.3-0.4-0.3-0.6c0-0.2,0-0.5,0.1-0.7c0.1-0.2,0.2-0.4,0.4-0.5c0.2-0.1,0.4-0.2,0.7-0.2l0,0
	c0.2,0,0.5,0.1,0.7,0.2c0.2,0.1,0.3,0.3,0.4,0.5c0.1,0.2,0.1,0.5,0.1,0.7c-0.1,0.2-0.2,0.4-0.3,0.6c-0.1,0.1-0.2,0.2-0.4,0.2
	c-0.1,0.1-0.3,0.1-0.4,0.1l0,0C92.4,83.5,92.1,83.4,91.8,83.1L91.8,83.1z"/>
<path class="st5" d="M90.8,80.6c-0.2-0.2-0.5-0.4-0.8-0.5c-0.3-0.1-0.6-0.2-0.9-0.2c-0.6,0-1.2,0.3-1.6,0.7c-0.4,0.4-0.7,1-0.7,1.6
	c0,1.3,1,2.3,2.3,2.3v0.2v-0.2c0.9,0,1.8-0.6,2.2-1.4C91.7,82.3,91.5,81.3,90.8,80.6L90.8,80.6z M89.2,83.5c-0.7,0-1.2-0.5-1.2-1.2
	c0-0.1,0-0.2,0-0.3c0-0.2,0.2-0.4,0.3-0.6c0.2-0.2,0.4-0.3,0.6-0.3c0.5-0.1,1,0.1,1.2,0.5c0.1,0.2,0.2,0.4,0.2,0.7
	c0,0.2,0,0.3-0.1,0.5c-0.1,0.1-0.1,0.3-0.3,0.4C89.8,83.3,89.5,83.4,89.2,83.5L89.2,83.5z"/>
<path class="st6" d="M97.4,89.4c0-0.1,0-0.1,0-0.2c0-0.1-0.1-0.1-0.1-0.2c-0.1-0.1-0.1-0.1-0.2-0.1c-0.1,0-0.1,0-0.2,0l-9.5-0.1
	c-0.1,0-0.2,0-0.3,0.1c-0.1,0.1-0.2,0.2-0.2,0.3c0,0.1,0,0.2,0,0.3c0,0.1,0.1,0.2,0.2,0.3c0,0.1,0.1,0.1,0.2,0.1c0.1,0,0.1,0,0.2,0
	l9.5,0.1l0,0c0.2,0,0.3-0.1,0.4-0.2C97.4,89.7,97.4,89.6,97.4,89.4z"/>
<path class="st6" d="M96.8,91.8l-9.5-0.1l0,0c-0.1,0-0.3,0.1-0.4,0.2c-0.1,0.1-0.1,0.2-0.2,0.3c0,0.1,0,0.2,0,0.3
	c0,0.1,0.1,0.2,0.2,0.3c0.1,0.1,0.2,0.1,0.3,0.1l9.5,0.1l0,0c0.1,0,0.1,0,0.2,0c0.1,0,0.1-0.1,0.2-0.1c0.1-0.1,0.1-0.1,0.1-0.2
	c0-0.1,0-0.1,0-0.2c0-0.1,0-0.1,0-0.2c0-0.1-0.1-0.1-0.1-0.2c-0.1,0-0.1-0.1-0.2-0.1c-0.1,0-0.1,0-0.2,0L96.8,91.8z"/>
<path class="st6" d="M99.2,92.4c0,0.1,0,0.1,0,0.2c0.1,0.1,0.2,0.3,0.3,0.3c0.1,0,0.1,0,0.2,0h6.4l0,0c0.3,0,0.6-0.3,0.6-0.6
	c0-0.2-0.1-0.3-0.2-0.4c-0.1-0.1-0.3-0.2-0.4-0.2l-6.4-0.1C99.4,91.8,99.1,92,99.2,92.4L99.2,92.4z"/>
<path class="st4" d="M108.9,76.3H85.7c-0.7,0-1.3,0.3-1.7,0.7c-0.5,0.5-0.7,1.1-0.7,1.7v15.4c0,0.7,0.2,1.3,0.7,1.8
	c0.5,0.5,1.1,0.7,1.7,0.7h23.2c1.4,0,2.4-1.1,2.4-2.4V78.8C111.3,77.4,110.3,76.4,108.9,76.3z M110.2,94.2c0,0.7-0.6,1.3-1.3,1.3
	H85.7c-0.3,0-0.7-0.1-0.9-0.4c-0.2-0.2-0.4-0.6-0.4-0.9V78.8c0-0.3,0.1-0.7,0.4-0.9c0.2-0.2,0.6-0.4,0.9-0.4h23.2
	c0.3,0,0.7,0.1,0.9,0.4c0.3,0.2,0.4,0.6,0.4,0.9V94.2z"/>
<path class="st4" d="M175.3,83.4c0-0.3-0.1-0.5-0.1-0.6s0-0.3-0.1-0.5c-0.2-1.2-0.6-2.3-1.2-3.4c-0.8-1.5-2-2.8-3.3-3.9
	c-0.1-0.1-0.3-0.2-0.4-0.2c-0.2,0-0.3,0.1-0.4,0.2l-0.6,0.5c-0.5,0.4-0.5,0.6,0.1,1c3.5,2.6,4.9,7.3,3.2,11.3
	c-0.7,1.7-1.9,3.1-3.3,4.2c-0.1,0-0.1,0.1-0.1,0.2c0,0.1-0.1,0.1-0.1,0.2c0,0.1,0,0.1,0,0.2c0,0.1,0.1,0.1,0.1,0.2l0.6,0.6
	c0.1,0.1,0.1,0.1,0.2,0.2c0.1,0,0.2,0.1,0.3,0.1c0.1,0,0.2,0,0.3,0c0.1,0,0.2-0.1,0.2-0.2c0.9-0.7,1.8-1.6,2.4-2.5
	c0.6-0.9,1.2-1.9,1.5-2.9c0.3-0.7,0.4-1.5,0.5-2.2c0.1-0.4,0.1-0.7,0.1-0.9v-0.7C175.3,83.8,175.3,83.6,175.3,83.4z"/>
<path class="st4" d="M161.9,82.5c-0.3,0-0.6,0.1-0.8,0.2c-0.2,0.2-0.4,0.4-0.5,0.7c-0.1,0.3-0.1,0.6,0,0.9v0.1
	c0.1,0.2,0.3,0.4,0.4,0.5c0.4,0.3,1,0.3,1.4,0c0.4-0.3,0.6-0.7,0.6-1.2c0-0.3-0.2-0.6-0.4-0.8C162.4,82.7,162.1,82.6,161.9,82.5z"/>
<path class="st4" d="M171.4,84.2c0-0.3,0-0.6-0.1-0.9c0-0.2,0-0.3-0.1-0.5c-0.2-1.1-0.7-2.1-1.3-3c-0.6-0.9-1.4-1.7-2.4-2.3
	c-0.1-0.1-0.3-0.1-0.5-0.1c-0.2,0-0.3,0.1-0.5,0.2c-0.3,0.3-0.6,0.5-1,0.8c0,0-0.1,0.1-0.1,0.1c0,0.1,0,0.1,0,0.2
	c0,0.1,0,0.1,0.1,0.2c0,0,0.1,0.1,0.1,0.1L166,79c2.8,1.5,3.8,5,2.3,7.9c0,0.1-0.1,0.2-0.1,0.3c-0.6,0.9-1.3,1.6-2.3,2.2
	c-0.4,0.2-0.4,0.5-0.1,0.7s0.5,0.5,0.8,0.7c0.1,0.1,0.3,0.2,0.5,0.2c0.2,0,0.3,0,0.5-0.1C169.9,89.4,171.4,86.9,171.4,84.2
	L171.4,84.2z"/>
<path class="st4" d="M164.9,80.1c-0.1-0.1-0.3-0.2-0.5-0.2c-0.2,0-0.3,0.1-0.5,0.2l-0.8,0.8c-0.1,0-0.1,0.1-0.1,0.2
	c0,0.1,0,0.1,0,0.2c0,0.1,0,0.1,0.1,0.2c0,0.1,0.1,0.1,0.1,0.1l0.2,0.1c0.3,0.3,0.6,0.6,0.8,0.9c0.2,0.4,0.3,0.8,0.4,1.2
	c0,0.4,0,0.8-0.1,1.2c-0.1,0.4-0.3,0.8-0.6,1.1c-0.2,0.2-0.4,0.4-0.6,0.6c-0.1,0-0.1,0.1-0.1,0.1c-0.1,0-0.1,0.1-0.1,0.1
	c0,0.1,0,0.1,0,0.2c0,0.1,0.1,0.1,0.1,0.2l0.8,0.8c0.3,0.2,0.7,0.2,0.9,0c0.6-0.5,1.1-1.1,1.5-1.8C167.4,84.2,166.8,81.5,164.9,80.1
	L164.9,80.1z"/>
<path class="st4" d="M53.6,60c0-0.1,0-0.2,0-0.3v-0.2c-0.1-0.5-0.3-1-0.6-1.5c-0.3-0.7-0.8-1.2-1.4-1.7c-0.1,0-0.1-0.1-0.2-0.1
	c-0.1,0-0.1,0-0.2,0.1L51,56.5c-0.2,0.2-0.2,0.2,0,0.4c1.5,1.1,2.1,3.2,1.4,4.9c-0.3,0.7-0.8,1.4-1.4,1.8c0,0,0,0-0.1,0.1
	c0,0,0,0.1,0,0.1c0,0,0,0.1,0,0.1c0,0,0,0.1,0,0.1l0.3,0.3c0,0,0.1,0.1,0.1,0.1h0.1c0,0,0.1,0,0.1,0c0,0,0.1,0,0.1-0.1
	c0.4-0.3,0.8-0.7,1.1-1.1c0.3-0.4,0.5-0.8,0.7-1.2c0.1-0.3,0.2-0.7,0.2-1c0-0.1,0-0.3,0-0.4L53.6,60L53.6,60z"/>
<path class="st4" d="M47.8,59.6c-0.1,0-0.3,0-0.4,0.1c-0.1,0.1-0.2,0.2-0.2,0.3c-0.1,0.1-0.1,0.3,0,0.4l0,0c0.1,0.1,0.1,0.2,0.2,0.2
	c0.2,0.1,0.4,0.1,0.6,0c0.1-0.1,0.2-0.1,0.2-0.2c0-0.1,0-0.2,0-0.3c0-0.1-0.1-0.2-0.2-0.3C48,59.7,47.9,59.6,47.8,59.6z"/>
<path class="st4" d="M52,60.3c0-0.1,0-0.2,0-0.4c0-0.1,0-0.1,0-0.2c-0.1-0.5-0.3-0.9-0.6-1.3c-0.3-0.4-0.6-0.7-1-1
	c-0.1,0-0.1-0.1-0.2-0.1c-0.1,0-0.1,0-0.2,0.1l-0.4,0.4v0.1c0,0,0,0,0,0.1c0,0,0,0,0,0.1c0,0,0,0,0,0c0,0,0.1,0,0.1,0.1
	c0.3,0.2,0.6,0.4,0.8,0.7c0.4,0.5,0.6,1.2,0.5,1.9c0,0.4-0.2,0.7-0.3,1c-0.3,0.4-0.6,0.7-1,1c-0.2,0.1-0.2,0.2,0,0.3
	s0.2,0.2,0.4,0.3c0.1,0.1,0.1,0.1,0.2,0.1c0.1,0,0.1,0,0.2,0c0.4-0.3,0.8-0.7,1-1.2C51.8,61.5,52,60.9,52,60.3z"/>
<path class="st4" d="M49.1,58.6c-0.1-0.1-0.1-0.1-0.2-0.1c-0.1,0-0.2,0-0.2,0.1l-0.3,0.3c0,0,0,0-0.1,0.1c0,0,0,0.1,0,0.1
	c0,0,0,0.1,0,0.1c0,0,0,0,0.1,0.1l0.1,0.1c0.1,0.1,0.3,0.2,0.4,0.4c0.1,0.2,0.1,0.3,0.2,0.5c0,0.2,0,0.4-0.1,0.5
	c-0.1,0.2-0.1,0.3-0.3,0.5c-0.1,0.1-0.2,0.2-0.3,0.2c0,0-0.1,0-0.1,0.1c0,0,0,0.1,0,0.1c0,0,0,0.1,0,0.1l0.1,0.1l0.4,0.3
	c0.1,0.1,0.1,0.1,0.2,0.1c0.1,0,0.1,0,0.2-0.1c0.3-0.2,0.5-0.5,0.6-0.8c0.2-0.3,0.2-0.7,0.2-1C50,59.6,49.7,59,49.1,58.6L49.1,58.6z
	"/>
<path class="st5" d="M70.6,18.9c-0.3,0-0.6-0.2-0.6-0.6c0,0,0,0,0,0c0-2.9-2.4-5.3-5.3-5.3c0,0,0,0,0,0l0,0c-0.3,0-0.6-0.3-0.6-0.6
	c0-0.3,0.2-0.5,0.5-0.6h0.1c2.9,0,5.3-2.4,5.3-5.3c0-0.3,0.2-0.6,0.5-0.6c0.3,0,0.6,0.2,0.6,0.5c0,0,0,0,0,0v0.1
	c0,2.9,2.4,5.3,5.3,5.3c0.3,0,0.5,0.3,0.5,0.7c0,0.3-0.2,0.5-0.5,0.5c-2.9,0-5.3,2.4-5.3,5.3C71.2,18.6,70.9,18.9,70.6,18.9z
	 M67.4,12.4c1.4,0.6,2.6,1.8,3.2,3.2c0.7-1.4,1.8-2.6,3.2-3.2c-1.4-0.6-2.6-1.8-3.2-3.2C69.9,10.7,68.8,11.8,67.4,12.4z"/>
</svg>
