<?xml version="1.0" encoding="utf-8"?>
<!-- Generator: Adobe Illustrator 25.2.0, SVG Export Plug-In . SVG Version: 6.00 Build 0)  -->
<svg version="1.1" id="Layer_1" xmlns="http://www.w3.org/2000/svg" xmlns:xlink="http://www.w3.org/1999/xlink" x="0px" y="0px"
	 viewBox="0 0 216 216" style="enable-background:new 0 0 216 216;" xml:space="preserve">
<style type="text/css">
	.st0{fill:#C6B6FF;}
	.st1{fill:#494949;}
	.st2{fill:#FFFFFF;}
	.st3{fill:none;stroke:#F3603F;stroke-width:2.48;stroke-linecap:round;}
	.st4{fill:#7C4DFF;}
	.st5{fill:none;stroke:#C05EFD;stroke-width:0.83;}
	.st6{fill:#FF94B4;}
	.st7{fill:none;stroke:#F7B23B;stroke-width:0.83;}
	.st8{opacity:0.25;fill:#C6B6FF;enable-background:new    ;}
	.st9{fill:#7C4DFF;fill-opacity:0.2;}
	.st10{fill:#666666;}
	.st11{fill:#53B175;}
	.st12{fill:none;stroke:#C6A7F8;stroke-width:3;stroke-linecap:round;stroke-linejoin:round;}
	.st13{fill:#FFFFFF;stroke:#494949;stroke-linecap:round;stroke-linejoin:round;}
	.st14{fill-rule:evenodd;clip-rule:evenodd;fill:#C6B6FF;}
	.st15{fill-rule:evenodd;clip-rule:evenodd;fill:#FFFFFF;}
	.st16{fill:none;stroke:#494949;stroke-linecap:round;stroke-linejoin:round;}
	.st17{opacity:0.25;enable-background:new    ;}
	.st18{opacity:0.75;fill:#C6B6FF;enable-background:new    ;}
	.st19{fill:#D3D3D3;}
	.st20{fill:#263C3B;}
	.st21{fill:#F3603F;}
	.st22{fill:#B9CEF9;}
	.st23{fill-rule:evenodd;clip-rule:evenodd;fill:#B6B6B6;}
</style>
<path class="st0" d="M58,55.2l19.7,39.7l30.2-15l-20-40.4l-1.4,4.2l-3.9-1.3l-1.3,3.9l-3.7-1.2l-1.3,3.8l-3.7-1.2l-1.2,3.7L67.7,50
	l-1.1,3.4l-4-1.3l-1.4,4.1L58,55"/>
<path class="st1" d="M86.1,42.9l-3.4-1.2c-0.1,0-0.3,0-0.4,0c-0.1,0.1-0.2,0.2-0.2,0.3l-1.2,3.5l-3.2-1.1c-0.1,0-0.3,0-0.4,0
	c-0.1,0.1-0.2,0.2-0.2,0.3L75.9,48l-3.2-1c-0.1,0-0.3,0-0.4,0c-0.1,0.1-0.2,0.2-0.2,0.3L71,50.6l-3.2-1.1c-0.1,0-0.3,0-0.4,0
	c-0.1,0.1-0.2,0.2-0.2,0.3l-1,2.9l-3.5-1.2c-0.1-0.1-0.3-0.1-0.4,0c-0.1,0.1-0.2,0.2-0.3,0.3l-1.2,3.6l-2.7-0.9c-0.1,0-0.3,0-0.4,0
	h-0.1c-0.1,0.1-0.2,0.2-0.2,0.3s0,0.3,0,0.4v0.1v0.1l19.8,39.8c0.1,0.1,0.2,0.2,0.3,0.3c0.1,0,0.3,0,0.4,0l30.3-15
	c0.1-0.1,0.2-0.2,0.2-0.3c0.1-0.1,0.1-0.3,0-0.4L88.3,39.2c-0.1-0.2-0.3-0.3-0.5-0.3s-0.4,0.1-0.4,0.3L86.1,42.9z M107.2,79.6
	L77.9,94.2l-19-38.3l2.1,0.7c0.1,0,0.3,0,0.4,0c0.1-0.1,0.2-0.2,0.2-0.3l1.2-3.6l3.5,1.2c0.3,0.1,0.6-0.1,0.7-0.3l1-2.9l3.2,1.1
	c0.3,0.1,0.5,0,0.6-0.3l0,0l1.1-3.2l3.2,1.1c0.3,0.1,0.6-0.1,0.7-0.3l1.1-3.3l3.2,1.1c0.1,0,0.3,0,0.4,0c0.1-0.1,0.2-0.2,0.3-0.3
	l1.2-3.5l3.4,1.2c0.3,0.1,0.5,0,0.6-0.3l0,0l1-3L107.2,79.6z"/>
<path class="st2" d="M75.4,56.6L75.4,56.6l-9.3,4.6c-0.3,0.1-0.6,0-0.7-0.2c-0.1-0.3,0-0.6,0.2-0.7l9.3-4.6c0.3-0.1,0.6,0,0.7,0.2
	C75.7,56.2,75.7,56.5,75.4,56.6z"/>
<path class="st1" d="M84.7,55.8L84.7,55.8l-17.1,8.5c-0.3,0.1-0.6,0-0.7-0.2c-0.1-0.3,0-0.6,0.2-0.7l0,0l17.1-8.5
	c0.3-0.1,0.6,0,0.7,0.2l0,0C85,55.4,85,55.7,84.7,55.8z"/>
<path class="st2" d="M88.9,53.8L88.9,53.8L86.5,55c-0.3,0.1-0.6,0-0.7-0.2l0,0c-0.2-0.3-0.1-0.6,0.2-0.8l0,0l2.3-1.1
	c0.3-0.1,0.6,0,0.7,0.2C89.1,53.3,89.1,53.6,88.9,53.8z"/>
<path class="st1" d="M76.1,65.7L76.1,65.7l-6.3,3.1c-0.3,0.1-0.6,0-0.7-0.2c-0.1-0.3,0-0.6,0.2-0.7l6.3-3.1c0.3-0.1,0.6,0,0.7,0.2
	C76.5,65.2,76.4,65.5,76.1,65.7L76.1,65.7z"/>
<path class="st1" d="M91.1,58.3L91.1,58.3l-12.3,6.1c-0.3,0.1-0.6,0-0.7-0.3c-0.1-0.3,0-0.6,0.3-0.7l12.2-6.1c0.3-0.1,0.6,0,0.7,0.2
	C91.4,57.8,91.3,58.1,91.1,58.3z"/>
<path class="st1" d="M86.9,68.5L86.9,68.5l-13.8,6.9c-0.3,0.1-0.6,0-0.7-0.2l0,0c-0.1-0.3,0-0.6,0.2-0.7l13.8-6.8
	c0.3-0.1,0.6,0,0.7,0.2C87.2,68,87.1,68.3,86.9,68.5z"/>
<path class="st1" d="M97.6,71.3L97.6,71.3l-6.4,3.2c-0.4,0.2-0.9,0-1.1-0.4s0-0.9,0.4-1.1l6.3-3.2c0.4-0.2,0.9,0,1.1,0.4
	C98.1,70.6,97.9,71,97.6,71.3z"/>
<path class="st3" d="M181.8,73.7c5.1,0.5,15.6-1.1,17.5-11.5s6.8-13.2,9.1-13.3"/>
<path class="st4" d="M16.4,153.8c-3.5,0-7-0.6-10.4-1.8c-0.5-0.2-0.8-0.8-0.6-1.3s0.8-0.8,1.3-0.6c4.6,1.7,12,2.8,17.5,0.1
	c2.9-1.4,5.1-3.8,6.3-6.8c-3.1-0.3-5.3-1.4-6.6-3.3c-1.7-2.6-1.3-6-0.3-8.4c0.1-0.4,0.5-0.6,0.9-0.6c2.4-0.3,4.8,0.6,6.5,2.4
	c1.9,2.2,2.4,5.4,2.1,8c4.9,0.4,9.7-2.1,12.2-6.3c0.3-0.5,0.9-0.6,1.4-0.4c0.5,0.3,0.6,0.9,0.4,1.4c-3,5-8.6,7.8-14.4,7.3
	c-1.3,3.7-4,6.8-7.6,8.5C22.4,153.3,19.4,153.9,16.4,153.8z M25.3,133.1c-0.6,1.8-0.8,4.2,0.4,5.9c1,1.4,2.8,2.2,5.4,2.4
	c0.2-2.1-0.1-4.8-1.6-6.5C28.4,133.7,26.9,133.1,25.3,133.1z"/>
<path class="st4" d="M138.6,200c2.5,0,4.6-2,4.6-4.6s-2-4.6-4.6-4.6s-4.6,2-4.6,4.6l0,0C134.1,198,136.1,200,138.6,200z"/>
<path class="st5" d="M203.5,109.9c2.3,0,4.2-1.9,4.2-4.2c0-2.3-1.9-4.2-4.2-4.2s-4.2,1.9-4.2,4.2l0,0
	C199.3,108.1,201.2,109.9,203.5,109.9L203.5,109.9z"/>
<path class="st6" d="M130.1,25.7c3.7,0,6.6-3,6.6-6.6s-3-6.6-6.6-6.6c-3.7,0-6.6,3-6.6,6.6l0,0C123.5,22.8,126.5,25.7,130.1,25.7z"
	/>
<path class="st7" d="M37.8,95.5c3.7,0,6.6-3,6.6-6.6c0-3.7-3-6.6-6.6-6.6c-3.7,0-6.6,3-6.6,6.6l0,0C31.1,92.5,34.1,95.5,37.8,95.5z"
	/>
<path class="st8" d="M118.8,181.6c36.6,0,66.4-29.7,66.4-66.4s-29.7-66.4-66.4-66.4s-66.4,29.7-66.4,66.4l0,0
	C52.4,151.9,82.1,181.6,118.8,181.6z"/>
<path class="st9" d="M116.8,166.7c32.6,0,58.9-26.4,58.9-58.9s-26.4-59-58.9-59s-58.9,26.4-58.9,59l0,0
	C57.9,140.4,84.3,166.7,116.8,166.7L116.8,166.7z"/>
<path class="st1" d="M84.8,125c-0.1,0-0.2,0-0.3-0.1c-0.5-0.5-1-1-1.5-1.5c-0.1-0.1-0.1-0.2-0.1-0.3c0-0.1,0.1-0.2,0.1-0.3
	c0.1-0.1,0.2-0.1,0.3-0.1c0.1,0,0.2,0,0.3,0.1c0.5,0.5,0.9,1,1.4,1.5c0.1,0.1,0.1,0.1,0.1,0.2s0,0.2,0,0.2c0,0.1-0.1,0.1-0.2,0.2
	C85,125,84.9,125,84.8,125z"/>
<path class="st1" d="M159.4,160.7H73.7c-0.1,0-0.1,0-0.2,0s-0.1,0-0.1-0.1l-0.1-0.1v-0.1c0-0.1,0-0.1,0-0.2c0,0,0-0.1,0.1-0.1
	c0.1-0.1,0.2-0.1,0.3-0.1h85.8c0.1,0,0.2,0.1,0.3,0.1c0.1,0.1,0.1,0.2,0.1,0.3s0,0.2-0.1,0.3C159.6,160.7,159.5,160.7,159.4,160.7z"
	/>
<path class="st0" d="M58.8,194.7v-0.6V194.7L58.8,194.7z M58.8,194.7c-0.5,0-0.9-0.1-1.4-0.2l0.3-1.2c0.3,0.1,0.7,0.1,1,0.1
	L58.8,194.7z M60.2,194.5l-0.3-1.2c0.4-0.1,0.7-0.2,1-0.4l0.6,1.1C61.1,194.2,60.7,194.4,60.2,194.5L60.2,194.5z M56.2,194
	c-0.4-0.2-0.8-0.5-1.1-0.9l0.9-0.9c0.2,0.3,0.5,0.5,0.8,0.6L56.2,194z M62.7,193.1l-0.9-0.9c0.3-0.3,0.5-0.5,0.7-0.9l1.1,0.6
	C63.3,192.4,63,192.8,62.7,193.1z M54.2,192c-0.2-0.4-0.4-0.8-0.5-1.3l1.2-0.3c0.1,0.4,0.2,0.7,0.4,1L54.2,192z M64.1,190.7
	l-1.2-0.3c0.1-0.3,0.1-0.7,0.1-1.1h1.3l0,0C64.2,189.8,64.2,190.2,64.1,190.7L64.1,190.7z M53.4,189.3L53.4,189.3
	c0-0.5,0.1-0.9,0.2-1.4l1.2,0.3c-0.1,0.3-0.1,0.7-0.1,1L53.4,189.3z M62.8,188.2c-0.1-0.4-0.2-0.7-0.4-1l1.1-0.7
	c0.2,0.4,0.4,0.8,0.6,1.3L62.8,188.2z M55.3,187.2l-1.1-0.6c0.2-0.4,0.5-0.8,0.9-1.1l0.9,0.9C55.7,186.7,55.4,187,55.3,187.2
	L55.3,187.2z M61.7,186.3c-0.3-0.3-0.5-0.5-0.9-0.6l0.6-1.1c0.4,0.2,0.8,0.5,1.1,0.9L61.7,186.3z M56.7,185.7l-0.7-1.1
	c0.4-0.2,0.8-0.4,1.3-0.6l0.3,1.2C57.4,185.4,57,185.6,56.7,185.7L56.7,185.7z M59.8,185.3c-0.3-0.1-0.7-0.1-1-0.1v-1.3l0,0
	c0.5,0,0.9,0.1,1.3,0.2L59.8,185.3z"/>
<path class="st6" d="M191.1,139.9c0.1,0,0.3,0,0.4,0c0.2-0.1,0.3-0.2,0.4-0.3l1.3-2.3c0.1-0.2,0.1-0.3,0-0.5
	c-0.1-0.3-0.5-0.5-0.8-0.5c-0.2,0-0.3,0.1-0.4,0.3l-1.3,2.3c-0.1,0.1-0.1,0.3-0.1,0.4c0,0.1,0.1,0.3,0.1,0.4
	C190.9,139.8,191,139.9,191.1,139.9z"/>
<path class="st6" d="M189.2,139.4l-2.3-1.3c-0.2-0.1-0.3-0.1-0.5,0s-0.3,0.2-0.4,0.3c-0.1,0.2-0.1,0.3-0.1,0.5s0.1,0.3,0.3,0.4
	l2.3,1.3c0.2,0.1,0.4,0.1,0.5,0.1s0.2-0.1,0.3-0.2c0.1-0.1,0.1-0.2,0.1-0.4c0-0.1,0-0.3-0.1-0.4
	C189.4,139.6,189.3,139.4,189.2,139.4z"/>
<path class="st6" d="M189.4,141.8c-0.2,0-0.3,0.1-0.4,0.3l-1.3,2.3c-0.1,0.1-0.1,0.3-0.1,0.4c0,0.1,0.1,0.3,0.1,0.4
	c0.1,0.1,0.2,0.2,0.3,0.2s0.3,0,0.4,0c0.2-0.1,0.3-0.2,0.4-0.3l1.3-2.3c0.1-0.2,0.1-0.4,0-0.5c-0.1-0.2-0.2-0.3-0.3-0.4
	C189.7,141.8,189.6,141.8,189.4,141.8z"/>
<path class="st6" d="M195,142.7c-0.1-0.1-0.2-0.2-0.3-0.3l-2.3-1.3c-0.2-0.1-0.3-0.1-0.5,0s-0.3,0.2-0.4,0.3
	c-0.1,0.2-0.1,0.3-0.1,0.5s0.1,0.3,0.3,0.4l2.3,1.3c0.2,0.1,0.4,0.1,0.5,0.1s0.2-0.1,0.3-0.2c0.1-0.1,0.1-0.2,0.2-0.4
	C195.1,142.9,195.1,142.8,195,142.7z"/>
<path class="st0" d="M67,160.6h-9.3c-0.1,0-0.2,0-0.3-0.1s-0.1-0.2-0.1-0.3s0-0.2,0.1-0.3s0.2-0.1,0.3-0.1H67c0.1,0,0.2,0,0.3,0.1
	c0.1,0.2,0.1,0.4,0,0.6C67.2,160.6,67.1,160.6,67,160.6z"/>
<path class="st0" d="M172.5,160.7h-5.6c-0.2,0-0.3-0.1-0.5-0.1c-0.2-0.1-0.2-0.2-0.2-0.4c0-0.1,0.1-0.1,0.2-0.2
	c0.1-0.1,0.3-0.1,0.5-0.1h5.6c0.2,0,0.4,0,0.5,0.1s0.2,0.2,0.3,0.3c0,0.1-0.1,0.2-0.2,0.3c-0.2,0.1-0.3,0.1-0.5,0.1L172.5,160.7z"/>
<path class="st10" d="M100.2,39c-0.2,0-0.4-0.2-0.4-0.4l0,0c0-2.2-1.8-3.9-3.9-3.9l0,0l0,0c-0.2,0-0.4-0.1-0.5-0.4l0,0
	c0-0.2,0.2-0.4,0.4-0.5h0.1c2.2,0,3.9-1.7,3.9-3.9l0,0c0-0.2,0.1-0.5,0.4-0.5c0.2,0,0.5,0.1,0.5,0.4l0,0v0.1c0,2.2,1.8,3.9,3.9,3.9
	c0.2,0,0.4,0.2,0.4,0.5c0,0.2-0.2,0.4-0.4,0.4c-2.2,0-3.9,1.7-3.9,3.9C100.6,38.8,100.4,39,100.2,39L100.2,39z M97.8,34.2
	c1.1,0.5,1.9,1.3,2.4,2.4c0.5-1,1.3-1.9,2.4-2.4c-1-0.5-1.9-1.3-2.4-2.4C99.7,32.9,98.8,33.8,97.8,34.2L97.8,34.2z"/>
<path class="st11" d="M162.8,46.7c2,0,3.7-1.6,3.7-3.7c0-2-1.6-3.7-3.7-3.7s-3.7,1.6-3.7,3.7l0,0C159.2,45,160.8,46.7,162.8,46.7z"
	/>
<path class="st12" d="M173.3,175.5c0,0,2-1,1.5,2.4s-0.5,6.3,1.5,5.6s7.1-4,7.2,0.1s-1.2,7.1,2.6,5.8s5.4-2.3,5.6-0.4
	s-0.8,6.3,1,6.4"/>
<path class="st13" d="M162.1,79.6l4.6,3.7c0,0-2.9,11.6-16.4,21.4s-17.7,21.5-17.7,21.5l-18.4-14.3l2.6-5.8l37.4-28.2L162.1,79.6z"
	/>
<path class="st13" d="M105.3,103.7c0,0,2.3-15.4,19.4-27S143,49.9,143,49.9l23.5,17.2c0,0-4.4,19.7-18.8,28.9s-19.1,24.8-19.1,24.8
	L105.3,103.7z"/>
<path class="st14" d="M142.3,90.2c0-0.1,0-0.2,0-0.3c0-0.1,0-0.2-0.1-0.3c0-0.1-0.1-0.2-0.2-0.2l-0.4-0.3l-0.1-0.1l0.1-0.2
	c0.2-0.4,0.3-0.8,0.4-1.2c0.1-0.4,0.1-0.8,0.1-1.2c0-0.4-0.2-0.8-0.4-1.2c-0.2-0.4-0.4-0.7-0.8-1c-0.4-0.3-0.8-0.6-1.3-0.7
	c-0.4-0.1-0.9-0.1-1.3,0c-0.5,0.1-0.9,0.3-1.3,0.5c-0.5,0.2-0.9,0.5-1.3,0.8c-0.4,0.3-0.8,0.5-1.2,0.8c-0.3,0.2-0.6,0.3-0.9,0.3
	c-0.2,0.1-0.4,0.1-0.6,0c-0.2-0.1-0.3-0.2-0.5-0.3c-0.2-0.2-0.3-0.4-0.4-0.6c-0.1-0.3-0.1-0.5-0.1-0.8s0.1-0.6,0.2-0.9
	c0.1-0.3,0.3-0.6,0.5-0.8c0.2-0.2,0.4-0.4,0.6-0.6c0.2-0.2,0.5-0.3,0.8-0.3c0.2-0.1,0.5-0.1,0.7-0.1s0.5,0.1,0.7,0.2
	c0.1,0,0.2,0.1,0.3,0.1s0.2,0,0.3,0s0.2-0.1,0.3-0.1s0.1-0.1,0.2-0.2c0.1-0.1,0.1-0.2,0.2-0.3c0-0.1,0-0.2,0-0.3v-0.1
	c0-0.1,0-0.2-0.1-0.3c0-0.1-0.1-0.2-0.2-0.2l0,0l0,0l0,0l0,0c-0.3-0.2-0.6-0.3-1-0.3c-0.4-0.1-0.8-0.1-1.1,0s-0.7,0.2-1,0.3
	c-0.3,0.1-0.6,0.3-0.9,0.5l-0.2,0.1l-0.1-0.1l-0.4-0.3c-0.1-0.1-0.2-0.1-0.3-0.2c-0.1,0-0.2,0-0.3,0l0,0c-0.1,0-0.2,0-0.3,0.1
	c-0.1,0-0.2,0.1-0.2,0.2c-0.1,0.1-0.1,0.2-0.2,0.3c0,0.1,0,0.2,0,0.3V81c0,0.1,0,0.2,0.1,0.3c0,0.1,0.1,0.2,0.2,0.2l0,0l0.4,0.3V82
	l-0.1,0.2c-0.2,0.4-0.3,0.8-0.4,1.2c-0.1,0.4-0.1,0.8-0.1,1.2c0,0.4,0.2,0.9,0.4,1.2c0.2,0.4,0.4,0.7,0.8,1c0.4,0.3,0.8,0.6,1.3,0.7
	c0.4,0.1,0.9,0.1,1.3,0c0.5-0.1,0.9-0.3,1.3-0.5c0.4-0.2,0.9-0.5,1.3-0.8c0.4-0.3,0.8-0.5,1.2-0.8c0.3-0.2,0.6-0.3,0.9-0.3
	c0.2-0.1,0.4-0.1,0.6,0c0.2,0.1,0.3,0.2,0.5,0.3c0.2,0.2,0.3,0.4,0.4,0.6c0.1,0.3,0.1,0.5,0.1,0.8s-0.1,0.6-0.2,0.9
	c-0.1,0.3-0.3,0.6-0.5,0.8c-0.2,0.2-0.4,0.4-0.6,0.6c-0.2,0.1-0.5,0.3-0.8,0.3c-0.2,0.1-0.5,0.1-0.7,0.1s-0.5-0.1-0.7-0.2
	c-0.1,0-0.2-0.1-0.3-0.1s-0.2,0-0.3,0s-0.2,0.1-0.3,0.1s-0.1,0.1-0.2,0.2c-0.1,0.1-0.1,0.2-0.2,0.3c0,0.1,0,0.2,0,0.3
	c0,0.1,0,0.2,0.1,0.3c0.1,0.1,0.1,0.2,0.2,0.2l0,0l0,0l0,0l0,0c0.3,0.2,0.7,0.3,1,0.3c0.4,0.1,0.8,0.1,1.1,0s0.7-0.2,1-0.3
	c0.3-0.1,0.6-0.3,0.9-0.5l0.2-0.1l0.1,0.1l0.4,0.3c0.1,0.1,0.2,0.1,0.3,0.2c0.1,0,0.2,0,0.3,0s0.2,0,0.3-0.1c0.1,0,0.2-0.1,0.2-0.2
	C142.1,90.3,142.2,90.2,142.3,90.2z"/>
<path class="st15" d="M141.4,56.1c0,0,4.3,1.3,6.8-2.3L141.4,56.1z"/>
<path class="st16" d="M141.4,56.1c0,0,4.3,1.3,6.8-2.3"/>
<path class="st15" d="M163.3,65.4c0,0-1.8,4.1,1.5,7L163.3,65.4z"/>
<path class="st16" d="M163.3,65.4c0,0-1.8,4.1,1.5,7"/>
<path class="st15" d="M131.2,114c0,0-4.5-0.2-6,3.9L131.2,114z"/>
<path class="st16" d="M131.2,114c0,0-4.5-0.2-6,3.9"/>
<path class="st15" d="M109,105.7c0,0,1.5-4.2-2-6.8L109,105.7z"/>
<path class="st16" d="M109,105.7c0,0,1.5-4.2-2-6.8"/>
<path class="st2" d="M134.1,116.7l-41.4,21.4c-1.2,0.6-2.7,0.2-3.3-1.1l0,0L54.3,69.2c-0.6-1.2-0.1-2.7,1.1-3.3l41.4-21.4
	c1.2-0.6,2.7-0.1,3.3,1.1l35.1,67.9C135.8,114.5,135.3,116,134.1,116.7L134.1,116.7z"/>
<path class="st0" d="M58.3,64.3l-2.9,1.5l37.4,72.3l2.9-1.5L58.3,64.3z"/>
<path class="st1" d="M134.3,117.1l-41.4,21.4c-1.4,0.7-3.2,0.2-3.9-1.2l-35.1-68c-0.7-1.4-0.2-3.2,1.2-3.9L96.6,44
	c1.4-0.7,3.2-0.2,3.9,1.2l35.1,67.9C136.3,114.5,135.8,116.3,134.3,117.1C134.3,117,134.3,117.1,134.3,117.1z M55.5,66.2
	c-1,0.5-1.4,1.7-0.9,2.8c0,0,0,0,0,0.1L89.7,137c0.5,1,1.8,1.4,2.8,0.9l0,0l41.4-21.4c1-0.5,1.4-1.8,0.9-2.8l-35.1-68
	c-0.5-1-1.8-1.4-2.8-0.9l0,0L55.5,66.2z"/>
<path class="st2" d="M100.5,57.5L68.4,74.1L75.6,88l32.1-16.6L100.5,57.5z"/>
<path class="st2" d="M100.6,57.7L68.5,74.3L75.6,88l32.1-16.6L100.6,57.7z"/>
<g class="st17">
	<path class="st18" d="M102,60.4L69.9,77l5.7,11l32.1-16.6L102,60.4z"/>
</g>
<path class="st19" d="M108.2,71.6l-32.8,17L68,74.2l32.8-17L108.2,71.6z M75.8,87.4l31.4-16.2l-6.7-12.9L69.1,74.5L75.8,87.4z"/>
<path class="st4" d="M67,84.8l-0.7,0.4l21.5,41.4l0.7-0.4L67,84.8z"/>
<path class="st19" d="M91.4,95.3l-9.5,4.9l-3.1-6.1l9.5-4.9L91.4,95.3z M82.2,99.1l8-4.2l-2.3-4.6l-8,4.2L82.2,99.1z"/>
<path class="st19" d="M102.7,89.4l-9.5,4.9l-3.2-6l9.5-4.9L102.7,89.4z M93.5,93.2l8-4.2l-2.4-4.6l-8,4.2L93.5,93.2z"/>
<path class="st19" d="M114,83.6l-9.5,4.9l-3.2-6.1l9.5-4.9L114,83.6z M104.8,87.4l8-4.2l-2.4-4.6l-8,4.2L104.8,87.4z"/>
<path class="st19" d="M95.6,103.4l-9.5,4.9l-3.1-6.1l9.5-4.9L95.6,103.4z M86.4,107.2l8-4.2L92,98.4l-8,4.1L86.4,107.2z"/>
<path class="st19" d="M106.9,97.6l-9.5,4.9l-3.2-6.1l9.5-4.9L106.9,97.6z M97.7,101.4l8-4.2l-2.4-4.6l-8,4.1L97.7,101.4z"/>
<path class="st19" d="M118.2,91.7l-9.5,4.9l-3.2-6.1l9.5-4.9L118.2,91.7z M109,95.5l8-4.1l-2.4-4.6l-8,4.2L109,95.5z"/>
<path class="st19" d="M99.8,111.5l-9.5,4.9l-3.1-6.1l9.5-4.9L99.8,111.5z M90.6,115.3l8-4.2l-2.4-4.6l-8,4.2L90.6,115.3z"/>
<path class="st19" d="M111.1,105.7l-9.5,4.9l-3.2-6.1l9.5-4.9L111.1,105.7z M101.9,109.5l8-4.2l-2.4-4.6l-8,4.2L101.9,109.5z"/>
<path class="st19" d="M122.4,99.8l-9.5,4.9l-3.2-6.1l9.5-4.9L122.4,99.8z M113.2,103.6l8-4.2l-2.4-4.6l-8,4.2L113.2,103.6z"/>
<path class="st20" d="M104,119.6l-9.5,4.9l-3.2-6.1l9.5-4.9L104,119.6z M94.8,123.4l8-4.2l-2.4-4.6l-8,4.1L94.8,123.4z"/>
<path class="st20" d="M115.2,113.8l-9.5,4.9l-3.2-6.1l9.5-4.9L115.2,113.8z M106.1,117.6l8-4.1l-2.4-4.6l-8,4.2L106.1,117.6z"/>
<path class="st19" d="M126.5,107.9l-9.5,4.9l-3.2-6.1l9.5-4.9L126.5,107.9z M117.4,111.7l8-4.1L123,103l-8,4.2L117.4,111.7z"/>
<path class="st2" d="M142.6,160.1h-62c-4.1,0-7.5-3.3-7.5-7.5v-36.8c0-4.1,3.3-7.5,7.5-7.5h62.1c4.1,0,7.5,3.3,7.5,7.5l0,0v36.8
	C150.1,156.7,146.7,160.1,142.6,160.1L142.6,160.1z"/>
<path class="st19" d="M143.4,108h-2.8c3.9,0,7,3.1,7,7v35.7c0,3.9-3.1,7-7,7H76.9c-1.1,0-2.3-0.3-3.3-0.8c1.2,2.2,3.6,3.6,6.1,3.6
	h63.7c3.9,0,7-3.1,7-7V115C150.4,111.1,147.3,108,143.4,108L143.4,108z"/>
<path class="st8" d="M117.5,126.4h10.3c1.3-0.1,2.3-1.1,2.3-2.4v-0.4c0-1.3-1.1-2.4-2.4-2.4l0,0H95.3c-1.3,0-2.4,1.1-2.4,2.4l0,0
	v0.4c0,1.3,1.1,2.4,2.4,2.4h4.7c1.3,0,2.4,1.1,2.4,2.4l0,0v0.4c0,1.3-1.1,2.4-2.4,2.4l0,0h-4.9c-1.3,0.1-2.2,1.1-2.2,2.4v0.3
	c0,1.3,1.1,2.4,2.4,2.4l0,0h13.4c1.3,0,2.4,1.1,2.4,2.4v0.4c0,1.3-1.1,2.4-2.4,2.4H95.1c-1.2,0.1-2.2,1.2-2.2,2.4v0.4
	c0,1.3,1.1,2.4,2.4,2.4h32.4c1.3,0,2.4-1.1,2.4-2.4v-0.4c0-1.3-1.1-2.4-2.4-2.4l0,0h-5.5c-1.3,0-2.4-1.1-2.4-2.4l0,0v-0.4
	c0-1.3,1.1-2.4,2.4-2.4h5.8c1.2-0.1,2.1-1.2,2.1-2.4V134c0-1.3-1-2.4-2.3-2.4h-10.3c-1.3,0-2.4-1.1-2.4-2.4l0,0v-0.4
	C115.1,127.5,116.2,126.5,117.5,126.4z"/>
<path class="st19" d="M139.5,157.1c3.9,0,7.1-3.2,7.1-7.1c0-3.9-3.2-7.1-7.1-7.1c-3.9,0-7.1,3.2-7.1,7.1l0,0
	C132.4,153.9,135.6,157,139.5,157.1z"/>
<path class="st0" d="M140.2,157.1c3.6,0,6.4-2.9,6.4-6.4s-2.9-6.4-6.4-6.4s-6.4,2.9-6.4,6.4S136.7,157.1,140.2,157.1L140.2,157.1z"
	/>
<path class="st1" d="M139.6,152.3c-1.4,0-2.5-1.1-2.5-2.5s1.1-2.5,2.5-2.5s2.5,1.1,2.5,2.5S141,152.3,139.6,152.3L139.6,152.3z
	 M139.6,148c-1,0-1.8,0.8-1.8,1.9s0.8,1.8,1.9,1.8c1,0,1.8-0.8,1.8-1.8C141.5,148.8,140.6,148,139.6,148L139.6,148z"/>
<path class="st4" d="M139.6,146.8c-0.2,0-0.3-0.2-0.3-0.4v-1.8c0-0.2,0.2-0.3,0.3-0.3s0.3,0.2,0.3,0.3v1.8
	C140,146.6,139.8,146.7,139.6,146.8z"/>
<path class="st4" d="M139.6,155.3c-0.2,0-0.3-0.2-0.3-0.3v-1.8c0-0.2,0.2-0.3,0.3-0.3s0.3,0.2,0.3,0.3v1.8
	C140,155.2,139.8,155.3,139.6,155.3z"/>
<path class="st4" d="M144.8,150.2H143c-0.2,0-0.3-0.2-0.3-0.3s0.2-0.3,0.3-0.3h1.8c0.2,0,0.3,0.2,0.3,0.3S145,150.1,144.8,150.2z"/>
<path class="st4" d="M136.2,150.1h-1.8c-0.2,0-0.3-0.2-0.3-0.3s0.2-0.3,0.3-0.3h1.8c0.2,0,0.3,0.2,0.3,0.3
	C136.6,150,136.4,150.1,136.2,150.1C136.3,150.1,136.3,150.1,136.2,150.1z"/>
<path class="st1" d="M139.6,157.3c-4.1,0-7.5-3.3-7.5-7.5c0-4.1,3.3-7.5,7.5-7.5s7.5,3.3,7.5,7.5l0,0
	C147.1,153.9,143.8,157.3,139.6,157.3z M139.6,143c-3.8,0-6.8,3-6.8,6.8s3,6.8,6.8,6.8s6.8-3,6.8-6.8l0,0
	C146.4,146,143.4,143,139.6,143L139.6,143L139.6,143z"/>
<path class="st1" d="M96.4,107.7h-1.1v0.7h1.1V107.7z"/>
<path class="st1" d="M93.3,107.7h-2.1v0.7h2.1V107.7z"/>
<path class="st1" d="M143.4,107.7h-45v0.7h45c3.7,0,6.6,3,6.6,6.6v38.4c0,3.7-3,6.6-6.6,6.6H79.7c-3.7,0-6.7-3-6.7-6.6l0,0V115
	c0-3.7,3-6.6,6.6-6.7h10.1v-0.7h-10c-4,0-7.3,3.3-7.3,7.3v38.4c0,4,3.3,7.3,7.3,7.3h63.7c4,0,7.3-3.3,7.3-7.3V115
	C150.7,111,147.4,107.7,143.4,107.7z"/>
<path class="st0" d="M125.9,103.6c0.9,0.1,1.5,0.7,1.7,1.6v29.9l1.9-1.4l1.9,1.4l1.9-1.4l2,1.4l2-1.4l2,1.4l1.9-1.5l2.1,1.5l1.9-1.5
	l2,1.5v-29.8c-0.1-0.9-0.9-1.6-1.8-1.7L125.9,103.6z"/>
<path class="st1" d="M131.5,135.4c-0.1,0-0.1,0-0.2-0.1l-1.7-1.2l-1.8,1.2c-0.1,0.1-0.2,0.1-0.3,0c-0.1-0.1-0.2-0.2-0.2-0.3v-29.9
	c-0.2-0.7-0.7-1.2-1.4-1.3c-0.2,0-0.3-0.2-0.3-0.3c0-0.2,0.2-0.3,0.3-0.3h19.6c1.1,0.1,1.9,0.9,2.1,2V135c0,0.1-0.1,0.2-0.2,0.3
	c-0.1,0.1-0.2,0.1-0.4,0l-1.8-1.3l-1.7,1.3c-0.1,0.1-0.3,0.1-0.4,0l-1.9-1.3l-1.7,1.3c-0.1,0.1-0.3,0.1-0.4,0l-1.8-1.3l-1.8,1.3
	c-0.1,0.1-0.3,0.1-0.4,0l-1.8-1.3l-1.7,1.3C131.6,135.4,131.5,135.4,131.5,135.4z M133.4,133.3c0.1,0,0.1,0,0.2,0.1l1.8,1.3l1.8-1.3
	c0.1-0.1,0.3-0.1,0.4,0l1.8,1.3l1.7-1.3c0.1-0.1,0.3-0.1,0.4,0l1.9,1.3l1.7-1.3c0.1-0.1,0.3-0.1,0.4,0l1.5,1.1v-29.1
	c-0.1-0.8-0.7-1.3-1.5-1.4h-18.2c0.3,0.3,0.5,0.7,0.6,1.2c0,0,0,0,0,0.1v29.3l1.4-1c0.1-0.1,0.3-0.1,0.4,0l1.7,1.2l1.7-1.3
	C133.2,133.4,133.3,133.3,133.4,133.3L133.4,133.3z"/>
<path class="st2" d="M145.5,103.9h-18.2c0.3,0.3,0.5,0.7,0.6,1.2c0,0,0,0,0,0.1v29.3l1.2-0.8v-28.5h17.8
	C146.7,104.4,146.2,104,145.5,103.9z"/>
<path class="st2" d="M141.2,111.7h-9.9c-0.2,0-0.3-0.2-0.3-0.3s0.2-0.3,0.3-0.3h9.9c0.2,0,0.3,0.2,0.3,0.3
	C141.6,111.6,141.4,111.7,141.2,111.7z"/>
<path class="st2" d="M143.5,114.5h-12.2c-0.2,0-0.3-0.2-0.3-0.3c0-0.2,0.2-0.3,0.3-0.3h12.2c0.2,0,0.3,0.2,0.3,0.3
	S143.7,114.5,143.5,114.5L143.5,114.5z"/>
<path class="st2" d="M144.8,117.2h-13.5c-0.2,0-0.3-0.2-0.3-0.3s0.2-0.3,0.3-0.3h13.5c0.2,0,0.3,0.2,0.3,0.3
	C145.1,117.1,145,117.2,144.8,117.2L144.8,117.2z"/>
<path class="st2" d="M144.8,120h-13.5c-0.2,0-0.3-0.2-0.3-0.3s0.2-0.3,0.3-0.3h13.5c0.2,0,0.3,0.2,0.3,0.3S145,120,144.8,120
	L144.8,120z"/>
<path class="st4" d="M123.6,108v-2.7c0-1,0.9-1.8,1.9-1.8c0.1,0,0.2,0,0.2,0c1-0.1,1.8,0.6,1.9,1.6l0,0v2.8L123.6,108L123.6,108z"/>
<path class="st1" d="M127.6,108.3h-4c-0.2,0-0.3-0.2-0.3-0.3v-2.7c0-0.5,0.2-1.1,0.6-1.5c0.5-0.5,1.1-0.7,1.8-0.7l0,0
	c1.1-0.1,2.1,0.7,2.2,1.9v2.9C127.9,108.2,127.8,108.3,127.6,108.3z M123.9,107.7h3.3v-2.5c-0.1-0.8-0.7-1.4-1.5-1.3c0,0,0,0-0.1,0
	c-0.5-0.1-1,0.1-1.4,0.4c-0.3,0.3-0.4,0.6-0.4,1L123.9,107.7L123.9,107.7z"/>
<path class="st0" d="M94.6,145.9h-25c-1.8,0-3.2-1.5-3.2-3.2v-16.8c0-1.8,1.4-3.2,3.2-3.2h25c1.8,0,3.2,1.5,3.2,3.2v16.8
	C97.8,144.4,96.4,145.8,94.6,145.9L94.6,145.9z"/>
<path class="st1" d="M94.7,146.2H69.4c-1.9,0-3.4-1.6-3.4-3.4v-17.1c0-1.9,1.5-3.4,3.4-3.4l0,0h25.3c1.9,0,3.4,1.5,3.4,3.4v17.1
	C98.1,144.7,96.6,146.2,94.7,146.2z M69.4,122.9c-1.5,0-2.8,1.2-2.8,2.8l0,0v17.1c0,1.5,1.2,2.8,2.8,2.8h25.3c1.5,0,2.8-1.2,2.8-2.8
	v-17.1c0-1.5-1.2-2.8-2.8-2.8H69.4L69.4,122.9z"/>
<path class="st19" d="M68.1,143.7v-16.6c0-1.7,1.3-3,3-3c0,0,0,0,0.1,0h25.1c0.3,0,0.7,0.1,1,0.2c-0.6-0.8-1.5-1.3-2.5-1.3h-25
	c-1.7,0-3,1.3-3.1,2.9c0,0,0,0,0,0.1v16.6c0,1.3,0.8,2.4,2.1,2.8C68.3,144.9,68.1,144.3,68.1,143.7z"/>
<path class="st2" d="M93.6,129.3h-23c-0.6,0-1-0.5-1-1c0-0.6,0.5-1,1-1h23c0.6,0,1,0.4,1,1C94.6,128.8,94.1,129.2,93.6,129.3z"/>
<path class="st4" d="M89.8,143.3c1.1,0,2-0.9,2-2s-0.9-2-2-2s-2,0.9-2,2S88.6,143.3,89.8,143.3z"/>
<path class="st1" d="M89.8,143.6c-1.3,0-2.3-1-2.3-2.3s1-2.3,2.3-2.3s2.3,1,2.3,2.3l0,0C92.1,142.6,91,143.6,89.8,143.6z
	 M89.8,139.6c-0.9,0-1.7,0.7-1.7,1.6s0.7,1.7,1.6,1.7s1.7-0.7,1.7-1.6l0,0C91.4,140.4,90.6,139.6,89.8,139.6L89.8,139.6z"/>
<path class="st4" d="M92.3,143.3c1.1,0,2-0.9,2-2s-0.9-2-2-2s-2,0.9-2,2S91.2,143.3,92.3,143.3z"/>
<path class="st1" d="M92.3,143.6c-1.3,0-2.3-1-2.3-2.3s1-2.3,2.3-2.3s2.3,1,2.3,2.3l0,0C94.6,142.6,93.6,143.6,92.3,143.6z
	 M92.3,139.6c-0.9,0-1.6,0.8-1.6,1.7s0.8,1.6,1.7,1.6c0.9,0,1.6-0.7,1.6-1.6S93.3,139.6,92.3,139.6L92.3,139.6L92.3,139.6z"/>
<path class="st21" d="M94.7,179.6c1.6,0,2.9-1.3,2.9-2.9c0-1.6-1.3-2.9-2.9-2.9s-2.9,1.3-2.9,2.9l0,0
	C91.8,178.3,93.1,179.6,94.7,179.6z"/>
<path class="st0" d="M121.3,52.5c0.3-0.5-2.1-2.5-5.4-4.5s-6.1-3.3-6.4-2.9s2.1,2.5,5.3,4.5S121,53,121.3,52.5z"/>
<path class="st0" d="M122.6,50.5l-11.8-7.4l-1.3,2l11.8,7.4L122.6,50.5z"/>
<path class="st4" d="M122.6,50.5c-0.3,0.5-3.2-0.8-6.4-2.9s-5.7-4.1-5.4-4.6s3.2,0.8,6.4,2.9S122.9,50.1,122.6,50.5z"/>
<path class="st1" d="M121.9,50.1c-0.2,0.3-2.7-0.9-5.5-2.7s-5-3.5-4.8-3.8s2.7,0.9,5.5,2.7S122.1,49.8,121.9,50.1z"/>
<path class="st2" d="M121.6,49.9c-0.2,0.3-2.5-0.9-5.2-2.6s-4.7-3.3-4.6-3.5s2.5,0.9,5.2,2.6S121.7,49.6,121.6,49.9z"/>
<path class="st0" d="M116.2,46c0.1,0,0.3,0.1,0.4,0.2l0.8,0.5c0.1,0.1,0.2,0.1,0.3,0.2c0,0,0.1,0.1,0.2,0.2c1.1,0.7,1.6,1.1,1.5,1.2
	l0,0l-1.7-1.1l0,0c0-0.1-0.3-0.3-0.8-0.6s-0.9-0.5-0.9-0.5s3.4,2.4,3.3,2.6s-0.7-0.2-1.8-0.9c-0.1-0.1-0.2-0.1-0.3-0.1
	c-0.1,0-0.3-0.1-0.4-0.2L116,47c-0.1-0.1-0.2-0.1-0.3-0.2c0,0-0.1-0.1-0.2-0.2c-1.1-0.7-1.6-1.1-1.6-1.2l0,0c0.1,0,0.2,0.1,0.4,0.2
	l1,0.6c0.1,0.1,0.2,0.1,0.3,0.2l0,0c0,0,0.3,0.3,0.9,0.7s0.9,0.6,1,0.5s-3.4-2.4-3.2-2.6s0.7,0.2,1.7,0.8
	C116,45.9,116.1,46,116.2,46z"/>
<path class="st4" d="M111,44.2L111,44.2L111,44.2l-0.1-0.2c0,0-0.1,0-0.1,0.1v0.1c0,0.1-0.1,0.1-0.1,0.2s-0.2,0.3-0.2,0.4l-0.5,0.8
	c-0.1,0.1,0.1,0.3,0.2,0.1s0.3-0.5,0.5-0.8l0.2-0.4L111,44.2z"/>
<path class="st4" d="M111.8,45.1L111.8,45.1c0-0.1,0-0.1,0-0.2l-0.1-0.1c0,0-0.1,0-0.1,0.1l0,0c0,0.1-0.1,0.1-0.1,0.2
	c-0.1,0.1-0.2,0.3-0.2,0.4l-0.5,0.8c-0.1,0.1,0.1,0.3,0.2,0.1s0.3-0.5,0.5-0.8S111.7,45.4,111.8,45.1
	C111.7,45,111.8,45.2,111.8,45.1z"/>
<path class="st4" d="M112.9,46L112.9,46L112.9,46l-0.1-0.2c0,0-0.1,0-0.1,0.1V46l-0.1,0.2c-0.1,0.1-0.2,0.3-0.2,0.4l-0.5,0.8
	c-0.1,0.1,0.1,0.3,0.2,0.1s0.3-0.5,0.5-0.8l0.2-0.4C112.8,46.2,112.9,46.1,112.9,46z"/>
<path class="st4" d="M114.2,46.9L114.2,46.9L114.2,46.9l-0.1-0.2c0,0-0.1,0-0.1,0.1l-0.1,0.1c0,0.1-0.1,0.1-0.1,0.2l-0.2,0.4
	l-0.5,0.8c-0.1,0.1,0.1,0.3,0.2,0.1s0.3-0.5,0.5-0.8l0.2-0.4C114.1,47.1,114.2,47,114.2,46.9z"/>
<path class="st4" d="M115.5,47.8L115.5,47.8c0-0.1,0-0.1,0-0.2c0,0,0,0-0.1-0.1c0,0-0.1,0-0.1,0.1l0,0l-0.1,0.2l-0.2,0.4l-0.5,0.8
	c-0.1,0.1,0.1,0.3,0.2,0.1l0.5-0.8L115.5,47.8C115.4,47.9,115.4,47.8,115.5,47.8z"/>
<path class="st4" d="M121.6,50.9C121.6,50.9,121.6,50.8,121.6,50.9C121.6,50.8,121.7,50.8,121.6,50.9c0.1-0.1,0.2-0.1,0.2,0V51
	c0,0,0,0,0,0.1l-0.1,0.2c-0.1,0.1-0.2,0.2-0.2,0.4l-0.5,0.8c-0.1,0.1-0.3,0-0.2-0.1s0.3-0.5,0.5-0.8l0.2-0.4
	C121.5,51,121.5,50.9,121.6,50.9z"/>
<path class="st4" d="M120.4,50.5L120.4,50.5C120.4,50.4,120.5,50.4,120.4,50.5c0.1-0.1,0.2-0.1,0.2,0v0.1c0,0,0,0,0,0.1
	s-0.1,0.1-0.1,0.2l-0.2,0.4c-0.2,0.2-0.3,0.5-0.5,0.8s-0.3,0-0.2-0.1l0.4-1l0.2-0.4C120.3,50.6,120.3,50.5,120.4,50.5z"/>
<path class="st4" d="M119.1,49.9L119.1,49.9C119.1,49.8,119.2,49.8,119.1,49.9c0.1-0.1,0.2-0.1,0.2,0V50c0,0,0,0,0,0.1
	s-0.1,0.1-0.1,0.2l-0.2,0.4c-0.2,0.2-0.3,0.5-0.5,0.8s-0.3,0-0.2-0.1l0.5-0.8l0.2-0.4C119,50,119.1,50,119.1,49.9z"/>
<path class="st4" d="M117.7,49.1L117.7,49.1C117.7,49,117.8,49,117.7,49.1c0.1-0.1,0.2-0.1,0.2,0v0.1c0,0,0,0,0,0.1l-0.1,0.2
	l-0.2,0.4c-0.2,0.2-0.3,0.5-0.5,0.8s-0.3,0-0.2-0.1l0.5-0.8c0.1-0.1,0.2-0.2,0.2-0.4L117.7,49.1z"/>
<path class="st4" d="M116.4,48.3L116.4,48.3C116.4,48.2,116.5,48.2,116.4,48.3c0.1-0.1,0.2-0.1,0.2,0v0.1v0.1l-0.1,0.2l-0.2,0.4
	c-0.2,0.2-0.3,0.5-0.5,0.8s-0.3,0-0.2-0.1l0.5-0.8c0.1-0.1,0.2-0.2,0.2-0.4S116.3,48.4,116.4,48.3z"/>
<path class="st0" d="M122.3,50.2c0-0.1,0-0.1-0.1-0.2c0-0.1-0.1-0.1-0.1-0.1l-0.1-0.1l0,0l0,0l0,0l0,0c0,0,0,0.1,0.1,0.1l0,0l0,0
	l0,0l0,0l0,0l0,0l0,0V50l0.1,0.1h0.1c0,0,0.1,0,0.1-0.1C122.3,50.1,122.3,50.2,122.3,50.2z"/>
<path class="st22" d="M121.9,50.3L121.9,50.3L121.9,50.3L121.9,50.3L121.9,50.3L121.9,50.3L121.9,50.3L121.9,50.3L121.9,50.3
	L121.9,50.3L121.9,50.3L121.9,50.3L121.9,50.3L121.9,50.3C121.8,50.3,121.8,50.3,121.9,50.3z"/>
<path class="st0" d="M134.6,44.7c3.5-1.5,6.2-3.2,6-3.7s-3.3,0.3-6.8,1.9s-6.2,3.2-6,3.7C128.1,47,131.1,46.2,134.6,44.7z"/>
<path class="st0" d="M139.7,38.8l-12.8,5.5l1,2.2l12.7-5.5L139.7,38.8z"/>
<path class="st4" d="M139.7,38.8c0.2,0.5-2.5,2.2-6,3.7s-6.6,2.3-6.8,1.9s2.5-2.2,6-3.7S139.5,38.3,139.7,38.8z"/>
<path class="st1" d="M139,39.2c0.1,0.3-2.3,1.7-5.4,3s-5.8,2.2-5.9,1.8s2.3-1.7,5.4-3S138.8,38.8,139,39.2z"/>
<path class="st2" d="M138.6,39.3c0.1,0.3-2.1,1.5-5,2.8s-5.4,2-5.5,1.8s2.1-1.5,5-2.8S138.5,39,138.6,39.3z"/>
<path class="st0" d="M132.3,41.5c0.1-0.1,0.2-0.1,0.4-0.2l0.8-0.4c0.2-0.1,0.4-0.2,0.4-0.1c0.1,0,0.2-0.1,0.3-0.1
	c1.2-0.5,1.8-0.7,1.9-0.6l0,0l-1.8,0.8l0,0c0-0.1-0.4,0.1-1,0.3s-1,0.4-0.9,0.5s3.9-1.5,4-1.2s-0.6,0.5-1.7,1
	c-0.1,0-0.2,0.1-0.3,0.2c-0.1,0.1-0.2,0.1-0.4,0.2l-0.8,0.4c-0.1,0.1-0.3,0.1-0.4,0.1c0,0-0.1,0-0.3,0.1c-1.2,0.5-1.9,0.7-1.9,0.6
	l0,0c0.1-0.1,0.2-0.1,0.4-0.2l1.1-0.5c0.1-0.1,0.3-0.1,0.4-0.1l0,0c0.4-0.1,0.7-0.2,1-0.4c0.6-0.3,1-0.5,1-0.5s-3.9,1.5-4,1.2
	s0.5-0.4,1.7-1L132.3,41.5z"/>
<path class="st4" d="M127.9,44.8L127.9,44.8C127.9,44.7,127.8,44.7,127.9,44.8l-0.2-0.1v0.1v0.1c0,0.1,0.1,0.2,0.1,0.2
	s0.1,0.3,0.2,0.4c0.1,0.1,0.2,0.5,0.3,0.8c0,0.1,0.1,0.1,0.2,0c0,0,0.1-0.1,0-0.1l-0.4-0.8L128,45C128,45,128,44.9,127.9,44.8z"/>
<path class="st4" d="M129.1,44.6L129.1,44.6c0-0.1-0.1-0.1-0.1-0.1h-0.1v0.1c0,0,0,0,0,0.1s0.1,0.2,0.1,0.2l0.2,0.4l0.4,0.8
	c0,0.1,0.1,0.1,0.2,0.1c0.1,0,0.1-0.1,0.1-0.2l0,0c-0.1-0.3-0.2-0.5-0.4-0.8l-0.2-0.4C129.2,44.8,129.2,44.7,129.1,44.6z"/>
<path class="st4" d="M130.5,44.2L130.5,44.2c0-0.1-0.1-0.1-0.1-0.1h-0.1v0.1v0.1c0,0.1,0.1,0.2,0.1,0.2s0.1,0.3,0.2,0.4
	s0.2,0.5,0.4,0.8c0,0.1,0.1,0.1,0.2,0c0,0,0.1-0.1,0-0.1l-0.4-0.8c-0.1-0.1-0.1-0.3-0.2-0.4C130.6,44.4,130.5,44.3,130.5,44.2z"/>
<path class="st4" d="M132,43.7L132,43.7c0-0.1-0.1-0.1-0.1-0.1h-0.1v0.1c0,0,0,0,0,0.1s0.1,0.2,0.1,0.2l0.2,0.4l0.4,0.8
	c0,0.1,0.1,0.1,0.2,0.1c0.1,0,0.1-0.1,0.1-0.2l0,0c-0.1-0.3-0.2-0.5-0.4-0.8l-0.2-0.4C132.1,43.8,132,43.8,132,43.7z"/>
<path class="st4" d="M133.4,43.1L133.4,43.1c0-0.1-0.1-0.1-0.1-0.1h-0.1v0.1v0.1c0,0.1,0.1,0.1,0.1,0.2c0.1,0.1,0.1,0.3,0.2,0.4
	c0.1,0.3,0.2,0.5,0.4,0.8c0,0.1,0.1,0.1,0.2,0c0,0,0.1-0.1,0-0.1c-0.1-0.3-0.2-0.5-0.4-0.8l-0.2-0.4
	C133.5,43.2,133.4,43.2,133.4,43.1z"/>
<path class="st4" d="M139.4,39.8L139.4,39.8c0-0.1,0-0.1,0-0.2c0,0,0.1-0.1,0.1,0c0,0,0.1,0,0.1,0.1c0,0,0,0,0,0.1s0.1,0.1,0.1,0.2
	c0.1,0.1,0.1,0.3,0.2,0.4s0.2,0.5,0.4,0.8c0,0.1,0,0.1-0.1,0.1h-0.1c-0.1-0.3-0.2-0.5-0.4-0.8l-0.2-0.4
	C139.5,40,139.4,39.9,139.4,39.8z"/>
<path class="st4" d="M138.4,40.6L138.4,40.6c0-0.1,0-0.1,0-0.2c0,0,0.1-0.1,0.1,0c0,0,0.1,0,0.1,0.1c0,0,0,0,0,0.1s0.1,0.2,0.1,0.2
	s0.1,0.3,0.2,0.4s0.2,0.5,0.4,0.8c0,0.1,0,0.1-0.1,0.1h-0.1c-0.1-0.3-0.2-0.5-0.4-0.8l-0.2-0.4C138.5,40.8,138.4,40.7,138.4,40.6z"
	/>
<path class="st4" d="M137.2,41.3L137.2,41.3c0-0.1,0-0.1,0-0.2h0.1c0,0,0.1,0,0.1,0.1c0,0,0,0,0,0.1s0.1,0.1,0.1,0.2
	c0.1,0.1,0.1,0.3,0.2,0.4l0.4,0.8c0.1,0.2-0.2,0.2-0.2,0.1l-0.4-0.8l-0.2-0.4C137.3,41.5,137.2,41.4,137.2,41.3z"/>
<path class="st4" d="M135.8,42L135.8,42c0-0.1,0-0.1,0-0.2h0.1c0,0,0.1,0,0.1,0.1c0,0,0,0,0,0.1s0.1,0.1,0.1,0.2l0.2,0.4l0.4,0.8
	c0.1,0.2-0.2,0.2-0.2,0.1l-0.4-0.8l-0.2-0.4C135.9,42.2,135.8,42.2,135.8,42z"/>
<path class="st4" d="M134.4,42.7L134.4,42.7c0-0.1,0-0.1,0-0.2h0.1c0,0,0.1,0,0.1,0.1c0,0,0,0,0,0.1s0.1,0.2,0.1,0.2
	c0.1,0.1,0.1,0.3,0.2,0.4c0.1,0.3,0.2,0.5,0.4,0.8c0,0.1,0,0.1-0.1,0.1h-0.1c-0.1-0.3-0.2-0.5-0.4-0.8l-0.2-0.4
	C134.5,42.9,134.4,42.8,134.4,42.7z"/>
<path class="st0" d="M139.3,38.9c-0.1,0-0.1,0-0.2,0h-0.2h-0.1l0,0l0,0l0,0h0.1l0,0h0.1h0.1l0,0l0,0
	C139.2,38.9,139.2,38.9,139.3,38.9L139.3,38.9L139.3,38.9C139.4,38.8,139.4,38.8,139.3,38.9C139.3,38.8,139.3,38.8,139.3,38.9z"/>
<path class="st0" d="M139.1,39.3L139.1,39.3L139.1,39.3L139.1,39.3L139.1,39.3L139.1,39.3L139.1,39.3L139.1,39.3l0.1,0.1l0,0l0,0
	l0,0l0,0l0,0l0,0C139.2,39.4,139.1,39.3,139.1,39.3z"/>
<path class="st4" d="M132.7,57.3c1.8,3,0.8,6.9-2.2,8.6c-3,1.8-6.9,0.8-8.6-2.2c-1.8-3-0.8-6.8,2.2-8.6
	C127,53.4,130.8,54.3,132.7,57.3C132.6,57.3,132.7,57.3,132.7,57.3z"/>
<path class="st1" d="M127.3,65.8c2.9,0,5.3-2.4,5.3-5.3s-2.4-5.3-5.3-5.3c-2.9,0-5.3,2.4-5.3,5.3l0,0
	C122,63.5,124.4,65.8,127.3,65.8z"/>
<path class="st2" d="M127.3,65.5c2.8,0,5-2.2,5-5s-2.2-5-5-5s-5,2.2-5,5l0,0C122.3,63.3,124.5,65.5,127.3,65.5z"/>
<path class="st0" d="M128.7,54.7c0,0-0.1-0.1-0.2-0.1c-0.1,0-0.2,0-0.3,0c-0.2,0-0.5-0.1-0.7-0.1h-0.7c-0.2,0-0.5,0-0.6,0.3
	c0,0,0,0.1,0,0.2c0.2,0.1,0.4,0.1,0.6,0c0.2,0,0.4,0,0.6,0s0.4,0,0.6,0l0.3,0.1c0.1,0,0.1,0,0.2,0c0.1,0,0.1-0.1,0.2-0.1v-0.1
	C128.7,54.8,128.7,54.8,128.7,54.7z"/>
<path class="st0" d="M129.9,55.2l-0.1-0.1l0,0V55c0,0,0,0-0.1,0h-0.1l-0.1-0.1l-0.2-0.1c-0.1,0-0.1,0-0.2,0c-0.1,0-0.1,0.1-0.1,0.2
	v0.1c0,0,0,0.1,0.1,0.1s0.1,0.1,0.2,0.1h0.1l0,0h0.1l0,0h0.1l0,0h0.1l0,0 M129.8,55.4L129.8,55.4L129.8,55.4c0-0.1,0.1-0.2,0.1-0.2
	L129.8,55.4z"/>
<path class="st14" d="M129.9,62.6L129.9,62.6v-0.2l-0.1-0.1l-0.2-0.1l-0.1-0.1l0.1-0.1c0.1-0.2,0.1-0.3,0.2-0.5c0-0.2,0-0.3,0-0.5
	s-0.1-0.4-0.1-0.5c-0.1-0.2-0.2-0.3-0.3-0.4c-0.2-0.1-0.4-0.2-0.6-0.3c-0.2,0-0.4,0-0.6,0c-0.2,0.1-0.4,0.1-0.6,0.2
	c-0.2,0.1-0.4,0.2-0.6,0.3c-0.2,0.2-0.4,0.2-0.5,0.3s-0.2,0.1-0.4,0.1c-0.1,0-0.2,0-0.3,0c-0.1,0-0.2-0.1-0.2-0.1
	c-0.1-0.1-0.1-0.2-0.2-0.3c0-0.1-0.1-0.2-0.1-0.3s0-0.3,0.1-0.4c0.1-0.1,0.1-0.2,0.2-0.3s0.2-0.2,0.3-0.2c0.1-0.1,0.2-0.1,0.3-0.2
	c0.1,0,0.2,0,0.3,0c0.1,0,0.2,0,0.3,0.1h0.1h0.1h0.1c0,0,0.1,0,0.1-0.1l0.1-0.1v-0.1l0,0v-0.1l-0.1-0.1l0,0l0,0l0,0
	c-0.1-0.1-0.3-0.1-0.4-0.2c-0.2,0-0.3,0-0.5,0c-0.1,0-0.3,0.1-0.4,0.1c-0.1,0.1-0.3,0.1-0.4,0.2h-0.1l-0.1-0.1l-0.2-0.1l-0.1-0.1
	h-0.1l0,0h-0.1l-0.1,0.1l-0.1,0.1v0.1l0,0v0.1c0,0,0,0.1,0.1,0.1l0,0l0.2,0.1L125,59v0.1c-0.1,0.2-0.2,0.3-0.2,0.5s0,0.3,0,0.5
	s0.1,0.4,0.2,0.5c0.1,0.2,0.2,0.3,0.3,0.4c0.2,0.1,0.4,0.3,0.6,0.3s0.4,0,0.6,0s0.4-0.1,0.6-0.2c0.2-0.1,0.4-0.2,0.6-0.4
	c0.2-0.1,0.4-0.2,0.5-0.3s0.3-0.1,0.4-0.1c0.2,0,0.3,0,0.5,0.1c0.1,0.1,0.1,0.2,0.2,0.3c0,0.1,0.1,0.2,0.1,0.3s0,0.3-0.1,0.4
	c-0.1,0.1-0.1,0.2-0.2,0.3c-0.1,0.1-0.2,0.2-0.3,0.2c-0.1,0.1-0.2,0.1-0.3,0.2c-0.1,0-0.2,0-0.3,0s-0.2,0-0.3-0.1h-0.1h-0.1h-0.1
	l-0.1,0.1l-0.1,0.1v0.1v0.1l0.1,0.1l0,0l0,0l0,0c0.1,0.1,0.3,0.1,0.4,0.2c0.2,0,0.3,0,0.5,0c0.1,0,0.3-0.1,0.4-0.1
	c0.1-0.1,0.3-0.1,0.4-0.2h0.1h0.1l0.2,0.1l0.1,0.1L129.9,62.6L129.9,62.6c0,0,0.1,0,0.1-0.1C129.9,62.7,129.9,62.6,129.9,62.6z"/>
<path class="st1" d="M80.3,75.1l-7,3.5c-0.1,0-0.3,0-0.3-0.2s-0.1-0.3,0-0.4l7-3.5c0.1,0,0.3,0,0.3,0.2S80.4,75.1,80.3,75.1z"/>
<path class="st1" d="M81.8,78.2l-7,3.5c-0.1,0-0.3,0-0.3-0.2s-0.1-0.3,0-0.4l7-3.5c0.1,0,0.3,0,0.3,0.2S81.9,78.1,81.8,78.2z"/>
<path class="st23" d="M92.8,50.4l-0.4,0.2L92,50.7l-0.3,0.2L91.4,51l-0.2,0.2c-0.5,0.4-0.9,0.8-1.2,1.3c-0.5,0.7-0.8,1.5-1,2.3
	c0,0.1,0,0.2,0,0.2c0,0.1,0.1,0.1,0.2,0.2l0.2,0.1h0.1c0.3,0.1,0.4,0.1,0.4-0.2c0.4-2.1,2.1-3.7,4.2-3.8c0.9,0,1.7,0.1,2.5,0.5h0.1
	h0.1c0,0,0.1,0,0.1-0.1v-0.1l0.1-0.4c0.1-0.2,0-0.4-0.2-0.4l0,0c-0.5-0.3-1.1-0.4-1.6-0.5s-1.1-0.1-1.6,0
	C93.4,50.2,93.1,50.3,92.8,50.4z M94.9,57.3c0.1,0,0.3-0.1,0.4-0.2l0,0c0.1-0.1,0.1-0.2,0.1-0.3s0-0.2,0-0.4
	c-0.1-0.1-0.1-0.2-0.3-0.3c-0.2-0.1-0.5-0.1-0.7,0c-0.2,0.2-0.4,0.5-0.2,0.7C94.4,57.2,94.6,57.3,94.9,57.3z M92.9,52.4
	c1.2-0.6,2.6-0.5,3.7,0.2c0.1,0.1,0.2,0.3,0.2,0.4c0,0.2-0.1,0.3-0.1,0.5s-0.2,0.2-0.3,0.1c-0.4-0.3-0.9-0.5-1.4-0.5
	c-1.5-0.1-2.9,1-3,2.5v0.1v0.1c0,0.1-0.1,0.2-0.2,0.1l0,0c-0.2-0.1-0.4-0.2-0.6-0.2C91,55.6,91,55.5,91,55.3
	c0.1-1.1,0.7-2.1,1.5-2.7c0.1-0.1,0.1-0.1,0.2-0.1C92.7,52.5,92.8,52.4,92.9,52.4L92.9,52.4z M96.1,54.4c-1.2-0.6-2.7-0.1-3.3,1.1
	c-0.1,0.2-0.2,0.4-0.2,0.6c-0.1,0.2,0,0.4,0.2,0.4l0.5,0.2c0.2,0.1,0.2,0,0.3-0.2l0,0c0,0,0,0,0-0.1c0.2-0.8,0.9-1.3,1.8-1.2h0.1
	c0.1,0,0.3,0.1,0.4,0.2c0.1,0.1,0.2,0,0.3,0v-0.1c0.1-0.2,0.1-0.3,0.2-0.5C96.3,54.6,96.2,54.4,96.1,54.4
	C96.1,54.3,96.1,54.3,96.1,54.4L96.1,54.4z"/>
<path class="st15" d="M68.4,139.6c0,0.1,0,0.2,0,0.2v0.4c0,0.1,0,0.1,0,0.2v0.1c0.1,0.3,0.2,0.6,0.3,0.9c0.2,0.4,0.5,0.7,0.9,1h0.1
	h0.1l0.1-0.1l0,0c0.1-0.1,0.1-0.2,0-0.3c-0.9-0.7-1.3-1.9-0.8-3c0.2-0.4,0.5-0.8,0.9-1.1l0,0c0,0,0,0,0-0.1c0,0,0,0,0-0.1v-0.1
	l-0.2-0.1c-0.1-0.1-0.2-0.1-0.2,0l0,0c-0.2,0.2-0.5,0.4-0.7,0.7c-0.2,0.2-0.3,0.5-0.4,0.8C68.4,139.2,68.4,139.4,68.4,139.6z
	 M72.3,140.2c0-0.1,0-0.2,0-0.2l0,0c0-0.1-0.1-0.1-0.1-0.1c-0.1,0-0.1-0.1-0.2-0.1s-0.1,0-0.2,0.1s-0.2,0.2-0.2,0.3
	c0,0.2,0.2,0.3,0.4,0.3C72.2,140.4,72.3,140.3,72.3,140.2L72.3,140.2z M69.4,140c0-0.7,0.4-1.4,1-1.8c0.1-0.1,0.2-0.1,0.2,0l0.2,0.2
	c0.1,0.1,0.1,0.1,0,0.2c-0.2,0.1-0.4,0.3-0.6,0.6c-0.4,0.7-0.2,1.7,0.5,2.1c0,0,0.1,0,0.1,0.1h0.1c0,0,0.1,0.1,0,0.1l0,0l-0.2,0.2
	c-0.1,0.1-0.2,0.1-0.2,0c-0.5-0.3-0.9-0.8-1-1.4v-0.1C69.4,140.1,69.4,140,69.4,140L69.4,140z M71.1,138.9c-0.3,0.3-0.5,0.6-0.5,1.1
	c0,0.4,0.2,0.8,0.5,1.1c0.1,0.1,0.2,0.1,0.3,0l0.2-0.2c0,0,0.1-0.1,0-0.2l0,0l0,0l0,0c-0.4-0.3-0.4-0.8-0.2-1.1l0,0
	c0-0.1,0.1-0.1,0.2-0.1c0,0,0.1-0.1,0-0.2l0,0l-0.2-0.2C71.4,138.8,71.3,138.8,71.1,138.9C71.2,138.9,71.1,138.9,71.1,138.9z"/>
<path class="st23" d="M78.4,115.4c0,0.1,0,0.2,0,0.3v0.3c0,0.1,0,0.2,0,0.3c0,0.1,0,0.2,0,0.2s0,0.1,0,0.2c0.1,0.4,0.2,0.9,0.4,1.3
	c0.3,0.6,0.7,1.1,1.2,1.4c0.1,0,0.1,0,0.2,0s0.1,0,0.2-0.1l0.2-0.1h0.1c0.2-0.2,0.2-0.2,0-0.4c-1.3-1-1.8-2.7-1.2-4.2
	c0.3-0.6,0.7-1.2,1.2-1.6l0,0v-0.1v-0.1c0,0,0,0,0-0.1l-0.2-0.2c-0.1-0.1-0.2-0.1-0.3,0l0,0c-0.3,0.3-0.7,0.6-0.9,0.9
	c-0.2,0.3-0.4,0.7-0.6,1.1C78.5,114.8,78.4,115.1,78.4,115.4z M83.9,116.2c0-0.1,0-0.2,0-0.3l0,0c0-0.1-0.1-0.1-0.2-0.2
	s-0.2-0.1-0.3-0.1c-0.1,0-0.2,0-0.3,0.1c-0.2,0.1-0.2,0.3-0.2,0.4c0,0.2,0.2,0.4,0.4,0.4C83.6,116.6,83.8,116.4,83.9,116.2z
	 M79.8,116c0-1,0.6-1.9,1.4-2.5c0.1-0.1,0.3-0.1,0.4,0l0.3,0.3c0.1,0.1,0.1,0.2,0,0.3c-0.3,0.2-0.6,0.5-0.8,0.8
	c-0.6,1-0.3,2.3,0.7,3h0.1H82c0.1,0,0.1,0.1,0,0.2l0,0l-0.3,0.3c-0.1,0.1-0.2,0.1-0.3,0c-0.7-0.4-1.2-1.2-1.4-2v-0.2
	C79.8,116.1,79.8,116.1,79.8,116z M82.2,114.5c-0.8,0.7-1,1.9-0.3,2.7c0.1,0.1,0.2,0.2,0.3,0.3c0.1,0.1,0.2,0.1,0.3,0l0,0l0.3-0.3
	c0.1,0,0.1-0.1,0-0.2l0,0l0,0l0,0c-0.5-0.4-0.6-1.1-0.2-1.6c0,0,0,0,0.1-0.1s0.2-0.2,0.2-0.2c0.1-0.1,0.1-0.2,0-0.2l-0.3-0.3
	C82.6,114.5,82.4,114.4,82.2,114.5C82.3,114.4,82.3,114.4,82.2,114.5L82.2,114.5z"/>
</svg>
