<?xml version="1.0" encoding="utf-8"?>
<!-- Generator: Adobe Illustrator 25.2.0, SVG Export Plug-In . SVG Version: 6.00 Build 0)  -->
<svg version="1.1" id="Layer_1" xmlns="http://www.w3.org/2000/svg" xmlns:xlink="http://www.w3.org/1999/xlink" x="0px" y="0px"
	 viewBox="0 0 216 216" style="enable-background:new 0 0 216 216;" xml:space="preserve">
<style type="text/css">
	.st0{fill:#7C4DFF;}
	.st1{fill:#666666;}
	.st2{opacity:0.3;fill:#7C4DFF;enable-background:new    ;}
	.st3{fill:#D3D3D3;}
	.st4{fill:#FFFFFF;}
</style>
<path class="st0" d="M8.3,147.3H5c-0.4,0-0.8-0.2-1.1-0.4c-0.3-0.3-0.5-0.7-0.5-1.1c0-0.4,0.2-0.8,0.5-1.1c0.3-0.3,0.7-0.5,1.1-0.5
	h3.3c0.9,0,1.5,0.7,1.6,1.6c0,0.4-0.2,0.8-0.5,1.1C9.1,147.2,8.7,147.3,8.3,147.3z"/>
<path class="st0" d="M21.1,147.3h-3.7c-0.2,0-0.4,0-0.6-0.1c-0.2-0.1-0.4-0.2-0.5-0.3c-0.1-0.1-0.3-0.3-0.3-0.5
	c-0.1-0.2-0.1-0.4-0.1-0.6c0-0.2,0-0.4,0.1-0.6c0.1-0.2,0.2-0.4,0.3-0.5c0.3-0.3,0.7-0.5,1.1-0.4h3.7c0.4,0,0.8,0.2,1.1,0.4
	c0.3,0.3,0.5,0.7,0.5,1.1c0,0.2,0,0.4-0.1,0.6c-0.1,0.2-0.2,0.4-0.3,0.5c-0.1,0.1-0.3,0.3-0.5,0.3C21.5,147.3,21.3,147.3,21.1,147.3
	z"/>
<path class="st0" d="M12.9,155.4c-0.9,0-1.5-0.7-1.5-1.5v-3.3c0.1-0.9,0.8-1.5,1.7-1.4c0.8,0.1,1.4,0.7,1.4,1.4v3.3
	c0,0.4-0.2,0.8-0.5,1.1C13.7,155.3,13.3,155.4,12.9,155.4z"/>
<path class="st0" d="M12.9,143.1c-0.2,0-0.4,0-0.6-0.1c-0.2-0.1-0.4-0.2-0.5-0.3c-0.1-0.1-0.3-0.3-0.3-0.5c-0.1-0.2-0.1-0.4-0.1-0.6
	v-3.7c0-0.2,0-0.4,0.1-0.6c0.1-0.2,0.2-0.4,0.3-0.5c0.3-0.3,0.7-0.5,1.1-0.5c0.2,0,0.4,0,0.6,0.1c0.2,0.1,0.4,0.2,0.5,0.4
	c0.1,0.2,0.3,0.3,0.3,0.5c0.1,0.2,0.1,0.4,0.1,0.6v3.7c0,0.2,0,0.4-0.1,0.6c-0.1,0.2-0.2,0.4-0.3,0.5c-0.1,0.1-0.3,0.3-0.5,0.3
	C13.3,143.1,13.1,143.1,12.9,143.1z"/>
<path class="st1" d="M188.2,188h-3.3c-0.2,0-0.4,0-0.6-0.1c-0.6-0.2-1-0.8-0.9-1.4c0-0.9,0.7-1.5,1.5-1.5h3.3c0.4,0,0.8,0.2,1.1,0.4
	c0.3,0.3,0.4,0.7,0.4,1.1c0,0.4-0.2,0.8-0.4,1.1C189,187.8,188.6,188,188.2,188z"/>
<path class="st1" d="M201,188h-3.7c-0.4,0-0.8-0.2-1.1-0.4c-0.3-0.3-0.5-0.7-0.5-1.1c0-0.4,0.2-0.8,0.5-1.1c0.3-0.3,0.7-0.5,1.1-0.4
	h3.7c0.9,0,1.5,0.7,1.5,1.5c0,0.4-0.2,0.8-0.4,1.1C201.8,187.8,201.4,188,201,188z"/>
<path class="st1" d="M192.8,196.2c-0.2,0-0.4,0-0.6-0.1c-0.2-0.1-0.4-0.2-0.5-0.3c-0.1-0.1-0.3-0.3-0.3-0.5
	c-0.1-0.2-0.1-0.4-0.1-0.6v-3.3c0-0.2,0-0.4,0.1-0.6c0.2-0.4,0.5-0.7,0.8-0.8c0.2-0.1,0.4-0.1,0.6-0.1c0.2,0,0.4,0,0.6,0.1
	c0.2,0.1,0.4,0.2,0.5,0.4c0.1,0.1,0.3,0.3,0.3,0.5c0.1,0.2,0.1,0.4,0.1,0.6v3.3c0,0.2,0,0.4-0.1,0.6c-0.1,0.2-0.2,0.4-0.3,0.5
	C193.6,196,193.2,196.2,192.8,196.2z"/>
<path class="st1" d="M192.8,183.8c-0.2,0-0.4,0-0.6-0.1c-0.2-0.1-0.4-0.2-0.5-0.3c-0.3-0.3-0.5-0.7-0.5-1.1v-3.7
	c0-0.4,0.2-0.8,0.4-1.1c0.6-0.6,1.6-0.6,2.2,0c0.3,0.3,0.4,0.7,0.4,1.1v3.7c0,0.4-0.2,0.8-0.5,1.1c-0.1,0.1-0.3,0.3-0.5,0.3
	C193.2,183.8,193,183.8,192.8,183.8z"/>
<path class="st0" d="M192.9,37h-3.3c-0.9,0-1.5-0.7-1.5-1.5c0-0.9,0.7-1.5,1.5-1.5c0,0,0,0,0,0h3.3c0.9,0,1.5,0.7,1.5,1.5
	S193.8,37.1,192.9,37C192.9,37.1,192.9,37.1,192.9,37z"/>
<path class="st0" d="M205.7,37H202c-0.8,0.1-1.6-0.5-1.7-1.3c-0.1-0.8,0.5-1.6,1.3-1.7c0.1,0,0.3,0,0.4,0h3.7c0.9,0,1.5,0.7,1.5,1.5
	S206.6,37.1,205.7,37L205.7,37z"/>
<path class="st0" d="M197.6,45.2c-0.2,0-0.4,0-0.6-0.1c-0.2-0.1-0.4-0.2-0.5-0.3c-0.1-0.1-0.3-0.3-0.3-0.5c-0.1-0.2-0.1-0.4-0.1-0.6
	v-3.3c0-0.8,0.7-1.5,1.5-1.5c0,0,0,0,0.1,0c0.9,0,1.5,0.7,1.5,1.5v3.3C199.1,44.5,198.4,45.2,197.6,45.2z"/>
<path class="st0" d="M197.6,32.8c-0.2,0-0.4,0-0.6-0.1c-0.2-0.1-0.4-0.2-0.5-0.3c-0.1-0.1-0.3-0.3-0.3-0.5c-0.1-0.2-0.1-0.4-0.1-0.6
	v-3.7c0-0.3,0.1-0.6,0.3-0.9c0.2-0.3,0.4-0.5,0.7-0.6c0.3-0.1,0.6-0.1,0.9-0.1c0.7,0.2,1.2,0.8,1.2,1.5v3.7c0,0.2,0,0.4-0.1,0.6
	c-0.1,0.2-0.2,0.4-0.3,0.5c-0.1,0.1-0.3,0.3-0.5,0.3C198,32.8,197.8,32.8,197.6,32.8z"/>
<path class="st2" d="M202,80c-2.8,0.1-5-2.1-5.1-4.9c0-0.4,0-0.7,0.1-1.1c0.4-2,2-3.6,4-3.9c2-0.4,4,0.4,5.1,2.1
	c0.5,0.7,0.8,1.6,0.8,2.5c0,0.9-0.1,1.8-0.6,2.6C205.5,79,203.9,80,202,80z M202,73.1c-0.4,0-0.7,0.1-1.1,0.3
	c-0.8,0.5-1.1,1.6-0.6,2.5c0.1,0.2,0.3,0.5,0.5,0.6c0.2,0.2,0.5,0.3,0.8,0.3c0.4,0.1,0.8,0,1.1-0.1c0.3-0.2,0.6-0.4,0.9-0.7
	c0.2-0.3,0.3-0.7,0.3-1.1c0-0.8-0.5-1.5-1.2-1.8C202.5,73.1,202.3,73,202,73.1L202,73.1z"/>
<path class="st2" d="M168.3,31c-0.3,0-0.6-0.1-0.9-0.3c-3-2.2-6.1-4.2-9.3-6c-0.2-0.1-0.3-0.2-0.5-0.4c-0.1-0.2-0.2-0.3-0.3-0.5
	c0-0.2,0-0.4,0-0.6c0-0.2,0.1-0.4,0.2-0.6c0.1-0.2,0.2-0.3,0.4-0.5c0.2-0.1,0.3-0.2,0.5-0.3c0.2-0.1,0.4-0.1,0.6,0
	c0.2,0,0.4,0.1,0.6,0.2c3.3,1.9,6.5,3.9,9.6,6.1c0.3,0.2,0.5,0.5,0.6,0.8c0.1,0.3,0.1,0.7,0,1C169.7,30.6,169,31,168.3,31z"/>
<path class="st3" d="M83.3,17c-0.4,0-0.7-0.1-1-0.4c-0.3-0.2-0.5-0.6-0.5-0.9c-0.1-0.8,0.3-1.5,1.1-1.7c16.8-5.2,34.8-5.8,51.9-1.6
	c0.2,0,0.4,0.1,0.6,0.2c0.2,0.1,0.3,0.3,0.4,0.4c0.2,0.4,0.3,0.8,0.2,1.2c0,0.2-0.1,0.4-0.2,0.6c-0.1,0.2-0.3,0.3-0.4,0.4
	c-0.2,0.1-0.4,0.2-0.6,0.2c-0.2,0-0.4,0-0.6,0c-16.6-4-34-3.4-50.3,1.6C83.6,17,83.5,17,83.3,17z"/>
<path class="st0" d="M45.9,38.8c-0.3,0-0.6-0.1-0.9-0.3c-0.3-0.2-0.4-0.4-0.6-0.7c-0.1-0.3-0.1-0.6-0.1-0.9c0.1-0.3,0.2-0.6,0.4-0.8
	c1.5-1.4,3.1-2.9,4.7-4.1c0.3-0.3,0.7-0.4,1.1-0.4c0.2,0,0.4,0.1,0.6,0.2c0.6,0.3,0.9,0.9,0.8,1.5c0,0.2-0.1,0.4-0.2,0.6
	c-0.1,0.2-0.2,0.3-0.4,0.5c-1.6,1.3-3.1,2.6-4.6,4C46.7,38.7,46.3,38.8,45.9,38.8z"/>
<path class="st1" d="M16.6,120.8c-0.4,0-0.7-0.1-1-0.4c-0.3-0.3-0.4-0.6-0.5-1c-1-8.2-1-16.5,0-24.7C16.7,82.1,20.7,70,26.9,59
	c0.1-0.2,0.2-0.3,0.4-0.5c0.2-0.1,0.3-0.2,0.5-0.3c0.2,0,0.4,0,0.6,0c0.2,0,0.4,0.1,0.6,0.2c0.4,0.2,0.6,0.5,0.7,0.9
	c0.1,0.4,0.1,0.8-0.1,1.2c-6.1,10.7-10,22.4-11.5,34.6c-1,8-1,16,0,24c0.1,0.8-0.5,1.6-1.3,1.7c0,0,0,0,0,0L16.6,120.8z"/>
<path class="st2" d="M63.9,191.8c-0.3,0-0.5-0.1-0.8-0.2c-3.8-2.2-7.4-4.6-10.8-7.2c-0.3-0.3-0.5-0.6-0.5-1c0-0.4,0.1-0.8,0.3-1.1
	c0.5-0.7,1.4-0.8,2.1-0.3c3.3,2.6,6.8,4.9,10.5,7c0.3,0.2,0.5,0.4,0.7,0.7c0.1,0.3,0.2,0.7,0.1,1c-0.1,0.3-0.3,0.6-0.6,0.8
	C64.5,191.7,64.2,191.8,63.9,191.8L63.9,191.8z"/>
<path class="st3" d="M111.8,204.6c-8.7,0-17.3-1.1-25.6-3.4c-0.2,0-0.4-0.1-0.5-0.3c-0.2-0.1-0.3-0.3-0.4-0.5
	c-0.1-0.2-0.2-0.4-0.2-0.6c0-0.2,0-0.4,0-0.6c0.1-0.2,0.1-0.4,0.3-0.5c0.1-0.2,0.3-0.3,0.5-0.4c0.2-0.1,0.4-0.2,0.6-0.2
	c0.2,0,0.4,0,0.6,0c14.7,4,30.2,4.4,45.1,1.1c0.3-0.1,0.6,0,0.9,0.1c0.3,0.1,0.5,0.3,0.7,0.6c0.4,0.5,0.4,1.2,0,1.7
	c-0.2,0.3-0.6,0.6-0.9,0.7C125.8,203.8,118.9,204.6,111.8,204.6z"/>
<path class="st2" d="M158.9,192.3c-0.7,0-1.3-0.5-1.5-1.1c-0.2-0.7,0.1-1.4,0.7-1.7c2.3-1.3,4.6-2.7,6.8-4.2
	c0.3-0.2,0.6-0.3,0.9-0.3c0.3,0,0.6,0.1,0.9,0.2c0.3,0.2,0.4,0.4,0.6,0.7c0.1,0.3,0.2,0.6,0.1,0.9c-0.1,0.4-0.3,0.8-0.6,1
	c-2.3,1.6-4.6,3-7,4.4C159.5,192.3,159.2,192.3,158.9,192.3z"/>
<path class="st0" d="M183.1,173c-0.5,0-0.9-0.2-1.2-0.5c-0.3-0.3-0.4-0.8-0.4-1.2c0-0.3,0.2-0.6,0.4-0.8c10.5-11.7,18-25.7,21.7-41
	c0.1-0.4,0.4-0.7,0.7-0.9c0.3-0.2,0.8-0.3,1.1-0.2c0.4,0.1,0.7,0.3,0.9,0.7c0.2,0.3,0.3,0.8,0.2,1.1c-3.8,15.8-11.6,30.3-22.4,42.4
	c-0.1,0.2-0.3,0.3-0.5,0.4C183.5,173,183.3,173,183.1,173z"/>
<path class="st3" d="M207.9,108.6c-0.9,0-1.5-0.7-1.5-1.5c0-2.8-0.1-5.7-0.4-8.5c-0.2-2.3-0.5-4.6-0.9-6.9c0-0.2,0-0.4,0-0.6
	c0-0.2,0.1-0.4,0.2-0.6c0.1-0.2,0.3-0.3,0.4-0.4c0.2-0.1,0.4-0.2,0.6-0.2c0.4-0.1,0.8,0,1.1,0.2c0.2,0.1,0.3,0.3,0.4,0.4
	c0.1,0.2,0.2,0.4,0.2,0.6c0.4,2.3,0.7,4.8,0.9,7.1c0.3,2.9,0.4,5.9,0.4,8.8c0,0.2,0,0.4-0.1,0.6c-0.1,0.2-0.2,0.4-0.3,0.5
	C208.7,108.4,208.3,108.6,207.9,108.6z"/>
<path class="st1" d="M121,171.3H38c-4.4,0-8-3.6-8-8V86c0-4.4,3.6-8,8-8h114.2c4.9,0,8.9,4,8.9,8.9v27.8c0,0.9-0.7,1.5-1.5,1.5
	c-0.9,0-1.5-0.7-1.5-1.5V86.9c0-3.2-2.6-5.7-5.8-5.8H38c-2.8,0-5,2.2-5,5v77.3c0,2.7,2.3,5,5,4.9h83c0.9,0,1.5,0.7,1.5,1.5
	C122.5,170.7,121.9,171.4,121,171.3L121,171.3z"/>
<path class="st0" d="M72.6,114.7c-5.5,0-10-4.5-10-10c0-5.5,4.5-10,10-10c5.5,0,10,4.5,10,10c0,4-2.5,7.7-6.2,9.2
	C75.2,114.5,73.9,114.7,72.6,114.7z M72.6,97.6c-2.1,0-4.1,0.9-5.4,2.6c-0.7,0.8-1.1,1.7-1.4,2.7c-0.2,1-0.3,2-0.1,3.1
	c0.3,1.3,0.9,2.6,1.9,3.6c1,1,2.2,1.7,3.6,1.9c1.9,0.4,4,0,5.6-1.2c0.8-0.6,1.4-1.3,1.9-2.2c0.5-0.8,0.8-1.8,0.9-2.8
	c0.1-1,0-2-0.3-2.9c-0.6-1.9-2-3.4-3.8-4.2C74.5,97.8,73.5,97.6,72.6,97.6L72.6,97.6z"/>
<path class="st0" d="M55.5,114.7c-5.6,0-10.1-4.5-10.1-10.1c0-5.6,4.5-10.1,10.1-10.1s10.1,4.5,10.1,10.1c0,2.7-1.1,5.2-3,7.1
	C60.7,113.6,58.2,114.7,55.5,114.7z M55.5,97.6c-3.3,0-6.2,2.4-6.8,5.7c-0.6,3.3,1.1,6.5,4.2,7.8c3.6,1.5,7.7-0.3,9.1-3.8
	s-0.3-7.7-3.8-9.1C57.3,97.8,56.4,97.6,55.5,97.6z"/>
<path class="st0" d="M174.1,122.1c-0.2,0-0.4,0-0.6-0.1c-0.2-0.1-0.4-0.2-0.5-0.3c-0.1-0.1-0.3-0.3-0.3-0.5
	c-0.1-0.2-0.1-0.4-0.1-0.6V72.3c0-3.2-2.6-5.8-5.8-5.8H52.6c-2.7,0-5,2.3-5,5v3.3c0,0.4-0.2,0.8-0.5,1.1c-0.6,0.6-1.6,0.6-2.2,0
	c-0.3-0.3-0.5-0.7-0.5-1.1v-3.3c0-4.4,3.6-8,8-8h114.2c4.9,0,8.9,4,8.9,8.9v48.2c0,0.4-0.2,0.8-0.5,1.1
	C174.9,122,174.5,122.1,174.1,122.1z"/>
<path class="st1" d="M187.8,137.7c-0.2,0-0.4,0-0.6-0.1c-0.2-0.1-0.4-0.2-0.5-0.3c-0.1-0.1-0.3-0.3-0.3-0.5
	c-0.1-0.2-0.1-0.4-0.1-0.6V57.3c0-3.2-2.6-5.8-5.8-5.8H66.2c-2.8,0-5,2.2-5,5v2.8c0,0.4-0.2,0.8-0.5,1.1c-0.4,0.4-1.1,0.6-1.7,0.3
	c-0.2-0.1-0.4-0.2-0.5-0.3c-0.1-0.1-0.3-0.3-0.3-0.5c-0.1-0.2-0.1-0.4-0.1-0.6v-2.8c0-2.1,0.9-4.2,2.4-5.7c1.5-1.5,3.5-2.4,5.7-2.3
	h114.3c4.9,0,8.9,4,8.9,8.9v78.9c0,0.2,0,0.4-0.1,0.6c-0.1,0.2-0.2,0.4-0.3,0.5c-0.1,0.1-0.3,0.3-0.5,0.3
	C188.2,137.6,188,137.7,187.8,137.7z"/>
<path class="st0" d="M70.9,140.3H46.2c-0.9,0-1.5-0.7-1.5-1.5c0-0.9,0.7-1.5,1.5-1.5h24.7c0.2,0,0.4,0,0.6,0.1
	c0.2,0.1,0.4,0.2,0.5,0.3c0.1,0.1,0.3,0.3,0.3,0.5c0.2,0.4,0.2,0.8,0,1.2c-0.1,0.2-0.2,0.4-0.3,0.5c-0.1,0.1-0.3,0.3-0.5,0.3
	C71.3,140.3,71.1,140.3,70.9,140.3z"/>
<path class="st0" d="M70.9,154.9H46.2c-0.4,0-0.8-0.2-1.1-0.5c-0.3-0.3-0.5-0.7-0.5-1.1c0-0.9,0.7-1.5,1.5-1.5h24.7
	c0.4,0,0.8,0.2,1.1,0.5c0.3,0.3,0.5,0.7,0.5,1.1c0,0.2,0,0.4-0.1,0.6c-0.1,0.2-0.2,0.4-0.3,0.5c-0.1,0.1-0.3,0.3-0.5,0.3
	C71.3,154.8,71.1,154.9,70.9,154.9z"/>
<path class="st0" d="M107.8,140.3H84.2c-0.9,0-1.5-0.7-1.5-1.5c0-0.9,0.7-1.5,1.5-1.5h23.6c0.9,0,1.5,0.7,1.5,1.5
	C109.3,139.6,108.6,140.3,107.8,140.3z"/>
<path class="st0" d="M107.8,154.9H84.2c-0.4,0-0.8-0.2-1.1-0.5c-0.3-0.3-0.5-0.7-0.4-1.1c0-0.9,0.7-1.5,1.5-1.5h23.6
	c0.9,0,1.5,0.7,1.5,1.5c0,0.4-0.2,0.8-0.4,1.1C108.6,154.7,108.2,154.9,107.8,154.9z"/>
<path class="st0" d="M152.4,175.8c-13.7,0-24.8-11.1-24.8-24.8s11.1-24.8,24.8-24.8s24.8,11.1,24.8,24.8c0,6.6-2.6,12.9-7.3,17.6
	C165.3,173.2,159,175.8,152.4,175.8z"/>
<path class="st2" d="M22.4,42.7c-4.5,0.3-8.5-3.2-8.7-7.7c-0.3-4.3,2.8-8.1,7.1-8.7c1.6-0.3,3.3-0.2,4.8,0.5
	c1.5,0.6,2.8,1.7,3.7,3.1c2.6,3.8,1.6,8.9-2.2,11.5C25.7,42.2,24,42.6,22.4,42.7L22.4,42.7z M22.4,29.3c-1,0-2,0.3-2.8,0.9
	c-0.8,0.6-1.5,1.4-1.9,2.3c-0.4,0.9-0.5,1.8-0.3,2.7c0.4,2.8,3,4.7,5.8,4.3c0.1,0,0.1,0,0.2,0c0.9-0.2,1.7-0.6,2.4-1.2
	c1.4-1.3,2-3.2,1.5-5c-0.2-0.9-0.6-1.7-1.3-2.4C25.1,29.8,23.8,29.3,22.4,29.3L22.4,29.3z"/>
<path class="st4" d="M167.2,149.7c0,0.5-0.2,0.9-0.5,1.2c-0.4,0.3-0.8,0.5-1.3,0.5h-11.2v10.2c0,0.2,0,0.5-0.1,0.7
	c-0.1,0.2-0.2,0.4-0.4,0.6c-0.2,0.2-0.4,0.3-0.6,0.4c-0.2,0.1-0.5,0.1-0.7,0.1c-0.3,0-0.5,0-0.7-0.1c-0.2-0.1-0.4-0.2-0.6-0.4
	c-0.2-0.2-0.3-0.4-0.4-0.6c-0.1-0.2-0.1-0.4-0.1-0.7v-10.2h-11.2c-0.5,0-0.9-0.2-1.3-0.5c-0.3-0.3-0.5-0.7-0.5-1.2
	c0-0.5,0.2-0.9,0.6-1.2c0.4-0.3,0.8-0.5,1.3-0.5h11.1v-10.2c0-0.5,0.2-0.9,0.5-1.2c0.7-0.6,1.9-0.6,2.6,0c0.3,0.3,0.5,0.7,0.5,1.2
	V148h11.2c0.2,0,0.5,0,0.7,0.1c0.2,0.1,0.4,0.2,0.6,0.4c0.2,0.2,0.3,0.3,0.4,0.6C167.2,149.3,167.2,149.5,167.2,149.7L167.2,149.7z"
	/>
</svg>
