<svg id="Layer_1" data-name="Layer 1" xmlns="http://www.w3.org/2000/svg" viewBox="0 0 375 127"><defs><style>.cls-1{fill:#666;}.cls-2{fill:#7c4dff;}</style></defs><path class="cls-1" d="M346.51,100.59a641.1,641.1,0,0,1-76.68,13.74,703.56,703.56,0,0,1-82.33,4.79,701.4,701.4,0,0,1-82.33-4.79,641.1,641.1,0,0,1-76.68-13.74Q14.14,97.13,0,92.86v.76Q14.09,99,28.49,103.45a520.19,520.19,0,0,0,76.68,17.46A556,556,0,0,0,187.5,127a556.17,556.17,0,0,0,82.33-6.09,520.48,520.48,0,0,0,76.68-17.46Q360.91,99,375,93.63v-.77Q360.86,97.1,346.51,100.59Z"/><path class="cls-2" d="M105.17,114.33a701.4,701.4,0,0,0,82.33,4.79,703.56,703.56,0,0,0,82.33-4.79,641.1,641.1,0,0,0,76.68-13.74q14.36-3.48,28.49-7.73V0H0V92.86q14.13,4.24,28.49,7.73A641.1,641.1,0,0,0,105.17,114.33Z"/></svg>