<?xml version="1.0" encoding="utf-8"?>
<!-- Generator: Adobe Illustrator 25.2.0, SVG Export Plug-In . SVG Version: 6.00 Build 0)  -->
<svg version="1.1" id="Layer_1" xmlns="http://www.w3.org/2000/svg" xmlns:xlink="http://www.w3.org/1999/xlink" x="0px" y="0px"
	 viewBox="0 0 2381.6 1789.3" style="enable-background:new 0 0 2381.6 1789.3;" xml:space="preserve">
<style type="text/css">
	.st0{fill:#56310F;}
	.st1{fill:#EAB498;}
	.st2{fill:#726ABA;}
	.st3{fill:#C6B6FF;}
	.st4{fill:#1A2E35;}
	.st5{fill:#666666;}
	.st6{fill:url(#SVGID_1_);}
	.st7{fill:#7C4DFF;}
	.st8{fill:#D68D5D;}
	.st9{fill:#9B8DE2;}
	.st10{fill:url(#SVGID_2_);}
	.st11{fill:#D8D8D8;}
	.st12{fill:#F3F9FF;}
	.st13{fill:#BDBDBD;}
	.st14{fill:#FFFFFF;}
	.st15{fill:#894943;}
</style>
<path class="st0" d="M717.3,1699.1c0,0,3,49.7,12.7,50.4c1.3,0.1,48.8,0.1,48.8,0.1l60.7-0.3c0,0-0.4-14.6-18.2-17.7
	s-47.4-15.6-58.2-38.9C751.9,1668,717.3,1699.1,717.3,1699.1z"/>
<path class="st1" d="M695.6,1119.2c0,0,26.4,6.7,43.2,1.7s45.7,3.3,50.3,9.3s2.9,8.6-5.3,10.7s-37.7,14.7-57.1,7.4
	s-44.6-7.5-44.6-7.5L695.6,1119.2z"/>
<path class="st2" d="M467.2,889.8c0,0,29.7,210.9,78.8,229.7c24.3,9.3,131.4,30.4,163.1,32.6c0,0,7.7-6.3,5.9-32
	c0,0-112.2-41.2-128.2-63.6c-23.7-33.4,14.8-136.2-15-167.5S491.8,844.2,467.2,889.8z"/>
<path class="st3" d="M471,1702.2v-46h-72.4c-2,0-3.6-1.6-3.6-3.6v-7.4c0-2,1.6-3.6,3.6-3.6H471v-261.5c0-7.4,6-13.4,13.3-13.4
	c0,0,0,0,0,0h14.4c7.4,0,13.4,6,13.4,13.3c0,0,0,0,0,0v261.7h72.4c2,0,3.6,1.6,3.6,3.6v7.4c0,2-1.6,3.6-3.6,3.6h-72.4v46
	c52.4,3.9,94.4,22.8,106.2,47.2H364.9C376.6,1725,418.6,1706.2,471,1702.2z"/>
<path class="st4" d="M477.2,1334c8.7,14.5,18.4,28.3,29,41.4c31.9,40.2,66.7,73.5,72.7,104.8c1.4,6.8,3.3,13.6,5.7,20.1
	c2.5,7.2,5.7,14.8,9.2,22.5c13.5,29.3,33.8,62.3,53.9,92.3c34.9,51.8,67.8,94.9,67.8,94.9l60.2-2.6c-2.4-6.1-28.7-77.5-63.8-164.8
	c-14.2-35.4-29.5-73.2-44-109.5c-2-4.9-3.9-9.7-5.9-14.5c-4.5-11.1-8.9-22.1-13.2-32.7c-33.1-82-59.3-147.3-59.3-147.3
	s-131.9-50-145.6-17.6C432.6,1247.8,441.7,1274,477.2,1334z"/>
<path class="st0" d="M577.9,1557.2c0,0-41.9,26.9-37.9,35.7c0.5,1.2,23.7,42.6,23.7,42.6l29.9,52.7c0,0,12.6-7.5,6.6-24.4
	s-9.6-48.9,5.7-69.7C622,1572.1,577.9,1557.2,577.9,1557.2z"/>
<path class="st4" d="M634.6,1214.9c0,0,165.6,103,184.1,172.4s-220.2,217.1-220.2,217.1s-26.2-23-30.8-40
	c0,0,107.9-129.3,131.4-158.2c14.4-17.8-212.6-61.6-240.4-104.7s-17.8-79.4-17.8-79.4L634.6,1214.9z"/>
<path class="st5" d="M322,1347.3h338.9c6.8,0,12.3,5.5,12.3,12.3v67.7c0,6.8-5.5,12.3-12.3,12.3H322c-6.8,0-12.3-5.5-12.3-12.3
	v-67.7C309.7,1352.8,315.2,1347.4,322,1347.3z"/>
<path class="st1" d="M558,853.6c9.7,6,18.3,13.7,25.2,22.8c-39.7,10.2-105.4-26.5-105.4-26.5s25.6-17.2,35-54.8
	c0.4-1.8,0.9-3.8,1.3-5.9c1.3-6.8,2-13.7,2.2-20.7l18.3,16.3L565,812c0,0-0.7,11.3-4.5,30.7C559.6,846.2,558.9,849.8,558,853.6z"/>
<linearGradient id="SVGID_1_" gradientUnits="userSpaceOnUse" x1="832.3813" y1="-400.4283" x2="668.4813" y2="-277.2083" gradientTransform="matrix(1 0 0 1 -234 1399.3199)">
	<stop  offset="2.024560e-07" style="stop-color:#7C4DFF"/>
	<stop  offset="1" style="stop-color:#9B8DE2"/>
</linearGradient>
<path class="st6" d="M436,1040.7c5.7,76.4-3.9,192.5,2.6,212.6c5.5,17.4,71,7.1,96.4,1.3c9.3-2.2,20.7-5.2,32.4-8.8
	c32.6-10.1,68.3-24.6,72.1-35.3c0.1-0.4,0.2-0.8,0.3-1.2c0.4-1.5,0.3-3-0.1-4.5c-1.3-5.4-6.2-11.4-6.7-24.9
	c-0.7-15.1-0.5-32.9-1.1-52.1c0-2.2-0.1-4.4-0.3-6.6v-2c-0.5-21.3-1.6-43.8-2.9-66c-0.9-14-1.7-27.8-2.8-41.1
	c-2.8-34.2-6.7-64.7-11.7-83.9c-8.3-31.3-26.7-51.9-43.3-66.9L558.7,851c-13.5,2.9-29.4,1-43.7-5.9c-15.5-7.4-21-12.7-23.7-10.7
	C455.1,862.2,429.2,947.3,436,1040.7z"/>
<path class="st7" d="M567.1,1246c32.6-10.1,68.3-24.6,72.1-35.3c0.1-0.4,0.3-0.8,0.3-1.2c0-1.5,0-3-0.1-4.5
	c-1.3-5.4-6.2-11.4-6.8-24.9c-0.7-15.1-0.5-32.9-1.1-52.1c0-2.2-0.1-4.5-0.3-6.6v-2l-123.4-56C507.9,1063.4,500.8,1162.8,567.1,1246
	z"/>
<path class="st8" d="M564.7,812.1c0,0-0.7,11.3-4.5,30.7c-29.6-9.6-43.1-36.3-47.5-47.6c-0.7-1.7-1.3-3.4-1.8-5.2
	c0,0,1.2-0.2,3.1-0.7c4.1-0.9,12-2.5,20.3-4.3L564.7,812.1z"/>
<path class="st1" d="M576.7,811.8c0,0-65,7.3-69-33.2s-15-66.9,26.3-73.3s50.9,8.3,55.6,21.5S593.6,808.9,576.7,811.8z"/>
<path class="st4" d="M508.1,781.4c0,0,4.1-53.8,63.3-59.4c40.6-3.8,18-38.7,13.6-44.2c0,0-31.1,4.2-62.9,9.6
	C455.2,698.3,501.4,773,508.1,781.4z"/>
<path class="st9" d="M822.6,1172l5.7,1.8l48.4-149l-5.7-1.8L822.6,1172z"/>
<path class="st9" d="M664,1170.3l164.4,3.5l0.2-9.8l-164.4-3.5L664,1170.3z"/>
<path class="st1" d="M681.9,1151.5c0,0,25.6,9.7,42.7,6.5s45,8.3,49,14.9s2,8.8-6.5,10s-39.1,10.4-57.5,1s-43.5-12.4-43.5-12.4
	L681.9,1151.5z"/>
<linearGradient id="SVGID_2_" gradientUnits="userSpaceOnUse" x1="772.4504" y1="-249.5808" x2="863.0305" y2="-450.9608" gradientTransform="matrix(1 0 0 1 -234 1399.3199)">
	<stop  offset="2.024560e-07" style="stop-color:#7C4DFF"/>
	<stop  offset="1" style="stop-color:#9B8DE2"/>
</linearGradient>
<path class="st10" d="M480.2,898.5c0,0,6.2,212.9,53,237c23.1,12,127.2,44.8,158.6,50.3c0,0,8.4-5.4,9.3-31.1
	c0,0-107-53.4-120.4-77.4c-19.9-35.8,29.7-133.8,3.5-168.2S509.7,855.8,480.2,898.5z"/>
<path class="st11" d="M1076.1,1406.8h848.3c59.2,0,107.2-48,107.2-107.2V140.3c0-59.2-48-107.2-107.2-107.2h-848.3
	c-59.2,0-107.2,48-107.2,107.2v1159.3C969,1358.8,1016.9,1406.7,1076.1,1406.8z"/>
<path class="st12" d="M1073.3,1267.7h855.6V177.1h-855.6V1267.7z"/>
<path class="st3" d="M1807.6,1219.8c-24.9,0-45.1-20.2-45.1-45.1V550.9c0.4-24.9,20.9-44.8,45.8-44.5c24.4,0.4,44.1,20.1,44.5,44.5
	v623.9C1852.7,1199.7,1832.5,1219.8,1807.6,1219.8z"/>
<path class="st7" d="M1659.7,1219.8c-24.9,0-45.1-20.2-45.1-45.1V351.8c0.4-24.9,20.9-44.8,45.8-44.5c24.4,0.4,44.1,20.1,44.5,44.5
	v822.9C1704.8,1199.6,1684.6,1219.8,1659.7,1219.8z"/>
<path class="st7" d="M1498.3,1219.8c-24.9,0-45.1-20.2-45.1-45.1V723.5c0.4-24.9,20.9-44.8,45.8-44.5c24.4,0.4,44.1,20.1,44.5,44.5
	v451.1C1543.4,1199.6,1523.2,1219.8,1498.3,1219.8z"/>
<path class="st3" d="M1341.3,1219.8c-24.9,0-45.1-20.2-45.1-45.1v-701c0.4-24.9,20.9-44.8,45.8-44.5c24.4,0.4,44.1,20.1,44.5,44.5
	v701C1386.4,1199.6,1366.2,1219.8,1341.3,1219.8z"/>
<path class="st7" d="M1228.6,829.5v345.2c0,24.9-20.2,45.1-45.1,45.1s-45.1-20.2-45.1-45.1V829.5c0-24.9,20.2-45.1,45.1-45.1
	S1228.6,804.6,1228.6,829.5z"/>
<path class="st5" d="M1300.4,372.7h76.4c4.4-0.2,8.1,3.3,8.2,7.7c0.2,4.4-3.3,8.1-7.7,8.2c-0.2,0-0.4,0-0.6,0h-76.4
	c-4.4,0.2-8.1-3.3-8.2-7.7c-0.2-4.4,3.3-8.1,7.7-8.2C1300,372.7,1300.2,372.7,1300.4,372.7z"/>
<path class="st5" d="M1359.4,401.4h17.4c4.4-0.2,8.1,3.3,8.2,7.7c0.2,4.4-3.3,8.1-7.7,8.2c-0.2,0-0.4,0-0.6,0h-17.4
	c-4.4,0.2-8.1-3.3-8.2-7.7c-0.2-4.4,3.3-8.1,7.7-8.2C1359.1,401.4,1359.2,401.4,1359.4,401.4z"/>
<path class="st5" d="M1615.4,251.4h76.4c4.4,0,7.9,3.6,7.9,7.9c0,4.4-3.6,7.9-7.9,7.9h-76.4c-4.4,0-7.9-3.6-7.9-7.9
	C1607.5,255,1611.1,251.4,1615.4,251.4z"/>
<path class="st5" d="M1674.5,280.1h17.4c4.4,0,7.9,3.6,7.9,7.9s-3.6,7.9-7.9,7.9h-17.4c-4.4,0-7.9-3.6-7.9-7.9
	S1670.1,280.1,1674.5,280.1z"/>
<path class="st5" d="M1768.3,450.2h76.5c4.4-0.2,8.1,3.3,8.2,7.7c0.2,4.4-3.3,8.1-7.7,8.2c-0.2,0-0.4,0-0.6,0h-76.5
	c-4.4,0.2-8.1-3.3-8.2-7.7c-0.2-4.4,3.3-8.1,7.7-8.2C1768,450.2,1768.2,450.2,1768.3,450.2z"/>
<path class="st5" d="M1827.4,479h17.4c4.4-0.2,8.1,3.3,8.2,7.7c0.2,4.4-3.3,8.1-7.7,8.2c-0.2,0-0.4,0-0.6,0h-17.4
	c-4.4,0.2-8.1-3.3-8.2-7.7c-0.2-4.4,3.3-8.1,7.7-8.2C1827,479,1827.2,479,1827.4,479z"/>
<path class="st5" d="M1460,623.1h76.5c4.4-0.2,8.1,3.3,8.2,7.7s-3.3,8.1-7.7,8.2c-0.2,0-0.4,0-0.6,0H1460c-4.4,0.2-8.1-3.3-8.2-7.7
	s3.3-8.1,7.7-8.2C1459.6,623.1,1459.8,623.1,1460,623.1z"/>
<path class="st5" d="M1519.1,651.8h17.4c4.4-0.2,8.1,3.3,8.2,7.7s-3.3,8.1-7.7,8.2c-0.2,0-0.4,0-0.6,0h-17.4c-4.4,0-7.9-3.6-7.9-7.9
	C1511.2,655.4,1514.7,651.9,1519.1,651.8z"/>
<path class="st5" d="M1145.2,728.7h76.5c4.4-0.2,8.1,3.3,8.2,7.7s-3.3,8.1-7.7,8.2c-0.2,0-0.4,0-0.6,0h-76.5
	c-4.4-0.2-7.8-3.8-7.7-8.2C1137.7,732.1,1141,728.8,1145.2,728.7z"/>
<path class="st5" d="M1204.2,757.5h17.4c4.4-0.2,8.1,3.3,8.2,7.7s-3.3,8.1-7.7,8.2c-0.2,0-0.4,0-0.6,0h-17.4
	c-4.4,0.2-8.1-3.3-8.2-7.7s3.3-8.1,7.7-8.2C1203.9,757.5,1204,757.5,1204.2,757.5z"/>
<path class="st5" d="M1183.5,706.3c-15.5,0-28-12.6-28-28.1s12.6-28,28.1-28c15.5,0,28,12.6,28,28.1c0,0,0,0,0,0
	C1211.4,693.7,1198.9,706.2,1183.5,706.3z M1183.5,660.9c-9.5,0-17.2,7.7-17.2,17.2s7.7,17.2,17.2,17.2c9.5,0,17.2-7.7,17.2-17.2
	C1200.6,668.6,1192.9,660.9,1183.5,660.9z"/>
<path class="st5" d="M1171.5,660.9c-1.4,0-2.8-0.6-3.8-1.6l-84.4-84.4h-686c-3-0.1-5.3-2.7-5.2-5.7c0.1-2.8,2.4-5.1,5.2-5.2h690.4
	l87.7,87.6c2.1,2.1,2.2,5.5,0.1,7.6c0,0-0.1,0.1-0.1,0.1C1174.3,660.4,1172.9,660.9,1171.5,660.9z"/>
<path class="st5" d="M1345,1298.4c-15.5,0-28-12.6-28-28.1c0-15.5,12.6-28,28.1-28c15.5,0,28,12.6,28,28
	C1373,1285.8,1360.5,1298.4,1345,1298.4z M1345,1253.1c-9.5,0-17.2,7.7-17.2,17.2s7.7,17.2,17.2,17.2c9.5,0,17.2-7.7,17.2-17.2
	C1362.2,1260.8,1354.5,1253.1,1345,1253.1L1345,1253.1z"/>
<path class="st5" d="M2120.3,1384.4h-679.5l-87.7-87.6c-2.1-2.2-2-5.6,0.2-7.7c2.1-2,5.4-2,7.6,0l84.4,84.4h675.1
	c3,0,5.4,2.4,5.4,5.3c0,0,0,0.1,0,0.1C2125.7,1381.9,2123.3,1384.3,2120.3,1384.4z"/>
<path class="st5" d="M1655.8,229.7c-15.5,0-28-12.6-28-28.1s12.6-28,28.1-28c15.5,0,28,12.6,28,28.1c0,0,0,0,0,0
	C1683.8,217.1,1671.3,229.6,1655.8,229.7z M1655.8,184.3c-9.5,0-17.2,7.7-17.2,17.2c0,9.5,7.7,17.2,17.2,17.2
	c9.5,0,17.2-7.7,17.2-17.2C1673,192,1665.3,184.3,1655.8,184.3z"/>
<path class="st5" d="M1643.8,184.3c-1.4,0-2.8-0.6-3.8-1.6l-84.5-84.4H869.6c-3,0.1-5.5-2.2-5.7-5.2c-0.1-3,2.2-5.5,5.2-5.7
	c0.2,0,0.3,0,0.5,0H1560l87.7,87.6c2.1,2.1,2.2,5.5,0.1,7.6c0,0-0.1,0.1-0.1,0.1C1646.6,183.8,1645.3,184.3,1643.8,184.3z"/>
<path class="st9" d="M855.7,551.5H405.1c-7.6,0-13.8-6.2-13.8-13.8c0-7.6,6.2-13.8,13.8-13.8c0,0,0,0,0,0h450.6
	c7.6,0,13.8,6.2,13.8,13.8C869.5,545.3,863.3,551.4,855.7,551.5z"/>
<path class="st9" d="M855.7,508H579.1c-7.6,0.2-14-5.8-14.2-13.4c-0.2-7.6,5.8-14,13.4-14.2c0.2,0,0.5,0,0.7,0h276.6
	c7.6,0.2,13.6,6.6,13.4,14.2C868.9,501.9,863,507.8,855.7,508z"/>
<path class="st9" d="M855.7,464.5H579.1c-7.6,0.2-14-5.8-14.2-13.4c-0.2-7.6,5.8-14,13.4-14.2c0.2,0,0.5,0,0.7,0h276.6
	c7.6,0.2,13.6,6.6,13.4,14.2C868.9,458.4,863,464.3,855.7,464.5L855.7,464.5z"/>
<path class="st7" d="M1324.8,72H874.3c-7.6,0.2-14-5.8-14.2-13.4c-0.2-7.6,5.8-14,13.4-14.2c0.2,0,0.5,0,0.7,0h450.6
	c7.6-0.2,14,5.8,14.2,13.4c0.2,7.6-5.8,14-13.4,14.2C1325.3,72,1325.1,72,1324.8,72z"/>
<path class="st13" d="M1727.7,1589.8c38.3-38.3,38.3-100.4,0-138.7s-100.4-38.3-138.7,0c-38.3,38.3-38.3,100.4,0,138.7
	c38.2,38.3,100.3,38.4,138.6,0.1C1727.6,1589.9,1727.7,1589.8,1727.7,1589.8z"/>
<path class="st14" d="M1658.4,1437.6c45.8,0,82.8,37.1,82.8,82.9c0,21.7-8.6,42.6-23.8,58.1l-59-58.2L1581,1550
	c-16.3-42.8,5.1-90.7,47.9-107C1638.3,1439.4,1648.3,1437.6,1658.4,1437.6L1658.4,1437.6z"/>
<path class="st7" d="M1670.6,1478.3h35.2c1.4,0,2.5,1.1,2.5,2.5s-1.1,2.5-2.5,2.5h-35.2c-1.4,0-2.5-1.1-2.5-2.5
	S1669.2,1478.3,1670.6,1478.3z"/>
<path class="st7" d="M1670.6,1486.4h35.2c1.4,0,2.5,1.1,2.5,2.5s-1.1,2.5-2.5,2.5h-35.2c-1.4,0-2.5-1.1-2.5-2.4c0,0,0-0.1,0-0.1
	c-0.1-1.3,1-2.4,2.3-2.5C1670.4,1486.4,1670.5,1486.4,1670.6,1486.4z"/>
<path class="st7" d="M1691.2,1494.3h14.6c1.4,0,2.5,1.1,2.5,2.5s-1.1,2.5-2.5,2.5h-14.6c-1.4,0-2.5-1.1-2.5-2.4c0,0,0,0,0-0.1
	C1688.8,1495.4,1689.9,1494.3,1691.2,1494.3z"/>
<path class="st13" d="M1572.6,1474.4l38.7-38.7h-38.7V1474.4z"/>
<path class="st13" d="M2026.9,1525.3c2.7-54.1-38.9-100.2-93.1-102.9c-54.1-2.7-100.2,38.9-102.9,93.1
	c-2.7,54.1,38.9,100.2,93.1,102.9c0,0,0,0,0,0C1978.2,1621.1,2024.2,1579.4,2026.9,1525.3
	C2026.9,1525.3,2026.9,1525.3,2026.9,1525.3z"/>
<path class="st14" d="M1846,1520.4c0-45.8,37.1-82.8,82.8-82.8c45.8,0,82.8,37.1,82.8,82.8c0,45.8-37.1,82.8-82.8,82.8
	c-18.1,0-35.8-6-50.2-17l50.2-65.9l-77.4,29.6C1847.8,1540.5,1846,1530.5,1846,1520.4z"/>
<path class="st7" d="M1941.7,1478.3h35.3c1.4,0,2.5,1.1,2.5,2.5s-1.1,2.5-2.5,2.5h-35.2c-1.4,0-2.5-1.1-2.5-2.4c0,0,0-0.1,0-0.1
	C1939.3,1479.5,1940.4,1478.4,1941.7,1478.3z"/>
<path class="st7" d="M1941.7,1486.4h35.3c1.4,0.1,2.4,1.3,2.3,2.7c-0.1,1.2-1.1,2.2-2.3,2.3h-35.2c-1.4-0.1-2.4-1.3-2.3-2.7
	C1939.6,1487.4,1940.6,1486.5,1941.7,1486.4L1941.7,1486.4z"/>
<path class="st7" d="M1962.5,1494.3h14.6c1.4,0,2.5,1.1,2.5,2.5s-1.1,2.5-2.5,2.5h-14.6c-1.4,0-2.5-1.1-2.5-2.5
	S1961.1,1494.3,1962.5,1494.3z"/>
<path class="st13" d="M1843.6,1474.4l38.8-38.7h-38.8V1474.4z"/>
<path class="st5" d="M2348.6,1752.9H81.4c-1.8-0.1-3.2-1.6-3.1-3.4c0.1-1.7,1.4-3,3.1-3.1h2267.2c1.8,0.1,3.2,1.6,3.1,3.4
	C2351.6,1751.5,2350.2,1752.8,2348.6,1752.9z"/>
<path class="st4" d="M591.5,764.3c-0.4-1.8-2.1-3-3.9-2.6c-1.8,0.3-3.1,2-2.8,3.8c0.3,1.8,2,3.1,3.8,2.8c0.1,0,0.2,0,0.4-0.1
	C590.6,767.8,591.8,766.1,591.5,764.3z"/>
<path class="st4" d="M591,752.6c-3.5-2-7.8-1.4-10.8,1.3c-0.8,0.3-1.3,1.1-1.3,2c0.8,0.2,2.9-2.3,6.4-2.4c2.3-0.3,4.6-0.2,6.8,0.3
	C592.4,753,592,752.6,591,752.6z"/>
<path class="st4" d="M559.4,767c-0.5-1.6-2.2-2.6-3.8-2.2c-1.7,0.4-2.9,2.1-2.6,3.9c0.4,1.8,2.1,3,3.9,2.6c1.8-0.4,3-2.1,2.6-3.9
	l0,0C559.4,767.3,559.4,767.2,559.4,767z"/>
<path class="st4" d="M555.2,755.4c-1.9-0.7-3.9-0.8-5.8-0.3c-1.9,0.5-3.6,1.5-5,2.8c-0.6,0.6-1,1.5-1,2.4c0.7,0.2,2.9-2.2,6.2-2.9
	s6.4,0.7,6.5-0.1S556,756,555.2,755.4z"/>
<path class="st4" d="M579.1,784.1c0.6,0.1,1.2,0,1.6-0.3c0.4-0.2,0.9-0.5,0.7-1c0.2-1.3-0.1-2.6-0.9-3.7c-0.8-2.3-1.8-4.6-3.2-6.6
	c-2.6-5.9-5.8-11.6-9.6-16.8c2.3,6.1,5,12,8.2,17.7l3.6,6.4c0.6,0.8,0.9,1.7,0.9,2.6c-0.2,0.7-0.7,1-1.8,1.1c-3.5,1.3-5.5,2-5.5,2
	C575.1,785,577.1,784.5,579.1,784.1z"/>
<path class="st4" d="M552.6,739.3c-2.1-0.6-4.4-0.5-6.5,0.1c-2.2,0.1-4.2,1.1-5.8,2.6c-1.1,1.3-2.1,1.7-1.5,2.7s4-0.5,8.2-1.6
	s7.6-1.3,7.9-2.1C554,740.6,553.2,740,552.6,739.3z"/>
<path class="st4" d="M587.5,737c-1.5-0.8-3.1-1.1-4.8-1c-1.8,0.3-3.4,1-4.8,2.2c-1.1,1.2-2.1,1.7-1.1,2.4s2.8-0.4,6.3-0.5
	s5.7,0.4,6.3-0.5C590,739.3,589.5,738.3,587.5,737z"/>
<path class="st4" d="M562.5,789.9c0.5,2.1,1.8,4,3.6,5.2c2.1,1,4.4,1.3,6.6,1.1c0.9,0.2,1.9-0.1,2.5-0.9c0.2-0.8-4.2,0-7.8-2.2
	c-2-1.7-3.7-3.9-4.8-6.3C562.2,787.8,562.1,788.9,562.5,789.9z"/>
<path class="st1" d="M516.1,794.2c-0.5,0.4-13,9.4-17.6-5.4s10.8-16.3,11.3-15.9S516.1,794.2,516.1,794.2z"/>
<path class="st15" d="M506.7,780.3h-1c-0.7-0.1-1.4,0.1-2.1,0.4c-1.6,0.9-1.7,3.8-1.4,6.3c0.3,1.3,1,2.5,1.9,3.6
	c1,1.1,2,1.6,2.5,1.1c0.6,0,1-0.4,1.1-1v-1c0,0,0.5,0,0.4,1.1v1c0,0.5-0.5,0.4-1.1,0.9s-2.6-0.5-3.6-1.6c-1.1-1-1.9-2.2-2.4-3.6
	c-1.1-2.6-0.3-5.6,2-7.3c1.1-0.4,2.2-0.9,2.6-0.3C505.9,780.1,506.3,780.2,506.7,780.3z"/>
</svg>
