<?xml version="1.0" encoding="utf-8"?>
<!-- Generator: Adobe Illustrator 25.2.0, SVG Export Plug-In . SVG Version: 6.00 Build 0)  -->
<svg version="1.1" id="Layer_1" xmlns="http://www.w3.org/2000/svg" xmlns:xlink="http://www.w3.org/1999/xlink" x="0px" y="0px"
	 viewBox="0 0 243.6 366.5" style="enable-background:new 0 0 243.6 366.5;" xml:space="preserve">
<style type="text/css">
	.st0{fill:url(#SVGID_1_);}
	.st1{fill:none;stroke:url(#SVGID_2_);stroke-width:0.86;}
	.st2{fill:none;stroke:#FFFFFF;stroke-width:2.67;stroke-linecap:round;stroke-linejoin:round;}
	.st3{fill-rule:evenodd;clip-rule:evenodd;fill:#FFFFFF;}
</style>
<linearGradient id="SVGID_1_" gradientUnits="userSpaceOnUse" x1="647.6806" y1="-448.7109" x2="1025.6106" y2="-194.0509" gradientTransform="matrix(0 1 -1 0 -215.28 -626.72)">
	<stop  offset="1.331947e-07" style="stop-color:#7C4DFF"/>
	<stop  offset="1" style="stop-color:#FFFFFF;stop-opacity:0"/>
</linearGradient>
<path class="st0" d="M33.5,4.8h180.9c11.9,0,21.5,9.6,21.5,21.5v314c0,11.9-9.6,21.5-21.5,21.5H33.5c-11.9,0-21.5-9.6-21.5-21.5
	v-314C12.1,14.5,21.7,4.8,33.5,4.8z"/>
<linearGradient id="SVGID_2_" gradientUnits="userSpaceOnUse" x1="633.42" y1="-444.8901" x2="990.4399" y2="-230.42" gradientTransform="matrix(0 1 -1 0 -215.28 -625.86)">
	<stop  offset="0" style="stop-color:#FFFFFF"/>
	<stop  offset="1" style="stop-color:#FFFFFF;stop-opacity:0.23"/>
</linearGradient>
<path class="st1" d="M33.5,5.3h181c11.6,0,21.1,9.4,21.1,21.1v314c0,11.6-9.4,21.1-21.1,21.1h-181c-11.6,0-21.1-9.4-21.1-21.1v-314
	C12.5,14.7,21.9,5.3,33.5,5.3z"/>
<path class="st2" d="M129.7,332.2c-4.5-5.4-4.5-13.3,0-18.8"/>
<path class="st2" d="M125,336.9c-7.1-8.1-7.1-20.1,0-28.2"/>
<path class="st2" d="M134.4,327.5c-2-2.8-2-6.5,0-9.3"/>
<path class="st2" d="M139.6,322.8L139.6,322.8"/>
<path class="st3" d="M180.3,311.5v22.7c0,4.4-3.7,8-8.1,8h-2.5v-10.3c0-0.7,0.3-1.4,0.8-1.9c1-1,2.7-1,3.7,0
	c0.5,0.5,0.8,1.2,0.8,1.9v3.5c0,0.3,0.2,0.5,0.5,0.5c0,0,0,0,0,0c0.3,0,0.5-0.3,0.5-0.5v-3.5c0-1-0.4-1.9-1.1-2.6l0,0
	c-1.5-1.4-3.8-1.4-5.3,0c-0.4,0.4-0.6,0.8-0.8,1.2h-8.8c-0.5-1.8-1.8-3.2-3.5-4c-2.3-0.9-4.9-0.6-6.9,0.9c-0.8,0.6-1.5,1.5-1.9,2.4
	v-14.2c0.4,0.9,1.1,1.8,1.9,2.4c1,0.8,2.1,1.2,3.4,1.4c1.2,0.2,2.4,0,3.6-0.5c1.7-0.7,3-2.2,3.5-4h8.8c0.2,0.5,0.5,0.9,0.8,1.2
	c1.5,1.5,3.8,1.5,5.3,0l0,0c0.7-0.7,1.1-1.6,1.1-2.6v-3.5c0-0.3-0.2-0.5-0.5-0.5c-0.3,0-0.5,0.2-0.5,0.5c0,0,0,0,0,0v3.5
	c0,0.7-0.3,1.4-0.8,1.9c-1,1-2.7,1-3.7,0c0,0,0,0,0,0c-0.5-0.5-0.8-1.2-0.8-1.9v-10.3h2.5C176.6,303.5,180.2,307,180.3,311.5
	L180.3,311.5z M154.8,341.6c-4.8-1-6.2-5.8-6.3-6c-0.9-3.5,0.1-6,1.8-7.3c0.8-0.6,1.8-1,2.8-1.2c1-0.1,2,0,3,0.4
	c2,0.9,3.3,2.9,3.1,5.1v9.1L154.8,341.6z M154.4,342.1L154.4,342.1z M159.3,303.9v9.1c0.1,2.2-1.1,4.2-3.1,5.1c-1,0.4-2,0.5-3,0.4
	c-1-0.1-2-0.5-2.8-1.2c-1.7-1.3-2.7-3.7-1.8-7.3c0.1-0.2,1.5-5,6.3-6L159.3,303.9z M168.6,331.6v10.2h-8.2v-10.2L168.6,331.6z
	 M168.6,313.8v-9.9h-8.2v10.2h8.2V313.8z"/>
</svg>
