<svg id="Layer_1" data-name="Layer 1" xmlns="http://www.w3.org/2000/svg" xmlns:xlink="http://www.w3.org/1999/xlink" viewBox="0 0 243.57 366.47"><defs><style>.cls-1{fill:url(#linear-gradient);}.cls-2,.cls-3{fill:none;}.cls-2{stroke-width:0.86px;stroke:url(#linear-gradient-2);}.cls-3{stroke:#fff;stroke-linecap:round;stroke-linejoin:round;stroke-width:2.67px;}.cls-4{fill:#fff;fill-rule:evenodd;}</style><linearGradient id="linear-gradient" x1="708.68" y1="753.71" x2="1086.61" y2="499.05" gradientTransform="matrix(0, 1, 1, 0, -520.28, -687.72)" gradientUnits="userSpaceOnUse"><stop offset="0" stop-color="#7C4DFF"/><stop offset="1" stop-color="#fff" stop-opacity="0"/></linearGradient><linearGradient id="linear-gradient-2" x1="694.42" y1="749.89" x2="1051.44" y2="535.42" gradientTransform="matrix(0, 1, 1, 0, -520.28, -686.86)" gradientUnits="userSpaceOnUse"><stop offset="0" stop-color="#fff"/><stop offset="1" stop-color="#fff" stop-opacity="0.23"/></linearGradient></defs><rect class="cls-1" x="12.05" y="4.83" width="223.93" height="357.02" rx="21.49"/><rect class="cls-2" x="12.48" y="5.26" width="223.07" height="356.16" rx="21.06"/><path class="cls-3" d="M129.71,332.17a14.67,14.67,0,0,1,0-18.78"/><path class="cls-3" d="M125,336.94a21.33,21.33,0,0,1,0-28.21"/><path class="cls-3" d="M134.45,327.46a8,8,0,0,1,0-9.27"/><path class="cls-3" d="M139.64,322.83h0"/><path class="cls-4" d="M180.26,311.5v22.67a8.09,8.09,0,0,1-8.1,8H169.7V331.91a2.59,2.59,0,0,1,.78-1.85,2.66,2.66,0,0,1,3.74,0,2.58,2.58,0,0,1,.79,1.85v3.52a.53.53,0,0,0,.54.55.55.55,0,0,0,.54-.55v-3.52a3.59,3.59,0,0,0-1.1-2.6v0a3.77,3.77,0,0,0-5.28,0,4,4,0,0,0-.83,1.24H160.1a6.06,6.06,0,0,0-3.53-3.95,7,7,0,0,0-6.91.93,6.3,6.3,0,0,0-1.87,2.39V315.76a6.34,6.34,0,0,0,1.87,2.4,6.85,6.85,0,0,0,3.36,1.38,7,7,0,0,0,3.55-.45,6,6,0,0,0,3.53-3.95h8.78a3.87,3.87,0,0,0,.83,1.23,3.74,3.74,0,0,0,5.28,0h0a3.67,3.67,0,0,0,1.1-2.62v-3.52a.54.54,0,0,0-.54-.53.52.52,0,0,0-.54.53v3.52a2.61,2.61,0,0,1-.79,1.86,2.63,2.63,0,0,1-3.74,0,2.56,2.56,0,0,1-.78-1.86V303.48h2.46a8.09,8.09,0,0,1,8.1,8Zm-25.47,30.14c-4.76-1-6.22-5.79-6.28-6-.85-3.54.15-6,1.83-7.27a5.86,5.86,0,0,1,2.82-1.16,6.13,6.13,0,0,1,3,.38,5.21,5.21,0,0,1,3.14,5.11v9.12Zm-.42.41h0Zm4.93-38.18V313a5.21,5.21,0,0,1-3.14,5.11,6,6,0,0,1-3,.38,5.76,5.76,0,0,1-2.82-1.16c-1.68-1.31-2.68-3.73-1.83-7.27.06-.23,1.52-5,6.28-6Zm9.32,27.74v10.24h-8.23V331.61Zm0-17.86v-9.92h-8.23v10.24h8.23Z"/></svg>