<?xml version="1.0" encoding="utf-8"?>
<!-- Generator: Adobe Illustrator 25.2.0, SVG Export Plug-In . SVG Version: 6.00 Build 0)  -->
<svg version="1.1" id="Layer_1" xmlns="http://www.w3.org/2000/svg" xmlns:xlink="http://www.w3.org/1999/xlink" x="0px" y="0px"
	 viewBox="0 0 203.9 209" style="enable-background:new 0 0 203.9 209;" xml:space="preserve">
<style type="text/css">
	.st0{fill:#E4E4E4;}
	.st1{fill:#7C4DFF;fill-opacity:0.2;}
	.st2{fill:#494949;}
	.st3{fill:#666666;}
	.st4{fill:#C6B6FF;}
	.st5{fill:#FFFFFF;stroke:#231F20;stroke-miterlimit:10;}
	.st6{fill:#D3D3D3;}
	.st7{fill:#FFFFFF;}
	.st8{fill:#F2F7FA;}
	.st9{fill:none;stroke:#707070;stroke-width:0.5;}
	.st10{fill:#C6B6FF;stroke:#494949;stroke-width:1.095;stroke-miterlimit:10;}
	.st11{opacity:0.75;}
	.st12{fill:#EFF8FF;}
</style>
<path class="st0" d="M103.6,178.6c42.2,0,76.4-34.1,76.4-76.1c0-42-34.2-76.1-76.4-76.1c-42.2,0-76.4,34.1-76.4,76.1
	C27.3,144.5,61.5,178.6,103.6,178.6z"/>
<path class="st1" d="M96.1,150.4c33.8,0,61.1-27.3,61.1-60.9c0-33.7-27.4-60.9-61.1-60.9C62.4,28.5,35,55.8,35,89.4
	C35,123.1,62.4,150.4,96.1,150.4z"/>
<path class="st2" d="M66,115.8c-0.1,0-0.2,0-0.3-0.1c-0.6-0.6-1.1-1.1-1.7-1.7c-0.1-0.1-0.1-0.2-0.1-0.3c0-0.1,0.1-0.2,0.2-0.3
	c0.1-0.1,0.2-0.1,0.3-0.1c0.1,0,0.2,0,0.3,0.1c0.5,0.6,1.1,1.1,1.7,1.7c0.1,0.1,0.1,0.2,0.1,0.2s0,0.2,0,0.3c0,0.1-0.1,0.2-0.2,0.2
	C66.1,115.8,66.1,115.8,66,115.8L66,115.8z"/>
<path class="st2" d="M61.2,110.6c-0.1,0-0.1,0-0.2,0c-0.1,0-0.1-0.1-0.2-0.1c-1-1.2-1.9-2.5-2.7-3.9c0,0-0.1-0.1-0.1-0.2
	c0-0.1,0-0.1,0-0.2c0-0.1,0-0.1,0.1-0.2c0-0.1,0.1-0.1,0.1-0.1c0,0,0.1-0.1,0.2-0.1c0.1,0,0.1,0,0.2,0s0.1,0,0.2,0.1
	c0.1,0,0.1,0.1,0.1,0.1c0,0,0,0.1,0.1,0.1c0.8,1.3,1.7,2.6,2.7,3.8c0.1,0.1,0.1,0.2,0.1,0.4c0,0.1-0.1,0.2-0.2,0.3
	C61.4,110.5,61.3,110.6,61.2,110.6L61.2,110.6z M145.6,108c-0.1,0-0.2,0-0.2-0.1c-0.1,0-0.1-0.1-0.2-0.2c0-0.1-0.1-0.2-0.1-0.2
	c0-0.1,0-0.2,0.1-0.2c0.9-1.3,1.7-2.6,2.5-3.9c0-0.1,0.1-0.1,0.1-0.2c0,0,0.1-0.1,0.2-0.1c0.1,0,0.1,0,0.2,0c0.1,0,0.1,0,0.2,0
	c0.1,0,0.1,0.1,0.2,0.1c0,0,0.1,0.1,0.1,0.2c0,0.1,0,0.1,0,0.2c0,0.1,0,0.1,0,0.2c0,0,0,0.1,0,0.1c-0.8,1.4-1.6,2.7-2.5,4
	c0,0.1-0.1,0.1-0.2,0.2C145.8,108,145.7,108,145.6,108L145.6,108z M56.1,102.7c-0.1,0-0.2,0-0.2-0.1c-0.1,0-0.1-0.1-0.2-0.2
	c-0.7-1.4-1.4-2.8-2-4.3c0-0.1-0.1-0.1-0.1-0.2c0-0.1,0-0.1,0-0.2c0-0.1,0.1-0.1,0.1-0.2s0.1-0.1,0.2-0.1c0.1,0,0.1,0,0.2,0
	c0.1,0,0.1,0,0.2,0c0.1,0,0.1,0.1,0.2,0.1c0,0.1,0.1,0.1,0.1,0.2c0.6,1.4,1.3,2.8,2,4.2c0,0.1,0.1,0.2,0.1,0.2c0,0.1,0,0.2-0.1,0.2
	c0,0.1-0.1,0.1-0.2,0.2C56.3,102.7,56.2,102.7,56.1,102.7z M150.2,99.9c-0.1,0-0.2,0-0.2-0.1c-0.1,0-0.1-0.1-0.2-0.2
	c0-0.1-0.1-0.1-0.1-0.2c0-0.1,0-0.2,0-0.2c0.6-1.4,1.2-2.9,1.7-4.3c0-0.1,0-0.1,0.1-0.2c0-0.1,0.1-0.1,0.1-0.1
	c0.1,0,0.1-0.1,0.2-0.1c0.1,0,0.1,0,0.2,0c0.1,0,0.1,0,0.2,0.1c0.1,0,0.1,0.1,0.1,0.1c0,0.1,0.1,0.1,0.1,0.2c0,0.1,0,0.1,0,0.2
	c0,0,0,0.1,0,0.1c-0.5,1.5-1.1,3-1.7,4.4c0,0.1-0.1,0.2-0.2,0.2C150.4,99.8,150.3,99.9,150.2,99.9L150.2,99.9z M52.6,94
	c-0.1,0-0.2,0-0.3-0.1c-0.1-0.1-0.1-0.1-0.2-0.2c-0.5-1.5-0.9-3-1.2-4.6c0-0.1,0-0.2,0.1-0.3c0.1-0.1,0.2-0.2,0.3-0.2
	c0.1,0,0.2,0,0.3,0.1c0.1,0.1,0.2,0.2,0.2,0.3c0.3,1.5,0.7,3,1.2,4.5c0,0.1,0,0.3,0,0.4c-0.1,0.1-0.2,0.2-0.3,0.2
	C52.6,94,52.6,94,52.6,94L52.6,94z M153.3,91c0,0-0.1,0-0.1,0c-0.1,0-0.2-0.1-0.3-0.2c-0.1-0.1-0.1-0.2-0.1-0.4
	c0.4-1.5,0.7-3,0.9-4.6c0-0.1,0.1-0.2,0.2-0.3s0.2-0.1,0.3-0.1c0.1,0,0.2,0.1,0.3,0.2c0.1,0.1,0.1,0.2,0.1,0.3
	c-0.2,1.6-0.6,3.1-0.9,4.6c0,0.1-0.1,0.2-0.2,0.3C153.5,91,153.4,91,153.3,91L153.3,91z M50.6,84.9c-0.1,0-0.2,0-0.3-0.1
	s-0.1-0.2-0.2-0.3c-0.2-1.6-0.3-3.1-0.4-4.7c0-0.1,0-0.2,0.1-0.3c0.1-0.1,0.2-0.1,0.3-0.2c0.1,0,0.1,0,0.2,0c0.1,0,0.1,0,0.2,0.1
	c0,0,0.1,0.1,0.1,0.1c0,0.1,0,0.1,0.1,0.2c0,0,0,0,0,0.1c0.1,1.5,0.2,3.1,0.4,4.6c0,0.1,0,0.3-0.1,0.4
	C50.9,84.8,50.8,84.9,50.6,84.9C50.6,84.9,50.6,84.9,50.6,84.9L50.6,84.9z M154.7,81.8L154.7,81.8c-0.2,0-0.3-0.1-0.4-0.2
	c-0.1-0.1-0.1-0.2-0.1-0.3c0.1-1.1,0.1-2.1,0.1-3.2c0-0.5,0-1,0-1.4c0-0.1,0-0.2,0.1-0.3c0.1-0.1,0.2-0.1,0.3-0.1h0
	c0.1,0,0.2,0,0.3,0.1c0.1,0.1,0.1,0.2,0.1,0.3c0,0.5,0,1,0,1.5c0,1.1,0,2.2-0.1,3.3c0,0.1-0.1,0.2-0.2,0.3
	C154.9,81.7,154.8,81.8,154.7,81.8L154.7,81.8z M50.3,75.5L50.3,75.5c-0.2,0-0.3-0.1-0.4-0.2s-0.1-0.2-0.1-0.3
	c0.1-1.6,0.2-3.2,0.5-4.7c0-0.1,0.1-0.2,0.2-0.3c0.1-0.1,0.2-0.1,0.3-0.1c0.1,0,0.2,0.1,0.3,0.2c0.1,0.1,0.1,0.2,0.1,0.3
	c0,0,0,0.1,0,0.1c-0.2,1.5-0.4,3.1-0.5,4.6c0,0.1-0.1,0.2-0.2,0.3C50.5,75.5,50.4,75.5,50.3,75.5L50.3,75.5z M154.4,72.4
	c-0.1,0-0.2,0-0.3-0.1c-0.1-0.1-0.1-0.2-0.2-0.3c-0.2-1.5-0.4-3.1-0.7-4.6c0-0.1,0-0.3,0-0.4c0.1-0.1,0.2-0.2,0.3-0.2
	c0.1,0,0.3,0,0.4,0c0.1,0.1,0.2,0.2,0.2,0.3c0,0,0,0.1,0,0.1c0.3,1.5,0.6,3.1,0.8,4.7c0,0.1,0,0.3-0.1,0.4
	C154.7,72.3,154.6,72.4,154.4,72.4L154.4,72.4L154.4,72.4z M51.7,66.3c-0.1,0-0.1,0-0.2,0c-0.1,0-0.1-0.1-0.2-0.1
	c0,0-0.1-0.1-0.1-0.2c0-0.1,0-0.1,0-0.2c0,0,0-0.1,0-0.1c0.4-1.5,0.8-3,1.3-4.5c0-0.1,0.1-0.2,0.2-0.2s0.2-0.1,0.3,0
	c0.1,0,0.2,0.1,0.3,0.2c0.1,0.1,0.1,0.2,0,0.3c-0.5,1.5-0.9,3-1.3,4.5c0,0.1-0.1,0.2-0.2,0.3C51.9,66.2,51.8,66.3,51.7,66.3
	L51.7,66.3z M152.5,63.2c-0.1,0-0.2,0-0.3-0.1c-0.1-0.1-0.1-0.1-0.2-0.2c-0.5-1.5-1-2.9-1.6-4.4c0-0.1,0-0.2,0-0.3
	c0.1-0.1,0.1-0.2,0.3-0.2c0.1,0,0.2,0,0.3,0c0.1,0,0.2,0.1,0.3,0.2c0.6,1.5,1.1,2.9,1.6,4.5c0,0.1,0,0.1,0,0.2c0,0.1,0,0.1-0.1,0.2
	c0,0.1-0.1,0.1-0.2,0.1C152.7,63.2,152.6,63.2,152.5,63.2L152.5,63.2z M54.7,57.4c-0.1,0-0.1,0-0.2,0c-0.1-0.1-0.2-0.1-0.3-0.3
	c0-0.1,0-0.2,0-0.4c0.6-1.4,1.4-2.9,2.1-4.2c0.1-0.1,0.2-0.2,0.3-0.2c0.1,0,0.2,0,0.3,0c0.1,0.1,0.2,0.2,0.2,0.3c0,0.1,0,0.2,0,0.3
	c-0.8,1.3-1.5,2.7-2.1,4.2c0,0.1-0.1,0.2-0.2,0.2C54.8,57.4,54.8,57.4,54.7,57.4L54.7,57.4z M149,54.6c-0.1,0-0.2,0-0.2-0.1
	c-0.1,0-0.1-0.1-0.2-0.2c-0.7-1.4-1.5-2.7-2.3-4c-0.1-0.1-0.1-0.2,0-0.3c0-0.1,0.1-0.2,0.2-0.3c0.1-0.1,0.2-0.1,0.3-0.1
	c0.1,0,0.2,0.1,0.3,0.2c0.8,1.3,1.6,2.7,2.4,4.1c0,0.1,0.1,0.2,0.1,0.2c0,0.1,0,0.2-0.1,0.2c0,0.1-0.1,0.1-0.2,0.2
	C149.1,54.6,149,54.6,149,54.6z M59.2,49.2c-0.1,0-0.2,0-0.2-0.1c-0.1,0-0.1-0.1-0.2-0.2c0-0.1-0.1-0.2-0.1-0.2c0-0.1,0-0.2,0.1-0.2
	c0.9-1.3,1.8-2.6,2.8-3.8c0-0.1,0.1-0.1,0.1-0.1c0.1,0,0.1-0.1,0.2-0.1c0.1,0,0.1,0,0.2,0c0.1,0,0.1,0,0.2,0.1
	c0.1,0,0.1,0.1,0.1,0.1c0,0.1,0.1,0.1,0.1,0.2c0,0.1,0,0.1,0,0.2c0,0.1,0,0.1-0.1,0.2c0,0,0,0.1-0.1,0.1c-1,1.2-1.9,2.4-2.8,3.7
	c0,0.1-0.1,0.1-0.2,0.2C59.4,49.2,59.3,49.2,59.2,49.2L59.2,49.2z M143.9,46.7c-0.1,0-0.1,0-0.2,0c-0.1,0-0.1-0.1-0.2-0.1
	c-0.9-1.2-2-2.4-3-3.5c-0.1-0.1-0.1-0.2-0.1-0.3c0-0.1,0.1-0.2,0.2-0.3c0.1-0.1,0.2-0.1,0.3-0.1c0.1,0,0.2,0,0.3,0.1
	c1.1,1.2,2.1,2.4,3.1,3.6c0.1,0.1,0.1,0.2,0.1,0.2c0,0.1,0,0.2,0,0.3c0,0.1-0.1,0.1-0.2,0.2C144.1,46.7,144,46.7,143.9,46.7z
	 M65.2,42c-0.1,0-0.2,0-0.3-0.1c-0.1-0.1-0.1-0.1-0.2-0.2c0-0.1,0-0.2,0-0.3c0-0.1,0.1-0.2,0.1-0.2c1.1-1.1,2.3-2.2,3.5-3.2
	c0.1-0.1,0.2-0.1,0.3-0.1c0.1,0,0.2,0.1,0.3,0.2c0.1,0.1,0.1,0.2,0.1,0.3c0,0.1-0.1,0.2-0.1,0.3c-1.2,1-2.3,2.1-3.4,3.2
	C65.4,42,65.3,42,65.2,42L65.2,42z M137.5,39.8c-0.1,0-0.2,0-0.3-0.1c-1.2-1-2.4-2-3.6-3c-0.1-0.1-0.1-0.2-0.2-0.3s0-0.2,0.1-0.3
	c0.1-0.1,0.2-0.2,0.3-0.2c0.1,0,0.2,0,0.3,0.1c1.3,0.9,2.5,2,3.7,3c0.1,0.1,0.1,0.1,0.1,0.2c0,0.1,0,0.2,0,0.3
	c0,0.1-0.1,0.2-0.2,0.2C137.7,39.8,137.6,39.8,137.5,39.8z M72.3,35.9c-0.1,0-0.2,0-0.3-0.1c-0.1-0.1-0.1-0.1-0.2-0.2
	c0-0.1,0-0.2,0-0.3c0-0.1,0.1-0.2,0.2-0.2c1.3-0.9,2.6-1.8,4-2.6c0.1-0.1,0.2-0.1,0.4-0.1s0.2,0.1,0.3,0.2c0.1,0.1,0.1,0.2,0.1,0.4
	c0,0.1-0.1,0.2-0.2,0.3c0,0-0.1,0-0.1,0c-1.3,0.8-2.7,1.6-3.9,2.5C72.5,35.9,72.4,35.9,72.3,35.9L72.3,35.9z M130,34.2
	c-0.1,0-0.2,0-0.3-0.1c-1.3-0.8-2.7-1.6-4.1-2.3c-0.1,0-0.1-0.1-0.2-0.1c0,0-0.1-0.1-0.1-0.2c0-0.1,0-0.1,0-0.2c0-0.1,0-0.1,0-0.2
	c0-0.1,0.1-0.1,0.1-0.2c0,0,0.1-0.1,0.2-0.1c0.1,0,0.1,0,0.2,0c0.1,0,0.1,0,0.2,0c0,0,0.1,0,0.1,0c1.4,0.7,2.8,1.5,4.1,2.3
	c0.1,0.1,0.2,0.1,0.2,0.2c0,0.1,0,0.2,0,0.3c0,0.1-0.1,0.2-0.2,0.2S130.1,34.2,130,34.2L130,34.2z M80.5,31.2c-0.1,0-0.2,0-0.3-0.1
	C80.1,31.1,80,31,80,30.9c0-0.1,0-0.2,0-0.3c0-0.1,0.1-0.2,0.2-0.2c1.4-0.7,2.9-1.3,4.4-1.8c0.1,0,0.2,0,0.3,0
	c0.1,0.1,0.2,0.1,0.2,0.3c0,0.1,0,0.2,0,0.3c0,0.1-0.1,0.2-0.2,0.2c-1.5,0.5-2.9,1.1-4.3,1.8C80.6,31.2,80.5,31.2,80.5,31.2
	L80.5,31.2z M121.6,30c-0.1,0-0.1,0-0.2,0c-1.4-0.6-2.9-1.1-4.4-1.5c-0.1,0-0.2-0.1-0.3-0.2c-0.1-0.1-0.1-0.2,0-0.3
	c0-0.1,0.1-0.2,0.2-0.3c0.1-0.1,0.2-0.1,0.3-0.1c1.5,0.4,3,1,4.5,1.5c0.1,0,0.2,0.1,0.2,0.2s0.1,0.2,0,0.3c0,0.1-0.1,0.2-0.2,0.3
	C121.8,30,121.7,30,121.6,30z M89.3,28.1c-0.1,0-0.2,0-0.3-0.1c-0.1-0.1-0.1-0.2-0.2-0.3c0-0.1,0-0.2,0.1-0.3
	c0.1-0.1,0.2-0.2,0.3-0.2c1.5-0.4,3.1-0.7,4.6-1c0.1,0,0.3,0,0.4,0c0.1,0.1,0.2,0.2,0.2,0.3c0,0.1,0,0.3,0,0.4
	c-0.1,0.1-0.2,0.2-0.3,0.2c0,0-0.1,0-0.1,0c-1.5,0.3-3.1,0.6-4.6,1C89.4,28.1,89.3,28.1,89.3,28.1L89.3,28.1z M112.6,27.4
	C112.6,27.4,112.5,27.4,112.6,27.4c-1.6-0.3-3.2-0.5-4.7-0.7c-0.1,0-0.2-0.1-0.3-0.2c-0.1-0.1-0.1-0.2-0.1-0.3
	c0-0.1,0.1-0.2,0.2-0.3c0.1-0.1,0.2-0.1,0.3-0.1c1.6,0.2,3.1,0.4,4.7,0.7c0.1,0,0.2,0.1,0.3,0.2c0.1,0.1,0.1,0.2,0.1,0.3
	c0,0.1-0.1,0.2-0.1,0.3S112.7,27.4,112.6,27.4L112.6,27.4z M98.6,26.6c-0.1,0-0.2-0.1-0.3-0.1c-0.1-0.1-0.1-0.2-0.1-0.3
	c0-0.1,0-0.2,0.1-0.3c0.1-0.1,0.2-0.2,0.3-0.2c1.6-0.1,3.2-0.2,4.7-0.1c0.1,0,0.2,0.1,0.3,0.2c0.1,0.1,0.1,0.2,0.1,0.3
	c0,0.1,0,0.2-0.1,0.3c-0.1,0.1-0.2,0.1-0.3,0.2h0C101.7,26.4,100.1,26.4,98.6,26.6L98.6,26.6z"/>
<path class="st2" d="M141.1,113.7c-0.1,0-0.2,0-0.3-0.1c-0.1-0.1-0.1-0.1-0.2-0.2s0-0.2,0-0.3c0-0.1,0.1-0.2,0.1-0.2
	c0.5-0.6,1.1-1.2,1.6-1.8c0-0.1,0.1-0.1,0.1-0.1c0.1,0,0.1-0.1,0.2-0.1c0.1,0,0.1,0,0.2,0c0.1,0,0.1,0,0.2,0.1
	c0.1,0,0.1,0.1,0.1,0.1c0,0.1,0.1,0.1,0.1,0.2c0,0.1,0,0.1,0,0.2s0,0.1-0.1,0.2c0,0,0,0.1-0.1,0.1c-0.5,0.6-1,1.2-1.6,1.8
	c0,0-0.1,0.1-0.2,0.1C141.3,113.7,141.2,113.7,141.1,113.7z"/>
<path class="st3" d="M75,25.3c-0.1,0-0.2-0.1-0.3-0.1c-0.1-0.1-0.1-0.2-0.1-0.3c0-1.2-0.5-2.3-1.3-3.1c-0.8-0.8-1.9-1.3-3.1-1.3h0
	c-0.1,0-0.3,0-0.4-0.1c-0.1-0.1-0.2-0.2-0.2-0.3c0-0.1,0-0.3,0.1-0.4c0.1-0.1,0.2-0.2,0.3-0.2c0,0,0.1,0,0.1,0
	c1.2,0,2.3-0.5,3.1-1.3c0.8-0.8,1.3-1.9,1.3-3.1c0-0.1,0-0.3,0.1-0.4c0.1-0.1,0.2-0.2,0.3-0.2c0.1,0,0.3,0,0.4,0.1
	c0.1,0.1,0.2,0.2,0.2,0.3c0,0,0,0.1,0,0.1c0,0.6,0.1,1.1,0.3,1.7s0.5,1,1,1.4c0.4,0.4,0.9,0.7,1.4,0.9c0.5,0.2,1.1,0.3,1.7,0.3
	c0.1,0,0.2,0.1,0.3,0.2c0.1,0.1,0.1,0.2,0.1,0.3c0,0.1,0,0.2-0.1,0.3c-0.1,0.1-0.2,0.1-0.3,0.2c-0.6,0-1.1,0.1-1.7,0.3
	c-0.5,0.2-1,0.5-1.4,0.9c-0.4,0.4-0.7,0.9-1,1.4c-0.2,0.5-0.3,1.1-0.3,1.7c0,0.1-0.1,0.2-0.1,0.3C75.2,25.2,75.1,25.3,75,25.3z
	 M72.3,19.9c0,0.4,0.1,0.7,0.2,1c0.1,0.3,0.3,0.6,0.6,0.9c0.2,0.3,0.5,0.5,0.9,0.6c0.3,0.1,0.7,0.2,1,0.2c0.4,0,0.7-0.1,1-0.2
	c0.3-0.1,0.6-0.3,0.9-0.6c0.2-0.3,0.4-0.5,0.6-0.9c0.1-0.3,0.2-0.7,0.2-1c0-0.4-0.1-0.7-0.2-1c-0.1-0.3-0.3-0.6-0.6-0.9
	c-0.2-0.3-0.5-0.4-0.9-0.6c-0.3-0.1-0.7-0.2-1-0.2c-0.4,0-0.7,0.1-1,0.2c-0.3,0.1-0.6,0.3-0.9,0.6c-0.2,0.3-0.4,0.5-0.6,0.9
	C72.4,19.2,72.3,19.6,72.3,19.9z"/>
<path class="st4" d="M56.7,27.7v-0.5V27.7L56.7,27.7z M56.7,27.7c-0.3,0-0.7,0-1-0.1l0.2-0.9c0.2,0.1,0.5,0.1,0.8,0.1L56.7,27.7z
	 M57.7,27.6l-0.2-0.9c0.3-0.1,0.5-0.2,0.7-0.3l0.5,0.8C58.4,27.4,58.1,27.5,57.7,27.6L57.7,27.6z M54.8,27.2
	c-0.3-0.2-0.6-0.4-0.8-0.6l0.7-0.7c0.2,0.2,0.4,0.3,0.6,0.5L54.8,27.2z M59.5,26.6l-0.7-0.7c0.2-0.2,0.3-0.4,0.5-0.6l0.8,0.5
	C59.9,26.1,59.7,26.3,59.5,26.6L59.5,26.6z M53.3,25.8c-0.2-0.3-0.3-0.6-0.4-0.9l0.9-0.2c0.1,0.3,0.2,0.5,0.3,0.7L53.3,25.8z
	 M60.5,24.8l-0.9-0.2c0.1-0.3,0.1-0.5,0.1-0.8l0.9,0v0C60.6,24.2,60.6,24.5,60.5,24.8L60.5,24.8z M52.8,23.8L52.8,23.8
	c0-0.4,0-0.7,0.1-1l0.9,0.2c-0.1,0.2-0.1,0.5-0.1,0.8L52.8,23.8z M59.6,23c-0.1-0.2-0.2-0.5-0.3-0.7l0.8-0.5
	c0.2,0.3,0.3,0.6,0.4,0.9L59.6,23z M54.1,22.3l-0.8-0.5c0.2-0.3,0.4-0.6,0.6-0.8l0.7,0.6C54.4,21.9,54.3,22.1,54.1,22.3L54.1,22.3z
	 M58.8,21.7c-0.2-0.2-0.4-0.3-0.6-0.5l0.5-0.8c0.3,0.2,0.6,0.4,0.8,0.6L58.8,21.7z M55.2,21.3l-0.5-0.8c0.3-0.2,0.6-0.3,0.9-0.4
	l0.2,0.9C55.7,21,55.4,21.1,55.2,21.3L55.2,21.3z M57.5,20.9c-0.2-0.1-0.5-0.1-0.7-0.1l0-0.9h0c0.3,0,0.7,0,1,0.1L57.5,20.9z"/>
<path class="st3" d="M51.9,37.1c-0.1,0-0.2,0-0.3-0.1c-0.1-0.1-0.1-0.1-0.2-0.2c0-0.1,0-0.2,0-0.3c0-0.1,0.1-0.2,0.1-0.2l1.3-1.3
	c0.1-0.1,0.2-0.1,0.3-0.1c0.1,0,0.2,0.1,0.3,0.1c0.1,0.1,0.1,0.2,0.1,0.3c0,0.1,0,0.2-0.1,0.3l-1.3,1.3C52.2,37,52,37.1,51.9,37.1z"
	/>
<path class="st3" d="M50.2,37.1c-0.1,0-0.2,0-0.3-0.1l-1.3-1.3c-0.1-0.1-0.1-0.2-0.1-0.3c0-0.1,0.1-0.2,0.1-0.3
	c0.1-0.1,0.2-0.1,0.3-0.1c0.1,0,0.2,0,0.3,0.1l1.3,1.3c0.1,0.1,0.1,0.2,0.1,0.2c0,0.1,0,0.2,0,0.3S50.5,37,50.4,37
	C50.3,37.1,50.3,37.1,50.2,37.1L50.2,37.1z"/>
<path class="st3" d="M48.9,40.1c-0.1,0-0.2,0-0.3-0.1c-0.1-0.1-0.1-0.1-0.2-0.2c0-0.1,0-0.2,0-0.3c0-0.1,0.1-0.2,0.1-0.2l1.3-1.3
	c0.1-0.1,0.2-0.1,0.3-0.1c0.1,0,0.2,0.1,0.3,0.1c0.1,0.1,0.1,0.2,0.1,0.3c0,0.1,0,0.2-0.1,0.3L49.3,40C49.2,40.1,49,40.1,48.9,40.1z
	"/>
<path class="st3" d="M53.2,40.1c-0.1,0-0.2,0-0.3-0.1l-1.3-1.3c-0.1-0.1-0.1-0.2-0.1-0.3c0-0.1,0.1-0.2,0.1-0.3
	c0.1-0.1,0.2-0.1,0.3-0.1s0.2,0,0.3,0.1l1.3,1.3c0.1,0.1,0.1,0.2,0.1,0.2c0,0.1,0,0.2,0,0.3c0,0.1-0.1,0.2-0.2,0.2
	C53.4,40.1,53.3,40.1,53.2,40.1L53.2,40.1z"/>
<path class="st5" d="M65.7,93.8c3.2-4.4,11.8-18.3,11.8-18.3c1.3-1.2,4.3-3.2,6.8-1.2c2.5,2-0.1,8.1-0.1,8.1
	c1.6-1.8,6.6-8.4,9.9-4.8c2.4,2.5,0.2,5.5,0.2,5.5c0.6-0.5,1.3-0.7,2.1-0.7c0.7,0,1.5,0.3,2,0.9c2.5,2.2-0.3,6.1-0.3,6.1l-1.6,2.6
	c0,0,1.7-1.3,3.6,0.8c1.8,1.9-0.7,5.2-0.7,5.2l-9.4,14.8c0,5,0,6.8,0,10.8c0,9.9-5.3,11.2-5.3,11.2v16.2l-22.7,0.1v-44.4
	C61.9,106.5,61.4,99.6,65.7,93.8z"/>
<path class="st6" d="M79.1,121.4V52c0-6.1,4.7-11,10.5-11h26.1c5.8,0,10.5,4.9,10.5,11v69.4c0,6.1-4.7,11-10.5,11H89.6
	C83.8,132.4,79.1,127.5,79.1,121.4z"/>
<path class="st7" d="M115.7,41H89.6c-5.8,0-10.5,4.9-10.5,11v0.7c0-6.1,4.7-11,10.5-11h26.1c5.8,0,10.5,4.9,10.5,11V52
	C126.2,45.9,121.5,41,115.7,41z"/>
<path class="st8" d="M82.6,54.9v67.4c0,0.5,0.2,0.9,0.5,1.2c0.3,0.3,0.7,0.5,1.2,0.5h36.8c0.5,0,0.9-0.2,1.2-0.5
	c0.3-0.3,0.5-0.8,0.5-1.2V54.9c0-0.5-0.2-0.9-0.5-1.2c-0.3-0.3-0.7-0.5-1.2-0.5H84.3c-0.5,0-0.9,0.2-1.2,0.5
	C82.8,54,82.6,54.5,82.6,54.9z"/>
<path class="st4" d="M121.1,124.5H84.3c-0.6,0-1.1-0.3-1.5-0.7c-0.4-0.4-0.6-0.9-0.6-1.5V54.9c0-0.6,0.2-1.1,0.6-1.5
	c0.4-0.4,0.9-0.6,1.5-0.7h36.8c0.6,0,1.1,0.3,1.5,0.7c0.4,0.4,0.6,0.9,0.6,1.5v67.4c0,0.6-0.2,1.1-0.6,1.5
	C122.2,124.2,121.6,124.5,121.1,124.5z M84.3,53.6c-0.3,0-0.7,0.2-0.9,0.4c-0.2,0.2-0.4,0.6-0.4,0.9v67.4c0,0.3,0.1,0.7,0.4,0.9
	c0.2,0.2,0.6,0.4,0.9,0.4h36.8c0.3,0,0.7-0.2,0.9-0.4c0.2-0.2,0.4-0.6,0.4-0.9V54.9c0-0.3-0.1-0.7-0.4-0.9c-0.2-0.2-0.6-0.4-0.9-0.4
	H84.3z"/>
<path class="st7" d="M115.7,132.8H89.6c-6,0-10.9-5.1-10.9-11.4V52c0-6.3,4.9-11.4,10.9-11.4h18.6c0.1,0,0.2,0.1,0.3,0.1
	c0.1,0.1,0.1,0.2,0.1,0.3c0,0.1,0,0.2-0.1,0.3c-0.1,0.1-0.2,0.1-0.3,0.1H89.6c-5.6,0-10.1,4.7-10.1,10.5v69.4
	c0,5.8,4.5,10.5,10.1,10.5h26.1c5.6,0,10.1-4.7,10.1-10.5V52c0-5.8-4.5-10.5-10.1-10.5h-3.9c-0.1,0-0.2-0.1-0.3-0.1
	c-0.1-0.1-0.1-0.2-0.1-0.3c0-0.1,0-0.2,0.1-0.3c0.1-0.1,0.2-0.1,0.3-0.1h3.9c6,0,10.9,5.1,10.9,11.4v69.4
	C126.6,127.7,121.8,132.8,115.7,132.8z"/>
<path class="st2" d="M104,45.8c0,0.3-0.1,0.5-0.3,0.7c-0.2,0.2-0.4,0.4-0.6,0.5c-0.2,0.1-0.5,0.1-0.8,0.1c-0.3-0.1-0.5-0.2-0.7-0.4
	c-0.2-0.2-0.3-0.4-0.3-0.7c0-0.3,0-0.5,0.1-0.8c0.1-0.2,0.3-0.4,0.5-0.6c0.2-0.1,0.5-0.2,0.7-0.2c0.4,0,0.7,0.2,1,0.4
	C103.9,45.1,104,45.4,104,45.8z"/>
<path class="st2" d="M107.9,49.7H97.5c-0.1,0-0.2-0.1-0.3-0.1c-0.1-0.1-0.1-0.2-0.1-0.3c0-0.1,0-0.2,0.1-0.3
	c0.1-0.1,0.2-0.1,0.3-0.1h10.5c0.1,0,0.2,0.1,0.3,0.1c0.1,0.1,0.1,0.2,0.1,0.3c0,0.1,0,0.2-0.1,0.3C108.1,49.6,108,49.6,107.9,49.7z
	"/>
<path class="st7" d="M87.4,55.6c0,0.1,0,0.2-0.1,0.3c-0.1,0.1-0.2,0.2-0.3,0.2c-0.1,0-0.2,0-0.3,0c-0.1,0-0.2-0.1-0.3-0.2
	c-0.1-0.1-0.1-0.2-0.2-0.3c0-0.1,0-0.2,0-0.3s0.1-0.2,0.2-0.3c0.1-0.1,0.2-0.1,0.3-0.1c0.2,0,0.3,0.1,0.4,0.2
	C87.3,55.3,87.4,55.5,87.4,55.6z"/>
<path class="st7" d="M89.1,55.6c0,0.1,0,0.2-0.1,0.3c-0.1,0.1-0.2,0.2-0.3,0.2c-0.1,0-0.2,0-0.3,0c-0.1,0-0.2-0.1-0.3-0.2
	c-0.1-0.1-0.1-0.2-0.2-0.3c0-0.1,0-0.2,0-0.3c0-0.1,0.1-0.2,0.2-0.3c0.1-0.1,0.2-0.1,0.3-0.1c0.2,0,0.3,0.1,0.4,0.2
	C89,55.3,89.1,55.5,89.1,55.6z"/>
<path class="st7" d="M95.6,56h-4.4c-0.1,0-0.2-0.1-0.3-0.1c-0.1-0.1-0.1-0.2-0.1-0.3c0-0.1,0-0.2,0.1-0.3c0.1-0.1,0.2-0.1,0.3-0.1
	h4.4c0.1,0,0.2,0.1,0.3,0.1c0.1,0.1,0.1,0.2,0.1,0.3c0,0.1,0,0.2-0.1,0.3C95.8,56,95.7,56,95.6,56z"/>
<path class="st7" d="M90.5,43.6h-1c-0.1,0-0.2-0.1-0.3-0.1c-0.1-0.1-0.1-0.2-0.1-0.3c0-0.1,0-0.2,0.1-0.3c0.1-0.1,0.2-0.1,0.3-0.1h1
	c0.1,0,0.2,0.1,0.3,0.1c0.1,0.1,0.1,0.2,0.1,0.3c0,0.1,0,0.2-0.1,0.3C90.7,43.5,90.6,43.6,90.5,43.6z"/>
<path class="st7" d="M97.8,43.6h-5.4c-0.1,0-0.2-0.1-0.3-0.1c-0.1-0.1-0.1-0.2-0.1-0.3c0-0.1,0-0.2,0.1-0.3c0.1-0.1,0.2-0.1,0.3-0.1
	h5.4c0.1,0,0.2,0.1,0.3,0.1c0.1,0.1,0.1,0.2,0.1,0.3c0,0.1,0,0.2-0.1,0.3C98,43.5,97.9,43.6,97.8,43.6z"/>
<path class="st7" d="M105.6,128.1h-5.9c-0.1,0-0.2-0.1-0.3-0.1c-0.1-0.1-0.1-0.2-0.1-0.3s0-0.2,0.1-0.3c0.1-0.1,0.2-0.1,0.3-0.1h5.9
	c0.1,0,0.2,0.1,0.3,0.1c0.1,0.1,0.1,0.2,0.1,0.3s0,0.2-0.1,0.3C105.9,128.1,105.8,128.1,105.6,128.1L105.6,128.1z"/>
<path class="st5" d="M61.9,150.8c0,0,0-25.7,0-27.8c0-6.5,1.2-8.6,5.6-12.8l16.5-15.4c0,0,3.1-3.5,6.2-0.5c2.7,2.6,1,6.1-0.7,8
	l-10,12.4v8.5c0,0,0.5,5.5-1.7,7.8c-1.1,1.3-2.6,2.3-4.2,2.9v16.9L61.9,150.8z"/>
<path class="st6" d="M82.9,97.7c-0.1-0.1-0.2-0.2-0.2-0.3c-0.1-0.1-0.1-0.3-0.1-0.4c0-0.1,0-0.3,0.1-0.4c0.1-0.1,0.1-0.3,0.2-0.4
	l1.4-1.4c1.1-1.2,3.2-1.4,4.4-0.3c0.6,0.6,0.9,1.3,0.9,2.1c0,0.8-0.3,1.6-0.8,2.1l-1.6,1.5c-0.2,0.2-0.5,0.3-0.8,0.3
	c-0.3,0-0.6-0.1-0.8-0.3L82.9,97.7z"/>
<path class="st3" d="M86.8,151c0.1,0,0.2,0,0.3-0.1c0.1,0,0.2-0.1,0.2-0.2c0.1-0.1,0.1-0.1,0.2-0.2c0-0.1,0.1-0.2,0.1-0.3l0-11.5
	c0-0.1,0-0.2-0.1-0.3c0-0.1-0.1-0.2-0.2-0.2c-0.1-0.1-0.1-0.1-0.2-0.2c-0.1,0-0.2-0.1-0.3-0.1L61,138.1c-0.2,0-0.4,0.1-0.5,0.2
	c-0.1,0.1-0.2,0.3-0.2,0.5l0,11.5c0,0.2,0.1,0.4,0.2,0.5c0.1,0.1,0.3,0.2,0.5,0.2L86.8,151z"/>
<path class="st5" d="M166.8,153.3l-7.2-14.4c0,0,3-5.1-1.6-14.1c-2.7-5.5-4.7-9.5-4.7-9.5s-0.3-0.7-0.9-1.6l-3.1-6.2
	c-0.4-0.9-1.1-1.6-1.9-1.9c-0.9-0.4-1.8-0.4-2.7-0.1c-0.6,0.2-1.2,0.6-1.7,1.1c-0.5,0.5-0.8,1.1-0.9,1.8c-0.3,0.5-0.5,0-0.5,0
	c-1.2-1.8-2.7-2.6-4.5-2.3c-2.3,0.4-3.3,1.8-3.4,3.8c0,0.1,0,0.2-0.1,0.3c-0.1,0.1-0.1,0.1-0.2,0.2c-0.1,0-0.2,0-0.3,0
	c-0.1,0-0.1-0.1-0.2-0.2l-0.1-0.1c-0.6-0.9-1.6-1.5-2.6-1.8c-1.1-0.3-2.2-0.2-3.2,0.3c-1,0.6-1.8,1.5-2.2,2.6
	c-0.4,1.1-0.3,2.3,0.2,3.4c0.2,0.6,0.2,0.9-0.2,1.1c-0.7,0.3-1.2-0.8-1.2-0.8s-6.3-11.4-8.4-14.9c-1.2-2-3.4-5.6-4.1-6.5
	c-3-3.6-7,0.5-5.9,2.9c0.3,0.7,15.8,33.7,17.8,37.8c0.3,0.6,0.6,1.2,0.9,1.7c-4.9-0.6-12.8-1.8-13.2-1.9c-3.6-0.7-5.8,0.7-6.7,2.7
	c-0.8,1.9,0.4,4.1,2,5c5.1,1.8,16.4,4.7,22.3,6.4c5.4,1.5,9.3,1.8,12.2,1.6l6.8,13.6L166.8,153.3z"/>
<path class="st4" d="M91.7,183.7l-0.1-35.2c0-0.1,0-0.2-0.1-0.3c0-0.1-0.1-0.2-0.2-0.2c-0.1-0.1-0.1-0.1-0.2-0.2
	c-0.1,0-0.2-0.1-0.3-0.1l-30.6,0.1c-0.2,0-0.4,0.1-0.5,0.2c-0.1,0.1-0.2,0.3-0.2,0.5l0.1,35.2L91.7,183.7z"/>
<path class="st3" d="M87.1,152.8c0.4,0,0.8,0.1,1.1,0.3c0.3,0.2,0.6,0.5,0.7,0.9c0.1,0.4,0.2,0.7,0.1,1.1c-0.1,0.4-0.3,0.7-0.5,1
	c-0.3,0.3-0.6,0.5-1,0.5c-0.4,0.1-0.8,0-1.1-0.1c-0.4-0.1-0.7-0.4-0.9-0.7c-0.2-0.3-0.3-0.7-0.3-1.1c0-0.3,0-0.5,0.1-0.7
	c0.1-0.2,0.2-0.5,0.4-0.6c0.2-0.2,0.4-0.3,0.6-0.4C86.6,152.8,86.9,152.8,87.1,152.8z"/>
<path class="st3" d="M87.1,158.7c0.4,0,0.8,0.1,1.1,0.3c0.3,0.2,0.6,0.5,0.7,0.9c0.1,0.4,0.2,0.7,0.1,1.1c-0.1,0.4-0.3,0.7-0.5,1
	c-0.3,0.3-0.6,0.5-1,0.5c-0.4,0.1-0.8,0-1.1-0.1c-0.4-0.1-0.7-0.4-0.9-0.7c-0.2-0.3-0.3-0.7-0.3-1.1c0-0.3,0-0.5,0.1-0.7
	c0.1-0.2,0.2-0.5,0.4-0.6c0.2-0.2,0.4-0.3,0.6-0.4C86.6,158.7,86.9,158.7,87.1,158.7z"/>
<path class="st6" d="M111.1,97.1c0.2-0.1,0.4-0.3,0.5-0.5c0.1-0.2,0.1-0.5,0-0.7l-0.7-1.5c-0.3-0.6-0.8-1.1-1.4-1.3
	c-0.6-0.2-1.3-0.2-2,0c-0.6,0.3-1,0.8-1.3,1.4c-0.2,0.6-0.2,1.3,0.1,1.9l0.9,1.6c0.1,0.2,0.3,0.4,0.5,0.5c0.2,0.1,0.5,0.1,0.7,0
	L111.1,97.1z"/>
<path class="st3" d="M146.2,165.3c-0.1,0-0.2,0.1-0.3,0.1c-0.1,0-0.2,0-0.3,0c-0.1,0-0.2-0.1-0.2-0.1c-0.1-0.1-0.1-0.1-0.2-0.2
	l-5.1-10.2c0-0.1-0.1-0.2-0.1-0.3c0-0.1,0-0.2,0-0.3c0-0.1,0.1-0.2,0.1-0.2c0.1-0.1,0.1-0.1,0.2-0.2l22.6-11.2
	c0.2-0.1,0.4-0.1,0.6,0c0.2,0.1,0.3,0.2,0.4,0.4l5.1,10.2c0.1,0.2,0.1,0.4,0,0.6c-0.1,0.2-0.2,0.3-0.4,0.4L146.2,165.3z"/>
<path class="st4" d="M149.5,183.8l-8.5-18.7c0-0.1-0.1-0.2-0.1-0.3c0-0.1,0-0.2,0-0.3c0-0.1,0.1-0.2,0.1-0.2
	c0.1-0.1,0.1-0.1,0.2-0.2l27.1-13.4c0.2-0.1,0.4-0.1,0.6,0c0.2,0.1,0.3,0.2,0.4,0.4l8.7,17.7l1.8,3.7L149.5,183.8z"/>
<path class="st3" d="M147.2,166.7c-0.3,0.2-0.6,0.4-0.8,0.8c-0.2,0.3-0.3,0.7-0.3,1.1c0,0.4,0.2,0.7,0.4,1.1
	c0.2,0.3,0.6,0.5,0.9,0.7c0.4,0.1,0.8,0.1,1.1,0c0.4-0.1,0.7-0.3,1-0.6c0.3-0.3,0.4-0.6,0.5-1c0-0.4,0-0.8-0.2-1.1
	c-0.2-0.5-0.6-0.8-1.1-1C148.1,166.4,147.6,166.5,147.2,166.7z"/>
<path class="st3" d="M149.8,171.9c-0.3,0.2-0.6,0.4-0.8,0.8c-0.2,0.3-0.3,0.7-0.3,1.1c0,0.4,0.2,0.7,0.4,1c0.2,0.3,0.6,0.5,0.9,0.7
	c0.4,0.1,0.8,0.1,1.1,0c0.4-0.1,0.7-0.3,1-0.6c0.3-0.3,0.4-0.6,0.5-1c0-0.4,0-0.8-0.2-1.1c-0.2-0.5-0.6-0.8-1.1-1
	C150.8,171.7,150.2,171.7,149.8,171.9z"/>
<path class="st3" d="M152.4,177.1c-0.3,0.2-0.6,0.4-0.8,0.8c-0.2,0.3-0.3,0.7-0.3,1.1c0,0.4,0.2,0.7,0.4,1c0.2,0.3,0.6,0.5,0.9,0.7
	c0.4,0.1,0.8,0.1,1.1,0c0.4-0.1,0.7-0.3,1-0.6c0.3-0.3,0.4-0.6,0.5-1s0-0.8-0.2-1.1c-0.2-0.5-0.6-0.8-1.1-1
	C153.4,176.9,152.8,176.9,152.4,177.1z"/>
<path class="st4" d="M149.5,183.8l35.2,0l-5.8-13.6L149.5,183.8z"/>
<path class="st2" d="M188.3,184.5H56.1c-0.2,0-0.3,0-0.5-0.1c-0.1-0.1-0.2-0.3-0.2-0.4c0-0.1,0-0.2,0-0.2c0-0.1,0.1-0.2,0.1-0.2
	s0.1-0.1,0.2-0.2c0.1,0,0.2-0.1,0.2-0.1c0,0,0.1,0,0.1,0h132.1c0.2,0,0.3,0.1,0.4,0.2c0.1,0.1,0.2,0.3,0.2,0.4
	c0,0.2-0.1,0.3-0.2,0.4C188.6,184.5,188.4,184.5,188.3,184.5L188.3,184.5z"/>
<path class="st4" d="M50,184.3H36.1c-0.2,0-0.3-0.1-0.4-0.2c-0.1-0.1-0.2-0.3-0.2-0.4s0.1-0.3,0.2-0.4c0.1-0.1,0.2-0.2,0.4-0.2H50
	c0.2,0,0.3,0.1,0.4,0.2c0.1,0.1,0.2,0.3,0.2,0.4s-0.1,0.3-0.2,0.4C50.3,184.2,50.1,184.3,50,184.3z"/>
<path class="st4" d="M199.1,184.5h-4.7c-0.2,0-0.3-0.1-0.4-0.2c-0.1-0.1-0.2-0.3-0.2-0.4s0.1-0.3,0.2-0.4c0.1-0.1,0.2-0.2,0.4-0.2
	h4.7c0.1,0,0.2,0,0.3,0c0.1,0,0.2,0.1,0.2,0.1c0.1,0.1,0.1,0.1,0.2,0.2c0,0.1,0.1,0.2,0.1,0.3c0,0.1,0,0.2-0.1,0.3
	c0,0.1-0.1,0.2-0.2,0.2c-0.1,0.1-0.1,0.1-0.2,0.1C199.2,184.5,199.2,184.5,199.1,184.5z"/>
<path class="st6" d="M110.9,137c0-0.1,0-0.3,0-0.4c0-0.1-0.1-0.3-0.1-0.4s-0.2-0.2-0.3-0.3c-0.1-0.1-0.2-0.1-0.4-0.2l-1.8-0.4
	c-0.7-0.2-1.5-0.1-2.2,0.3c-0.7,0.4-1.2,1-1.4,1.7c-0.2,0.7,0,1.5,0.3,2.1c0.4,0.6,1,1.1,1.7,1.3l2,0.3c0.3,0.1,0.5,0,0.8-0.1
	c0.2-0.1,0.4-0.4,0.5-0.6L110.9,137z"/>
<path class="st7" d="M113.6,65.5h-1.8c-0.2,0-0.5,0.1-0.6,0.3c-0.2,0.2-0.3,0.4-0.3,0.6v1.8c0,0.1,0,0.2,0.1,0.3
	c0,0.1,0.1,0.2,0.2,0.3s0.2,0.2,0.3,0.2c0.1,0,0.2,0.1,0.3,0.1h1.8c0.2,0,0.5-0.1,0.6-0.3c0.2-0.2,0.3-0.4,0.3-0.6v-1.8
	c0-0.2-0.1-0.5-0.3-0.6C114.1,65.6,113.9,65.5,113.6,65.5z"/>
<path class="st9" d="M113.6,65.7h-1.8c-0.2,0-0.4,0.1-0.5,0.2c-0.1,0.1-0.2,0.3-0.2,0.5v1.8c0,0.2,0.1,0.4,0.2,0.5
	c0.1,0.1,0.3,0.2,0.5,0.2h1.8c0.2,0,0.4-0.1,0.5-0.2c0.1-0.1,0.2-0.3,0.2-0.5v-1.8c0-0.2-0.1-0.4-0.2-0.5
	C114,65.7,113.8,65.7,113.6,65.7z"/>
<path class="st3" d="M113.2,67.7l-0.4-0.2l0,0.5h-0.2l0-0.5l-0.4,0.2l-0.1-0.2l0.4-0.2l-0.4-0.2l0.1-0.2l0.4,0.2l0-0.5h0.2l0,0.5
	l0.4-0.2l0.1,0.2l-0.4,0.2l0.4,0.2L113.2,67.7z"/>
<path class="st7" d="M106.9,65.5H105c-0.2,0-0.5,0.1-0.6,0.3c-0.2,0.2-0.3,0.4-0.3,0.6v1.8c0,0.2,0.1,0.5,0.3,0.6
	c0.2,0.2,0.4,0.3,0.6,0.3h1.8c0.2,0,0.5-0.1,0.6-0.3s0.3-0.4,0.3-0.6v-1.8c0-0.2-0.1-0.5-0.3-0.6C107.3,65.6,107.1,65.5,106.9,65.5z
	"/>
<path class="st9" d="M106.9,65.7H105c-0.1,0-0.2,0-0.3,0.1c-0.1,0-0.2,0.1-0.2,0.2c-0.1,0.1-0.1,0.1-0.2,0.2c0,0.1-0.1,0.2-0.1,0.3
	v1.8c0,0.2,0.1,0.4,0.2,0.5c0.1,0.1,0.3,0.2,0.5,0.2h1.8c0.2,0,0.4-0.1,0.5-0.2c0.1-0.1,0.2-0.3,0.2-0.5v-1.8c0-0.2-0.1-0.4-0.2-0.5
	C107.2,65.7,107,65.7,106.9,65.7z"/>
<path class="st3" d="M106.4,67.7l-0.4-0.2l0,0.5h-0.2l0-0.5l-0.4,0.2l-0.1-0.2l0.4-0.2l-0.4-0.2l0.1-0.2l0.4,0.2l0-0.5h0.2l0,0.5
	l0.4-0.2l0.1,0.2l-0.4,0.2l0.4,0.2L106.4,67.7z"/>
<path class="st7" d="M100.1,65.5h-1.8c-0.2,0-0.5,0.1-0.6,0.3c-0.2,0.2-0.3,0.4-0.3,0.6v1.8c0,0.2,0.1,0.5,0.3,0.6
	c0.2,0.2,0.4,0.3,0.6,0.3h1.8c0.1,0,0.2,0,0.4-0.1c0.1,0,0.2-0.1,0.3-0.2c0.1-0.1,0.2-0.2,0.2-0.3c0-0.1,0.1-0.2,0.1-0.3v-1.8
	c0-0.2-0.1-0.5-0.3-0.6C100.5,65.6,100.3,65.5,100.1,65.5z"/>
<path class="st9" d="M100.1,65.7h-1.8c-0.2,0-0.4,0.1-0.5,0.2c-0.1,0.1-0.2,0.3-0.2,0.5v1.8c0,0.2,0.1,0.4,0.2,0.5
	c0.1,0.1,0.3,0.2,0.5,0.2h1.8c0.2,0,0.4-0.1,0.5-0.2c0.1-0.1,0.2-0.3,0.2-0.5v-1.8c0-0.2-0.1-0.4-0.2-0.5
	C100.5,65.7,100.3,65.7,100.1,65.7L100.1,65.7z"/>
<path class="st3" d="M99.6,67.7l-0.4-0.2l0,0.5H99l0-0.5l-0.4,0.2l-0.1-0.2l0.4-0.2l-0.4-0.2l0.1-0.2l0.4,0.2l0-0.5h0.2l0,0.5
	l0.4-0.2l0.1,0.2l-0.4,0.2l0.4,0.2L99.6,67.7z"/>
<path class="st7" d="M93.3,65.5h-1.8c-0.2,0-0.5,0.1-0.6,0.3c-0.2,0.2-0.3,0.4-0.3,0.6v1.8c0,0.2,0.1,0.5,0.3,0.6
	c0.2,0.2,0.4,0.3,0.6,0.3h1.8c0.2,0,0.5-0.1,0.6-0.3c0.2-0.2,0.3-0.4,0.3-0.6v-1.8c0-0.2-0.1-0.5-0.3-0.6
	C93.8,65.6,93.5,65.5,93.3,65.5z"/>
<path class="st9" d="M93.3,65.7h-1.8c-0.2,0-0.4,0.1-0.5,0.2c-0.1,0.1-0.2,0.3-0.2,0.5v1.8c0,0.2,0.1,0.4,0.2,0.5
	c0.1,0.1,0.3,0.2,0.5,0.2h1.8c0.2,0,0.4-0.1,0.5-0.2c0.1-0.1,0.2-0.3,0.2-0.5v-1.8c0-0.2-0.1-0.4-0.2-0.5
	C93.7,65.7,93.5,65.7,93.3,65.7z"/>
<path class="st3" d="M92.9,67.7l-0.4-0.2l0,0.5h-0.2l0-0.5l-0.4,0.2l-0.1-0.2l0.4-0.2l-0.4-0.2l0.1-0.2l0.4,0.2l0-0.5h0.2l0,0.5
	l0.4-0.2l0.1,0.2l-0.4,0.2l0.4,0.2L92.9,67.7z"/>
<path class="st10" d="M154.7,19.9c0,0-0.1,19.4-12.8,24.6h0c0,0,0,0,0,0c-12.6-5.2-12.8-24.6-12.8-24.6l12.8-4.5l0,0L154.7,19.9z"/>
<g class="st11">
	<path class="st0" d="M141.8,16.1v27.8c-12-5-12.2-23.5-12.2-23.5L141.8,16.1z"/>
</g>
<path class="st1" d="M25.7,120.8c11.9,0,21.5-9.6,21.5-21.5c0-11.8-9.6-21.5-21.5-21.5c-11.9,0-21.5,9.6-21.5,21.5
	C4.2,111.2,13.8,120.8,25.7,120.8z"/>
<path class="st7" d="M28.2,118.3c11.9,0,21.5-9.6,21.5-21.5c0-11.8-9.6-21.5-21.5-21.5C16.3,75.4,6.6,85,6.6,96.9
	C6.6,108.7,16.3,118.3,28.2,118.3z"/>
<path class="st7" d="M28.2,76.7c-5.6,0-11,2.2-15,6.1s-6.3,9.2-6.5,14.8c0-0.2,0-0.4,0-0.6c0.1-5.6,2.4-11,6.4-14.9
	c4-3.9,9.4-6.1,15.1-6.1s11.1,2.2,15.1,6.1c4,3.9,6.3,9.3,6.4,14.9c0,0.2,0,0.4,0,0.6c-0.2-5.6-2.5-10.9-6.5-14.8
	C39.2,78.8,33.8,76.7,28.2,76.7z"/>
<path class="st2" d="M6,96.9c0-4.4,1.3-8.7,3.7-12.3c2.4-3.6,5.9-6.5,10-8.1c4.1-1.7,8.5-2.1,12.8-1.3c4.3,0.9,8.3,3,11.4,6.1
	c3.1,3.1,5.2,7,6.1,11.3c0.9,4.3,0.4,8.7-1.3,12.8c-1.7,4-4.5,7.5-8.2,9.9c-3.7,2.4-7.9,3.7-12.3,3.7c-2.9,0-5.8-0.6-8.5-1.7
	c-2.7-1.1-5.1-2.7-7.2-4.8c-2.1-2.1-3.7-4.5-4.8-7.2C6.6,102.7,6,99.8,6,96.9L6,96.9z M28.2,76.1c-4.1,0-8.2,1.2-11.6,3.5
	c-3.4,2.3-6.1,5.5-7.7,9.3c-1.6,3.8-2,8-1.2,12c0.8,4,2.8,7.7,5.7,10.6c2.9,2.9,6.6,4.9,10.7,5.7c4,0.8,8.2,0.4,12-1.2
	c3.8-1.6,7.1-4.2,9.4-7.7C47.8,105,49,101,49,96.9c0-5.5-2.2-10.8-6.1-14.7S33.7,76.1,28.2,76.1z"/>
<path class="st6" d="M27.8,83.2c-1.7,0-3.3,0.7-4.5,1.9c-1.2,1.2-1.9,2.8-1.9,4.5v1.8h2.1v-1.8c0-0.6,0.1-1.1,0.3-1.6
	c0.2-0.5,0.5-1,0.9-1.4c0.4-0.4,0.9-0.7,1.4-0.9c0.5-0.2,1.1-0.3,1.6-0.3c0.6,0,1.1,0.1,1.6,0.3c0.5,0.2,1,0.5,1.4,0.9
	c0.4,0.4,0.7,0.9,0.9,1.4c0.2,0.5,0.3,1.1,0.3,1.6v1.8h2.1v-1.8c0-1.7-0.7-3.3-1.9-4.5C31.1,83.9,29.4,83.3,27.8,83.2z"/>
<path class="st4" d="M35.9,91.3H19.6c-0.3,0-0.5,0.1-0.7,0.3c-0.2,0.2-0.3,0.4-0.3,0.7v12.8c0,0.3,0.1,0.5,0.3,0.7
	c0.2,0.2,0.4,0.3,0.7,0.3h16.3c0.3,0,0.5-0.1,0.7-0.3c0.2-0.2,0.3-0.4,0.3-0.7V92.3c0-0.3-0.1-0.5-0.3-0.7
	C36.4,91.4,36.2,91.3,35.9,91.3z M27.6,101.4c-0.3,0-0.6-0.2-0.8-0.4c-0.2-0.2-0.4-0.5-0.5-0.8c-0.1-0.3,0-0.6,0.1-0.9
	c0.1-0.3,0.3-0.5,0.6-0.7v-1.1c0-0.2,0.1-0.4,0.2-0.5c0.1-0.1,0.3-0.2,0.5-0.2c0.2,0,0.4,0.1,0.5,0.2c0.1,0.1,0.2,0.3,0.2,0.5v1.1
	c0.3,0.2,0.5,0.4,0.7,0.8c0.1,0.3,0.1,0.7,0,1c-0.1,0.3-0.3,0.6-0.6,0.8C28.3,101.3,27.9,101.4,27.6,101.4z"/>
<path class="st1" d="M193.4,72.4h-41.3c-1.9,0-3.4,1.5-3.4,3.4v24.5c0,1.9,1.5,3.4,3.4,3.4h41.3c1.9,0,3.4-1.5,3.4-3.4V75.9
	C196.9,74,195.3,72.4,193.4,72.4z"/>
<path class="st7" d="M191.1,70.2h-41.3c-1.9,0-3.4,1.5-3.4,3.4v24.5c0,1.9,1.5,3.4,3.4,3.4h41.3c1.9,0,3.4-1.5,3.4-3.4V73.6
	C194.6,71.7,193,70.2,191.1,70.2z"/>
<path class="st12" d="M191.1,99.3h-41.3c-0.9,0-1.8-0.4-2.4-1c-0.6-0.6-1-1.5-1-2.4v2.3c0,0.9,0.4,1.8,1,2.4c0.6,0.6,1.5,1,2.4,1
	h41.3c0.9,0,1.8-0.4,2.4-1c0.6-0.6,1-1.5,1-2.4v-2.3c0,0.9-0.4,1.8-1,2.4C192.9,98.9,192,99.3,191.1,99.3L191.1,99.3z"/>
<path class="st2" d="M191.1,102.2h-41.3c-1.1,0-2.1-0.4-2.9-1.2c-0.8-0.8-1.2-1.8-1.2-2.9V73.6c0-1.1,0.4-2.1,1.2-2.9
	c0.8-0.8,1.8-1.2,2.9-1.2h41.3c1.1,0,2.1,0.4,2.9,1.2c0.8,0.8,1.2,1.8,1.2,2.9v24.5c0,1.1-0.4,2.1-1.2,2.9
	C193.2,101.7,192.2,102.2,191.1,102.2z M149.9,70.8c-0.7,0-1.5,0.3-2,0.8c-0.5,0.5-0.8,1.2-0.8,2v24.5c0,0.7,0.3,1.5,0.8,2
	c0.5,0.5,1.2,0.8,2,0.8h41.3c0.7,0,1.5-0.3,2-0.8c0.5-0.5,0.8-1.2,0.8-2V73.6c0-0.7-0.3-1.5-0.8-2c-0.5-0.5-1.2-0.8-2-0.8H149.9z"/>
<path class="st4" d="M187.3,76h-32.2c-0.8,0-1.5,0.7-1.5,1.5v4.8c0,0.8,0.7,1.5,1.5,1.5h32.2c0.8,0,1.5-0.7,1.5-1.5v-4.8
	C188.8,76.6,188.1,76,187.3,76z"/>
<path class="st3" d="M162.1,80.9l-0.6-0.8l-0.5,0.8h-0.5l0.8-1.2l-0.8-1.1h0.5l0.6,0.8l0.5-0.8h0.5l-0.8,1.2l0.8,1.2H162.1z"/>
<path class="st3" d="M165.2,80.9l-0.6-0.8l-0.5,0.8h-0.5l0.8-1.2l-0.8-1.1h0.6l0.6,0.8l0.5-0.8h0.5l-0.8,1.2l0.8,1.2H165.2z"/>
<path class="st3" d="M168.3,80.9l-0.6-0.8l-0.5,0.8h-0.5l0.8-1.2l-0.8-1.1h0.5l0.6,0.8l0.5-0.8h0.5l-0.8,1.2l0.8,1.2H168.3z"/>
<path class="st3" d="M171.5,80.9l-0.6-0.8l-0.5,0.8h-0.5l0.8-1.2l-0.8-1.1h0.5l0.6,0.8l0.5-0.8h0.5l-0.8,1.2l0.8,1.2H171.5z"/>
<path class="st3" d="M174.6,80.9L174,80l-0.5,0.8H173l0.8-1.2l-0.8-1.1h0.6l0.6,0.8l0.5-0.8h0.5l-0.8,1.2l0.8,1.2H174.6z"/>
<path class="st3" d="M177.7,80.9l-0.6-0.8l-0.5,0.8h-0.5l0.8-1.2l-0.8-1.1h0.5l0.6,0.8l0.5-0.8h0.5l-0.8,1.2l0.8,1.2H177.7z"/>
<path class="st3" d="M180.8,80.9l-0.6-0.8l-0.5,0.8h-0.5l0.8-1.2l-0.8-1.1h0.5l0.6,0.8l0.5-0.8h0.5l-0.8,1.2l0.8,1.2H180.8z"/>
<path class="st6" d="M187.3,87.3h-32.2c-0.8,0-1.5,0.7-1.5,1.5v4.8c0,0.8,0.7,1.5,1.5,1.5h32.2c0.8,0,1.5-0.7,1.5-1.5v-4.8
	C188.8,87.9,188.1,87.3,187.3,87.3z"/>
<path class="st3" d="M165.4,90.7c-0.1,0-0.2,0-0.3,0.1c-0.1,0.1-0.1,0.1-0.2,0.2c0,0.1,0,0.2,0,0.3c0,0.1,0.1,0.2,0.1,0.2
	c0.1,0.1,0.2,0.1,0.3,0.1s0.2,0,0.3,0c0.1,0,0.2-0.1,0.2-0.2s0.1-0.2,0.1-0.3c0-0.1-0.1-0.3-0.1-0.3
	C165.7,90.7,165.6,90.7,165.4,90.7z M171.2,90.7c-0.1,0-0.2,0-0.3,0.1c-0.1,0.1-0.1,0.1-0.2,0.2c0,0.1,0,0.2,0,0.3
	c0,0.1,0.1,0.2,0.1,0.2c0.1,0.1,0.2,0.1,0.3,0.1s0.2,0,0.3,0c0.1,0,0.2-0.1,0.2-0.2s0.1-0.2,0.1-0.3c0-0.1-0.1-0.3-0.1-0.3
	C171.4,90.7,171.3,90.7,171.2,90.7z M162.6,90.7c-0.1,0-0.2,0-0.3,0.1c-0.1,0.1-0.1,0.1-0.2,0.2c0,0.1,0,0.2,0,0.3
	c0,0.1,0.1,0.2,0.1,0.2c0.1,0.1,0.2,0.1,0.3,0.1s0.2,0,0.3,0c0.1,0,0.2-0.1,0.2-0.2c0.1-0.1,0.1-0.2,0.1-0.3c0-0.1-0.1-0.3-0.1-0.3
	C162.8,90.7,162.7,90.7,162.6,90.7z M168.3,90.7c-0.1,0-0.2,0-0.3,0.1c-0.1,0.1-0.1,0.1-0.2,0.2c0,0.1,0,0.2,0,0.3
	c0,0.1,0.1,0.2,0.1,0.2c0.1,0.1,0.2,0.1,0.3,0.1s0.2,0,0.3,0c0.1,0,0.2-0.1,0.2-0.2s0.1-0.2,0.1-0.3c0-0.1,0-0.1,0-0.2
	c0-0.1-0.1-0.1-0.1-0.2c0,0-0.1-0.1-0.2-0.1C168.4,90.7,168.4,90.7,168.3,90.7z M179.8,90.7c-0.1,0-0.2,0-0.3,0.1
	c-0.1,0.1-0.1,0.1-0.2,0.2c0,0.1,0,0.2,0,0.3c0,0.1,0.1,0.2,0.1,0.2c0.1,0.1,0.2,0.1,0.3,0.1s0.2,0,0.3,0c0.1,0,0.2-0.1,0.2-0.2
	s0.1-0.2,0.1-0.3c0-0.1-0.1-0.3-0.1-0.3C180,90.7,179.9,90.7,179.8,90.7z M174,90.7c-0.1,0-0.2,0-0.3,0.1c-0.1,0.1-0.1,0.1-0.2,0.2
	c0,0.1,0,0.2,0,0.3c0,0.1,0.1,0.2,0.1,0.2c0.1,0.1,0.2,0.1,0.2,0.1c0.1,0,0.2,0,0.3,0c0.1,0,0.2-0.1,0.2-0.2
	c0.1-0.1,0.1-0.2,0.1-0.3c0-0.1-0.1-0.3-0.1-0.3C174.3,90.7,174.2,90.7,174,90.7L174,90.7z M176.9,90.7c-0.1,0-0.2,0-0.3,0.1
	c-0.1,0.1-0.1,0.1-0.2,0.2c0,0.1,0,0.2,0,0.3c0,0.1,0.1,0.2,0.1,0.2c0.1,0.1,0.2,0.1,0.2,0.1s0.2,0,0.3,0c0.1,0,0.2-0.1,0.2-0.2
	s0.1-0.2,0.1-0.3c0-0.1,0-0.1,0-0.2c0-0.1-0.1-0.1-0.1-0.2c0,0-0.1-0.1-0.2-0.1C177,90.7,177,90.7,176.9,90.7z"/>
<path class="st3" d="M92.3,80.3c-0.4,0-0.8-0.1-1-0.4c-0.2-0.2-0.4-0.6-0.4-1c0-0.4,0.1-0.7,0.4-1c0.2-0.2,0.6-0.4,1-0.4
	c0.2,0,0.4,0,0.6,0.1c0.2,0.1,0.3,0.2,0.4,0.3c0.1,0.1,0.2,0.3,0.2,0.5H93c0-0.2-0.1-0.3-0.2-0.4c-0.1-0.1-0.3-0.1-0.4-0.1
	c-0.2,0-0.4,0.1-0.5,0.2c-0.1,0.2-0.2,0.4-0.2,0.7c0,0.3,0.1,0.5,0.2,0.7c0.1,0.2,0.3,0.2,0.5,0.2c0.2,0,0.3,0,0.4-0.1
	c0.1-0.1,0.2-0.2,0.2-0.4h0.6c0,0.3-0.2,0.5-0.4,0.7C93,80.2,92.7,80.3,92.3,80.3z"/>
<path class="st3" d="M95.7,80.1c-0.2,0.2-0.4,0.3-0.8,0.3c-0.3,0-0.6-0.1-0.8-0.3c-0.2-0.2-0.3-0.4-0.3-0.7c0-0.3,0.1-0.6,0.3-0.7
	c0.2-0.2,0.4-0.3,0.8-0.3c0.3,0,0.6,0.1,0.8,0.3c0.2,0.2,0.3,0.4,0.3,0.7C96,79.6,95.9,79.9,95.7,80.1z M94.9,79.9
	c0.1,0,0.3-0.1,0.3-0.2c0.1-0.1,0.1-0.3,0.1-0.4c0-0.2,0-0.3-0.1-0.4c-0.1-0.1-0.2-0.2-0.3-0.2c-0.1,0-0.3,0.1-0.3,0.2
	c-0.1,0.1-0.1,0.3-0.1,0.4c0,0.2,0,0.3,0.1,0.4C94.6,79.9,94.8,79.9,94.9,79.9z"/>
<path class="st3" d="M96.3,80.3v-1.9h0.6v0.3h0c0.1-0.1,0.1-0.2,0.3-0.3c0.1-0.1,0.2-0.1,0.4-0.1c0.2,0,0.4,0.1,0.5,0.2
	c0.1,0.1,0.2,0.3,0.2,0.5v1.2h-0.6v-1.1c0-0.1,0-0.2-0.1-0.3c-0.1-0.1-0.2-0.1-0.3-0.1s-0.2,0-0.3,0.1c-0.1,0.1-0.1,0.2-0.1,0.3v1.1
	H96.3z"/>
<path class="st3" d="M98.8,80.3v-1.5h-0.3v-0.4h0.3v-0.1c0-0.2,0.1-0.3,0.2-0.4c0.1-0.1,0.3-0.1,0.5-0.1c0.1,0,0.2,0,0.3,0V78
	c0,0-0.1,0-0.2,0c-0.2,0-0.3,0.1-0.3,0.2v0.1h0.4v0.4h-0.4v1.5H98.8z"/>
<path class="st3" d="M100.1,80.3v-1.9h0.6v1.9H100.1z M100.6,78.1c-0.1,0.1-0.1,0.1-0.2,0.1s-0.2,0-0.2-0.1
	c-0.1-0.1-0.1-0.1-0.1-0.2c0-0.1,0-0.1,0.1-0.2c0.1-0.1,0.1-0.1,0.2-0.1s0.2,0,0.2,0.1c0.1,0.1,0.1,0.1,0.1,0.2
	C100.7,77.9,100.6,78,100.6,78.1z"/>
<path class="st3" d="M101,80.3v-1.9h0.6v0.3h0c0-0.1,0.1-0.2,0.2-0.3c0.1-0.1,0.2-0.1,0.3-0.1c0.1,0,0.1,0,0.2,0v0.5
	c-0.1,0-0.1,0-0.2,0c-0.1,0-0.3,0-0.3,0.1c-0.1,0.1-0.1,0.2-0.1,0.3v1.1H101z"/>
<path class="st3" d="M102.5,80.3v-1.9h0.6v0.4h0c0-0.1,0.1-0.2,0.2-0.3c0.1-0.1,0.2-0.1,0.4-0.1c0.2,0,0.3,0,0.4,0.1
	c0.1,0.1,0.2,0.2,0.2,0.3h0c0-0.1,0.1-0.2,0.2-0.3c0.1-0.1,0.3-0.1,0.4-0.1c0.2,0,0.4,0.1,0.5,0.2c0.1,0.1,0.2,0.3,0.2,0.5v1.3h-0.6
	v-1.2c0-0.1,0-0.2-0.1-0.3c-0.1-0.1-0.1-0.1-0.3-0.1c-0.1,0-0.2,0-0.3,0.1c-0.1,0.1-0.1,0.2-0.1,0.3v1.2h-0.6v-1.2
	c0-0.1,0-0.2-0.1-0.2c-0.1-0.1-0.1-0.1-0.3-0.1c-0.1,0-0.2,0-0.3,0.1c-0.1,0.1-0.1,0.2-0.1,0.3v1.2H102.5z"/>
<path class="st3" d="M106.9,77.7h1.2c0.3,0,0.5,0.1,0.7,0.2c0.2,0.2,0.3,0.4,0.3,0.6c0,0.3-0.1,0.5-0.3,0.6
	c-0.2,0.2-0.4,0.2-0.7,0.2h-0.5v0.8h-0.6V77.7z M107.5,78.1V79h0.4c0.2,0,0.3,0,0.4-0.1c0.1-0.1,0.1-0.2,0.1-0.3
	c0-0.1,0-0.3-0.1-0.3c-0.1-0.1-0.2-0.1-0.4-0.1H107.5z"/>
<path class="st3" d="M110,80.3h-0.6v-2.6h0.6V80.3z"/>
<path class="st3" d="M111.1,80.3h-0.6v-2.6h0.5l1.3,1.7h0v-1.7h0.6v2.6h-0.5l-1.3-1.7h0V80.3z"/>
<path class="st3" d="M140.8,34.6l-5.8-4.8c-0.1-0.1-0.2-0.2-0.3-0.3c-0.1-0.1-0.1-0.3-0.1-0.4c0-0.1,0-0.3,0-0.4
	c0-0.1,0.1-0.3,0.2-0.4c0.1-0.1,0.2-0.2,0.3-0.3c0.1-0.1,0.3-0.1,0.4-0.1s0.3,0,0.4,0c0.1,0,0.3,0.1,0.4,0.2l4.2,3.5l7.6-7.4
	c0.2-0.2,0.5-0.3,0.8-0.3c0.3,0,0.6,0.1,0.8,0.3c0.2,0.2,0.3,0.5,0.3,0.8c0,0.3-0.1,0.6-0.3,0.8L140.8,34.6z"/>
</svg>
