<?xml version="1.0" encoding="utf-8"?>
<!-- Generator: Adobe Illustrator 25.2.0, SVG Export Plug-In . SVG Version: 6.00 Build 0)  -->
<svg version="1.1" id="Layer_1" xmlns="http://www.w3.org/2000/svg" xmlns:xlink="http://www.w3.org/1999/xlink" x="0px" y="0px"
	 viewBox="0 0 216 189.9" style="enable-background:new 0 0 216 189.9;" xml:space="preserve">
<style type="text/css">
	.st0{opacity:0.25;enable-background:new    ;}
	.st1{fill:#C6B6FF;}
	.st2{opacity:0.5;}
	.st3{fill:#E94235;}
	.st4{fill:#B6B6B6;}
	.st5{fill:#7C4DFF;}
	.st6{fill:#5F3EDB;}
	.st7{fill:#4C1FC9;}
	.st8{fill:#7AA0EF;}
	.st9{fill:#FFFFFF;}
	.st10{fill:#494949;}
	.st11{fill:#DDDDDD;}
	.st12{fill:#D3D3D3;}
	.st13{fill:#DFD5F9;}
	.st14{clip-path:url(#SVGID_2_);}
	.st15{fill:#666666;}
	.st16{fill:#7C4DFF;fill-opacity:0.2;}
	.st17{fill:#B9CEF9;}
	.st18{fill:#CCB9FF;}
	.st19{fill:#EBE4FF;}
</style>
<g class="st0">
	<path class="st1" d="M200.8,143.4h-31.9c-4.1-0.1-7.4-3.3-7.5-7.4c0.2-4,3.5-7.1,7.5-7.1h20.7c4-0.1,7.2-3.4,7.2-7.4
		c0-0.9-0.2-1.9-0.6-2.7c-0.4-0.9-0.9-1.7-1.6-2.3c-1.4-1.3-3.2-2-5.1-2h-6.2c-4.1-0.1-7.4-3.3-7.5-7.4c0.2-4,3.5-7.1,7.5-7.1h14.8
		c4.1-0.1,7.4-3.3,7.5-7.4c-0.2-4-3.5-7.1-7.5-7.1h-14c-2.7-14.7-9.9-28.3-20.5-38.8C136.7,20,93.9,17.7,64.3,41.5l-24.5-0.4
		c-1,0-1.9,0.2-2.8,0.5c-0.9,0.4-1.7,0.9-2.4,1.5c-1.4,1.3-2.2,3.2-2.2,5.1c0,1.9,0.7,3.8,2.1,5.1c0.7,0.7,1.5,1.2,2.3,1.6
		c0.9,0.4,1.8,0.6,2.8,0.6l12.6,0.3c1.9,0,3.7,0.8,5.1,2.1c2.8,2.8,2.7,7.4-0.1,10.2c0,0,0,0,0,0c-1.4,1.3-3.2,2.1-5.2,2.1L32.7,70
		l-20.2-0.3c-4-0.2-7.4,2.9-7.6,6.9c-0.2,4,2.9,7.4,6.9,7.6c0.2,0,0.3,0,0.5,0l20.2,0.3l5,0.1c1.9,0,3.8,0.8,5.1,2.2
		c2.8,2.9,2.7,7.5-0.2,10.2c-1.4,1.3-3.2,2-5.1,2l-5-0.1l-2.7-0.1c-4-0.2-7.4,2.9-7.6,6.9c-0.2,4,2.9,7.4,6.9,7.6c0.2,0,0.3,0,0.5,0
		l8.4,0.1c2.8,14.6,9.9,27.9,20.5,38.4c26.6,26.5,68.7,29.1,98.4,6.1h44.1c4-0.1,7.2-3.4,7.2-7.4c0-1.9-0.8-3.7-2.1-5
		c-0.7-0.7-1.5-1.2-2.3-1.5C202.7,143.6,201.7,143.4,200.8,143.4z"/>
</g>
<g class="st2">
	<path class="st3" d="M194.8,74.6h-5.8c-0.1,0-0.3-0.1-0.4-0.2c-0.2-0.3-0.2-0.6,0-0.9c0.1-0.1,0.2-0.2,0.4-0.2h5.8
		c0.1,0,0.3,0.1,0.3,0.2c0.2,0.3,0.2,0.6,0,0.9C195,74.5,194.9,74.5,194.8,74.6z"/>
	<path class="st4" d="M186,74.6h-10.7c-0.1,0-0.3-0.1-0.3-0.2c-0.2-0.3-0.2-0.6,0-0.9c0.1-0.1,0.2-0.2,0.3-0.2H186
		c0.1,0,0.3,0.1,0.3,0.2c0.2,0.3,0.2,0.6,0,0.9C186.3,74.5,186.1,74.5,186,74.6z"/>
	<path class="st4" d="M207.9,70.7h-23.8c-0.1,0-0.3-0.1-0.3-0.2c-0.2-0.3-0.2-0.6,0-0.9c0.1-0.1,0.2-0.2,0.3-0.2h23.8
		c0.1,0,0.3,0.1,0.4,0.2c0.2,0.3,0.2,0.6,0,0.9C208.2,70.6,208,70.7,207.9,70.7z"/>
	<path class="st3" d="M180.2,70.7h-1.9c-0.1,0-0.3-0.1-0.3-0.2c-0.2-0.3-0.2-0.6,0-0.9c0.1-0.1,0.2-0.2,0.3-0.2h1.9
		c0.1,0,0.3,0.1,0.3,0.2c0.2,0.3,0.2,0.6,0,0.9C180.4,70.6,180.3,70.7,180.2,70.7z"/>
</g>
<path class="st1" d="M189.3,41.4h-2.1c-0.2,0-0.4-0.1-0.5-0.2c-0.1-0.1-0.2-0.3-0.2-0.5c0-0.4,0.3-0.7,0.7-0.7c0,0,0,0,0,0h2.1
	c0.2,0,0.4,0.1,0.5,0.2c0.1,0.1,0.2,0.3,0.2,0.5C190,41.1,189.7,41.4,189.3,41.4C189.3,41.4,189.3,41.4,189.3,41.4z"/>
<path class="st1" d="M179,41.4h-2c-0.2,0-0.4-0.1-0.5-0.2c-0.1-0.1-0.2-0.3-0.2-0.5c0-0.4,0.3-0.7,0.7-0.7c0,0,0,0,0,0h2
	c0.2,0,0.4,0.1,0.5,0.2c0.1,0.1,0.2,0.3,0.2,0.5C179.7,41.1,179.4,41.4,179,41.4C179,41.4,179,41.4,179,41.4L179,41.4z"/>
<path class="st1" d="M187.5,45.7c-0.1,0-0.2,0-0.3,0c-0.1,0-0.2-0.1-0.2-0.2l-1.5-1.5c-0.1-0.1-0.2-0.3-0.2-0.5
	c0-0.2,0.1-0.4,0.2-0.5c0.1-0.1,0.3-0.2,0.5-0.2c0.2,0,0.4,0.1,0.5,0.2l1.4,1.5c0.1,0.1,0.2,0.2,0.2,0.3c0,0.1,0,0.3,0,0.4
	c-0.1,0.1-0.1,0.2-0.3,0.3C187.8,45.6,187.7,45.7,187.5,45.7z"/>
<path class="st1" d="M180.2,38.4c-0.1,0-0.2,0-0.3,0c-0.1,0-0.2-0.1-0.2-0.2l-1.5-1.5c-0.1-0.1-0.2-0.3-0.2-0.5
	c0-0.4,0.3-0.7,0.7-0.7c0,0,0,0,0,0c0.2,0,0.4,0.1,0.5,0.2l1.5,1.4c0.1,0.1,0.2,0.2,0.2,0.3c0.1,0.3-0.1,0.6-0.3,0.7
	C180.5,38.4,180.4,38.4,180.2,38.4z"/>
<path class="st1" d="M183.1,47.5c-0.4,0-0.7-0.3-0.7-0.7c0,0,0,0,0,0v-2c0-0.2,0.1-0.4,0.2-0.5c0.3-0.3,0.7-0.3,1,0c0,0,0,0,0,0
	c0.1,0.1,0.2,0.3,0.2,0.5v2C183.9,47.2,183.6,47.5,183.1,47.5C183.2,47.5,183.2,47.5,183.1,47.5L183.1,47.5z"/>
<path class="st1" d="M183.1,37.3c-0.2,0-0.4-0.1-0.5-0.2c-0.1-0.1-0.2-0.3-0.2-0.5v-2c0-0.4,0.4-0.6,0.8-0.6c0.3,0,0.6,0.3,0.6,0.6
	v2c0,0.2-0.1,0.4-0.2,0.5C183.5,37.2,183.3,37.3,183.1,37.3z"/>
<path class="st1" d="M178.8,45.7c-0.1,0-0.3,0-0.4-0.1c-0.1-0.1-0.2-0.2-0.2-0.3c0-0.1,0-0.3,0-0.4c0-0.1,0.1-0.3,0.2-0.3l1.5-1.5
	c0.1-0.1,0.1-0.1,0.2-0.2c0.1,0,0.2,0,0.3,0c0.1,0,0.2,0,0.3,0c0.1,0,0.2,0.1,0.2,0.2c0.1,0.1,0.1,0.1,0.1,0.2
	c0,0.1,0.1,0.2,0.1,0.3c0,0.1,0,0.2-0.1,0.3c0,0.1-0.1,0.2-0.1,0.2l-1.5,1.5c-0.1,0.1-0.1,0.1-0.2,0.2
	C179,45.7,178.9,45.7,178.8,45.7z"/>
<path class="st1" d="M186.1,38.4c-0.1,0-0.3,0-0.4-0.1c-0.1-0.1-0.2-0.2-0.3-0.3c0-0.1,0-0.3,0-0.4c0-0.1,0.1-0.3,0.2-0.3l1.4-1.4
	c0.1-0.1,0.3-0.2,0.5-0.2c0.2,0,0.4,0.1,0.5,0.2c0.1,0.1,0.2,0.3,0.2,0.5c0,0.2-0.1,0.4-0.2,0.5l-1.5,1.5c-0.1,0.1-0.1,0.1-0.2,0.2
	C186.2,38.4,186.1,38.4,186.1,38.4z"/>
<g class="st2">
	<path class="st3" d="M196.1,166.1c-0.1,0-0.1,0-0.2-0.1c-0.1,0-0.1-0.1-0.1-0.2l-0.5-0.9c-0.2-0.4-0.5-0.8-0.9-1l-0.9-0.5
		c-0.1,0-0.1-0.1-0.1-0.1c0-0.1,0-0.1-0.1-0.2c0-0.1,0-0.1,0.1-0.2c0-0.1,0.1-0.1,0.1-0.1l0.9-0.5c0.4-0.2,0.7-0.6,0.9-1l0.5-0.9
		c0.1-0.1,0.2-0.2,0.4-0.2c0.1,0,0.1,0,0.2,0.1c0.1,0,0.1,0.1,0.1,0.1l0.5,0.9c0.2,0.4,0.6,0.8,1,1l0.9,0.5c0.1,0,0.1,0.1,0.1,0.1
		c0,0.1,0.1,0.1,0.1,0.2c0,0.1,0,0.1-0.1,0.2c0,0.1-0.1,0.1-0.1,0.1L198,164c-0.4,0.2-0.8,0.6-1,1l-0.5,0.9c0,0.1-0.1,0.1-0.1,0.2
		C196.3,166.1,196.2,166.1,196.1,166.1z M194.7,163.4c0.5,0.3,1,0.7,1.3,1.3l0.1,0.2l0.1-0.2c0.3-0.5,0.7-1,1.3-1.3l0.3-0.1
		l-0.3-0.1c-0.5-0.3-1-0.7-1.3-1.3l-0.1-0.2l-0.1,0.2c-0.3,0.5-0.7,1-1.3,1.3l-0.2,0.1L194.7,163.4z"/>
</g>
<g class="st2">
	<path class="st3" d="M29.5,42.7c-0.1,0-0.2,0-0.3-0.1c-0.1,0-0.2-0.1-0.2-0.2l-0.7-1.2c-0.3-0.6-0.8-1-1.3-1.3l-1.2-0.7
		c-0.1,0-0.2-0.1-0.2-0.2c-0.1-0.2-0.1-0.4,0-0.6c0.1-0.1,0.1-0.2,0.2-0.2l1.2-0.7c0.6-0.3,1-0.8,1.3-1.3L29,35
		c0-0.1,0.1-0.2,0.2-0.2c0.1-0.1,0.2-0.1,0.3-0.1c0.1,0,0.2,0,0.3,0.1c0.1,0,0.2,0.1,0.2,0.2l0.7,1.2c0.3,0.6,0.8,1,1.3,1.3l1.2,0.7
		c0.1,0,0.2,0.1,0.2,0.2c0.1,0.2,0.1,0.4,0,0.6c0,0.1-0.1,0.2-0.2,0.2L32,39.9c-0.6,0.3-1,0.8-1.3,1.3L30,42.4
		c0,0.1-0.1,0.2-0.2,0.2C29.7,42.7,29.6,42.7,29.5,42.7z M27.5,38.9c0.7,0.4,1.4,1,1.8,1.8l0.2,0.3l0.2-0.3c0.4-0.7,1-1.3,1.8-1.8
		l0.4-0.2l-0.4-0.2c-0.7-0.4-1.4-1-1.8-1.8l-0.2-0.3l-0.2,0.3c-0.4,0.7-1,1.3-1.8,1.8l-0.4,0.2L27.5,38.9z"/>
</g>
<path class="st1" d="M39.1,138.2h-1.5c-0.2,0-0.4-0.1-0.5-0.2c-0.1-0.1-0.2-0.3-0.2-0.5c0-0.2,0.1-0.4,0.2-0.5
	c0.1-0.1,0.3-0.2,0.5-0.2h1.5c0.2,0,0.4,0.1,0.5,0.2c0.1,0.1,0.2,0.3,0.2,0.5C39.8,137.9,39.5,138.2,39.1,138.2z"/>
<path class="st1" d="M31.7,138.2h-1.5c-0.2,0-0.4-0.1-0.5-0.2c-0.1-0.1-0.2-0.3-0.2-0.5c0-0.2,0.1-0.4,0.2-0.5
	c0.1-0.1,0.3-0.2,0.5-0.2h1.5c0.2,0,0.4,0.1,0.5,0.2c0.1,0.1,0.2,0.3,0.2,0.5C32.5,137.9,32.1,138.2,31.7,138.2z"/>
<path class="st1" d="M34.7,142.6c-0.2,0-0.4-0.1-0.5-0.2c-0.1-0.1-0.2-0.3-0.2-0.5v-1.5c0-0.2,0.1-0.4,0.2-0.5
	c0.1-0.1,0.3-0.2,0.5-0.2c0.2,0,0.4,0.1,0.5,0.2c0.1,0.1,0.2,0.3,0.2,0.5v1.5c0,0.2-0.1,0.4-0.2,0.5C35,142.6,34.9,142.6,34.7,142.6
	z"/>
<path class="st1" d="M34.7,135.3c-0.2,0-0.4-0.1-0.5-0.2c-0.1-0.1-0.2-0.3-0.2-0.5v-1.5c0-0.2,0.1-0.4,0.2-0.5
	c0.1-0.1,0.3-0.2,0.5-0.2c0.2,0,0.4,0.1,0.5,0.2c0.1,0.1,0.2,0.3,0.2,0.5v1.5C35.4,135,35.1,135.3,34.7,135.3z"/>
<path class="st1" d="M70.8,171.1H43.2c-0.1,0-0.3-0.1-0.4-0.1c-0.1-0.1-0.2-0.2-0.2-0.4c0-0.1,0.1-0.3,0.2-0.4
	c0.1-0.1,0.2-0.2,0.4-0.1h27.6c0.3,0,0.5,0.2,0.5,0.5c0,0,0,0,0,0c0,0.1-0.1,0.3-0.2,0.4C71.1,171.1,70.9,171.2,70.8,171.1z"/>
<path class="st4" d="M65.5,174.9h-9.5c-0.1,0-0.3-0.1-0.4-0.1c-0.1-0.1-0.2-0.2-0.2-0.4c0-0.1,0.1-0.3,0.2-0.4
	c0.1-0.1,0.2-0.2,0.4-0.1h9.5c0.1,0,0.3,0.1,0.4,0.1c0.1,0.1,0.2,0.2,0.2,0.4c0,0.1-0.1,0.3-0.2,0.4
	C65.8,174.8,65.6,174.9,65.5,174.9z"/>
<path class="st1" d="M50.6,174.9h-3.2c-0.1,0-0.3-0.1-0.4-0.1c-0.1-0.1-0.2-0.2-0.2-0.4c0-0.1,0.1-0.3,0.2-0.4
	c0.1-0.1,0.2-0.2,0.4-0.1h3.2c0.1,0,0.3,0.1,0.4,0.2c0.1,0.1,0.2,0.2,0.2,0.4c0,0.1-0.1,0.3-0.2,0.4
	C50.9,174.8,50.8,174.9,50.6,174.9z"/>
<path class="st5" d="M126.5,60.7h-5.8v-6.1c0-0.3-0.1-0.7-0.4-0.9c-0.2-0.2-0.6-0.4-0.9-0.4h-15c-0.3,0-0.7,0.1-0.9,0.4
	c-0.2,0.2-0.4,0.6-0.4,0.9v6.1h-5.8v-6.1c0-3.9,3.1-7,7-7h15c3.9,0,7,3.1,7,7L126.5,60.7z"/>
<path class="st5" d="M84.8,61.3h54.3c2.7,0,5.3,1.1,7.3,3c1.9,1.9,3,4.5,3,7.3v6.2l0.6,0.3c-14.3,1.8-61.7,1.8-76,0l0.6-0.3v-6.2
	C74.5,65.9,79.1,61.3,84.8,61.3C84.8,61.3,84.8,61.3,84.8,61.3z"/>
<path class="st6" d="M145.7,64.2c-0.3,0.5-0.7,0.9-1.1,1.3c-3,3-15.3,2.4-19.9,2.4H99.2c-5.1,0-18,0.3-21-3.4
	c1.9-1.5,4.2-2.3,6.6-2.2h54.3C141.6,62.4,143.9,62.8,145.7,64.2z"/>
<path class="st6" d="M71.2,81.4c0,1.7,1.3,3.1,2.9,3.2H74c14.3,1.8,61.7,1.8,76,0h-0.2c0.8-0.1,1.5-0.5,2.1-1.1
	c0.5-0.6,0.9-1.4,0.9-2.2c0-0.9-0.4-1.8-1.1-2.4c-0.3-0.3-0.7-0.5-1.2-0.7c-0.4-0.1-0.9-0.2-1.4-0.1l0.9-0.1
	c-14.3,1.8-61.7,1.8-76,0l0.9,0.1c-0.5,0-0.9,0-1.3,0.1c-0.4,0.1-0.8,0.4-1.2,0.7C71.6,79.6,71.2,80.5,71.2,81.4L71.2,81.4z"/>
<path class="st5" d="M137.9,147.6c-13.2,2.7-37.4,2.9-50.6,0.4l-0.6-0.4L75.3,85.1l0.3-0.5c14.3,1.8,58.4,1.8,72.7,0l0.3,0.5
	L137.9,147.6z"/>
<path class="st6" d="M87.2,148l-0.6-0.4L75.2,85.1l0.3-0.5c1.4,0.3,2.8,0.5,4.3,0.6l11.3,62.3C91.1,147.6,94.4,149.4,87.2,148z"/>
<path class="st6" d="M148.9,85.1l-10.7,62.5c-1.7,0.3-2.5,0.4-5.3,0.8l8-62.5c3-0.2,5.7-1.1,7.7-1.3L148.9,85.1z"/>
<path class="st7" d="M81.4,124.2c-0.1,0.1-0.1,0.2-0.2,0.4c0,0.1,0,0.3,0,0.4l4.2,23c0,0.1,0.1,0.3,0.2,0.4c0.1,0.1,0.2,0.2,0.3,0.3
	l0.6,0.4c0.1,0.1,0.3,0.1,0.4,0.2c7.9,1.3,16,1.9,24,1.8c10.5,0,20.4-0.8,27.1-2.2c0.2,0,0.4-0.1,0.6-0.3c0.1-0.2,0.2-0.4,0.3-0.6
	l0.9-5.1c0-0.1,0-0.3,0-0.4c0-0.1-0.1-0.3-0.2-0.4c-0.1-0.1-0.2-0.2-0.3-0.3c-0.1-0.1-0.3-0.1-0.4-0.2c-0.1,0-0.3,0-0.4,0
	c-0.1,0-0.3,0.1-0.4,0.2c-0.1,0.1-0.2,0.2-0.3,0.3c-0.1,0.1-0.1,0.3-0.1,0.4l-0.8,4.4l-0.4,0.1c-13,2.4-35.7,2.6-48.7,0.3l-0.4-0.1
	l-4.1-22.6c0-0.2-0.1-0.4-0.3-0.6c-0.1-0.2-0.3-0.3-0.6-0.3c-0.2-0.1-0.4-0.1-0.6,0C81.7,123.8,81.5,123.9,81.4,124.2L81.4,124.2z"
	/>
<path class="st8" d="M139.8,136.4c-0.2,0-0.3,0.1-0.5,0.2c-0.2,0.1-0.3,0.3-0.4,0.5c-0.1,0.2-0.1,0.4-0.2,0.7c0,0.2,0,0.5,0.1,0.7
	c0.1,0.2,0.1,0.4,0.3,0.6c0.1,0.1,0.3,0.2,0.4,0.3c0.2,0.1,0.3,0.1,0.5,0c0.2-0.1,0.3-0.2,0.4-0.4c0.1-0.2,0.2-0.5,0.3-0.8
	c0-0.3,0-0.6-0.1-0.8c-0.1-0.2-0.2-0.5-0.4-0.7C140.2,136.5,140,136.4,139.8,136.4z"/>
<path class="st8" d="M133.4,79.8h0.2c0.2,0,0.3,0,0.5-0.1c0.2,0,0.3-0.1,0.4-0.2c0.1-0.1,0.2-0.2,0.3-0.3c0.1-0.1,0.1-0.2,0.1-0.4
	c0-0.3-0.2-0.5-0.4-0.7c-0.3-0.2-0.6-0.3-1-0.2h-0.2c-0.2,0-0.3,0-0.5,0.1c-0.2,0-0.3,0.1-0.4,0.2c-0.1,0.1-0.2,0.2-0.3,0.3
	c-0.1,0.1-0.1,0.2-0.1,0.4c0,0.1,0.1,0.3,0.1,0.4c0.1,0.1,0.2,0.2,0.3,0.3c0.1,0.1,0.3,0.2,0.4,0.2C133,79.8,133.2,79.8,133.4,79.8z
	"/>
<path class="st7" d="M153.8,99.9l0.6-10.2c0-0.5-0.1-1-0.5-1.4c-0.3-0.4-0.8-0.6-1.3-0.7l-2.8-0.3L150,86l0.5-0.1
	c0.1,0,0.2,0,0.3-0.1h0.1c2.3-0.6,3.7-2.9,3.2-5.2c-0.3-1.5-1.4-2.6-2.8-3.1l-0.4-0.1v-5.6c0-6.3-5.1-11.4-11.4-11.4h0H128v-5.7
	c0-4.5-3.6-8.1-8.1-8.1h-15c-4.5,0-8.1,3.6-8.1,8.1v5.6H85.2c-2.4,0-4.8,0.8-6.7,2.2C76.5,64,75,66,74.3,68.3
	c-0.1,0.3-0.1,0.6,0.1,0.8c0.1,0.3,0.4,0.4,0.6,0.5c0.3,0.1,0.6,0.1,0.8-0.1c0.3-0.1,0.5-0.4,0.5-0.6c0.6-1.9,1.8-3.5,3.3-4.6
	c1.6-1.2,3.5-1.8,5.4-1.8h54.4c5.1,0,9.2,4.1,9.2,9.2v5.6l-0.5,0.1c-2.5,0.2-5.7,0.4-9.5,0.6c-0.1,0-0.3,0-0.4,0.1
	c-0.1,0.1-0.2,0.1-0.4,0.2c-0.1,0.1-0.2,0.2-0.2,0.4c0,0.1-0.1,0.3-0.1,0.4c0,0.1,0,0.3,0.1,0.4c0.1,0.1,0.1,0.2,0.2,0.3
	c0.1,0.1,0.2,0.2,0.4,0.2c0.1,0,0.3,0.1,0.4,0.1c4.7-0.2,8.5-0.5,11.1-0.8h0.1c0.5,0.1,1,0.3,1.4,0.7c0.4,0.4,0.6,0.9,0.5,1.5
	c0,1.1-0.9,2.1-2,2.2c-0.1,0-0.2,0-0.2,0h-0.1l-0.5,0.1h-0.1c-0.2-0.1-0.3-0.1-0.5-0.1c-5.3,0.7-15.5,1.1-27.8,1.3
	c-5.5,0-11.4,0-16.9,0c-12.3-0.2-22.5-0.6-27.8-1.3c-0.2,0-0.3,0-0.5,0.1h-0.1l-0.6-0.1c-0.1,0-0.2,0-0.2,0c-1.1-0.1-2-1-2-2.2
	c0-0.5,0.2-1.1,0.5-1.5c0.4-0.4,0.8-0.7,1.4-0.7h0.1c10.5,1.2,35.8,1.5,54.1,1.1c0.1,0,0.3,0,0.4-0.1c0.1-0.1,0.2-0.1,0.3-0.2
	c0.1-0.1,0.2-0.2,0.2-0.3c0.1-0.1,0.1-0.3,0.1-0.4c0-0.1,0-0.3-0.1-0.4c-0.1-0.1-0.1-0.3-0.2-0.3c-0.1-0.1-0.2-0.2-0.4-0.2
	c-0.1,0-0.3-0.1-0.4-0.1l0,0C112,78.7,88,78.5,76.4,77.4l-0.5-0.1v-4.7c0-0.3-0.1-0.6-0.3-0.8c-0.2-0.2-0.5-0.3-0.8-0.3
	c-0.3,0-0.6,0.1-0.8,0.3c-0.2,0.2-0.3,0.5-0.3,0.8v4.7l-0.4,0.1c-1.8,0.6-3,2.4-2.9,4.3c0.1,1.9,1.4,3.5,3.3,4h0.1
	c0.1,0,0.2,0.1,0.3,0.1l0.5,0.1l0.3,1.5l-2.6,0.3c-1,0.1-1.8,1-1.8,2l0.6,10.2c0.1,1,1,1.8,2,1.8l4.3-0.3l3.4,18.8
	c0.1,0.3,0.2,0.5,0.4,0.7c0.2,0.2,0.5,0.2,0.8,0.2c0.3-0.1,0.5-0.2,0.7-0.4c0.2-0.2,0.2-0.5,0.2-0.8l-6.1-33.7l0.7,0.1
	c5.8,0.5,14.9,0.8,25.6,0.9c6,0.1,12.4,0.1,18.3,0c10.7-0.1,19.7-0.4,25.6-0.9l0.7-0.1l-8,47c0,0.1,0,0.3,0,0.4
	c0.1,0.3,0.2,0.5,0.5,0.7c0.1,0.1,0.3,0.1,0.4,0.1c0.1,0,0.3,0,0.4,0c0.1,0,0.3-0.1,0.4-0.2c0.1-0.1,0.2-0.2,0.3-0.3
	c0.1-0.1,0.1-0.3,0.1-0.4l5.5-32.1l4.3,0.3h0.1C152.9,101.7,153.7,100.9,153.8,99.9L153.8,99.9z M120.1,60.4h-15.4v-5.8h15.4V60.4z
	 M125.8,59.8h-3.6v-5c0-0.6-0.2-1.2-0.7-1.7c-0.4-0.4-1-0.7-1.7-0.7h-15c-1.3,0-2.3,1.1-2.3,2.3v5h-3.6v-5c0-3.3,2.7-6,6-6l0,0h15
	c3.3,0,6,2.7,6,6l0,0L125.8,59.8z M77.1,99.3l-3.8,0.2l-0.6-9.7l2.6-0.3L77.1,99.3z M151.6,99.5l-3.9-0.2l1.7-9.8l2.8,0.3
	L151.6,99.5z"/>
<path class="st1" d="M112.2,141.1c-0.4,0-0.8-0.1-1.2-0.2c-0.8-0.3-1.4-1-1.8-1.8c-0.2-0.4-0.2-0.8-0.2-1.2V96c0-0.9,0.4-1.7,1-2.3
	c1.3-1.3,3.3-1.3,4.6,0c0.6,0.6,0.9,1.4,0.9,2.3v41.8c0,0.4-0.1,0.8-0.2,1.2c-0.3,0.8-1,1.4-1.8,1.8
	C113.1,141,112.7,141.1,112.2,141.1z"/>
<path class="st6" d="M112.7,141h-0.4c-0.4,0-0.9-0.1-1.3-0.2c-0.8-0.3-1.4-1-1.8-1.8c-0.2-0.4-0.2-0.8-0.2-1.3V96
	c0-0.4,0.1-0.9,0.2-1.2c0.2-0.4,0.4-0.8,0.7-1.1c0.6-0.6,1.4-1,2.3-1h0.4c-1.7,0.2-2.9,1.6-2.9,3.3v41.8c0,0.8,0.3,1.6,0.8,2.2
	C111.2,140.5,111.9,140.9,112.7,141z"/>
<path class="st1" d="M98.4,140.8c-0.9,0.1-1.7-0.1-2.4-0.6c-0.7-0.5-1.2-1.3-1.3-2.2l-5.8-41.3c-0.1-0.4,0-0.9,0.1-1.3
	c0.2-0.8,0.8-1.6,1.5-2c0.4-0.2,0.8-0.3,1.2-0.4c0.4-0.1,0.9,0,1.3,0.1c0.4,0.1,0.8,0.3,1.2,0.6c0.3,0.3,0.6,0.6,0.8,1
	c0.2,0.4,0.4,0.8,0.4,1.2l5.8,41.4C101.4,139,100.2,140.7,98.4,140.8L98.4,140.8z"/>
<path class="st6" d="M98.8,140.8c-0.9,0.2-1.9,0.1-2.7-0.4c-0.4-0.3-0.7-0.6-1-1c-0.2-0.4-0.4-0.8-0.5-1.3l-5.8-41.4
	c-0.2-1.3,0.4-2.6,1.6-3.3c0.4-0.2,0.8-0.3,1.2-0.4h0.4c-1.6,0.4-2.6,2-2.4,3.6l5.8,41.4c0.1,0.8,0.5,1.5,1.1,2
	C97.2,140.5,98,140.8,98.8,140.8z"/>
<path class="st1" d="M126.3,140.8c0.9,0.1,1.7-0.1,2.4-0.6c0.4-0.3,0.6-0.6,0.9-1c0.2-0.4,0.4-0.8,0.4-1.2l5.6-41.4
	c0.1-0.9-0.1-1.7-0.6-2.4c-0.6-0.7-1.3-1.1-2.2-1.2c-0.9-0.1-1.7,0.1-2.4,0.6c-0.7,0.5-1.1,1.3-1.3,2.2l-5.6,41.4
	c-0.1,0.9,0.1,1.7,0.6,2.4c0.3,0.3,0.6,0.6,1,0.9C125.5,140.7,125.9,140.8,126.3,140.8z"/>
<path class="st6" d="M129.1,95.8l-5.6,41.4c-0.1,0.9,0.1,1.7,0.6,2.4c0.3,0.3,0.6,0.6,1,0.9c0.4,0.2,0.8,0.4,1.2,0.4
	c0.1,0,0.3,0,0.4,0c-1.6-0.4-2.6-2-2.4-3.6l5.6-41.4c0.2-1.6,1.6-2.8,3.3-2.8c-0.5-0.1-0.9-0.1-1.4-0.1c-0.5,0.1-0.9,0.2-1.3,0.5
	c-0.4,0.3-0.7,0.6-1,1C129.3,94.8,129.1,95.3,129.1,95.8L129.1,95.8z"/>
<path class="st9" d="M124,21.9c0-0.1,0-0.1,0-0.2c0-0.1,0-0.1,0.1-0.2c0-0.1,0.1-0.1,0.1-0.2c0.1,0,0.1-0.1,0.2-0.1l9.1-2.6
	c0.1,0,0.1,0,0.2,0c0.1,0,0.1,0,0.2,0.1c0.1,0,0.1,0.1,0.2,0.1c0,0.1,0.1,0.1,0.1,0.2l3.7,13c0.1,0.1,0.1,0.3,0,0.4
	c-0.1,0.1-0.2,0.2-0.3,0.3l-9.1,2.6c-0.3,0.1-0.6-0.1-0.7-0.4c0,0,0,0,0,0L124,21.9z"/>
<path class="st10" d="M137.6,32.8l-9.1,2.6c-0.2,0-0.3,0-0.5-0.1c-0.2-0.1-0.3-0.2-0.3-0.4l-3.7-13c0-0.2,0-0.3,0.1-0.5
	c0.1-0.1,0.2-0.3,0.4-0.3l9.1-2.6c0.1,0,0.2,0,0.2,0c0.1,0,0.2,0,0.2,0.1c0.1,0,0.1,0.1,0.2,0.2c0.1,0.1,0.1,0.1,0.1,0.2l3.7,13
	c0,0.1,0,0.2,0,0.2c0,0.2-0.1,0.3-0.2,0.4C137.7,32.7,137.6,32.8,137.6,32.8z M124.4,21.3c-0.1,0-0.2,0.1-0.3,0.2
	c-0.1,0.1-0.1,0.2,0,0.4l3.7,13c0,0.1,0.1,0.2,0.2,0.3c0.1,0.1,0.2,0.1,0.4,0l9.1-2.6c0.1,0,0.1,0,0.2-0.1c0.1,0,0.1-0.1,0.1-0.1
	c0-0.1,0.1-0.1,0.1-0.2c0-0.1,0-0.1,0-0.2l-3.7-13c0-0.1-0.1-0.2-0.2-0.3c-0.1-0.1-0.2-0.1-0.4,0L124.4,21.3z"/>
<path class="st11" d="M134.1,22.6c0,0,0,0.1,0,0.1c0,0,0,0.1-0.1,0.1l-7.8,2.2h-0.1l0,0c0,0,0,0,0,0l-0.8-2.7c0,0,0-0.1,0-0.1
	c0,0,0-0.1,0.1-0.1l7.8-2.2c0,0,0.1,0,0.1,0c0,0,0.1,0.1,0.1,0.1L134.1,22.6z"/>
<path class="st12" d="M134,22.8l-7.8,2.2c0,0-0.1,0-0.1,0c0,0-0.1-0.1-0.1-0.1l-0.8-2.7c0,0,0-0.1,0-0.1c0,0,0.1-0.1,0.1-0.1
	l7.8-2.2c0,0,0,0,0.1,0c0,0,0,0,0.1,0c0,0,0,0,0.1,0c0,0,0,0,0,0.1l0.8,2.7c0,0,0,0,0,0.1c0,0,0,0,0,0.1L134,22.8L134,22.8z
	 M125.4,22.1C125.4,22.1,125.4,22.1,125.4,22.1c-0.1,0.1-0.1,0.1-0.1,0.1l0.8,2.7c0,0,0,0,0,0.1h0.1l7.8-2.2c0,0,0,0,0.1,0
	c0,0,0-0.1,0-0.1l-0.8-2.7c0,0,0,0-0.1-0.1c0,0-0.1,0-0.1,0L125.4,22.1z"/>
<path class="st5" d="M131.8,25.8L131.8,25.8L131.8,25.8L131.8,25.8L131.8,25.8l-1.7,0.5h-0.1l0,0l0,0l-0.3-0.9c0,0,0-0.1,0-0.1
	c0,0,0,0,0.1,0l1.7-0.5c0,0,0.1,0,0.1,0c0,0,0,0,0.1,0.1L131.8,25.8z"/>
<path class="st5" d="M134.8,24.9L134.8,24.9L134.8,24.9L134.8,24.9L134.8,24.9l-1.7,0.5H133l0,0l0,0l-0.3-0.9c0,0,0-0.1,0-0.1
	c0,0,0,0,0.1-0.1l1.7-0.5c0,0,0.1,0,0.1,0c0,0,0,0,0,0.1L134.8,24.9z"/>
<path class="st5" d="M128.7,26.7C128.7,26.7,128.7,26.7,128.7,26.7L128.7,26.7L128.7,26.7L128.7,26.7l-1.7,0.5h-0.1c0,0,0,0-0.1-0.1
	l-0.2-0.9c0,0,0-0.1,0-0.1c0,0,0-0.1,0.1,0l1.7-0.5c0,0,0.1,0,0.1,0c0,0,0.1,0,0.1,0.1L128.7,26.7z"/>
<path class="st5" d="M130.7,27.4l0.8-0.2c0.1,0,0.1,0,0.2,0c0.1,0,0.2,0,0.2,0.1c0.1,0,0.1,0.1,0.2,0.1c0,0.1,0.1,0.1,0.1,0.2
	c0,0.2,0,0.3-0.1,0.5c-0.1,0.1-0.2,0.2-0.3,0.3l-0.8,0.2c-0.1,0-0.2,0-0.2,0c-0.1,0-0.1,0-0.2-0.1c-0.1,0-0.1-0.1-0.2-0.1
	c-0.1-0.1-0.1-0.1-0.1-0.2c0-0.1,0-0.2,0-0.2c0-0.1,0-0.1,0.1-0.2c0-0.1,0.1-0.1,0.1-0.2C130.6,27.5,130.6,27.4,130.7,27.4z"/>
<path class="st5" d="M135.4,27.1C135.5,27.2,135.5,27.2,135.4,27.1c0,0.1,0,0.1-0.1,0.1l-1.7,0.5c0,0-0.1,0-0.1,0c0,0,0,0-0.1-0.1
	l-0.3-0.9c0,0,0-0.1,0-0.1c0,0,0,0,0.1,0l1.7-0.5h0.1c0,0,0,0,0.1,0.1L135.4,27.1z"/>
<path class="st5" d="M129.4,28.9C129.4,28.9,129.4,29,129.4,28.9c0,0.1,0,0.1-0.1,0.1l-1.7,0.5c0,0-0.1,0-0.1,0c0,0,0,0-0.1-0.1
	l-0.3-0.9c0,0,0-0.1,0-0.1c0,0,0,0,0.1,0l1.7-0.5h0.1c0,0,0,0,0.1,0.1L129.4,28.9z"/>
<path class="st5" d="M133,30.3L133,30.3L133,30.3L133,30.3L133,30.3l-1.7,0.5h-0.1l0,0l0,0l-0.3-0.9c0,0,0-0.1,0-0.1c0,0,0,0,0.1,0
	l1.7-0.5c0,0,0.1,0,0.1,0c0,0,0,0,0,0.1L133,30.3z"/>
<path class="st5" d="M136.1,29.4L136.1,29.4L136.1,29.4L136.1,29.4L136.1,29.4l-1.7,0.5c0,0-0.1,0-0.1,0c0,0,0,0-0.1-0.1L134,29
	c0,0,0-0.1,0-0.1c0,0,0,0,0.1,0l1.7-0.5h0.1l0,0l0,0L136.1,29.4z"/>
<path class="st5" d="M129.9,31.2L129.9,31.2L129.9,31.2L129.9,31.2L129.9,31.2l-1.7,0.5h-0.1l0,0l0,0l-0.3-0.9c0,0,0-0.1,0-0.1
	c0,0,0-0.1,0.1,0l1.7-0.5l0,0l0,0l0,0l0,0L129.9,31.2z"/>
<path class="st5" d="M130.6,33.4L130.6,33.4L130.6,33.4L130.6,33.4L130.6,33.4l-1.7,0.5h-0.1l0,0l0,0l-0.3-0.9c0,0,0-0.1,0-0.1
	c0,0,0,0,0.1,0l1.7-0.5l0,0l0,0l0,0l0,0L130.6,33.4z"/>
<path class="st5" d="M136.7,31.7L136.7,31.7L136.7,31.7L136.7,31.7l-4.8,1.4h-0.1l0,0l0,0l-0.3-0.9c0,0,0-0.1,0-0.1
	c0,0,0-0.1,0.1-0.1l4.8-1.4h0.1l0,0l0,0L136.7,31.7z"/>
<path class="st12" d="M168.8,9.3l3.2,6.2c1.6-0.8,2.8-2.3,3.4-4L168.8,9.3z"/>
<path class="st10" d="M172,15.6L172,15.6L172,15.6l-3.2-6.2l0,0V9.3h0.1h0.1l6.6,2.2l0,0c0,0,0,0,0,0.1
	C174.9,13.3,173.6,14.7,172,15.6L172,15.6z M169,9.5l3,5.9c1.5-0.8,2.7-2.2,3.3-3.8L169,9.5z"/>
<path class="st5" d="M161.9,9c-0.1,2.3,1,4.5,2.9,5.9l4-5.6l-1.1-6.9C164.5,3,162,5.7,161.9,9z"/>
<path class="st10" d="M164.8,15L164.8,15c-1.6-1.1-2.6-2.7-2.9-4.6c-0.1-0.3-0.1-0.6-0.1-0.9c0-0.2,0-0.3,0-0.5v0
	c0.1-1.6,0.7-3.2,1.8-4.4c1.1-1.2,2.5-2,4.1-2.3c0,0,0,0,0.1,0c0,0,0,0,0,0.1l1.1,6.9c0,0,0,0,0,0.1L164.8,15
	C164.9,14.9,164.9,14.9,164.8,15L164.8,15z M162,9c0,0.2,0,0.3,0,0.5c0,0.3,0,0.6,0.1,0.9c0.3,1.8,1.2,3.3,2.7,4.4l4-5.5l-1.1-6.8
	c-1.6,0.3-3,1.1-4,2.3C162.6,6,162.1,7.4,162,9z"/>
<path class="st9" d="M168.8,9.3l-4,5.6c1,0.8,2.2,1.2,3.5,1.3c1.3,0.1,2.6-0.2,3.7-0.8L168.8,9.3z"/>
<path class="st10" d="M168.8,16.4c-1.5,0-2.9-0.5-4.1-1.3l0,0c0,0,0,0,0-0.1l0,0l4-5.6l0,0h0.1l0,0l0,0l3.2,6.2l0,0l0,0l0,0l0,0
	C171,16,169.9,16.3,168.8,16.4z M164.9,14.9c2,1.5,4.7,1.7,7,0.5l-3.1-6L164.9,14.9z"/>
<path class="st13" d="M171,2.6L171,2.6c-1-0.3-2.2-0.4-3.2-0.2l1.1,6.9l6.6,2.2c0.5-1.8,0.4-3.7-0.5-5.3
	C174.2,4.5,172.7,3.3,171,2.6L171,2.6z"/>
<path class="st10" d="M175.4,11.6L175.4,11.6l-6.6-2.2c0,0,0,0-0.1,0l0,0l-1.1-6.9c0,0,0,0,0-0.1c0,0,0,0,0.1,0
	c1.1-0.2,2.2-0.1,3.2,0.2l0,0C174.7,3.9,176.7,7.8,175.4,11.6L175.4,11.6L175.4,11.6L175.4,11.6z M168.9,9.2l6.5,2.1
	c0.5-1.7,0.4-3.6-0.4-5.2c-0.8-1.6-2.3-2.8-4-3.4l0,0c-1-0.3-2.1-0.4-3.1-0.2L168.9,9.2z"/>
<path class="st9" d="M35.5,93.8c-0.2,0.5-0.9,0.8-1.4,0.5c0,0,0,0,0,0l-15.6-7.2c-0.5-0.3-0.7-0.9-0.5-1.4l4.9-10.8L40.4,83
	L35.5,93.8z"/>
<path class="st10" d="M34,94.4l-15.6-7.2c-0.3-0.1-0.5-0.4-0.6-0.7c-0.1-0.3-0.1-0.6,0-0.9l5-10.8L40.5,83l-4.9,10.8
	c-0.1,0.3-0.4,0.5-0.7,0.6C34.6,94.5,34.3,94.5,34,94.4z M22.9,75L18,85.7c-0.1,0.2-0.1,0.5,0,0.8c0.1,0.3,0.3,0.5,0.5,0.6l15.6,7.2
	c0.2,0.1,0.5,0.1,0.8,0c0.3-0.1,0.5-0.3,0.6-0.5L40.3,83L22.9,75z"/>
<path class="st9" d="M34.9,80.4L34.9,80.4c0.5-1.7-0.4-3.5-2-4.3c-0.8-0.4-1.7-0.4-2.5-0.2c-0.8,0.2-1.5,0.8-2,1.5"/>
<path class="st10" d="M34.9,80.6L34.9,80.6L34.9,80.6l-0.2-0.1c0.2-0.8,0.2-1.7-0.2-2.5c-0.4-0.8-1-1.4-1.7-1.7
	c-0.8-0.4-1.6-0.4-2.4-0.2c-0.8,0.2-1.5,0.7-2,1.4l-0.1-0.1c1.1-1.7,3.4-2.2,5.2-1.1C34.8,77.2,35.5,78.9,34.9,80.6L34.9,80.6z"/>
<path class="st5" d="M40.4,83l-17.5-8.1l0,0.1c-1.1,4.6,1.2,9.4,5.5,11.4C36,90,40.4,83,40.4,83z"/>
<path class="st10" d="M28.2,86.5c-4.3-2-6.6-6.8-5.5-11.5l0,0l0-0.1l0,0h0.1L40.4,83l0,0c0,0,0,0,0,0.1l0,0
	c-0.8,1.2-1.9,2.3-3.2,3.1c-1.2,0.7-2.5,1.2-3.8,1.3C31.6,87.6,29.8,87.3,28.2,86.5z M22.9,75c-1.1,4.6,1.2,9.3,5.4,11.3
	c2.8,1.5,6.2,1.4,8.9-0.3c1.2-0.8,2.3-1.8,3.1-3L22.9,75L22.9,75z"/>
<path class="st9" d="M24.9,85.1c0,0.1-0.1,0.1-0.1,0.1c0,0-0.1,0.1-0.1,0.1c-0.1,0-0.1,0-0.2,0c-0.1,0-0.1,0-0.2,0l-0.9-0.4
	c-0.1,0-0.1-0.1-0.1-0.1c0,0-0.1-0.1-0.1-0.2c0-0.1,0-0.1,0-0.2c0-0.1,0-0.1,0-0.2l0.8-1.7c0-0.1,0.1-0.1,0.1-0.1
	c0,0,0.1-0.1,0.1-0.1c0.1,0,0.1,0,0.2,0h0.2l0.9,0.4c0.1,0,0.1,0.1,0.1,0.1c0,0,0.1,0.1,0.1,0.1c0,0.1,0,0.1,0,0.2
	c0,0.1,0,0.1,0,0.2L24.9,85.1z"/>
<path class="st10" d="M24.3,85.4L23.4,85c-0.1-0.1-0.2-0.2-0.3-0.3c-0.1-0.1-0.1-0.3,0-0.4l0.8-1.7c0.1-0.1,0.2-0.2,0.3-0.3
	c0.1-0.1,0.3-0.1,0.4,0l0.9,0.4c0.1,0.1,0.2,0.2,0.3,0.3c0.1,0.1,0.1,0.3,0,0.4l-0.8,1.7c-0.1,0.1-0.2,0.2-0.3,0.3
	C24.5,85.5,24.4,85.4,24.3,85.4z M24.5,82.5c-0.1,0-0.2,0-0.3,0c-0.1,0-0.2,0.1-0.2,0.2l-0.8,1.7c0,0.1,0,0.2,0,0.3
	c0,0.1,0.1,0.2,0.2,0.2l0.9,0.4c0.1,0,0.2,0,0.3,0c0.1,0,0.2-0.1,0.2-0.2l0.8-1.7c0-0.1,0-0.2,0-0.3c0-0.1-0.1-0.2-0.2-0.2
	L24.5,82.5z"/>
<path class="st9" d="M33.1,88.9c-0.1,0.1-0.1,0.2-0.2,0.2c-0.1,0-0.2,0-0.3,0l-0.9-0.4c0,0-0.1-0.1-0.1-0.1c0,0-0.1-0.1-0.1-0.1
	c0-0.1,0-0.1,0-0.2c0-0.1,0-0.1,0-0.2l0.8-1.7c0-0.1,0.1-0.1,0.1-0.1c0,0,0.1-0.1,0.1-0.1c0.1,0,0.1,0,0.2,0c0.1,0,0.1,0,0.2,0
	l0.9,0.4c0.1,0,0.2,0.1,0.2,0.2c0,0.1,0,0.2,0,0.3L33.1,88.9z"/>
<path class="st10" d="M32.5,89.2l-0.9-0.4c-0.1-0.1-0.2-0.2-0.3-0.3c-0.1-0.1-0.1-0.3,0-0.4l0.8-1.7c0.1-0.2,0.4-0.4,0.6-0.3
	c0,0,0,0,0,0l0.9,0.4c0.1,0.1,0.2,0.2,0.3,0.3c0.1,0.1,0.1,0.3,0,0.4l-0.8,1.7c-0.1,0.1-0.2,0.2-0.3,0.3
	C32.8,89.2,32.6,89.2,32.5,89.2z M32.7,86.3c-0.1,0-0.2,0-0.3,0c-0.1,0-0.2,0.1-0.2,0.2l-0.8,1.7c0,0.1,0,0.2,0,0.3
	c0,0.1,0.1,0.2,0.2,0.2l0.9,0.4c0,0,0.1,0,0.1,0c0,0,0.1,0,0.1,0c0,0,0.1,0,0.1,0c0,0,0.1-0.1,0.1-0.1l0.8-1.7c0,0,0-0.1,0-0.1
	c0,0,0-0.1,0-0.1c0,0,0-0.1-0.1-0.1l-0.1-0.1L32.7,86.3z"/>
<path class="st9" d="M185,94.4l-3.6,19.6l15.6,2.9l3.6-19.6L185,94.4z"/>
<path class="st10" d="M197,116.9L197,116.9l-15.6-2.9l0,0l0,0l3.6-19.6l0,0l0,0l15.6,2.9l0,0l0,0L197,116.9
	C197,116.9,197,116.9,197,116.9z M181.4,113.9l15.5,2.9l3.6-19.5L185,94.4L181.4,113.9z"/>
<path class="st10" d="M195.8,112.9L195.8,112.9l-11.7-2.2l0,0c0,0,0,0,0-0.1l2.3-12.4l0,0h0.1l0,0l0,0l-2.2,12.3l11.6,2.2l0,0l0,0
	l0,0l0,0L195.8,112.9z"/>
<path class="st5" d="M186.2,105.8l-0.7,3.8l1.8,0.3l0.7-3.8L186.2,105.8z"/>
<path class="st5" d="M188.8,107.3l-0.5,2.8l1.8,0.3l0.5-2.8L188.8,107.3z"/>
<path class="st5" d="M191.9,106.3l-0.8,4.3l1.9,0.4l0.8-4.3L191.9,106.3z"/>
<path class="st5" d="M195,105.3l-1,5.8l1.8,0.3l1.1-5.8L195,105.3z"/>
<path class="st5" d="M194.5,103.5l1.9-3l-3.4,0.7L194.5,103.5z"/>
<path class="st10" d="M194.5,103.7l-1.6-2.4l3.7-0.8L194.5,103.7z M193.1,101.3l0.6,0.8l0.9,1.3l1.8-2.8L193.1,101.3z"/>
<path class="st10" d="M190.6,104.6L190.6,104.6L190.6,104.6L190.6,104.6L190.6,104.6l-1.6-2.2l-2.8,1.9h-0.1l0,0l0,0l0,0l0,0l0,0
	l2.8-2h0.1l0,0L190.6,104.6l2.9-2.2h0.1l0,0l0,0l0,0l0,0L190.6,104.6z"/>
<g>
	<defs>
		<rect id="SVGID_1_" x="48.1" y="132.2" width="18.2" height="18.6"/>
	</defs>
	<clipPath id="SVGID_2_">
		<use xlink:href="#SVGID_1_"  style="overflow:visible;"/>
	</clipPath>
	<g class="st14">
		<path class="st5" d="M51.1,133.9l-1.2,1.2l2.5,2.7l1.3-1.2L51.1,133.9z"/>
		<path class="st15" d="M53.8,136.6l-1.4,1.4l-2.7-2.8l1.4-1.4L53.8,136.6z M52.4,137.6l1.1-1l-2.4-2.5l-1.1,1L52.4,137.6z"/>
		<path class="st5" d="M63.1,136.2c3.1,3.2,2.9,8.4-0.3,11.4c-3.2,3.1-8.4,2.9-11.4-0.3c-0.7-0.8-1.3-1.7-1.7-2.7
			c-0.6-1.5-0.7-3.1-0.3-4.7c1-4.4,5.3-7.1,9.7-6.1C60.6,134.2,62,135,63.1,136.2L63.1,136.2z"/>
		<path class="st15" d="M62.9,147.7c-3.3,3.1-8.5,2.9-11.6-0.4c-3.1-3.3-2.9-8.5,0.4-11.6c2-1.9,4.7-2.6,7.4-2
			c3.8,0.9,6.5,4.3,6.4,8.3C65.4,144.2,64.5,146.2,62.9,147.7z M51.8,136c-3.2,3.1-3.3,8.1-0.2,11.3c1.4,1.5,3.4,2.4,5.5,2.4
			c4.4,0.1,8.1-3.4,8.2-7.8c0-0.5,0-1-0.1-1.5c-0.8-4.3-4.9-7.2-9.3-6.5C54.3,134.2,52.9,134.9,51.8,136z"/>
		<path class="st5" d="M48.7,134.8l2.1-2c0.8-0.8,1.1-0.4,1.5,0s0.8,0.6,0,1.5l-2.1,2c-0.7,0.7-1.1,0.4-1.5,0S47.9,135.6,48.7,134.8
			z"/>
		<path class="st15" d="M52.7,134.1l-2.8,2.7c-0.1,0.1-0.3,0.2-0.5,0.2c-0.2,0-0.3-0.1-0.5-0.2l-0.7-0.7c-0.3-0.3-0.3-0.7,0-0.9
			l2.8-2.7c0.1-0.1,0.3-0.2,0.5-0.2c0.2,0,0.3,0.1,0.5,0.2l0.7,0.7c0.1,0.1,0.2,0.3,0.2,0.5C52.9,133.8,52.8,133.9,52.7,134.1z
			 M48.5,135.2c0,0-0.1,0.1-0.1,0.1c0,0.1,0,0.1,0,0.2c0,0.1,0,0.1,0,0.2c0,0.1,0.1,0.1,0.1,0.1l0.7,0.7c0.1,0.1,0.2,0.1,0.3,0.1
			c0.1,0,0.2,0,0.3-0.1l2.8-2.7c0.2-0.2,0.2-0.4,0-0.6c0,0,0,0,0,0l-0.7-0.7c-0.1-0.1-0.2-0.1-0.3-0.1c-0.1,0-0.2,0-0.3,0.1
			L48.5,135.2z"/>
		<path class="st9" d="M61.6,146.4c2.6-2.4,2.7-6.4,0.3-9s-6.4-2.7-9-0.3c-2.6,2.4-2.7,6.4-0.3,9c0,0,0,0,0,0
			C55,148.7,59.1,148.8,61.6,146.4z"/>
		<path class="st10" d="M61.7,146.4c-2.6,2.4-6.6,2.3-9.1-0.2c-0.3-0.3-0.5-0.6-0.8-1c-0.7-1.1-1-2.3-1-3.6c0-1.3,0.4-2.5,1.2-3.5
			c2-2.9,6-3.6,8.9-1.6c2.9,2,3.6,6,1.6,8.9C62.2,145.8,62,146.1,61.7,146.4L61.7,146.4z M52.9,137.2c-2.5,2.4-2.6,6.4-0.2,8.9
			c0.3,0.3,0.6,0.6,0.9,0.8c2.1,1.5,4.8,1.5,7,0.2c1.1-0.7,1.9-1.6,2.4-2.8c1.4-3.2,0-6.9-3.2-8.4C57.5,134.9,54.7,135.4,52.9,137.2
			L52.9,137.2z"/>
		<path class="st5" d="M57.4,141.4c0,0,0.1,0.1,0.1,0.1c0,0,0,0.1,0,0.1c0,0,0,0.1,0,0.1c0,0-0.1,0.1-0.1,0.1c0,0-0.1,0.1-0.1,0.1
			c0,0-0.1,0-0.1,0c0,0-0.1,0-0.1,0c0,0-0.1,0-0.1-0.1l-1.8-1.9c-0.1-0.1-0.1-0.2-0.1-0.2c0-0.1,0-0.2,0.1-0.2
			c0.1-0.1,0.2-0.1,0.2-0.1c0.1,0,0.2,0,0.2,0.1L57.4,141.4z"/>
		<path class="st15" d="M57.5,142c-0.1,0.1-0.2,0.1-0.3,0.1c-0.1,0-0.3-0.1-0.3-0.1l-1.8-1.9c-0.1-0.1-0.1-0.2-0.1-0.3
			c0-0.1,0.1-0.2,0.2-0.3c0.1-0.1,0.2-0.1,0.3-0.1c0.1,0,0.2,0.1,0.3,0.1l1.8,1.9c0.1,0.1,0.1,0.2,0.1,0.3
			C57.6,141.8,57.6,141.9,57.5,142z M55.2,139.6c0,0-0.1,0.1-0.1,0.2c0,0.1,0,0.1,0.1,0.2l1.8,1.8c0,0,0,0,0.1,0.1c0,0,0.1,0,0.1,0
			h0.1l0.1-0.1c0,0,0,0,0.1-0.1c0,0,0-0.1,0-0.1c0,0,0-0.1,0-0.1c0,0,0-0.1-0.1-0.1l-1.8-1.9c0,0-0.1-0.1-0.2-0.1
			C55.3,139.5,55.3,139.5,55.2,139.6L55.2,139.6z"/>
		<path class="st16" d="M54.1,137.9c0,0,0.1,0.1,0.1,0.1c0,0,0,0.1,0,0.1c0,0,0,0.1,0,0.1c0,0,0,0.1-0.1,0.1c0,0-0.1,0.1-0.1,0.1
			h-0.1c0,0-0.1,0-0.1,0c0,0-0.1,0-0.1-0.1l-0.2-0.2c0,0-0.1-0.1-0.1-0.1c0,0,0-0.1,0-0.1v-0.1c0,0,0-0.1,0.1-0.1
			c0,0,0.1-0.1,0.1-0.1h0.1c0,0,0.1,0,0.1,0c0,0,0.1,0,0.1,0.1L54.1,137.9z"/>
		<path class="st15" d="M54.1,138.4c-0.1,0.1-0.2,0.1-0.3,0.1c-0.1,0-0.2-0.1-0.3-0.1l-0.2-0.2c-0.1-0.1-0.1-0.2-0.1-0.3
			c0-0.1,0.1-0.2,0.1-0.3c0.1-0.1,0.2-0.1,0.3-0.1c0.1,0,0.2,0.1,0.3,0.1l0.2,0.2c0.1,0.1,0.1,0.2,0.1,0.3
			C54.3,138.3,54.2,138.4,54.1,138.4z M53.5,137.7c0,0-0.1,0.1-0.1,0.2c0,0.1,0,0.1,0.1,0.2l0.2,0.2c0,0,0,0,0.1,0.1h0.1
			c0,0,0.1,0,0.1,0c0,0,0.1,0,0.1,0c0,0,0-0.1,0-0.1c0,0,0-0.1,0-0.1c0,0,0-0.1,0-0.1c0,0,0,0,0-0.1l-0.2-0.2c0,0-0.1-0.1-0.2-0.1
			C53.6,137.7,53.5,137.7,53.5,137.7L53.5,137.7z"/>
		<path class="st16" d="M61.2,145.4c0.1,0.1,0.1,0.1,0.1,0.2c0,0.1,0,0.2-0.1,0.2c-0.1,0.1-0.1,0.1-0.2,0.1c-0.1,0-0.2,0-0.2-0.1
			l-0.2-0.2c0,0-0.1-0.1-0.1-0.1c0,0,0-0.1,0-0.1c0,0,0-0.1,0-0.1c0,0,0-0.1,0.1-0.1c0,0,0.1-0.1,0.1-0.1h0.1c0,0,0.1,0,0.1,0
			l0.1,0.1L61.2,145.4z"/>
		<path class="st15" d="M61.3,146c-0.1,0.1-0.2,0.1-0.3,0.1c-0.1,0-0.2-0.1-0.3-0.1l-0.2-0.2c-0.1-0.1-0.1-0.2-0.1-0.3
			c0-0.1,0.1-0.2,0.1-0.3c0.1-0.1,0.2-0.1,0.3-0.1c0.1,0,0.2,0,0.3,0.1l0.2,0.2c0.1,0.1,0.1,0.2,0.1,0.3
			C61.4,145.8,61.4,145.9,61.3,146z M60.6,145.3c0,0-0.1,0.1-0.1,0.2c0,0.1,0,0.1,0.1,0.2l0.2,0.2l0.1,0.1H61H61c0,0,0.1,0,0.1-0.1
			c0,0,0,0,0-0.1c0,0,0-0.1,0-0.1c0,0,0-0.1,0-0.1c0,0,0-0.1,0-0.1l-0.2-0.2l-0.1-0.1h-0.1L60.6,145.3
			C60.6,145.3,60.6,145.3,60.6,145.3L60.6,145.3z"/>
		<path class="st16" d="M53.4,145c0.1-0.1,0.1-0.1,0.2-0.1c0.1,0,0.2,0,0.2,0.1c0.1,0.1,0.1,0.2,0.1,0.2c0,0.1,0,0.2-0.1,0.2l0,0
			l-0.2,0.2l-0.1,0.1h-0.1c0,0-0.1,0-0.1,0c0,0-0.1,0-0.1-0.1c0,0-0.1-0.1-0.1-0.1c0,0,0-0.1,0-0.1c0,0,0-0.1,0-0.1
			c0,0,0-0.1,0.1-0.1L53.4,145z"/>
		<path class="st15" d="M53.9,145.6l-0.2,0.2c-0.1,0.1-0.2,0.1-0.3,0.1c-0.1,0-0.2,0-0.3-0.1c-0.1-0.1-0.1-0.2-0.1-0.3
			c0-0.1,0-0.2,0.1-0.3l0,0l0.2-0.2c0,0,0.1-0.1,0.1-0.1c0.1,0,0.1,0,0.2,0c0.1,0,0.1,0,0.2,0c0.1,0,0.1,0.1,0.2,0.1
			c0,0,0.1,0.1,0.1,0.1c0,0.1,0,0.1,0,0.2c0,0.1,0,0.1,0,0.2C54,145.5,54,145.5,53.9,145.6L53.9,145.6z M53.2,145.3
			c0,0-0.1,0.1-0.1,0.1c0,0.1,0,0.1,0,0.2c0,0,0.1,0.1,0.2,0.1c0.1,0,0.1,0,0.2-0.1l0,0l0.2-0.2c0,0,0,0,0.1-0.1c0,0,0-0.1,0-0.1
			c0,0,0-0.1,0-0.1l0-0.1c0,0,0,0-0.1-0.1h-0.1h-0.1l-0.1,0.1L53.2,145.3z"/>
		<path class="st16" d="M60.9,137.9C61,137.8,61,137.8,60.9,137.9l0.2-0.1h0.1c0,0,0.1,0,0.1,0.1c0,0,0.1,0.1,0.1,0.1
			c0,0,0,0.1,0,0.1c0,0,0,0.1,0,0.1c0,0,0,0.1-0.1,0.1l0,0l-0.2,0.2c-0.1,0.1-0.2,0.1-0.2,0.1c-0.1,0-0.2,0-0.2-0.1
			c-0.1-0.1-0.1-0.2-0.1-0.2c0-0.1,0-0.2,0.1-0.2L60.9,137.9z"/>
		<path class="st15" d="M61.5,138.4l-0.2,0.2c-0.2,0.2-0.4,0.2-0.6,0c-0.1-0.1-0.1-0.2-0.1-0.3c0-0.1,0.1-0.2,0.1-0.3l0.2-0.2
			c0,0,0.1-0.1,0.2-0.1c0.1-0.1,0.2-0.1,0.3,0c0.1,0,0.2,0.1,0.2,0.2c0,0.1,0,0.2,0,0.3C61.6,138.4,61.5,138.4,61.5,138.4
			L61.5,138.4z M60.8,138.1c0,0-0.1,0.1-0.1,0.2c0,0.1,0,0.1,0.1,0.1c0,0,0.1,0.1,0.2,0.1c0.1,0,0.1,0,0.2-0.1l0.2-0.2
			c0,0,0.1-0.1,0.1-0.2c0-0.1,0-0.1,0-0.2c0,0-0.1-0.1-0.2-0.1c-0.1,0-0.1,0-0.2,0l0,0L60.8,138.1z"/>
		<path class="st17" d="M60.2,139.4l-2.8,2.7l-0.1,0.1c0,0-0.1,0-0.1,0c0,0-0.1,0-0.1,0c0,0-0.1,0-0.1-0.1c0,0-0.1-0.1-0.1-0.1
			c0,0,0-0.1,0-0.1c0,0,0-0.1,0-0.1c0,0,0-0.1,0.1-0.1l0,0l2.8-2.7c0.1-0.1,0.2-0.1,0.3-0.1c0.1,0,0.2,0,0.2,0.1
			c0.1,0.1,0.1,0.2,0.1,0.2C60.3,139.3,60.2,139.4,60.2,139.4z M57.1,141.8L57.1,141.8L57.1,141.8L57.1,141.8L57.1,141.8L57.1,141.8
			l2.8-2.6l0,0v-0.1l0,0l0,0l0,0l0,0L57.1,141.8z"/>
		<path class="st15" d="M60.2,139.5l-2.8,2.7c-0.1,0.1-0.2,0.1-0.3,0.1c-0.1,0-0.2-0.1-0.3-0.1c-0.1-0.1-0.1-0.2-0.1-0.3
			c0-0.1,0-0.2,0.1-0.3l2.8-2.7c0.1-0.1,0.2-0.1,0.3-0.1c0.1,0,0.2,0,0.3,0.1c0.1,0.1,0.1,0.2,0.1,0.3
			C60.3,139.3,60.3,139.4,60.2,139.5L60.2,139.5z M56.9,141.6C56.9,141.6,56.9,141.7,56.9,141.6c-0.1,0.1-0.1,0.2-0.1,0.2
			c0,0,0,0.1,0,0.1c0,0,0,0.1,0.1,0.1c0,0,0.1,0.1,0.1,0.1h0.1h0.1l0.1-0.1l0,0l2.8-2.7c0.1-0.1,0.1-0.1,0.1-0.2
			c0-0.1,0-0.2-0.1-0.2c-0.1-0.1-0.1-0.1-0.2-0.1c-0.1,0-0.2,0-0.2,0.1L56.9,141.6z M60,139.2l-2.8,2.7l0,0h-0.1l0,0l0,0v-0.1l0,0
			l0,0L60,139.2C59.9,139.2,60,139.2,60,139.2C60,139.2,60.1,139.2,60,139.2C60.1,139.3,60.1,139.3,60,139.2L60,139.2z M57.1,141.8
			L57.1,141.8l2.9-2.6l0,0L57.1,141.8z"/>
		<path class="st5" d="M57.8,141.2c0.1,0.1,0.2,0.3,0.2,0.4c0,0.2,0,0.3-0.1,0.4c-0.1,0.1-0.2,0.3-0.3,0.3c-0.1,0.1-0.3,0.1-0.4,0.1
			c-0.3,0-0.6-0.2-0.7-0.5c-0.1-0.1-0.1-0.3,0-0.4c0-0.2,0.1-0.3,0.2-0.4c0.2-0.1,0.4-0.2,0.6-0.2C57.5,141,57.7,141.1,57.8,141.2z"
			/>
		<path class="st15" d="M57.9,142.4c-0.1,0.1-0.3,0.2-0.5,0.2c-0.4,0.1-0.7-0.1-0.9-0.4c-0.1-0.1-0.1-0.3-0.1-0.5
			c0-0.2,0.1-0.4,0.2-0.5c0.1-0.1,0.2-0.3,0.4-0.3c0.2-0.1,0.4-0.1,0.5,0c0.2,0,0.3,0.1,0.5,0.2c0.1,0.1,0.1,0.2,0.2,0.3
			c0,0.1,0.1,0.2,0.1,0.4c0,0.1,0,0.2-0.1,0.3C58,142.2,58,142.3,57.9,142.4z M56.8,141.3c-0.1,0.1-0.2,0.2-0.2,0.3
			c0,0.1,0,0.3,0,0.4c0.1,0.1,0.1,0.2,0.2,0.3c0.1,0.1,0.2,0.1,0.4,0.1c0.1,0,0.3,0,0.4-0.1c0.1-0.1,0.2-0.2,0.2-0.3
			c0.1-0.1,0.1-0.3,0-0.4c0-0.1-0.1-0.3-0.2-0.4c-0.1-0.1-0.1-0.1-0.2-0.1c-0.1,0-0.2,0-0.2,0c-0.1,0-0.2,0-0.3,0
			C56.9,141.2,56.9,141.2,56.8,141.3L56.8,141.3z"/>
	</g>
</g>
<path class="st11" d="M77.2,18.5c-0.3-0.8-0.2-1.7,0.2-2.5c0.9-1.6,2.8-2.2,4.4-1.3c0.7,0.4,1.3,1.1,1.6,1.9l0.6,1.5
	c0.6,1.7-0.4,3.6-2.1,4.2c-0.8,0.3-1.7,0.2-2.5-0.2c-0.8-0.4-1.4-1.1-1.7-1.9c0,0,0-0.1,0-0.1L77.2,18.5z"/>
<path class="st10" d="M81.8,22.3c-0.8,0.3-1.8,0.2-2.6-0.2c-0.8-0.4-1.4-1.1-1.7-2l-0.5-1.5C77,18.1,77,17.7,77,17.2
	c0-0.4,0.2-0.8,0.4-1.2c0.4-0.8,1.1-1.4,2-1.7c0.4-0.1,0.9-0.2,1.3-0.1c0.9,0.1,1.7,0.5,2.3,1.2c0.3,0.3,0.5,0.7,0.6,1.2L84,18
	C84.6,19.8,83.6,21.7,81.8,22.3C81.8,22.3,81.8,22.3,81.8,22.3L81.8,22.3z M79.4,14.4c-1.7,0.5-2.6,2.4-2.1,4.1l0.5,1.5
	c0.1,0.4,0.3,0.8,0.6,1.1c0.8,1,2.2,1.4,3.4,1c0.4-0.1,0.8-0.3,1.1-0.6c0.3-0.3,0.6-0.6,0.8-1c0.2-0.4,0.3-0.7,0.3-1.1
	c0-0.4,0-0.9-0.1-1.3l0,0l-0.5-1.5C82.9,14.9,81.1,13.9,79.4,14.4L79.4,14.4z"/>
<path class="st18" d="M81.3,20.7c-1.7,0.5-3.6-0.4-4.1-2.2c-0.1-0.2-0.1-0.4-0.1-0.6c-0.2-1.3,0.5-2.6,1.7-3.3
	c0.6-0.3,1.2-0.4,1.9-0.4c0.7,0,1.3,0.3,1.8,0.7c1.4,1.2,1.6,3.3,0.5,4.7C82.5,20.1,81.9,20.5,81.3,20.7z"/>
<path class="st10" d="M81.3,20.8c-0.7,0.2-1.3,0.2-2,0c-0.6-0.2-1.2-0.6-1.6-1.1c-0.4-0.5-0.7-1.1-0.7-1.8c-0.1-1.4,0.5-2.7,1.7-3.3
	c0.6-0.3,1.2-0.5,1.9-0.4c1.9,0.2,3.2,1.8,3.1,3.7C83.6,19.2,82.7,20.3,81.3,20.8L81.3,20.8z M79.3,14.4c-0.6,0.2-1.2,0.6-1.6,1.1
	c-0.4,0.5-0.6,1.1-0.7,1.8c-0.1,0.6,0.1,1.3,0.4,1.9c0.3,0.6,0.8,1,1.3,1.3c0.6,0.3,1.2,0.4,1.8,0.4c1.3-0.1,2.4-1.1,2.8-2.3
	c0.2-0.6,0.2-1.3,0-1.9c-0.3-0.8-0.8-1.5-1.6-1.9C81.1,14.2,80.2,14.2,79.3,14.4L79.3,14.4z"/>
<path class="st5" d="M76.8,8.8l-16.7,5.3l2.7,8.5l16.7-5.3L76.8,8.8z"/>
<path class="st10" d="M79.4,17.4l-16.7,5.3l0,0l0,0L60,14.1l0,0l0,0l16.7-5.4h0.1l0,0l2.7,8.5l0,0l0,0l0,0l0,0L79.4,17.4z
	 M62.8,22.5l16.6-5.2l-2.6-8.4l-16.6,5.2L62.8,22.5z"/>
<path class="st19" d="M63.9,20.6l13.7-4.3l-1.7-5.4l-13.7,4.3L63.9,20.6z"/>
<path class="st10" d="M77.6,16.3l-13.7,4.3l-1.7-5.4l13.7-4.3L77.6,16.3z M63.9,20.5l13.6-4.3l-1.7-5.3l-13.6,4.3L63.9,20.5z"/>
<path class="st9" d="M73.1,14.7c0.2,0.6,0.2,1.3,0,1.9c-0.2,0.6-0.5,1.2-1,1.6c-1.4,1.2-3.5,0.9-4.7-0.5c-0.1-0.2-0.2-0.3-0.3-0.5
	c-0.3-0.6-0.4-1.2-0.4-1.9c0.1-0.7,0.3-1.3,0.7-1.8c0.7-0.9,1.8-1.3,2.9-1.2c0.4,0,0.9,0.2,1.2,0.4c0.4,0.2,0.7,0.5,1,0.8
	C72.8,13.9,73,14.3,73.1,14.7z"/>
<path class="st10" d="M70.9,19c-1.3,0.4-2.7,0-3.6-1.1c-0.9-1.1-1-2.5-0.4-3.8c0.3-0.6,0.8-1.1,1.4-1.4c0.6-0.3,1.3-0.5,1.9-0.4
	c1.4,0.1,2.5,1.1,2.9,2.4c0.1,0.4,0.2,0.8,0.1,1.3c0,0.4-0.2,0.9-0.4,1.3c-0.2,0.4-0.5,0.7-0.8,1C71.7,18.6,71.3,18.8,70.9,19z
	 M68.9,12.6c-1.2,0.4-2.1,1.5-2.3,2.8c-0.1,0.6,0.1,1.3,0.4,1.9c0.3,0.6,0.8,1,1.3,1.3c0.6,0.3,1.2,0.4,1.8,0.4
	c1.3-0.1,2.4-1.1,2.8-2.4c0.5-1.7-0.5-3.5-2.3-4C70.1,12.4,69.5,12.4,68.9,12.6L68.9,12.6z"/>
<path class="st10" d="M75.8,14.1c0.1,0.4,0,0.8-0.3,1c-0.1,0.1-0.3,0.2-0.5,0.2c-0.2,0-0.4,0-0.5-0.1c-0.2-0.1-0.3-0.2-0.4-0.4
	c-0.2-0.3-0.1-0.7,0.1-1c0.1-0.1,0.3-0.2,0.4-0.3c0.2-0.1,0.5,0,0.7,0.1C75.6,13.7,75.7,13.9,75.8,14.1z"/>
<path class="st10" d="M65.2,18.4c-0.1,0-0.2,0.1-0.3,0c-0.1,0-0.2,0-0.3-0.1c-0.1-0.1-0.2-0.1-0.3-0.2c-0.1-0.1-0.1-0.2-0.2-0.3
	c0-0.1,0-0.2,0-0.4c0-0.1,0-0.2,0.1-0.4c0.1-0.1,0.1-0.2,0.2-0.3c0.1-0.1,0.2-0.1,0.3-0.2l0,0c0.2-0.1,0.5,0,0.7,0.1
	c0.4,0.2,0.6,0.8,0.3,1.2C65.6,18.1,65.5,18.3,65.2,18.4L65.2,18.4z"/>
<path class="st11" d="M76.2,15.4c-0.2-0.8-0.2-1.7,0.2-2.5c0.4-0.8,1.1-1.3,1.9-1.6c0.8-0.3,1.7-0.2,2.5,0.2
	c0.8,0.4,1.4,1.1,1.6,1.9l0.5,1.5c0.3,0.8,0.2,1.8-0.2,2.5C82,19.1,80,19.8,78.4,19c-0.8-0.4-1.4-1.1-1.7-2v-0.1L76.2,15.4z"/>
<path class="st10" d="M80.8,19.1c-1.8,0.6-3.7-0.4-4.2-2.2c0,0,0,0,0,0l-0.5-1.6C76,14.9,76,14.5,76,14.1c0-0.4,0.2-0.9,0.4-1.3
	c0.2-0.4,0.5-0.7,0.8-1c0.7-0.6,1.6-0.9,2.5-0.8c0.4,0,0.9,0.2,1.3,0.4c0.4,0.2,0.7,0.5,1,0.8c0.3,0.3,0.5,0.7,0.6,1.2l0.5,1.5
	C83.6,16.7,82.6,18.6,80.8,19.1C80.8,19.1,80.8,19.1,80.8,19.1L80.8,19.1z M78.4,11.3c-1.7,0.5-2.6,2.4-2.1,4.1c0,0,0,0,0,0l0.5,1.5
	c0.4,1.7,2.1,2.8,3.9,2.5c1.7-0.4,2.8-2.1,2.5-3.9c0-0.2-0.1-0.3-0.1-0.5l0,0l-0.5-1.6c-0.3-0.8-0.8-1.5-1.6-1.9
	C80.1,11.1,79.2,11,78.4,11.3z"/>
<path class="st18" d="M80.3,17.5c-0.6,0.2-1.3,0.2-1.9,0c-0.6-0.2-1.2-0.5-1.6-1c-0.9-1-1-2.5-0.4-3.7c0.6-1.2,1.9-1.9,3.2-1.8
	c1.3,0.1,2.5,1,2.9,2.3c0.3,0.8,0.2,1.8-0.2,2.5C81.9,16.7,81.2,17.3,80.3,17.5z"/>
<path class="st10" d="M80.4,17.6c-0.7,0.2-1.3,0.2-2,0c-0.6-0.2-1.2-0.6-1.6-1.1c-0.4-0.5-0.7-1.1-0.7-1.8c-0.1-1.4,0.5-2.7,1.7-3.3
	c0.6-0.3,1.2-0.4,1.9-0.4c1.9,0.2,3.2,1.8,3.1,3.7C82.6,16.1,81.7,17.2,80.4,17.6L80.4,17.6z M78.4,11.3c-0.6,0.2-1.2,0.6-1.6,1.1
	c-0.4,0.5-0.6,1.1-0.7,1.8c-0.1,0.6,0.1,1.3,0.4,1.9c0.3,0.6,0.8,1,1.3,1.3c0.6,0.3,1.2,0.4,1.8,0.4c1.3-0.1,2.4-1.1,2.8-2.3
	c0.2-0.6,0.2-1.3,0-1.9c-0.3-0.8-0.8-1.5-1.6-1.9C80.1,11.1,79.2,11,78.4,11.3L78.4,11.3z"/>
<path class="st10" d="M69,16.6l-0.2-0.4l-0.6,0.2v0.4l-0.3,0.1l0.1-1.8l0.4-0.1l1,1.5L69,16.6z M68.2,15.4v0.7l0.4-0.1L68.2,15.4
	L68.2,15.4z"/>
<path class="st10" d="M70.5,15.9l0.1,0.3l-1.1,0.3l-0.4-1.6l1.1-0.3l0.1,0.3L69.5,15l0.1,0.4l0.7-0.2l0.1,0.3l-0.7,0.2l0.1,0.4
	L70.5,15.9z"/>
<path class="st10" d="M70.4,14.4l0.6-0.2c0.1,0,0.2,0,0.3,0c0.1,0,0.2,0,0.3,0.1c0.1,0.1,0.2,0.1,0.2,0.2c0.1,0.1,0.1,0.2,0.1,0.3
	c0.1,0.2,0.1,0.5,0,0.7c-0.1,0.1-0.1,0.2-0.2,0.2c-0.1,0.1-0.2,0.1-0.3,0.1l-0.6,0.2L70.4,14.4z M70.8,14.6l0.3,1.1l0.2-0.1
	c0.1,0,0.2-0.1,0.3-0.2c0.1-0.1,0.1-0.3,0-0.4c0-0.1-0.1-0.3-0.2-0.4c-0.1,0-0.1-0.1-0.2-0.1c-0.1,0-0.1,0-0.2,0L70.8,14.6z"/>
<path class="st10" d="M78.7,15.1l-0.2-0.3L78,14.9v0.4l-0.3,0.1l0.1-1.6l0.3-0.1L79,15L78.7,15.1z M78,14.1v0.6l0.4-0.1L78,14.1
	L78,14.1z"/>
<path class="st10" d="M80,14.5l0.1,0.2l-1,0.3l-0.4-1.4l1-0.3l0.1,0.2l-0.6,0.2l0.1,0.4l0.6-0.2l0.1,0.2l-0.6,0.2l0.1,0.4L80,14.5z"
	/>
<path class="st10" d="M79.9,13.2l0.5-0.1c0.1,0,0.2,0,0.3,0c0.1,0,0.2,0,0.3,0.1c0.1,0,0.2,0.1,0.2,0.2c0.1,0.1,0.1,0.2,0.1,0.3
	c0.1,0.2,0.1,0.4,0,0.6c0,0.1-0.1,0.2-0.2,0.2c-0.1,0.1-0.2,0.1-0.3,0.1l-0.5,0.1L79.9,13.2z M80.2,13.4l0.3,0.9l0.2-0.1
	c0.1,0,0.1,0,0.2-0.1c0,0,0.1-0.1,0.1-0.1c0.1-0.1,0.1-0.3,0-0.4c0-0.1-0.1-0.2-0.2-0.3c-0.1,0-0.1,0-0.2,0c-0.1,0-0.1,0-0.2,0
	L80.2,13.4z"/>
<path class="st9" d="M115,179.8l12.1,5.8c0.4,0.2,0.8,0.2,1.2,0.1c0.4-0.1,0.7-0.4,0.9-0.8l5-10.4l-14.9-7.2l-5,10.4
	c-0.2,0.4-0.2,0.8-0.1,1.2C114.3,179.3,114.6,179.6,115,179.8z"/>
<path class="st10" d="M127.1,185.7l-12.2-5.8c-0.8-0.4-1.1-1.4-0.8-2.2l5-10.4l0,0h0.1l14.9,7.2c0,0,0,0,0,0.1c0,0,0,0,0,0.1
	l-5,10.4C128.8,185.8,127.8,186.2,127.1,185.7C127,185.8,127,185.8,127.1,185.7L127.1,185.7z M119.3,167.4l-4.9,10.4
	c-0.3,0.7,0,1.6,0.7,1.9l12.2,5.8c0.7,0.3,1.6,0,1.9-0.7l4.9-10.4L119.3,167.4z"/>
<path class="st5" d="M135,172.7c0.1-0.2,0.1-0.4,0.1-0.6c0-0.2,0-0.4-0.1-0.6c-0.1-0.2-0.2-0.4-0.3-0.5c-0.1-0.2-0.3-0.3-0.5-0.4
	l-12.1-5.8c-0.2-0.1-0.4-0.1-0.6-0.1c-0.2,0-0.4,0-0.6,0.1c-0.4,0.1-0.7,0.4-0.9,0.8l-0.8,1.8l14.9,7.2L135,172.7z"/>
<path class="st10" d="M134.1,174.6l-14.9-7.2l0,0c0,0,0,0,0-0.1l0.8-1.8c0.2-0.4,0.5-0.7,0.9-0.8c0.4-0.1,0.9-0.1,1.2,0.1l12.2,5.8
	c0.4,0.2,0.7,0.5,0.8,0.9c0.1,0.4,0.1,0.9-0.1,1.2l-0.9,1.8l0,0L134.1,174.6z M119.3,167.3l14.8,7.1l0.8-1.7c0.3-0.7,0-1.6-0.7-1.9
	l-12.2-5.8c-0.4-0.1-0.7-0.1-1.1,0c-0.4,0.1-0.7,0.4-0.8,0.7L119.3,167.3z"/>
<path class="st9" d="M121.8,172.9c0.7-0.3,1.6,0,1.9,0.7c0.3,0.7,0,1.6-0.7,1.9c-0.5,0.3-1.2,0.6-2.7,1.2h-0.1l2.1,1"/>
<path class="st10" d="M122.4,177.8l-2.1-1l0,0c0,0,0,0,0-0.1c0,0,0,0,0-0.1l0,0l0,0c1.5-0.6,2.1-0.9,2.6-1.2
	c0.3-0.1,0.6-0.4,0.7-0.7c0.1-0.3,0.1-0.7,0-1c-0.2-0.3-0.4-0.6-0.8-0.8c-0.3-0.1-0.7-0.1-1.1,0h-0.1c0,0,0,0,0-0.1c0,0,0,0,0-0.1
	c0,0,0,0,0.1,0c0.8-0.3,1.7,0,2.1,0.8c0.1,0.4,0.1,0.8,0,1.1c-0.1,0.4-0.4,0.7-0.8,0.8c-0.5,0.2-1.1,0.5-2.5,1.1L122.4,177.8
	C122.5,177.7,122.5,177.8,122.4,177.8C122.5,177.8,122.5,177.8,122.4,177.8C122.5,177.9,122.5,177.9,122.4,177.8L122.4,177.8z"/>
<path class="st10" d="M124.9,179L124.9,179C124.9,179,124.9,179,124.9,179c0-0.1,0-0.1,0-0.1c0.7-1.2,1.8-2.1,3.1-2.6l0.3-0.6
	l-2.7-1.3l0,0l0,0l0,0l0,0l0,0l0,0h0.1l2.8,1.3c0,0,0,0,0,0.1c0,0,0,0,0,0.1l-0.4,0.7l0,0c-1.2,0.5-2.3,1.4-3,2.6c0,0,0,0-0.1,0
	L124.9,179z"/>
<path class="st5" d="M127.1,185.6c0.4,0.2,0.8,0.2,1.2,0.1c0.4-0.1,0.7-0.4,0.9-0.8l1.3-2.7l-6,2.1L127.1,185.6z"/>
<path class="st12" d="M127.1,185.7l-2.7-1.3l0,0l0,0l0,0l0,0l0,0l6-2.1h0.1l0,0l0,0c0,0,0,0,0,0.1l-1.2,2.7
	c-0.2,0.4-0.5,0.7-0.9,0.8C127.9,186,127.5,185.9,127.1,185.7z M124.7,184.4l2.5,1.2c0.7,0.3,1.6,0,1.9-0.7l1.2-2.5L124.7,184.4z"/>
<path class="st9" d="M128.1,181c-1-0.5-2.1-0.1-2.6,0.9c0,0,0,0,0,0l-1.1,2.4h0.1l6-2.1l0,0L128.1,181z"/>
<path class="st10" d="M124.4,184.4L124.4,184.4C124.3,184.4,124.3,184.4,124.4,184.4c-0.1-0.1-0.1-0.1-0.1-0.1l1.1-2.4
	c0.2-0.5,0.6-0.8,1.2-1c0.5-0.2,1.1-0.2,1.5,0.1l2.4,1.1l0,0c0,0,0,0,0,0.1l0,0l0,0l0,0l-6,2.2L124.4,184.4z M128.1,181.1
	c-0.9-0.4-2,0-2.5,0.9l-1.1,2.2l5.8-2L128.1,181.1z"/>
</svg>
