<?xml version="1.0" encoding="utf-8"?>
<!-- Generator: Adobe Illustrator 25.2.0, SVG Export Plug-In . SVG Version: 6.00 Build 0)  -->
<svg version="1.1" id="Layer_1" xmlns="http://www.w3.org/2000/svg" xmlns:xlink="http://www.w3.org/1999/xlink" x="0px" y="0px"
	 viewBox="0 0 233.5 218" style="enable-background:new 0 0 233.5 218;" xml:space="preserve">
<style type="text/css">
	.st0{clip-path:url(#SVGID_2_);}
	.st1{opacity:0.25;fill:#C6B6FF;enable-background:new    ;}
	.st2{fill:#C6B6FF;}
	.st3{opacity:0.5;fill:#DDDDDD;enable-background:new    ;}
	.st4{fill:#E5E1FF;stroke:#838384;stroke-width:0.82;stroke-miterlimit:10;}
	.st5{fill:#FFFFFF;stroke:#838384;stroke-width:0.82;stroke-miterlimit:10;}
	.st6{fill:#838384;}
	.st7{fill:#7C4DFF;}
	.st8{fill:#C6B6FF;stroke:#838384;stroke-width:1.09;stroke-miterlimit:10;}
	.st9{fill:#E9F1FF;}
	.st10{fill:#F9FBFC;}
	.st11{opacity:0.5;fill:#E9F1FF;enable-background:new    ;}
	.st12{fill:none;stroke:#838384;stroke-width:1.09;stroke-linecap:round;stroke-miterlimit:10;}
	.st13{fill:#C6B6FF;stroke:#475451;stroke-width:1.09;stroke-miterlimit:10;}
	.st14{fill:#E5E5E5;}
	.st15{fill:#666666;}
	.st16{fill:none;stroke:#838384;stroke-width:1.09;stroke-linecap:round;stroke-miterlimit:10;stroke-dasharray:3.28,3.28;}
</style>
<g>
	<defs>
		<rect id="SVGID_1_" x="1.5" y="3.5" width="229" height="213"/>
	</defs>
	<clipPath id="SVGID_2_">
		<use xlink:href="#SVGID_1_"  style="overflow:visible;"/>
	</clipPath>
	<g class="st0">
		<path class="st1" d="M197.6,118.7h-96.9v96.9h96.9V118.7z"/>
		<path class="st2" d="M210.5,72h-20.7v20.7h20.7V72z"/>
		<path class="st3" d="M22.2,110.1H1.5v20.7h20.7V110.1z"/>
		<path class="st3" d="M128.6,14.1H31.7V111h96.9V14.1z"/>
		<path class="st4" d="M165.3,39v172.6c0,2.4-1.9,4.4-4.3,4.4H64.1c-2.4,0-4.3-1.9-4.3-4.4l0,0V39c0-2.4,1.9-4.3,4.3-4.3h96.8
			C163.3,34.6,165.3,36.6,165.3,39C165.3,39,165.3,39,165.3,39z"/>
		<path class="st5" d="M160.8,41.9H64.2v159.2h96.6V41.9z"/>
		<path class="st6" d="M121.3,209.7h-17.5c-0.7,0-1.3-0.6-1.3-1.3v-0.8c0-0.7,0.6-1.3,1.3-1.3h17.5c0.7,0,1.3,0.6,1.3,1.3v0.8
			C122.5,209.1,122,209.7,121.3,209.7z"/>
		<path class="st7" d="M41,175.9h-1c-0.2-0.8-0.5-1.5-0.9-2.1l0.7-0.7c0.3-0.3,0.3-0.7,0-1c0,0,0,0,0,0l-1.6-1.6
			c-0.3-0.3-0.7-0.3-1,0c0,0,0,0,0,0l-0.7,0.7c-0.7-0.4-1.4-0.7-2.1-0.9v-1c0-0.3-0.3-0.6-0.6-0.6h-2.1c-0.3,0-0.6,0.3-0.6,0.6v1
			c-0.8,0.2-1.5,0.5-2.1,0.9l-0.7-0.7c-0.3-0.3-0.7-0.3-0.9,0l-1.6,1.6c-0.3,0.3-0.3,0.7,0,1c0,0,0,0,0,0l0.7,0.7
			c-0.4,0.7-0.7,1.4-0.9,2.1h-1c-0.3,0-0.6,0.3-0.6,0.6l0,0v2.2c0,0.3,0.3,0.6,0.6,0.6c0,0,0,0,0,0h1c0.2,0.8,0.5,1.5,0.9,2.1
			l-0.7,0.7c-0.3,0.3-0.3,0.7,0,0.9l1.6,1.6c0.3,0.3,0.7,0.3,0.9,0l0.7-0.7c0.7,0.4,1.4,0.7,2.1,0.9v1c0,0.3,0.3,0.6,0.6,0.6
			c0,0,0,0,0,0h2.1c0.3,0,0.6-0.3,0.6-0.6l0,0v-1c0.8-0.2,1.5-0.5,2.1-0.9l0.7,0.7c0.3,0.3,0.7,0.3,0.9,0l1.6-1.6
			c0.3-0.3,0.3-0.7,0-0.9l-0.7-0.7c0.4-0.7,0.7-1.4,0.9-2.1h1c0.3,0,0.6-0.3,0.6-0.6l0,0v-2.2C41.7,176.2,41.3,175.9,41,175.9z
			 M32.7,181.8c-2.3,0-4.2-1.9-4.2-4.2c0-2.3,1.9-4.2,4.2-4.2c2.3,0,4.2,1.9,4.2,4.2c0,0,0,0,0,0C36.9,179.9,35,181.8,32.7,181.8
			L32.7,181.8z"/>
		<path class="st6" d="M72.1,18.6c0,0.6-0.4,1-1,1s-1-0.4-1-1s0.4-1,1-1S72.1,18,72.1,18.6z"/>
		<path class="st6" d="M79,18.6c0,0.6-0.4,1-1,1s-1-0.4-1-1s0.4-1,1-1S79,18,79,18.6z"/>
		<path class="st6" d="M85.8,18.6c0,0.6-0.4,1-1,1s-1-0.4-1-1s0.4-1,1-1S85.8,18,85.8,18.6z"/>
		<path class="st6" d="M92.7,18.6c0,0.6-0.4,1-1,1s-1-0.4-1-1s0.4-1,1-1S92.7,18,92.7,18.6z"/>
		<path class="st6" d="M99.6,18.6c0,0.6-0.4,1-1,1s-1-0.4-1-1s0.4-1,1-1S99.6,18,99.6,18.6z"/>
		<path class="st6" d="M72.1,25.1c0,0.6-0.4,1-1,1s-1-0.4-1-1s0.4-1,1-1c0.5,0,1,0.3,1,0.8C72.1,25,72.1,25,72.1,25.1z"/>
		<path class="st6" d="M79,25.1c0,0.6-0.4,1-1,1s-1-0.4-1-1s0.4-1,1-1c0.5,0,1,0.3,1,0.8C79,25,79,25,79,25.1z"/>
		<path class="st6" d="M85.8,25.1c0,0.6-0.4,1-1,1s-1-0.4-1-1s0.4-1,1-1c0.5,0,1,0.3,1,0.8C85.9,25,85.9,25,85.8,25.1z"/>
		<path class="st6" d="M92.7,25.1c0,0.6-0.4,1-1,1s-1-0.4-1-1s0.4-1,1-1c0.5,0,1,0.3,1,0.8C92.7,25,92.7,25,92.7,25.1z"/>
		<path class="st6" d="M99.6,25.1c0,0.6-0.4,1-1,1s-1-0.4-1-1s0.4-1,1-1S99.6,24.5,99.6,25.1z"/>
		<path class="st7" d="M183,93.5c-2.9,0-5.2,2.3-5.2,5.2v1.4h1.7v-1.4c0-1.9,1.6-3.5,3.5-3.5l0,0c1.9,0,3.5,1.6,3.5,3.5v1.4h1.7
			v-1.4C188.2,95.8,185.9,93.5,183,93.5z"/>
		<path class="st6" d="M189.6,100.1h-13.3c-0.4,0-0.8,0.4-0.8,0.8v10.5c0,0.4,0.4,0.8,0.8,0.8h13.3c0.4,0,0.8-0.4,0.8-0.8v-10.5
			C190.4,100.5,190.1,100.1,189.6,100.1z M182.8,108.3c-0.5-0.1-1-0.5-1.1-1c-0.1-0.5,0.2-1,0.6-1.3v-0.9c0-0.3,0.3-0.6,0.6-0.6
			c0.3,0,0.6,0.3,0.6,0.6c0,0,0,0,0,0v0.9c0.4,0.2,0.6,0.6,0.6,1.1C184.2,107.8,183.6,108.4,182.8,108.3
			C182.9,108.3,182.8,108.3,182.8,108.3z"/>
		<path class="st8" d="M228.9,174.3h-55.6c-0.8,0-1.4-0.6-1.4-1.4v-10.2c0-0.8,0.6-1.4,1.4-1.4h55.6c0.8,0,1.4,0.6,1.4,1.4v10.2
			C230.2,173.7,229.6,174.3,228.9,174.3z"/>
		<path class="st6" d="M188.4,169.4l-0.7-1l-0.6,1h-0.7l0.9-1.5l-0.9-1.4h0.7l0.7,1l0.6-1h0.7l-0.9,1.4l1,1.4L188.4,169.4z"/>
		<path class="st6" d="M192.8,169.4l-0.7-1l-0.6,1h-0.7l0.9-1.5l-0.9-1.4h0.7l0.7,1l0.6-1h0.7l-0.9,1.4l1,1.4L192.8,169.4z"/>
		<path class="st6" d="M197.2,169.4l-0.7-1l-0.6,1h-0.7l0.9-1.5l-0.9-1.4h0.7l0.7,1l0.6-1h0.7l-0.9,1.4l1,1.4L197.2,169.4z"/>
		<path class="st6" d="M201.6,169.4l-0.7-1l-0.6,1h-0.7l0.9-1.5l-0.9-1.4h0.7l0.7,1l0.6-1h0.7l-0.9,1.4l1,1.4L201.6,169.4z"/>
		<path class="st6" d="M206,169.4l-0.7-1l-0.6,1H204l0.9-1.5l-0.9-1.4h0.7l0.7,1l0.6-1h0.7l-0.9,1.4l1,1.4L206,169.4z"/>
		<path class="st6" d="M210.4,169.4l-0.7-1l-0.6,1h-0.7l1-1.5l-1-1.4h0.7l0.7,1l0.6-1h0.7l-0.9,1.4l1,1.4L210.4,169.4z"/>
		<path class="st6" d="M214.9,169.4l-0.7-1l-0.6,1h-0.7l0.9-1.5l-0.9-1.4h0.7l0.7,1l0.6-1h0.7l-1,1.4l1,1.4L214.9,169.4z"/>
		<path class="st8" d="M228.9,193h-55.6c-0.8,0-1.4-0.6-1.4-1.4v-10.2c0-0.8,0.6-1.4,1.4-1.4h55.6c0.8,0,1.4,0.6,1.4,1.4v10.2
			C230.2,192.4,229.6,193,228.9,193z"/>
		<path class="st6" d="M191.6,185.7c-0.5,0-0.8,0.4-0.8,0.8s0.4,0.8,0.8,0.8c0.5,0,0.8-0.4,0.8-0.8
			C192.4,186.1,192,185.7,191.6,185.7z M201.1,185.7c-0.5,0-0.8,0.4-0.8,0.8s0.4,0.8,0.8,0.8c0.5,0,0.8-0.4,0.8-0.8
			C201.9,186.1,201.5,185.7,201.1,185.7z M186.8,185.7c-0.5,0-0.8,0.4-0.8,0.8s0.4,0.8,0.8,0.8c0.5,0,0.8-0.4,0.8-0.8
			C187.6,186.1,187.3,185.7,186.8,185.7z M196.3,185.7c-0.5,0-0.8,0.4-0.8,0.8s0.4,0.8,0.8,0.8c0.5,0,0.8-0.4,0.8-0.8
			C197.1,186.1,196.8,185.7,196.3,185.7z M215.3,185.7c-0.5,0-0.8,0.4-0.8,0.8s0.4,0.8,0.8,0.8c0.5,0,0.8-0.4,0.8-0.8
			C216.1,186.1,215.8,185.7,215.3,185.7L215.3,185.7z M205.8,185.7c-0.5,0-0.8,0.4-0.8,0.8s0.4,0.8,0.8,0.8c0.5,0,0.8-0.4,0.8-0.8
			C206.6,186.1,206.3,185.7,205.8,185.7L205.8,185.7z M210.5,185.7c-0.5,0-0.8,0.4-0.8,0.8s0.4,0.8,0.8,0.8c0.5,0,0.8-0.4,0.8-0.8
			C211.3,186.1,211,185.7,210.5,185.7L210.5,185.7z"/>
		<path class="st2" d="M138.1,182H86.9c-1.4,0-2.5-1.1-2.5-2.5V168c0-1.4,1.1-2.5,2.5-2.5h51.1c1.4,0,2.5,1.1,2.5,2.5c0,0,0,0,0,0
			v11.4C140.6,180.8,139.5,182,138.1,182C138.1,182,138.1,182,138.1,182z"/>
		<path class="st6" d="M98.3,171v1.1h-1.6v4.7h-1.4v-4.7h-1.6V171H98.3z"/>
		<path class="st6" d="M104.8,171.3c0.4,0.3,0.8,0.6,1.1,1.1c0.3,0.5,0.4,1,0.4,1.6c0,0.5-0.1,1.1-0.4,1.6c-0.3,0.4-0.6,0.8-1.1,1.1
			c-0.5,0.3-1,0.4-1.5,0.4c-0.5,0-1.1-0.1-1.5-0.4c-0.4-0.3-0.8-0.6-1.1-1.1c-0.3-0.5-0.4-1-0.4-1.6c0-0.5,0.1-1.1,0.4-1.6
			c0.3-0.4,0.6-0.8,1.1-1.1c0.5-0.3,1-0.4,1.5-0.4C103.8,170.9,104.4,171.1,104.8,171.3z M102.2,172.7c-0.3,0.4-0.5,0.8-0.4,1.3
			c0,0.4,0.1,0.9,0.4,1.2c0.3,0.3,0.7,0.5,1.1,0.4c0.4,0,0.8-0.1,1.1-0.4c0.3-0.3,0.4-0.8,0.4-1.2c0-0.4-0.1-0.9-0.4-1.2
			c-0.3-0.3-0.7-0.5-1.1-0.4C102.9,172.3,102.5,172.4,102.2,172.7z"/>
		<path class="st6" d="M110.1,171v3.4c0,0.3,0.1,0.6,0.3,0.9c0.2,0.2,0.5,0.3,0.8,0.3c0.3,0,0.6-0.1,0.8-0.3
			c0.2-0.2,0.3-0.6,0.2-0.9V171h1.4v3.4c0,0.5-0.1,1-0.3,1.4c-0.2,0.4-0.5,0.7-0.9,0.9c-0.4,0.2-0.8,0.3-1.3,0.3
			c-0.4,0-0.9-0.1-1.3-0.3c-0.4-0.2-0.7-0.5-0.8-0.9c-0.2-0.4-0.3-0.9-0.3-1.4v-3.4L110.1,171L110.1,171z"/>
		<path class="st6" d="M120.7,171.6c0.5,0.4,0.8,1,0.9,1.6h-1.5c-0.1-0.3-0.3-0.5-0.5-0.6c-0.2-0.2-0.5-0.2-0.8-0.2
			c-0.4,0-0.8,0.1-1,0.4c-0.5,0.7-0.5,1.7,0,2.4c0.2,0.3,0.6,0.5,1,0.4c0.3,0,0.6-0.1,0.8-0.2c0.2-0.2,0.4-0.4,0.5-0.6h1.5
			c-0.1,0.6-0.4,1.2-0.9,1.6c-0.5,0.4-1.2,0.6-1.8,0.6c-0.5,0-1.1-0.1-1.5-0.4c-0.4-0.3-0.8-0.6-1-1.1c-0.3-0.5-0.4-1-0.4-1.6
			c0-0.5,0.1-1.1,0.4-1.6c0.2-0.4,0.6-0.8,1-1.1c0.5-0.3,1-0.4,1.5-0.4C119.5,170.9,120.1,171.2,120.7,171.6z"/>
		<path class="st6" d="M129.1,171v5.9h-1.4v-2.5h-2.2v2.5h-1.4V171h1.4v2.3h2.2V171H129.1z"/>
		<path class="st9" d="M124.4,74.1V148c0,1.9-1.5,3.4-3.4,3.4c0,0,0,0,0,0H59.8V70.7H121C122.9,70.7,124.4,72.2,124.4,74.1
			C124.4,74.1,124.4,74.1,124.4,74.1z"/>
		<path class="st2" d="M120.3,70v74c0,1.9-1.5,3.4-3.4,3.4c0,0,0,0,0,0H18.6c-1.9,0-3.4-1.5-3.4-3.4c0,0,0,0,0,0V70
			c0-1.9,1.5-3.4,3.4-3.4c0,0,0,0,0,0h98.3C118.8,66.6,120.3,68.1,120.3,70z"/>
		<path class="st6" d="M120.3,70v6.9H15.2V70c0-1.9,1.5-3.4,3.4-3.4c0,0,0,0,0,0h98.3C118.8,66.6,120.3,68.1,120.3,70z"/>
		<path class="st10" d="M102.7,71.6c0,0.5-0.5,0.9-1,0.9s-0.9-0.5-0.9-1c0-0.5,0.4-0.9,0.9-0.9c0.5,0,1,0.3,1,0.9
			C102.7,71.5,102.7,71.6,102.7,71.6z"/>
		<path class="st10" d="M108.2,71.6c0,0.6-0.4,1-1,1c-0.6,0-1-0.4-1-1c0-0.6,0.4-1,1-1c0,0,0,0,0,0C107.8,70.6,108.2,71,108.2,71.6
			C108.2,71.6,108.2,71.6,108.2,71.6z"/>
		<path class="st10" d="M113.8,71.6c0,0.5-0.5,0.9-1,0.9c-0.5,0-0.9-0.5-0.9-1c0-0.5,0.4-0.9,1-0.9C113.4,70.6,113.8,71,113.8,71.6
			C113.8,71.6,113.8,71.6,113.8,71.6z"/>
		<path class="st9" d="M55.3,92c-0.2,0-0.3-0.1-0.4-0.3c-0.1-0.2,0-0.5,0.2-0.6c1.6-0.8,3.3-1.5,5-2c0.2-0.1,0.5,0.1,0.6,0.3
			c0,0,0,0,0,0c0.1,0.2-0.1,0.5-0.3,0.6c0,0,0,0,0,0c-1.7,0.5-3.3,1.2-4.8,2C55.4,92,55.4,92,55.3,92z"/>
		<path class="st6" d="M79.7,92.1c-0.1,0-0.1,0-0.2-0.1c-3.8-2-7.9-3-12.2-3c-1.4,0-2.8,0.1-4.2,0.4c-0.2,0-0.5-0.1-0.5-0.4
			c0-0.2,0.1-0.5,0.4-0.5l0,0c1.5-0.3,2.9-0.4,4.4-0.4c4.4,0,8.7,1,12.6,3.1c0.2,0.1,0.3,0.4,0.2,0.6c0,0,0,0,0,0
			C80.1,91.9,79.9,92,79.7,92.1z"/>
		<path class="st6" d="M49.8,98.6c-0.1,0-0.2,0-0.3-0.1c-0.2-0.2-0.2-0.4,0-0.6c0,0,0,0,0,0c4.6-4.9,11.1-7.7,17.8-7.7
			c3.4,0,6.7,0.7,9.8,2c0.2,0.1,0.3,0.3,0.3,0.6c-0.1,0.2-0.3,0.3-0.6,0.3c-3-1.3-6.2-2-9.5-2c-6.5,0-12.8,2.7-17.2,7.4
			C50.1,98.5,50,98.6,49.8,98.6z"/>
		<path class="st9" d="M85.1,98.6c-0.1,0-0.2-0.1-0.3-0.1c-0.6-0.6-1.1-1.1-1.8-1.7c-0.3-0.3-0.6-0.5-0.9-0.7
			c-0.2-0.2-0.2-0.4-0.1-0.6c0.2-0.2,0.4-0.2,0.6-0.1l0,0c0.3,0.2,0.6,0.5,0.9,0.8c0.6,0.6,1.2,1.1,1.8,1.8c0.2,0.2,0.2,0.4,0,0.6
			c0,0,0,0,0,0C85.3,98.6,85.2,98.6,85.1,98.6z"/>
		<path class="st6" d="M47.1,106.3c-0.1,0-0.1,0-0.2-0.1c-0.2-0.1-0.3-0.3-0.2-0.6c0.4-1,0.9-2,1.5-2.9c0.1-0.2,0.4-0.3,0.6-0.1
			c0.2,0.1,0.3,0.4,0.1,0.6c-0.6,0.9-1.1,1.8-1.5,2.8C47.5,106.2,47.3,106.3,47.1,106.3z"/>
		<path class="st6" d="M87.9,106.2c-0.2,0-0.3-0.1-0.4-0.2c-1.4-2.9-3.3-5.5-5.7-7.6c-4-3.4-9.1-5.3-14.3-5.3
			c-6.5,0-12.6,2.9-16.7,7.9c-0.2,0.2-0.5,0.2-0.6,0c-0.1-0.2-0.2-0.4-0.1-0.6c4.3-5.2,10.7-8.2,17.4-8.2c9,0,17.1,5.3,20.9,13.4
			c0.1,0.2,0,0.4-0.1,0.5c0,0-0.1,0-0.1,0C88,106.2,87.9,106.2,87.9,106.2z"/>
		<path class="st6" d="M47.3,117.5c-0.2,0-0.4-0.2-0.4-0.4c0,0,0,0,0,0c-0.1-0.9-0.1-1.6-0.1-2.1c-0.1-5.5,2.1-10.8,6-14.7
			c3.9-3.9,9.1-6.1,14.6-6.2c9.7,0,18,6.6,20.3,16c0.2,0.1,0.6,0.2,0.8,0.3c0.2,0.1,0.3,0.4,0.2,0.6c-0.1,0.2-0.3,0.3-0.5,0.2
			c-0.3-0.1-0.7-0.2-1-0.4c-0.1-0.1-0.3-0.2-0.3-0.3c-1-4.2-3.3-7.9-6.5-10.7c-3.6-3.1-8.2-4.8-13-4.8c-11,0.1-19.8,9-19.7,20
			c0,0.7,0,1.3,0.1,2C47.7,117.3,47.6,117.5,47.3,117.5C47.3,117.6,47.2,117.6,47.3,117.5L47.3,117.5z"/>
		<path class="st6" d="M88.3,113.6c-0.1,0-0.1,0-0.2-0.1c-0.9-0.4-1.7-0.7-2.7-1c-0.2,0-0.3-0.2-0.3-0.4c-0.7-4.3-3-8.3-6.4-11
			c-0.2-0.1-0.2-0.4-0.1-0.6c0,0,0,0,0,0c0.1-0.2,0.4-0.2,0.6-0.1c0,0,0,0,0,0c3.5,2.8,5.9,6.8,6.7,11.3c0.9,0.3,1.7,0.6,2.5,1
			c0.2,0.1,0.3,0.4,0.2,0.6c0,0,0,0,0,0C88.6,113.5,88.5,113.5,88.3,113.6z"/>
		<path class="st6" d="M76.6,99.6c-0.1,0-0.2,0-0.2-0.1c-2.7-1.6-5.8-2.4-8.9-2.4c-0.7,0-1.4,0.1-2,0.1c-0.2,0-0.5-0.1-0.5-0.4
			s0.1-0.5,0.4-0.5c0.7-0.1,1.4-0.1,2.1-0.1c3.3,0,6.5,0.9,9.3,2.5c0.2,0.1,0.3,0.4,0.2,0.6C76.9,99.5,76.7,99.6,76.6,99.6z"/>
		<path class="st6" d="M51.4,126.7c-0.2,0-0.4-0.1-0.4-0.3c-1.3-3.6-2-7.5-2.1-11.3c0-8,5-15.2,12.6-17.8c0.2-0.1,0.5,0,0.6,0.2
			c0.1,0.2,0,0.5-0.2,0.6c0,0,0,0-0.1,0c-7.2,2.5-12,9.4-12,17c0.1,3.8,0.8,7.5,2.1,11c0.1,0.2,0,0.5-0.2,0.6
			C51.4,126.7,51.4,126.7,51.4,126.7z"/>
		<path class="st9" d="M55.7,131.3c-0.2,0-0.3-0.1-0.4-0.2c-0.5-0.8-0.9-1.6-1.3-2.4c-2-4.3-3.1-8.9-3.3-13.6c0-2,0.3-3.9,1-5.8
			c0-0.2,0.2-0.3,0.4-0.3c0,0,0.1,0,0.1,0.1c0.2,0,0.3,0.2,0.3,0.4c0,0,0,0.1,0,0.1c-0.6,1.8-0.9,3.6-0.9,5.5
			c0.1,4.6,1.2,9.1,3.2,13.2c0.4,0.8,0.8,1.6,1.3,2.3c0.1,0.2,0.1,0.5-0.1,0.6c0,0,0,0,0,0C55.9,131.3,55.8,131.3,55.7,131.3z
			 M88.1,115.7c-0.1,0-0.1,0-0.2-0.1c-1.3-0.7-2.7-1.2-4.2-1.5c-0.2-0.1-0.3-0.2-0.4-0.4c0-0.2-0.1-0.4-0.1-0.7s0.1-0.5,0.4-0.5
			c0.2-0.1,0.4,0.1,0.5,0.3c0,0,0,0.1,0,0.1c0,0.1,0,0.3,0.1,0.4c1.4,0.3,2.8,0.8,4.1,1.5c0.2,0.1,0.3,0.4,0.2,0.6
			C88.4,115.6,88.2,115.7,88.1,115.7z M83.1,110.8c-0.2,0-0.4-0.1-0.4-0.3c-2-6.7-8.2-11.3-15.3-11.3c-6,0-11.4,3.4-14.1,8.7
			c-0.1,0.2-0.3,0.3-0.6,0.2c0,0,0,0-0.1,0c-0.2-0.1-0.3-0.4-0.2-0.6c0,0,0,0,0,0c2.8-5.7,8.6-9.2,14.9-9.2c7.4,0,14,4.9,16.1,12
			C83.6,110.4,83.5,110.6,83.1,110.8C83.2,110.7,83.2,110.7,83.1,110.8C83.2,110.8,83.2,110.8,83.1,110.8z"/>
		<path class="st6" d="M59.9,133.8c-0.1,0-0.3-0.1-0.4-0.2c-1.4-1.8-2.7-3.8-3.7-5.9c-1.9-4-3-8.3-3.1-12.7c0-3.9,1.5-7.6,4.2-10.4
			c2.7-2.8,6.4-4.3,10.3-4.3c8,0,14.6,6.5,14.8,14.5c0,0.1,0,0.2,0.7,0.3c1.8,0.3,3.5,0.9,5,1.8c0.2,0.1,0.3,0.4,0.2,0.6
			c-0.1,0.2-0.4,0.3-0.6,0.2c-1.4-0.8-3-1.4-4.7-1.7c-1-0.2-1.4-0.6-1.4-1.2c-0.1-7.6-6.3-13.6-13.9-13.6
			c-7.6,0.1-13.7,6.3-13.7,13.9c0,0,0,0,0,0c0.1,4.3,1.2,8.5,3,12.4c1,2,2.2,4,3.6,5.7c0.1,0.2,0.1,0.5-0.1,0.6L59.9,133.8z"/>
		<path class="st11" d="M63.8,135.1c-0.1,0-0.2,0-0.3-0.1c-2.4-2.3-4.4-5-5.8-8.1c-1.8-3.7-2.7-7.8-2.8-11.9
			c0-6.9,5.5-12.5,12.4-12.7c0.2,0,0.4,0.3,0.4,0.5c0,0.2-0.2,0.3-0.4,0.4c-6.4,0.2-11.5,5.4-11.5,11.8c0.1,4,1.1,7.9,2.8,11.5
			c1.4,2.9,3.3,5.6,5.6,7.8c0.2,0.2,0.2,0.4,0,0.6c0,0,0,0,0,0C64.1,135.1,64,135.1,63.8,135.1z"/>
		<path class="st9" d="M87.1,119.8c-0.1,0-0.2,0-0.2-0.1c-1.3-0.9-2.8-1.4-4.4-1.7c-2.8-0.5-3.1-2.4-3.2-3.2
			c-0.1-5.7-4.2-10.6-9.9-11.5c-0.2-0.1-0.4-0.3-0.4-0.5s0.2-0.4,0.5-0.4c6.1,1,10.6,6.2,10.7,12.4c0,0.9,0.4,2,2.4,2.3
			c1.7,0.3,3.3,1,4.8,1.9c0.2,0.1,0.2,0.4,0.1,0.6C87.3,119.8,87.2,119.8,87.1,119.8z"/>
		<path class="st6" d="M67.4,135.4c-0.1,0-0.2,0-0.2-0.1c-3.3-2.5-5.9-5.7-7.6-9.4c-1.7-3.4-2.6-7.2-2.7-11
			c0-5.9,4.7-10.6,10.6-10.7c4.6,0,8.7,2.9,10.1,7.3c0.1,0.2,0,0.5-0.2,0.6c-0.2,0.1-0.5,0-0.6-0.2c-1.7-5.1-7.2-7.8-12.3-6.1
			c-4,1.3-6.6,5.1-6.6,9.2c0.1,3.7,1,7.3,2.6,10.6c1.7,3.6,4.2,6.6,7.4,9c0.2,0.1,0.2,0.4,0.1,0.6C67.8,135.4,67.6,135.4,67.4,135.4
			z"/>
		<path class="st6" d="M86.4,121.8c-0.1,0-0.2,0-0.3-0.1c-1.2-0.9-2.5-1.5-4-1.7c-4.5-0.8-4.8-4.4-4.8-5.1c0-0.4-0.1-0.9-0.1-1.3
			c0-0.2,0.1-0.5,0.4-0.5s0.5,0.1,0.5,0.4c0.1,0.5,0.1,1,0.1,1.4c0,0.6,0.2,3.6,4,4.2c1.6,0.3,3.1,0.9,4.4,1.8
			c0.2,0.2,0.2,0.4,0.1,0.6C86.6,121.7,86.5,121.8,86.4,121.8z"/>
		<path class="st6" d="M70.8,135.1c-0.1,0-0.2,0-0.2-0.1c-4-2.3-7.2-5.8-9.1-10c-1.2-2.5-2-5.2-2.3-7.9c0-0.2,0.1-0.5,0.4-0.5
			c0.2-0.1,0.4,0.1,0.5,0.3c0,0,0,0.1,0,0.1c0.4,2.6,1.1,5.2,2.2,7.6c1.8,4,4.9,7.4,8.8,9.6c0.2,0.1,0.3,0.4,0.2,0.6
			C71,135,70.9,135.1,70.8,135.1z"/>
		<path class="st11" d="M85.5,123.7c-0.1,0-0.2-0.1-0.3-0.1c-1-0.8-2.2-1.3-3.5-1.6c-3.6-0.4-6.4-3.5-6.5-7.1c0-4.2-3.5-7.6-7.7-7.6
			c-4.1,0-7.5,3.3-7.6,7.4c0,0.2-0.2,0.4-0.5,0.4c-0.2,0-0.4-0.2-0.4-0.4c0,0,0,0,0,0c0.2-4.6,3.9-8.2,8.5-8.3
			c4.7,0,8.5,3.8,8.6,8.5c0.1,3.2,2.5,5.9,5.7,6.2c1.4,0.3,2.8,0.9,3.9,1.8c0.2,0.1,0.2,0.4,0.1,0.6c0,0,0,0,0,0
			C85.7,123.7,85.6,123.7,85.5,123.7z"/>
		<path class="st6" d="M73.7,134.4c-0.1,0-0.1,0-0.2-0.1c-4.5-2-8.2-5.6-10.3-10.1c-1.4-2.9-2.1-6.1-2.2-9.3c0-1.7,0.7-3.4,1.9-4.7
			c1.2-1.3,2.9-2,4.6-2h0.1c0.2,0,0.4,0.2,0.4,0.4c0,0.2-0.2,0.4-0.4,0.4h-0.1c-1.5,0-3,0.6-4,1.7c-1.1,1.1-1.6,2.5-1.6,4
			c0.1,3.1,0.8,6.1,2.2,8.9c2,4.3,5.5,7.7,9.8,9.6c0.2,0.1,0.3,0.3,0.3,0.6C74,134.2,73.9,134.3,73.7,134.4z"/>
		<path class="st6" d="M84.5,125.5c-0.1,0-0.2-0.1-0.3-0.1c-0.8-0.7-1.7-1.2-2.8-1.3c-4.6-0.6-8-4.5-8.2-9.1c0-2.5-1.6-4.6-4-5.4
			c-0.2-0.1-0.4-0.3-0.3-0.6c0,0,0,0,0,0c0.1-0.2,0.3-0.4,0.5-0.3c0,0,0,0,0,0c2.8,0.8,4.7,3.4,4.7,6.2c0.2,4.2,3.3,7.6,7.4,8.2
			c1.2,0.2,2.3,0.7,3.2,1.6c0.2,0.2,0.2,0.4,0.1,0.6C84.7,125.4,84.6,125.4,84.5,125.5z"/>
		<path class="st9" d="M76.3,133.2h-0.1c-4.1-1.4-7.7-4.1-10-7.8c-0.1-0.2-0.1-0.5,0.1-0.6c0.2-0.1,0.5-0.1,0.6,0.1
			c2.2,3.5,5.6,6.2,9.5,7.4c0.2,0.1,0.4,0.3,0.3,0.5c0,0,0,0,0,0C76.7,133,76.5,133.2,76.3,133.2z"/>
		<path class="st6" d="M65.5,123.6c-0.2,0-0.3-0.1-0.4-0.2c-1.3-2.6-2-5.5-2.1-8.4c-0.2-2.5,1.7-4.6,4.2-4.8s4.6,1.7,4.8,4.2
			c0,0.2,0,0.4,0,0.6c0.1,2.6,1.1,5.1,2.8,7c0.1,0.2,0.1,0.5-0.1,0.6c-0.2,0.1-0.4,0.1-0.5,0c-1.9-2.1-3-4.8-3.1-7.6
			c0-2-1.7-3.6-3.7-3.6c-2,0-3.6,1.7-3.5,3.7c0.1,2.8,0.8,5.5,2,8c0.1,0.2,0,0.5-0.2,0.6C65.6,123.6,65.6,123.6,65.5,123.6z"/>
		<path class="st6" d="M83.3,127.2c-0.1,0-0.2,0-0.3-0.1c-0.5-0.6-1.2-0.9-2-1c-1.7-0.3-3.3-0.9-4.7-1.8c-0.2-0.1-0.3-0.4-0.1-0.6
			c0.1-0.2,0.4-0.3,0.6-0.1c1.3,0.8,2.9,1.4,4.4,1.6c0.9,0.2,1.8,0.6,2.5,1.3c0.2,0.2,0.2,0.4,0,0.6c0,0,0,0,0,0
			C83.5,127.1,83.4,127.2,83.3,127.2z"/>
		<path class="st6" d="M78.7,131.7h-0.1c-5.1-1.1-9.4-4.5-11.6-9.2c-1.1-2.4-1.8-4.9-1.9-7.5c0-1.4,1.1-2.5,2.5-2.5s2.5,1.1,2.5,2.5
			v0.1c0,0.2-0.3,0.4-0.5,0.4c-0.2,0-0.3-0.2-0.4-0.4v-0.1c0-0.9-0.7-1.6-1.5-1.6c0,0,0,0,0,0c-0.4,0-0.8,0.2-1.1,0.4
			c-0.3,0.3-0.5,0.7-0.4,1.1c0.1,2.5,0.7,4.9,1.8,7.1c2.1,4.5,6.2,7.7,11,8.8c0.2,0.1,0.4,0.3,0.3,0.5c0,0,0,0,0,0
			C79,131.5,78.9,131.7,78.7,131.7z"/>
		<path class="st6" d="M81.9,128.8c-0.1,0-0.3-0.1-0.4-0.2c-0.2-0.3-0.6-0.5-0.9-0.6c-5.6-0.7-10.1-4.9-11.2-10.5
			c0-0.2,0.1-0.5,0.3-0.6c0.2-0.1,0.5,0.1,0.6,0.3c1.1,5.2,5.3,9.1,10.5,9.8c0.6,0.1,1.1,0.4,1.5,0.9c0.1,0.2,0.1,0.5-0.1,0.6
			C82.1,128.8,82.1,128.8,81.9,128.8z"/>
		<path class="st6" d="M73.6,127.3c-0.1,0-0.2,0-0.2-0.1c-6.1-4.5-6.2-11.9-6.2-12.2c0-0.2,0.2-0.4,0.4-0.4c0.2,0,0.4,0.2,0.4,0.4
			c0,0.1,0.1,7.3,5.9,11.5c0.2,0.1,0.3,0.4,0.1,0.6C73.9,127.2,73.8,127.3,73.6,127.3z"/>
		<path class="st9" d="M80.4,130L80.4,130c-1.7-0.3-3.3-0.8-4.9-1.5c-0.2-0.1-0.3-0.4-0.2-0.6c0,0,0,0,0,0c0.1-0.2,0.3-0.3,0.6-0.2
			c0,0,0,0,0.1,0c1.4,0.7,3,1.2,4.5,1.5c0.3,0.1,0.4,0.2,0.4,0.5C80.8,129.8,80.6,130,80.4,130z"/>
		<path class="st9" d="M67.8,141.2c-16.3,0-29.5-13.2-29.5-29.5c0-0.7,0.6-1.3,1.3-1.3c0.7,0,1.3,0.6,1.3,1.3
			c0,14.9,12.1,26.9,27,26.9c14.9,0,26.9-12.1,26.9-27c0-14.8-12.1-26.9-26.9-26.9c-0.7-0.1-1.2-0.7-1.2-1.4
			c0.1-0.6,0.5-1.1,1.2-1.2c16.3,0.4,29.2,13.9,28.8,30.2C96.1,128.1,83.5,140.8,67.8,141.2L67.8,141.2z"/>
		<path class="st12" d="M9.4,216.1h187.3"/>
		<path class="st12" d="M218.8,216.1h-15.3"/>
		<path class="st3" d="M165.3,39v48.3h-0.8L164,87c-1.1-0.5-2.2-1-3.2-1.6c-17.3-9.3-23.3-30.1-25.5-43.5c-0.4-2.8-0.7-5.2-0.9-7.2
			H161C163.4,34.7,165.3,36.6,165.3,39z"/>
		<path class="st13" d="M193.8,29.7c0,0-0.3,43.2-28.4,54.9c0,0-0.1,0-0.1-0.1c-28-11.7-28.3-54.9-28.3-54.9l28.3-10h0.1L193.8,29.7
			z"/>
		<path class="st14" d="M165.1,20.3v63.8c-27.3-11.5-27.6-54-27.6-54L165.1,20.3z"/>
		<path class="st15" d="M162.9,62.3l-12.8-10.6c-1-0.9-1.2-2.4-0.3-3.4c0.9-1,2.4-1.2,3.4-0.3l9.5,7.8l16.9-16.4
			c1-0.9,2.5-0.8,3.4,0.2c0.8,0.9,0.8,2.4-0.1,3.3L162.9,62.3z"/>
		<path class="st16" d="M40.5,59.4V14.6c0-5.9,4.8-10.8,10.8-10.8c0,0,0,0,0,0H190c5.9,0,10.8,4.8,10.8,10.8c0,0,0,0,0,0v141.9"/>
		<path class="st6" d="M202.4,155.6c0,1-0.8,1.8-1.8,1.8c-1,0-1.8-0.8-1.8-1.8c0-1,0.8-1.8,1.8-1.8c0,0,0,0,0,0
			C201.6,153.8,202.4,154.6,202.4,155.6C202.4,155.5,202.4,155.5,202.4,155.6z"/>
		<path class="st6" d="M42.4,61.1c0,1-0.8,1.8-1.8,1.8c-1,0-1.8-0.8-1.8-1.8s0.8-1.8,1.8-1.8c0,0,0,0,0,0
			C41.6,59.3,42.4,60.1,42.4,61.1z"/>
	</g>
</g>
</svg>
