<svg id="Layer_1" data-name="Layer 1" xmlns="http://www.w3.org/2000/svg" xmlns:xlink="http://www.w3.org/1999/xlink" viewBox="0 0 216 178.96"><defs><style>.cls-1{fill:none;}.cls-2{fill:#fff;}.cls-3{clip-path:url(#clip-path);}.cls-4,.cls-6{fill:#7C4DFF;}.cls-4{fill-rule:evenodd;}.cls-5{fill:#666;}</style><clipPath id="clip-path"><rect class="cls-1" x="33.96" y="47.78" width="148.87" height="83.02"/></clipPath></defs><rect class="cls-2" x="2.47" y="1.98" width="211.85" height="174.63" rx="14.31"/><g class="cls-3"><path class="cls-4" d="M45.26,55.34h5.48V78.26q0,5.68,2.79,8.46t8.53,2.77h7.65a13.53,13.53,0,0,0,7-1.59v8.46A5.77,5.77,0,0,1,71,102.08H45.26a5.75,5.75,0,0,1-5.76-5.72V95h4.87V90.17H39.5v-9h4.87V76.3H39.5V67.36h4.87V62.53H39.5V61.06a5.77,5.77,0,0,1,5.76-5.72Zm9.8,0V78.26a7,7,0,0,0,1.79,5.17,7.08,7.08,0,0,0,5.2,1.77h7.66a7.12,7.12,0,0,0,5.21-1.77,7,7,0,0,0,1.79-5.17H60.22V55.34Zm9.34,0V74.12H76.71V61.06A5.73,5.73,0,0,0,75,57,5.8,5.8,0,0,0,71,55.34Z"/><path class="cls-5" d="M39.5,62.53H34.63v4.83H39.5Z"/><path class="cls-5" d="M39.5,76.3H34.63v4.83H39.5Z"/><path class="cls-5" d="M39.5,90.17H34.63V95H39.5Z"/><path class="cls-6" d="M90.32,78.55a1.06,1.06,0,0,1,0-.5,1.12,1.12,0,0,1,.27-.43,1.08,1.08,0,0,1,.43-.27,1.11,1.11,0,0,1,.51,0h.31a1.1,1.1,0,0,1,.51,0,1.12,1.12,0,0,1,.44.27,1,1,0,0,1,.26.43,1.06,1.06,0,0,1,0,.5v22.29a1.11,1.11,0,0,1,0,.51,1.13,1.13,0,0,1-.26.43,1.1,1.1,0,0,1-.44.26,1.25,1.25,0,0,1-.51,0h-.31a1.27,1.27,0,0,1-.51,0,1.06,1.06,0,0,1-.43-.26,1.3,1.3,0,0,1-.27-.43,1.11,1.11,0,0,1,0-.51Z"/><path class="cls-6" d="M112.73,90.78a3.31,3.31,0,0,1-.94,2.62,6,6,0,0,1-3.31,1.12l-8.38.88A5.24,5.24,0,0,0,102,98.74a6.26,6.26,0,0,0,3.82,1.1A16.17,16.17,0,0,0,110,99.2a1.39,1.39,0,0,1,.53-.1,1.52,1.52,0,0,1,.52.12.84.84,0,0,1,.3.35.8.8,0,0,1,.07.46v.22a1.25,1.25,0,0,1-.26.89,1.3,1.3,0,0,1-.78.49,17.3,17.3,0,0,1-4.85.76,8.16,8.16,0,0,1-6.1-2.29q-2.23-2.28-2.24-6.63c0-2.87.7-5.07,2.11-6.62a9.35,9.35,0,0,1,11.5-.63,5.69,5.69,0,0,1,2,4.56ZM100,92.86l8-.83a3.54,3.54,0,0,0,1.65-.44,1.31,1.31,0,0,0,.32-.48,1.22,1.22,0,0,0,.09-.57,3,3,0,0,0-.28-1.39A3.14,3.14,0,0,0,108.8,88a5.34,5.34,0,0,0-3.38-.93C102,87.09,100.12,89,100,92.86Z"/><path class="cls-6" d="M128.63,78.55a1.2,1.2,0,0,1,.05-.5,1,1,0,0,1,.27-.43,1.08,1.08,0,0,1,.43-.27,1.1,1.1,0,0,1,.51,0h.26a1.11,1.11,0,0,1,.51,0,1.21,1.21,0,0,1,.43.27,1.12,1.12,0,0,1,.27.43,1.06,1.06,0,0,1,0,.5V97.33a4.75,4.75,0,0,1-1.45,3.85q-1.45,1.21-5.06,1.22c-3.06,0-5.36-.7-6.9-2.08s-2.32-3.67-2.32-6.85.77-5.44,2.32-6.83,3.85-2.09,6.9-2.09a31.19,31.19,0,0,1,3.74.26Zm-3.92,21.29a8.54,8.54,0,0,0,2.08-.2A2.41,2.41,0,0,0,128,99a2,2,0,0,0,.51-.87,4.76,4.76,0,0,0,.12-1.19v-9.5a26.94,26.94,0,0,0-3.92-.35q-3.25,0-4.76,1.44c-1,1-1.51,2.59-1.51,4.91s.51,3.94,1.52,4.91A6.65,6.65,0,0,0,124.71,99.84Z"/><path class="cls-6" d="M144.22,84.55q3.61,0,5.07,1.23a4.75,4.75,0,0,1,1.47,3.85V103a5.73,5.73,0,0,1-2.12,4.79,8.66,8.66,0,0,1-5.5,1.65,15.85,15.85,0,0,1-4.53-.69,1.36,1.36,0,0,1-.78-.5,1.33,1.33,0,0,1-.27-.9v-.07a1,1,0,0,1,.06-.53,1,1,0,0,1,.33-.42,1,1,0,0,1,.5-.18,1,1,0,0,1,.53.1,16.29,16.29,0,0,0,4.05.57,6.11,6.11,0,0,0,3.61-1,3.35,3.35,0,0,0,1-1.27A3.26,3.26,0,0,0,148,103v-.88a33.38,33.38,0,0,1-3.74.24c-3,0-5.34-.69-6.88-2.08S135,96.66,135,93.49s.77-5.45,2.32-6.85S141.18,84.55,144.22,84.55Zm-.17,15.29a25.85,25.85,0,0,0,3.92-.36V90a5.28,5.28,0,0,0-.12-1.19,2.21,2.21,0,0,0-.51-.89,2.33,2.33,0,0,0-1.19-.6,9.89,9.89,0,0,0-2.1-.19,6.68,6.68,0,0,0-4.76,1.46q-1.51,1.45-1.51,4.91t1.51,4.9Q140.81,99.85,144.05,99.84Z"/><path class="cls-6" d="M169.91,90.78A3.31,3.31,0,0,1,169,93.4a6,6,0,0,1-3.31,1.12l-8.38.88a5.2,5.2,0,0,0,1.91,3.34A6.17,6.17,0,0,0,163,99.83a15.74,15.74,0,0,0,4.15-.63,1.35,1.35,0,0,1,.53-.1,1.58,1.58,0,0,1,.52.12.92.92,0,0,1,.3.35.8.8,0,0,1,.07.46v.22a1.25,1.25,0,0,1-.26.89,1.3,1.3,0,0,1-.78.49,17.35,17.35,0,0,1-4.85.76,8.16,8.16,0,0,1-6.1-2.29c-1.5-1.52-2.24-3.73-2.24-6.63s.7-5.07,2.11-6.62a9.35,9.35,0,0,1,11.5-.63,5.69,5.69,0,0,1,1.95,4.56Zm-12.78,2.08,8-.83a3.54,3.54,0,0,0,1.65-.44,1.47,1.47,0,0,0,.33-.48,1.36,1.36,0,0,0,.08-.57A3,3,0,0,0,166,88a5.34,5.34,0,0,0-3.38-.93Q157.38,87.09,157.13,92.86Z"/><path class="cls-6" d="M181.21,84.7a1.36,1.36,0,0,1,1,.3,1.27,1.27,0,0,1,.26.43,1.22,1.22,0,0,1,.08.5V86c0,.83-.46,1.24-1.36,1.24s-1.77,0-2.37.1-1,.12-1.48.21a1.56,1.56,0,0,0-.83.41,1.34,1.34,0,0,0-.32.57,3.33,3.33,0,0,0-.07.84v11.45a1.11,1.11,0,0,1,0,.51,1,1,0,0,1-.27.43,1.06,1.06,0,0,1-.43.26,1.1,1.1,0,0,1-.51,0h-.31a1.11,1.11,0,0,1-.51,0,1.06,1.06,0,0,1-.43-.26,1.21,1.21,0,0,1-.27-.43,1.11,1.11,0,0,1,0-.51V89.07a6.36,6.36,0,0,1,.18-1.68,2.84,2.84,0,0,1,.74-1.29,2.87,2.87,0,0,1,1.3-.74,12.41,12.41,0,0,1,2.26-.46C178.93,84.78,180.07,84.71,181.21,84.7Z"/><path class="cls-5" d="M104.21,56.5a.62.62,0,0,1,0-.33.59.59,0,0,1,.17-.27.75.75,0,0,1,.28-.18.73.73,0,0,1,.33,0h.16a.72.72,0,0,1,.6.2.71.71,0,0,1,.18.27.93.93,0,0,1,0,.33v8.73q0,4.63-1.92,6.54c-1.27,1.26-3.25,1.89-5.92,1.9s-4.64-.64-5.92-1.9-1.91-3.45-1.91-6.54V56.5a.62.62,0,0,1,0-.33.59.59,0,0,1,.17-.27.62.62,0,0,1,.28-.17.61.61,0,0,1,.33,0h.16a.69.69,0,0,1,.32,0,.68.68,0,0,1,.28.18.71.71,0,0,1,.18.27.93.93,0,0,1,0,.33v8.73q0,3.8,1.41,5.29T98.15,72q3.24,0,4.65-1.48t1.41-5.29Z"/><path class="cls-5" d="M118.69,55.52c.57,0,.86.27.86.8v0c0,.54-.29.81-.88.81-1.13,0-2,0-2.77.11a14.74,14.74,0,0,0-1.75.25,1.9,1.9,0,0,0-1,.48,1.54,1.54,0,0,0-.41.68,3.94,3.94,0,0,0-.09,1V72.54a.62.62,0,0,1,0,.33.65.65,0,0,1-.17.27.62.62,0,0,1-.28.17.61.61,0,0,1-.33,0h-.18a.58.58,0,0,1-.32,0,.62.62,0,0,1-.28-.17.8.8,0,0,1-.18-.27.74.74,0,0,1,0-.33v-13a5.58,5.58,0,0,1,.16-1.52,2.52,2.52,0,0,1,.62-1.1,2.92,2.92,0,0,1,1.34-.77,11.37,11.37,0,0,1,2.24-.43C116.16,55.59,117.31,55.53,118.69,55.52Z"/><path class="cls-5" d="M128.92,55.36q4.5,0,6.78,2.14c1.52,1.44,2.28,3.77,2.28,7s-.76,5.57-2.28,7-3.78,2.15-6.78,2.15a12.55,12.55,0,0,1-3-.32,4.12,4.12,0,0,1-1.92-1,3.76,3.76,0,0,1-1-1.53,6.78,6.78,0,0,1-.28-2.1V48.58a.58.58,0,0,1,0-.32.69.69,0,0,1,.45-.45.91.91,0,0,1,.33,0h.16a.85.85,0,0,1,.32,0,.57.57,0,0,1,.28.17.75.75,0,0,1,.18.28.85.85,0,0,1,0,.32v7.15A30.13,30.13,0,0,1,128.92,55.36ZM129,72q3.69,0,5.44-1.74t1.75-5.76q0-4-1.75-5.74T129,57a27.71,27.71,0,0,0-4.55.43V68.53a5.59,5.59,0,0,0,.15,1.41,2.77,2.77,0,0,0,.6,1.07,2.66,2.66,0,0,0,1.38.76A10.4,10.4,0,0,0,129,72Z"/><path class="cls-5" d="M148.81,55.36A8,8,0,0,1,154.08,57a6,6,0,0,1,1.56,2.17,5.77,5.77,0,0,1,.43,2.63v6.49a5.38,5.38,0,0,1-1.18,3.81c-.78.83-2.16,1.25-4.14,1.25h-3.14a7.48,7.48,0,0,1-4.56-1.16,4.53,4.53,0,0,1-1.53-3.86,4.55,4.55,0,0,1,1.53-3.86,7.49,7.49,0,0,1,4.56-1.15h6.66V61.79a4.26,4.26,0,0,0-1.49-3.56,6.41,6.41,0,0,0-4.11-1.2,20.56,20.56,0,0,0-5.23.79.78.78,0,0,1-.34,0,.66.66,0,0,1-.33-.09.6.6,0,0,1-.19-.23.53.53,0,0,1-.05-.3v-.13q0-.7.84-1A20.45,20.45,0,0,1,148.81,55.36Zm1.8,16.38a6.09,6.09,0,0,0,1.9-.25,2.28,2.28,0,0,0,1.12-.76,2.88,2.88,0,0,0,.51-1.09,6.24,6.24,0,0,0,.13-1.43V64.89h-6.66a5.46,5.46,0,0,0-3.32.8,3.94,3.94,0,0,0,0,5.27,5.52,5.52,0,0,0,3.32.78Z"/><path class="cls-5" d="M165.39,55.78a13.93,13.93,0,0,1,6.79,0,5.77,5.77,0,0,1,2.43,1.4,5.89,5.89,0,0,1,1.52,2.61,14.2,14.2,0,0,1,.49,4v8.75a.62.62,0,0,1,0,.33.59.59,0,0,1-.17.27.62.62,0,0,1-.28.17.61.61,0,0,1-.33,0h-.16a.74.74,0,0,1-.33,0,.84.84,0,0,1-.28-.18.83.83,0,0,1-.17-.27.93.93,0,0,1,0-.33V63.79q0-3.8-1.41-5.28c-.94-1-2.49-1.48-4.64-1.48s-3.71.5-4.65,1.48-1.41,2.75-1.41,5.28v8.75a.62.62,0,0,1,0,.33.59.59,0,0,1-.17.27.73.73,0,0,1-.61.2h-.16a.62.62,0,0,1-.33,0,.59.59,0,0,1-.27-.17.8.8,0,0,1-.18-.27.93.93,0,0,1,0-.33V63.79a13.85,13.85,0,0,1,.5-4,5.62,5.62,0,0,1,3.94-4Z"/><path class="cls-5" d="M38.83,128H37.19V118.9H34v-1.4h8.09v1.4H38.83Zm4.43,0v-7.62h1.5v1.29h0a1.87,1.87,0,0,1,.68-1,1.83,1.83,0,0,1,1.17-.38,2.48,2.48,0,0,1,.54.06v1.46a2.13,2.13,0,0,0-.71-.09,1.44,1.44,0,0,0-.65.11,1.46,1.46,0,0,0-.55.36,1.79,1.79,0,0,0-.44,1.28V128Zm8.93-1.11a2,2,0,0,0,1.4-.5,1.53,1.53,0,0,0,.42-.56,1.64,1.64,0,0,0,.15-.68v-.61l-1.89.12a2.13,2.13,0,0,0-1.1.34,1,1,0,0,0-.29.35,1,1,0,0,0-.09.44,1,1,0,0,0,.09.45,1,1,0,0,0,.29.35,1.57,1.57,0,0,0,1,.3Zm-.44,1.24a2.64,2.64,0,0,1-1.84-.64,1.93,1.93,0,0,1-.54-.75,1.87,1.87,0,0,1-.17-.91,1.81,1.81,0,0,1,.18-.88,1.94,1.94,0,0,1,.56-.71,3.72,3.72,0,0,1,2.12-.66l2.1-.12v-.59a1.3,1.3,0,0,0-.09-.55,1.28,1.28,0,0,0-.32-.45,1.7,1.7,0,0,0-1.13-.36,1.89,1.89,0,0,0-1.09.3,1.27,1.27,0,0,0-.53.82H49.5a2.35,2.35,0,0,1,.27-1,2.48,2.48,0,0,1,.65-.76,3.55,3.55,0,0,1,2.25-.66,3.38,3.38,0,0,1,2.23.68,2.25,2.25,0,0,1,.63.81,2.37,2.37,0,0,1,.2,1V128H54.22v-1.25h0a2.49,2.49,0,0,1-1,1,2.93,2.93,0,0,1-1.43.37ZM65.35,123h-1.5a1.76,1.76,0,0,0-.6-1,2,2,0,0,0-1.41-.4,1.88,1.88,0,0,0-1.27.71,3,3,0,0,0-.55,1.93,3.06,3.06,0,0,0,.55,1.94,1.75,1.75,0,0,0,.65.53,1.85,1.85,0,0,0,.83.17,1.82,1.82,0,0,0,1.19-.37,1.77,1.77,0,0,0,.61-1h1.52a2.75,2.75,0,0,1-.32,1.09,2.94,2.94,0,0,1-.72.89,3.51,3.51,0,0,1-2.29.75,3.55,3.55,0,0,1-1.44-.24,3.66,3.66,0,0,1-1.2-.82,4.71,4.71,0,0,1,0-5.78,3.26,3.26,0,0,1,1.19-.82A3.4,3.4,0,0,1,62,120.2a3.36,3.36,0,0,1,2.32.79,2.91,2.91,0,0,1,1,2Zm4.28.64,3.11-3.26h1.85l-3.18,3.28L74.72,128H72.89l-2.61-3.38-.66.64V128H68V117.5h1.58v6.1Zm9.26,4.17a.91.91,0,0,1-.59.28,1,1,0,0,1-.64-.15,1,1,0,0,1-.39-.52.91.91,0,0,1,0-.65,1,1,0,0,1,1.09-.59,1,1,0,0,1,.56.34,1,1,0,0,1,.22.61.94.94,0,0,1-.07.37,1.06,1.06,0,0,1-.21.31ZM88,118.86v3.77h2.3a2.09,2.09,0,0,0,1.47-.5,1.78,1.78,0,0,0,.4-.64,1.91,1.91,0,0,0,.12-.75,1.77,1.77,0,0,0-.13-.75,1.74,1.74,0,0,0-.42-.63,2.11,2.11,0,0,0-1.49-.5Zm0,5.08v4H86.4V117.5h4.08a3.64,3.64,0,0,1,2.57.87,3,3,0,0,1,1,2.33,3.24,3.24,0,0,1-.55,1.86,2.8,2.8,0,0,1-1.5,1.12L94.32,128H92.43l-2.15-4ZM101.41,122a1.75,1.75,0,0,0-1.33-.55,1.83,1.83,0,0,0-.74.13,1.79,1.79,0,0,0-.62.42,2.2,2.2,0,0,0-.6,1.43H102a2.05,2.05,0,0,0-.55-1.43Zm.54,3.71h1.5a2.49,2.49,0,0,1-.36,1,2.57,2.57,0,0,1-.72.75,3.69,3.69,0,0,1-2.23.67,3.39,3.39,0,0,1-1.44-.24,3.48,3.48,0,0,1-1.22-.81,4.12,4.12,0,0,1-1-2.87,4.19,4.19,0,0,1,1-2.9,3.28,3.28,0,0,1,2.6-1.09,3.27,3.27,0,0,1,1.38.24,3.12,3.12,0,0,1,1.14.79,4,4,0,0,1,.94,2.77v.54H98.11v.1a2.25,2.25,0,0,0,.56,1.6,2,2,0,0,0,.69.46,2.34,2.34,0,0,0,2-.17,1.42,1.42,0,0,0,.63-.81Zm4.31,2.24v-7.62h1.5v1.28h0a2.23,2.23,0,0,1,.84-1,2.39,2.39,0,0,1,1.35-.39,2.32,2.32,0,0,1,1.35.4,2.11,2.11,0,0,1,.8,1.1h0a2.35,2.35,0,0,1,.94-1.1,2.79,2.79,0,0,1,1.46-.4,2.57,2.57,0,0,1,1,.16,2.55,2.55,0,0,1,.84.53,2.59,2.59,0,0,1,.53.85,2.32,2.32,0,0,1,.15,1V128H115.5V123.1a1.57,1.57,0,0,0-.39-1.15,1.43,1.43,0,0,0-.49-.32,1.32,1.32,0,0,0-.59-.08,1.52,1.52,0,0,0-1.14.46,1.69,1.69,0,0,0-.45,1.19V128h-1.55v-5a1.35,1.35,0,0,0-.09-.56,1.23,1.23,0,0,0-.79-.79,1.61,1.61,0,0,0-.57-.08,1.45,1.45,0,0,0-1.15.48,1.67,1.67,0,0,0-.45,1.22V128Zm13.89,0v-7.62h1.58V128Zm1.44-9a.77.77,0,0,1-.3.19.91.91,0,0,1-.7,0,.81.81,0,0,1-.29-.19.8.8,0,0,1-.2-.29.84.84,0,0,1-.07-.35.8.8,0,0,1,.07-.34.72.72,0,0,1,.2-.29.91.91,0,0,1,.65-.26.94.94,0,0,1,.65.26,1,1,0,0,1,.2.29.95.95,0,0,1,0,.69A.72.72,0,0,1,121.59,119Zm3.25,9v-7.62h1.51v1.27h0a2.42,2.42,0,0,1,.94-1,2.83,2.83,0,0,1,1.48-.37,2.61,2.61,0,0,1,1.07.17,2.4,2.4,0,0,1,.9.58,3,3,0,0,1,.7,2.07V128h-1.59v-4.63a1.85,1.85,0,0,0-.41-1.32,1.58,1.58,0,0,0-.56-.36,1.66,1.66,0,0,0-.66-.1,1.82,1.82,0,0,0-.73.13,1.65,1.65,0,0,0-.6.41,2,2,0,0,0-.5,1.43V128Zm12.53.13a2.78,2.78,0,0,1-1.3-.26,2.75,2.75,0,0,1-1-.81,4.36,4.36,0,0,1-.89-2.87,4.41,4.41,0,0,1,.88-2.87,2.93,2.93,0,0,1,1-.81,3.05,3.05,0,0,1,1.3-.26,2.82,2.82,0,0,1,1.45.37,2.48,2.48,0,0,1,1,1h0v-4.1h1.59V128h-1.54v-1.3h0a2.54,2.54,0,0,1-1,1A2.78,2.78,0,0,1,137.37,128.09Zm.42-6.56a1.82,1.82,0,0,0-.83.17,1.8,1.8,0,0,0-.65.54,3.59,3.59,0,0,0,0,3.82,1.84,1.84,0,0,0,1.47.7,1.89,1.89,0,0,0,.82-.18,2,2,0,0,0,.66-.53,3,3,0,0,0,.55-1.9,2.94,2.94,0,0,0-.56-1.9,1.6,1.6,0,0,0-.64-.54A1.79,1.79,0,0,0,137.79,121.53Zm8.57,6.24a1,1,0,0,1-1.23.13.92.92,0,0,1-.39-.52,1,1,0,0,1,0-.65,1.05,1.05,0,0,1,.44-.49,1,1,0,0,1,.65-.09,1,1,0,0,1,.57.33,1,1,0,0,1,.22.61.94.94,0,0,1-.07.37,1.06,1.06,0,0,1-.21.31Zm7.5-10.27h3.95a3.3,3.3,0,0,1,1.36.22,3.2,3.2,0,0,1,1.15.74,3.77,3.77,0,0,1,.74,3.82,3.39,3.39,0,0,1-.76,1.15,3.3,3.3,0,0,1-1.17.73,3.35,3.35,0,0,1-1.37.23H155.5V128h-1.64Zm1.64,1.37V123h1.88a2.31,2.31,0,0,0,1.65-.55,2,2,0,0,0,.46-.7,2.16,2.16,0,0,0,.13-.83,2.13,2.13,0,0,0-.13-.83,2,2,0,0,0-.46-.7,2.32,2.32,0,0,0-1.64-.55Zm10.61,8a2,2,0,0,0,1.4-.5,1.53,1.53,0,0,0,.42-.56,1.64,1.64,0,0,0,.15-.68v-.61l-1.9.12a2.09,2.09,0,0,0-1.09.34,1,1,0,0,0-.29.35,1,1,0,0,0-.09.44,1,1,0,0,0,.09.45,1,1,0,0,0,.29.35A1.63,1.63,0,0,0,166.11,126.85Zm-.44,1.24a2.64,2.64,0,0,1-1.84-.64,1.93,1.93,0,0,1-.54-.75,2,2,0,0,1-.18-.91,2,2,0,0,1,.75-1.59,3.71,3.71,0,0,1,2.11-.66l2.11-.12v-.59a1.3,1.3,0,0,0-.09-.55,1.28,1.28,0,0,0-.32-.45,1.7,1.7,0,0,0-1.13-.36,1.89,1.89,0,0,0-1.09.3,1.27,1.27,0,0,0-.53.82h-1.5a2.35,2.35,0,0,1,.27-1,2.19,2.19,0,0,1,.66-.76,3.6,3.6,0,0,1,2.25-.67,3.4,3.4,0,0,1,2.22.68,2.29,2.29,0,0,1,.63.82,2.2,2.2,0,0,1,.2,1V128h-1.51v-1.25h0a2.49,2.49,0,0,1-1,1A2.93,2.93,0,0,1,165.67,128.09Zm7.76,2.71a3.43,3.43,0,0,1-.64,0V129.5a4.36,4.36,0,0,0,.51,0,1.35,1.35,0,0,0,.87-.25,1.69,1.69,0,0,0,.5-.84s0-.08.07-.24l.07-.23L172,120.34h1.71l1.95,6.2h0l1.95-6.2h1.67l-2.89,8a4.29,4.29,0,0,1-1.14,1.92A2.88,2.88,0,0,1,173.43,130.8Zm9.12-3a.94.94,0,0,1-.59.28,1,1,0,0,1-.64-.15,1,1,0,0,1-.39-.52.91.91,0,0,1,0-.65,1,1,0,0,1,1.09-.59,1,1,0,0,1,.56.34,1,1,0,0,1,.22.61.94.94,0,0,1-.07.37,1.06,1.06,0,0,1-.21.31Z"/></g></svg>