<svg xmlns="http://www.w3.org/2000/svg" width="197.66" height="83.109" viewBox="0 0 197.66 83.109">
    <g data-name="Group 3" id="Group_3" transform="translate(-80.265 -110.18)">
        <path
            d="M91.318,115.421h7.316V146.3q0,7.659,3.731,11.389t11.391,3.731h10.232a17.947,17.947,0,0,0,9.346-2.14v11.4a7.727,7.727,0,0,1-7.7,7.7H91.318a7.727,7.727,0,0,1-7.7-7.7v-1.847h6.5v-6.5h-6.5V150.156h6.5v-6.5h-6.5V131.612h6.5v-6.5h-6.5v-1.983a7.727,7.727,0,0,1,7.7-7.7Zm13.091,0V146.3q0,4.574,2.387,6.959h0q2.389,2.386,6.957,2.387h10.232q4.565,0,6.959-2.389t2.387-6.957v0H111.3V115.421Zm12.475,0v25.3h16.451V123.126a7.727,7.727,0,0,0-7.7-7.7Z"
            data-name="Path 1" fill="#7C4DFF" fill-rule="evenodd" id="Path_1"
            transform="translate(3.155 4.938)" />
        <rect data-name="Rectangle 1" fill="#666" height="6.503" id="Rectangle_1"
            transform="translate(80.265 130.048)" width="6.503" />
        <rect data-name="Rectangle 2" fill="#666" height="6.503" id="Rectangle_2"
            transform="translate(80.265 148.593)" width="6.503" />
        <rect data-name="Rectangle 3" fill="#666" height="6.503" id="Rectangle_3"
            transform="translate(80.265 167.271)" width="6.503" />
        <g data-name="Group 3" id="Group_3-2" transform="translate(154.673 149.948)">
            <path
                d="M118.575,132.331a1.482,1.482,0,0,1,1.676-1.676h.42a1.482,1.482,0,0,1,1.676,1.676v30.027a1.482,1.482,0,0,1-1.676,1.676h-.42a1.482,1.482,0,0,1-1.676-1.676Z"
                data-name="Path 2" fill="#7C4DFF" id="Path_2"
                transform="translate(-118.575 -130.655)" />
            <path
                d="M144.081,144.079a4.556,4.556,0,0,1-1.257,3.527,7.91,7.91,0,0,1-4.421,1.5l-11.2,1.187a7.023,7.023,0,0,0,2.546,4.5,8.282,8.282,0,0,0,5.11,1.478,20.719,20.719,0,0,0,5.541-.86,1.812,1.812,0,0,1,1.406.035,1.142,1.142,0,0,1,.5,1.082v.3a1.759,1.759,0,0,1-1.4,1.863,23.3,23.3,0,0,1-6.472,1.024,10.835,10.835,0,0,1-8.157-3.084q-2.992-3.085-2.991-8.927,0-5.8,2.816-8.917t8.194-3.117a10.582,10.582,0,0,1,7.181,2.257A7.725,7.725,0,0,1,144.081,144.079Zm-17.086,2.793,10.64-1.117a4.6,4.6,0,0,0,2.2-.594,1.686,1.686,0,0,0,.548-1.408,4.091,4.091,0,0,0-1.562-3.385,7.084,7.084,0,0,0-4.514-1.247Q127.346,139.1,126.995,146.872Z"
                data-name="Path 3" fill="#7C4DFF" id="Path_3"
                transform="translate(-114.128 -125.923)" />
            <path
                d="M153.337,132.331a1.482,1.482,0,0,1,1.676-1.676h.35a1.481,1.481,0,0,1,1.674,1.676v25.3q0,3.54-1.942,5.18t-6.761,1.641q-6.124,0-9.218-2.8t-3.1-9.23q0-6.377,3.1-9.195t9.218-2.816a41.479,41.479,0,0,1,5,.348ZM148.1,161.009a11.864,11.864,0,0,0,2.779-.268,3.208,3.208,0,0,0,1.606-.825,2.764,2.764,0,0,0,.688-1.175,6.417,6.417,0,0,0,.163-1.595v-12.8a34.733,34.733,0,0,0-5.236-.466q-4.356,0-6.369,1.933t-2.012,6.611q0,4.656,2.026,6.621T148.1,161.009Z"
                data-name="Path 4" fill="#7C4DFF" id="Path_4"
                transform="translate(-102.137 -130.655)" />
            <path
                d="M161.623,135.677q4.819,0,6.775,1.663t1.956,5.18v18.063a7.729,7.729,0,0,1-2.828,6.46,11.53,11.53,0,0,1-7.346,2.222,21.075,21.075,0,0,1-6.052-.93,1.8,1.8,0,0,1-1.4-1.886v-.093a1.313,1.313,0,0,1,1.886-1.395,21.829,21.829,0,0,0,5.423.767,8.063,8.063,0,0,0,4.817-1.28,4.457,4.457,0,0,0,1.771-3.865V159.4a43.605,43.605,0,0,1-5.005.326q-6.1,0-9.195-2.8t-3.1-9.206q0-6.4,3.1-9.218T161.623,135.677Zm-.233,20.6a33.345,33.345,0,0,0,5.238-.488v-12.78a6.648,6.648,0,0,0-.163-1.606,2.8,2.8,0,0,0-.676-1.189,3.077,3.077,0,0,0-1.593-.814,12.564,12.564,0,0,0-2.807-.256q-4.329,0-6.353,1.967t-2.026,6.611q0,4.641,2.026,6.6T161.39,156.277Z"
                data-name="Path 5" fill="#7C4DFF" id="Path_5"
                transform="translate(-89.594 -125.923)" />
            <path
                d="M183.419,144.079a4.563,4.563,0,0,1-1.257,3.527,7.911,7.911,0,0,1-4.423,1.5l-11.2,1.187a7.015,7.015,0,0,0,2.546,4.5,8.282,8.282,0,0,0,5.11,1.478,20.719,20.719,0,0,0,5.541-.86,1.812,1.812,0,0,1,1.406.035,1.142,1.142,0,0,1,.5,1.082v.3a1.759,1.759,0,0,1-1.4,1.863,23.3,23.3,0,0,1-6.472,1.024,10.835,10.835,0,0,1-8.157-3.084q-2.992-3.085-2.991-8.927,0-5.8,2.816-8.917t8.194-3.117a10.582,10.582,0,0,1,7.18,2.257A7.724,7.724,0,0,1,183.419,144.079Zm-17.086,2.793,10.64-1.117a4.6,4.6,0,0,0,2.2-.594,1.686,1.686,0,0,0,.548-1.408,4.1,4.1,0,0,0-1.562-3.385,7.084,7.084,0,0,0-4.514-1.247Q166.681,139.1,166.333,146.872Z"
                data-name="Path 6" fill="#7C4DFF" id="Path_6"
                transform="translate(-77.061 -125.923)" />
            <path
                d="M186.237,135.784a1.811,1.811,0,0,1,1.338.408,1.645,1.645,0,0,1,.455,1.247v.117q0,1.675-1.816,1.674-1.955.023-3.166.14a18.151,18.151,0,0,0-1.977.28,1.986,1.986,0,0,0-1.107.546,1.84,1.84,0,0,0-.431.769,5.152,5.152,0,0,0-.091,1.128v15.433a1.483,1.483,0,0,1-1.678,1.676h-.418a1.481,1.481,0,0,1-1.676-1.676V141.675a8.806,8.806,0,0,1,.245-2.27,3.794,3.794,0,0,1,2.723-2.735,16.487,16.487,0,0,1,3.026-.618A45.532,45.532,0,0,1,186.237,135.784Z"
                data-name="Path 7" fill="#7C4DFF" id="Path_7"
                transform="translate(-64.778 -125.823)" />
        </g>
        <g data-name="Group 4" id="Group_4" transform="translate(154.675 110.18)">
            <path
                d="M137.134,116.748a.956.956,0,0,1,1.082-1.08h.216a.956.956,0,0,1,1.08,1.08v11.766q0,6.243-2.558,8.8t-7.911,2.558q-5.352,0-7.909-2.558t-2.558-8.8V116.748a.955.955,0,0,1,1.08-1.08h.216a.955.955,0,0,1,1.082,1.08v11.766q0,5.113,1.884,7.118t6.206,2q4.323,0,6.207-2t1.884-7.118Z"
                data-name="Path 8" fill="#666" id="Path_8"
                transform="translate(-118.576 -105.009)" />
            <path
                d="M143.146,115.545q1.154,0,1.154,1.08v.072q0,1.081-1.179,1.08-2.255.023-3.7.157a18.147,18.147,0,0,0-2.329.336,2.545,2.545,0,0,0-1.309.649,2.1,2.1,0,0,0-.538.911,5.439,5.439,0,0,0-.122,1.309v17.335a.953.953,0,0,1-1.078,1.08h-.243a.953.953,0,0,1-1.078-1.08v-17.55a8.122,8.122,0,0,1,.216-2.053,3.529,3.529,0,0,1,.827-1.478,4.013,4.013,0,0,1,1.789-1.043,16.087,16.087,0,0,1,3-.577Q140.387,115.568,143.146,115.545Z"
                data-name="Path 9" fill="#666" id="Path_9"
                transform="translate(-105.241 -105.125)" />
            <path
                d="M149.177,120.383q6,0,9.051,2.894t3.049,9.435q0,6.543-3.049,9.436t-9.051,2.894a16.465,16.465,0,0,1-4.083-.433,5.58,5.58,0,0,1-2.568-1.332,5.132,5.132,0,0,1-1.3-2.065,9.07,9.07,0,0,1-.383-2.822V111.26a.954.954,0,0,1,1.08-1.08h.216a.955.955,0,0,1,1.082,1.08v9.628A40.666,40.666,0,0,1,149.177,120.383Zm.12,22.425q4.921,0,7.262-2.354t2.34-7.753q0-5.4-2.34-7.73T149.3,122.64a36.529,36.529,0,0,0-6.073.577v14.911a7.429,7.429,0,0,0,.2,1.9,3.717,3.717,0,0,0,.8,1.441,3.541,3.541,0,0,0,1.849,1.02A13.183,13.183,0,0,0,149.3,142.808Z"
                data-name="Path 10" fill="#666" id="Path_10"
                transform="translate(-97.591 -110.18)" />
            <path
                d="M163.547,115.433a10.7,10.7,0,0,1,7.035,2.2,7.9,7.9,0,0,1,2.665,6.47v8.738a7.31,7.31,0,0,1-1.573,5.126q-1.573,1.693-5.533,1.694h-4.2q-4.035,0-6.087-1.562t-2.053-5.2q0-3.639,2.053-5.2t6.087-1.56h8.905V124.1a5.782,5.782,0,0,0-2-4.8,8.529,8.529,0,0,0-5.485-1.61,27.017,27.017,0,0,0-6.988,1.057,1.056,1.056,0,0,1-.9-.047.8.8,0,0,1-.324-.721v-.169q0-.958,1.13-1.3A27.415,27.415,0,0,1,163.547,115.433Zm2.4,22.066a8,8,0,0,0,2.546-.338,2.969,2.969,0,0,0,1.486-1.02,3.928,3.928,0,0,0,.686-1.464,8.758,8.758,0,0,0,.179-1.933v-4.465h-8.905a7.214,7.214,0,0,0-4.43,1.068,5.314,5.314,0,0,0,0,7.1,7.275,7.275,0,0,0,4.43,1.057Z"
                data-name="Path 11" fill="#666" id="Path_11"
                transform="translate(-85.387 -105.23)" />
            <path
                d="M173.1,116a18.5,18.5,0,0,1,9.076,0,7.886,7.886,0,0,1,3.242,1.884,7.981,7.981,0,0,1,2.028,3.517,19.015,19.015,0,0,1,.658,5.392v11.788a.954.954,0,0,1-1.078,1.08h-.218a.955.955,0,0,1-1.08-1.08V126.791q0-5.116-1.884-7.109t-6.207-1.993q-4.321,0-6.206,1.993t-1.884,7.109v11.788a.956.956,0,0,1-1.082,1.08h-.216a.955.955,0,0,1-1.08-1.08V126.791a18.87,18.87,0,0,1,.66-5.392,7.963,7.963,0,0,1,2.028-3.517A7.874,7.874,0,0,1,173.1,116Z"
                data-name="Path 12" fill="#666" id="Path_12"
                transform="translate(-72.786 -105.23)" />
        </g>
    </g>
</svg>
