<svg id="Layer_1" data-name="Layer 1" xmlns="http://www.w3.org/2000/svg" viewBox="0 0 268.34 304.35"><defs><style>.cls-1{fill:#3c3c3c;}.cls-2{fill:#7c4dff;}.cls-3{fill:#727d83;}</style></defs><g id="Group_689" data-name="Group 689"><g id="Group_685" data-name="Group 685"><g id="Group_684" data-name="Group 684"><path id="Path_750" data-name="Path 750" class="cls-1" d="M39.09,142.47V111.13H45v50.72H39.09v-8.42h-.47A15.55,15.55,0,0,1,33,159.92a16.62,16.62,0,0,1-9.45,2.59,17.2,17.2,0,0,1-8.62-2.13A14.87,14.87,0,0,1,9,154.12,21.75,21.75,0,0,1,6.86,144V111.13h5.87v32.49a13.18,13.18,0,0,0,3.5,9.56,12,12,0,0,0,9,3.62,14.19,14.19,0,0,0,6.6-1.65A13.77,13.77,0,0,0,37,150.31,14.17,14.17,0,0,0,39.09,142.47Z"/><path id="Path_751" data-name="Path 751" class="cls-1" d="M53.51,161.85V111.13h5.71v7.79h.43a12.77,12.77,0,0,1,5.3-6.19,15.83,15.83,0,0,1,8.57-2.36l1.62,0,1.49.07v6l-1.39-.2a17.12,17.12,0,0,0-2.15-.13,14.68,14.68,0,0,0-7,1.67,12.49,12.49,0,0,0-6.65,11.31v32.76Z"/><path id="Path_752" data-name="Path 752" class="cls-1" d="M80.91,161.85V94.22h5.91V120.8h.53a22.73,22.73,0,0,1,2.86-4.69,15,15,0,0,1,4.92-4,16.31,16.31,0,0,1,7.71-1.64,18.77,18.77,0,0,1,11,3.29,21.63,21.63,0,0,1,7.37,9.18,33.32,33.32,0,0,1,2.64,13.72,33.54,33.54,0,0,1-2.63,13.77,21.55,21.55,0,0,1-7.33,9.21,18.48,18.48,0,0,1-10.91,3.3,16.06,16.06,0,0,1-7.71-1.65,15.21,15.21,0,0,1-5-4.08,23,23,0,0,1-2.91-4.73h-.73v9.41Zm5.81-25.33a30.11,30.11,0,0,0,1.84,10.88,16.76,16.76,0,0,0,5.28,7.43,14.41,14.41,0,0,0,16.92-.1,17.14,17.14,0,0,0,5.32-7.54,29.87,29.87,0,0,0,1.82-10.67A29.31,29.31,0,0,0,116.1,126a17.07,17.07,0,0,0-5.3-7.45,14.68,14.68,0,0,0-17-.1,16.58,16.58,0,0,0-5.27,7.33A29.65,29.65,0,0,0,86.72,136.52Z"/><path id="Path_753" data-name="Path 753" class="cls-1" d="M143.91,163a19.39,19.39,0,0,1-8.38-1.8,14.51,14.51,0,0,1-6.05-5.22,14.81,14.81,0,0,1-2.24-8.3,12.82,12.82,0,0,1,1.42-6.34,11.57,11.57,0,0,1,4-4.23,22.75,22.75,0,0,1,6.18-2.61,58.21,58.21,0,0,1,7.86-1.48c2.84-.36,5.24-.66,7.21-.93a13.07,13.07,0,0,0,4.51-1.25,3,3,0,0,0,1.56-2.78v-1.19a10.86,10.86,0,0,0-3.09-8.17q-3.09-3-8.87-3a15.31,15.31,0,0,0-8.93,2.41,13.41,13.41,0,0,0-4.84,5.68l-5.58-2a16.63,16.63,0,0,1,4.75-6.66,19.37,19.37,0,0,1,6.8-3.6,27,27,0,0,1,7.63-1.1,25.79,25.79,0,0,1,6.06.76,17.29,17.29,0,0,1,5.86,2.62,13.61,13.61,0,0,1,4.39,5.19,18.42,18.42,0,0,1,1.69,8.4v34.44H160v-8h-.37a15.86,15.86,0,0,1-3.13,4.35,16.05,16.05,0,0,1-5.22,3.47A18.62,18.62,0,0,1,143.91,163Zm.79-5.39a15.25,15.25,0,0,0,8.13-2.08,14.44,14.44,0,0,0,5.3-5.53A15.78,15.78,0,0,0,160,142.4v-7.33a5.68,5.68,0,0,1-2.2,1.12,28,28,0,0,1-3.53.88c-1.33.25-2.66.47-4,.64l-3.56.46a33.62,33.62,0,0,0-7.34,1.65,10.77,10.77,0,0,0-4.65,3.09,7.69,7.69,0,0,0-1.62,5,8.48,8.48,0,0,0,3.3,7.15A13.17,13.17,0,0,0,144.7,157.62Z"/><path id="Path_754" data-name="Path 754" class="cls-1" d="M180.4,130.15v31.7h-5.88V111.13h5.71v8h.53a14.3,14.3,0,0,1,5.56-6.26,17.3,17.3,0,0,1,9.37-2.36,18.33,18.33,0,0,1,9,2.13,14.8,14.8,0,0,1,6,6.25A21.71,21.71,0,0,1,212.89,129v32.86H207V129.36q0-6.24-3.48-9.88a12.37,12.37,0,0,0-9.33-3.63,14.31,14.31,0,0,0-7.1,1.72,12.43,12.43,0,0,0-4.9,4.93A15.44,15.44,0,0,0,180.4,130.15Z"/></g></g><g id="Group_686" data-name="Group 686"><path id="Path_755" data-name="Path 755" class="cls-2" d="M17.2,173.17V240.8h-12V173.17Z"/><path id="Path_756" data-name="Path 756" class="cls-2" d="M47.28,241.79a26,26,0,0,1-13.16-3.18,21.45,21.45,0,0,1-8.5-9.05,33.42,33.42,0,0,1,0-27.58A22.49,22.49,0,0,1,34,192.74a23.55,23.55,0,0,1,12.65-3.32,26,26,0,0,1,8.87,1.5,20.25,20.25,0,0,1,7.4,4.64,21.87,21.87,0,0,1,5.07,8A32.42,32.42,0,0,1,69.85,215v3.67H28.27v-8.05H58.39a13.06,13.06,0,0,0-1.49-6.13,10.79,10.79,0,0,0-4-4.24,11.44,11.44,0,0,0-6-1.55,11.71,11.71,0,0,0-6.44,1.76,12.29,12.29,0,0,0-4.31,4.63,13.23,13.23,0,0,0-1.57,6.25v7A16.44,16.44,0,0,0,36.13,226a11.48,11.48,0,0,0,4.52,4.82,13.46,13.46,0,0,0,6.8,1.66,14.06,14.06,0,0,0,4.73-.74,10.3,10.3,0,0,0,3.66-2.2,9.19,9.19,0,0,0,2.35-3.6l11.16,1.26a17.39,17.39,0,0,1-4,7.71A19.63,19.63,0,0,1,57.79,240,28.75,28.75,0,0,1,47.28,241.79Z"/><path id="Path_757" data-name="Path 757" class="cls-2" d="M94.12,241.69a19.11,19.11,0,0,1-10.7-3.07A20.89,20.89,0,0,1,76,229.71a33.34,33.34,0,0,1-2.74-14.2A33,33,0,0,1,76,201.22a20.57,20.57,0,0,1,7.55-8.81,19.38,19.38,0,0,1,10.6-3,15.72,15.72,0,0,1,7.33,1.5,14.11,14.11,0,0,1,4.56,3.6,22.38,22.38,0,0,1,2.6,3.94h.5v-25.3h12v67.63H109.37v-8h-.72a20.6,20.6,0,0,1-2.68,3.92,14.57,14.57,0,0,1-4.62,3.51A15.84,15.84,0,0,1,94.12,241.69Zm3.33-9.8a10.32,10.32,0,0,0,6.47-2.07,12.8,12.8,0,0,0,4.07-5.76,24.57,24.57,0,0,0,1.38-8.62,24.14,24.14,0,0,0-1.37-8.55,12.28,12.28,0,0,0-4-5.65,11.65,11.65,0,0,0-13.19.07,12.54,12.54,0,0,0-4,5.74,26.81,26.81,0,0,0,0,16.86,12.94,12.94,0,0,0,4.06,5.84,10.33,10.33,0,0,0,6.62,2.14Z"/><path id="Path_758" data-name="Path 758" class="cls-2" d="M151.32,260.68A31.73,31.73,0,0,1,140.26,259a19.7,19.7,0,0,1-7.43-4.59,15.77,15.77,0,0,1-3.9-6.3l10.77-2.61a12.73,12.73,0,0,0,2.11,2.79,11,11,0,0,0,3.75,2.41,15.91,15.91,0,0,0,6,1,13.87,13.87,0,0,0,8.42-2.44c2.22-1.63,3.34-4.26,3.33-7.89v-9.61h-.59a17.44,17.44,0,0,1-2.69,3.8,14.25,14.25,0,0,1-4.66,3.27,17.45,17.45,0,0,1-7.25,1.32,20.78,20.78,0,0,1-10.58-2.76,19.39,19.39,0,0,1-7.53-8.26q-2.79-5.49-2.79-13.78A32.19,32.19,0,0,1,130,201.16a20.6,20.6,0,0,1,7.55-8.75,19.55,19.55,0,0,1,10.6-3,15.89,15.89,0,0,1,7.34,1.5,14.33,14.33,0,0,1,4.61,3.6,20,20,0,0,1,2.61,3.95h.66v-8.39h11.79v51.55a17.52,17.52,0,0,1-3.1,10.61,18.5,18.5,0,0,1-8.49,6.34A33.31,33.31,0,0,1,151.32,260.68Zm.1-30a11.15,11.15,0,0,0,6.47-1.85,11.38,11.38,0,0,0,4.06-5.32,22.3,22.3,0,0,0,1.39-8.32,23.49,23.49,0,0,0-1.37-8.39,12.28,12.28,0,0,0-4-5.6,11.7,11.7,0,0,0-13.19.08,12.68,12.68,0,0,0-4,5.7,23.16,23.16,0,0,0-1.35,8.21,22,22,0,0,0,1.37,8.14,11.67,11.67,0,0,0,4.06,5.41,11.06,11.06,0,0,0,6.62,1.94Z"/><path id="Path_759" data-name="Path 759" class="cls-2" d="M205.22,241.79a26,26,0,0,1-13.16-3.18,21.33,21.33,0,0,1-8.5-9.05,33.38,33.38,0,0,1,0-27.58,22.55,22.55,0,0,1,8.37-9.24,23.55,23.55,0,0,1,12.65-3.32,26,26,0,0,1,8.87,1.5,20.25,20.25,0,0,1,7.4,4.64,21.87,21.87,0,0,1,5.07,8A32.42,32.42,0,0,1,227.78,215v3.67H186.2v-8.05h30.11a12.94,12.94,0,0,0-1.48-6.13,10.86,10.86,0,0,0-4.05-4.24,11.47,11.47,0,0,0-6-1.55,11.69,11.69,0,0,0-6.44,1.76,12.29,12.29,0,0,0-4.31,4.63,13.23,13.23,0,0,0-1.57,6.25v7a16.44,16.44,0,0,0,1.62,7.58,11.48,11.48,0,0,0,4.52,4.82,13.46,13.46,0,0,0,6.8,1.66,14,14,0,0,0,4.72-.74,10.25,10.25,0,0,0,3.67-2.2,9.3,9.3,0,0,0,2.35-3.6l11.16,1.26a17.51,17.51,0,0,1-4,7.71,19.59,19.59,0,0,1-7.54,5.08A28.73,28.73,0,0,1,205.22,241.79Z"/><path id="Path_760" data-name="Path 760" class="cls-2" d="M233.23,240.8V190.08h11.59v8.45h.53a12.62,12.62,0,0,1,4.77-6.78,13.07,13.07,0,0,1,7.74-2.4c.66,0,1.41,0,2.23.08a17.82,17.82,0,0,1,2.06.25v11a13.86,13.86,0,0,0-2.39-.48,23.7,23.7,0,0,0-3.15-.21,12,12,0,0,0-5.86,1.4,10.5,10.5,0,0,0-4.08,3.88,10.91,10.91,0,0,0-1.49,5.71V240.8Z"/></g><g id="Group_688" data-name="Group 688"><g id="Group_687" data-name="Group 687"><path id="Path_761" data-name="Path 761" class="cls-3" d="M5.57,273.61V271H21v2.59H14.76v17.31h-3V273.61Z"/><path id="Path_762" data-name="Path 762" class="cls-3" d="M21.88,290.92V276h2.81v2.37h.16a3.6,3.6,0,0,1,1.44-1.9,4.07,4.07,0,0,1,2.34-.7l.65,0c.24,0,.45,0,.59,0v2.78a4.62,4.62,0,0,0-.63-.11,6.54,6.54,0,0,0-.89-.07,3.8,3.8,0,0,0-1.83.44,3.25,3.25,0,0,0-1.73,2.93v9.11Z"/><path id="Path_763" data-name="Path 763" class="cls-3" d="M35.91,291.25a6.12,6.12,0,0,1-2.56-.53,4.24,4.24,0,0,1-1.81-1.54,4.52,4.52,0,0,1-.67-2.48,4.09,4.09,0,0,1,.49-2.08,3.68,3.68,0,0,1,1.31-1.29,6.84,6.84,0,0,1,1.85-.72,20.87,20.87,0,0,1,2.07-.37l2.18-.25a3.17,3.17,0,0,0,1.21-.34.8.8,0,0,0,.38-.76v-.07a2.62,2.62,0,0,0-.71-2,3,3,0,0,0-2.12-.7,3.73,3.73,0,0,0-2.31.65,3.44,3.44,0,0,0-1.16,1.43l-2.73-.62a5.26,5.26,0,0,1,1.42-2.2,5.73,5.73,0,0,1,2.16-1.22,8.73,8.73,0,0,1,2.58-.39,10.14,10.14,0,0,1,1.9.21,5.72,5.72,0,0,1,1.88.76,4.2,4.2,0,0,1,1.44,1.58,5.46,5.46,0,0,1,.57,2.66v9.91H40.44v-2h-.11a4.16,4.16,0,0,1-.85,1.1,4.36,4.36,0,0,1-1.45.9A5.64,5.64,0,0,1,35.91,291.25Zm.64-2.33a4.22,4.22,0,0,0,2.06-.48,3.35,3.35,0,0,0,1.31-1.25,3.11,3.11,0,0,0,.45-1.65v-1.93a1.46,1.46,0,0,1-.6.29,8.49,8.49,0,0,1-1,.22l-1.1.17-.9.12a6.68,6.68,0,0,0-1.53.36,2.58,2.58,0,0,0-1.11.72,1.78,1.78,0,0,0-.41,1.25,1.83,1.83,0,0,0,.8,1.63,3.53,3.53,0,0,0,2,.55Z"/><path id="Path_764" data-name="Path 764" class="cls-3" d="M52.75,291.22a6.87,6.87,0,0,1-3.73-1,6.42,6.42,0,0,1-2.39-2.72,9.86,9.86,0,0,1,0-8,6.63,6.63,0,0,1,2.41-2.73,6.77,6.77,0,0,1,3.67-1,7,7,0,0,1,3,.63,5.54,5.54,0,0,1,2.15,1.75,5.33,5.33,0,0,1,1,2.63H56.05A3.37,3.37,0,0,0,55,279a3.15,3.15,0,0,0-2.22-.76,3.58,3.58,0,0,0-2.12.64,4.1,4.1,0,0,0-1.41,1.8,7.08,7.08,0,0,0-.5,2.77,7.28,7.28,0,0,0,.5,2.81,4.11,4.11,0,0,0,1.4,1.84,3.84,3.84,0,0,0,3.64.34,3.16,3.16,0,0,0,1.14-.88,3.32,3.32,0,0,0,.64-1.37h2.83a5.6,5.6,0,0,1-.94,2.58,5.5,5.5,0,0,1-2.1,1.79A7,7,0,0,1,52.75,291.22Z"/><path id="Path_765" data-name="Path 765" class="cls-3" d="M61.31,290.92V271h2.9v19.9ZM64,285.86l0-3.55h.51L70.41,276h3.48l-6.78,7.18h-.46Zm6.75,5.06-5.34-7.09,2-2,6.91,9.12Z"/><path id="Path_766" data-name="Path 766" class="cls-3" d="M77.76,291.1a1.94,1.94,0,0,1-1.94-1.94,1.86,1.86,0,0,1,.57-1.37,2,2,0,0,1,2.74,0h0a1.92,1.92,0,0,1,.3,2.35,2.13,2.13,0,0,1-.7.7A1.93,1.93,0,0,1,77.76,291.1Z"/><path id="Path_767" data-name="Path 767" class="cls-3" d="M89.39,290.92V271h7.09a8.37,8.37,0,0,1,3.84.8,5.29,5.29,0,0,1,2.29,2.2,6.66,6.66,0,0,1,.75,3.24,6.39,6.39,0,0,1-.76,3.21,5.12,5.12,0,0,1-2.29,2.15,8.34,8.34,0,0,1-3.84.77H91.1v-2.58h5.1a5.66,5.66,0,0,0,2.37-.42,2.79,2.79,0,0,0,1.35-1.21,4,4,0,0,0,.42-1.92,4.15,4.15,0,0,0-.43-1.95A2.92,2.92,0,0,0,98.56,274a5.6,5.6,0,0,0-2.4-.44H92.39v17.32Zm9.82-9,4.91,9H100.7l-4.82-9Z"/><path id="Path_768" data-name="Path 768" class="cls-3" d="M112.36,291.22a7.33,7.33,0,0,1-3.8-1,6.32,6.32,0,0,1-2.45-2.67,9.11,9.11,0,0,1-.86-4.05,9.27,9.27,0,0,1,.86-4,6.45,6.45,0,0,1,6-3.71,7.29,7.29,0,0,1,2.45.42,6,6,0,0,1,2.13,1.31,6.11,6.11,0,0,1,1.48,2.32,9.67,9.67,0,0,1,.55,3.45v1H106.9v-2.17h9a4.37,4.37,0,0,0-.47-2,3.5,3.5,0,0,0-1.3-1.4,3.7,3.7,0,0,0-2-.51,3.74,3.74,0,0,0-2.13.6,3.94,3.94,0,0,0-1.4,1.55,4.42,4.42,0,0,0-.49,2.08v1.7a5.45,5.45,0,0,0,.53,2.54,3.69,3.69,0,0,0,1.48,1.6,4.8,4.8,0,0,0,3.73.31,3.12,3.12,0,0,0,1.17-.71,3.08,3.08,0,0,0,.76-1.18l2.75.5a5,5,0,0,1-1.18,2.12,5.67,5.67,0,0,1-2.13,1.41A8,8,0,0,1,112.36,291.22Z"/><path id="Path_769" data-name="Path 769" class="cls-3" d="M121.31,290.92V276h2.78v2.42h.19a3.9,3.9,0,0,1,1.52-1.92,4.55,4.55,0,0,1,2.54-.7,4.36,4.36,0,0,1,2.51.7,4.14,4.14,0,0,1,1.5,1.93h.16a4.15,4.15,0,0,1,1.7-1.91,5.19,5.19,0,0,1,2.77-.71,4.49,4.49,0,0,1,3.32,1.27,5.17,5.17,0,0,1,1.29,3.83v10h-2.9v-9.73a2.68,2.68,0,0,0-.83-2.2,3,3,0,0,0-2-.68,2.81,2.81,0,0,0-2.2.87,3.2,3.2,0,0,0-.79,2.23v9.51H130V281a2.58,2.58,0,0,0-.75-1.95,2.71,2.71,0,0,0-2-.74,2.88,2.88,0,0,0-1.52.43,3.22,3.22,0,0,0-1.12,1.2,3.57,3.57,0,0,0-.42,1.78v9.2Z"/><path id="Path_770" data-name="Path 770" class="cls-3" d="M146.26,273.69a1.83,1.83,0,0,1-1.3-.5,1.66,1.66,0,0,1-.1-2.35.47.47,0,0,1,.1-.1,1.9,1.9,0,0,1,2.59,0,1.65,1.65,0,0,1,.1,2.34l-.1.11A1.82,1.82,0,0,1,146.26,273.69Zm-1.47,17.23V276h2.91v14.92Z"/><path id="Path_771" data-name="Path 771" class="cls-3" d="M153.82,282.06v8.86h-2.9V276h2.78v2.42h.19a4.28,4.28,0,0,1,1.62-1.9,5,5,0,0,1,2.78-.71,5.29,5.29,0,0,1,2.67.63,4.39,4.39,0,0,1,1.78,1.89,6.9,6.9,0,0,1,.63,3.1v9.49h-2.91v-9.14a3.57,3.57,0,0,0-.84-2.54,3,3,0,0,0-2.32-.92,3.6,3.6,0,0,0-1.79.44,3.12,3.12,0,0,0-1.24,1.28A4.27,4.27,0,0,0,153.82,282.06Z"/><path id="Path_772" data-name="Path 772" class="cls-3" d="M172.15,291.21a5.76,5.76,0,0,1-3.22-.93,6.26,6.26,0,0,1-2.21-2.65,11,11,0,0,1,0-8.28,6.13,6.13,0,0,1,2.23-2.63,5.82,5.82,0,0,1,3.21-.92,4.77,4.77,0,0,1,2.24.46,4.18,4.18,0,0,1,1.32,1.08,9,9,0,0,1,.74,1.08h.17V271h2.91v19.9h-2.84V288.6h-.24a8,8,0,0,1-.75,1.08,4.24,4.24,0,0,1-1.35,1.07A4.72,4.72,0,0,1,172.15,291.21Zm.64-2.48a3.43,3.43,0,0,0,2.13-.66,4.21,4.21,0,0,0,1.32-1.85,7.65,7.65,0,0,0,.45-2.76,7.4,7.4,0,0,0-.45-2.72,4,4,0,0,0-1.31-1.82,3.83,3.83,0,0,0-4.32,0,4.19,4.19,0,0,0-1.32,1.86,8.23,8.23,0,0,0,0,5.34,4.33,4.33,0,0,0,1.32,1.89,3.42,3.42,0,0,0,2.18.69Z"/><path id="Path_773" data-name="Path 773" class="cls-3" d="M184.91,291.1a2,2,0,0,1-1.94-1.94,1.83,1.83,0,0,1,.58-1.37,1.94,1.94,0,0,1,2.73,0h0a1.92,1.92,0,0,1,.31,2.35,2.13,2.13,0,0,1-.7.7A2,2,0,0,1,184.91,291.1Z"/><path id="Path_774" data-name="Path 774" class="cls-3" d="M196.54,290.92V271h7.09a7.89,7.89,0,0,1,3.85.85,5.41,5.41,0,0,1,2.28,2.31,7.46,7.46,0,0,1,0,6.58,5.49,5.49,0,0,1-2.29,2.31,7.77,7.77,0,0,1-3.84.85h-4.88v-2.54h4.6a4.87,4.87,0,0,0,2.38-.51,3,3,0,0,0,1.34-1.4,4.46,4.46,0,0,0,.43-2,4.35,4.35,0,0,0-.43-2,3.06,3.06,0,0,0-1.34-1.37,5,5,0,0,0-2.41-.49h-3.77v17.32Z"/><path id="Path_775" data-name="Path 775" class="cls-3" d="M217.32,291.25a6.13,6.13,0,0,1-2.57-.53,4.3,4.3,0,0,1-1.81-1.54,4.52,4.52,0,0,1-.67-2.48,4.09,4.09,0,0,1,.49-2.08,3.68,3.68,0,0,1,1.31-1.29,6.84,6.84,0,0,1,1.85-.72,20.56,20.56,0,0,1,2.08-.37l2.17-.25a3.22,3.22,0,0,0,1.22-.34.81.81,0,0,0,.37-.76v-.07a2.62,2.62,0,0,0-.71-2,3,3,0,0,0-2.12-.7,3.73,3.73,0,0,0-2.31.65,3.44,3.44,0,0,0-1.16,1.43l-2.73-.62a5.26,5.26,0,0,1,1.42-2.2,5.81,5.81,0,0,1,2.16-1.22,8.73,8.73,0,0,1,2.58-.39,10.14,10.14,0,0,1,1.9.21,5.72,5.72,0,0,1,1.88.76,4.31,4.31,0,0,1,1.45,1.58,5.57,5.57,0,0,1,.56,2.66v9.91h-2.84v-2h-.11a4.16,4.16,0,0,1-.85,1.1,4.36,4.36,0,0,1-1.45.9A5.62,5.62,0,0,1,217.32,291.25Zm.63-2.33a4.22,4.22,0,0,0,2.06-.48,3.35,3.35,0,0,0,1.31-1.25,3.11,3.11,0,0,0,.45-1.65v-1.93a1.46,1.46,0,0,1-.6.29,8.07,8.07,0,0,1-1,.22l-1.1.17-.89.12a6.89,6.89,0,0,0-1.54.36,2.64,2.64,0,0,0-1.11.72,1.88,1.88,0,0,0-.41,1.25,1.85,1.85,0,0,0,.8,1.63,3.61,3.61,0,0,0,2,.55Z"/><path id="Path_776" data-name="Path 776" class="cls-3" d="M229.15,296.47a5.88,5.88,0,0,1-1.18-.1,3.5,3.5,0,0,1-.8-.22l.7-2.38a3.41,3.41,0,0,0,2,.06,2.69,2.69,0,0,0,1.37-1.73l.36-1L226.14,276h3.11L233,287.58h.16L237,276l3.13,0-6.16,16.88a6.56,6.56,0,0,1-1.09,1.95,4.24,4.24,0,0,1-1.58,1.2A4.91,4.91,0,0,1,229.15,296.47Z"/><path id="Path_777" data-name="Path 777" class="cls-3" d="M243.12,291.1a2,2,0,0,1-1.94-1.94,1.87,1.87,0,0,1,.58-1.37,1.94,1.94,0,0,1,2.73,0h0a1.94,1.94,0,0,1,.3,2.35,2.13,2.13,0,0,1-.7.7A1.84,1.84,0,0,1,243.12,291.1Z"/></g></g><path id="Path_778" data-name="Path 778" class="cls-2" d="M257.49,68.18a3.28,3.28,0,0,0,3.28-3.28h0V25.2A17.35,17.35,0,0,0,243.45,7.88H190.73A17.34,17.34,0,0,0,173.41,25.2v55a17.34,17.34,0,0,0,17.32,17.32h32.6v17.3a3.28,3.28,0,0,0,5.75,2.17L260,81.73a3.28,3.28,0,0,0-2.47-5.44h-44.9l15.57-21.75V64.9a3.28,3.28,0,1,0,6.56,0V44.31a3.28,3.28,0,0,0-6-1.91L203.54,77.66a3.29,3.29,0,0,0,.76,4.58,3.34,3.34,0,0,0,1.91.61h44L229.9,106.09V94.23A3.28,3.28,0,0,0,226.62,91H190.73A10.75,10.75,0,0,1,180,80.2v-55a10.75,10.75,0,0,1,10.75-10.75h52.72a10.78,10.78,0,0,1,10.76,10.75v39.7a3.28,3.28,0,0,0,3.27,3.29Z"/></g></svg>