<svg id="Layer_1" data-name="Layer 1" xmlns="http://www.w3.org/2000/svg" viewBox="0 0 210.06 47.63"><defs><style>.cls-1{fill:#727d83;}.cls-2{fill:#323232;}.cls-3{fill:#7c4dff;}</style></defs><path class="cls-1" d="M40.46,36.77V35.6h6.86v1.17H44.53v7.7H43.19v-7.7Z"/><path class="cls-1" d="M48.05,44.48V37.83h1.23v1.06h0a1.68,1.68,0,0,1,.67-.84,1.87,1.87,0,0,1,1.06-.33h.56V39a2.13,2.13,0,0,0-.28-.06c-.11,0-.28,0-.39,0a2.28,2.28,0,0,0-.84.16,1.07,1.07,0,0,0-.55.56,1.69,1.69,0,0,0-.23.78v4.08H48.05Z"/><path class="cls-1" d="M54.58,44.59a2.34,2.34,0,0,1-1.12-.23,1.84,1.84,0,0,1-.78-.67,1.77,1.77,0,0,1-.28-1.11,1.7,1.7,0,0,1,.23-.95,1.58,1.58,0,0,1,.56-.56,8.21,8.21,0,0,1,.83-.34l.95-.16a7.85,7.85,0,0,1,1-.12c.22-.05.45-.05.56-.16a.35.35,0,0,0,.17-.34V39.9a1.18,1.18,0,0,0-.34-.9,1.23,1.23,0,0,0-1-.33,1.63,1.63,0,0,0-1,.28,1.2,1.2,0,0,0-.5.61l-1.23-.28a2.89,2.89,0,0,1,.61-1,2.39,2.39,0,0,1,.95-.56,4,4,0,0,1,1.17-.17,4.83,4.83,0,0,1,.84.11A2.7,2.7,0,0,1,57,38a2.23,2.23,0,0,1,.67.72,2.44,2.44,0,0,1,.22,1.18v4.41H56.65v-.9h-.06a1.45,1.45,0,0,1-.39.51,2,2,0,0,1-.67.39A1.39,1.39,0,0,1,54.58,44.59Zm.28-1a1.48,1.48,0,0,0,.89-.22,1.36,1.36,0,0,0,.56-.56,1.83,1.83,0,0,0,.23-.73v-.83a.37.37,0,0,1-.28.11c-.12,0-.28,0-.45.11s-.34.06-.5.06-.28,0-.39,0-.51.11-.67.17a.84.84,0,0,0-.51.33,1,1,0,0,0-.16.56.84.84,0,0,0,.33.73A2.7,2.7,0,0,0,54.86,43.58Z"/><path class="cls-1" d="M62.4,44.59a3.26,3.26,0,0,1-1.68-.45,2.58,2.58,0,0,1-1.06-1.23,4.49,4.49,0,0,1-.39-1.79,3.62,3.62,0,0,1,.39-1.78,3.37,3.37,0,0,1,1.06-1.23,3.07,3.07,0,0,1,1.62-.45,3.34,3.34,0,0,1,1.34.28,2.22,2.22,0,0,1,.95.78,2.85,2.85,0,0,1,.45,1.18H63.79a1.35,1.35,0,0,0-1.45-1.12,1.88,1.88,0,0,0-1,.28,1.45,1.45,0,0,0-.61.78,2.82,2.82,0,0,0-.23,1.23,2.68,2.68,0,0,0,.23,1.23,2.33,2.33,0,0,0,.61.83,1.88,1.88,0,0,0,1,.28A2.61,2.61,0,0,0,63,43.3a1.12,1.12,0,0,0,.5-.39,1.79,1.79,0,0,0,.28-.61h1.29a2.43,2.43,0,0,1-1.4,2A2.32,2.32,0,0,1,62.4,44.59Z"/><path class="cls-1" d="M66.53,44.47V35.6h1.28v8.87Zm1.17-2.28V40.62h.22l2.63-2.79h1.56L69.1,41h-.23Zm3,2.28-2.4-3.18.89-.89,3.07,4.07Z"/><path class="cls-1" d="M74.12,44.53A.87.87,0,0,1,73.51,43a.9.9,0,0,1,1.51.62,1.16,1.16,0,0,1-.12.44.81.81,0,0,1-.33.34A1,1,0,0,1,74.12,44.53Z"/><path class="cls-1" d="M79.93,44.47V35.6h3.18a4.09,4.09,0,0,1,1.74.33,2.18,2.18,0,0,1,1,1,3,3,0,0,1,.34,1.45,3.13,3.13,0,0,1-.34,1.45,2.36,2.36,0,0,1-1,.95,3.91,3.91,0,0,1-1.74.33h-2.4V40H83a2.64,2.64,0,0,0,1.06-.17,1.22,1.22,0,0,0,.62-.55,1.93,1.93,0,0,0,.17-.84,2.37,2.37,0,0,0-.17-.9,1.21,1.21,0,0,0-.62-.55A2.56,2.56,0,0,0,83,36.71H81.33v7.71h-1.4Zm4.36-4,2.17,4H85l-2.12-4Z"/><path class="cls-1" d="M90.48,44.59a3.07,3.07,0,0,1-1.67-.45A3.23,3.23,0,0,1,87.69,43a4.3,4.3,0,0,1,0-3.58,3.25,3.25,0,0,1,1.06-1.22,3.07,3.07,0,0,1,1.62-.45,3.63,3.63,0,0,1,1.12.17,3.36,3.36,0,0,1,1,.55,3.24,3.24,0,0,1,.67,1A4.59,4.59,0,0,1,93.33,41v.45H88v-1h4a1.5,1.5,0,0,0-.23-.89,1.46,1.46,0,0,0-.56-.62,1.55,1.55,0,0,0-.89-.22,1.72,1.72,0,0,0-1,.28,1.41,1.41,0,0,0-.61.67,1.81,1.81,0,0,0-.23,1v.78a2.19,2.19,0,0,0,.23,1.12,1.68,1.68,0,0,0,.67.72,1.88,1.88,0,0,0,1,.23,2.55,2.55,0,0,0,.67-.12.8.8,0,0,0,.51-.33,1.54,1.54,0,0,0,.33-.5l1.23.22a3.09,3.09,0,0,1-.5,1,2.14,2.14,0,0,1-1,.61A3.25,3.25,0,0,1,90.48,44.59Z"/><path class="cls-1" d="M94.78,44.48V37.83H96v1.06h.06a1.47,1.47,0,0,1,.67-.84,1.89,1.89,0,0,1,1.11-.33,1.8,1.8,0,0,1,1.12.33,2.62,2.62,0,0,1,.67.84h.06a1.89,1.89,0,0,1,.78-.84,2.26,2.26,0,0,1,1.23-.33,1.83,1.83,0,0,1,1.45.56,2.31,2.31,0,0,1,.56,1.73v4.47h-1.29V40.12a1.21,1.21,0,0,0-.39-1,1.23,1.23,0,0,0-.89-.27,1.27,1.27,0,0,0-1,.39,1.56,1.56,0,0,0-.33,1v4.25H98.64V40.06a1.28,1.28,0,0,0-.34-.89,1.18,1.18,0,0,0-.89-.33,1.47,1.47,0,0,0-.67.16,1,1,0,0,0-.51.56,1.78,1.78,0,0,0-.16.78v4.08H94.78Z"/><path class="cls-1" d="M106.18,36.77a.74.74,0,0,1-.56-.22.73.73,0,0,1-.23-.56.71.71,0,0,1,.23-.56.7.7,0,0,1,.56-.22.68.68,0,0,1,.55.22A.71.71,0,0,1,107,36a.73.73,0,0,1-.23.56A.72.72,0,0,1,106.18,36.77Zm-.67,7.7V37.83h1.28v6.64Z"/><path class="cls-1" d="M109.86,40.51v4h-1.28V37.83h1.23v1.06h0a2.16,2.16,0,0,1,.73-.84,2.13,2.13,0,0,1,1.23-.33A2.59,2.59,0,0,1,113,38a1.65,1.65,0,0,1,.78.84,3.37,3.37,0,0,1,.28,1.39v4.25h-1.29V40.4a1.45,1.45,0,0,0-.39-1.12,1.3,1.3,0,0,0-1.06-.39,1.79,1.79,0,0,0-.78.17,1.76,1.76,0,0,0-.56.56A4.23,4.23,0,0,0,109.86,40.51Z"/><path class="cls-1" d="M118.35,44.59a2.55,2.55,0,0,1-1.45-.39,2.93,2.93,0,0,1-1-1.18,5.29,5.29,0,0,1,0-3.68,2.59,2.59,0,0,1,2.46-1.56,1.87,1.87,0,0,1,1,.22,1.4,1.4,0,0,1,.62.5,3.3,3.3,0,0,1,.33.5h.06V35.71h1.28v8.88h-1.28V43.53h-.11a2.1,2.1,0,0,1-.34.5,3,3,0,0,1-.61.5C119.07,44.53,118.74,44.59,118.35,44.59Zm.28-1.12a1.72,1.72,0,0,0,1-.28,2,2,0,0,0,.61-.84,4,4,0,0,0,.22-1.22,3,3,0,0,0-.22-1.23,1.61,1.61,0,0,0-.56-.78,1.72,1.72,0,0,0-.95-.28,1.6,1.6,0,0,0-1,.28,1.76,1.76,0,0,0-.56.83,3.76,3.76,0,0,0-.22,1.18,2.72,2.72,0,0,0,.22,1.17,2,2,0,0,0,.62.84A.92.92,0,0,0,118.63,43.47Z"/><path class="cls-1" d="M124.32,44.53a.87.87,0,0,1-.61-.28.82.82,0,0,1,0-1.23.91.91,0,0,1,.61-.28,1,1,0,0,1,.62.28.93.93,0,0,1,.27.62,1.14,1.14,0,0,1-.11.44.81.81,0,0,1-.33.34A1.24,1.24,0,0,1,124.32,44.53Z"/><path class="cls-1" d="M130.07,44.47V35.6h3.18A3.28,3.28,0,0,1,135,36a2.43,2.43,0,0,1,1,1,3.31,3.31,0,0,1,.33,1.45A3,3,0,0,1,136,39.9a2.18,2.18,0,0,1-1,1,3.15,3.15,0,0,1-1.73.39h-2.17V40.17h2.06A2,2,0,0,0,134.2,40a1.65,1.65,0,0,0,.62-.61,2.58,2.58,0,0,0,0-1.79,1.31,1.31,0,0,0-.62-.61,2,2,0,0,0-1.06-.23h-1.67v7.71h-1.4Z"/><path class="cls-1" d="M139.68,44.59a2.34,2.34,0,0,1-1.12-.23,1.84,1.84,0,0,1-.78-.67,1.83,1.83,0,0,1,.5-2.62,7.59,7.59,0,0,1,.84-.34l.95-.16a7.62,7.62,0,0,1,1-.12c.22-.05.44-.05.56-.16a.35.35,0,0,0,.16-.34V39.9a1.22,1.22,0,0,0-.33-.9,1.23,1.23,0,0,0-.95-.33,1.66,1.66,0,0,0-1,.28,1.31,1.31,0,0,0-.5.61l-1.23-.28a3.07,3.07,0,0,1,.62-1,2.32,2.32,0,0,1,.95-.56,4,4,0,0,1,1.17-.17,4.83,4.83,0,0,1,.84.11,2.56,2.56,0,0,1,.83.34,2.13,2.13,0,0,1,.67.72A2.44,2.44,0,0,1,143,39.9v4.41h-1.29v-.9h-.11a1.45,1.45,0,0,1-.39.51,2,2,0,0,1-.67.39A1.24,1.24,0,0,1,139.68,44.59Zm.28-1a1.5,1.5,0,0,0,.89-.22,1.36,1.36,0,0,0,.56-.56,1.81,1.81,0,0,0,.22-.73v-.83a.33.33,0,0,1-.28.11c-.11,0-.28,0-.44.11s-.34.06-.51.06-.28,0-.39,0-.5.11-.67.17a.81.81,0,0,0-.5.33,1,1,0,0,0-.17.56.82.82,0,0,0,.34.73A2.42,2.42,0,0,0,140,43.58Z"/><path class="cls-1" d="M145.2,46.93a1.54,1.54,0,0,1-.5,0c-.17-.06-.28-.06-.33-.12l.33-1.06a1.23,1.23,0,0,0,.89,0c.23-.05.45-.33.62-.78l.17-.45-2.52-6.64h1.4L146.93,43H147l1.67-5.14h1.4l-2.74,7.54a2.71,2.71,0,0,1-.5.89,3.65,3.65,0,0,1-.72.56A3.1,3.1,0,0,1,145.2,46.93Z"/><path class="cls-1" d="M151.73,44.53a.87.87,0,0,1-.61-1.51.82.82,0,0,1,1.23,0,.89.89,0,0,1,.28.62,1.36,1.36,0,0,1-.11.44.91.91,0,0,1-.34.34A1,1,0,0,1,151.73,44.53Z"/><path class="cls-2" d="M51.91,23V12.37h2V29.62h-2V26.78h-.17A5.62,5.62,0,0,1,49.84,29a6.06,6.06,0,0,1-3.24.84,5.83,5.83,0,0,1-3-.73,5.21,5.21,0,0,1-2-2.12,7.26,7.26,0,0,1-.72-3.46V12.37h2V23.43a4.42,4.42,0,0,0,1.17,3.23,4,4,0,0,0,3.07,1.23,4.56,4.56,0,0,0,2.23-.56,5.09,5.09,0,0,0,1.79-1.67A4.67,4.67,0,0,0,51.91,23Z"/><path class="cls-2" d="M56.82,29.62V12.37h2v2.68h.17a4.37,4.37,0,0,1,1.79-2.12,5.12,5.12,0,0,1,2.9-.78h1.06v2a4.17,4.17,0,0,0-.45-.06,3.21,3.21,0,0,0-.72,0,4.88,4.88,0,0,0-2.4.55,4.23,4.23,0,0,0-2.29,3.86V29.62Z"/><path class="cls-2" d="M66.14,29.62v-23h2v9h.17a9.62,9.62,0,0,1,1-1.61,5.88,5.88,0,0,1,1.67-1.4,5.26,5.26,0,0,1,2.63-.56,6.55,6.55,0,0,1,3.74,1.12,7.36,7.36,0,0,1,2.51,3.12,11.09,11.09,0,0,1,.9,4.69,11.11,11.11,0,0,1-.9,4.7,7.36,7.36,0,0,1-2.51,3.12A6.41,6.41,0,0,1,73.57,30a5.41,5.41,0,0,1-2.63-.56A4.68,4.68,0,0,1,69.27,28a7.54,7.54,0,0,1-1-1.61H68v3.18h-1.9Zm2-8.6a10.64,10.64,0,0,0,.61,3.69,5.58,5.58,0,0,0,1.79,2.51,4.42,4.42,0,0,0,2.85.9,4.55,4.55,0,0,0,2.9-.95A5.9,5.9,0,0,0,78,24.6,10.54,10.54,0,0,0,78.65,21,10.19,10.19,0,0,0,78,17.4a5.68,5.68,0,0,0-1.79-2.52,4.67,4.67,0,0,0-2.9-1,4.42,4.42,0,0,0-2.85.9,5.58,5.58,0,0,0-1.79,2.51A10.63,10.63,0,0,0,68.1,21Z"/><path class="cls-2" d="M87.58,30a6.62,6.62,0,0,1-2.84-.61,4.92,4.92,0,0,1-2.07-1.79,5.17,5.17,0,0,1-.78-2.84,4.53,4.53,0,0,1,.5-2.18,4.3,4.3,0,0,1,1.4-1.45,7.48,7.48,0,0,1,2.12-.9,17.78,17.78,0,0,1,2.68-.5c1-.11,1.79-.22,2.46-.34A4.79,4.79,0,0,0,92.61,19a1,1,0,0,0,.5-.95v-.39a3.61,3.61,0,0,0-1.06-2.79,4.26,4.26,0,0,0-3-1,5.06,5.06,0,0,0-3,.84,4.62,4.62,0,0,0-1.67,1.95l-1.9-.67a6.33,6.33,0,0,1,1.62-2.29,6.7,6.7,0,0,1,2.34-1.22A8.57,8.57,0,0,1,89,12a9.51,9.51,0,0,1,2.06.28,5.36,5.36,0,0,1,2,.9A4.66,4.66,0,0,1,94.62,15a6.19,6.19,0,0,1,.56,2.85V29.57H93.06V26.83h-.12a6,6,0,0,1-1.06,1.51,4.54,4.54,0,0,1-1.78,1.17A5.24,5.24,0,0,1,87.58,30Zm.28-1.78a5.15,5.15,0,0,0,2.8-.73,4.52,4.52,0,0,0,1.78-1.9A5.09,5.09,0,0,0,93.06,23V20.52a1.72,1.72,0,0,1-.73.39,5.48,5.48,0,0,1-1.23.28,12.1,12.1,0,0,1-1.34.23l-1.23.16a14.18,14.18,0,0,0-2.51.56,3.71,3.71,0,0,0-1.56,1.06,2.5,2.5,0,0,0-.56,1.73A3,3,0,0,0,85,27.39,5.2,5.2,0,0,0,87.86,28.23Z"/><path class="cls-2" d="M100,18.85V29.62H98V12.37h2v2.74h.17a4.67,4.67,0,0,1,1.9-2.13,5.64,5.64,0,0,1,3.18-.78,6.12,6.12,0,0,1,3.07.73,5,5,0,0,1,2.06,2.12,7.14,7.14,0,0,1,.73,3.46V29.68h-2V18.57a4.72,4.72,0,0,0-1.17-3.35A4.11,4.11,0,0,0,104.73,14a4.8,4.8,0,0,0-2.41.56,4.07,4.07,0,0,0-1.67,1.67A4.93,4.93,0,0,0,100,18.85Z"/><path class="cls-3" d="M124,6.62V29.68H120V6.62Z"/><path class="cls-3" d="M134.31,30a8.71,8.71,0,0,1-4.46-1.06,7.37,7.37,0,0,1-2.91-3.07,10.38,10.38,0,0,1-1-4.69,10.35,10.35,0,0,1,1-4.69,7.4,7.4,0,0,1,2.85-3.13,8.32,8.32,0,0,1,4.3-1.12,8.91,8.91,0,0,1,3,.51,7.27,7.27,0,0,1,2.51,1.56A8,8,0,0,1,141.35,17a10.43,10.43,0,0,1,.61,3.91v1.23H127.78V19.41h10.28a4.13,4.13,0,0,0-.51-2.07,3.47,3.47,0,0,0-1.39-1.45,4.17,4.17,0,0,0-2.07-.5,4,4,0,0,0-2.18.61,4.42,4.42,0,0,0-1.45,1.56,5.6,5.6,0,0,0-.56,2.12V22a5.33,5.33,0,0,0,.56,2.57A3.73,3.73,0,0,0,132,26.22a4.48,4.48,0,0,0,2.28.56,5.08,5.08,0,0,0,1.62-.28,3.1,3.1,0,0,0,2-2l3.8.45a5.56,5.56,0,0,1-1.34,2.62,6.49,6.49,0,0,1-2.57,1.73A8.55,8.55,0,0,1,134.31,30Z"/><path class="cls-3" d="M150.23,30a6.34,6.34,0,0,1-3.63-1.06,7.62,7.62,0,0,1-2.57-3,10.62,10.62,0,0,1-.95-4.86,11.64,11.64,0,0,1,.95-4.85,6.88,6.88,0,0,1,2.57-3,6.69,6.69,0,0,1,3.63-1,5.53,5.53,0,0,1,2.51.5,4.34,4.34,0,0,1,1.56,1.23,12.08,12.08,0,0,1,.9,1.34h.16V6.62h4.08V29.68h-4V26.94h-.22a8.27,8.27,0,0,1-.9,1.34,4.8,4.8,0,0,1-1.56,1.18A5.67,5.67,0,0,1,150.23,30Zm1.17-3.35a3.18,3.18,0,0,0,2.18-.73A4.23,4.23,0,0,0,155,23.93a8,8,0,0,0,.45-3,9,9,0,0,0-.45-2.9,4.07,4.07,0,0,0-1.39-1.9,3.65,3.65,0,0,0-2.24-.67,3.5,3.5,0,0,0-2.28.72,4.26,4.26,0,0,0-1.4,2,7.47,7.47,0,0,0-.45,2.84,9.31,9.31,0,0,0,.45,2.91,4.7,4.7,0,0,0,1.4,2A4.09,4.09,0,0,0,151.4,26.61Z"/><path class="cls-3" d="M169.71,36.44a10.6,10.6,0,0,1-3.74-.56,6.21,6.21,0,0,1-2.51-1.57,6.61,6.61,0,0,1-1.34-2.12l3.68-.89a3.72,3.72,0,0,0,.73.95,4,4,0,0,0,1.28.84,5.5,5.5,0,0,0,2,.33,4.51,4.51,0,0,0,2.85-.84,3,3,0,0,0,1.12-2.68V26.61h-.22a6,6,0,0,1-.9,1.28A4.66,4.66,0,0,1,171.11,29a6.21,6.21,0,0,1-2.46.45,7.39,7.39,0,0,1-3.63-.95,6.4,6.4,0,0,1-2.57-2.79A10.54,10.54,0,0,1,161.5,21a11.26,11.26,0,0,1,.95-4.81,7.13,7.13,0,0,1,2.57-3,6.69,6.69,0,0,1,3.63-1,5.64,5.64,0,0,1,2.51.5A4.49,4.49,0,0,1,172.73,14a10.62,10.62,0,0,1,.89,1.34h.22V12.48h4V30a5.79,5.79,0,0,1-1.06,3.63,6.71,6.71,0,0,1-2.9,2.18A15.52,15.52,0,0,1,169.71,36.44Zm.06-10.22A3.86,3.86,0,0,0,172,25.6a4,4,0,0,0,1.39-1.78,7.17,7.17,0,0,0,.45-2.85,8.69,8.69,0,0,0-.45-2.85,4.13,4.13,0,0,0-1.39-1.9,3.72,3.72,0,0,0-2.24-.67,3.55,3.55,0,0,0-2.29.73A4.34,4.34,0,0,0,166,18.23a7.26,7.26,0,0,0-.45,2.8,8.59,8.59,0,0,0,.45,2.79,4.27,4.27,0,0,0,1.39,1.84A5.29,5.29,0,0,0,169.77,26.22Z"/><path class="cls-3" d="M188.08,30a8.75,8.75,0,0,1-4.47-1.06,7.41,7.41,0,0,1-2.9-3.07,10.38,10.38,0,0,1-1-4.69,10.35,10.35,0,0,1,1-4.69,7.4,7.4,0,0,1,2.85-3.13,8.32,8.32,0,0,1,4.3-1.12,8.85,8.85,0,0,1,3,.51,7.31,7.31,0,0,1,2.52,1.56A8,8,0,0,1,195.12,17a10.64,10.64,0,0,1,.61,3.91v1.23H181.55V19.41h10.33a4.23,4.23,0,0,0-.5-2.07,3.56,3.56,0,0,0-1.4-1.45,4.12,4.12,0,0,0-2.07-.5,4,4,0,0,0-2.17.61,4.36,4.36,0,0,0-1.46,1.56,5.41,5.41,0,0,0-.55,2.12V22a5.33,5.33,0,0,0,.55,2.57,3.78,3.78,0,0,0,1.57,1.62,4.5,4.5,0,0,0,2.29.56,5.18,5.18,0,0,0,1.62-.28,2.93,2.93,0,0,0,1.22-.73,3,3,0,0,0,.79-1.23l3.79.45a5.56,5.56,0,0,1-1.34,2.62,6.42,6.42,0,0,1-2.57,1.73A9,9,0,0,1,188.08,30Z"/><path class="cls-3" d="M197.63,29.62V12.37h4v2.9h.16A4.2,4.2,0,0,1,203.38,13a4.51,4.51,0,0,1,2.63-.83,4.41,4.41,0,0,1,.78,0,3,3,0,0,1,.72.11v3.75a4.12,4.12,0,0,0-.83-.17,6.65,6.65,0,0,0-1.06-.06,4.16,4.16,0,0,0-2,.5,3.62,3.62,0,0,0-1.4,1.34,3.74,3.74,0,0,0-.5,2V29.79h-4.08Z"/><path class="cls-3" d="M31.19,21.25a1.12,1.12,0,0,0,1.11-1.12V6.62A6,6,0,0,0,26.39.7h-18A5.88,5.88,0,0,0,2.54,6.62V25.38A5.93,5.93,0,0,0,8.46,31.3H19.57v5.8a1.13,1.13,0,0,0,.73,1.06.89.89,0,0,0,.39.06,1,1,0,0,0,.84-.39l10.5-12a1.13,1.13,0,0,0,.16-1.17,1.1,1.1,0,0,0-1-.67H15.89l5.3-7.42v3.51a1.12,1.12,0,0,0,2.24,0v-7A1.15,1.15,0,0,0,22.65,12a1.07,1.07,0,0,0-1.23.39L12.76,24.48a1.26,1.26,0,0,0-.11,1.18,1.06,1.06,0,0,0,1,.61h15l-6.93,7.87v-4A1.11,1.11,0,0,0,20.64,29H8.41a3.69,3.69,0,0,1-3.69-3.69V6.62A3.69,3.69,0,0,1,8.41,2.93h18a3.68,3.68,0,0,1,3.68,3.69V20.13A1.12,1.12,0,0,0,31.19,21.25Z"/></svg>