<?xml version="1.0" encoding="utf-8"?>
<!-- Generator: Adobe Illustrator 25.2.0, SVG Export Plug-In . SVG Version: 6.00 Build 0)  -->
<svg version="1.1" id="Layer_1" xmlns="http://www.w3.org/2000/svg" xmlns:xlink="http://www.w3.org/1999/xlink" x="0px" y="0px"
	 viewBox="0 0 176 160.3" style="enable-background:new 0 0 176 160.3;" xml:space="preserve">
<style type="text/css">
	.st0{opacity:0.5;}
	.st1{fill:#B5B5B5;}
	.st2{fill:#FFC984;}
	.st3{fill:#373ABF;}
	.st4{fill:#7A7DFF;}
	.st5{fill:#FFFFFF;}
	.st6{fill:#E2E3FF;}
	.st7{fill:#5130C6;}
	.st8{fill:#1E394C;}
	.st9{fill:#7C4DFF;}
	.st10{fill:#666666;}
	.st11{fill:#1F3A93;}
	.st12{fill:#FFE5B1;}
	.st13{fill:#ECC230;}
	.st14{fill:#FFC024;}
	.st15{fill:#98A4D8;}
	.st16{fill:#BA83DB;}
	.st17{fill:#CA8720;}
</style>
<g class="st0">
	<ellipse class="st1" cx="88" cy="142.2" rx="74.1" ry="3.9"/>
</g>
<g>
	<g>
		<path class="st2" d="M102.5,75.5c-2,1.7-4,2.6-5.9,0.3l-2.3-3c-1.9-2.3-2.7-3.3-0.7-5s6-3.4,7.9-1.1l2.3,3
			C105.8,72,104.5,73.8,102.5,75.5z"/>
	</g>
</g>
<g>
	<path class="st2" d="M99.3,70.9c-4.4,0-8.9,0-13-0.8c-5-0.9-8.4-2.9-10.6-6.1c-4-6-3-15.5,3.1-30.1c0.6-1.4,2.2-2,3.5-1.5
		c1.4,0.6,2,2.2,1.5,3.5c-5.2,12.4-6.4,20.8-3.6,25c3,4.5,11.1,4.5,19,4.5c1.5,0,2.7,1.2,2.7,2.7C102,69.7,100.8,70.9,99.3,70.9z"/>
</g>
<g>
	<g>
		<ellipse transform="matrix(0.766 -0.6428 0.6428 0.766 -8.7602 90.3096)" class="st3" cx="119.7" cy="57.2" rx="16.2" ry="5.4"/>
	</g>
	<g>
		
			<rect x="101.7" y="52.4" transform="matrix(0.766 -0.6428 0.6428 0.766 -7.8313 88.6869)" class="st3" width="32.5" height="5.4"/>
	</g>
	<g>
		<ellipse transform="matrix(0.766 -0.6428 0.6428 0.766 -6.9367 87.1235)" class="st4" cx="116.2" cy="53.1" rx="16.2" ry="5.4"/>
	</g>
	<g>
		<ellipse transform="matrix(0.766 -0.6428 0.6428 0.766 -6.9368 87.1235)" class="st5" cx="116.2" cy="53.1" rx="13.5" ry="4.1"/>
	</g>
	<g>
		<path class="st3" d="M103.8,63.5l3.5,4.1L94.8,78.1c-1.1,1-2.9,0.8-3.8-0.3l0,0c-1-1.1-0.8-2.9,0.3-3.8L103.8,63.5z"/>
	</g>
	<g>
		<path class="st6" d="M109.9,54.6c-2.2,2.6-3.3,4.9-2.5,5.9c1.2,1.4,6.1-0.7,11-4.8c1.6-1.4,3-2.8,4.2-4.1L109.9,54.6z"/>
	</g>
</g>
<g>
	<g>
		<path class="st7" d="M88.1,72.5c-2.6-0.3-10.6-1.4-14.5-8.1c-3.8-6.6-2.7-16.5,3.4-31.2c1-2.4,3.8-3.6,6.2-2.6
			c2.4,1,3.6,3.8,2.6,6.2c-6.2,15-5.1,20.7-3.9,22.8c0.7,1.2,2.2,2.8,7.5,3.5C91.9,63.4,88.3,72.5,88.1,72.5z"/>
	</g>
</g>
<g>
	<path class="st2" d="M40.5,141.3c-1.5,0-2.7-1.2-2.7-2.7v-5.4c0-1.5,1.2-2.7,2.7-2.7s2.7,1.2,2.7,2.7v5.4
		C43.2,140.1,42,141.3,40.5,141.3z"/>
</g>
<g>
	<path class="st8" d="M47.2,137.2h-9.7c-0.6,0-1.2,0.5-1.3,1.1l-0.8,4.1c-0.2,0.8,0.5,1.6,1.3,1.6h15.9c1.5,0,2.7-1.2,2.7-2.7
		L47.2,137.2z"/>
</g>
<g>
	<path class="st8" d="M41.8,137.2c0,1.5,1.2,2.7,2.7,2.7s2.7-2.7,2.7-2.7s-1.2-2.7-2.7-2.7S41.8,135.7,41.8,137.2z"/>
</g>
<g>
	<path class="st2" d="M62.1,141.3c-1.5,0-2.7-1.2-2.7-2.7v-5.4c0-1.5,1.2-2.7,2.7-2.7s2.7,1.2,2.7,2.7v5.4
		C64.8,140.1,63.6,141.3,62.1,141.3z"/>
</g>
<g>
	<path class="st8" d="M68.9,137.2h-9.7c-0.6,0-1.2,0.5-1.3,1.1l-0.8,4.1c-0.2,0.8,0.5,1.6,1.3,1.6h15.9c1.5,0,2.7-1.2,2.7-2.7
		L68.9,137.2z"/>
</g>
<g>
	<path class="st8" d="M63.5,137.2c0,1.5,1.2,2.7,2.7,2.7s2.7-2.7,2.7-2.7s-1.2-2.7-2.7-2.7S63.5,135.7,63.5,137.2z"/>
</g>
<path class="st8" d="M62.1,62.8l0.1-16.3h-0.1H45.9c-9,0-16.3,7.4-16.3,16.3l5.4,70.3h10.9V62.8l10.8,70.3h10.8L62.1,62.8z"/>
<g>
	<path class="st7" d="M43.2,58.7h5.4v9.5c0,3-2.4,5.4-5.4,5.4l0,0V58.7z"/>
</g>
<g>
	<path class="st9" d="M81.1,24.2c2.9,1.5,3.4,2.1,5.3,4.8c2.1,3,0.7,7.9-2.2,10c-8.3,6.1-15.7,13.2-22,21.4
		c-2.5,3.2-16.5,2.2-21.2-0.3c-7.1-3.9-6.6-8.8-6.6-8.8C41,40.5,46.8,30.6,57.7,24.5C64.3,20.9,74.5,20.8,81.1,24.2z"/>
</g>
<g>
	<g>
		<path class="st7" d="M55.5,80.2c1.3-6.4,2.6-12.5,4.1-18.3c-3.9,1.1-10.9,0.7-15.5-0.6c-1.4,4.9-2.2,9.8-2.1,14.6
			c0,1-0.1,2,0.5,2.9c1.4,1.9,1.8,3.1,3.4,3.4V62.7l3,19.5C51.7,81.9,55.4,80.9,55.5,80.2z"/>
	</g>
	<g>
		<path class="st7" d="M71.8,26c-1.1-1.8-3.2-2.9-5.7-2.9c-3.5,0-6.7,4.3-8.7,8c-2.8,5.4-5.5,10.4-7.7,15.3
			c-2.3,5.1-4.3,10-5.6,14.8c4.6,1.2,11.6,1.7,15.5,0.6c0.8-3.1,1.6-6,2.5-9c2.2-7.2,4.8-14,8.4-20.8C71.4,30.5,72.7,27.5,71.8,26z"
			/>
	</g>
	<g>
		<path class="st2" d="M43.2,85.9c-0.3,0-0.5,0-0.8-0.1c-1.4-0.4-2.2-2-1.8-3.4c8-25.7,15-41.2,23.8-57.9c0.7-1.3,2.3-1.8,3.7-1.1
			s1.8,2.3,1.1,3.7C60.6,43.5,53.7,58.7,45.8,84C45.4,85.2,44.3,85.9,43.2,85.9z"/>
	</g>
	<g>
		<g>
			<path class="st2" d="M38.6,90.8c0.1-0.5,0.2-1,0.5-1.5l0.1-0.2c0.6-1,0.9-1.6,0.9-2.2c0.1-0.6-0.1-1.2-0.4-2.3l-0.1-0.2
				c-0.2-0.5-0.2-1-0.1-1.6c0.2-1.6,1.3-3,2.9-3.5c1-0.3,2.1-0.2,3.1,0.3s1.6,1.4,2,2.4c0.7,2.5,1,4.1,0.8,5.7s-0.7,3.2-2,5.4
				c-0.6,1.1-1.6,1.5-2.3,1.6c-1,0.2-2.1-0.1-3.1-0.6C39.1,93.2,38.4,92.2,38.6,90.8z"/>
		</g>
	</g>
	<g>
		<g>
			<path class="st9" d="M41.2,73.9c6.3-19.1,12.2-32.4,19.4-46.5c4.2-8.1,13.1-4.6,10.9-0.3C63.3,42.6,57,56.2,50.2,76.8
				C49.5,79,40.4,76.4,41.2,73.9z"/>
		</g>
	</g>
</g>
<g>
	<g>
		<path class="st10" d="M106.7,32.7c-6.1,5-14.7,5.5-18.2,2s-2.9-12,2-18.2s10.5-3.7,10.4-1.7C107.9,12.4,113.7,27,106.7,32.7z"/>
	</g>
	<g>
		<ellipse transform="matrix(0.5 -0.866 0.866 0.5 15.615 83.7073)" class="st11" cx="80.3" cy="28.3" rx="2.7" ry="6.8"/>
	</g>
	<g>
		<g>
			<path class="st2" d="M98,26.9l-15.3,2.9c-3.6,0.4-6.7-3.3-3.8-3.8l15.3-3L98,26.9z"/>
		</g>
	</g>
	<g>
		<g>
			<path class="st12" d="M100.3,38.2l3.8-3.8c3.4-3.4,3.4-9,0-12.4l0,0c-3.4-3.4-9-3.4-12.4,0l-3.8,3.8c-3.4,3.4-3.4,9,0,12.4l0,0
				C91.3,41.6,96.9,41.6,100.3,38.2z"/>
		</g>
	</g>
	<g>
		<path class="st10" d="M96.5,25.8c-1.6,1.6-4.2,1.6-5.7,0l2.9-2.9L96.5,25.8z"/>
	</g>
	<g>
		<polygon class="st3" points="96.5,20 96.5,25.8 93.6,22.9 		"/>
	</g>
	<g>
		<polygon class="st10" points="97.4,24.8 97,16.7 92.2,21.4 96.5,25.8 		"/>
	</g>
	<g>
		<path class="st12" d="M93.6,21L93.6,21c1.1,1.1,1.1,2.8,0,3.8l-3.8,3.8l0,0c-2.1-2.1-2.1-5.5,0-7.7l0,0
			C90.8,19.9,92.6,19.9,93.6,21z"/>
	</g>
	<g>
		<path class="st10" d="M98.4,16.2c2.1-2.1,5.4-3.2,8.6,0s6.9,11.3,4.8,13.4s-6.4,1.3-9.6-1.9C99.1,24.5,96.3,18.3,98.4,16.2z"/>
	</g>
</g>
<g>
	<g>
		<path class="st2" d="M102.5,75.5c-2,1.7-4,2.6-5.9,0.3l-0.8-1.2c-1.9-2.3,5.3-8.4,7.3-6.1l0.8,1.2C105.8,72,104.5,73.8,102.5,75.5
			z"/>
	</g>
</g>
<g>
	<g>
		<g>
			<polygon class="st9" points="90.2,115.5 94.9,141.9 102.8,142.9 105.6,143.2 116.5,144.6 116.4,118.7 105.3,117.3 101.4,116.8 
							"/>
		</g>
		<g>
			<polygon class="st7" points="116.5,144.6 121,142.5 123.8,141.2 127.7,139.4 131.4,114.7 126.7,116 122.8,117 116.4,118.7 			"/>
		</g>
		<g>
			<polygon class="st8" points="90.2,115.5 113,111.9 131.4,114.7 116.4,118.7 			"/>
		</g>
	</g>
	<g>
		<polygon class="st13" points="121,142.5 123.8,141.2 126.7,116 122.8,117 		"/>
	</g>
	<g>
		<path class="st13" d="M105.3,117.3l-3.9-0.5l1.4,26l2.9,0.4C105.6,137.8,105.4,127.9,105.3,117.3z"/>
	</g>
</g>
<g>
	<g>
		<polygon class="st14" points="122,105.8 122.8,106.8 123,105.5 124.2,105.1 123.1,104.4 123,103.2 122.1,104 120.9,103.7 
			121.4,104.9 120.7,105.9 		"/>
	</g>
	<g>
		<polygon class="st14" points="108.3,101.8 109,101.1 109.9,101.3 109.5,100.5 109.9,99.6 109,99.8 108.3,99.1 108.2,100 
			107.3,100.4 108.2,100.9 		"/>
	</g>
	<g>
		<polygon class="st14" points="88,114 87.4,113.3 87.2,114.3 86.4,114.7 87.2,115.1 87.3,116.1 88,115.4 88.9,115.6 88.5,114.7 
			88.9,113.9 		"/>
	</g>
	<g>
		<polygon class="st14" points="115.6,114 115,113.3 114.8,114.3 114,114.7 114.8,115.1 114.9,116.1 115.6,115.4 116.5,115.6 
			116.1,114.7 116.6,113.9 		"/>
	</g>
	<g>
		<polygon class="st14" points="119.8,92.4 120.4,91.8 121.4,91.9 120.9,91.1 121.4,90.3 120.5,90.4 119.8,89.7 119.7,90.7 
			118.8,91.1 119.6,91.5 		"/>
	</g>
	<g>
		<polygon class="st14" points="104.1,109.2 103.2,109.7 102.3,109.2 102.4,110.2 101.7,111 102.7,111.1 103.1,112.1 103.6,111.1 
			104.7,111 103.9,110.3 		"/>
	</g>
	<g>
		<path class="st15" d="M124.9,98c0.2,0,0.4-0.2,0.4-0.4s-0.2-0.4-0.4-0.4c-0.2,0-0.4,0.2-0.4,0.4S124.6,98,124.9,98z"/>
	</g>
	<g>
		<path class="st15" d="M115.7,105.8c0.2,0,0.4-0.2,0.4-0.4c0-0.2-0.2-0.4-0.4-0.4c-0.2,0-0.4,0.2-0.4,0.4
			C115.3,105.6,115.5,105.8,115.7,105.8z"/>
	</g>
	<g>
		<path class="st15" d="M93.3,109.6c-0.2,0-0.4,0.2-0.4,0.4c0,0.2,0.2,0.4,0.4,0.4c0.2,0,0.4-0.2,0.4-0.4
			C93.7,109.8,93.5,109.6,93.3,109.6z"/>
	</g>
	<g>
		<path class="st15" d="M99.1,114.3c-0.2,0-0.4,0.2-0.4,0.4c0,0.2,0.2,0.4,0.4,0.4c0.2,0,0.4-0.2,0.4-0.4S99.3,114.3,99.1,114.3z"/>
	</g>
	<g>
		<path class="st15" d="M125.3,116c-0.2,0-0.4,0.2-0.4,0.4c0,0.2,0.2,0.4,0.4,0.4c0.2,0,0.4-0.2,0.4-0.4
			C125.7,116.2,125.5,116,125.3,116z"/>
	</g>
	<g>
		<path class="st16" d="M130.9,105l-0.1-0.1c0,0-0.1,0-0.1-0.1c0,0-0.1,0-0.1-0.1c0,0-0.1,0-0.1-0.1h-0.1h-0.1c-0.1,0-0.3,0-0.4,0.1
			c-0.1,0.1-0.3,0.2-0.4,0.3c-0.2,0.3-0.4,0.6-0.5,1c0,0.1,0,0.2,0,0.3v0.1v0.1c0,0.1,0,0.1,0,0.2c0,0.2,0,0.4,0,0.6
			s-0.1,0.4-0.2,0.6c0,0,0,0,0,0.1c0,0,0,0,0,0.1l-0.1,0.1h-0.1c-0.1,0.1-0.2,0.1-0.3,0.2c-0.2,0.1-0.4,0.1-0.7,0.1
			c-0.1,0-0.2,0-0.4,0c-0.1,0-0.2,0-0.4-0.1c-0.3,0-0.5-0.1-0.8,0c-0.3,0-0.6,0.1-0.8,0.3l0,0l0,0l0,0l0,0l0,0l0,0l0,0l0,0
			c0,0,0,0.1-0.1,0.1v0.1c-0.1,0.1-0.1,0.3-0.1,0.4c0,0.3,0,0.6,0.1,0.8c0,0.1,0,0.1,0,0.2s0,0.1,0,0.2s0,0.2,0.1,0.4
			c0,0.2,0,0.5-0.1,0.6v0.1c0,0,0,0,0,0.1c0,0,0,0-0.1,0.1l0,0l0,0l0,0l0,0c-0.1,0.1-0.2,0.1-0.3,0.1c-0.2,0-0.4,0-0.6,0
			c-0.1,0-0.1,0-0.2,0c0,0,0,0-0.1,0h-0.1c-0.1,0-0.1,0-0.2-0.1c-0.1,0-0.1,0-0.2,0c-0.2-0.1-0.4-0.1-0.6-0.1c-0.1,0-0.2,0-0.3,0
			c-0.1,0-0.2,0-0.3,0.1c-0.2,0.1-0.3,0.2-0.4,0.3c-0.1,0.1-0.2,0.3-0.3,0.4c-0.1,0.1-0.1,0.3-0.1,0.4c-0.1,0.2-0.1,0.4-0.1,0.5
			s0,0.1,0,0.1l0,0c0,0,0-0.1,0-0.2s0.1-0.3,0.1-0.5c0-0.1,0.1-0.2,0.2-0.3c0.1-0.1,0.1-0.2,0.3-0.3c0.1-0.1,0.2-0.2,0.4-0.2
			c0.1,0,0.2,0,0.2,0c0.1,0,0.2,0,0.3,0c0.2,0,0.4,0.1,0.6,0.1c0,0,0.1,0,0.1,0.1c0,0,0.1,0,0.1,0.1h0.1h0.1c0.1,0,0.1,0,0.2,0.1
			c0.2,0.1,0.5,0.1,0.7,0.1c0.1,0,0.3-0.1,0.4-0.2l0,0l0,0l0,0l0,0l0,0c0,0,0,0,0.1-0.1l0.1-0.1c0,0,0-0.1,0.1-0.1
			c0.1-0.1,0.1-0.3,0.1-0.4s0-0.3,0-0.4s0-0.3-0.1-0.4c0-0.1,0-0.1,0-0.2s0-0.1,0-0.2c-0.1-0.2-0.1-0.5-0.1-0.7s0.1-0.4,0.2-0.6
			c0,0,0,0,0.1,0l0,0l0,0c0,0,0,0,0.1,0c0,0,0,0,0.1,0s0.2-0.1,0.3-0.1c0.2,0,0.5,0,0.7,0c0.1,0,0.3,0,0.4,0.1c0.1,0,0.3,0,0.4,0
			c0.3,0,0.5,0,0.8-0.1c0.1-0.1,0.3-0.1,0.4-0.2l0,0l0,0l0,0l0,0l0,0l0.1-0.1c0-0.1,0.1-0.1,0.1-0.2c0.1-0.1,0.1-0.2,0.1-0.4
			c0-0.1,0-0.2,0-0.4c0-0.2,0-0.5,0-0.7c0-0.1,0-0.1,0-0.2v-0.1c0,0,0,0,0-0.1s0-0.2,0-0.3c0-0.2,0.1-0.4,0.1-0.5
			c0.1-0.2,0.1-0.3,0.2-0.4c0.1-0.1,0.2-0.2,0.3-0.3c0.1-0.1,0.2-0.1,0.3-0.1s0.2,0,0.3,0.1c0,0,0.1,0,0.1,0.1c0,0,0.1,0,0.1,0.1
			C130.8,104.9,130.9,104.9,130.9,105L130.9,105L130.9,105z"/>
	</g>
	<g>
		<path class="st16" d="M121.4,98.6L121.4,98.6L121.4,98.6L121.4,98.6L121.4,98.6L121.4,98.6C121.5,98.5,121.5,98.5,121.4,98.6
			l0.1-0.2v-0.1c0-0.1,0-0.2,0-0.3c0-0.1-0.1-0.2-0.1-0.3c0-0.1-0.1-0.2-0.1-0.3c-0.1-0.1-0.1-0.2-0.2-0.3c-0.1-0.2-0.2-0.4-0.3-0.5
			c-0.1-0.2,0-0.4,0-0.5c0.1-0.1,0.2-0.3,0.4-0.4c0.2-0.1,0.4-0.1,0.6-0.2c0.1,0,0.2,0,0.3-0.1c0.1,0,0.2,0,0.3-0.1
			c0.2-0.1,0.4-0.2,0.6-0.3c0.1-0.1,0.2-0.2,0.2-0.3l0,0l0,0l0,0l0,0l0,0v-0.1c0-0.1,0-0.1,0-0.2c0-0.2,0-0.4-0.1-0.6
			s-0.1-0.3-0.2-0.5c0,0,0-0.1-0.1-0.1v-0.1V93c0-0.1,0-0.1-0.1-0.2c0-0.2,0-0.3,0-0.4s0-0.3,0.1-0.4c0-0.1,0.1-0.2,0.2-0.3
			c0.1-0.1,0.2-0.1,0.2-0.2c0.1,0,0.2,0,0.2,0h0.1h0.1h0.1l0,0l0,0h-0.1h-0.1h-0.1h-0.1c0,0,0,0-0.1,0c0,0,0,0-0.1,0
			s-0.2,0.1-0.3,0.2c-0.1,0.1-0.2,0.2-0.2,0.3c-0.1,0.3-0.1,0.6-0.1,0.9c0,0.1,0,0.2,0.1,0.3c0,0,0,0,0,0.1c0,0,0,0,0,0.1v0.1
			c0.1,0.2,0.1,0.3,0.2,0.5c0,0.2,0.1,0.3,0,0.5v0.1v0.1v0.1c0,0.1-0.1,0.1-0.2,0.2s-0.3,0.2-0.5,0.2c-0.1,0-0.2,0-0.3,0.1
			c-0.1,0-0.2,0-0.3,0.1c-0.2,0-0.4,0.1-0.6,0.2s-0.4,0.2-0.5,0.5l0,0l0,0l0,0l0,0l0,0l0,0l0,0l0,0v0.1v0.1c0,0.1,0,0.2,0,0.4
			c0.1,0.2,0.2,0.4,0.3,0.6c0.1,0.1,0.1,0.2,0.2,0.3c0.1,0.1,0.1,0.2,0.1,0.3c0.1,0.2,0.1,0.4,0.1,0.5v0.1v0.1c0,0,0,0,0,0.1l0,0
			l0,0l0,0l0,0c0,0.1-0.1,0.1-0.2,0.2s-0.3,0.1-0.5,0.1h-0.1h-0.1h-0.1H120h-0.1c-0.2,0-0.3,0-0.5,0.1c-0.1,0-0.2,0.1-0.2,0.1
			c-0.1,0-0.1,0.1-0.2,0.1c-0.1,0.1-0.2,0.2-0.3,0.3c-0.1,0.1-0.1,0.2-0.1,0.4c0,0.1,0,0.2,0,0.3c0,0.2,0,0.3,0.1,0.4
			c0,0.1,0,0.1,0,0.1s0-0.1,0-0.2s0-0.2,0-0.4c0-0.1,0-0.2,0-0.3c0-0.1,0.1-0.2,0.1-0.3c0.1-0.1,0.1-0.2,0.3-0.3
			c0.1,0,0.1-0.1,0.2-0.1s0.1,0,0.2-0.1c0.1,0,0.3,0,0.5,0c0.1,0,0.2,0,0.3,0h0.1h0.1h0.1c0.2,0,0.4,0,0.6-0.1
			C121.3,98.8,121.4,98.7,121.4,98.6z"/>
	</g>
	<g>
		<path class="st16" d="M110.3,111.6L110.3,111.6L110.3,111.6L110.3,111.6L110.3,111.6C110.3,111.5,110.3,111.5,110.3,111.6
			c0-0.1,0-0.1-0.1-0.2c0,0,0,0,0-0.1c-0.1-0.2-0.3-0.3-0.4-0.3s-0.2-0.1-0.2-0.1c-0.1,0-0.2,0-0.2-0.1c-0.2,0-0.3-0.1-0.4-0.2
			s-0.2-0.2-0.3-0.3c0-0.1,0-0.3,0-0.4c0.1-0.1,0.1-0.3,0.2-0.4c0-0.1,0.1-0.1,0.1-0.2s0.1-0.1,0.1-0.2c0.1-0.2,0.2-0.3,0.2-0.5
			c0-0.1,0-0.2,0-0.3l0,0l0,0l0,0l0,0l0,0v-0.1c0,0,0-0.1-0.1-0.1c-0.1-0.1-0.2-0.2-0.4-0.3c-0.1-0.1-0.3-0.1-0.4-0.2h-0.1l0,0l0,0
			c-0.1,0-0.1-0.1-0.2-0.1c-0.1-0.1-0.2-0.2-0.3-0.2c-0.1-0.1-0.1-0.2-0.2-0.3c0-0.1-0.1-0.2-0.1-0.3c0-0.1,0-0.2,0-0.2
			c0-0.1,0.1-0.1,0.1-0.1s0,0,0.1,0c0,0,0,0,0.1,0h0.1l0,0l0,0c0,0,0,0-0.1,0c0,0,0,0-0.1,0c0,0,0,0-0.1,0l-0.1,0.1
			c0,0.1-0.1,0.2-0.1,0.2c0,0.1,0,0.2,0.1,0.3c0.1,0.2,0.2,0.4,0.4,0.6c0.1,0,0.1,0.1,0.2,0.1l0,0l0,0h0.1c0.1,0.1,0.3,0.1,0.4,0.2
			s0.2,0.2,0.3,0.3v0.1v0.1l0,0c0,0.1,0,0.1,0,0.2s-0.1,0.3-0.2,0.4c0,0.1-0.1,0.1-0.1,0.2s-0.1,0.1-0.1,0.2
			c-0.1,0.1-0.2,0.3-0.3,0.5c-0.1,0.2-0.1,0.4-0.1,0.6l0,0l0,0l0,0l0,0l0,0l0,0l0,0l0,0c0,0,0,0,0,0.1c0,0,0,0,0,0.1
			c0.1,0.1,0.1,0.1,0.2,0.2c0.2,0.1,0.3,0.1,0.5,0.2c0.1,0,0.2,0,0.2,0.1c0.1,0,0.1,0,0.2,0.1s0.3,0.1,0.3,0.2l0,0l0,0
			c0,0,0,0,0,0.1l0,0l0,0l0,0l0,0c0,0.1,0,0.1,0,0.2s-0.1,0.2-0.2,0.3c0,0,0,0.1-0.1,0.1l0,0l0,0c-0.1,0-0.1,0.1-0.2,0.2
			s-0.2,0.2-0.3,0.3c-0.1,0.1-0.1,0.2-0.1,0.4c0,0.1,0,0.2,0,0.4c0,0.1,0.1,0.2,0.1,0.3c0.1,0.1,0.1,0.1,0.2,0.2s0.2,0.2,0.3,0.2
			c0.1,0,0.1,0.1,0.1,0.1s0,0-0.1-0.1s-0.1-0.1-0.2-0.2c0-0.1-0.1-0.1-0.1-0.2s-0.1-0.2-0.1-0.3c0-0.1,0-0.2,0-0.3
			c0-0.1,0-0.1,0.1-0.2c0-0.1,0.1-0.1,0.1-0.2c0.1-0.1,0.2-0.2,0.3-0.3c0,0,0.1-0.1,0.2-0.1l0,0l0,0l0.1-0.1
			c0.1-0.1,0.2-0.2,0.3-0.4C110.3,111.8,110.3,111.7,110.3,111.6L110.3,111.6z"/>
	</g>
	<g>
		<path class="st16" d="M107.7,96.1c0.1,0,0.3,0.1,0.4,0.2l0,0l0,0l0,0l0,0l0,0l0,0l0,0c0,0.1,0,0.1,0,0.2s-0.1,0.3-0.1,0.4
			c0,0,0,0.1-0.1,0.1l0,0l0,0c0,0.1-0.1,0.1-0.1,0.2c-0.1,0.1-0.1,0.2-0.2,0.4c0,0.1-0.1,0.3-0.1,0.4s0.1,0.2,0.1,0.3
			c0.1,0.1,0.1,0.2,0.2,0.2c0.1,0.1,0.1,0.1,0.2,0.1c0.1,0.1,0.2,0.1,0.3,0.1c0.1,0,0.1,0,0.1,0s0,0-0.1-0.1c-0.1,0-0.2-0.1-0.3-0.2
			c-0.1,0-0.1-0.1-0.2-0.2s-0.1-0.1-0.2-0.2c0-0.1-0.1-0.2-0.1-0.3c0-0.1,0-0.1,0-0.2s0-0.1,0.1-0.2c0-0.1,0.1-0.2,0.2-0.3
			c0-0.1,0.1-0.1,0.1-0.2l0,0l0,0c0,0,0-0.1,0.1-0.1c0.1-0.1,0.2-0.3,0.2-0.5c0-0.1,0-0.2,0-0.3l0,0l0,0l0,0l0,0l0,0c0,0,0,0,0-0.1
			c0,0,0,0,0-0.1c0,0,0,0,0-0.1c-0.1-0.1-0.3-0.2-0.5-0.2c-0.1,0-0.2,0-0.3,0c-0.1,0-0.2,0-0.3,0c-0.2,0-0.3,0-0.5-0.1
			c-0.1,0-0.3-0.1-0.3-0.2c-0.1-0.1-0.1-0.3,0-0.4c0-0.2,0.1-0.3,0.1-0.5c0-0.1,0.1-0.2,0.1-0.2c0-0.1,0.1-0.2,0.1-0.2
			c0-0.2,0.1-0.3,0.1-0.5c0-0.1,0-0.2-0.1-0.3l0,0l0,0l0,0l0,0l0,0l0,0l-0.1-0.1c-0.1-0.1-0.3-0.2-0.4-0.2s-0.3-0.1-0.4-0.1h-0.1
			l0,0l0,0c-0.1,0-0.1,0-0.2-0.1c-0.1,0-0.2-0.1-0.3-0.2c-0.1-0.1-0.2-0.1-0.2-0.2c-0.1-0.1-0.1-0.2-0.1-0.2c0-0.1,0-0.2,0-0.2
			c0-0.1,0.1-0.1,0.1-0.2c0,0,0,0,0.1-0.1l0,0c0,0,0.1,0,0.1-0.1l0,0l0,0c0,0,0,0-0.1,0c0,0,0,0-0.1,0c0,0,0,0-0.1,0.1
			c0,0-0.1,0.1-0.1,0.2s0,0.2,0,0.3c0,0.1,0.1,0.2,0.1,0.3c0.1,0.2,0.3,0.3,0.5,0.5c0.1,0,0.1,0.1,0.2,0.1h0.1l0,0h0.1
			c0.1,0,0.3,0.1,0.4,0.1s0.3,0.1,0.3,0.2c0,0,0,0,0.1,0.1l0,0l0,0c0,0.1,0,0.1,0.1,0.2c0,0.1,0,0.3-0.1,0.4c0,0.1-0.1,0.1-0.1,0.2
			s-0.1,0.1-0.1,0.2c-0.1,0.2-0.1,0.3-0.2,0.5c0,0.2,0,0.4,0.1,0.6l0,0l0,0l0,0l0,0l0,0l0,0l0,0l0,0c0,0,0,0,0.1,0.1
			c0,0,0,0,0.1,0.1s0.2,0.1,0.3,0.1c0.2,0.1,0.4,0.1,0.5,0.1s0.2,0,0.2,0C107.5,96.1,107.6,96.1,107.7,96.1z"/>
	</g>
	<g>
		<path class="st16" d="M93.3,115.6c-0.1,0-0.1-0.1-0.2-0.2s-0.1-0.1-0.2-0.2c0-0.1-0.1-0.2-0.1-0.3c0-0.1,0-0.1,0-0.2
			s0-0.1,0.1-0.2c0-0.1,0.1-0.2,0.2-0.3c0-0.1,0.1-0.1,0.1-0.2l0,0l0,0c0,0,0-0.1,0.1-0.1c0.1-0.1,0.2-0.3,0.2-0.5
			c0-0.1,0-0.2,0-0.3l0,0l0,0l0,0l0,0l0,0c0,0,0,0,0-0.1c0,0,0,0,0-0.1c0,0,0,0,0-0.1c-0.1-0.1-0.3-0.2-0.5-0.2c-0.1,0-0.2,0-0.3,0
			c-0.1,0-0.2,0-0.3,0c-0.2,0-0.3,0-0.5-0.1c-0.1,0-0.3-0.1-0.3-0.2c-0.1-0.1-0.1-0.3,0-0.4c0-0.2,0.1-0.3,0.1-0.5
			c0-0.1,0.1-0.2,0.1-0.2c0-0.1,0.1-0.2,0.1-0.2c0-0.2,0.1-0.3,0.1-0.5c0-0.1,0-0.2-0.1-0.3l0,0l0,0l0,0l0,0l0,0l0,0l-0.1-0.1
			c-0.1-0.1-0.3-0.2-0.4-0.2s-0.3-0.1-0.4-0.1h-0.1l0,0l0,0c-0.1,0-0.1,0-0.2-0.1c-0.1,0-0.2-0.1-0.3-0.2c-0.1-0.1-0.2-0.1-0.2-0.2
			c-0.1-0.1-0.1-0.2-0.1-0.2c0-0.1,0-0.2,0-0.2c0-0.1,0.1-0.1,0.1-0.2c0,0,0,0,0.1-0.1l0,0c0,0,0.1,0,0.1-0.1l0,0l0,0c0,0,0,0-0.1,0
			c0,0,0,0-0.1,0c0,0,0,0-0.1,0.1c0,0-0.1,0.1-0.1,0.2s0,0.2,0,0.3c0,0.1,0.1,0.2,0.1,0.3c0.1,0.2,0.3,0.3,0.5,0.5
			c0.1,0,0.1,0.1,0.2,0.1h0.1l0,0H91c0.1,0,0.3,0.1,0.4,0.1s0.3,0.1,0.3,0.2c0,0,0,0,0.1,0.1l0,0l0,0c0,0.1,0,0.1,0.1,0.2
			c0,0.1,0,0.3-0.1,0.4c0,0.1-0.1,0.1-0.1,0.2s-0.1,0.1-0.1,0.2c-0.1,0.2-0.1,0.3-0.2,0.5c0,0.2,0,0.4,0.1,0.6l0,0l0,0l0,0l0,0l0,0
			l0,0l0,0l0,0c0,0,0,0,0.1,0.1c0,0,0,0,0.1,0.1s0.2,0.1,0.3,0.1c0.2,0.1,0.4,0.1,0.5,0.1s0.2,0,0.2,0c0.1,0,0.2,0,0.2,0
			c0.1,0,0.3,0.1,0.4,0.2l0,0l0,0l0,0l0,0l0,0l0,0l0,0c0,0.1,0,0.1,0,0.2s-0.1,0.3-0.1,0.4c0,0,0,0.1-0.1,0.1l0,0l0,0
			c0,0.1-0.1,0.1-0.1,0.2c-0.1,0.1-0.1,0.2-0.2,0.4c0,0.1-0.1,0.3-0.1,0.4s0.1,0.2,0.1,0.3c0.1,0.1,0.1,0.2,0.2,0.2
			C93.1,115.5,93.2,115.6,93.3,115.6c0.1,0.1,0.2,0.2,0.3,0.2c0.1,0,0.1,0,0.1,0s0,0-0.1-0.1C93.5,115.7,93.4,115.7,93.3,115.6z"/>
	</g>
</g>
<g>
	<g>
		<polygon class="st9" points="128.5,98.3 121.5,104.2 126.2,114.5 128.4,119.3 133.9,131.3 141.1,126.6 135.4,113.7 133,108.5 		
			"/>
	</g>
	<g>
		<path class="st7" d="M133.9,131.3c0.2,0.1,2.7,2.4,5.5,5.1c1.2,1.2,2.5,2.4,3.6,3.5c2.2,2.1,3.9,3.8,3.9,3.8l7-2.9l-4.4-4.8
			l-3.5-3.9l-4.8-5.4L133.9,131.3z"/>
	</g>
	<g>
		<polygon class="st7" points="153.8,140.7 146.3,118.9 128.5,98.3 141.1,126.6 		"/>
	</g>
	<g>
		<polygon class="st17" points="135.4,113.7 141.9,121.6 141.7,119.3 133,108.5 		"/>
	</g>
	<g>
		<path class="st13" d="M139.4,136.3c1.2,1.2,2.5,2.4,3.6,3.5l6.5-4l-3.5-3.9L139.4,136.3z"/>
	</g>
	<g>
		<polygon class="st17" points="149.5,135.9 145.9,125.8 143.7,123.5 145.9,131.9 		"/>
	</g>
	<g>
		<path class="st13" d="M133,108.5l-6.8,6l2.2,4.8c2.9-2.4,5.3-4.3,6.9-5.6L133,108.5z"/>
	</g>
	<g>
		<polygon class="st13" points="142.7,120 135.8,114.6 131.5,118.7 134.4,119.4 132.8,122.3 137.7,119 		"/>
	</g>
	<g>
		<polygon class="st17" points="137.7,119 135.8,114.6 142.9,120.2 		"/>
	</g>
	<g>
		<polygon class="st13" points="144.3,123.4 144.9,130.8 139.9,131.3 141.2,130.3 138.9,130.1 142.1,127.8 		"/>
	</g>
	<g>
		<polygon class="st17" points="144.9,130.8 142.1,127.8 144.5,123.1 		"/>
	</g>
	<g>
		<g>
			<path class="st17" d="M149,118.6c2.1-0.7,4.5-0.9,6.6-0.2c0.9,0.3,1.7,0.8,2.3,1.4s1.1,1.5,1.2,2.5c0,0.5-0.1,1.1-0.6,1.4
				c-0.5,0.2-1.1-0.1-1.6-0.5c-1.2-1-2.5-2.1-4-2.5c-1.3-0.4-2.6-0.2-3.9-0.1c-1.2,0.1-2.4,0.3-3.3,1c-0.3,0.2-0.5,0.4-0.8,0.6
				s-1.3,0.6-1.3-0.1c0-0.5,1-1.1,1.4-1.3C146.2,119.9,147.5,119.1,149,118.6z"/>
		</g>
		<g>
			<path class="st13" d="M151,127.8c3,0.4,6.2-0.7,8.1-3c0.6-0.8,1.1-1.8,0.9-2.8c-0.1-0.9-0.7-1.6-1.4-2.1s-1.7-1-2.5-1.3
				c0.4,0.9,0.5,2.1,0.1,2.9c-0.4,0.9-1.2,1.5-2.1,1.8c-1.1,0.3-2.4,0.1-3.5-0.2c-2.4-0.6-4.8-1.2-7.2-1.7c-0.1,0-0.4,1.3-0.4,1.4
				c-0.1,0.5-0.1,0.8,0.2,1.2c0.6,0.7,1.6,1.3,2.3,1.8C147.2,126.8,149.1,127.6,151,127.8z"/>
		</g>
	</g>
	<g>
		<g>
			<path class="st17" d="M148.5,117.4c1.3-1.9,2-4.1,1.9-6.3c-0.1-0.9-0.3-1.8-0.8-2.6c-0.5-0.8-1.2-1.4-2.1-1.7
				c-0.5-0.2-1.1-0.2-1.5,0.2c-0.4,0.5-0.2,1.1,0.1,1.7c0.6,1.4,1.4,2.9,1.4,4.5c0,1.3-0.5,2.6-0.9,3.8c-0.4,1.1-0.9,2.2-1.8,3
				c-0.3,0.2-0.6,0.4-0.8,0.6c-0.3,0.2-0.9,1.1-0.2,1.3c0.5,0.2,1.3-0.7,1.7-1C146.6,119.8,147.6,118.7,148.5,117.4z"/>
		</g>
		<g>
			<path class="st13" d="M140.1,113.1c0.4-3,2.2-5.9,5-7c0.9-0.4,2-0.6,2.9-0.2c0.8,0.3,1.4,1.1,1.7,1.9s0.5,1.9,0.6,2.7
				c-0.7-0.6-1.9-1-2.8-0.9c-0.9,0.2-1.8,0.8-2.3,1.6c-0.6,1-0.7,2.3-0.7,3.4c0,2.5-0.1,4.9-0.1,7.4c0,0.1-1.3,0-1.4,0
				c-0.5-0.1-0.8-0.1-1.1-0.5c-0.5-0.7-0.9-1.8-1.1-2.7C140.1,117,139.8,115,140.1,113.1z"/>
		</g>
	</g>
	<g>
		<g>
			<path class="st17" d="M142.9,117.6c-0.1-1.3,0.2-2.7,1-3.8c0.3-0.4,0.7-0.8,1.2-1.1c0.5-0.3,1.1-0.4,1.6-0.2
				c0.3,0.1,0.6,0.3,0.7,0.6c0,0.4-0.3,0.6-0.6,0.8c-0.8,0.5-1.6,1.1-2.1,1.9c-0.4,0.7-0.6,1.5-0.7,2.2c-0.1,0.7-0.3,1.4,0,2.1
				c0.1,0.2,0.2,0.4,0.2,0.6c0.1,0.2,0.1,0.8-0.3,0.7c-0.3-0.1-0.4-0.8-0.5-1C143.1,119.4,142.9,118.5,142.9,117.6z"/>
		</g>
		<g>
			<path class="st13" d="M148.6,118c0.7-1.7,0.7-3.7-0.4-5.2c-0.4-0.5-0.8-0.9-1.4-1c-0.5-0.1-1,0.1-1.5,0.5
				c-0.4,0.3-0.9,0.8-1.2,1.2c0.6-0.1,1.3,0.1,1.7,0.4c0.4,0.4,0.7,0.9,0.7,1.5c0,0.7-0.4,1.4-0.7,2c-0.7,1.3-1.5,2.5-2.2,3.8
				c0,0.1,0.7,0.4,0.7,0.5c0.3,0.1,0.4,0.2,0.7,0.1c0.5-0.2,1-0.7,1.4-1C147.3,120,148.1,119,148.6,118z"/>
		</g>
	</g>
	<g>
		<g>
			<path class="st17" d="M148.5,124.2c1.3,0.3,2.7,0.2,3.9-0.4c0.5-0.2,1-0.6,1.3-1s0.5-1,0.5-1.5c0-0.3-0.2-0.7-0.5-0.8
				c-0.3-0.1-0.7,0.2-0.9,0.4c-0.7,0.7-1.3,1.4-2.2,1.8c-0.7,0.3-1.5,0.3-2.3,0.3c-0.7,0-1.4,0-2.1-0.3c-0.2-0.1-0.3-0.2-0.5-0.3
				c-0.2-0.1-0.8-0.2-0.8,0.1c0,0.3,0.7,0.6,0.9,0.7C146.7,123.7,147.6,124,148.5,124.2z"/>
		</g>
		<g>
			<path class="st13" d="M149.1,118.6c1.7-0.4,3.8-0.1,5,1.2c0.4,0.4,0.8,1,0.7,1.6c0,0.5-0.3,1-0.7,1.4s-0.9,0.7-1.4,1
				c0.2-0.5,0.2-1.3-0.1-1.8s-0.8-0.8-1.4-0.9c-0.7-0.1-1.4,0.1-2.1,0.4c-1.4,0.5-2.8,1-4.1,1.6c-0.1,0-0.3-0.7-0.3-0.8
				c-0.1-0.3-0.1-0.5,0.1-0.7c0.3-0.5,0.8-0.9,1.3-1.2C146.9,119.4,147.9,118.8,149.1,118.6z"/>
		</g>
	</g>
	<g>
		<path class="st13" d="M143,120.8c-0.8,0.7-0.9,1.8-0.2,2.6c0.7,0.8,1.8,0.9,2.6,0.2c0.8-0.7,0.9-1.8,0.2-2.6
			C145,120.2,143.8,120.1,143,120.8z"/>
	</g>
	<g>
		<path class="st17" d="M143,120.8c-0.8,0.7-0.9,1.8-0.2,2.6c0.5,0.6,1.4,0.8,2.1,0.5c-0.5,0-1-0.2-1.3-0.5
			c-0.5-0.7-0.5-1.6,0.2-2.2c0.5-0.5,1.3-0.5,1.9-0.1c0,0,0-0.1-0.1-0.1C145,120.2,143.8,120.1,143,120.8z"/>
	</g>
</g>
<g>
	<path class="st5" d="M96.8,38.3c0-1.1-0.4-2.4-2.1-3.3c-1.7-0.9-3.8-0.3-4.4,0L96.8,38.3z"/>
</g>
<path class="st5" d="M60.9,56.8c-0.1,0.2-0.1,0.5-0.2,0.7l0,0c1.2,0,2.5,0,3.8,0l0.6-0.7C63.8,56.8,62.3,56.8,60.9,56.8z"/>
<path class="st5" d="M69.7,51.7c-2.6-0.1-4.9-0.2-7.2-0.4c-0.1,0.2-0.1,0.4-0.2,0.7c2.1,0.1,4.4,0.3,6.8,0.4
	C69.3,52.1,69.6,51.9,69.7,51.7z"/>
<path class="st5" d="M76,45.7c0.2-0.2,0.4-0.4,0.7-0.6c-3.6-0.6-6.4-1.4-9.2-2.2c-0.6-0.2-1.2-0.3-1.8-0.5c-0.1,0.2-0.2,0.4-0.3,0.6
	c0.6,0.2,1.2,0.3,1.8,0.5C70,44.4,72.7,45.1,76,45.7z"/>
<path class="st5" d="M73.6,47.9c-3.5-0.2-6.7-0.5-9.6-0.9c-0.1,0.2-0.2,0.4-0.2,0.7c2.8,0.4,5.9,0.6,9.2,0.8
	C73.2,48.3,73.4,48.1,73.6,47.9z"/>
<path class="st5" d="M81,41.5l0.8-0.6c-6.1-0.6-10.1-2-14-3.3c-0.1,0.2-0.2,0.4-0.3,0.6l0,0C71.4,39.5,75.3,40.9,81,41.5z"/>
<path class="st5" d="M85.1,38.3c-6.9-0.7-11.2-2.8-15.2-5c-0.1,0.2-0.2,0.4-0.3,0.6c3.9,2.2,8.2,4.3,14.8,5
	C84.5,38.9,84.8,38.7,85.1,38.3z"/>
</svg>
