<?xml version="1.0" encoding="utf-8"?>
<!-- Generator: Adobe Illustrator 25.2.0, SVG Export Plug-In . SVG Version: 6.00 Build 0)  -->
<svg version="1.1" id="Layer_1" xmlns="http://www.w3.org/2000/svg" xmlns:xlink="http://www.w3.org/1999/xlink" x="0px" y="0px"
	 viewBox="0 0 272.7 252.4" style="enable-background:new 0 0 272.7 252.4;" xml:space="preserve">
<style type="text/css">
	.st0{fill:#D9D8DB;}
	.st1{fill:#C4C4C4;}
	.st2{opacity:0.5;}
	.st3{fill:#BFBFBF;}
	.st4{fill:#DADADA;}
	.st5{fill:#FF735D;}
	.st6{fill:#1A2E35;}
	.st7{fill:#666666;}
	.st8{opacity:0.3;}
	.st9{fill:#375A64;}
	.st10{fill:#EAB498;}
	.st11{fill:#894943;}
	.st12{fill:#726ABA;}
	.st13{fill:#7C4DFF;}
	.st14{fill:url(#SVGID_1_);}
	.st15{fill:#FAFAFA;}
	.st16{fill:url(#SVGID_2_);}
	.st17{fill:none;}
	.st18{fill:#FFFFFF;}
	.st19{clip-path:url(#SVGID_4_);}
	.st20{fill:#C6C7CC;}
	.st21{fill:#C6B6FF;}
	.st22{fill:#606770;}
	.st23{fill:#B1BACC;}
	.st24{fill:#E3EAF7;}
	.st25{fill-rule:evenodd;clip-rule:evenodd;fill:#C6C7CC;}
	.st26{fill:#9B8DE2;}
	.st27{fill-rule:evenodd;clip-rule:evenodd;fill:#707070;}
	.st28{fill:#2ED06D;}
	.st29{fill-rule:evenodd;clip-rule:evenodd;fill:#FFFFFF;}
	.st30{fill:#1A0C60;}
</style>
<path class="st0" d="M228.9,190.7c3.1-0.6,5.8-2.4,7.6-5l4.1-6.1c0.2-0.4,0.3-0.8,0.2-1.2c-0.2-0.8-1-1.4-1.9-1.2
	c-0.4,0.1-0.8,0.3-1,0.6l-4.2,6.2c-1,1.4-2.3,2.5-3.9,3.2c-3.2,1.3-7,0.6-9.4-1.9c-1.2-1.2-2-2.8-2.3-4.4c-0.2-1.1-0.2-2.3,0-3.4
	c0.2-1.1,0.7-2.2,1.3-3.1l7.7-11.3c2.7-4,8.1-5,12-2.3c0.9,0.6,1.7,1.4,2.4,2.4c0.2,0.3,0.6,0.6,1,0.7c0.9,0.2,1.7-0.4,1.9-1.2
	c0,0,0,0,0,0c0.1-0.4,0-0.8-0.2-1.2c-0.8-1.3-1.9-2.4-3.2-3.2c-5.4-3.5-12.7-2.1-16.4,3.2l-7.7,11.3c-1.3,1.9-2,4.2-2,6.6
	c0,6.5,5.2,11.9,11.8,11.9C227.4,191,228.2,190.9,228.9,190.7L228.9,190.7z"/>
<path class="st0" d="M252.5,141c-5.4-3.7-12.8-2.3-16.5,3.2c0,0,0,0,0,0l-4.2,6.1c-0.1,0.2-0.2,0.4-0.2,0.6c0,0.2,0,0.4,0,0.6
	c0,0.2,0.1,0.4,0.2,0.6c0.1,0.2,0.3,0.3,0.4,0.4c0.2,0.1,0.4,0.2,0.6,0.2c0.2,0,0.4,0,0.6,0c0.2,0,0.4-0.1,0.6-0.2
	c0.2-0.1,0.3-0.3,0.4-0.4l4.2-6.1c2.7-4,8.1-5,12-2.3s5,8.1,2.3,12l-7.6,11.3c-2.7,4-8.1,5-12,2.3c-0.9-0.6-1.7-1.4-2.3-2.4
	c-0.2-0.3-0.6-0.6-1-0.7c-0.4-0.1-0.8,0-1.2,0.2c-0.7,0.5-0.9,1.5-0.4,2.2c3.6,5.4,11,6.9,16.4,3.3c1.3-0.8,2.4-1.9,3.2-3.2
	l7.7-11.3C259.3,152,257.8,144.7,252.5,141z"/>
<path class="st0" d="M255.8,175.7c-0.5-0.3-1-0.4-1.5-0.3c-1.1,0.2-1.8,1.3-1.6,2.4c0.1,0.5,0.4,1,0.8,1.3l7.3,4.9
	c0.9,0.6,2.2,0.3,2.8-0.6c0.6-0.9,0.4-2.1-0.5-2.8c0,0,0,0,0,0L255.8,175.7z"/>
<path class="st0" d="M264.7,168.2c-0.1-0.5-0.4-0.9-0.8-1.1c-0.4-0.3-1-0.3-1.5-0.2l-2.9,0.6c-0.5,0.1-0.9,0.4-1.2,0.8
	c-0.3,0.4-0.4,0.8-0.3,1.3c0.1,0.5,0.4,0.9,0.8,1.1c0.4,0.2,1,0.3,1.5,0.2l2.9-0.6c0.5-0.1,0.9-0.4,1.2-0.8
	C264.7,169.1,264.8,168.7,264.7,168.2z"/>
<path class="st0" d="M248.5,183.5c-0.5,0.1-0.8,0.4-1.1,0.8c-0.2,0.4-0.3,0.9-0.2,1.4l0.6,2.9c0.1,0.5,0.4,0.9,0.8,1.2
	c0.7,0.6,1.7,0.5,2.2-0.2c0.1-0.1,0.1-0.2,0.2-0.2c0.3-0.4,0.3-1,0.2-1.4l-0.6-2.9c-0.1-0.5-0.4-0.9-0.8-1.3
	C249.4,183.5,249,183.4,248.5,183.5z"/>
<path class="st0" d="M218.3,154.5c0.4-0.1,0.7-0.3,1-0.5c0.3-0.3,0.5-0.6,0.6-1c0.1-0.4,0-0.8-0.1-1.2c-0.1-0.4-0.4-0.7-0.7-0.9
	l-7.1-4.9c-0.2-0.2-0.5-0.3-0.7-0.4c-0.3-0.1-0.5-0.1-0.8,0c-0.3,0-0.5,0.1-0.8,0.3c-0.2,0.1-0.4,0.3-0.6,0.6
	c-0.2,0.2-0.3,0.5-0.3,0.8c-0.1,0.6,0,1.1,0.4,1.6c0.2,0.2,0.4,0.4,0.6,0.6l7.2,4.9C217.2,154.5,217.8,154.6,218.3,154.5z"/>
<path class="st0" d="M221.4,142l0.6,2.9c0.1,0.5,0.4,0.9,0.8,1.3c0.4,0.3,0.8,0.4,1.3,0.3c0.5-0.1,0.8-0.4,1.1-0.8
	c0.2-0.4,0.3-1,0.2-1.4l-0.6-2.9c-0.1-0.5-0.4-0.9-0.8-1.2c-0.4-0.3-0.8-0.4-1.3-0.3c-0.5,0.1-0.9,0.4-1.1,0.8
	C221.4,141,221.3,141.5,221.4,142z"/>
<path class="st0" d="M209.4,159.7c-0.5,0.1-1,0.3-1.3,0.8c-0.3,0.4-0.4,0.8-0.3,1.3c0.1,0.5,0.4,0.9,0.8,1.1
	c0.4,0.2,0.9,0.3,1.4,0.2l2.9-0.6c0.5-0.1,0.9-0.4,1.2-0.8c0.3-0.4,0.4-0.8,0.3-1.3c-0.1-0.5-0.4-0.8-0.8-1.1
	c-0.4-0.2-1-0.3-1.4-0.2L209.4,159.7z"/>
<g>
	<path class="st0" d="M226.7,191.1c-6.6,0-12-5.3-12-12c0-2.4,0.7-4.8,2.1-6.8l7.7-11.3c3.8-5.4,11.2-6.8,16.7-3.2
		c1.3,0.9,2.4,2,3.3,3.3c0.3,0.4,0.4,0.9,0.3,1.3c-0.1,0.5-0.4,0.9-0.8,1.1c-0.4,0.3-0.9,0.4-1.3,0.3c-0.5-0.1-0.9-0.4-1.1-0.8
		c-0.8-1.2-1.8-2.1-3-2.8c-1.2-0.7-2.6-1-4-1l0,0c-2.8,0-5.4,1.4-7,3.7l-7.7,11.3c-0.6,0.9-1.1,1.9-1.3,3c-0.2,1.1-0.2,2.2,0,3.3
		c0.9,4.6,5.3,7.6,9.9,6.7c2.2-0.4,4.1-1.7,5.4-3.6l4.1-6.1c0.6-0.8,1.6-1,2.4-0.5c0.8,0.5,1,1.6,0.5,2.4l-4.1,6.1
		c-1.8,2.6-4.6,4.5-7.7,5.1C228.2,191,227.5,191.1,226.7,191.1z M234.4,156.2c-0.8,0-1.5,0.1-2.3,0.2c-3,0.6-5.7,2.3-7.5,4.8
		l-7.7,11.3c-3.6,5.3-2.2,12.6,3.1,16.2c2.6,1.7,5.7,2.4,8.8,1.8l0,0c3-0.6,5.7-2.3,7.4-4.9l4.1-6.1c0.2-0.3,0.3-0.7,0.2-1.1
		c-0.1-0.4-0.3-0.7-0.6-0.9c-0.3-0.2-0.7-0.3-1.1-0.2c-0.4,0.1-0.7,0.3-0.9,0.6l-4.1,6.1c-2.7,4-8.2,5.1-12.3,2.4s-5.1-8.2-2.4-12.3
		l0,0l7.6-11.3c1.6-2.4,4.4-3.9,7.3-3.9l0,0c2.9,0,5.7,1.5,7.3,3.9c0.2,0.3,0.5,0.5,0.9,0.6c0.4,0.1,0.7,0,1.1-0.2
		c0.3-0.2,0.5-0.5,0.6-0.9c0.1-0.4,0-0.7-0.2-1.1C241.9,158.1,238.2,156.2,234.4,156.2L234.4,156.2z"/>
</g>
<g>
	<path class="st0" d="M238.2,174.2L238.2,174.2c-4,0-7.8-2-10-5.3c-0.3-0.4-0.4-0.9-0.3-1.3c0.1-0.5,0.4-0.9,0.8-1.1
		c0.4-0.3,0.9-0.4,1.3-0.3c0.5,0.1,0.9,0.4,1.1,0.8c1.9,2.8,5.3,4.2,8.6,3.5c2.2-0.4,4.1-1.7,5.4-3.5l7.7-11.3
		c2.4-4,1.2-9.2-2.8-11.6c-3.7-2.3-8.5-1.3-11.2,2.1l-4.2,6.1c-0.1,0.2-0.3,0.4-0.5,0.5c-0.2,0.1-0.4,0.2-0.6,0.3
		c-0.2,0-0.5,0-0.7,0c-0.5-0.1-0.9-0.4-1.1-0.8c-0.1-0.2-0.2-0.4-0.3-0.7c-0.1-0.5,0-1,0.3-1.3l4.2-6.1c3.7-5.5,11.2-6.9,16.7-3.2
		c0,0,0,0,0,0l0,0c5.4,3.8,6.9,11.2,3.2,16.7l-7.7,11.3C245.9,172.2,242.2,174.2,238.2,174.2L238.2,174.2z M229.6,166.4
		c-0.8,0-1.4,0.7-1.4,1.4c0,0.3,0.1,0.5,0.2,0.8c1.1,1.6,2.5,2.9,4.2,3.8c1.7,0.9,3.6,1.4,5.5,1.4l0,0c3.9,0,7.5-1.9,9.7-5.1
		l7.7-11.3c3.5-5.4,2.1-12.6-3.1-16.2c-5.3-3.6-12.6-2.2-16.2,3.1l-4.2,6.1c-0.1,0.2-0.2,0.3-0.2,0.5c0,0.2,0,0.4,0,0.6
		c0,0.2,0.1,0.4,0.2,0.5c0.1,0.2,0.2,0.3,0.4,0.4c0.2,0.1,0.3,0.2,0.5,0.2c0.2,0,0.4,0,0.6,0c0.2,0,0.4-0.1,0.5-0.2
		c0.2-0.1,0.3-0.2,0.4-0.4l4.2-6.1c2.8-4,8.3-5,12.3-2.2c3.9,2.7,5,8.1,2.3,12.1l-7.6,11.3c-2.8,3.9-8.2,5-12.3,2.4
		c-1-0.6-1.8-1.5-2.4-2.4c-0.2-0.3-0.5-0.5-0.9-0.6L229.6,166.4z"/>
</g>
<g>
	<path class="st0" d="M261.9,184.6c-0.4,0-0.8-0.1-1.2-0.3l-7.3-4.9c-1-0.7-1.2-2.1-0.6-3.1c0.3-0.5,0.8-0.8,1.4-0.9
		c0.6-0.1,1.2,0,1.7,0.3l0,0l7.3,4.9c1,0.7,1.2,2.1,0.5,3.1c-0.3,0.5-0.8,0.8-1.4,0.9C262.2,184.5,262,184.6,261.9,184.6z
		 M254.7,175.6c-0.1,0-0.2,0-0.4,0c-0.5,0.1-0.9,0.4-1.2,0.8c-0.3,0.4-0.4,0.9-0.3,1.4c0.1,0.5,0.4,0.9,0.8,1.2l7.3,4.9
		c0.9,0.5,2,0.3,2.5-0.6c0.3-0.4,0.4-0.9,0.3-1.4c-0.1-0.5-0.3-0.9-0.7-1.2l-7.3-4.9C255.4,175.6,255,175.6,254.7,175.6L254.7,175.6
		z"/>
</g>
<g>
	<path class="st0" d="M259.8,171c-0.4,0-0.8-0.1-1.1-0.3c-0.5-0.3-0.8-0.7-0.9-1.2c-0.1-0.5,0-1,0.4-1.4c0.3-0.4,0.8-0.7,1.4-0.8
		l2.9-0.6c0.5-0.1,1.1,0,1.6,0.3c0.5,0.3,0.8,0.7,0.9,1.2l0,0c0.1,0.5,0,1-0.4,1.4c-0.3,0.4-0.8,0.7-1.4,0.8l-2.9,0.6
		C260.1,171,260,171,259.8,171z M262.9,167c-0.1,0-0.3,0-0.4,0l-2.9,0.6c-0.5,0.1-0.9,0.3-1.1,0.7c-0.5,0.6-0.4,1.5,0.2,2
		c0.1,0.1,0.1,0.1,0.2,0.1c0.4,0.2,0.9,0.3,1.3,0.2l2.9-0.6c0.5-0.1,0.9-0.3,1.1-0.7c0.3-0.3,0.4-0.7,0.3-1.1l0,0
		c-0.1-0.4-0.3-0.8-0.7-0.9C263.5,167.1,263.2,167,262.9,167L262.9,167z"/>
</g>
<g>
	<path class="st0" d="M249.5,190.4c-0.4,0-0.8-0.1-1.1-0.4c-0.4-0.3-0.7-0.8-0.8-1.4l-0.6-2.9c-0.1-0.5,0-1.1,0.2-1.6
		c0.3-0.5,0.7-0.8,1.2-0.9l0,0c0.5-0.1,1,0,1.4,0.4c0.4,0.3,0.7,0.8,0.8,1.4l0.6,2.9c0.1,0.5,0,1.1-0.2,1.6
		c-0.3,0.4-0.7,0.8-1.2,0.9C249.7,190.4,249.6,190.4,249.5,190.4z M248.8,183.7h-0.2l0,0c-0.4,0.1-0.8,0.3-1,0.7
		c-0.2,0.4-0.3,0.9-0.2,1.3l0.6,2.9c0.1,0.4,0.3,0.9,0.7,1.1c0.3,0.3,0.7,0.4,1.1,0.3c0.4-0.1,0.8-0.3,0.9-0.7
		c0.2-0.4,0.3-0.9,0.2-1.3l-0.6-2.9c-0.1-0.5-0.3-0.9-0.7-1.1C249.4,183.8,249.1,183.7,248.8,183.7L248.8,183.7z"/>
</g>
<g>
	<path class="st0" d="M217.9,154.7c-0.4,0-0.9-0.1-1.2-0.4l-7.2-4.9c-0.3-0.1-0.5-0.3-0.6-0.6c-0.2-0.2-0.3-0.5-0.4-0.8
		c-0.1-0.3-0.1-0.6,0-0.9c0.1-0.3,0.2-0.6,0.3-0.8c0.3-0.5,0.9-0.8,1.5-0.9c0.3-0.1,0.6-0.1,0.9,0c0.3,0.1,0.6,0.2,0.8,0.4l7.2,4.8
		c0.4,0.3,0.6,0.6,0.8,1c0.5,1.1-0.1,2.4-1.2,2.9c-0.1,0-0.3,0.1-0.4,0.1l0,0C218.2,154.7,218,154.7,217.9,154.7z M210.6,145.7h-0.3
		c-0.3,0-0.5,0.1-0.7,0.3c-0.2,0.1-0.4,0.3-0.5,0.5c-0.1,0.2-0.2,0.4-0.3,0.7c0,0.2,0,0.5,0,0.8c0.1,0.2,0.2,0.5,0.3,0.7
		c0.1,0.2,0.3,0.4,0.6,0.5l7.2,4.9c0.4,0.3,0.9,0.4,1.4,0.3l0,0c0.4-0.1,0.7-0.2,0.9-0.5c0.3-0.3,0.4-0.6,0.5-0.9
		c0.1-0.7-0.2-1.5-0.8-1.9l-7.2-4.8c-0.2-0.2-0.4-0.3-0.7-0.4C210.9,145.8,210.8,145.8,210.6,145.7L210.6,145.7z"/>
</g>
<g>
	<path class="st0" d="M223.7,146.7c-0.4,0-0.8-0.1-1.1-0.4c-0.4-0.3-0.7-0.8-0.8-1.4l-0.6-2.9c-0.1-0.5,0-1.1,0.3-1.6
		c0.3-0.5,0.7-0.8,1.2-0.9c0.5-0.1,1,0,1.4,0.4c0.4,0.3,0.7,0.8,0.8,1.4l0.6,2.9c0.1,0.5,0,1.1-0.3,1.6c-0.3,0.5-0.7,0.8-1.2,0.9
		C223.9,146.7,223.8,146.7,223.7,146.7z M221.6,141.9l0.6,2.9c0.1,0.5,0.3,0.9,0.7,1.1c0.6,0.5,1.4,0.4,1.9-0.2
		c0.1-0.1,0.1-0.2,0.2-0.3c0.2-0.4,0.3-0.9,0.2-1.3l-0.6-2.9c-0.1-0.4-0.3-0.9-0.7-1.1c-0.3-0.3-0.7-0.4-1.1-0.3
		c-0.4,0.1-0.8,0.3-0.9,0.7C221.5,141,221.5,141.5,221.6,141.9L221.6,141.9z"/>
</g>
<g>
	<path class="st0" d="M209.6,163.3c-0.4,0-0.8-0.1-1.1-0.3c-0.8-0.5-1.2-1.5-0.7-2.4c0.1-0.1,0.1-0.2,0.2-0.3
		c0.3-0.4,0.8-0.7,1.4-0.8l2.9-0.6c0.5-0.1,1.1,0,1.6,0.2c0.4,0.3,0.8,0.7,0.9,1.2c0.1,0.5,0,1-0.4,1.4c-0.3,0.4-0.8,0.7-1.4,0.8
		l-2.9,0.6C209.9,163.3,209.8,163.3,209.6,163.3z M212.7,159.3c-0.1,0-0.2,0-0.4,0l-2.9,0.6c-0.4,0.1-0.9,0.3-1.1,0.7
		c-0.3,0.3-0.4,0.7-0.3,1.1c0.1,0.4,0.3,0.7,0.7,0.9c0.4,0.2,0.9,0.3,1.3,0.2l2.9-0.6c0.5-0.1,0.9-0.3,1.1-0.7
		c0.3-0.3,0.4-0.7,0.3-1.1c-0.1-0.4-0.3-0.8-0.7-1C213.3,159.3,213,159.3,212.7,159.3L212.7,159.3z"/>
</g>
<ellipse class="st1" cx="118.2" cy="228.6" rx="108.4" ry="4"/>
<g class="st2">
	<path class="st3" d="M66.5,93.6v3.6h3.5V90h-3.5V93.6z"/>
	<path class="st3" d="M70,72.3h-3.5v3.6H70V72.3z"/>
	<path class="st3" d="M91.9,111.4h-3.6v3.6h3.6V111.4z"/>
	<path class="st3" d="M69.9,79.4V83h-3.5v3.5h3.5V90h7.1v3.6h3.6V90h3.5v-7h-3.5v3.5h-7.1V75.9h-3.6V79.4z"/>
	<path class="st3" d="M77.1,72.3h-3.6v3.6h7.1v-3.6H77.1z"/>
	<path class="st3" d="M93,100.9h1.9v-3.6h-3.8v3.6H93z"/>
	<path class="st3" d="M84.2,75.9h-3.6v3.6h3.6V75.9z"/>
	<path class="st3" d="M109,90h-3.6v3.6h3.6V90z"/>
	<path class="st3" d="M112.6,51H109v3.6h3.6L112.6,51z"/>
	<path class="st3" d="M91.2,79.4v-3.6h3.6v-3.6h-3.6v-3.6h-3.6v3.6h-3.6v3.6h3.6V90h3.6v-7h3.6v-3.6H91.2z"/>
	<path class="st3" d="M109,114.9h3.6v-3.6h-7.1v3.6H109z"/>
	<path class="st3" d="M105.4,51h-3.6v3.6h3.6V51z"/>
	<path class="st3" d="M104.6,79.4v-3.6H101v-3.6h-3.6v7.1H94V83h7v-3.6H104.6z"/>
	<path class="st3" d="M124.6,72.3H121v3.6h3.6L124.6,72.3z"/>
	<path class="st3" d="M87.8,90h-3.6v3.6h3.6V90z"/>
	<path class="st3" d="M101.9,68.7v-3.5h3.6v-3.6h7.1v-3.6H109v-3.6h-3.6v3.6h-3.6v3.6h-3.4v3.6h-3.6v3.5H101.9L101.9,68.7z"/>
	<path class="st3" d="M101.9,93.6V90h3.6v-3.5h-7V90h-3.6v3.6L101.9,93.6L101.9,93.6z"/>
	<path class="st3" d="M112.6,107.8v-3.6h-7.1v-3.6h-3.6v3.6h-3.5v3.6h-7.2v3.6h10.6v-3.6h3.6v3.6h3.6v-3.6H112.6z"/>
	<path class="st3" d="M98.4,54.5V51h-7.2v3.6h-3.6v3.5h7.2v-3.6H98.4z"/>
	<path class="st3" d="M98.4,58.1h-3.6v3.6h3.6V58.1z"/>
	<path class="st3" d="M107.3,72.3h-3.6V83h7v-3.6h-3.5v-3.6h3.5v-3.6h3.6v-3.6h-3.6v-3.5h-3.5L107.3,72.3L107.3,72.3z"/>
	<path class="st3" d="M94.8,61.7h-3.6v3.6h3.6V61.7z"/>
	<path class="st3" d="M105.4,97.2v3.5h7.1v-3.5h7v-3.6H109v3.6H105.4z"/>
	<path class="st3" d="M124.6,83H121v3.6h3.6L124.6,83z"/>
	<path class="st3" d="M112.6,86.5H109V90h3.6L112.6,86.5z"/>
	<path class="st3" d="M121.5,75.9h-7.2v3.6h3.6V83h3.6V75.9z"/>
	<path class="st3" d="M119.7,86.5h-3.6V90h3.6V86.5z"/>
	<path class="st3" d="M80.6,107.9h10.6V93.6H77v3.6h-3.5v3.6H77v3.6h-3.5v3.6h3.6v3.5h-3.6v7.1h3.6v-3.6h3.6V107.9L80.6,107.9z
		 M88.6,96.3v8.9h-8.9v-8.9H88.6z"/>
	<path class="st3" d="M126.8,93.6h3.6V90h-10.7v3.6L126.8,93.6L126.8,93.6z"/>
	<path class="st3" d="M126.8,79.4h3.6v-7.1h-3.6C126.8,72.3,126.8,79.4,126.8,79.4z"/>
	<path class="st3" d="M98.5,97.3h-3.6v7.2h3.6V97.3z"/>
	<path class="st3" d="M133.9,93.6h-3.6v3.6h3.6V93.6z"/>
	<path class="st3" d="M133.8,86.5V83h-3.5v7h3.5V86.5z"/>
	<path class="st3" d="M69.9,111.4h-3.5v7h3.5V111.4z"/>
	<path class="st3" d="M133.8,68.7V51H116v17.7H133.8z M118.8,66.1V53.7h12.4v12.5H118.8z"/>
	<path class="st3" d="M128.6,56.4h-7.1v7.2h7.1V56.4z"/>
	<path class="st3" d="M133.8,100.7H116v17.8h17.8V100.7z M118.8,115.8v-12.4h12.4v12.4H118.8z"/>
	<path class="st3" d="M128.6,106.1h-7.1v7.2h7.1V106.1z"/>
	<path class="st3" d="M66.3,51v17.7h17.8V51H66.3z M81.4,53.7v12.4H69.1V53.7L81.4,53.7z"/>
	<path class="st3" d="M78.8,56.4h-7.1v7.2h7.1V56.4z"/>
</g>
<path class="st3" d="M38,120.9c0.2-0.9-0.3-1.9-1.2-2.1c-0.9-0.2-1.9,0.3-2.1,1.2c-0.2,0.9,0.3,1.9,1.2,2.1c0,0,0,0,0,0
	C36.8,122.4,37.8,121.9,38,120.9z"/>
<path class="st3" d="M33,118.4c1.8-1.9,4.7-2,6.6-0.2c0,0,0.1,0.1,0.1,0.1c0.4,0.3,1,0.3,1.3-0.1c0.3-0.3,0.3-0.8,0-1.2
	c-2.6-2.6-6.7-2.6-9.3,0c0,0-0.1,0.1-0.1,0.1C30.8,117.9,32.1,119.3,33,118.4z"/>
<path class="st3" d="M27.3,110.5c2.5-2.2,5.7-3.5,9-3.6c3.4,0,6.7,1.2,9.2,3.6c0.9,0.9,2.3-0.5,1.3-1.3c-2.8-2.7-6.6-4.1-10.5-4.1
	c-3.8,0.1-7.5,1.5-10.4,4.1C25.1,110,26.4,111.4,27.3,110.5z"/>
<path class="st3" d="M29.5,114.8c1.7-1.9,4.1-2.9,6.6-3c2.6-0.1,5.2,1,6.9,2.9c0.4,0.3,1,0.3,1.3-0.1c0.3-0.3,0.3-0.8,0-1.2
	c-2.2-2.2-5.1-3.4-8.2-3.5c-3,0.1-5.9,1.4-8,3.6C27.4,114.4,28.7,115.8,29.5,114.8z"/>
<path class="st4" d="M110.7,28.7c0.3-2.1-2.6-3.8-4.9-4c-1.1,0.1-2.1-0.1-3.1-0.3c-2.2-0.8-3-3.6-5.1-4.4c-1.6-0.5-3.4-0.3-4.9,0.6
	c-1.5,0.8-3,1.7-4.8,1.8c-1.5,0.1-3.1-0.4-4.4,0.2c-1,0.5-1.5,1.6-2.4,2.3c-1,0.6-2,0.9-3.1,0.9c-1.1,0-2.1,0.2-3.1,0.5
	c-1.1,0.4-1.7,1.5-1.6,2.6L110.7,28.7z"/>
<path class="st4" d="M43.1,73.2c0.2-1.3-1.7-2.4-3.1-2.5c-0.7,0-1.3,0-2-0.2c-1.4-0.5-1.9-2.2-3.2-2.8c-1.1-0.3-2.2-0.1-3.1,0.5
	c-0.9,0.6-1.9,0.9-3,1.2c-0.9,0.1-2-0.3-2.8,0.2s-0.9,1.1-1.5,1.5c-0.6,0.3-1.3,0.5-2,0.5c-0.7,0-1.3,0.1-2,0.3
	c-0.7,0.3-1.1,0.9-1,1.6L43.1,73.2z"/>
<path class="st4" d="M231.6,62.4c0.3-1.9-2.5-3.7-4.6-3.8c-1,0-2,0-3-0.2c-2.1-0.8-2.9-3.4-4.9-4.2c-1.5-0.7-3.2-0.1-4.8,0.7
	c-1.4,0.9-2.9,1.5-4.6,1.7c-1.4,0.1-2.9-0.4-4.2,0.2c-1,0.5-1.4,1.6-2.3,2.2c-0.9,0.6-1.9,0.8-2.9,0.8c-1,0-2,0.2-3,0.5
	c-1,0.4-1.6,1.4-1.5,2.5L231.6,62.4z"/>
<path class="st5" d="M201.9,207c0.9,0.5,1.6,1.3,1.9,2.3c0.3,1,0.4,2,0.2,3c-0.4,2.1-1.3,4-2.6,5.6c-1.6-1.4-2.1-4-2.2-5.3
	C199.3,210.5,200.2,206.6,201.9,207z"/>
<path class="st5" d="M203.5,221.1c-0.2-1.2,0.2-2.3,1.1-3.1c0.9-0.8,2.1-1.1,3.2-1c0.5,0,1.1,0.2,1.4,0.6c0.3,0.4,0.3,1,0,1.4
	c-0.3,0.4-0.6,0.8-1.1,1.1C206.9,221.2,205.1,221.5,203.5,221.1z"/>
<path class="st6" d="M201.4,227.2c0-0.1,0-0.3,0.1-0.4c0-0.4,0.1-0.7,0.2-1.1c0.2-1.2,0.6-2.5,1.2-3.6c0.6-1.1,1.5-2,2.5-2.7
	c0.3-0.2,0.7-0.4,1.1-0.4c0.1,0,0.2-0.1,0.3-0.1h0.1c-0.5,0.1-1,0.4-1.4,0.6c-1,0.7-1.9,1.6-2.5,2.7c-0.5,1.1-0.9,2.3-1.2,3.5
	c-0.1,0.4-0.2,0.7-0.2,1.1C201.5,227.1,201.5,227.2,201.4,227.2z"/>
<path class="st6" d="M201.5,210v0.8c0,0.6,0,1.2,0.1,1.8c0,1.6,0.1,3.8,0.1,6.3s-0.1,4.7-0.1,6.3c0,0.8-0.1,1.4-0.1,1.8v-1.8
	c0-1.6,0.1-3.8,0.1-6.2v-8.6L201.5,210z"/>
<path class="st5" d="M200.7,222.3c-0.4-2.4-2-4.5-4.2-5.6c-0.5-0.2-1.3-0.4-1.7,0c-0.4,0.5-0.4,1.2-0.1,1.7c1,2.4,3.4,4.1,6.1,4.1"
	/>
<path class="st6" d="M196.7,218.7c0.1,0,0.2,0.1,0.3,0.1c0.1,0,0.2,0.1,0.4,0.2c0.2,0.1,0.3,0.2,0.5,0.3c0.2,0.1,0.4,0.2,0.5,0.4
	c0.2,0.1,0.5,0.3,0.6,0.5c0.5,0.5,0.9,1,1.2,1.5c0.3,0.5,0.6,1.1,0.8,1.7c0.1,0.3,0.1,0.5,0.2,0.9c0.1,0.2,0.1,0.5,0.1,0.8v1.5
	c0-0.5,0-0.9-0.1-1.4c0-0.2-0.1-0.4-0.1-0.8c0-0.3-0.1-0.5-0.2-0.8c-0.2-0.6-0.5-1.2-0.8-1.7c-0.3-0.6-0.7-1.1-1.2-1.5
	c-0.2-0.2-0.4-0.4-0.6-0.5c-0.2-0.2-0.4-0.3-0.5-0.4C197.6,219.2,197.1,218.9,196.7,218.7z"/>
<path class="st6" d="M74.7,227.8c0,0-0.1-0.5-0.3-1.3s-0.4-1.9-0.9-3.2c-0.4-1-0.8-2-1.3-3c-0.3-0.8-0.7-1.2-0.5-1.3
	s0.3,0.4,0.8,1.2c0.5,1,0.9,2,1.3,3c0.4,1,0.7,2.1,0.9,3.2C74.7,227.2,74.8,227.8,74.7,227.8z"/>
<path class="st6" d="M78.9,207.3c0,0.3,0,0.5-0.1,0.8c-0.1,0.5-0.2,1.3-0.3,2.2c-0.3,1.8-0.7,4.4-0.9,7.3s-0.2,5.4-0.2,7.2v2.9
	c0-0.3,0-0.5-0.1-0.8c0-0.5-0.1-1.3-0.1-2.2c-0.1-2.4,0-4.8,0.2-7.2c0.2-2.8,0.7-5.4,1-7.3c0.2-0.9,0.3-1.6,0.4-2.2
	C78.8,207.8,78.8,207.5,78.9,207.3z"/>
<path class="st6" d="M85.6,219.1c-0.3,0.4-0.5,0.8-0.8,1.2c-0.6,0.9-1.1,1.9-1.6,2.9c-0.4,1-0.8,2.1-1.1,3.1
	c-0.2,0.9-0.3,1.4-0.3,1.4c0-0.5,0-0.9,0.1-1.4c0.2-1.1,0.5-2.2,1-3.2c0.5-1,1-2,1.7-2.9C85.3,219.4,85.6,219.1,85.6,219.1z"/>
<path class="st6" d="M168.2,220.6c0.3,0.3,0.5,0.6,0.6,1c0.3,0.6,0.8,1.4,1.3,2.4s0.8,1.8,1.1,2.5s0.3,1.1,0.3,1.1s-0.2-0.4-0.4-1
	s-0.6-1.5-1.1-2.5s-0.9-1.8-1.2-2.5C168.3,221,168.2,220.7,168.2,220.6z"/>
<path class="st6" d="M176.9,212.1c0,0.2,0,0.4-0.1,0.6c-0.1,0.4-0.2,1-0.4,1.6c-0.3,1.4-0.6,3.4-1,5.5c-0.3,1.9-0.4,3.7-0.4,5.6
	c0,0.6,0,1.2-0.1,1.7v-1.7c0-1.9,0.2-3.8,0.4-5.6c0.2-1.9,0.6-3.7,1.1-5.5c0.2-0.6,0.3-1.3,0.4-1.6
	C176.8,212.5,176.8,212.3,176.9,212.1z"/>
<path class="st6" d="M113.9,215.8c0.2,0.1,0.3,0.2,0.4,0.3c0.2,0.2,0.7,0.5,1.1,1c1.1,1.2,2.1,2.5,2.8,3.9c0.8,1.4,1.4,3,1.7,4.6
	c0.1,0.5,0.2,0.9,0.3,1.4c0,0.3,0.1,0.5,0,0.5c-0.1-0.7-0.3-1.3-0.5-1.9c-0.4-1.6-1-3-1.8-4.4c-0.8-1.4-1.7-2.7-2.8-3.9
	C114.4,216.4,113.9,216,113.9,215.8z"/>
<path class="st6" d="M122.1,210.9v2.5c0,1.5,0.1,3.7,0.2,6.1s0.5,4.4,0.8,6c0.1,0.8,0.2,1.3,0.3,1.8c0.1,0.2,0.1,0.4,0.1,0.6
	c-0.1-0.2-0.2-0.4-0.2-0.6c-0.1-0.4-0.2-1.1-0.4-1.8c-0.4-2-0.7-4-0.9-6c-0.2-2.4-0.2-4.5-0.2-6.1c0-0.6,0-1.2,0.1-1.8
	C122,211.3,122.1,211.1,122.1,210.9z"/>
<path class="st6" d="M129.4,220.8c0.1,0-0.8,1.4-1.3,3.4s-0.7,3.6-0.8,3.6v-1.1c0.1-0.8,0.3-1.7,0.5-2.5c0.3-0.8,0.6-1.6,1-2.4
	C129,221.4,129.1,221.1,129.4,220.8z"/>
<path class="st7" d="M32.6,182.7H27v45h5.5L32.6,182.7z"/>
<g class="st8">
	<g class="st8">
		<path d="M32.6,183.8H27v1.8h5.5L32.6,183.8z"/>
	</g>
</g>
<path class="st7" d="M149.5,182.7H144v44.9h5.5L149.5,182.7z"/>
<path class="st9" d="M140.8,144.5h-5.5v36.4h5.5V144.5z"/>
<path class="st6" d="M140.8,180.9v-36.4l0.1,0.1h-5.5c0.2-0.2,0.1-0.1,0.1-0.1v36.3l-0.1-0.1h5.2
	C140.7,180.9,140.8,180.9,140.8,180.9h-5.6v-36.3l0.1-0.1h5.7v36.4H140.8z"/>
<path class="st7" d="M43.1,144.5h-5.5v36.4h5.5V144.5z"/>
<path class="st7" d="M151.4,140.4H26.7v5.9h124.7V140.4z"/>
<path class="st7" d="M151.8,149.1H27v5.9h124.7V149.1z"/>
<path class="st7" d="M151.8,158.1H27v5.9h124.7V158.1z"/>
<path class="st7" d="M151.8,167.2H27v5.9h124.7V167.2z"/>
<path class="st7" d="M154.1,178H21.6v5.9h132.4V178z"/>
<g class="st8">
	<g class="st8">
		<path d="M149.5,183.8H144v1.8h5.5L149.5,183.8z"/>
	</g>
</g>
<path class="st10" d="M82.4,110.9l-1.2,7.7l-3,6.9l-4.5-2.9l-1.6-4.1l-1.3-3.5c0,0-4.8,1.2-6.7-3.4c-1-2.2-2.5-6.7-3.8-10.9
	c-1.4-4.5,0.9-9.3,5.2-11.2l0.4-0.2c4.8-1.6,8.9,1.5,10.4,6.3L82.4,110.9z"/>
<path class="st11" d="M70.7,115.3c2.1-0.8,3.9-2.3,5.2-4.1c0,0,0,3.8-4.8,5.2L70.7,115.3z"/>
<path class="st6" d="M63.1,104.4c0.1,0.3,0.5,0.5,0.9,0.4c0.4-0.1,0.6-0.5,0.4-0.9c-0.1-0.4-0.5-0.6-0.9-0.4
	C63.2,103.7,63,104.1,63.1,104.4C63.1,104.4,63.1,104.4,63.1,104.4z"/>
<path class="st6" d="M61.9,102.6c0.3-0.3,0.8-0.6,1.2-0.8c0.6-0.3,1.3-0.1,1.4-0.2c-0.1-0.1-0.3-0.2-0.4-0.2
	c-0.8-0.2-1.6,0.2-2.1,0.9C61.8,102.4,61.8,102.5,61.9,102.6z"/>
<path class="st6" d="M69.2,101.7c0.1,0.4,0.5,0.6,0.9,0.4c0.4-0.1,0.6-0.5,0.4-0.9l0,0c-0.1-0.3-0.5-0.5-0.9-0.4
	C69.3,101,69.1,101.3,69.2,101.7C69.2,101.7,69.2,101.7,69.2,101.7z"/>
<path class="st12" d="M44.6,161.8L34.2,167c0,0-8.8-8.9-10.7-8.1l9.3,20.6l16.6-7.4L44.6,161.8z"/>
<path class="st6" d="M68.7,99.6c0.1,0.1,0.5-0.4,1.2-0.7s1.3,0,1.4-0.1c-0.1-0.2-0.2-0.3-0.4-0.3c-0.4-0.1-0.8-0.1-1.2,0
	c-0.4,0.1-0.7,0.3-1,0.7C68.6,99.3,68.6,99.5,68.7,99.6z"/>
<path class="st6" d="M68.5,106.3c0,0-0.4,0.1-1.2,0.2c-0.2,0.1-0.3,0.1-0.4,0c-0.1-0.2-0.1-0.4-0.1-0.6v-1.5c0-1.3-0.1-2.7-0.3-4
	c-0.1,1.3-0.1,2.7,0,4c0,0.5,0,1,0.1,1.5c0,0.3,0,0.5,0.2,0.8c0,0.1,0.1,0.1,0.2,0.1c0.1,0,0.2,0,0.3-0.1
	C67.7,106.6,68.1,106.5,68.5,106.3z"/>
<path class="st6" d="M67.3,96.5c0.1,0.1,0.8-0.2,1.6-0.4s1.6-0.3,1.6-0.5s-0.2-0.2-0.6-0.3c-0.4-0.1-0.9-0.1-1.3,0.1
	c-0.4,0.1-0.9,0.3-1.2,0.6C67.5,96.2,67.4,96.4,67.3,96.5z"/>
<path class="st6" d="M60.9,99.8c0.2,0.1,0.5-0.2,1.2-0.5s1.1-0.3,1.2-0.5s-0.1-0.2-0.4-0.3c-0.4-0.1-0.7,0-1.1,0.1
	c-0.3,0.1-0.6,0.4-0.8,0.7C60.8,99.6,60.8,99.8,60.9,99.8z"/>
<path class="st10" d="M77.2,99.5c0.1-0.1,2.7-2.2,3.9,1s-2.2,3.7-2.3,3.6S77.2,99.5,77.2,99.5z"/>
<path class="st11" d="M79.3,102.4h0.2c0.2,0,0.3,0,0.4-0.1c0.3-0.2,0.3-0.9,0.2-1.4c-0.1-0.3-0.2-0.5-0.4-0.8
	c-0.2-0.2-0.4-0.3-0.5-0.2c-0.1,0-0.2,0.1-0.2,0.2l0,0v0.2c0,0-0.1,0-0.1-0.2v-0.2c0-0.1,0.1-0.1,0.2-0.2s0.5,0.1,0.8,0.3
	c0.2,0.2,0.4,0.5,0.5,0.8c0.2,0.6,0.1,1.2-0.3,1.6c-0.2,0.1-0.4,0.2-0.5,0.1S79.3,102.4,79.3,102.4z"/>
<path class="st6" d="M57.5,95.9c-0.1-0.7,0.1-1.3,0.7-1.7c-0.5-0.5-0.6-1.3-0.2-1.8c0.4-0.6,1.1-0.8,1.7-0.7
	c-0.3-0.8,0.1-1.6,0.9-1.9c0.2-0.1,0.3-0.1,0.5-0.1c-0.2-0.6-0.1-1.2,0.3-1.7c0.5-0.3,1.1-0.3,1.6,0c0.2-1.2,1.4-2,2.7-1.8
	c0.2,0,0.3,0.1,0.5,0.2c1.1-0.9,2.7-0.9,3.8,0.1c1.1-0.3,2.2,0,2.9,0.9c0.7-0.2,1.5,0,2,0.4c0.6,0.5,0.8,1.3,0.7,2
	c0.8,0.1,1.4,0.8,1.3,1.6c0,0.1,0,0.2-0.1,0.4c0.6,0.1,1.1,0.4,1.3,1c0.2,0.5,0.1,1.1-0.3,1.5c0.4-0.1,0.9,0.4,1,0.9s-0.1,1-0.1,1.5
	s0.1,0.8,0.1,1.2c0,0.8-0.3,1.5-0.9,2c0.1,0,0.1,0,0.1,0.1l0,0c0.2,0.3-0.2,0.9-0.7,0.9s-0.8-0.3-1.2-0.5c-0.4-0.3-0.8-0.6-1.2-1
	c-0.4-0.4-0.4-1-0.1-1.4c-0.6,0-1.2-0.3-1.5-0.9c-0.3-0.5-0.5-1.1-0.5-1.7c-0.2-0.9-0.4-1.7-0.5-2.6c-1.1,0.4-2.5,0.2-3.3-0.7
	c-0.5,0.9-1.7,1.1-2.6,0.6c-0.1-0.1-0.2-0.1-0.2-0.2c0.1,1.3-0.9,2.4-2.2,2.6c0.4,0.5-0.5,1.6-1.1,2.1c-0.5,0.3-1,0.4-1.5,0.3
	c0,0-0.9,1.1-1.5,1.1s-1.8-0.4-1.7-1.2C58.2,97.2,57.6,96.5,57.5,95.9z"/>
<path class="st9" d="M77,91.6c0,0.2,0,0.4-0.1,0.5c-0.1,0.1-0.2,0.3-0.4,0.3c-0.2,0-0.5-0.1-0.7-0.3l-0.1-0.2l-0.1,0.2
	c-0.3,0.4-0.8,0.6-1.2,0.3c-0.2-0.1-0.3-0.3-0.4-0.5v-0.2l-0.1,0.1c-0.2,0.2-0.4,0.3-0.7,0.2c-0.2,0-0.4-0.1-0.5-0.2
	c-0.3,0.1-0.3-0.1-0.3-0.1c0,0.2,0.1,0.4,0.2,0.6c0.2,0.1,0.4,0.2,0.7,0.2c0.3,0,0.6-0.1,0.8-0.3h-0.2c0.1,0.5,0.6,0.8,1.1,0.8
	c0.4,0,0.8-0.3,1-0.7h-0.2c0.2,0.3,0.5,0.4,0.9,0.3c0.3,0,0.4-0.2,0.5-0.4C77.1,91.9,77.1,91.7,77,91.6z"/>
<path class="st9" d="M78.7,94.4c-0.1,0.1-0.2,0.2-0.3,0.2c-0.3,0.2-0.6,0.2-0.9,0l-0.1-0.1v0.1c-0.1,0.2-0.3,0.5-0.7,0.5
	S76,95,75.9,94.7l-0.1-0.2l-0.2,0.2l-0.1,0.1c-0.2,0.2-0.5,0.2-0.7,0c0,0,0,0,0,0c-0.2-0.1-0.3-0.4-0.3-0.7v-0.2L74.1,94
	c-0.2,0.1-0.5,0.2-0.8,0.1c-0.2-0.1-0.4-0.2-0.5-0.3c-0.2-0.3-0.2-0.5-0.3-0.5c0,0.2,0.1,0.4,0.2,0.5c0.1,0.2,0.3,0.3,0.7,0.4
	c0.3,0.1,0.7,0.1,1-0.1L74.2,94c0,0.3,0.1,0.6,0.3,0.9c0.3,0.2,0.7,0.2,1-0.1c0,0,0,0,0-0.1c0.1,0,0.1-0.1,0.2-0.2h-0.2
	c0.2,0.4,0.6,0.6,1.1,0.7c0.4-0.1,0.7-0.4,0.9-0.8h-0.1c0.2,0.1,0.4,0.2,0.7,0.1c0.2,0,0.3-0.1,0.4-0.2
	C78.7,94.5,78.7,94.4,78.7,94.4z"/>
<path class="st9" d="M61.5,89.3c0-0.1,0.1-0.2,0.2-0.3c0.1-0.1,0.2-0.2,0.4-0.1c0.2,0,0.4,0.1,0.5,0.3l0.1,0.1v-0.2
	c0.1-0.4,0.4-0.8,0.8-1c0.5-0.2,1-0.1,1.3,0.3l0.1,0.2l0.1-0.2c0.1-0.4,0.4-0.8,0.9-1c0.4-0.2,0.9-0.1,1.3,0.1
	c0.2,0.1,0.3,0.2,0.4,0.4l0.1,0.1l0.1-0.1c0.5-0.4,1.3-0.4,1.7,0.1c0.4,0.4,0.5,1,0.3,1.5l-0.1,0.2H70c0.4-0.1,0.8,0,1.2,0.2
	c0.3,0.2,0.5,0.4,0.5,0.8c0.2,0.5,0.1,0.9,0.1,0.8v-0.2c0-0.2,0-0.4-0.1-0.7c-0.2-0.3-0.4-0.6-0.7-0.8c-0.4-0.2-0.9-0.3-1.3-0.2
	l0.1,0.1c0.2-0.6,0.1-1.3-0.4-1.7c-0.6-0.5-1.4-0.5-2-0.1h0.2c-0.1-0.2-0.3-0.3-0.4-0.5c-0.5-0.3-1.1-0.4-1.6-0.2
	c-0.5,0.2-0.9,0.6-1,1.1h0.2c-0.4-0.5-1.1-0.7-1.6-0.4c-0.5,0.2-0.8,0.6-0.7,1.1h0.1c-0.2-0.2-0.4-0.3-0.7-0.3
	c-0.2,0-0.4,0.1-0.5,0.2c-0.1,0.1-0.2,0.2-0.2,0.3L61.5,89.3z"/>
<path class="st6" d="M70.6,105.5c0,0.6,0,1.1-0.2,1.6c-0.4,0.8-1.3,1.1-1.2,1.2c0.2,0.1,0.4,0,0.5-0.1c0.4-0.2,0.8-0.5,1.1-0.9
	c0.2-0.4,0.2-0.9,0.1-1.3C70.9,105.8,70.8,105.7,70.6,105.5z"/>
<path class="st13" d="M65.9,119.2l-3.8,10.6l0.9,11.6l2.4,19.9c0,0,8.8-2.9,9.2-2.7s-3.9-20.2-3.9-20.2l3.1-16.7l-0.2-4.9
	L65.9,119.2z"/>
<linearGradient id="SVGID_1_" gradientUnits="userSpaceOnUse" x1="44.25" y1="131.1177" x2="66.75" y2="131.1177">
	<stop  offset="2.024560e-07" style="stop-color:#7C4DFF"/>
	<stop  offset="1" style="stop-color:#9B8DE2"/>
</linearGradient>
<path class="st14" d="M65.9,119.2l-4.1,9.5l-8.6,3.4l-9,2.7l1.3,6.4c0.3,1.3,1.5,2.1,2.8,1.9c0,0,0.1,0,0.1,0l7.6-2.1l7-0.3l3.7-8.4
	L65.9,119.2z"/>
<path class="st10" d="M47.3,132.1l0.7-0.8c0.6,0,1.2,0.1,1.7,0.4c0.8,0.7,1.4,1.6,1.7,2.6c0.1,0.7,0.1,1.4,0,2.2l-4.3-4.3"/>
<path class="st6" d="M39,127.5c0,0.1,8,8.7,8,8.7l1.5,1.5h4.9L44,127.3l-4-0.7L39,127.5z"/>
<path class="st6" d="M71.7,146.4c-0.1-0.1-0.2-0.2-0.2-0.3c-0.2-0.3-0.3-0.6-0.4-0.9c-0.4-0.8-1-1.8-1.6-3.2s-1.4-3.1-2.2-5.1
	c-0.2-0.5-0.3-1-0.4-1.5c-0.1-0.3-0.1-0.6-0.1-0.9v-0.9c0-1.1,0-2.3,0.1-3.5c0.1-1.5,0.1-2.9,0.2-4.3v-0.1h0.1
	c0.9-0.4,1.7-0.8,2.5-1.1v0.2c-0.6-0.1-1.3-0.2-1.9-0.2h-0.1l0.1-0.1c1.2-2.2,2.3-3.9,3-5.2c0.3-0.5,0.5-1,0.9-1.4
	c0.1-0.1,0.2-0.2,0.2-0.3c0-0.1,0-0.1,0.1-0.1l0,0l-0.1,0.1c-0.1,0.1-0.1,0.2-0.2,0.4s-0.4,0.9-0.8,1.4c-0.8,1.3-1.7,3.1-2.9,5.2
	l-0.1-0.1c0.7,0.1,1.3,0.1,1.9,0.2h0.4l-0.3,0.2c-0.8,0.3-1.6,0.8-2.5,1.1l0.1-0.1c-0.1,1.4-0.1,2.8-0.2,4.3c0,1.2-0.1,2.4-0.1,3.5
	v0.9c0,0.3,0,0.5,0.1,0.8c0.1,0.5,0.2,1,0.4,1.5c0.6,1.7,1.3,3.4,2.1,5.1c0.7,1.4,1.2,2.5,1.6,3.4c0.2,0.3,0.3,0.6,0.4,0.9
	C71.6,146.3,71.7,146.4,71.7,146.4z"/>
<path class="st10" d="M43.7,132.1c0,0-1.2,0.9-1.2,1.4s0.3,1.1,0.5,1.1c0.4,0.2,0.7,0.3,1.1,0.5c-0.4,0.4-0.6,0.9-0.5,1.5
	c0.1,0.4,0.4,0.8,0.8,1c0,0.5,0.1,1,0.3,1.5c0.3,0.4,0.7,0.6,1.2,0.8c0.3,0.5,0.6,1,1,1.5c0.3,0.4,0.8,0.6,1.3,0.6
	c0.6,0.1,1.2-0.1,1.7-0.3c0.8-0.4,1.3-1.3,1.3-2.2c0,0,2.7-1.3,2.7-2.1c0-0.3-0.1-0.6-0.3-0.9l-1.3,0.2c0,0-0.2-0.8-0.5-0.8
	c-1.8,0.3-3.6,0.6-5.3,1.1c0,0,3.4-0.5,3.5-1.2s0.1-1.2-0.3-1.3s-4.1,0.2-4.1,0.2l-0.2-0.6c0,0,1,0,1-0.9c0.1-0.4-0.2-0.9-0.5-1.1
	L43.7,132.1z"/>
<path class="st15" d="M71.7,117.4l0.4,3.2l-2.6,14.2l2.6,12.2l13.3,4l5.2-2.3l-1.8-34.4L84,111l-1.7-1.2l-6.9,10.4L71.7,117.4z"/>
<path class="st13" d="M83.7,110.8l3.3,1.5l11.8,1.7l6.4,33.3l0.8,3.8l12.1,18.2c0.5,0.8,0.3,1.9-0.5,2.5c0,0,0,0-0.1,0l-10,5.7
	c-0.8,0.4-1.7,0.2-2.2-0.5l-12.6-19.1l-6.3-8c0,0-3.8-11.4-4.2-16.2c-0.4-4.3-0.4-8.5,0-12.8C82.5,117.9,83.7,110.8,83.7,110.8z"/>
<linearGradient id="SVGID_2_" gradientUnits="userSpaceOnUse" x1="87.14" y1="135.343" x2="105.8307" y2="135.343">
	<stop  offset="2.024560e-07" style="stop-color:#7C4DFF"/>
	<stop  offset="1" style="stop-color:#9B8DE2"/>
</linearGradient>
<path class="st16" d="M98.7,113.9c1.5,0.8,2.6,2.3,2.9,4c0.8,4,3,10.8,3.9,18.2c1.2,10.3-1.6,13.5-2.9,15.3s-9.4,5.5-9.4,5.5
	l-6.1-8.1l6.7-5.5l-0.5-14.3c-1.5-2.4-1.9-5.4-1.2-8.1C93.3,116,96.8,113.6,98.7,113.9z"/>
<g class="st8">
	<g class="st8">
		<g class="st8">
			<path d="M105,147c-1,2.5-1.9,4.6-4.1,5.8s-5.5,3-7.7,4.2l1.6,2.5c2.5-0.4,7.1-3.2,8.6-5.3C104.9,152.1,105.4,149.5,105,147z"/>
		</g>
	</g>
</g>
<path class="st6" d="M93.1,129.8v0.2c0.1,0.2,0.1,0.4,0.1,0.6c0.1,0.5,0.2,1.4,0.3,2.4c0.3,2.2,0.8,5.2,1.3,9
	c-2.3,2-4.9,4.3-7.8,6.8v-0.1c1.8,2.5,3.9,5.2,6.1,8.1H93c2.1-1,4.1-2.2,6.2-3.4c0.5-0.3,1.2-0.8,1.7-1.1c0.6-0.4,1.1-0.8,1.6-1.2
	c0.9-1,1.5-2.1,1.9-3.4c0.9-2.3,1.3-4.9,1.1-7.4c0-2.3-0.3-4.5-0.7-6.7c-0.3-2.1-0.8-4-1.1-5.8c-0.8-3.6-1.5-6.4-2-8.3
	c-0.2-1-0.4-1.7-0.5-2.3c-0.1-0.2-0.1-0.4-0.1-0.5v-0.2c0,0.1,0,0.2,0.1,0.2c0,0.2,0.1,0.4,0.2,0.5c0.2,0.8,0.4,1.5,0.7,2.3
	c0.5,1.9,1.3,4.8,2.1,8.3c0.4,1.7,0.8,3.7,1.1,5.8c0.4,2.2,0.6,4.5,0.7,6.7c0.1,2.5-0.3,5-1.2,7.4c-0.5,1.3-1.2,2.4-2,3.5
	c-0.5,0.5-1.1,0.9-1.6,1.3c-0.6,0.4-1.1,0.8-1.7,1.1c-2.1,1.2-4.2,2.4-6.2,3.4h0l-0.1-0.1c-2.2-2.9-4.2-5.6-6.1-8.1l-0.1-0.1
	l0.1-0.1c2.9-2.5,5.5-4.9,7.8-6.8v0.1c-0.5-3.8-1-6.8-1.3-9c-0.1-1.1-0.2-1.8-0.3-2.5C93.2,130.2,93.1,130,93.1,129.8L93.1,129.8z"
	/>
<path class="st6" d="M84.5,142v-0.3c0-0.2,0.1-0.5,0.1-1c0.1-0.9,0.3-2.1,0.5-3.5c0.4-2.9,1.1-6.9,1.7-11.4c0.3-2.2,0.6-4.2,0.9-6.1
	l0.1,0.1c-0.7-0.2-1.4-0.5-2.1-0.8l-0.2-0.1l0.2-0.1c0.8-0.4,1.4-0.9,2.1-1.3v0.1c-0.2-1.6-0.4-3-0.5-4c-0.1-0.4-0.1-0.7-0.1-1.1
	v-0.4c0,0.1,0.1,0.2,0.1,0.3c0,0.4,0.1,0.7,0.2,1.1c0.1,1,0.4,2.4,0.7,4v0.1c-0.7,0.4-1.3,0.9-2,1.3v-0.2c0.7,0.2,1.3,0.5,2,0.8h0.1
	v0.1c-0.2,1.8-0.5,3.9-0.8,6.1c-0.7,4.4-1.3,8.4-1.7,11.4c-0.2,1.4-0.4,2.6-0.5,3.5c-0.1,0.4-0.1,0.6-0.2,1
	C84.5,141.9,84.5,142,84.5,142z"/>
<path class="st6" d="M97,114.3c-0.5,0.4-1,0.8-1.4,1.3c-0.5,0.5-0.9,1-1.3,1.6c-0.5,0.7-0.9,1.4-1.2,2.2c-0.3,0.8-0.5,1.6-0.6,2.4
	c-0.1,0.7-0.2,1.4-0.2,2.1c0,0.6,0,1.2,0.1,1.8c-0.1-0.2-0.1-0.4-0.1-0.5c-0.1-0.2-0.1-0.4-0.1-0.7c0-0.2-0.1-0.5,0-0.8
	c0-0.7,0-1.4,0.1-2.1c0.1-0.9,0.3-1.7,0.7-2.5c0.3-0.8,0.7-1.6,1.2-2.3c0.4-0.6,0.8-1.1,1.3-1.6l0.5-0.6c0.2-0.1,0.3-0.3,0.4-0.3
	C96.6,114.4,96.8,114.4,97,114.3z"/>
<path class="st6" d="M63,140.6c-0.3-1.7-0.4-3.4-0.4-5.1c-0.2-1.7-0.3-3.5-0.2-5.2c0.3,1.7,0.4,3.4,0.4,5.1
	C63,137.1,63.1,138.9,63,140.6z"/>
<polygon class="st17" points="103.1,161.5 104.9,165.2 113.3,159.8 110.4,156.5 "/>
<path class="st6" d="M103.1,161.5c0.2-0.1,0.4-0.3,0.5-0.4c0.3-0.2,0.9-0.6,1.5-1.1c1.3-0.9,3.1-2.2,5.3-3.7l0.1-0.1l0.1,0.1
	c0.9,1,2,2.2,2.9,3.4l0.1,0.1l-0.1,0.1c-0.1,0.1-0.2,0.1-0.3,0.2c-3.1,1.9-6,3.8-8.1,5.1H105v-0.1c-0.5-1.2-1-2.1-1.3-2.8
	c-0.1-0.3-0.2-0.5-0.3-0.8C103.1,161.6,103.1,161.5,103.1,161.5c0.1,0.1,0.1,0.1,0.1,0.2c0.1,0.3,0.3,0.5,0.4,0.8
	c0.3,0.6,0.8,1.6,1.4,2.7h-0.1c2-1.3,5-3.1,8-5.2c0.1-0.1,0.2-0.1,0.3-0.2v0.2c-1.1-1.2-2-2.3-2.9-3.4h0.1c-2.2,1.4-4,2.6-5.3,3.6
	c-0.7,0.4-1.2,0.8-1.5,1S103.3,161.4,103.1,161.5L103.1,161.5z"/>
<g class="st8">
	<g class="st8">
		<path d="M103.2,161.6c0,0.1,1.8,5.7,1.8,5.7l7.9-5.6l-0.7-1.3l-7.4,4.7L103.2,161.6z"/>
	</g>
</g>
<g class="st8">
	<g class="st8">
		<path d="M87.2,113.9l1.4,4.7l-1.4,0.7l1.8,0.9c0,0-2.9,16.1-3.4,17.5c-0.1,0.7-0.4,1.4-0.9,2l2.9-19.7l-2.1-0.8l2.1-1.3
			L87.2,113.9z"/>
	</g>
</g>
<path class="st6" d="M56.1,139c0-1.1-0.2-2.2-0.5-3.2c-0.4-1-0.9-2-1.5-2.9c0.3,0.2,0.5,0.5,0.7,0.8c0.5,0.7,0.8,1.4,1.1,2.2
	c0.3,0.8,0.4,1.6,0.4,2.4C56.2,138.4,56.2,138.7,56.1,139z"/>
<g class="st8">
	<g class="st8">
		<g class="st8">
			<path d="M62.2,129.9c-1.3,3.5-1,7.4,0.8,10.7C62.7,136.7,62.6,133.7,62.2,129.9z"/>
		</g>
	</g>
</g>
<path class="st6" d="M82.7,113.8l-0.2,0.4c-0.2,0.3-0.4,0.8-0.8,1.2c-0.7,1.1-1.4,2.5-2.3,4.1c-0.5,1.1-1,2.2-1.4,3l-0.1,0.1
	l-0.1-0.1c-0.6-0.5-1.2-1-1.7-1.6c-0.2-0.2-0.4-0.4-0.5-0.6l0.7,0.6c0.5,0.6,1.2,1.1,1.8,1.5h-0.2c0.3-0.9,0.9-2,1.4-3.1
	c0.9-1.6,1.6-3.1,2.3-4.1c0.3-0.4,0.5-0.8,0.8-1.2L82.7,113.8z"/>
<path class="st6" d="M74.9,120.2c-0.2,0.8-0.4,1.6-0.8,2.4l-0.1,0.2l-0.1-0.1h-0.1c-0.7-0.5-1.3-1.2-1.7-1.9c0.1,0,0.9,0.9,2,1.7H74
	C74.2,121.7,74.5,121,74.9,120.2z"/>
<path class="st6" d="M76.3,144.5v-0.2c0-0.2,0-0.4-0.1-0.6c0-0.6-0.1-1.4-0.2-2.5c-0.1-2.1-0.3-5-0.4-8.1s-0.2-6.1-0.2-8.1l0,0
	c0,2.1,0.1,5,0.2,8.1s0.2,6,0.3,8.1c0,1,0.1,1.8,0.1,2.5v0.6C76.3,144.4,76.3,144.5,76.3,144.5z"/>
<path class="st12" d="M48.6,208.5l1.2,11.6c0,0-11.4,5.1-11.4,7.3l22.5-1.6l-1.2-18.1L48.6,208.5z"/>
<path class="st3" d="M56.7,218.6c0.5,0.1,0.8,0.5,0.8,1c-0.1,0.5-0.5,0.8-1,0.8l0,0c-0.5-0.1-0.8-0.6-0.8-1.1
	C55.7,218.8,56.4,218.4,56.7,218.6z"/>
<path class="st3" d="M61,226.2l-0.1-1.7l-21.6,1.6c0,0-1,0.5-0.8,1.2L61,226.2z"/>
<path class="st6" d="M49.4,220c0,0.1,0.5,0.1,1.1,0.4s0.9,0.8,1,0.8s-0.1-0.6-0.8-1.1S49.4,219.9,49.4,220z"/>
<path class="st6" d="M47.1,221c0,0.1,0.4,0.2,0.9,0.6s0.5,1,0.7,0.9s0.1-0.6-0.4-1.2S47.1,220.9,47.1,221z"/>
<path class="st6" d="M46,224c0.1,0,0.2-0.5-0.1-1.1s-0.9-0.8-0.9-0.6s0.3,0.4,0.5,0.9S45.9,224,46,224z"/>
<path class="st6" d="M49.5,217.2c0,0.1,0.5-0.1,1.2-0.1c0.4,0,0.8,0,1.2,0.1c0.1-0.1-0.4-0.4-1.2-0.4S49.4,217.1,49.5,217.2z"/>
<path class="st3" d="M37.9,172.9c0.1,0.4-0.1,0.9-0.6,1s-0.9-0.1-1-0.6c0,0,0-0.1,0-0.1c-0.1-0.5,0.3-1,0.7-1.1
	C37.3,172.1,37.9,172.5,37.9,172.9z"/>
<path class="st3" d="M32.2,179.7l1.6-0.8l-9-19.7c0,0-0.8-0.8-1.4-0.3L32.2,179.7z"/>
<path class="st6" d="M34.1,166.6c-0.1,0,0.1,0.5,0,1.2s-0.4,1.1-0.3,1.2s0.5-0.3,0.7-1.1S34.2,166.5,34.1,166.6z"/>
<path class="st6" d="M32.2,164.9c-0.1,0-0.1,0.5-0.3,1.1s-0.6,0.9-0.6,1s0.6-0.1,1-0.8S32.4,164.7,32.2,164.9z"/>
<path class="st6" d="M29.1,164.7c0,0.1,0.5,0,1-0.5s0.4-1.1,0.3-1.1s-0.2,0.4-0.6,0.9S29,164.6,29.1,164.7z"/>
<path class="st6" d="M36.6,165.7c-0.1,0.1,0.3,0.4,0.5,1.1s0.2,1.1,0.3,1.1s0.3-0.5,0-1.3S36.7,165.6,36.6,165.7z"/>
<path class="st6" d="M49.7,168.3c-2.3,0.6-4,2.4-4.4,4.8c-0.8,4,2,44.4,2,44.4l14.2-1.1l-1-27.3l-0.3-5.5l1.2-1l24.9-4.3L82.4,168
	l-4.1-7.2l-19,4.8L49.7,168.3z"/>
<path class="st6" d="M96.4,161.6c0,0-10.3-14.8-13.3-17c-2.6-1.6-5.7-1.9-8.6-0.8c-2.3,1.1-38.3,18.9-38.3,18.9l5.3,13.2l34.3-11.9
	l5.1,8l4.8,6.3l13.3,0.1c0.7,0,3.5-5.6,3.5-5.6L96.4,161.6z"/>
<path class="st9" d="M45,176.2V175c0-0.2,0.1-0.5,0.1-0.9c0-0.4,0.1-0.7,0.2-1.1c0-0.2,0.1-0.5,0.2-0.6c0.1-0.2,0.1-0.4,0.2-0.6
	c0.5-1,1.2-1.9,2.1-2.6c0.5-0.4,1.1-0.6,1.7-0.9l2.1-0.3c1.4-0.2,2.9-0.5,4.5-0.8c3.1-0.5,6.7-1.1,10.4-1.7c3.4-0.5,6.5-1.1,9.4-1.5
	h0.1v0.1c2.7,4.3,5,8,6.8,10.5c0.9,1.2,1.6,2.2,2.2,2.9c0.2,0.2,0.4,0.5,0.5,0.8c0.1,0.1,0.1,0.1,0.1,0.2v0.1l-0.1-0.1
	c-0.1-0.1-0.1-0.1-0.1-0.2c-0.2-0.3-0.4-0.5-0.7-0.8c-0.6-0.6-1.3-1.6-2.2-2.8c-2-2.4-4.2-6.2-6.9-10.4h0.1c-2.9,0.4-6.1,1-9.4,1.5
	c-3.7,0.6-7.1,1.2-10.4,1.7c-1.6,0.2-3.1,0.5-4.5,0.8c-0.8,0.1-1.4,0.2-2.1,0.3c-0.6,0.1-1.2,0.4-1.7,0.8c-0.9,0.6-1.5,1.5-2,2.5
	c-0.1,0.2-0.2,0.4-0.2,0.6c-0.1,0.2-0.1,0.4-0.2,0.6c-0.1,0.3-0.2,0.7-0.2,1.1c0,0.3-0.1,0.6-0.1,0.9L45,176.2L45,176.2z"/>
<path class="st9" d="M80.8,154.9v1.6c0,0.6-0.1,1.2-0.3,1.7c-0.2,0.7-0.5,1.3-0.8,1.9c-0.3,0.6-0.7,1.2-1.2,1.7
	c-0.3,0.4-0.7,0.8-1.2,1.2c-0.3,0.2-0.7,0.5-1,0.6c-0.2,0.1-0.3,0.2-0.4,0.2c0.4-0.3,0.8-0.6,1.2-1c0.4-0.4,0.8-0.8,1.2-1.3
	c0.4-0.5,0.8-1.1,1.2-1.7c0.3-0.6,0.6-1.3,0.8-1.9c0.2-0.5,0.3-1.1,0.3-1.6C80.6,155.9,80.7,155.4,80.8,154.9z"/>
<path class="st7" d="M200.2,202.1h-61.9c-7.5,0-13.5-6.1-13.5-13.5V33.2c0-7.5,6.1-13.5,13.5-13.5h61.9c7.5,0,13.5,6.1,13.5,13.5
	v155.4C213.6,196,207.6,202,200.2,202.1z"/>
<path class="st18" d="M200.1,25.2H188c-1.6,0-2.9,1.4-2.9,3v2.2c0,1.6-1.3,3-2.9,3c0,0,0,0-0.1,0h-23.3c-1.6,0-2.9-1.4-2.9-3v-2.1
	c0-1.6-1.3-3-2.9-3c0,0,0,0-0.1,0h-14.7c-5.2,0-9.4,4.2-9.4,9.4v151.5c0,5.2,4.2,9.4,9.4,9.4h61.8c5.2,0,9.4-4.2,9.4-9.4V34.6
	c0.1-5.1-4-9.4-9.2-9.4C200.2,25.2,200.1,25.2,200.1,25.2z"/>
<path class="st13" d="M209.6,34.7c0-5.2-4.2-9.4-9.4-9.4h-12c-1.6,0-2.9,1.4-2.9,3v2.2c0,1.6-1.3,3-2.9,3c0,0,0,0-0.1,0h-23.4
	c-1.6,0-2.9-1.4-2.9-3v-2.2c0-1.6-1.3-3-2.9-3c0,0,0,0-0.1,0h-14.7c-5.2,0-9.4,4.2-9.4,9.4v14.5h80.8L209.6,34.7z"/>
<g>
	<defs>
		<rect id="SVGID_3_" x="129" y="49.1" width="80.2" height="125.4"/>
	</defs>
	<clipPath id="SVGID_4_">
		<use xlink:href="#SVGID_3_"  style="overflow:visible;"/>
	</clipPath>
	<g class="st19">
		<path class="st18" d="M209.2,60H129v114.5h80.2L209.2,60z"/>
		<path class="st18" d="M209.2,49.1H129v10.7h80.2L209.2,49.1z"/>
		<path class="st20" d="M209.2,59.8H129V60h80.2L209.2,59.8z"/>
		<path class="st21" d="M145.7,70c0,3.9-3.2,7.1-7.1,7.1s-7.1-3.2-7.1-7.1c0-3.9,3.2-7.1,7.1-7.1C142.5,62.9,145.7,66.1,145.7,70z"
			/>
		<path class="st22" d="M204,70c0,0.2-0.2,0.4-0.4,0.4c-0.2,0-0.4-0.2-0.4-0.4c0-0.2,0.2-0.4,0.4-0.4C203.8,69.6,204,69.7,204,70
			C204,70,204,70,204,70z"/>
		<path class="st22" d="M205.4,70c0,0.2-0.1,0.5-0.4,0.5c-0.2,0-0.5-0.1-0.5-0.4c0,0,0-0.1,0-0.1c0-0.2,0.2-0.4,0.4-0.4
			C205.2,69.6,205.4,69.7,205.4,70C205.4,70,205.4,70,205.4,70z"/>
		<path class="st22" d="M206.7,70c0,0.2-0.2,0.4-0.4,0.4c-0.2,0-0.4-0.2-0.4-0.4c0-0.2,0.2-0.4,0.4-0.4
			C206.5,69.6,206.7,69.7,206.7,70C206.7,70,206.7,70,206.7,70z"/>
		<path class="st23" d="M195.2,66H151v0.9h44.3L195.2,66z"/>
		<path class="st23" d="M195.2,69.5H151v0.9h44.3L195.2,69.5z"/>
		<path class="st24" d="M169.4,72.9H151v0.9h18.4L169.4,72.9z"/>
		<path class="st21" d="M145.7,88.7c0,3.9-3.2,7.1-7.2,7.1c-3.9,0-7.1-3.2-7.1-7.2c0-3.9,3.2-7.1,7.1-7.1
			C142.5,81.6,145.7,84.8,145.7,88.7z"/>
		<path class="st22" d="M204,88.7c0,0.2-0.2,0.4-0.4,0.4c-0.2,0-0.4-0.2-0.4-0.4c0-0.2,0.2-0.4,0.4-0.4
			C203.8,88.3,204,88.5,204,88.7z"/>
		<path class="st22" d="M205.4,88.7c0,0.2-0.1,0.5-0.4,0.5c-0.2,0-0.5-0.1-0.5-0.4c0,0,0-0.1,0-0.1c0-0.2,0.1-0.5,0.4-0.5
			c0.2,0,0.5,0.1,0.5,0.4C205.4,88.6,205.4,88.7,205.4,88.7z"/>
		<path class="st22" d="M206.7,88.7c0,0.2-0.2,0.4-0.4,0.4c-0.2,0-0.4-0.2-0.4-0.4c0-0.2,0.2-0.4,0.4-0.4
			C206.5,88.3,206.7,88.5,206.7,88.7z"/>
		<path class="st23" d="M195.2,85.2H151v0.9h44.3L195.2,85.2z"/>
		<path class="st23" d="M195.2,88.7H151v0.9h44.3L195.2,88.7z"/>
		<path class="st24" d="M169.4,92.2H151v0.9h18.4L169.4,92.2z"/>
		<path class="st21" d="M145.7,145.1c0,3.9-3.2,7.1-7.2,7.1s-7.1-3.2-7.1-7.2c0-3.9,3.2-7.1,7.1-7.1
			C142.5,138,145.7,141.2,145.7,145.1z"/>
		<path class="st22" d="M203.6,145.5c0.2,0,0.4-0.2,0.4-0.4s-0.2-0.4-0.4-0.4s-0.4,0.2-0.4,0.4v0
			C203.2,145.3,203.4,145.5,203.6,145.5z"/>
		<path class="st22" d="M205,145.5c0.2,0,0.4-0.2,0.4-0.4s-0.2-0.4-0.4-0.4s-0.4,0.2-0.4,0.4v0C204.6,145.3,204.7,145.5,205,145.5
			C205,145.5,205,145.5,205,145.5z"/>
		<path class="st22" d="M206.7,145.1c0,0.2-0.2,0.4-0.4,0.4c-0.2,0-0.4-0.2-0.4-0.4c0-0.2,0.2-0.4,0.4-0.4
			C206.5,144.7,206.7,144.9,206.7,145.1z"/>
		<path class="st23" d="M195.2,141.5H151v0.9h44.3L195.2,141.5z"/>
		<path class="st23" d="M195.2,145H151v1h44.3L195.2,145z"/>
		<path class="st24" d="M169.4,148.5H151v0.9h18.4L169.4,148.5z"/>
		<path class="st21" d="M145.7,163.9c0,3.9-3.2,7.1-7.2,7.1s-7.1-3.2-7.1-7.2c0-3.9,3.2-7.1,7.1-7.1
			C142.5,156.8,145.7,160,145.7,163.9z"/>
		<path class="st22" d="M204,163.9c0,0.2-0.2,0.4-0.4,0.4c-0.2,0-0.4-0.2-0.4-0.4c0-0.2,0.2-0.4,0.4-0.4
			C203.8,163.5,204,163.7,204,163.9C204,163.9,204,163.9,204,163.9z"/>
		<path class="st22" d="M205.4,163.9c0,0.2-0.1,0.5-0.4,0.5c-0.2,0-0.5-0.1-0.5-0.4c0,0,0-0.1,0-0.1c0-0.2,0.2-0.4,0.4-0.4
			C205.2,163.5,205.4,163.7,205.4,163.9C205.4,163.9,205.4,163.9,205.4,163.9z"/>
		<path class="st22" d="M206.7,163.9c0,0.2-0.2,0.4-0.4,0.4c-0.2,0-0.4-0.2-0.4-0.4c0-0.2,0.2-0.4,0.4-0.4
			C206.5,163.5,206.7,163.7,206.7,163.9C206.7,163.9,206.7,163.9,206.7,163.9z"/>
		<path class="st23" d="M195.2,160.4H151v0.9h44.3L195.2,160.4z"/>
		<path class="st23" d="M195.2,163.9H151v0.9h44.3L195.2,163.9z"/>
		<path class="st24" d="M169.4,167.3H151v0.9h18.4L169.4,167.3z"/>
		<path class="st21" d="M145.7,107.6c0,3.9-3.2,7.1-7.2,7.1c-3.9,0-7.1-3.2-7.1-7.2c0-3.9,3.2-7.1,7.1-7.1
			C142.5,100.5,145.7,103.7,145.7,107.6z"/>
		<path class="st22" d="M204,107.6c0,0.2-0.2,0.4-0.4,0.4c-0.2,0-0.4-0.2-0.4-0.4c0-0.2,0.2-0.4,0.4-0.4
			C203.8,107.2,204,107.4,204,107.6C204,107.6,204,107.6,204,107.6z"/>
		<path class="st22" d="M205.4,107.6c0,0.2-0.1,0.5-0.4,0.5c-0.2,0-0.5-0.1-0.5-0.4c0,0,0-0.1,0-0.1c0-0.2,0.2-0.4,0.4-0.4
			C205.2,107.2,205.4,107.4,205.4,107.6C205.4,107.6,205.4,107.6,205.4,107.6z"/>
		<path class="st22" d="M206.7,107.6c0,0.2-0.2,0.4-0.4,0.4c-0.2,0-0.4-0.2-0.4-0.4c0-0.2,0.2-0.4,0.4-0.4
			C206.5,107.2,206.7,107.4,206.7,107.6C206.7,107.6,206.7,107.6,206.7,107.6z"/>
		<path class="st23" d="M195.2,102.9H151v0.9h44.3L195.2,102.9z"/>
		<path class="st23" d="M195.2,106.4H151v0.9h44.3L195.2,106.4z"/>
		<path class="st24" d="M169.4,109.9H151v0.9h18.4L169.4,109.9z"/>
		<path class="st21" d="M145.7,126.4c0,3.9-3.2,7.1-7.1,7.1s-7.1-3.2-7.1-7.1c0-3.9,3.2-7.1,7.1-7.1
			C142.5,119.2,145.7,122.4,145.7,126.4z"/>
		<path class="st22" d="M204,126.4c0,0.2-0.2,0.4-0.4,0.4c-0.2,0-0.4-0.2-0.4-0.4c0-0.2,0.2-0.4,0.4-0.4
			C203.8,125.9,204,126.1,204,126.4z"/>
		<path class="st22" d="M205.4,126.4c0,0.2-0.1,0.5-0.4,0.5c-0.2,0-0.5-0.1-0.5-0.4c0,0,0-0.1,0-0.1c0-0.2,0.1-0.5,0.4-0.5
			c0.2,0,0.5,0.1,0.5,0.4C205.4,126.3,205.4,126.3,205.4,126.4z"/>
		<path class="st22" d="M206.7,126.4c0,0.2-0.2,0.4-0.4,0.4c-0.2,0-0.4-0.2-0.4-0.4c0-0.2,0.2-0.4,0.4-0.4
			C206.5,125.9,206.7,126.1,206.7,126.4z"/>
		<path class="st23" d="M195.2,121.7H151v0.9h44.3L195.2,121.7z"/>
		<path class="st23" d="M195.2,125.2H151v0.9h44.3L195.2,125.2z"/>
		<path class="st24" d="M169.4,128.6H151v0.9h18.4L169.4,128.6z"/>
		<path class="st25" d="M209.2,79.8H129v-0.4h80.2L209.2,79.8z"/>
		<path class="st25" d="M209.2,98.5H129v-0.4h80.2L209.2,98.5z"/>
		<path class="st25" d="M209.2,117.2H129v-0.4h80.2L209.2,117.2z"/>
		<path class="st25" d="M209.2,135.8H129v-0.4h80.2L209.2,135.8z"/>
		<path class="st25" d="M209.2,154.6H129v-0.4h80.2L209.2,154.6z"/>
	</g>
</g>
<path class="st21" d="M172.3,39h-29.5v0.9h29.5L172.3,39z"/>
<path class="st24" d="M161.2,41.7h-18.4v0.9h18.4V41.7z"/>
<path class="st26" d="M140,41.3c0,2.3-1.9,4.1-4.2,4.1c-2.3,0-4.1-1.9-4.1-4.2s1.9-4.1,4.2-4.1l0,0C138.1,37.1,140,39,140,41.3z"/>
<path class="st18" d="M202.7,41.3h-5.5c-0.3,0-0.4-0.3-0.4-0.5c0-0.2,0.2-0.4,0.4-0.4h5.5c0.3,0,0.4,0.3,0.4,0.5
	C203.1,41.1,202.9,41.2,202.7,41.3z"/>
<path class="st18" d="M202.7,43.1h-5.5c-0.3,0-0.5-0.2-0.5-0.5c0,0,0,0,0,0c0-0.2,0.2-0.5,0.4-0.5c0,0,0,0,0,0h5.5
	c0.3,0,0.5,0.2,0.5,0.5c0,0,0,0,0,0C203.2,42.9,203,43.1,202.7,43.1z"/>
<path class="st18" d="M202.7,44.9h-5.5c-0.2,0-0.5-0.2-0.5-0.4c0,0,0,0,0,0c0-0.3,0.2-0.5,0.5-0.5l0,0h5.5c0.3,0,0.5,0.2,0.5,0.5
	C203.2,44.7,203,44.9,202.7,44.9L202.7,44.9z"/>
<path class="st13" d="M135.8,191.6h-0.2v-0.7h-0.9v0.7h-0.2V190h0.2v0.7h0.9V190h0.2V191.6z"/>
<path class="st13" d="M136.5,191.6c-0.1,0-0.3-0.1-0.4-0.2c-0.1-0.1-0.1-0.3-0.1-0.5c0-0.2,0-0.3,0.1-0.4c0.1-0.1,0.2-0.2,0.4-0.2
	c0.1,0,0.3,0,0.4,0.2c0.1,0.1,0.2,0.3,0.1,0.4c0,0.2,0,0.3-0.1,0.4C136.8,191.6,136.6,191.6,136.5,191.6z M136.2,191.3
	c0.1,0.1,0.1,0.1,0.2,0.1c0.1,0,0.2,0,0.2-0.1c0.1-0.1,0.1-0.2,0.1-0.3c0-0.1,0-0.2-0.1-0.3c-0.1-0.1-0.1-0.1-0.2-0.1
	c-0.1,0-0.2,0-0.2,0.1c-0.1,0.1-0.1,0.2-0.1,0.3C136.2,191.1,136.2,191.3,136.2,191.3z"/>
<path class="st13" d="M137.2,191.6v-1.1h0.2v0.2l0,0c0-0.1,0.1-0.1,0.1-0.1c0.1-0.1,0.3-0.1,0.4,0c0.1,0,0.1,0.1,0.1,0.2l0,0
	c0-0.1,0.1-0.1,0.1-0.2c0.1,0,0.1,0,0.2-0.1c0.1,0,0.2,0,0.3,0.1c0.1,0.1,0.1,0.2,0.1,0.3v0.8h-0.2v-0.7c0-0.1,0-0.1-0.1-0.2
	c0,0-0.1-0.1-0.2-0.1c-0.1,0-0.1,0-0.2,0.1c-0.1,0-0.1,0.1-0.1,0.2v0.7h-0.2v-0.8c0-0.1,0-0.1-0.1-0.2c0,0-0.1-0.1-0.2-0.1
	c-0.1,0-0.1,0-0.2,0.1c0,0.1-0.1,0.1-0.1,0.2v0.7H137.2z"/>
<path class="st13" d="M139.4,190.6c-0.1,0-0.2,0-0.2,0.1c-0.1,0.1-0.1,0.2-0.1,0.2h0.6c0-0.1,0-0.2-0.1-0.2
	C139.6,190.6,139.5,190.6,139.4,190.6z M139.7,191.3h0.2c0,0.1-0.1,0.2-0.2,0.2c-0.1,0.1-0.2,0.1-0.3,0.1c-0.1,0-0.3-0.1-0.4-0.2
	c-0.1-0.1-0.1-0.3-0.1-0.4c0-0.2,0-0.3,0.1-0.4c0.1-0.1,0.2-0.2,0.4-0.2c0.1,0,0.3,0,0.4,0.1c0.1,0.1,0.1,0.3,0.1,0.4v0.1h-0.8
	c0,0.1,0,0.2,0.1,0.3c0.1,0.1,0.1,0.1,0.2,0.1c0.1,0,0.1,0,0.2,0C139.7,191.4,139.7,191.3,139.7,191.3L139.7,191.3z"/>
<path class="st7" d="M198.6,190.1h0.6c0.1,0,0.3,0,0.4,0.1c0.1,0.1,0.1,0.2,0.1,0.4c0,0.3-0.2,0.5-0.4,0.5c0,0,0,0-0.1,0h-0.4v0.6
	h-0.2V190.1z M198.8,190.3v0.7h0.3c0.1,0,0.2,0,0.3-0.1c0.1-0.1,0.1-0.2,0.1-0.2c0-0.1,0-0.2-0.1-0.2c-0.1-0.1-0.2-0.1-0.3-0.1
	L198.8,190.3z"/>
<path class="st7" d="M199.9,191.7v-1.1h0.2v0.2l0,0c0-0.1,0.1-0.1,0.1-0.1c0.1,0,0.1,0,0.2-0.1h0.1v0.2h-0.1c-0.1,0-0.1,0-0.2,0.1
	c0,0.1-0.1,0.1-0.1,0.2v0.7H199.9z"/>
<path class="st7" d="M201,191.7c-0.1,0-0.3-0.1-0.4-0.2c-0.1-0.1-0.2-0.3-0.1-0.4c0-0.2,0-0.3,0.1-0.4c0.1-0.1,0.2-0.2,0.4-0.2
	c0.1,0,0.3,0.1,0.4,0.2c0.1,0.1,0.1,0.3,0.1,0.4c0,0.2,0,0.3-0.1,0.4C201.3,191.7,201.1,191.7,201,191.7z M200.8,191.4
	c0.1,0.1,0.3,0.1,0.5,0c0,0,0,0,0,0c0.1-0.1,0.1-0.2,0.1-0.3c0-0.1,0-0.2-0.1-0.3c-0.1-0.1-0.3-0.1-0.5,0c0,0,0,0,0,0
	c-0.1,0.1-0.1,0.2-0.1,0.3C200.7,191.3,200.7,191.4,200.8,191.4z"/>
<path class="st7" d="M201.8,191.7v-1h-0.1v-0.1h0.1v-0.1c0-0.1,0-0.2,0.1-0.2c0.1-0.1,0.1-0.1,0.2-0.1h0.1v0.1h-0.1
	c-0.1,0-0.1,0.1-0.1,0.2v0.1h0.2v0.1H202v1L201.8,191.7z"/>
<path class="st7" d="M202.4,191.7v-1.1h0.2v1.1H202.4z M202.5,190.4C202.5,190.4,202.4,190.4,202.5,190.4c-0.1,0-0.1-0.1-0.1-0.2
	c0,0,0,0,0.1,0c0,0,0.1,0,0.1,0C202.6,190.2,202.6,190.3,202.5,190.4C202.6,190.4,202.5,190.4,202.5,190.4L202.5,190.4z"/>
<path class="st7" d="M202.9,191.7v-1.6h0.1v1.6H202.9z"/>
<path class="st7" d="M203.8,190.7c-0.1,0-0.2,0-0.2,0.1c-0.1,0.1-0.1,0.2-0.1,0.2h0.6c0-0.1,0-0.2-0.1-0.2
	C203.9,190.7,203.8,190.7,203.8,190.7z M204,191.4h0.2c0,0.1-0.1,0.2-0.2,0.2c-0.1,0.1-0.2,0.1-0.3,0.1c-0.1,0-0.3,0-0.4-0.2
	c-0.1-0.1-0.1-0.3-0.1-0.4c0-0.2,0-0.3,0.1-0.4c0.2-0.2,0.5-0.2,0.7,0c0,0,0,0,0,0c0.1,0.1,0.1,0.3,0.1,0.4v0.1h-0.8l0,0
	c0,0.1,0,0.2,0.1,0.3c0.1,0.1,0.2,0.1,0.2,0.1c0.1,0,0.1,0,0.2-0.1C204,191.5,204,191.4,204,191.4L204,191.4z"/>
<path class="st7" d="M185.3,191.7h-0.2v-1.2l0,0l-0.5,1.2h-0.2l-0.5-1.2l0,0v1.2h-0.2v-1.6h0.2l0.5,1.3l0,0l0.5-1.3h0.2L185.3,191.7
	z"/>
<path class="st7" d="M186,191.7c-0.1,0-0.3-0.1-0.4-0.2c-0.1-0.1-0.1-0.3-0.1-0.4c0-0.2,0-0.3,0.1-0.4c0.1-0.1,0.2-0.2,0.4-0.2
	c0.1,0,0.3,0,0.4,0.2c0.1,0.1,0.2,0.3,0.1,0.4c0,0.2,0,0.3-0.1,0.4C186.3,191.7,186.1,191.7,186,191.7z M185.8,191.4
	c0.1,0.1,0.3,0.1,0.5,0c0,0,0,0,0,0c0.1-0.1,0.1-0.2,0.1-0.3c0-0.1,0-0.2-0.1-0.3c-0.1-0.1-0.3-0.1-0.5,0c0,0,0,0,0,0
	c-0.1,0.1-0.1,0.2-0.1,0.3C185.7,191.3,185.7,191.4,185.8,191.4L185.8,191.4z"/>
<path class="st7" d="M186.8,191.7v-1.1h0.2v0.2l0,0c0-0.1,0.1-0.1,0.1-0.1c0.1,0,0.1,0,0.2-0.1h0.1v0.2h-0.1c-0.1,0-0.1,0-0.2,0.1
	c0,0.1-0.1,0.1-0.1,0.2v0.7H186.8z"/>
<path class="st7" d="M187.8,190.7c-0.1,0-0.2,0-0.2,0.1c-0.1,0.1-0.1,0.2-0.1,0.2h0.6c0-0.1,0-0.2-0.1-0.2
	C188,190.7,187.9,190.7,187.8,190.7z M188.1,191.4h0.2c0,0.1-0.1,0.2-0.1,0.2c-0.1,0.1-0.2,0.1-0.3,0.1c-0.1,0-0.3,0-0.4-0.2
	c-0.1-0.1-0.1-0.3-0.1-0.4c0-0.2,0-0.3,0.1-0.4c0.1-0.1,0.2-0.2,0.4-0.2c0.1,0,0.3,0,0.4,0.1c0.1,0.1,0.1,0.3,0.1,0.4v0.1h-0.8
	c0,0.1,0,0.2,0.1,0.3c0.1,0.1,0.2,0.1,0.2,0.1c0.1,0,0.1,0,0.2-0.1C188.1,191.5,188.1,191.4,188.1,191.4z"/>
<path class="st13" d="M139.3,185.7l-1.7-1.1c-0.1,0-0.2-0.1-0.2-0.1c-0.1,0-0.2,0-0.2,0.1l-1.7,1.1c-0.1,0-0.1,0.1-0.1,0.1
	c0,0.1,0,0.1-0.1,0.2v2.2c0,0.1,0,0.2,0.1,0.3c0.1,0.1,0.2,0.1,0.3,0.1h3.3c0.1,0,0.2-0.1,0.3-0.1c0.1-0.1,0.1-0.2,0.1-0.3V186
	c0-0.1,0-0.1-0.1-0.2C139.3,185.8,139.3,185.7,139.3,185.7z M139.2,186.9v1.4c0,0,0,0,0,0.1l0,0l0,0h-3.6l0,0l0,0c0,0,0,0,0-0.1V186
	c0,0,0,0,0-0.1c0,0,0,0,0.1-0.1l1.7-1.1c0,0,0,0,0.1,0c0,0,0.1,0,0.1,0l1.7,1.1c0,0,0,0,0,0.1c0,0,0,0,0,0.1L139.2,186.9z"/>
<path class="st7" d="M148.6,191.6c-0.2,0-0.4-0.1-0.5-0.2c-0.1-0.2-0.2-0.4-0.2-0.6c0-0.2,0.1-0.4,0.2-0.6c0.3-0.3,0.7-0.3,0.9-0.1
	c0.1,0.1,0.2,0.2,0.2,0.4H149c0-0.1-0.1-0.2-0.2-0.2c-0.1-0.1-0.2-0.1-0.3-0.1c-0.1,0-0.3,0.1-0.4,0.2c-0.1,0.1-0.2,0.3-0.1,0.4
	c0,0.2,0,0.3,0.1,0.5c0.1,0.1,0.2,0.2,0.4,0.2c0.1,0,0.2,0,0.3-0.1c0.1,0,0.1-0.1,0.2-0.2h0.2c0,0.1-0.1,0.3-0.2,0.4
	C148.9,191.6,148.7,191.6,148.6,191.6z"/>
<path class="st7" d="M149.8,191.5c0.1,0,0.2,0,0.2-0.1c0.1,0,0.1-0.1,0.1-0.2v-0.1h-0.3c-0.1,0-0.1,0-0.2,0.1c0,0-0.1,0.1-0.1,0.1
	c0,0,0,0.1,0.1,0.1C149.7,191.4,149.8,191.5,149.8,191.5z M149.8,191.6c-0.1,0-0.2,0-0.3-0.1c-0.1-0.1-0.1-0.1-0.1-0.2
	c0-0.1,0-0.2,0.1-0.2c0.1-0.1,0.2-0.1,0.3-0.1h0.3v-0.1c0-0.1,0-0.1-0.1-0.2c-0.1-0.1-0.3-0.1-0.4,0c0,0-0.1,0.1-0.1,0.1h-0.2
	c0-0.1,0.1-0.2,0.1-0.2c0.1-0.1,0.2-0.1,0.3-0.1c0.1,0,0.2,0,0.3,0.1c0.1,0.1,0.1,0.2,0.1,0.3v0.8h-0.2v-0.2l0,0
	c0,0.1-0.1,0.1-0.1,0.2C150,191.6,149.9,191.6,149.8,191.6L149.8,191.6z"/>
<path class="st7" d="M150.5,190.8c0-0.1,0-0.2,0.1-0.2c0.1-0.1,0.2-0.1,0.3-0.1c0.1,0,0.2,0,0.3,0.1c0.1,0.1,0.1,0.1,0.1,0.2h-0.2
	c0-0.1,0-0.1-0.1-0.1c0,0-0.1-0.1-0.2-0.1c-0.1,0-0.1,0-0.2,0.1c0,0-0.1,0.1-0.1,0.1c0,0.1,0.1,0.1,0.2,0.2h0.2
	c0.1,0,0.2,0.1,0.2,0.1c0.1,0,0.1,0.1,0.1,0.2c0,0.1,0,0.2-0.1,0.2c-0.1,0.1-0.2,0.1-0.3,0.1c-0.1,0-0.2,0-0.3-0.1
	c-0.1-0.1-0.1-0.1-0.1-0.2h0.2c0,0.1,0.1,0.2,0.3,0.2c0.1,0,0.1,0,0.2,0c0,0,0.1-0.1,0.1-0.1c0,0,0-0.1,0-0.1c0,0-0.1-0.1-0.1-0.1
	h-0.2C150.6,191,150.5,190.9,150.5,190.8z"/>
<path class="st7" d="M151.6,191.6V190h0.2v0.6l0,0c0-0.1,0.1-0.1,0.1-0.1c0.1,0,0.1-0.1,0.2-0.1c0.1,0,0.2,0,0.3,0.1
	c0.1,0.1,0.1,0.2,0.1,0.3v0.7h-0.2v-0.7c0-0.1,0-0.2-0.1-0.2c-0.1-0.1-0.1-0.1-0.2-0.1c-0.1,0-0.2,0-0.2,0.1
	c-0.1,0.1-0.1,0.2-0.1,0.2v0.7L151.6,191.6z"/>
<path class="st7" d="M153.4,191.6c-0.1,0-0.2,0-0.2-0.1c-0.1,0-0.1-0.1-0.1-0.1l0,0v0.2h-0.2V190h0.2v0.6l0,0c0-0.1,0.1-0.1,0.1-0.2
	c0.1,0,0.1-0.1,0.2-0.1c0.1,0,0.3,0.1,0.3,0.2c0.1,0.1,0.1,0.3,0.1,0.4c0,0.2,0,0.3-0.1,0.4C153.6,191.5,153.5,191.6,153.4,191.6z
	 M153.4,190.6c-0.1,0-0.2,0-0.2,0.1c-0.1,0.1-0.1,0.2-0.1,0.3c0,0.1,0,0.2,0.1,0.3c0.1,0.1,0.1,0.1,0.2,0.1c0.1,0,0.2,0,0.2-0.1
	c0.1-0.1,0.1-0.2,0.1-0.3c0-0.1,0-0.2-0.1-0.3C153.5,190.6,153.4,190.6,153.4,190.6L153.4,190.6z"/>
<path class="st7" d="M154.5,191.6c-0.1,0-0.3-0.1-0.4-0.2c-0.1-0.1-0.1-0.3-0.1-0.5c0-0.2,0-0.3,0.1-0.4c0.1-0.1,0.2-0.2,0.4-0.2
	c0.1,0,0.3,0.1,0.4,0.2c0.1,0.1,0.1,0.3,0.1,0.4c0,0.2,0,0.3-0.1,0.4C154.8,191.6,154.7,191.6,154.5,191.6z M154.2,191.3
	c0.1,0.1,0.2,0.1,0.2,0.1c0.1,0,0.2,0,0.2-0.1c0.1-0.1,0.1-0.2,0.1-0.3c0-0.1,0-0.2-0.1-0.3c-0.1-0.1-0.1-0.1-0.2-0.1
	c-0.1,0-0.2,0-0.2,0.1c-0.1,0.1-0.1,0.2-0.1,0.3C154.2,191.1,154.2,191.3,154.2,191.3z"/>
<path class="st7" d="M155.7,191.6c-0.1,0-0.3-0.1-0.4-0.2c-0.1-0.1-0.2-0.3-0.1-0.4c0-0.2,0-0.3,0.1-0.4c0.1-0.1,0.2-0.2,0.4-0.2
	c0.1,0,0.3,0.1,0.4,0.2c0.1,0.1,0.1,0.3,0.1,0.4c0,0.2,0,0.3-0.1,0.4C156,191.6,155.8,191.6,155.7,191.6z M155.4,191.3
	c0.1,0.1,0.2,0.1,0.2,0.1c0.1,0,0.2,0,0.2-0.1c0.1-0.1,0.1-0.2,0.1-0.3c0-0.1,0-0.2-0.1-0.3c-0.1-0.1-0.1-0.1-0.2-0.1
	c-0.1,0-0.2,0-0.2,0.1c-0.1,0.1-0.1,0.2-0.1,0.3C155.3,191.1,155.4,191.2,155.4,191.3z"/>
<path class="st7" d="M156.6,191l0.5-0.5h0.2l-0.5,0.5l0.5,0.6h-0.2L156.6,191l0,0.2v0.4h-0.2V190h0.2L156.6,191z"/>
<path class="st7" d="M188.4,186.3c0-1-0.8-1.8-1.8-1.8c0,0,0,0,0,0h-0.9c-0.5,0-0.9,0.2-1.3,0.5c-0.3,0.3-0.5,0.8-0.5,1.3v0.6
	c0,1,0.8,1.8,1.8,1.8h0.9c1,0,1.8-0.8,1.8-1.8c0,0,0,0,0,0V186.3z M188.1,186.9c0,0.4-0.2,0.8-0.4,1.1c-0.3,0.3-0.7,0.5-1.1,0.4
	h-0.9c-0.4,0-0.8-0.2-1.1-0.4c-0.3-0.3-0.5-0.7-0.4-1.1v-0.6c0-0.8,0.7-1.5,1.5-1.5h0.9c0.9,0,1.5,0.7,1.5,1.5V186.9z"/>
<path class="st7" d="M186,186.4c0-0.3-0.1-0.6-0.3-0.9c-0.1,0-0.1-0.1-0.2-0.1c-0.1,0-0.1,0-0.2,0c-0.1,0-0.3,0.1-0.4,0.2
	c-0.1,0.1-0.1,0.3-0.1,0.4c0,0.1,0,0.1,0.1,0.2c0,0.1,0.1,0.1,0.1,0.2c0.2,0.1,0.4,0.2,0.6,0.1h0.4l0,0l0,0
	C186,186.5,186,186.5,186,186.4z M185.5,185.7c0.2,0.2,0.2,0.4,0.2,0.6c-0.2,0-0.5,0-0.7-0.1c-0.1,0-0.1-0.1-0.1-0.2
	c0-0.1,0-0.1,0-0.2c0-0.1,0.1-0.1,0.1-0.2c0.1,0,0.1-0.1,0.2-0.1l0,0C185.4,185.6,185.4,185.6,185.5,185.7L185.5,185.7z"/>
<path class="st7" d="M186.2,186.5L186.2,186.5L186.2,186.5h0.4c0.2,0,0.4,0,0.6-0.1c0.1-0.1,0.2-0.2,0.2-0.4c0-0.3-0.2-0.6-0.5-0.6
	c-0.1,0-0.3,0-0.4,0.1c-0.2,0.2-0.3,0.6-0.3,0.9C186.1,186.4,186.1,186.5,186.2,186.5z M186.8,185.6L186.8,185.6
	c0.1,0,0.1,0,0.2,0.1c0.1,0,0.1,0.1,0.1,0.2c0,0.1,0,0.1,0,0.2c0,0.1-0.1,0.1-0.1,0.2c-0.1,0.2-0.3,0.3-0.5,0.2s-0.3-0.3-0.2-0.5
	c0.1-0.1,0.2-0.2,0.3-0.3C186.7,185.6,186.7,185.6,186.8,185.6z"/>
<path class="st7" d="M186.1,186.8c0,0.3,0.1,0.6,0.3,0.9c0.1,0,0.1,0.1,0.2,0.1c0.1,0,0.1,0,0.2,0c0.1,0,0.1,0,0.2-0.1
	c0.1,0,0.1-0.1,0.2-0.1c0-0.1,0.1-0.1,0.1-0.2c0-0.1,0-0.1,0-0.2c0-0.1,0-0.1-0.1-0.2c0-0.1-0.1-0.1-0.1-0.2
	c-0.2-0.1-0.4-0.2-0.6-0.1c-0.1,0-0.3,0-0.4,0l0,0l0,0C186.2,186.6,186.1,186.7,186.1,186.8C186.1,186.8,186.1,186.8,186.1,186.8z
	 M186.6,187.5c-0.2-0.2-0.2-0.4-0.2-0.6c0.2,0,0.5,0,0.7,0.1c0.1,0,0.1,0.1,0.1,0.2c0,0.1,0,0.1,0,0.2c0,0.1-0.1,0.1-0.1,0.2
	c-0.1,0-0.1,0.1-0.2,0.1l0,0C186.8,187.6,186.7,187.5,186.6,187.5L186.6,187.5z"/>
<path class="st7" d="M186,186.7L186,186.7L186,186.7h-0.4c-0.2,0-0.4,0-0.6,0.1c-0.1,0-0.1,0.1-0.1,0.2c0,0.1-0.1,0.1-0.1,0.2
	c0,0.1,0,0.1,0,0.2c0,0.1,0.1,0.1,0.1,0.2c0,0.1,0.1,0.1,0.2,0.1c0.1,0,0.1,0.1,0.2,0.1c0.1,0,0.1,0,0.2,0c0.1,0,0.1-0.1,0.2-0.1
	c0.2-0.2,0.3-0.6,0.3-0.9C186.1,186.8,186,186.7,186,186.7z M185.3,187.6L185.3,187.6c-0.1,0-0.1,0-0.2-0.1c-0.1,0-0.1-0.1-0.1-0.2
	c0-0.1,0-0.1,0-0.2c0-0.1,0.1-0.1,0.1-0.2c0.2-0.1,0.5-0.1,0.7-0.1c0,0.2-0.1,0.5-0.2,0.6C185.5,187.6,185.4,187.6,185.3,187.6z"/>
<path class="st7" d="M201.6,186.2c-0.2,0-0.4-0.1-0.5-0.1c-0.1-0.1-0.3-0.2-0.3-0.4c-0.1-0.2-0.1-0.3,0-0.5c0.1-0.3,0.3-0.6,0.7-0.7
	c0.2,0,0.4,0,0.5,0.1c0.2,0.1,0.3,0.2,0.4,0.3c0.1,0.1,0.2,0.3,0.1,0.5C202.5,185.9,202.1,186.2,201.6,186.2L201.6,186.2z
	 M201.6,184.7c-0.1,0-0.2,0-0.4,0.1c-0.1,0.1-0.2,0.2-0.2,0.3c0,0.1,0,0.2,0,0.4c0,0.2,0.2,0.4,0.5,0.5c0.1,0,0.2,0,0.4,0
	c0.1-0.1,0.2-0.1,0.3-0.2c0.1-0.1,0.1-0.2,0.1-0.4c0-0.2-0.1-0.3-0.2-0.4C202,184.8,201.8,184.8,201.6,184.7L201.6,184.7z"/>
<path class="st7" d="M203.1,188.7h-3c-0.1,0-0.2,0-0.3,0c-0.1,0-0.2-0.1-0.2-0.2c0,0-0.1-0.1-0.1-0.2c0-0.1,0-0.1,0-0.2l0.1-0.2
	c0-0.2,0.1-0.4,0.2-0.6c0.1-0.2,0.2-0.3,0.4-0.4c0.1-0.1,0.3-0.2,0.5-0.2h1.8c0.2,0,0.3,0.1,0.5,0.2c0.2,0.1,0.3,0.2,0.4,0.4
	c0.1,0.2,0.2,0.4,0.2,0.6l0.1,0.2c0,0.1,0,0.1,0,0.2c0,0.1,0,0.1-0.1,0.2c-0.1,0.1-0.1,0.1-0.2,0.2
	C203.2,188.7,203.2,188.7,203.1,188.7z M199.8,188.2c0,0,0,0.1,0,0.1c0,0,0.1,0.1,0.1,0.1c0,0,0.1,0,0.1,0h3c0,0,0.1,0,0.1,0
	c0.1,0,0.1,0,0.1-0.1v-0.1v-0.1l0,0v-0.3c0-0.2-0.1-0.4-0.3-0.6c-0.2-0.2-0.4-0.3-0.6-0.3h-1.8c-0.2,0-0.4,0.2-0.6,0.3
	c-0.2,0.2-0.2,0.4-0.3,0.6l0,0L199.8,188.2z"/>
<path class="st7" d="M163,191.2h0.2c0,0.1,0.1,0.2,0.1,0.2c0.1,0.1,0.2,0.1,0.3,0.1c0.1,0,0.2,0,0.3-0.1c0.1,0,0.1-0.1,0.1-0.2
	c0-0.1,0-0.1-0.1-0.2c-0.1-0.1-0.1-0.1-0.2-0.1h-0.2c-0.1,0-0.2-0.1-0.3-0.1c-0.1-0.1-0.1-0.2-0.1-0.3c0-0.1,0.1-0.2,0.1-0.3
	c0.1-0.1,0.3-0.1,0.4-0.1c0.1,0,0.3,0,0.4,0.1c0.1,0.1,0.2,0.2,0.2,0.3h-0.2c0-0.1,0-0.2-0.1-0.2c-0.1-0.1-0.2-0.1-0.2-0.1
	c-0.1,0-0.2,0-0.2,0.1c-0.1,0-0.1,0.1-0.1,0.2c0,0.1,0,0.1,0.1,0.1c0.1,0.1,0.1,0.1,0.2,0.1h0.2c0.1,0,0.3,0.1,0.4,0.2
	c0.1,0.1,0.1,0.2,0.1,0.3c0,0.1-0.1,0.3-0.2,0.3c-0.3,0.2-0.6,0.2-0.8,0C163.1,191.4,163,191.3,163,191.2z"/>
<path class="st7" d="M164.8,190.6c-0.1,0-0.2,0-0.2,0.1c-0.1,0.1-0.1,0.2-0.1,0.2h0.6c0-0.1,0-0.2-0.1-0.2
	C165,190.6,164.9,190.6,164.8,190.6z M165.1,191.3h0.2c0,0.1-0.1,0.2-0.1,0.2c-0.1,0.1-0.2,0.1-0.3,0.1c-0.1,0-0.3-0.1-0.4-0.2
	c-0.1-0.1-0.1-0.3-0.1-0.4c0-0.2,0-0.3,0.1-0.4c0.1-0.1,0.2-0.2,0.4-0.2c0.1,0,0.3,0,0.4,0.1c0.1,0.1,0.1,0.3,0.1,0.4v0.1h-0.8
	c0,0.1,0,0.2,0.1,0.3c0.1,0.1,0.1,0.1,0.2,0.1c0.1,0,0.1,0,0.2,0C165.1,191.4,165.1,191.3,165.1,191.3z"/>
<path class="st7" d="M165.5,191.6v-1.1h0.2v0.2l0,0c0-0.1,0.1-0.1,0.1-0.1c0.1,0,0.1-0.1,0.2-0.1c0.1,0,0.2,0,0.3,0.1
	c0.1,0.1,0.1,0.2,0.1,0.3v0.7h-0.2v-0.7c0-0.1,0-0.1-0.1-0.2c-0.1-0.1-0.1-0.1-0.2-0.1c-0.1,0-0.2,0-0.2,0.1
	c-0.1,0.1-0.1,0.1-0.1,0.2v0.7L165.5,191.6z"/>
<path class="st7" d="M167.1,191.6c-0.1,0-0.3-0.1-0.4-0.2c-0.1-0.1-0.1-0.3-0.1-0.4c0-0.2,0-0.3,0.1-0.4c0.1-0.1,0.2-0.2,0.3-0.2
	c0.1,0,0.2,0,0.2,0.1c0.1,0,0.1,0.1,0.1,0.1l0,0V190h0.2v1.6h-0.2v-0.2l0,0c0,0.1-0.1,0.1-0.1,0.1
	C167.3,191.6,167.2,191.6,167.1,191.6z M167.1,190.6c-0.1,0-0.2,0-0.2,0.1c-0.1,0.1-0.1,0.2-0.1,0.3c0,0.1,0,0.2,0.1,0.3
	c0.1,0.1,0.1,0.1,0.2,0.1c0.1,0,0.2,0,0.2-0.1c0.1-0.1,0.1-0.2,0.1-0.3c0-0.1,0-0.2-0.1-0.3C167.3,190.7,167.2,190.6,167.1,190.6
	L167.1,190.6z"/>
<path class="st7" d="M167.9,191.9h-0.2l0.6-1.9h0.2L167.9,191.9z"/>
<path class="st7" d="M168.8,190.2v0.6h0.4c0.1,0,0.2,0,0.2-0.1c0.1-0.1,0.1-0.1,0.1-0.2c0-0.1,0-0.2-0.1-0.2
	c-0.1-0.1-0.2-0.1-0.2-0.1H168.8z M168.8,191v0.6h-0.2V190h0.6c0.1,0,0.3,0,0.4,0.1c0.2,0.2,0.2,0.4,0.1,0.6
	c-0.1,0.1-0.1,0.1-0.2,0.2l0.4,0.6h-0.2l-0.3-0.6L168.8,191z"/>
<path class="st7" d="M170.4,190.6c-0.1,0-0.2,0-0.2,0.1c-0.1,0.1-0.1,0.2-0.1,0.2h0.6c0-0.1,0-0.2-0.1-0.2
	C170.6,190.6,170.5,190.6,170.4,190.6z M170.7,191.3h0.2c0,0.1-0.1,0.2-0.2,0.2c-0.1,0.1-0.2,0.1-0.3,0.1c-0.1,0-0.3-0.1-0.4-0.2
	c-0.1-0.1-0.1-0.3-0.1-0.4c0-0.2,0-0.3,0.1-0.4c0.1-0.1,0.2-0.2,0.4-0.2c0.1,0,0.3,0,0.4,0.1c0.1,0.1,0.1,0.3,0.1,0.4v0.1h-0.8
	c0,0.1,0,0.2,0.1,0.3c0.1,0.1,0.1,0.1,0.2,0.1c0.1,0,0.1,0,0.2,0C170.7,191.4,170.7,191.3,170.7,191.3z"/>
<path class="st7" d="M172,190.8h-0.2c0-0.1,0-0.1-0.1-0.2c-0.1,0-0.1-0.1-0.2-0.1c-0.1,0-0.2,0-0.2,0.1c-0.1,0.1-0.1,0.2-0.1,0.3
	c0,0.1,0,0.2,0.1,0.3c0.1,0.1,0.1,0.1,0.2,0.1c0.1,0,0.1,0,0.2-0.1c0.1,0,0.1-0.1,0.1-0.2h0.2c0,0.1-0.1,0.2-0.1,0.3
	c-0.1,0.1-0.2,0.1-0.3,0.1c-0.1,0-0.3-0.1-0.4-0.2c-0.1-0.1-0.2-0.3-0.1-0.5c0-0.2,0-0.3,0.1-0.4c0.1-0.1,0.2-0.2,0.4-0.2
	c0.1,0,0.2,0,0.3,0.1C171.9,190.6,172,190.7,172,190.8z"/>
<path class="st7" d="M172.7,190.6c-0.1,0-0.2,0-0.2,0.1c-0.1,0.1-0.1,0.2-0.1,0.2h0.6c0-0.1,0-0.2-0.1-0.2
	C172.8,190.6,172.8,190.6,172.7,190.6z M172.9,191.3h0.2c0,0.1-0.1,0.2-0.2,0.2c-0.1,0.1-0.2,0.1-0.3,0.1c-0.1,0-0.3-0.1-0.4-0.2
	c-0.1-0.1-0.1-0.3-0.1-0.4c0-0.2,0-0.3,0.1-0.4c0.2-0.2,0.5-0.2,0.7,0c0,0,0,0,0,0c0.1,0.1,0.1,0.3,0.1,0.4v0.1h-0.8
	c0,0.1,0,0.2,0.1,0.3c0.1,0.1,0.1,0.1,0.2,0.1c0.1,0,0.1,0,0.2,0C172.9,191.4,173,191.4,172.9,191.3L172.9,191.3z"/>
<path class="st7" d="M173.4,191.6v-1.1h0.2v1.1H173.4z M173.5,190.3c-0.1,0-0.1-0.1-0.1-0.2s0.1-0.1,0.2-0.1s0.1,0.1,0.1,0.2
	C173.6,190.2,173.6,190.3,173.5,190.3C173.5,190.3,173.5,190.3,173.5,190.3L173.5,190.3z"/>
<path class="st7" d="M174.7,190.5l-0.4,1.1h-0.2l-0.4-1.1h0.2l0.3,0.9l0,0l0.3-0.9H174.7z"/>
<path class="st7" d="M175.3,190.6c-0.1,0-0.2,0-0.2,0.1c-0.1,0.1-0.1,0.2-0.1,0.2h0.6c0-0.1,0-0.2-0.1-0.2
	C175.5,190.6,175.4,190.6,175.3,190.6z M175.6,191.3h0.2c0,0.1-0.1,0.2-0.2,0.2c-0.1,0.1-0.2,0.1-0.3,0.1c-0.1,0-0.3-0.1-0.4-0.2
	c-0.1-0.1-0.2-0.3-0.1-0.4c0-0.2,0-0.3,0.1-0.4c0.1-0.1,0.2-0.2,0.4-0.2c0.1,0,0.3,0,0.4,0.1c0.1,0.1,0.1,0.3,0.1,0.4v0.1H175
	c0,0.1,0,0.2,0.1,0.3c0.1,0.1,0.1,0.1,0.2,0.1c0.1,0,0.1,0,0.2,0C175.6,191.4,175.6,191.3,175.6,191.3z"/>
<path class="st7" d="M151.5,188.7c-0.2,0-0.3-0.1-0.4-0.2c-0.1-0.1-0.2-0.3-0.2-0.4v-3c0-0.3,0.2-0.5,0.5-0.6h2.3
	c0.2,0,0.3,0.1,0.4,0.2c0.1,0.1,0.2,0.3,0.2,0.4v0.6l0,0v2.4l0,0v0.1c0,0.3-0.3,0.6-0.6,0.6L151.5,188.7z M151.6,184.8L151.6,184.8
	c-0.2,0-0.2,0-0.3,0.1c-0.1,0.1-0.1,0.2-0.1,0.2v3c0,0.1,0,0.2,0.1,0.2c0.1,0.1,0.2,0.1,0.2,0.1h2.1c0.1,0,0.2,0,0.2-0.1
	c0.1-0.1,0.1-0.2,0.1-0.2v-0.3l0,0v-2.1l0,0v-0.6c0-0.1,0-0.2-0.1-0.2c-0.1-0.1-0.1-0.1-0.2-0.1L151.6,184.8L151.6,184.8z"/>
<path class="st7" d="M153.6,186.7c0-0.2-0.3-0.3-0.6-0.3h-0.2V186c0-0.2-0.3-0.3-0.6-0.3s-0.6,0.1-0.6,0.3v0.9
	c0,0.2,0.3,0.3,0.6,0.3h0.2v0.1c0,0.2,0.3,0.3,0.6,0.3s0.6-0.1,0.6-0.3V186.7z M152.9,186.5h0.1c0.3,0,0.5,0.1,0.5,0.2
	s-0.2,0.2-0.5,0.2h-0.1c-0.2,0-0.4-0.1-0.4-0.2l0,0c0.1-0.1,0.1-0.1,0.2-0.1C152.7,186.5,152.8,186.5,152.9,186.5L152.9,186.5z
	 M152.9,187.2c-0.2,0-0.4-0.1-0.4-0.2v-0.1c0.1,0.1,0.3,0.1,0.4,0.1h0.1c0.2,0,0.4,0,0.5-0.1v0.2c0,0.1-0.2,0.2-0.5,0.2L152.9,187.2
	z M152.2,185.8c0.3,0,0.6,0.1,0.6,0.2s-0.2,0.2-0.6,0.2s-0.5-0.1-0.5-0.2S151.9,185.8,152.2,185.8L152.2,185.8z M152.4,187
	L152.4,187l-0.2,0.1c-0.3,0-0.6-0.1-0.6-0.2v-0.1c0.2,0.1,0.4,0.1,0.6,0.1h0.2V187z M152.4,186.7L152.4,186.7l-0.2,0.1
	c-0.3,0-0.6-0.1-0.6-0.2v-0.1c0.2,0.1,0.4,0.1,0.6,0.1c0.1,0,0.2,0,0.2,0C152.4,186.6,152.4,186.6,152.4,186.7
	C152.4,186.6,152.4,186.7,152.4,186.7L152.4,186.7z M152.2,186.5c-0.3,0-0.6-0.1-0.6-0.2v-0.1c0.2,0.1,0.4,0.1,0.5,0.1
	c0.2,0,0.4,0,0.6-0.1v0.1C152.7,186.4,152.5,186.5,152.2,186.5L152.2,186.5z M153.5,187.3c0,0.1-0.2,0.2-0.5,0.2s-0.5-0.1-0.5-0.2
	v-0.1l0,0c0.3,0.2,0.7,0.2,1.1,0L153.5,187.3z"/>
<path class="st27" d="M151.7,185.7c0.1-0.1,0.3-0.1,0.5-0.1c0.2,0,0.3,0,0.5,0.1c0.1,0.1,0.2,0.1,0.2,0.2v0.4h0.1
	c0.2,0,0.3,0,0.5,0.1c0.1,0,0.2,0.1,0.2,0.2v0.6c0,0.1-0.1,0.2-0.2,0.2c-0.1,0.1-0.3,0.1-0.5,0.1c-0.2,0-0.3,0-0.5-0.1
	c-0.1-0.1-0.2-0.1-0.2-0.2v-0.1h-0.2c-0.2,0-0.3,0-0.5-0.1c-0.1,0-0.2-0.1-0.2-0.2V186C151.5,185.9,151.6,185.8,151.7,185.7z
	 M151.7,185.8c-0.1,0.1-0.2,0.1-0.2,0.2v0.9c0,0.1,0.1,0.1,0.2,0.2c0.1,0.1,0.3,0.1,0.4,0.1h0.2l0,0v0.1c0,0.1,0.1,0.1,0.2,0.2
	c0.3,0.1,0.6,0.1,0.9,0c0.1,0,0.2-0.1,0.2-0.2v-0.6c0-0.1-0.1-0.1-0.2-0.2c-0.1-0.1-0.3-0.1-0.4-0.1h-0.2V186c0-0.1-0.1-0.1-0.2-0.2
	c-0.1-0.1-0.3-0.1-0.4-0.1C152,185.7,151.9,185.8,151.7,185.8L151.7,185.8z M151.7,185.9L151.7,185.9
	C151.7,185.9,151.7,186,151.7,185.9l0.1,0.1c0.1,0,0.3,0.1,0.4,0.1c0.1,0,0.3,0,0.4-0.1l0.1-0.1c0,0,0,0,0-0.1c0,0,0,0,0-0.1
	c0,0-0.1,0-0.1,0c-0.1,0-0.2-0.1-0.4-0.1c-0.1,0-0.3,0-0.4,0.1C151.8,185.9,151.8,185.9,151.7,185.9L151.7,185.9z M151.8,185.8
	c0.1,0,0.3-0.1,0.4-0.1c0.1,0,0.3,0,0.4,0.1c0,0,0.1,0,0.1,0.1c0,0,0,0.1,0.1,0.1c0,0,0,0.1-0.1,0.1c0,0-0.1,0.1-0.1,0.1
	c-0.1,0-0.3,0.1-0.4,0.1c-0.1,0-0.3,0-0.4-0.1c0,0-0.1,0-0.1-0.1c0,0,0-0.1,0-0.1c0,0,0-0.1,0-0.1
	C151.7,185.8,151.8,185.8,151.8,185.8L151.8,185.8z M152.8,186.1v0.2c0,0,0,0.1-0.1,0.1c0,0-0.1,0.1-0.1,0.1c-0.1,0-0.3,0.1-0.4,0.1
	h-0.1c-0.1,0-0.2,0-0.3-0.1l-0.1-0.1c0,0,0-0.1,0-0.1v-0.2l0,0c0.2,0.1,0.3,0.1,0.5,0.1l0,0C152.4,186.2,152.6,186.2,152.8,186.1
	L152.8,186.1z M152.3,186.4c0.1,0,0.2,0,0.3-0.1c0,0,0.1,0,0.1-0.1l0,0v-0.1c-0.2,0.1-0.3,0.1-0.5,0.1c-0.2,0-0.4,0-0.5-0.1v0.1l0,0
	c0,0,0.1,0,0.1,0.1C151.9,186.4,152.1,186.4,152.3,186.4L152.3,186.4z M151.7,186.4L151.7,186.4c0.2,0.1,0.3,0.1,0.5,0.1l0,0h0.2
	h0.1l-0.1,0.1l0,0c0,0,0,0,0,0.1l0,0v0.1h-0.2c-0.1,0-0.3,0-0.4-0.1c0,0-0.1,0-0.1-0.1c0,0,0-0.1,0-0.1L151.7,186.4z M151.7,186.5
	L151.7,186.5c0,0.1,0,0.1,0,0.1l0.1,0.1c0.1,0,0.2,0.1,0.4,0.1h0.1v-0.1l0,0c0,0,0-0.1,0-0.1h-0.2
	C152,186.6,151.8,186.6,151.7,186.5L151.7,186.5z M153,186.5L153,186.5c-0.1,0-0.3,0.1-0.4,0.1l0,0l0,0c0,0,0.1,0,0.1,0
	c0.1,0,0.2,0.1,0.3,0.1h0c0.1,0,0.3,0,0.4-0.1l0.1-0.1c0,0,0-0.1,0-0.1c0,0,0,0,0,0l-0.1-0.1c-0.1,0-0.2-0.1-0.4-0.1L153,186.5z
	 M153,186.4L153,186.4z M153,186.4c-0.1,0-0.1,0-0.2,0c-0.1,0-0.1,0.1-0.2,0.1l0,0l0,0l0,0c0,0,0,0.1,0,0.1l0.1,0.1
	c0.1,0,0.2,0.1,0.3,0.1 M153.6,186.5c0.1,0,0.1,0.1,0,0.2c0,0,0,0,0,0c0,0-0.1,0.1-0.1,0.1c-0.1,0-0.3,0.1-0.4,0.1H153 M153.6,186.5
	l-0.1-0.1L153.6,186.5z M153.5,186.4c-0.1,0-0.3-0.1-0.4-0.1L153.5,186.4z M151.7,186.6L151.7,186.6c0.2,0.1,0.3,0.1,0.5,0.1h0.2
	v0.3h-0.2c-0.1,0-0.3,0-0.4-0.1c0,0-0.1,0-0.1-0.1c0,0,0-0.1,0-0.1V186.6z M151.8,186.7L151.8,186.7L151.8,186.7l0.1,0.1
	c0.1,0,0.3,0.1,0.4,0.1h0.1v-0.1h-0.1c-0.2,0.1-0.4,0.1-0.6,0L151.8,186.7z M152.5,186.7L152.5,186.7c0.2,0.1,0.3,0.1,0.4,0.1h0
	c0.2,0,0.4,0,0.5-0.1h0.1v0.3c0,0,0,0.1-0.1,0.1c0,0-0.1,0.1-0.1,0.1c-0.1,0-0.3,0.1-0.4,0.1h-0.1c-0.1,0-0.2,0-0.3-0.1l-0.1-0.1
	c0,0,0-0.1,0-0.1L152.5,186.7z M152.9,187L152.9,187c0.2,0,0.3,0,0.4-0.1l0.1-0.1l0,0v-0.1C153.3,186.9,153.1,187,152.9,187
	L152.9,187c-0.2-0.1-0.4-0.1-0.5-0.2v0.2l0,0l0.1,0.1C152.6,187.1,152.8,187.1,152.9,187L152.9,187z M153.7,187v0.2
	c0,0,0,0.1-0.1,0.1c0,0-0.1,0.1-0.1,0.1c-0.3,0.1-0.5,0.1-0.8,0l-0.1-0.1c0,0,0-0.1-0.1-0.1V187h0.1c0.2,0.1,0.3,0.1,0.5,0.1l0,0
	C153.3,187.1,153.5,187.1,153.7,187L153.7,187z M153.1,187.2c-0.2,0-0.4,0-0.5-0.1v0.1c0,0,0,0,0,0.1l0.1,0.1c0.1,0,0.3,0.1,0.4,0.1
	c0.1,0,0.3,0,0.4-0.1l0.1-0.1c0,0,0,0,0-0.1v-0.1C153.4,187.2,153.2,187.3,153.1,187.2L153.1,187.2z"/>
<path class="st28" d="M169.5,185.9c2.3,0,4.2-1.9,4.2-4.2c0-2.3-1.9-4.2-4.2-4.2c-2.3,0-4.2,1.9-4.2,4.2c0,0,0,0,0,0
	C165.3,184,167.2,185.9,169.5,185.9z"/>
<path class="st29" d="M169.5,177.5c-2.3,0-4.2,1.9-4.2,4.2s1.9,4.2,4.2,4.2s4.2-1.9,4.2-4.2l0,0
	C173.6,179.4,171.8,177.5,169.5,177.5z M164.8,181.7c0-2.6,2.1-4.7,4.7-4.7c2.6,0,4.7,2.1,4.7,4.7c0,2.6-2.1,4.7-4.7,4.7
	c0,0,0,0,0,0C166.9,186.4,164.8,184.3,164.8,181.7z"/>
<path class="st18" d="M169.7,183.4L169.7,183.4l0.2,0.1c0,0,0.1,0,0.1,0c0,0,0,0,0.1,0c0,0,0,0,0-0.1c0,0,0-0.1,0-0.1c0,0,0,0,0-0.1
	c-0.1-0.2-0.2-0.5-0.1-0.8c0-0.3,0.1-0.5,0.3-0.8l0.8-1.1l0.1,0.6v0.1c0,0,0,0,0.1,0.1h0.1h0.1c0,0,0.1,0,0.1,0l0,0c0,0,0-0.1,0-0.1
	v-0.1l-0.2-1.1c0,0,0,0,0-0.1l-0.1-0.1c0,0,0,0-0.1,0H171l-1.1,0.2c0,0-0.1,0-0.1,0l0,0c0,0,0,0.1,0,0.1c0,0,0,0.1,0,0.1
	c0,0,0,0,0,0.1c0,0,0,0,0,0.1h0.1h0.1l0.6-0.1l-0.8,1.1c-0.4,0.6-0.5,1.4-0.2,2L169.7,183.4z"/>
<path class="st18" d="M168.8,183.3L168.8,183.3c0.1,0,0.1,0,0.1-0.1c0,0,0,0,0-0.1v-0.1c0-0.1,0-0.1-0.1-0.1c-0.1,0-0.1,0-0.2,0
	l-0.6,0.1l0.8-1.1c0.2-0.3,0.3-0.6,0.4-0.9c0-0.3,0-0.7-0.2-1c0,0,0-0.1-0.1-0.1c0,0-0.1,0-0.1,0c0,0-0.1,0-0.1,0c0,0,0,0-0.1,0
	c0,0,0,0,0,0.1c0,0,0,0.1,0,0.1c0,0,0,0.1,0,0.1c0.3,0.5,0.2,1.1-0.1,1.5l-0.8,1.1l-0.1-0.6c0,0,0,0,0-0.1l-0.1-0.1h-0.1h-0.1
	c0,0-0.1,0-0.1,0h-0.1c0,0,0,0.1,0,0.1c0,0,0,0.1,0,0.1l0.2,1.1v0.1c0,0,0,0,0.1,0.1h0.1h0.1L168.8,183.3z"/>
<polygon class="st30" points="110.6,156.6 113.3,159.8 105.1,165.2 103.2,161.5 110.5,156.5 "/>
</svg>
