<?xml version="1.0" encoding="utf-8"?>
<!-- Generator: Adobe Illustrator 25.2.0, SVG Export Plug-In . SVG Version: 6.00 Build 0)  -->
<svg version="1.1" id="Layer_1" xmlns="http://www.w3.org/2000/svg" xmlns:xlink="http://www.w3.org/1999/xlink" x="0px" y="0px"
	 viewBox="0 0 216 216" style="enable-background:new 0 0 216 216;" xml:space="preserve">
<style type="text/css">
	.st0{fill:#E4E4E4;}
	.st1{fill:#7C4DFF;fill-opacity:0.2;}
	.st2{fill:#666766;}
	.st3{fill:#FFFFFF;}
	.st4{fill:#C6B6FF;}
	.st5{fill:#BCCDEA;}
	.st6{fill:#D3D3D3;}
	.st7{fill:#F2F7FA;}
	.st8{fill:#4A494A;}
	.st9{fill:#E94335;}
</style>
<path class="st0" d="M104.4,202c50.2,0,90.8-40.7,90.8-90.8c0-50.2-40.7-90.8-90.8-90.8S13.6,61,13.6,111.2
	c0,24.1,9.6,47.2,26.6,64.2S80.3,202,104.4,202z"/>
<path class="st1" d="M95.5,168.3c40.2,0,72.7-32.6,72.7-72.7c0-40.2-32.6-72.7-72.7-72.7c-40.2,0-72.7,32.6-72.7,72.7
	c0,19.3,7.7,37.8,21.3,51.4C57.7,160.6,76.2,168.3,95.5,168.3L95.5,168.3z"/>
<path class="st2" d="M59.6,127.1c-0.1,0-0.3-0.1-0.4-0.2c-0.7-0.7-1.3-1.3-2-2c-0.1-0.1-0.1-0.3-0.1-0.4s0.1-0.3,0.2-0.4
	c0.1-0.1,0.2-0.2,0.4-0.2c0.1,0,0.3,0.1,0.4,0.2c0.6,0.7,1.3,1.4,2,2c0.1,0.1,0.1,0.2,0.2,0.3c0,0.1,0,0.2,0,0.3
	c0,0.1-0.1,0.2-0.2,0.3C59.9,127.1,59.8,127.1,59.6,127.1L59.6,127.1z"/>
<path class="st2" d="M54,120.8c-0.1,0-0.2,0-0.2-0.1c-0.1,0-0.1-0.1-0.2-0.2c-1.2-1.5-2.2-3-3.3-4.6c0-0.1-0.1-0.1-0.1-0.2
	s0-0.1,0-0.2c0-0.2,0.1-0.3,0.2-0.4c0.1,0,0.1-0.1,0.2-0.1c0.1,0,0.1,0,0.2,0c0.1,0,0.1,0,0.2,0.1c0.1,0,0.1,0.1,0.2,0.1l0.1,0.1
	c1,1.5,2.1,3.1,3.2,4.5c0.1,0.2,0.1,0.4,0,0.6c0,0.1-0.1,0.2-0.2,0.2C54.2,120.8,54.1,120.8,54,120.8L54,120.8z M154.4,117.8
	c-0.1,0-0.2,0-0.3-0.1s-0.2-0.1-0.2-0.2s-0.1-0.2-0.1-0.3c0-0.1,0-0.2,0.1-0.3c1-1.5,2-3.1,2.9-4.7c0-0.1,0.1-0.1,0.1-0.2
	c0.1-0.1,0.1-0.1,0.2-0.1c0.1,0,0.1,0,0.2,0c0.1,0,0.1,0,0.2,0c0.1,0,0.2,0.1,0.3,0.2s0.1,0.2,0.1,0.3c0,0.1,0,0.2-0.1,0.2v0.1
	c-0.9,1.6-1.9,3.2-3,4.8c-0.1,0.1-0.1,0.1-0.2,0.2C154.6,117.8,154.5,117.8,154.4,117.8L154.4,117.8z M48,111.4
	c-0.1,0-0.2,0-0.3-0.1s-0.2-0.1-0.2-0.2c-0.9-1.7-1.7-3.4-2.4-5.1c-0.1-0.1-0.1-0.3,0-0.4c0-0.1,0.1-0.1,0.1-0.2l0.2-0.1
	c0.1-0.1,0.3-0.1,0.4,0c0.1,0,0.1,0.1,0.2,0.1c0.1,0,0.1,0.1,0.1,0.2v0.1c0.7,1.7,1.5,3.4,2.3,5c0,0.1,0.1,0.2,0.1,0.3
	c0,0.1,0,0.2-0.1,0.3c-0.1,0.1-0.1,0.2-0.2,0.2C48.1,111.4,48,111.5,48,111.4L48,111.4z M159.8,108c-0.1,0-0.2,0-0.2-0.1
	c-0.1,0-0.2-0.1-0.2-0.2c-0.1-0.2-0.1-0.4,0-0.5c0.8-1.7,1.4-3.4,2-5.2c0-0.1,0-0.1,0.1-0.2c0-0.1,0.1-0.1,0.2-0.2
	c0.1,0,0.1-0.1,0.2-0.1c0.1,0,0.2,0,0.3,0s0.2,0.1,0.2,0.2c0.1,0.1,0.1,0.1,0.1,0.2s0,0.2,0,0.3v0.1c-0.6,1.8-1.3,3.5-2.1,5.2
	c0,0.1-0.1,0.2-0.2,0.2C160.1,107.9,160,108,159.8,108L159.8,108z M43.7,101c-0.1,0-0.2,0-0.3-0.1s-0.2-0.2-0.2-0.3
	c-0.5-1.8-1-3.6-1.4-5.4c0-0.1,0-0.3,0.1-0.4s0.2-0.2,0.3-0.2s0.3,0,0.4,0.1c0.1,0.1,0.2,0.2,0.2,0.3c0.4,1.8,0.9,3.6,1.4,5.3
	c0.1,0.1,0.1,0.3,0,0.4s-0.2,0.2-0.3,0.3L43.7,101L43.7,101z M163.5,97.4h-0.1c-0.1,0-0.3-0.1-0.4-0.3c-0.1-0.1-0.1-0.3-0.1-0.4
	c0.4-1.8,0.8-3.6,1.1-5.4c0-0.1,0.1-0.3,0.2-0.3c0.1-0.1,0.3-0.1,0.4-0.1c0.1,0,0.3,0.1,0.4,0.2c0.1,0.1,0.1,0.2,0.1,0.4
	c-0.3,1.8-0.7,3.7-1.1,5.5c0,0.1-0.1,0.2-0.2,0.3C163.7,97.3,163.6,97.4,163.5,97.4L163.5,97.4z M41.3,90.2c-0.1,0-0.2-0.1-0.3-0.2
	s-0.2-0.2-0.2-0.4c-0.2-1.8-0.4-3.7-0.4-5.6c0-0.2,0-0.3,0.2-0.4c0.1-0.1,0.2-0.2,0.4-0.2c0.1,0,0.1,0,0.2,0c0.1,0,0.1,0.1,0.2,0.1
	c0.1,0,0.1,0.1,0.1,0.2s0.1,0.1,0.1,0.2V84c0.1,1.8,0.2,3.7,0.4,5.5c0,0.1,0,0.3-0.1,0.4s-0.2,0.2-0.4,0.2L41.3,90.2L41.3,90.2z
	 M165.1,86.4L165.1,86.4c-0.1,0-0.3-0.1-0.4-0.2c-0.1-0.1-0.2-0.3-0.1-0.4c0.1-1.3,0.1-2.5,0.1-3.8c0-0.6,0-1.2,0-1.7
	c0-0.3,0.2-0.6,0.6-0.6l0,0c0.1,0,0.3,0.1,0.4,0.2c0.1,0.1,0.2,0.3,0.2,0.4c0,0.6,0,1.2,0,1.8c0,1.3,0,2.6-0.1,3.9
	c0,0.1-0.1,0.3-0.2,0.4C165.4,86.4,165.3,86.4,165.1,86.4L165.1,86.4z M41,79L41,79c-0.2,0-0.3-0.1-0.4-0.2
	c-0.1-0.1-0.2-0.3-0.1-0.4c0.1-1.9,0.3-3.8,0.6-5.6c0-0.1,0-0.2,0.1-0.2c0-0.1,0.1-0.1,0.1-0.2c0.1-0.1,0.1-0.1,0.2-0.1
	c0.1,0,0.2,0,0.2,0c0.1,0,0.2,0,0.2,0.1c0.1,0.1,0.2,0.2,0.2,0.3c0,0.1,0,0.2,0,0.4c-0.3,1.8-0.5,3.7-0.5,5.5c0,0.1-0.1,0.3-0.2,0.4
	C41.3,79,41.1,79,41,79z M164.9,75.2c-0.1,0-0.3,0-0.4-0.1c-0.1-0.1-0.2-0.2-0.2-0.4c-0.2-1.8-0.5-3.7-0.9-5.5c0-0.1,0-0.2,0-0.2
	c0-0.1,0-0.2,0.1-0.2c0-0.1,0.1-0.1,0.1-0.2c0.1,0,0.1-0.1,0.2-0.1c0.1,0,0.2,0,0.2,0c0.2,0,0.4,0.2,0.5,0.4V69
	c0.4,1.8,0.7,3.7,0.9,5.6c0,0.2,0,0.3-0.1,0.4C165.2,75.2,165.1,75.3,164.9,75.2L164.9,75.2z M162.6,64.3c-0.1,0-0.2,0-0.3-0.1
	s-0.2-0.2-0.2-0.3c-0.5-1.8-1.2-3.5-1.9-5.2c-0.1-0.3,0.1-0.6,0.3-0.7c0.1-0.1,0.3-0.1,0.4,0c0.1,0,0.2,0.1,0.3,0.3
	c0.7,1.7,1.3,3.5,1.9,5.3c0,0.1,0,0.2,0,0.3s-0.1,0.2-0.1,0.2c-0.1,0.1-0.1,0.1-0.2,0.2C162.7,64.3,162.6,64.3,162.6,64.3
	L162.6,64.3z M158.3,54c-0.1,0-0.2,0-0.3-0.1s-0.2-0.1-0.2-0.2c-0.9-1.6-1.8-3.2-2.8-4.8c0-0.1,0-0.3,0-0.4c0-0.1,0.1-0.3,0.2-0.3
	c0.2-0.2,0.6-0.1,0.8,0.1c1,1.6,2,3.2,2.8,4.9c0,0.1,0.1,0.2,0.1,0.3s0,0.2-0.1,0.3s-0.1,0.1-0.2,0.2C158.5,54,158.4,54,158.3,54
	L158.3,54z M51.6,47.6c-0.2,0-0.3-0.1-0.4-0.2C51,47.3,51,47,51.1,46.7c1-1.6,2.2-3.1,3.4-4.5c0-0.1,0.1-0.1,0.2-0.2
	c0.1,0,0.1-0.1,0.2-0.1c0.1,0,0.1,0,0.2,0c0.2,0,0.3,0.1,0.4,0.2c0,0.1,0.1,0.1,0.1,0.2c0,0.1,0,0.2,0,0.2c0,0.1-0.1,0.2-0.2,0.3
	c-1.2,1.4-2.3,2.9-3.3,4.4c0,0.1-0.1,0.1-0.2,0.2C51.8,47.6,51.7,47.6,51.6,47.6L51.6,47.6z M47.2,56.6c-0.1,0-0.1,0-0.2,0
	c-0.1,0-0.1-0.1-0.2-0.1c-0.1-0.1-0.2-0.2-0.2-0.4c0-0.1,0-0.2,0-0.3c0.8-1.7,1.7-3.4,2.6-5c0.1-0.1,0.2-0.2,0.3-0.3
	c0.1,0,0.1,0,0.2,0c0.2,0,0.3,0.1,0.4,0.2c0.1,0.1,0.2,0.3,0.2,0.4c0,0.1,0,0.2-0.1,0.2v0.1c-0.9,1.6-1.8,3.2-2.6,4.9
	c0,0.1-0.1,0.2-0.2,0.2C47.4,56.6,47.3,56.6,47.2,56.6L47.2,56.6z M43,67.6c-0.1,0-0.1,0-0.2,0c-0.1,0-0.2,0-0.2-0.1
	c-0.1,0-0.1-0.1-0.2-0.1c-0.1-0.1-0.1-0.2-0.1-0.2c0-0.1,0-0.2,0-0.3c0.5-1.8,1.2-3.6,1.9-5.3c0-0.1,0.1-0.1,0.1-0.2
	c0-0.1,0.1-0.1,0.2-0.2c0.1,0,0.1-0.1,0.2-0.1c0.1,0,0.1,0,0.2,0c0.1,0,0.1,0.1,0.2,0.1c0.1,0,0.1,0.1,0.2,0.2
	c0,0.1,0.1,0.1,0.1,0.2c0,0.1,0,0.1,0,0.2v0.1c-0.7,1.7-1.3,3.5-1.9,5.2c0,0.1-0.1,0.2-0.1,0.2C43.2,67.5,43.1,67.5,43,67.6L43,67.6
	z M152.3,44.6c-0.1,0-0.2,0-0.2,0c-0.1,0-0.1-0.1-0.2-0.2c-1.1-1.5-2.3-2.9-3.6-4.2c-0.1-0.1-0.1-0.3-0.1-0.4c0-0.1,0.1-0.3,0.2-0.4
	c0.1-0.1,0.2-0.2,0.4-0.2c0.1,0,0.3,0.1,0.4,0.2c1.3,1.4,2.5,2.8,3.6,4.3c0.1,0.2,0.1,0.4,0.1,0.6c0,0.1-0.1,0.2-0.2,0.2
	C152.5,44.6,152.4,44.6,152.3,44.6L152.3,44.6z M58.7,39c-0.1,0-0.2,0-0.2,0c-0.1,0-0.1-0.1-0.2-0.2c-0.1-0.1-0.1-0.1-0.1-0.2
	c0-0.1,0-0.2,0-0.2c0-0.1,0.1-0.2,0.2-0.3c1.3-1.3,2.7-2.6,4.1-3.8c0.1-0.1,0.3-0.1,0.4-0.1c0.1,0,0.3,0.1,0.4,0.2
	c0.1,0.1,0.1,0.2,0.1,0.4c0,0.1-0.1,0.3-0.2,0.4c-1.4,1.2-2.8,2.5-4,3.8C59,38.9,58.9,39,58.7,39L58.7,39z M144.7,36.4
	c-0.1,0-0.3,0-0.4-0.1c-1.4-1.2-2.8-2.4-4.3-3.5c-0.1-0.1-0.2-0.2-0.2-0.4c0-0.1,0-0.2,0-0.3s0.1-0.2,0.2-0.2
	c0.1-0.1,0.2-0.1,0.3-0.1s0.2,0,0.3,0.1c1.5,1.1,3,2.3,4.4,3.6c0.1,0.1,0.1,0.2,0.2,0.3c0,0.2,0,0.5-0.2,0.6
	C144.9,36.4,144.8,36.4,144.7,36.4L144.7,36.4z M67.2,31.8c-0.1,0-0.2-0.1-0.3-0.1c-0.1-0.1-0.1-0.1-0.2-0.2c-0.1-0.2-0.1-0.4,0-0.5
	c0-0.1,0.1-0.1,0.2-0.2c1.5-1.1,3.1-2.1,4.8-3c0.1,0,0.1-0.1,0.2-0.1s0.2,0,0.2,0c0.1,0,0.1,0.1,0.2,0.1s0.1,0.1,0.2,0.2
	c0,0.1,0.1,0.1,0.1,0.2c0,0.2,0,0.3-0.1,0.4c0,0.1-0.1,0.1-0.2,0.1c-1.6,0.9-3.2,1.9-4.7,3C67.4,31.8,67.3,31.8,67.2,31.8L67.2,31.8
	z M135.8,29.7c-0.1,0-0.2,0-0.3-0.1c-1.6-1-3.2-1.9-4.8-2.7c-0.1,0-0.1-0.1-0.2-0.1c-0.1-0.1-0.1-0.1-0.1-0.2s0-0.1,0-0.2
	s0-0.1,0-0.2s0.1-0.1,0.1-0.2c0.1-0.1,0.2-0.2,0.4-0.2c0.1,0,0.2,0,0.2,0h0.1c1.7,0.8,3.3,1.8,4.9,2.8c0.1,0.1,0.2,0.2,0.2,0.3
	c0,0.1,0,0.2,0,0.4c0,0.1-0.1,0.2-0.2,0.3C136,29.6,135.9,29.6,135.8,29.7L135.8,29.7z M76.9,26.2c-0.1,0-0.2-0.1-0.3-0.1
	c-0.1-0.1-0.1-0.1-0.2-0.2c0-0.1,0-0.2,0-0.3c0-0.1,0-0.2,0.1-0.3c0.1-0.1,0.1-0.1,0.2-0.2c1.7-0.8,3.4-1.5,5.2-2.1
	c0.1,0,0.3,0,0.4,0c0.1,0.1,0.2,0.2,0.3,0.3c0,0.1,0,0.3,0,0.4c-0.1,0.1-0.2,0.2-0.3,0.3c-1.7,0.6-3.4,1.3-5.1,2.1
	C77.1,26.1,77,26.1,76.9,26.2L76.9,26.2z M125.8,24.7c-0.1,0-0.1,0-0.2,0c-1.7-0.7-3.5-1.3-5.2-1.8c-0.1-0.1-0.2-0.2-0.3-0.3
	c0-0.1,0-0.3,0-0.4c0.1-0.3,0.4-0.4,0.7-0.4c1.8,0.5,3.6,1.1,5.3,1.8c0.1,0.1,0.2,0.1,0.3,0.2c0,0.1,0,0.3,0,0.4s-0.1,0.2-0.2,0.3
	C126,24.7,125.9,24.7,125.8,24.7L125.8,24.7z M87.4,22.4c-0.1,0-0.3-0.1-0.4-0.1c-0.1-0.1-0.2-0.2-0.2-0.4c0-0.1,0-0.3,0.1-0.4
	s0.2-0.2,0.3-0.2c1.8-0.5,3.7-0.9,5.5-1.2c0.1,0,0.3,0,0.4,0.1s0.2,0.2,0.2,0.3c0,0.1,0,0.3-0.1,0.4s-0.2,0.2-0.3,0.3h-0.1
	c-1.8,0.3-3.6,0.7-5.4,1.1V22.4L87.4,22.4z M115.1,21.5L115.1,21.5c-1.9-0.4-3.7-0.6-5.6-0.8c-0.1,0-0.2,0-0.2,0
	c-0.1,0-0.1-0.1-0.2-0.1c-0.1-0.1-0.1-0.2-0.1-0.3c0-0.1,0-0.2,0.1-0.3c0-0.1,0.1-0.1,0.2-0.2c0.1,0,0.1-0.1,0.2-0.1s0.2,0,0.2,0
	c1.9,0.2,3.7,0.5,5.6,0.8c0.1,0,0.3,0.1,0.3,0.2c0.1,0.1,0.1,0.2,0.1,0.4c0,0.1-0.1,0.3-0.2,0.4C115.4,21.5,115.2,21.6,115.1,21.5
	L115.1,21.5z M98.4,20.5c-0.1,0-0.3-0.1-0.4-0.2s-0.2-0.2-0.2-0.4c0-0.1,0-0.3,0.1-0.4s0.2-0.2,0.4-0.2c1.9-0.1,3.8-0.2,5.6-0.2
	c0.1,0,0.3,0.1,0.4,0.2s0.2,0.2,0.2,0.4c0,0.1-0.1,0.3-0.2,0.4s-0.2,0.2-0.4,0.2l0,0C102.1,20.4,100.3,20.4,98.4,20.5L98.4,20.5z"/>
<path class="st2" d="M149,124.5c-0.1,0-0.2,0-0.3-0.1s-0.1-0.1-0.2-0.2c0-0.1-0.1-0.1-0.1-0.2s0-0.2,0-0.2c0-0.1,0.1-0.1,0.1-0.2
	c0.6-0.7,1.3-1.4,1.9-2.1c0-0.1,0.1-0.1,0.1-0.2c0.1,0,0.1-0.1,0.2-0.1c0.1,0,0.1,0,0.2,0c0.1,0,0.1,0,0.2,0.1
	c0.1,0.1,0.2,0.2,0.2,0.3c0,0.1,0,0.2,0,0.3c0,0.1,0,0.1-0.1,0.2c0,0,0,0.1-0.1,0.1c-0.6,0.7-1.2,1.4-1.9,2.2
	C149.1,124.5,149.1,124.5,149,124.5C149.1,124.5,149,124.5,149,124.5L149,124.5z"/>
<path class="st2" d="M161.7,176H44.4c-0.1,0-0.3,0-0.4-0.1c-0.1-0.1-0.2-0.2-0.2-0.4c0-0.1,0-0.3,0.1-0.4c0.1-0.1,0.2-0.2,0.4-0.2
	h117.4c0.1,0,0.3,0.1,0.4,0.2c0.1,0.1,0.2,0.2,0.1,0.4c0,0.1-0.1,0.3-0.1,0.4C162,175.9,161.8,176,161.7,176L161.7,176z"/>
<path class="st3" d="M70.3,19c-0.1,0-0.3-0.1-0.4-0.2s-0.2-0.3-0.2-0.4c0-0.7-0.1-1.4-0.4-2s-0.7-1.2-1.1-1.7
	c-0.5-0.5-1.1-0.9-1.7-1.1c-0.6-0.3-1.3-0.4-2-0.4l0,0c-0.1,0-0.3,0-0.4-0.1s-0.2-0.2-0.2-0.4c0-0.1,0-0.3,0.1-0.4
	c0.1-0.1,0.2-0.2,0.4-0.2h0.1c2.9,0,5.2-2.3,5.2-5.2l0,0c0-0.1,0-0.3,0.1-0.4s0.2-0.2,0.4-0.2c0.2,0,0.3,0,0.4,0.1s0.2,0.2,0.2,0.4
	v0.1c0,2.9,2.3,5.2,5.2,5.2l0,0c0.1,0,0.3,0.1,0.4,0.2c0.1,0.1,0.2,0.2,0.2,0.4c0,0.1-0.1,0.3-0.2,0.4c-0.1,0.1-0.2,0.2-0.4,0.2
	c-1.4,0-2.7,0.6-3.7,1.5c-0.5,0.5-0.9,1.1-1.1,1.7c-0.3,0.6-0.4,1.3-0.4,2C70.9,18.7,70.6,19,70.3,19L70.3,19z M67.2,12.6
	c1.4,0.6,2.5,1.8,3.2,3.2c0.9-1.4,0.7-1.2,1.3-1.8c0.5-0.6,1.1-1.1,1.9-1.3c-0.7-0.2-1.4-0.6-1.9-1.1c-0.6-0.6-1-1.2-1.3-2
	C69.7,10.9,68.6,12,67.2,12.6L67.2,12.6z"/>
<path class="st4" d="M48.6,22v-0.6V22L48.6,22z M48.6,22c-0.4,0-0.8,0-1.2-0.1l0.3-1.1c0.3,0.1,0.6,0.1,0.9,0.1V22z M49.8,21.8
	l-0.3-1.1c0.3-0.1,0.6-0.2,0.8-0.4l0.6,1C50.6,21.6,50.2,21.7,49.8,21.8z M46.3,21.4c-0.4-0.2-0.7-0.5-1-0.7l0.8-0.8
	c0.2,0.2,0.5,0.4,0.7,0.6L46.3,21.4z M51.9,20.6l-0.8-0.8c0.2-0.2,0.4-0.5,0.6-0.7l1,0.6C52.5,20,52.2,20.4,51.9,20.6L51.9,20.6z
	 M44.6,19.7c-0.2-0.4-0.4-0.7-0.5-1.1l1.1-0.3c0.1,0.3,0.2,0.6,0.4,0.9L44.6,19.7z M53.1,18.5L52,18.2c0.1-0.3,0.1-0.6,0.1-0.9h1.1
	l0,0C53.3,17.7,53.2,18.1,53.1,18.5L53.1,18.5z M44,17.3L44,17.3c0-0.4,0.1-0.8,0.2-1.2l1.1,0.3c-0.1,0.3-0.1,0.6-0.1,0.9L44,17.3z
	 M52.1,16.3c-0.1-0.3-0.2-0.6-0.4-0.9l1-0.6c0.2,0.3,0.3,0.7,0.4,1.1L52.1,16.3z M45.6,15.5l-1-0.6c0.2-0.4,0.4-0.7,0.7-1l0.8,0.8
	C45.9,15,45.7,15.2,45.6,15.5L45.6,15.5z M51.1,14.7c-0.2-0.2-0.5-0.4-0.7-0.6l0.5-1c0.4,0.2,0.7,0.4,1,0.7L51.1,14.7z M46.9,14.2
	l-0.6-1c0.3-0.2,0.7-0.4,1.1-0.5l0.3,1.1C47.4,13.9,47.1,14,46.9,14.2L46.9,14.2z M49.5,13.8c-0.3-0.1-0.6-0.1-0.9-0.1v-1.1l0,0
	c0.4,0,0.8,0.1,1.2,0.1L49.5,13.8z"/>
<path class="st5" d="M71.6,79.3v-2.7h-2.7V82h2.7V79.3z"/>
<path class="st5" d="M68.9,109.1v2.7h5.4v-2.7H68.9z"/>
<path class="st3" d="M42.9,33.1c-0.1,0-0.2,0-0.2-0.1c-0.1,0-0.1-0.1-0.2-0.2c-0.1-0.1-0.1-0.1-0.1-0.2c0-0.1,0-0.2,0-0.2
	c0-0.1,0.1-0.2,0.2-0.3l1.5-1.5c0.1-0.1,0.2-0.1,0.4-0.1c0.1,0,0.3,0.1,0.4,0.2c0.1,0.1,0.2,0.2,0.2,0.4c0,0.1,0,0.3-0.1,0.4
	L43.3,33C43.2,33.1,43.1,33.2,42.9,33.1L42.9,33.1z"/>
<path class="st3" d="M40.8,33.1c-0.2,0-0.3-0.1-0.4-0.2l-1.5-1.5c-0.2-0.3-0.1-0.6,0.1-0.8c0.1-0.1,0.2-0.1,0.3-0.1s0.3,0,0.4,0.1
	l1.5,1.5c0.1,0.1,0.1,0.2,0.2,0.3c0,0.2,0,0.3-0.1,0.5c-0.1,0.1-0.1,0.1-0.2,0.2C41,33.1,40.9,33.2,40.8,33.1L40.8,33.1z"/>
<path class="st3" d="M39.3,36.7c-0.1,0-0.2,0-0.3-0.1c-0.1,0-0.1-0.1-0.2-0.2c0-0.1-0.1-0.2-0.1-0.2c0-0.1,0-0.2,0-0.2
	c0-0.1,0.1-0.1,0.1-0.2l1.5-1.5c0.1-0.1,0.2-0.1,0.4-0.1c0.3,0,0.5,0.3,0.5,0.5c0,0.1,0,0.3-0.1,0.4l-1.5,1.5
	c-0.1,0.1-0.1,0.1-0.2,0.1C39.5,36.7,39.4,36.7,39.3,36.7L39.3,36.7z"/>
<path class="st3" d="M44.4,36.7c-0.1,0-0.3-0.1-0.4-0.2L42.5,35c-0.2-0.2-0.1-0.5,0.1-0.8c0.1-0.1,0.2-0.2,0.4-0.2
	c0.1,0,0.3,0,0.4,0.1l1.5,1.5c0.1,0.1,0.2,0.2,0.2,0.3s0,0.2,0,0.3C44.9,36.5,44.7,36.7,44.4,36.7L44.4,36.7z"/>
<path class="st0" d="M112.6,206l-3.5-9c0,0-9.4-7.1-14.4-14.2s-7.9-11.9-10.4-19.1l-1.5-4.5h40.9c0,0,12-0.6,13.1-12.8v-28.6
	c0,0,7.4,20,8.7,23.7s2.8,14.2,2.6,18.2s-0.4,8.8-0.4,8.8l-0.8,15.5l3.2,9.2c0,0-8.8,5.8-18,7.2c-3.3,1.2-6.7,1.9-10.2,2
	C119.3,202.5,112.6,206,112.6,206z"/>
<path class="st2" d="M112.4,206c-0.1,0-0.2,0-0.3-0.1c-0.1-0.1-0.2-0.2-0.2-0.3l-3.3-8.2c-28.2-21.6-27.8-47.7-27.8-48
	c0-0.2,0.1-0.3,0.2-0.4c0.1-0.1,0.2-0.2,0.4-0.2h51v-41.2c0-0.1,0-0.3,0.1-0.3c0.1-0.1,0.2-0.2,0.3-0.2s0.3,0,0.4,0.1
	c0.1,0.1,0.2,0.2,0.3,0.3l10.5,28.4c3.4,9.1,4.8,18.8,4.2,28.4l-1.1,19.5l3.2,8.9c0.1,0.3,0,0.6-0.3,0.7c-0.1,0.1-0.3,0.1-0.4,0
	c-0.1,0-0.3-0.1-0.3-0.3V193l-3.2-9c0-0.1,0-0.2,0-0.2l1.1-19.6c0.6-9.5-0.8-19.1-4.2-28l-9.4-25.4v38.6c0,0.2-0.1,0.3-0.2,0.4
	c-0.1,0.1-0.3,0.2-0.4,0.2H82c0.1,3.9,1.8,27,27.4,46.6c0.1,0.1,0.1,0.1,0.2,0.2l3.3,8.4c0.1,0.1,0.1,0.3,0,0.4
	c-0.1,0.1-0.2,0.2-0.3,0.3C112.5,206,112.5,206,112.4,206L112.4,206z"/>
<path class="st3" d="M86.7,93.4c0,0-12.1-3.2-17.1-3.8s-10.7,10.1,1.7,14c4.5,1.5,9,2.8,13.6,3.8h0.3L86.7,93.4z"/>
<path class="st2" d="M85.2,108h-0.3c-0.3,0-4-0.7-13.8-3.8c-5.5-1.7-8.3-5.2-7.7-9.3c0.5-3.4,3.5-6.2,6.3-5.8
	c4.9,0.6,16.7,3.7,17.2,3.8c0.1,0,0.2,0.1,0.3,0.2c0.1,0.1,0.1,0.3,0.1,0.4l-1.5,14c0,0.1-0.1,0.3-0.2,0.4
	C85.4,107.9,85.3,108,85.2,108L85.2,108z M69.2,90.2c-2.1,0-4.3,2.2-4.7,4.9c-0.3,1.7-0.1,5.8,6.9,8c8.3,2.6,12.3,3.5,13.2,3.7
	l1.4-13c-2.3-0.6-12.2-3.1-16.5-3.6C69.4,90.2,69.3,90.2,69.2,90.2L69.2,90.2z"/>
<path class="st3" d="M85.7,113.6c0,0-12.1-3.2-17.1-3.8s-10.7,10.1,1.7,14c4.5,1.5,9,2.8,13.6,3.8h0.3L85.7,113.6z"/>
<path class="st2" d="M84.2,128.1h-0.3c-4.7-1-9.2-2.3-13.8-3.8c-5.5-1.7-8.3-5.2-7.7-9.3c0.5-3.4,3.5-6.2,6.3-5.8
	c4.9,0.6,16.7,3.7,17.2,3.8c0.1,0,0.2,0.1,0.3,0.2c0.1,0.1,0.1,0.2,0.1,0.4l-1.5,14c0,0.1-0.1,0.3-0.2,0.4
	C84.4,128.1,84.3,128.1,84.2,128.1L84.2,128.1z M68.2,110.3c-2.1,0-4.3,2.2-4.7,4.9c-0.3,1.7-0.1,5.8,7,8c8.3,2.6,12.2,3.5,13.2,3.7
	L85,114c-2.3-0.6-12.2-3.1-16.5-3.6L68.2,110.3L68.2,110.3z"/>
<path class="st3" d="M88,128.1c0,0-12.1-3.2-17.1-3.8s-10.7,10.1,1.7,14c4.5,1.5,9,2.8,13.6,3.8h0.3L88,128.1z"/>
<path class="st2" d="M86.5,142.7h-0.3c-4.7-1-9.2-2.3-13.8-3.8c-5.5-1.7-8.3-5.2-7.7-9.3c0.5-3.4,3.5-6.2,6.3-5.8
	c4.9,0.6,16.7,3.7,17.2,3.8c0.1,0,0.2,0.1,0.3,0.2c0.1,0.1,0.1,0.2,0.1,0.4l-1.5,14c0,0.1-0.1,0.3-0.2,0.4
	C86.8,142.6,86.7,142.7,86.5,142.7L86.5,142.7z M70.5,124.9c-2.1,0-4.3,2.2-4.7,4.9c-0.3,1.7-0.1,5.8,7,8c8.3,2.6,12.2,3.5,13.2,3.7
	l1.4-13c-2.3-0.6-12.2-3.1-16.5-3.6C70.8,124.8,70.7,124.8,70.5,124.9L70.5,124.9z"/>
<path class="st4" d="M35.3,175.8H22.5c-0.1,0-0.3-0.1-0.4-0.2c-0.1-0.1-0.2-0.2-0.1-0.4c0-0.1,0.1-0.3,0.1-0.4
	c0.1-0.1,0.2-0.2,0.4-0.2h12.8c0.1,0,0.3,0.1,0.4,0.2c0.1,0.1,0.2,0.2,0.2,0.4c0,0.1-0.1,0.3-0.2,0.4
	C35.5,175.7,35.4,175.8,35.3,175.8z"/>
<path class="st4" d="M175.9,176h-4.3c-0.1,0-0.3-0.1-0.4-0.2c-0.1-0.1-0.2-0.2-0.1-0.4c0-0.1,0.1-0.3,0.1-0.4
	c0.1-0.1,0.2-0.2,0.4-0.2h4.3c0.1,0,0.2,0,0.2,0c0.1,0,0.1,0.1,0.2,0.1c0.1,0.1,0.1,0.1,0.1,0.2c0.1,0.1,0.1,0.3,0,0.4
	c0,0.1-0.1,0.1-0.1,0.2c0,0.1-0.1,0.1-0.2,0.1C176.1,176,176,176,175.9,176L175.9,176z"/>
<path class="st1" d="M136.8,146.4v-30.5l-3.8-10.2v41.8H81.5c0.3,4.6,1.1,9.2,2.4,13.6c0.4,0,0.8,0.1,1.3,0.1H122
	C130.2,161.2,136.8,154.5,136.8,146.4L136.8,146.4L136.8,146.4z"/>
<path class="st6" d="M122,35.8H85.1c-6,0-11.4,3.6-13.7,9.2c-0.7,1.8-1.1,3.7-1.1,5.7v93.7c0,8.2,6.6,14.8,14.8,14.8l0,0H122
	c8.2,0,14.8-6.6,14.8-14.8l0,0V50.6C136.8,42.5,130.2,35.9,122,35.8z"/>
<path class="st4" d="M122,157.2H85.1c-8.2,0-14.8-6.6-14.8-14.8l0,0v2c0,8.2,6.6,14.8,14.8,14.8l0,0H122c8.2,0,14.8-6.6,14.8-14.8
	l0,0v-2C136.8,150.6,130.2,157.2,122,157.2L122,157.2z"/>
<path class="st3" d="M122,35.8H85.1c-6,0-11.4,3.6-13.7,9.2c-0.7,1.8-1.1,3.7-1.1,5.7v1c0-8.2,6.6-14.8,14.8-14.8H122
	c6,0,11.3,3.6,13.6,9.1c0.7,1.8,1.1,3.7,1.1,5.7v-1C136.8,42.5,130.2,35.9,122,35.8z"/>
<path class="st7" d="M129.5,52.3H77.6c-0.6,0-1.2,0.2-1.7,0.7c-0.4,0.4-0.7,1-0.7,1.7v91c0,1.3,1.1,2.4,2.4,2.4l0,0h51.9
	c1.3,0,2.4-1.1,2.4-2.4v-91c0-0.6-0.3-1.2-0.7-1.7C130.7,52.5,130.1,52.3,129.5,52.3z"/>
<path class="st4" d="M129.5,148.6H77.6c-1.6,0-2.9-1.3-2.9-2.9v-91c0-1.6,1.3-2.9,2.9-2.9l0,0h51.9c1.6,0,2.9,1.3,2.9,2.9v91
	C132.4,147.3,131.1,148.6,129.5,148.6L129.5,148.6z M77.6,52.8c-1,0-1.8,0.8-1.8,1.8l0,0v91c0,1,0.8,1.8,1.8,1.8h51.9
	c0.5,0,0.9-0.2,1.3-0.5c0.3-0.3,0.5-0.8,0.5-1.3v-91c0-0.2,0-0.5-0.1-0.7s-0.2-0.4-0.4-0.6c-0.2-0.2-0.4-0.3-0.6-0.4
	c-0.2-0.1-0.4-0.1-0.7-0.1L77.6,52.8z"/>
<path class="st3" d="M122,159.8H85.1c-8.5,0-15.4-6.9-15.4-15.4V50.7c0-8.5,6.9-15.4,15.4-15.4h26.2c0.1,0,0.1,0,0.2,0
	s0.1,0.1,0.2,0.1s0.1,0.1,0.1,0.2c0,0.1,0.1,0.1,0.1,0.2c0,0.1,0,0.1,0,0.2c0,0.1-0.1,0.1-0.1,0.2c0,0.1-0.1,0.1-0.2,0.1
	s-0.1,0.1-0.2,0.1H85.1c-7.9,0-14.2,6.4-14.2,14.2l0,0v93.7c0,7.9,6.4,14.2,14.2,14.2h36.8c7.9,0,14.2-6.4,14.2-14.2V50.6
	c0-7.9-6.4-14.2-14.2-14.2h-5.5c-0.1,0-0.3-0.1-0.4-0.2c-0.2-0.2-0.2-0.5,0-0.8c0.1-0.1,0.2-0.2,0.4-0.2h5.5
	c8.5,0,15.4,6.9,15.4,15.4v93.7C137.3,152.9,130.4,159.7,122,159.8L122,159.8z"/>
<path class="st2" d="M105.4,42.3c0,0.4-0.1,0.9-0.4,1.2s-0.7,0.6-1.1,0.7c-0.4,0.1-0.9,0-1.3-0.2s-0.7-0.5-0.8-0.9
	c-0.2-0.4-0.2-0.9-0.1-1.3c0.1-0.4,0.4-0.8,0.8-1s0.8-0.4,1.2-0.3c0.4,0,0.8,0.2,1.2,0.5C105.2,41.3,105.4,41.8,105.4,42.3z"/>
<path class="st2" d="M110.9,47.5H96.2c-0.1,0-0.3-0.1-0.4-0.2c-0.2-0.2-0.2-0.6,0-0.8c0.1-0.1,0.2-0.2,0.4-0.2H111
	c0.1,0,0.3,0.1,0.4,0.2c0.2,0.2,0.2,0.6,0,0.8C111.2,47.5,111.1,47.5,110.9,47.5z"/>
<path class="st4" d="M79.4,55.6c0,0.2-0.1,0.4-0.2,0.5c-0.1,0.2-0.3,0.3-0.5,0.3s-0.4,0-0.6-0.2c-0.2-0.1-0.3-0.3-0.3-0.5
	s0-0.3,0-0.5c0.1-0.2,0.2-0.3,0.4-0.4c0.2-0.1,0.4-0.1,0.5-0.1c0.2,0,0.3,0.1,0.5,0.3C79.3,55.2,79.4,55.4,79.4,55.6L79.4,55.6z"/>
<path class="st4" d="M81.9,55.6c0,0.2-0.1,0.4-0.2,0.5s-0.3,0.3-0.5,0.3s-0.4,0-0.5-0.1c-0.2-0.1-0.3-0.2-0.4-0.4s-0.1-0.4,0-0.5
	c0.1-0.2,0.2-0.3,0.3-0.5c0.2-0.1,0.3-0.1,0.5-0.1s0.4,0.1,0.5,0.2C81.8,55.2,81.9,55.4,81.9,55.6L81.9,55.6z"/>
<path class="st4" d="M84.3,55.6c0,0.2-0.1,0.4-0.2,0.5s-0.3,0.3-0.5,0.3c-0.4,0.1-0.8-0.1-0.9-0.5c-0.1-0.2-0.1-0.4,0-0.5
	c0.1-0.4,0.5-0.6,0.9-0.6c0.2,0,0.4,0.1,0.5,0.2C84.3,55.2,84.4,55.4,84.3,55.6L84.3,55.6z"/>
<path class="st4" d="M93.5,56.1h-6.3c-0.1,0-0.3-0.1-0.4-0.2c-0.1-0.1-0.2-0.2-0.2-0.4c0-0.3,0.2-0.5,0.5-0.6h6.3c0.1,0,0.1,0,0.2,0
	s0.3,0.1,0.3,0.3c0,0.1,0.1,0.1,0.1,0.2c0,0.1,0,0.3-0.1,0.4c-0.1,0.1-0.1,0.1-0.2,0.2C93.6,56,93.6,56.1,93.5,56.1L93.5,56.1z"/>
<path class="st4" d="M126.7,57h-4.9c-0.1,0-0.3-0.1-0.4-0.2c-0.1-0.1-0.2-0.3-0.2-0.4v-1.7c0-0.3,0.3-0.6,0.6-0.6h4.9
	c0.1,0,0.1,0,0.2,0s0.1,0.1,0.2,0.1c0.1,0.1,0.2,0.3,0.2,0.4v1.6c0,0.1,0,0.1,0,0.2c-0.1,0.1-0.2,0.3-0.3,0.3c-0.1,0-0.1,0-0.2,0
	L126.7,57z M122.3,55.9h3.7v-0.5h-3.7V55.9z"/>
<path class="st4" d="M127.7,55.1h-1v1h1V55.1z"/>
<path class="st3" d="M86.3,39.3h-1.4c-0.1,0-0.1,0-0.2,0s-0.1-0.1-0.2-0.1s-0.1-0.1-0.1-0.2c-0.1-0.1-0.1-0.3,0-0.4
	c0-0.1,0.1-0.2,0.2-0.3s0.2-0.1,0.3-0.1h1.5c0.1,0,0.1,0,0.2,0s0.1,0.1,0.2,0.1s0.1,0.1,0.2,0.2c0,0.1,0,0.1,0.1,0.2
	c0,0.2,0,0.3-0.1,0.4c-0.1,0.1-0.2,0.2-0.4,0.2L86.3,39.3z"/>
<path class="st3" d="M96.7,39.3h-7.6c-0.1,0-0.3-0.1-0.4-0.2c-0.1-0.1-0.1-0.2-0.1-0.4c0-0.3,0.2-0.5,0.5-0.6h7.6c0.1,0,0.2,0,0.2,0
	c0.1,0,0.1,0.1,0.2,0.1s0.1,0.1,0.1,0.2c0,0.1,0.1,0.1,0.1,0.2c0,0.1,0,0.1,0,0.2c0,0.1-0.1,0.1-0.1,0.2
	C97.1,39.1,97,39.2,96.7,39.3L96.7,39.3z"/>
<path class="st8" d="M107.7,153.4h-8.3c-0.1,0-0.1,0-0.2,0s-0.1-0.1-0.2-0.1c-0.1-0.1-0.1-0.1-0.1-0.2c0-0.1-0.1-0.1-0.1-0.2
	c0-0.1,0-0.2,0-0.2c0-0.1,0.1-0.1,0.1-0.2c0.1-0.1,0.1-0.1,0.2-0.1s0.1-0.1,0.2-0.1h8.4c0.1,0,0.3,0.1,0.4,0.2
	c0.2,0.2,0.2,0.5,0,0.8C107.9,153.4,107.8,153.5,107.7,153.4L107.7,153.4z"/>
<path class="st3" d="M143,152.1c0,0-6.6-23.4-10-26.4s-19.9-8.9-23.7-10.3c-5.7-2.1-11.7,7.2-4.3,12.8c6.6,5,12.4,10.6,12.4,10.6
	l1.2,16.5c-7.6,9.5-9.6,22.2-5.5,33.6L143,152.1z"/>
<path class="st3" d="M112.4,188.4c0,0,1.3,11.8,13.7,12.4c12,0.6,23.9-7.3,23.9-7.3l-2.8-9.7l0.5-15.3c0,0-3.5-14.4-4.7-16.4
	s-5.6,2.7-5.6,2.7l-23.1,25.5c0,0-2.1-1.1-2.2-0.8C111.2,180.8,111.6,187.1,112.4,188.4z"/>
<path class="st2" d="M127.4,201.4c-2.1,0-4.2-0.3-6.2-1.1c-4.3-1.7-7.3-5.3-8.8-10.7c-3.8-13.4-1.8-25,5.8-34.6
	c0-0.1,0.1-0.1,0.1-0.1l0.2-0.1c0.1,0,0.1,0,0.2,0s0.1,0.1,0.2,0.1s0.1,0.1,0.1,0.1c0,0.1,0,0.1,0.1,0.2c0,0.1,0,0.1,0,0.2
	c0,0.1,0,0.1-0.1,0.2l0,0c-7.4,9.3-9.3,20.7-5.7,33.7c1.4,5.1,4.2,8.6,8.2,10.1c10.2,3.9,25.4-4.9,27.8-6.4l-3.1-9.1
	c0-0.1,0-0.1,0-0.2l0.9-14.8c-0.5-2.3-1.1-4.7-1.9-6.9c-0.3-1-0.6-2-0.8-2.8c-0.8-2.8-3.3-12-3.3-12.1s0-0.1,0-0.2
	c0-0.1,0-0.1,0.1-0.2c0-0.1,0.1-0.1,0.1-0.1c0.1,0,0.1-0.1,0.2-0.1c0.1,0,0.1,0,0.2,0c0.1,0,0.1,0,0.2,0c0.1,0,0.1,0.1,0.1,0.1
	s0.1,0.1,0.1,0.2l0,0c0,0.1,2.5,9.3,3.3,12.1c0.2,0.8,0.5,1.7,0.8,2.7c0.8,2.3,1.4,4.7,1.9,7.1v0.1l-0.9,14.7l3.2,9.3
	c0,0.1,0,0.2,0,0.3s-0.1,0.2-0.2,0.2C149.6,194,138,201.4,127.4,201.4z"/>
<path class="st2" d="M113.1,189.5c-0.1,0-0.2,0-0.3-0.1c-0.1-0.1-0.2-0.2-0.2-0.3c-4.1-11.5-2-24.3,5.5-34l-1.2-16
	c-1-0.9-6.3-5.9-12.2-10.4c-4.4-3.4-4.2-7.8-2.7-10.5c1.6-3,4.7-4.3,7.5-3.3l0.9,0.3c8.5,3.1,20.1,7.5,23,10.1
	c3.4,3.1,9.9,25.8,10.1,26.7c0,0.1,0,0.3-0.1,0.4c-0.1,0.1-0.2,0.2-0.3,0.3c-0.1,0-0.3,0-0.4,0c-0.1-0.1-0.2-0.2-0.3-0.3
	c-1.8-6.5-7.2-23.8-9.8-26.2c-3-2.8-17.8-8.1-22.6-9.8l-0.9-0.3c-2.6-1-5,0.8-6.2,2.8c-1.3,2.3-1.4,6.1,2.4,9
	c6.5,5,12.4,10.6,12.4,10.6c0.1,0.1,0.2,0.2,0.2,0.4l1.2,16.5c0,0.1,0,0.1,0,0.2c0,0.1-0.1,0.1-0.1,0.2c-7.4,9.4-9.4,21.9-5.4,33.1
	c0,0.1,0,0.1,0,0.2c0,0.1,0,0.1-0.1,0.2c-0.1,0.1-0.2,0.2-0.3,0.3L113.1,189.5L113.1,189.5z"/>
<g>
	<path class="st9" d="M103.5,105.1c-10.3,0-18.6-8.3-18.6-18.6c0-10.3,8.3-18.6,18.6-18.6c10.3,0,18.6,8.3,18.6,18.6c0,0,0,0,0,0
		l0,0C122.1,96.8,113.8,105.1,103.5,105.1z"/>
	<path class="st3" d="M110.1,90.4c0.1,0.1,0.3,0.3,0.3,0.5c0.1,0.2,0.1,0.4,0.1,0.6c0,0.2,0,0.4-0.1,0.6c-0.1,0.2-0.2,0.3-0.3,0.5
		c-0.1,0.1-0.3,0.3-0.5,0.3c-0.2,0.1-0.4,0.1-0.6,0.1c-0.2,0-0.4,0-0.6-0.1c-0.2-0.1-0.3-0.2-0.5-0.3l-4.4-4.4l-4.4,4.4
		c-0.3,0.3-0.7,0.4-1.1,0.4c-0.8,0-1.5-0.7-1.5-1.5c0,0,0,0,0,0c0-0.2,0-0.4,0.1-0.6c0.1-0.2,0.2-0.3,0.3-0.5l4.4-4.4l-4.4-4.4
		c-0.1-0.1-0.3-0.3-0.3-0.5c-0.1-0.2-0.1-0.4-0.1-0.6c0-0.8,0.7-1.5,1.5-1.5c0.4,0,0.8,0.2,1.1,0.4l4.4,4.4l4.4-4.4
		c0.1-0.1,0.3-0.3,0.5-0.3c0.4-0.2,0.8-0.2,1.2,0c0.2,0.1,0.3,0.2,0.5,0.3c0.3,0.3,0.4,0.7,0.4,1.1c0,0.2,0,0.4-0.1,0.6
		c-0.1,0.2-0.2,0.4-0.3,0.5l-4.4,4.4L110.1,90.4z"/>
</g>
</svg>
