<?xml version="1.0" encoding="utf-8"?>
<!-- Generator: Adobe Illustrator 25.2.0, SVG Export Plug-In . SVG Version: 6.00 Build 0)  -->
<svg version="1.1" id="artwork" xmlns="http://www.w3.org/2000/svg" xmlns:xlink="http://www.w3.org/1999/xlink" x="0px" y="0px"
	 viewBox="0 0 216 216" style="enable-background:new 0 0 216 216;" xml:space="preserve">
<style type="text/css">
	.st0{fill:#C6B6FF;}
	.st1{fill:#494949;}
	.st2{fill:#FFFFFF;}
	.st3{fill:none;stroke:#F3603F;stroke-width:2.48;stroke-linecap:round;}
	.st4{fill:#7C4DFF;}
	.st5{fill:none;stroke:#C05EFD;stroke-width:0.83;}
	.st6{fill:#FF94B4;}
	.st7{fill:none;stroke:#E94235;stroke-width:0.83;}
	.st8{opacity:0.1;fill:#E94235;enable-background:new    ;}
	.st9{opacity:0.2;fill:#E94235;enable-background:new    ;}
	.st10{fill:#666666;}
	.st11{fill:#53B175;}
	.st12{fill:none;stroke:#C6A7F8;stroke-width:3;stroke-linecap:round;stroke-linejoin:round;}
	.st13{fill:#FFFFFF;stroke:#494949;stroke-linecap:round;stroke-linejoin:round;}
	.st14{fill-rule:evenodd;clip-rule:evenodd;fill:#C6B6FF;}
	.st15{fill-rule:evenodd;clip-rule:evenodd;fill:#FFFFFF;}
	.st16{fill:none;stroke:#494949;stroke-linecap:round;stroke-linejoin:round;}
	.st17{opacity:0.75;enable-background:new    ;}
	.st18{opacity:0.75;fill:#C6B6FF;enable-background:new    ;}
	.st19{fill:#D3D3D3;}
	.st20{fill:#263C3B;}
	.st21{opacity:0.25;fill:#C6B6FF;enable-background:new    ;}
	.st22{fill:#1059FF;}
	.st23{fill:#F3603F;}
	.st24{fill-rule:evenodd;clip-rule:evenodd;fill:#B6B6B6;}
	.st25{fill-rule:evenodd;clip-rule:evenodd;fill:#E94235;}
	.st26{fill:none;}
	.st27{fill:#B9CEF9;}
</style>
<g>
	<path class="st0" d="M58.4,56.6l19.7,39.7l30.2-15L88.2,40.8L86.8,45l-3.9-1.3l-1.3,3.9l-3.7-1.2l-1.3,3.8L73,48.9l-1.2,3.7
		l-3.7-1.2L67,54.7l-4-1.3l-1.4,4.1l-3.2-1.1"/>
	<path class="st1" d="M86.5,44.3l-3.4-1.2c-0.1,0-0.3,0-0.4,0c-0.1,0.1-0.2,0.2-0.2,0.3l-1.2,3.5l-3.2-1.1c-0.1,0-0.3,0-0.4,0
		c-0.1,0.1-0.2,0.2-0.2,0.3l-1.1,3.3l-3.2-1.1c-0.1,0-0.3,0-0.4,0c-0.1,0.1-0.2,0.2-0.3,0.3L71.4,52l-3.2-1.1
		c-0.3-0.1-0.6,0-0.7,0.3l-1,2.9L63,52.9c-0.1,0-0.3,0-0.4,0c-0.1,0.1-0.2,0.2-0.3,0.3l-1.2,3.6l-2.7-0.9c-0.1,0-0.3,0-0.4,0H58
		c-0.1,0.1-0.2,0.1-0.2,0.2c-0.1,0.1-0.1,0.3,0,0.4v0.1l0,0.1l19.7,39.7c0.1,0.1,0.2,0.2,0.3,0.3c0.1,0,0.3,0,0.4,0l30.3-15
		c0.1-0.1,0.2-0.1,0.2-0.2c0-0.1,0-0.3,0-0.4l-20-40.4c-0.1-0.2-0.3-0.3-0.5-0.3c-0.2,0-0.4,0.1-0.4,0.3L86.5,44.3z M107.6,81
		L78.3,95.6l-19-38.3l2.1,0.7c0.1,0,0.3,0,0.4,0c0.1-0.1,0.2-0.2,0.2-0.3l1.2-3.7l3.5,1.2c0.1,0.1,0.3,0.1,0.4,0
		c0.1-0.1,0.2-0.2,0.3-0.3l1-2.9l3.2,1.1c0.3,0.1,0.5-0.1,0.6-0.3l1.1-3.2l3.2,1.1c0.1,0.1,0.3,0.1,0.4,0c0.1-0.1,0.2-0.2,0.3-0.3
		l1.1-3.3l3.2,1.1c0.3,0.1,0.6-0.1,0.7-0.3l1.2-3.5l3.4,1.2c0.3,0.1,0.5-0.1,0.6-0.3l1-3L107.6,81z"/>
	<path class="st2" d="M75.8,58L75.8,58l-9.3,4.6c-0.3,0.1-0.6,0-0.7-0.2c-0.1-0.3,0-0.6,0.2-0.7l9.3-4.6c0.3-0.1,0.6,0,0.7,0.2
		c0,0,0,0,0,0C76.1,57.5,76.1,57.8,75.8,58C75.8,58,75.8,58,75.8,58z"/>
	<path class="st1" d="M85.1,57.2C85.1,57.2,85.1,57.2,85.1,57.2L68,65.7c-0.3,0.1-0.6,0-0.7-0.2c0,0,0,0,0,0c-0.1-0.3,0-0.6,0.2-0.7
		l17.1-8.5c0.3-0.1,0.6,0,0.7,0.2C85.4,56.8,85.4,57.1,85.1,57.2z"/>
	<path class="st2" d="M89.3,55.2L89.3,55.2l-2.3,1.1c-0.3,0.1-0.6,0-0.7-0.2c0,0,0,0,0,0c-0.1-0.3,0-0.6,0.2-0.7l2.3-1.1
		c0.3-0.1,0.6,0,0.7,0.2c0,0,0,0,0,0C89.6,54.7,89.5,55,89.3,55.2z"/>
	<path class="st1" d="M76.5,67L76.5,67l-6.3,3.1c-0.3,0.1-0.6,0-0.7-0.2c-0.1-0.3,0-0.6,0.2-0.7l6.3-3c0.3-0.1,0.6,0,0.7,0.2
		c0,0,0,0,0,0C76.8,66.6,76.8,66.9,76.5,67z"/>
	<path class="st1" d="M91.5,59.6L91.5,59.6l-12.3,6.1c-0.3,0.1-0.6,0-0.7-0.2c0,0,0,0,0,0c-0.1-0.3,0-0.6,0.2-0.7l12.2-6.1
		c0.3-0.1,0.6,0,0.7,0.2C91.8,59.2,91.7,59.5,91.5,59.6z"/>
	<path class="st1" d="M87.3,69.9L87.3,69.9l-13.8,6.9c-0.3,0.1-0.6,0-0.7-0.2c-0.1-0.3,0-0.6,0.2-0.7l13.8-6.8
		c0.3-0.1,0.6,0,0.7,0.2c0,0,0,0,0,0C87.6,69.4,87.5,69.7,87.3,69.9z"/>
	<path class="st1" d="M98,72.7L98,72.7l-6.4,3.2c-0.4,0.2-0.9,0.1-1.1-0.3s-0.1-0.9,0.3-1.1c0,0,0,0,0.1,0l6.3-3.2
		c0.4-0.2,0.9-0.1,1.1,0.3S98.4,72.4,98,72.7L98,72.7L98,72.7z"/>
	<path class="st3" d="M182.2,75.1c5.1,0.5,15.6-1.1,17.5-11.5s6.8-13.2,9.1-13.3"/>
	<path class="st4" d="M16.8,155.2c-3.5,0-7-0.6-10.3-1.9c-0.5-0.2-0.8-0.8-0.6-1.3s0.8-0.8,1.3-0.6c4.6,1.7,12,2.8,17.5,0.1
		c2.9-1.4,5.1-3.8,6.3-6.8c-3.1-0.3-5.3-1.4-6.6-3.3c-1.7-2.6-1.3-6-0.3-8.4c0.1-0.4,0.5-0.6,0.9-0.6c2.4-0.3,4.8,0.6,6.5,2.4
		c1.9,2.2,2.4,5.4,2.1,8c4.9,0.4,9.7-2.1,12.2-6.3c0.3-0.5,0.9-0.6,1.4-0.4c0.5,0.3,0.6,0.9,0.4,1.4c-3,5-8.6,7.8-14.4,7.3
		c-1.3,3.7-4,6.8-7.6,8.5C22.8,154.6,19.8,155.3,16.8,155.2z M25.7,134.5c-0.6,1.8-0.8,4.2,0.4,5.9c1,1.4,2.8,2.2,5.4,2.4
		c0.2-2.1-0.1-4.8-1.6-6.5C28.8,135.1,27.3,134.4,25.7,134.5z"/>
	<path class="st4" d="M139,201.3c2.5,0,4.6-2,4.6-4.6c0-2.5-2-4.6-4.6-4.6s-4.6,2-4.6,4.6c0,0,0,0,0,0
		C134.4,199.3,136.5,201.3,139,201.3C139,201.3,139,201.3,139,201.3z"/>
	<path class="st5" d="M203.9,111.3c2.3,0,4.2-1.9,4.2-4.2s-1.9-4.2-4.2-4.2c-2.3,0-4.2,1.9-4.2,4.2c0,0,0,0,0,0
		C199.7,109.5,201.6,111.3,203.9,111.3z"/>
	<path class="st6" d="M130.6,27.1c3.7,0,6.6-3,6.6-6.6c0-3.7-3-6.6-6.6-6.6c-3.7,0-6.6,3-6.6,6.6c0,0,0,0,0,0
		C123.9,24.1,126.9,27.1,130.6,27.1C130.5,27.1,130.5,27.1,130.6,27.1z"/>
	<path class="st7" d="M38.2,96.9c3.7,0,6.6-3,6.6-6.6c0-3.7-3-6.6-6.6-6.6c-3.7,0-6.6,3-6.6,6.6c0,0,0,0,0,0
		C31.5,93.9,34.5,96.9,38.2,96.9z"/>
	<path class="st8" d="M119.2,183c36.6,0,66.4-29.7,66.4-66.4s-29.7-66.4-66.4-66.4S52.8,80,52.8,116.6l0,0
		C52.8,153.3,82.5,183,119.2,183z"/>
	<path class="st9" d="M117.2,168.1c32.6,0,59-26.4,59-58.9s-26.4-59-59-59s-59,26.4-59,59c0,0,0,0,0,0
		C58.3,141.7,84.7,168.1,117.2,168.1C117.2,168.1,117.2,168.1,117.2,168.1z"/>
	<path class="st1" d="M85.2,126.4c-0.1,0-0.2,0-0.3-0.1c-0.5-0.5-1-1-1.5-1.5c-0.1-0.1-0.1-0.2-0.1-0.3c0-0.1,0.1-0.2,0.1-0.3
		c0.1-0.1,0.2-0.1,0.3-0.1c0.1,0,0.2,0,0.3,0.1c0.5,0.5,1,1,1.4,1.5c0.1,0.1,0.1,0.1,0.1,0.2c0,0.1,0,0.2,0,0.2
		c0,0.1-0.1,0.1-0.2,0.2C85.4,126.4,85.3,126.4,85.2,126.4z"/>
	<path class="st1" d="M159.8,162.1H74.1c-0.1,0-0.1,0-0.2,0l-0.1-0.1c0,0-0.1-0.1-0.1-0.1c0-0.1,0-0.1,0-0.2c0-0.1,0-0.1,0-0.2
		c0-0.1,0-0.1,0.1-0.1c0.1-0.1,0.2-0.1,0.3-0.1h85.8c0.1,0,0.2,0.1,0.3,0.1c0.1,0.2,0.1,0.4,0,0.6
		C160,162.1,159.9,162.1,159.8,162.1z"/>
	<path class="st0" d="M59.2,196.1v-0.6V196.1L59.2,196.1z M59.2,196.1c-0.5,0-0.9-0.1-1.4-0.2l0.3-1.2c0.3,0.1,0.7,0.1,1,0.1
		L59.2,196.1z M60.6,195.9l-0.3-1.2c0.4-0.1,0.7-0.2,1-0.4l0.6,1.1C61.5,195.6,61.1,195.8,60.6,195.9z M56.5,195.4
		c-0.4-0.2-0.8-0.5-1.1-0.9l0.9-0.9c0.2,0.3,0.5,0.5,0.8,0.6L56.5,195.4z M63.1,194.5l-0.9-0.9c0.3-0.3,0.5-0.5,0.7-0.9l1.1,0.6
		C63.7,193.8,63.4,194.2,63.1,194.5z M54.6,193.4c-0.2-0.4-0.4-0.8-0.5-1.3l1.2-0.3c0.1,0.4,0.2,0.7,0.4,1L54.6,193.4z M64.4,192.1
		l-1.2-0.3c0.1-0.3,0.1-0.7,0.1-1.1l1.3-0.1v0.1C64.6,191.2,64.6,191.6,64.4,192.1L64.4,192.1z M53.8,190.7L53.8,190.7
		c0-0.5,0.1-0.9,0.2-1.4l1.2,0.3c-0.1,0.3-0.1,0.7-0.1,1L53.8,190.7z M63.2,189.6c-0.1-0.4-0.2-0.7-0.4-1l1.1-0.6
		c0.2,0.4,0.4,0.8,0.6,1.3L63.2,189.6z M55.7,188.7l-1.1-0.7c0.2-0.4,0.5-0.8,0.9-1.1l0.9,0.9C56,188,55.8,188.3,55.7,188.7z
		 M62.1,187.8c-0.3-0.3-0.5-0.5-0.9-0.6l0.6-1.1c0.4,0.2,0.8,0.5,1.1,0.9L62.1,187.8z M57.1,187.2l-0.7-1.1c0.4-0.2,0.8-0.4,1.3-0.6
		l0.3,1.2C57.8,186.8,57.4,187,57.1,187.2L57.1,187.2z M60.2,186.7c-0.3-0.1-0.7-0.1-1-0.1v-1.3l0,0c0.5,0,0.9,0.1,1.3,0.2
		L60.2,186.7z"/>
	<path class="st6" d="M191.5,141.3c0.1,0,0.3,0,0.4,0c0.2-0.1,0.3-0.2,0.4-0.3l1.3-2.3c0.1-0.2,0.1-0.3,0-0.5
		c-0.1-0.2-0.2-0.3-0.3-0.4c-0.2-0.1-0.3-0.1-0.5-0.1c-0.2,0-0.3,0.1-0.4,0.3l-1.3,2.3c-0.1,0.1-0.1,0.3-0.1,0.4
		c0,0.1,0.1,0.3,0.1,0.4C191.3,141.2,191.4,141.2,191.5,141.3z"/>
	<path class="st6" d="M189.6,140.8l-2.3-1.3c-0.2-0.1-0.3-0.1-0.5,0c-0.3,0.1-0.5,0.5-0.5,0.8c0,0.2,0.1,0.3,0.3,0.4l2.3,1.3
		c0.2,0.1,0.4,0.1,0.5,0.1c0.1,0,0.2-0.1,0.3-0.2c0.1-0.1,0.1-0.2,0.1-0.4c0-0.1,0-0.3-0.1-0.4C189.8,140.9,189.7,140.8,189.6,140.8
		z"/>
	<path class="st6" d="M189.8,143.2c-0.2,0-0.3,0.1-0.4,0.3l-1.3,2.3c-0.1,0.1-0.1,0.3-0.1,0.4c0,0.1,0.1,0.3,0.1,0.4
		c0.1,0.1,0.2,0.2,0.3,0.2c0.1,0,0.3,0,0.4,0c0.2-0.1,0.3-0.2,0.4-0.3l1.3-2.3c0.1-0.2,0.1-0.3,0-0.5c-0.1-0.2-0.2-0.3-0.3-0.4
		C190.1,143.2,190,143.2,189.8,143.2z"/>
	<path class="st6" d="M195.4,144c-0.1-0.1-0.2-0.2-0.3-0.3l-2.3-1.3c-0.2-0.1-0.3-0.1-0.5,0c-0.2,0.1-0.3,0.2-0.4,0.3
		c-0.1,0.2-0.1,0.3-0.1,0.5c0,0.2,0.1,0.3,0.3,0.4l2.3,1.3c0.2,0.1,0.4,0.1,0.5,0.1c0.1,0,0.3-0.1,0.3-0.2c0.1-0.1,0.1-0.2,0.2-0.4
		C195.5,144.3,195.5,144.1,195.4,144z"/>
	<path class="st0" d="M67.4,162h-9.4c-0.1,0-0.2-0.1-0.3-0.1c-0.1-0.1-0.1-0.2-0.1-0.3c0-0.1,0-0.2,0.1-0.3c0.1-0.1,0.2-0.1,0.3-0.1
		h9.4c0.1,0,0.2,0.1,0.3,0.1c0.1,0.2,0.1,0.4,0,0.6C67.6,161.9,67.5,162,67.4,162z"/>
	<path class="st0" d="M172.9,162.1h-5.6c-0.2,0-0.3-0.1-0.5-0.1c-0.1,0-0.2-0.2-0.2-0.3c0-0.1,0.1-0.2,0.2-0.3
		c0.1-0.1,0.3-0.1,0.5-0.1h5.6c0.2,0,0.4,0,0.5,0.1c0.1,0.1,0.2,0.2,0.3,0.3c0,0.1-0.1,0.2-0.2,0.3c-0.2,0.1-0.3,0.1-0.5,0.1
		L172.9,162.1z"/>
	<path class="st10" d="M100.6,40.3c-0.2,0-0.4-0.2-0.4-0.4c0,0,0,0,0,0c0-2.2-1.7-3.9-3.9-3.9c0,0,0,0,0,0l0,0
		c-0.2,0-0.4-0.1-0.5-0.4c0,0,0,0,0,0c0-0.2,0.2-0.4,0.4-0.5h0.1c2.2,0,3.9-1.7,3.9-3.9c0-0.2,0.1-0.4,0.4-0.5c0,0,0,0,0,0
		c0.2,0,0.4,0.1,0.5,0.4v0.1c0,2.2,1.8,3.9,3.9,3.9c0.2,0,0.4,0.2,0.4,0.5c0,0.2-0.2,0.4-0.4,0.4c-2.2,0-3.9,1.8-3.9,3.9
		c0,0,0,0,0,0C101,40.2,100.8,40.4,100.6,40.3C100.6,40.4,100.6,40.4,100.6,40.3z M98.2,35.6c1.1,0.5,1.9,1.3,2.4,2.4
		c0.5-1,1.3-1.9,2.4-2.4c-1.1-0.5-1.9-1.3-2.4-2.4C100.1,34.3,99.2,35.1,98.2,35.6z"/>
	<path class="st11" d="M163.2,48c2,0,3.7-1.6,3.7-3.7c0-2-1.6-3.7-3.7-3.7c-2,0-3.7,1.6-3.7,3.7c0,0,0,0,0,0
		C159.6,46.4,161.2,48,163.2,48L163.2,48z"/>
	<path class="st12" d="M173.7,176.8c0,0,2-1,1.5,2.4s-0.5,6.3,1.5,5.6s7.1-4,7.2,0.1s-1.2,7.1,2.6,5.8s5.4-2.3,5.6-0.4
		s-0.8,6.3,1,6.4"/>
	<path class="st13" d="M162.5,80.9l4.6,3.8c0,0-2.9,11.6-16.4,21.4S133,127.5,133,127.5l-18.4-14.3l2.6-5.8l37.4-28.2L162.5,80.9z"
		/>
	<path class="st13" d="M105.7,105.1c0,0,2.3-15.4,19.4-27s18.3-26.8,18.3-26.8l23.5,17.2c0,0-4.3,19.7-18.8,28.8
		S129,122.2,129,122.2L105.7,105.1z"/>
	<path class="st14" d="M142.7,91.5c0-0.1,0-0.2,0-0.3c0-0.2-0.1-0.4-0.3-0.6l-0.4-0.3l-0.1-0.1L142,90c0.2-0.4,0.3-0.8,0.4-1.2
		c0.1-0.4,0.1-0.8,0.1-1.2c0-0.4-0.2-0.8-0.4-1.2c-0.2-0.4-0.4-0.7-0.8-1c-0.4-0.3-0.8-0.6-1.3-0.7c-0.4-0.1-0.9-0.1-1.3,0
		c-0.5,0.1-0.9,0.3-1.3,0.5c-0.5,0.2-0.9,0.5-1.3,0.8c-0.4,0.3-0.8,0.5-1.2,0.8c-0.3,0.2-0.6,0.3-0.9,0.3c-0.2,0.1-0.4,0.1-0.6,0
		c-0.2-0.1-0.3-0.2-0.5-0.3c-0.2-0.2-0.3-0.4-0.4-0.6c-0.1-0.3-0.1-0.5-0.1-0.8c0-0.3,0.1-0.6,0.2-0.9c0.1-0.3,0.3-0.6,0.5-0.8
		c0.2-0.2,0.4-0.4,0.6-0.6c0.2-0.1,0.5-0.3,0.8-0.3c0.2-0.1,0.5-0.1,0.7-0.1c0.2,0,0.5,0.1,0.7,0.2c0.1,0,0.2,0.1,0.3,0.1
		c0.1,0,0.2,0,0.3,0c0.1,0,0.2-0.1,0.3-0.1c0.1,0,0.1-0.1,0.2-0.2c0.1-0.1,0.1-0.2,0.2-0.3c0-0.1,0-0.2,0-0.3v-0.1
		c0-0.1,0-0.2-0.1-0.3c-0.1-0.1-0.1-0.2-0.2-0.2l0,0l0,0l0,0l0,0c-0.3-0.2-0.6-0.3-1-0.3c-0.4-0.1-0.8-0.1-1.1,0
		c-0.3,0-0.7,0.1-1,0.3c-0.3,0.1-0.6,0.3-0.9,0.5l-0.2,0.1l-0.1-0.1l-0.4-0.3c-0.1-0.1-0.2-0.1-0.3-0.2c-0.1,0-0.2,0-0.3,0l0,0
		c-0.1,0-0.2,0-0.3,0.1c-0.1,0-0.2,0.1-0.2,0.2c-0.1,0.1-0.1,0.2-0.2,0.3c0,0.1,0,0.2,0,0.3v0.1c0,0.1,0,0.2,0.1,0.3
		c0,0.1,0.1,0.2,0.2,0.2l0,0l0.4,0.3l0.1,0.1l-0.1,0.2c-0.2,0.4-0.3,0.8-0.4,1.2c-0.1,0.4-0.1,0.8-0.1,1.2c0,0.4,0.2,0.8,0.4,1.2
		c0.2,0.4,0.4,0.7,0.8,1c0.4,0.3,0.8,0.6,1.3,0.7c0.4,0.1,0.9,0.1,1.3,0c0.5-0.1,0.9-0.3,1.3-0.5c0.5-0.2,0.9-0.5,1.3-0.8
		c0.4-0.3,0.8-0.5,1.2-0.8c0.3-0.2,0.6-0.3,0.9-0.3c0.4-0.1,0.8,0.1,1.1,0.3c0.2,0.2,0.3,0.4,0.4,0.6c0.1,0.3,0.1,0.5,0.1,0.8
		c0,0.3-0.1,0.6-0.2,0.9c-0.1,0.3-0.3,0.6-0.5,0.8c-0.2,0.2-0.4,0.4-0.6,0.6c-0.2,0.2-0.5,0.3-0.8,0.3c-0.2,0.1-0.5,0.1-0.7,0.1
		c-0.2,0-0.5-0.1-0.7-0.2c-0.1,0-0.2-0.1-0.3-0.1c-0.1,0-0.2,0-0.3,0c-0.1,0-0.2,0.1-0.3,0.1c-0.1,0-0.1,0.1-0.2,0.2
		c-0.1,0.1-0.1,0.2-0.2,0.3c0,0.1,0,0.2,0,0.3c0,0.1,0,0.2,0.1,0.3c0.1,0.1,0.1,0.2,0.2,0.2l0,0l0,0l0,0l0,0c0.3,0.2,0.7,0.3,1,0.3
		c0.4,0.1,0.8,0.1,1.1,0c0.3-0.1,0.7-0.2,1-0.3c0.3-0.1,0.6-0.3,0.9-0.5l0.2-0.1l0.1,0.1l0.4,0.3c0.1,0.1,0.2,0.1,0.3,0.2
		c0.1,0,0.2,0,0.3,0c0.1,0,0.2,0,0.3-0.1c0.1,0,0.2-0.1,0.2-0.2C142.6,91.7,142.6,91.6,142.7,91.5z"/>
	<path class="st15" d="M141.8,57.5c0,0,4.3,1.3,6.8-2.3L141.8,57.5z"/>
	<path class="st16" d="M141.8,57.5c0,0,4.3,1.3,6.8-2.3"/>
	<path class="st15" d="M163.7,66.8c0,0-1.8,4.1,1.5,7L163.7,66.8z"/>
	<path class="st16" d="M163.7,66.8c0,0-1.8,4.1,1.5,7"/>
	<path class="st15" d="M131.6,115.3c0,0-4.5-0.2-6,3.9L131.6,115.3z"/>
	<path class="st16" d="M131.6,115.3c0,0-4.5-0.2-6,3.9"/>
	<path class="st15" d="M109.4,107.1c0,0,1.5-4.2-2-6.9L109.4,107.1z"/>
	<path class="st16" d="M109.4,107.1c0,0,1.5-4.2-2-6.9"/>
	<path class="st2" d="M134.5,118.1l-41.4,21.4c-1.2,0.6-2.7,0.1-3.3-1.1L54.7,70.5c-0.6-1.2-0.1-2.7,1.1-3.3l41.4-21.4
		c1.2-0.6,2.7-0.1,3.3,1.1l35.1,67.9C136.2,115.9,135.7,117.4,134.5,118.1C134.5,118.1,134.5,118.1,134.5,118.1z"/>
	<path class="st0" d="M58.7,65.6l-2.9,1.5l37.4,72.3l2.9-1.5L58.7,65.6z"/>
	<path class="st1" d="M134.7,118.4l-41.4,21.4c-1.4,0.7-3.2,0.2-3.9-1.2L54.3,70.7c-0.7-1.4-0.2-3.2,1.2-3.9L97,45.4
		c1.4-0.7,3.2-0.2,3.9,1.2c0,0,0,0,0,0l35.1,67.9C136.7,116,136.1,117.7,134.7,118.4C134.7,118.4,134.7,118.4,134.7,118.4z M56,67.5
		c-1,0.5-1.4,1.8-0.9,2.8c0,0,0,0,0,0l35,67.9c0.5,1,1.8,1.4,2.8,0.9l41.4-21.4c1-0.5,1.4-1.8,0.9-2.8L100.1,47
		c-0.5-1-1.8-1.4-2.8-0.9c0,0,0,0,0,0L56,67.5z"/>
	<path class="st2" d="M100.9,58.8L68.8,75.4L76,89.4l32.1-16.6L100.9,58.8z"/>
	<path class="st2" d="M101,59.1L68.9,75.7L76,89.4l32.1-16.6L101,59.1z"/>
	<g class="st17">
		<path class="st18" d="M102.4,61.8L70.3,78.4l5.7,11l32.1-16.6L102.4,61.8z"/>
	</g>
	<path class="st19" d="M108.6,73L75.8,90l-7.4-14.5l32.8-17L108.6,73z M76.2,88.8l31.4-16.2l-6.7-12.9L69.5,75.9L76.2,88.8z"/>
	<path class="st4" d="M67.4,86.2l-0.7,0.4L88.1,128l0.7-0.4L67.4,86.2z"/>
	<path class="st19" d="M91.8,96.7l-9.5,4.9l-3.1-6.1l9.5-4.9L91.8,96.7z M82.7,100.5l8-4.2l-2.3-4.6l-8,4.2L82.7,100.5z"/>
	<path class="st19" d="M103.1,90.8l-9.5,4.9l-3.1-6.1l9.5-4.9L103.1,90.8z M93.9,94.6l8-4.2l-2.4-4.6l-8,4.2L93.9,94.6z"/>
	<path class="st19" d="M114.4,85l-9.5,4.9l-3.1-6.1l9.5-4.9L114.4,85z M105.2,88.8l8-4.2l-2.3-4.7l-8,4.1L105.2,88.8z"/>
	<path class="st19" d="M96,104.8l-9.5,4.9l-3.1-6.1l9.5-4.9L96,104.8z M86.9,108.6l8-4.1l-2.4-4.6l-8,4.2L86.9,108.6z"/>
	<path class="st19" d="M107.3,98.9l-9.5,4.9l-3.1-6.1l9.5-4.9L107.3,98.9z M98.1,102.7l8-4.1l-2.3-4.6l-8,4.2L98.1,102.7z"/>
	<path class="st19" d="M118.6,93.1l-9.5,4.9l-3.1-6.1l9.5-4.9L118.6,93.1z M109.4,96.9l8-4.2l-2.4-4.6l-8,4.2L109.4,96.9z"/>
	<path class="st19" d="M100.2,112.9l-9.5,4.9l-3.1-6.1l9.5-4.9L100.2,112.9z M91,116.7l8-4.2l-2.4-4.6l-8,4.2L91,116.7z"/>
	<path class="st19" d="M111.5,107l-9.5,5l-3.1-6.1l9.5-4.9L111.5,107z M102.3,110.8l8-4.2l-2.3-4.6l-8,4.2L102.3,110.8z"/>
	<path class="st19" d="M122.8,101.2l-9.5,4.9l-3.2-6.1l9.5-4.9L122.8,101.2z M113.6,105l8-4.2l-2.4-4.6l-8,4.1L113.6,105z"/>
	<path class="st20" d="M104.4,121l-9.5,4.9l-3.1-6.1l9.5-4.9L104.4,121z M95.2,124.8l8-4.1l-2.3-4.7l-8,4.2L95.2,124.8z"/>
	<path class="st20" d="M115.7,115.1l-9.5,4.9L103,114l9.5-4.9L115.7,115.1z M106.5,118.9l8-4.2l-2.4-4.6l-8,4.2L106.5,118.9z"/>
	<path class="st19" d="M127,109.3l-9.5,4.9l-3.2-6.1l9.5-4.9L127,109.3z M117.8,113.1l8-4.2l-2.4-4.6l-8,4.2L117.8,113.1z"/>
	<path class="st2" d="M143,161.4H81c-4.1,0-7.5-3.3-7.5-7.4c0,0,0,0,0-0.1v-36.8c0-4.1,3.3-7.5,7.4-7.5c0,0,0,0,0,0h62
		c4.1,0,7.5,3.3,7.5,7.4c0,0,0,0,0,0V154C150.4,158.1,147.1,161.4,143,161.4z"/>
	<path class="st19" d="M143.8,109.4H141c3.9,0,7,3.1,7,7v35.7c0,3.9-3.1,7-7,7H77.3c-1.1,0-2.3-0.3-3.3-0.8c1.2,2.2,3.6,3.6,6.1,3.6
		h63.7c3.9,0,7-3.1,7-7v-38.5C150.8,112.5,147.6,109.4,143.8,109.4z"/>
	<path class="st21" d="M117.9,127.8h10.3c1.3-0.1,2.3-1.1,2.3-2.4v-0.4c0-1.3-1.1-2.4-2.4-2.4l0,0H95.7c-1.3,0-2.4,1.1-2.4,2.4v0
		v0.4c0,1.3,1.1,2.4,2.4,2.4h4.7c1.3,0,2.4,1.1,2.4,2.4c0,0,0,0,0,0v0.4c0,1.3-1.1,2.4-2.4,2.4c0,0,0,0,0,0h-4.9
		c-1.2,0.1-2.2,1.1-2.2,2.4v0.4c0,1.3,1.1,2.4,2.4,2.4c0,0,0,0,0,0h13.4c1.3,0,2.4,1.1,2.4,2.4c0,0,0,0,0,0v0.4
		c0,1.3-1.1,2.4-2.4,2.4H95.5c-1.2,0.1-2.2,1.2-2.2,2.4v0.4c0,1.3,1.1,2.4,2.4,2.4h32.4c1.3,0,2.4-1.1,2.4-2.4l0,0v-0.4
		c0-1.3-1.1-2.4-2.4-2.4l0,0h-5.5c-1.3,0-2.4-1.1-2.4-2.4l0,0v-0.4c0-1.3,1.1-2.4,2.4-2.4h5.8c1.2-0.1,2.1-1.2,2.1-2.4v-0.4
		c0-1.3-1-2.4-2.4-2.4h-10.3c-1.3,0-2.4-1.1-2.4-2.4c0,0,0,0,0,0v-0.4C115.5,129,116.6,127.9,117.9,127.8
		C117.9,127.8,117.9,127.8,117.9,127.8z"/>
	<path class="st19" d="M139.9,158.4c3.9,0,7.1-3.2,7.1-7.1c0-3.9-3.2-7.1-7.1-7.1c-3.9,0-7.1,3.2-7.1,7.1c0,0,0,0,0,0
		C132.8,155.2,136,158.4,139.9,158.4z"/>
	<path class="st0" d="M140.6,158.4c3.6,0,6.4-2.9,6.4-6.4c0-3.6-2.9-6.4-6.4-6.4c-3.6,0-6.4,2.9-6.4,6.4c0,0,0,0,0,0
		C134.2,155.5,137.1,158.4,140.6,158.4z"/>
	<path class="st1" d="M140,153.7c-1.4,0-2.5-1.1-2.5-2.5s1.1-2.5,2.5-2.5c1.4,0,2.5,1.1,2.5,2.5c0,0,0,0,0,0
		C142.5,152.6,141.4,153.7,140,153.7C140,153.7,140,153.7,140,153.7z M140,149.3c-1,0-1.8,0.8-1.8,1.9s0.8,1.8,1.9,1.8
		c1,0,1.8-0.8,1.8-1.8S141,149.3,140,149.3L140,149.3z"/>
	<path class="st22" d="M140,148.1c-0.2,0-0.3-0.2-0.3-0.3V146c0-0.2,0.2-0.3,0.3-0.3s0.3,0.2,0.3,0.3v1.8
		C140.3,148,140.2,148.1,140,148.1z"/>
	<path class="st4" d="M140,156.7c-0.2,0-0.3-0.2-0.3-0.3v-1.8c0-0.2,0.2-0.3,0.3-0.3c0.2,0,0.3,0.2,0.3,0.3v1.8
		C140.3,156.6,140.2,156.7,140,156.7z"/>
	<path class="st4" d="M145.2,151.5h-1.8c-0.2,0-0.3-0.2-0.3-0.3s0.2-0.3,0.3-0.3h1.8c0.2,0,0.3,0.2,0.3,0.3S145.4,151.5,145.2,151.5
		z"/>
	<path class="st22" d="M136.6,151.5h-1.8c-0.2,0-0.3-0.2-0.3-0.3c0-0.2,0.1-0.3,0.3-0.3c0,0,0,0,0,0h1.8c0.2,0,0.3,0.2,0.3,0.3
		S136.8,151.5,136.6,151.5z"/>
	<path class="st1" d="M140,158.6c-4.1,0-7.5-3.3-7.5-7.5c0-4.1,3.3-7.5,7.5-7.5s7.5,3.3,7.5,7.5c0,0,0,0,0,0
		C147.5,155.3,144.1,158.6,140,158.6z M140,144.4c-3.8,0-6.8,3-6.8,6.8s3,6.8,6.8,6.8s6.8-3,6.8-6.8v0
		C146.8,147.4,143.8,144.4,140,144.4z"/>
	<path class="st1" d="M96.8,109.1h-1v0.7h1V109.1z"/>
	<path class="st1" d="M93.8,109.1h-2.1v0.7h2.1L93.8,109.1z"/>
	<path class="st1" d="M143.8,109.1h-45v0.7h45c3.7,0,6.6,3,6.6,6.7v38.4c0,3.7-3,6.6-6.6,6.6H80.1c-3.7,0-6.6-3-6.7-6.6v-38.4
		c0-3.7,3-6.6,6.7-6.7h10.1v-0.7H80.1c-4,0-7.3,3.3-7.3,7.3v38.4c0,4,3.3,7.3,7.3,7.3h63.7c4,0,7.3-3.3,7.3-7.3v-38.4
		C151.1,112.3,147.8,109.1,143.8,109.1L143.8,109.1z"/>
	<path class="st0" d="M126.3,104.9c0.9,0.1,1.5,0.7,1.7,1.6v29.9l1.9-1.4l1.9,1.4l1.9-1.4l2,1.4l2-1.4l2,1.4l1.9-1.5l2.1,1.5
		l1.9-1.5l2,1.5v-29.8c-0.1-0.9-0.9-1.6-1.8-1.7H126.3z"/>
	<path class="st1" d="M131.9,136.8c-0.1,0-0.1,0-0.2-0.1l-1.7-1.2l-1.8,1.2c-0.1,0.1-0.2,0.1-0.3,0c-0.1-0.1-0.2-0.2-0.2-0.3v-29.9
		c-0.2-0.7-0.7-1.2-1.4-1.3c-0.2,0-0.3-0.2-0.3-0.4c0-0.2,0.2-0.3,0.3-0.3h19.6c1.1,0.1,1.9,0.9,2.1,2v29.8c0,0.1-0.1,0.2-0.2,0.3
		c-0.1,0.1-0.2,0.1-0.4,0l-1.8-1.3l-1.7,1.3c-0.1,0.1-0.3,0.1-0.4,0l-1.9-1.3l-1.7,1.3c-0.1,0.1-0.3,0.1-0.4,0l-1.8-1.3l-1.8,1.3
		c-0.1,0.1-0.3,0.1-0.4,0l-1.8-1.3l-1.7,1.3C132,136.8,131.9,136.8,131.9,136.8z M133.8,134.7c0.1,0,0.1,0,0.2,0.1l1.8,1.3l1.8-1.3
		c0.1-0.1,0.3-0.1,0.4,0l1.8,1.3l1.7-1.3c0.1-0.1,0.3-0.1,0.4,0l1.9,1.3l1.7-1.3c0.1-0.1,0.3-0.1,0.4,0l1.5,1.1v-29.1
		c-0.1-0.8-0.7-1.3-1.5-1.4h-18.2c0.3,0.3,0.5,0.7,0.6,1.2c0,0,0,0,0,0.1v29.3l1.4-1c0.1-0.1,0.3-0.1,0.4,0l1.7,1.2l1.7-1.3
		C133.6,134.7,133.7,134.7,133.8,134.7z"/>
	<path class="st2" d="M145.9,105.3h-18.2c0.3,0.3,0.5,0.7,0.7,1.2v29.4l1.2-0.8v-28.5h17.8C147.1,105.8,146.6,105.3,145.9,105.3z"/>
	<path class="st2" d="M141.6,113.1h-9.9c-0.2,0-0.3-0.2-0.3-0.3s0.2-0.3,0.3-0.3h9.9c0.2,0,0.3,0.2,0.3,0.3
		C142,112.9,141.8,113.1,141.6,113.1z"/>
	<path class="st2" d="M143.9,115.9h-12.2c-0.2,0-0.3-0.2-0.3-0.3s0.2-0.3,0.3-0.3h12.2c0.2,0,0.3,0.2,0.3,0.3
		C144.2,115.7,144.1,115.9,143.9,115.9z"/>
	<path class="st2" d="M145.2,118.6h-13.5c-0.2,0-0.3-0.2-0.3-0.3s0.2-0.3,0.3-0.3h13.5c0.2,0,0.3,0.2,0.3,0.3
		S145.4,118.6,145.2,118.6z"/>
	<path class="st2" d="M145.2,121.4h-13.5c-0.2,0-0.3-0.2-0.3-0.3s0.2-0.3,0.3-0.3h13.5c0.2,0,0.3,0.2,0.3,0.3
		S145.4,121.4,145.2,121.4z"/>
	<path class="st22" d="M124,109.4v-2.7c0,0,0-1.8,2.1-1.8c1-0.1,1.8,0.6,1.9,1.6c0,0,0,0,0,0v2.8H124z"/>
	<path class="st1" d="M128,109.7h-4c-0.2,0-0.3-0.2-0.3-0.3v-2.7c0-0.5,0.2-1.1,0.6-1.5c0.5-0.5,1.1-0.7,1.8-0.7h0.1
		c1.1-0.1,2.1,0.7,2.2,1.9v2.9C128.4,109.6,128.2,109.7,128,109.7C128,109.7,128,109.7,128,109.7z M124.3,109h3.3v-2.5
		c-0.1-0.8-0.7-1.4-1.5-1.3c0,0,0,0-0.1,0c-0.5-0.1-1,0.1-1.4,0.4c-0.3,0.3-0.4,0.6-0.4,1L124.3,109L124.3,109z"/>
	<path class="st0" d="M95,147.2H70c-1.8,0-3.3-1.4-3.3-3.2c0,0,0,0,0-0.1v-16.8c0-1.8,1.5-3.2,3.2-3.2H95c1.8,0,3.2,1.4,3.2,3.2v0
		V144C98.2,145.8,96.8,147.2,95,147.2C95,147.2,95,147.2,95,147.2z"/>
	<path class="st1" d="M95.1,147.6H69.8c-1.9,0-3.4-1.5-3.4-3.4v-17.1c0-1.9,1.5-3.4,3.4-3.4c0,0,0,0,0,0h25.3c1.9,0,3.4,1.5,3.4,3.4
		c0,0,0,0,0,0v17.1C98.5,146,97,147.6,95.1,147.6z M69.8,124.3c-1.5,0-2.8,1.2-2.8,2.7c0,0,0,0,0,0v17.1c0,1.5,1.2,2.8,2.7,2.8
		c0,0,0,0,0,0h25.4c1.5,0,2.8-1.2,2.8-2.8v-17.1c0-1.5-1.2-2.8-2.8-2.8L69.8,124.3L69.8,124.3z"/>
	<path class="st19" d="M68.5,145.1v-16.6c0-1.7,1.3-3,3-3c0,0,0,0,0.1,0h25.1c0.3,0,0.7,0.1,1,0.2c-0.6-0.8-1.5-1.3-2.5-1.3h-25
		c-1.7,0-3,1.3-3.1,2.9c0,0,0,0,0,0.1V144c0,1.3,0.8,2.4,2,2.8C68.7,146.3,68.5,145.7,68.5,145.1z"/>
	<path class="st2" d="M94,130.6H71c-0.6,0-1-0.5-1-1c0-0.6,0.5-1,1-1h23c0.6,0,1,0.5,1,1C95,130.2,94.6,130.6,94,130.6z"/>
	<path class="st4" d="M90.2,144.6c1.1,0,2-0.9,2-2s-0.9-2-2-2s-2,0.9-2,2S89,144.6,90.2,144.6z"/>
	<path class="st1" d="M90.2,145c-1.3,0-2.3-1-2.3-2.3c0-1.3,1-2.3,2.3-2.3c1.3,0,2.3,1,2.3,2.3c0,0,0,0,0,0
		C92.5,144,91.4,145,90.2,145C90.2,145,90.2,145,90.2,145z M90.2,141c-0.9,0-1.7,0.7-1.7,1.6c0,0.9,0.7,1.7,1.6,1.7
		c0.9,0,1.7-0.7,1.7-1.6c0,0,0,0,0,0C91.8,141.7,91.1,141,90.2,141z"/>
	<path class="st4" d="M92.7,144.6c1.1,0,2-0.9,2-2s-0.9-2-2-2s-2,0.9-2,2S91.6,144.6,92.7,144.6z"/>
	<path class="st1" d="M92.7,145c-1.3,0-2.3-1-2.3-2.3c0-1.3,1-2.3,2.3-2.3c1.3,0,2.3,1,2.3,2.3c0,0,0,0,0,0
		C95.1,144,94,145,92.7,145C92.7,145,92.7,145,92.7,145z M92.7,141c-0.9,0-1.7,0.7-1.7,1.6c0,0.9,0.7,1.7,1.6,1.7
		c0.9,0,1.7-0.7,1.7-1.6c0,0,0,0,0,0C94.4,141.7,93.6,141,92.7,141z"/>
	<path class="st23" d="M95.1,181c1.6,0,2.9-1.3,2.9-2.9c0-1.6-1.3-2.9-2.9-2.9s-2.9,1.3-2.9,2.9c0,0,0,0,0,0
		C92.2,179.7,93.5,181,95.1,181z"/>
	<path class="st1" d="M80.7,76.5l-7,3.5c-0.1,0.1-0.3,0-0.3-0.2s-0.1-0.3,0-0.4l7-3.5c0.1-0.1,0.3,0,0.3,0.2S80.8,76.4,80.7,76.5z"
		/>
	<path class="st1" d="M82.2,79.5l-7,3.5c-0.1,0.1-0.3,0-0.3-0.2s-0.1-0.3,0-0.4l7-3.5c0.1-0.1,0.3,0,0.3,0.2S82.3,79.5,82.2,79.5z"
		/>
	<path class="st24" d="M93.2,51.8c-0.1,0-0.3,0.1-0.4,0.2l-0.3,0.1l-0.3,0.2l-0.3,0.2l-0.2,0.2c-0.5,0.4-0.9,0.8-1.2,1.2
		c-0.5,0.7-0.8,1.4-1,2.3c0,0.1,0,0.2,0,0.2c0,0.1,0.1,0.1,0.2,0.2l0.3,0.1h0.1c0.3,0.1,0.3,0.1,0.4-0.2c0.4-2.1,2.1-3.7,4.2-3.8
		c0.9-0.1,1.8,0.1,2.5,0.5c0,0,0.1,0,0.1,0c0,0,0.1,0,0.1,0c0,0,0.1,0,0.1-0.1c0,0,0-0.1,0-0.1l0.1-0.4c0.1-0.2,0-0.4-0.2-0.4
		c0,0,0,0,0,0c-0.5-0.2-1.1-0.4-1.6-0.5c-0.5-0.1-1.1-0.1-1.6,0C93.8,51.6,93.5,51.7,93.2,51.8z M95.3,58.7c0.1,0,0.3-0.1,0.4-0.2
		l0,0c0.1-0.1,0.1-0.2,0.1-0.3c0-0.1,0-0.2,0-0.4c-0.1-0.1-0.1-0.2-0.2-0.3c-0.3-0.2-0.7-0.1-0.9,0.2c-0.1,0.2-0.1,0.3,0,0.5
		C94.8,58.5,95.1,58.7,95.3,58.7z M93.3,53.8c1.2-0.5,2.6-0.4,3.7,0.2c0.1,0.1,0.2,0.3,0.2,0.4c0,0.2-0.1,0.3-0.1,0.5
		s-0.2,0.2-0.3,0.1c-0.4-0.3-0.9-0.5-1.4-0.5c-1.5-0.1-2.9,1-3,2.6c0,0,0,0.1,0,0.1c0,0,0,0.1,0,0.1c0,0.1-0.1,0.2-0.2,0.1
		c0,0,0,0,0,0l-0.6-0.2c-0.2-0.1-0.2-0.2-0.2-0.4c0.1-1.1,0.7-2.1,1.5-2.7c0.1-0.1,0.1-0.1,0.2-0.1C93.1,53.9,93.2,53.8,93.3,53.8
		L93.3,53.8z M96.5,55.8c-0.7-0.3-1.5-0.3-2.2,0c-0.7,0.3-1.1,1-1.3,1.7c-0.1,0.2,0,0.3,0.2,0.4c0,0,0,0,0,0l0.5,0.2
		c0.2,0.1,0.2,0,0.3-0.2l0,0c0,0,0,0,0-0.1c0.1-0.8,0.9-1.3,1.7-1.2c0,0,0.1,0,0.1,0c0.1,0,0.3,0.1,0.4,0.2c0.1,0.1,0.2,0,0.3,0
		c0,0,0-0.1,0-0.1c0.1-0.2,0.1-0.3,0.2-0.5C96.7,56,96.7,55.8,96.5,55.8C96.5,55.7,96.5,55.7,96.5,55.8L96.5,55.8z"/>
	<path class="st15" d="M68.8,140.9c0,0.1,0,0.2,0,0.2v0.2c0,0.1,0,0.1,0,0.2c0,0.1,0,0.1,0,0.2c0,0,0,0.1,0,0.1
		c0.1,0.3,0.2,0.6,0.3,0.9c0.2,0.4,0.5,0.7,0.9,1c0,0,0.1,0,0.1,0c0,0,0.1,0,0.1-0.1l0.1-0.1l0,0c0.1-0.1,0.1-0.2,0-0.3
		c-0.9-0.7-1.3-1.9-0.8-3c0.2-0.4,0.5-0.8,0.9-1.1l0,0c0,0,0,0,0-0.1c0,0,0,0,0-0.1l0,0l-0.2-0.2c-0.1-0.1-0.2-0.1-0.3,0
		c0,0,0,0,0,0c-0.2,0.2-0.5,0.4-0.7,0.7c-0.2,0.2-0.3,0.5-0.4,0.8C68.8,140.6,68.8,140.8,68.8,140.9z M72.7,141.5c0-0.1,0-0.2,0-0.2
		l0,0c0-0.1-0.1-0.1-0.1-0.1c-0.1,0-0.1-0.1-0.2-0.1c-0.1,0-0.1,0-0.2,0.1c-0.1,0.1-0.2,0.2-0.2,0.3c0,0.2,0.1,0.3,0.3,0.3
		C72.5,141.8,72.7,141.7,72.7,141.5z M69.8,141.3c0-0.7,0.4-1.4,1-1.8c0.1-0.1,0.2-0.1,0.2,0l0.2,0.2c0.1,0.1,0.1,0.1,0,0.2
		c-0.2,0.1-0.4,0.4-0.6,0.6c-0.4,0.7-0.2,1.7,0.5,2.1c0,0,0,0,0.1,0l0,0c0,0,0.1,0.1,0,0.1c0,0,0,0,0,0L71,143
		c-0.1,0.1-0.2,0.1-0.2,0c-0.5-0.3-0.9-0.8-1-1.4c0,0,0-0.1,0-0.1C69.8,141.4,69.8,141.4,69.8,141.3z M71.5,140.2
		c-0.3,0.3-0.5,0.7-0.5,1.1c0,0.4,0.2,0.8,0.5,1.1c0.1,0.1,0.2,0.1,0.3,0l0.2-0.2c0,0,0.1-0.1,0-0.2c0,0,0,0,0,0l0,0l0,0
		c-0.4-0.3-0.4-0.8-0.2-1.1c0,0,0,0,0,0c0-0.1,0.1-0.1,0.2-0.1c0.1-0.1,0.1-0.1,0-0.2l-0.2-0.2C71.8,140.2,71.7,140.2,71.5,140.2
		C71.6,140.2,71.5,140.2,71.5,140.2z"/>
	<path class="st24" d="M78.8,116.8c0,0.1,0,0.2,0,0.3v0.3c0,0.1,0,0.2,0,0.3c0,0.1,0,0.2,0,0.2s0,0.1,0,0.2c0.1,0.4,0.2,0.9,0.4,1.3
		c0.3,0.6,0.7,1.1,1.2,1.4c0.1,0,0.1,0,0.2,0c0.1,0,0.1,0,0.2-0.1l0.2-0.2l0.1-0.1c0.2-0.2,0.2-0.2,0-0.4c-1.3-1-1.8-2.7-1.2-4.2
		c0.3-0.6,0.7-1.2,1.2-1.6c0,0,0,0,0-0.1c0,0,0,0,0-0.1c0,0,0-0.1,0-0.1c0,0,0,0,0-0.1l-0.2-0.2c-0.1-0.1-0.2-0.1-0.3,0c0,0,0,0,0,0
		c-0.3,0.3-0.7,0.6-0.9,0.9c-0.2,0.3-0.4,0.7-0.6,1.1C78.9,116.2,78.8,116.5,78.8,116.8z M84.3,117.6c0-0.1,0-0.2,0-0.3l0,0
		c0-0.1-0.1-0.1-0.2-0.2c-0.1-0.1-0.2-0.1-0.3-0.1c-0.1,0-0.2,0-0.3,0.1c-0.2,0.1-0.2,0.3-0.2,0.5c0,0.2,0.2,0.4,0.4,0.4
		C84,118,84.2,117.8,84.3,117.6z M80.2,117.3c0-1,0.6-1.9,1.4-2.5c0.1-0.1,0.3-0.1,0.4,0l0.3,0.3c0.1,0.1,0.1,0.2,0,0.3
		c-0.3,0.2-0.6,0.5-0.8,0.8c-0.6,1-0.3,2.3,0.7,3c0,0,0.1,0,0.1,0l0.1,0.1c0.1,0,0.1,0.1,0,0.2c0,0,0,0,0,0
		c-0.1,0.1-0.2,0.2-0.3,0.3c-0.1,0.1-0.2,0.1-0.3,0c-0.7-0.4-1.2-1.2-1.4-2v-0.2C80.2,117.6,80.2,117.4,80.2,117.3z M82.6,115.8
		c-0.5,0.4-0.7,0.9-0.7,1.5c0,0.6,0.3,1.1,0.7,1.5c0.1,0.1,0.2,0.1,0.3,0c0,0,0,0,0,0l0.3-0.3c0.1,0,0.1-0.1,0-0.2c0,0,0,0,0,0l0,0
		l0,0c-0.5-0.4-0.6-1.1-0.2-1.6c0,0,0,0,0.1-0.1c0.1-0.1,0.2-0.2,0.2-0.2c0.1,0,0.1-0.1,0-0.2c0,0,0,0,0,0c-0.1-0.1-0.2-0.2-0.3-0.3
		C83,115.8,82.8,115.7,82.6,115.8C82.7,115.8,82.7,115.8,82.6,115.8z"/>
	<polygon class="st2" points="107.9,108.3 107.9,108.3 111.2,108.4 	"/>
	<polygon class="st2" points="175.3,104.7 175.3,104.7 172.4,106.2 	"/>
	<path class="st2" d="M176.1,157.5c-0.2-1.2-0.7-2.4-1.4-3.4l0,0c-0.2-0.3-0.4-0.6-0.6-0.8l0,0l-0.2-0.2l-0.1-0.1l0,0l0,0l-19-19
		l19-19l0,0l0,0l0.1-0.1l0.1-0.2l0.4-0.4l0,0c0.7-0.8,1.1-1.8,1.5-2.8l0,0c0.4-1.2,0.5-2.4,0.4-3.6l0,0c-0.1-1-0.4-2.1-0.9-3
		l-2.9,1.4l2.9-1.4c-0.4-0.8-0.9-1.5-1.5-2.1l0,0c-0.6-0.6-1.3-1.2-2.1-1.6l0,0c-0.9-0.5-1.9-0.8-2.9-1l0,0c-0.2,0-0.4-0.1-0.6-0.1
		H168h-1h-0.3l0.2,2.9l0,0l-0.2-3.2l0,0c-0.3,0-0.7,0.1-1,0.1l0,0c-1.2,0.2-2.4,0.7-3.4,1.4l0,0c-0.3,0.2-0.6,0.4-0.8,0.7l0,0
		l-0.2,0.2l-0.1,0.1l2.2,2.3l0,0l-2.2-2.3l0,0l0,0l-19,19l-19-19l-2.3,2.3l0,0l2.3-2.3l0,0l0,0l-0.1-0.1l-0.2-0.2l0,0
		c-0.3-0.2-0.5-0.4-0.8-0.7l0,0c-0.9-0.6-1.8-1-2.8-1.3l0,0c-0.3-0.1-0.7-0.2-1-0.2l0,0l-0.4,3.2l0,0l0.4-3.2H118h-0.9v3.2l0,0v-3.2
		h-0.4h-0.6l0,0l0.3,3.2l0,0l-0.3-3.2c-1,0.1-2.1,0.4-3,0.9l0,0c-0.8,0.4-1.5,0.9-2.1,1.5l0,0l2.2,2.3l0.1,0.1l-2.3-2.4
		c-0.9,0.8-1.6,1.9-2.1,3l0,0l2.8,1.2h0.1l-3-1.3c-0.4,1-0.6,2-0.7,3.1l3.3,0.2l-3.3-0.2c0,0.9,0.1,1.8,0.3,2.6l0,0
		c0.3,1,0.7,2,1.3,2.8l0,0c0.2,0.3,0.4,0.6,0.7,0.8l0,0l0.2,0.2l0.1,0.1l0,0l0,0l19,19l-19,19l0,0l0,0l-0.1,0.1
		c-0.1,0.1-0.1,0.1-0.2,0.2l2.4,2.2l-0.1-0.1l-2.4-2.1l0,0c-0.2,0.3-0.5,0.5-0.7,0.8l0,0c-0.7,1-1.2,2.2-1.4,3.4l0,0
		c-0.2,1-0.2,2.1,0,3.1l0,0c0.3,2.1,1.4,4,3.1,5.4l0,0c0.7,0.6,1.4,1,2.2,1.4l0,0c0.8,0.3,1.7,0.6,2.5,0.6l0.3-3.2l0,0l-0.3,3.2l0,0
		c1.2,0.1,2.5,0,3.6-0.4l0,0c1-0.3,1.9-0.8,2.8-1.5l0,0l-2-2.5l0,0l2,2.5c0.2-0.1,0.3-0.2,0.4-0.4l0.2-0.1l0.1-0.1l0,0l0,0L121,163
		l0,0l2.3,2.3l19-19l19,19l0,0l0,0l0.1,0.1l0.2,0.1c0.1,0.1,0.3,0.3,0.4,0.4l0,0c0.8,0.7,1.8,1.1,2.8,1.5l0,0
		c1.2,0.4,2.4,0.5,3.6,0.4l0,0c0.9-0.1,1.7-0.3,2.5-0.6l0,0l-1.2-2.9l0,0l1.3,3c1-0.4,1.9-1,2.6-1.7c0.8-0.7,1.4-1.6,1.9-2.5l0,0
		l-2.9-1.4l0,0l2.9,1.4c0.4-0.8,0.7-1.6,0.8-2.5l0,0c0.2-1,0.2-2.1-0.1-3.1L176.1,157.5z M168.3,161.4c-0.2,0.1-0.5,0.1-0.7,0.2
		c-0.3,0-0.7,0-1-0.1l0,0c-0.3-0.1-0.5-0.2-0.8-0.4l-0.1-0.1l0,0l-0.1-0.1l-0.1-0.1l-21.3-21.3l-2.3-2.3l-2.3,2.3l-21.3,21.3
		l-0.1,0.1l-0.1,0.1l0,0l-0.1,0.1c-0.2,0.2-0.5,0.3-0.8,0.4l1,3.1l0,0l-1-3.1l0,0c-0.3,0.1-0.7,0.1-1,0.1c-0.2,0-0.5-0.1-0.7-0.2
		c-0.2-0.1-0.4-0.2-0.6-0.4l0,0c-0.2-0.2-0.4-0.4-0.6-0.7c-0.1-0.2-0.2-0.5-0.3-0.8c-0.1-0.3-0.1-0.6,0-0.9c0.1-0.3,0.2-0.6,0.4-0.9
		l-2.6-1.9l0,0l2.6,1.8l0,0l0.2-0.2l0,0l0,0l0.1-0.1l0,0l21.3-21.3l2.3-2.3l-2.3-2.3l-2.2,2.3l0,0l2.3-2.3l-21.3-21.3l0,0v-0.1l0,0
		c-0.1-0.1-0.1-0.1-0.2-0.2l-2.7,1.8l0,0l2.6-1.8l0,0c-0.2-0.2-0.3-0.5-0.3-0.8l0,0l-3.1,0.8l0,0l3.1-0.8c-0.1-0.2-0.1-0.5-0.1-0.7
		c0-0.3,0.1-0.6,0.2-0.8l0,0c0.1-0.3,0.3-0.6,0.6-0.8c0.2-0.2,0.4-0.3,0.6-0.4l0,0c0.3-0.1,0.5-0.2,0.8-0.2h0.6h0.3
		c0.3,0.1,0.5,0.2,0.8,0.4l0,0l1.8-2.6l0,0l-1.8,2.7c0.1,0.1,0.2,0.1,0.2,0.2l0,0l0,0l0,0l21.3,21.3l2.3,2.3l2.3-2.3l21.3-21.2l0,0
		l0,0l0,0l0,0c0.1-0.1,0.1-0.1,0.2-0.2l0,0c0.3-0.2,0.6-0.3,0.9-0.4h0.3h0.5h0.1l0,0l0.5-3.2l0,0l-0.5,3.2c0.3,0,0.6,0.1,0.8,0.3
		l0,0l1.6-2.8l0,0l-1.6,2.8c0.2,0.1,0.4,0.3,0.6,0.4l0,0l2.4-2.2l0,0l-2.2,2c0.2,0.2,0.3,0.4,0.4,0.6c0.1,0.3,0.2,0.5,0.2,0.8
		c0,0.3,0,0.7-0.1,1l0,0l3.1,1l0,0l-3.1-1c-0.1,0.3-0.2,0.5-0.4,0.8c0,0,0,0.1,0,0.1l0,0l-0.1,0.1l-0.1,0.1l-21.3,21.3l2.3,2.3l0,0
		l-2.3-2.3l-2.3,2.3l2.3,2.3l21.2,21.2l0,0l0.1,0.1l0,0l2.4-2.1l0,0l-2.4,2.1l0,0l0.2,0.2l0,0l2.8-1.8l0,0l-2.6,1.8
		c0.2,0.3,0.3,0.6,0.4,0.9c0.1,0.3,0.1,0.6,0,0.9c0,0.2-0.1,0.5-0.2,0.7c-0.1,0.3-0.3,0.5-0.5,0.7
		C168.8,161.2,168.6,161.3,168.3,161.4z"/>
	<path class="st25" d="M142.1,126l21.3-21.3c0.1-0.1,0.2-0.2,0.2-0.2c0.2-0.2,0.3-0.3,0.5-0.4c0.6-0.5,1.4-0.8,2.1-0.9
		c0.2,0,0.4-0.1,0.7-0.1h0.7l0.7,0.1c2.5,0.4,4.4,2.5,4.7,5c0.1,0.8,0,1.6-0.2,2.3c-0.2,0.6-0.5,1.2-0.9,1.8
		c-0.2,0.2-0.2,0.3-0.4,0.5L150.1,134l21.3,21.3l0.2,0.2c0.1,0.2,0.3,0.3,0.4,0.5c0.4,0.6,0.8,1.4,0.9,2.1c0.1,0.7,0.1,1.3,0,2
		c-0.1,0.6-0.3,1.1-0.5,1.6c-0.3,0.6-0.7,1.1-1.2,1.6c-0.5,0.5-1.1,0.8-1.7,1.1c-0.5,0.2-1.1,0.4-1.6,0.4c-0.8,0.1-1.6,0-2.3-0.2
		c-0.6-0.2-1.2-0.5-1.8-0.9c-0.2-0.2-0.3-0.2-0.5-0.4L142.1,142l-21.3,21.3c-0.2,0.2-0.3,0.3-0.5,0.4c-1.2,0.9-2.6,1.3-4.1,1.2
		c-0.6-0.1-1.1-0.2-1.6-0.4c-0.5-0.2-1-0.5-1.4-0.9c-0.5-0.4-0.9-0.9-1.3-1.5c-0.3-0.6-0.6-1.2-0.7-1.9c-0.1-0.7-0.1-1.3,0-2
		c0.2-0.8,0.5-1.5,0.9-2.1c0.1-0.2,0.3-0.4,0.4-0.5l0.2-0.2l21.3-21.3l-21.3-21.3c-0.1-0.1-0.2-0.2-0.2-0.2
		c-0.2-0.2-0.3-0.3-0.4-0.5c-0.4-0.5-0.7-1.2-0.8-1.8c-0.1-0.5-0.2-1.1-0.2-1.7c0-0.7,0.2-1.3,0.4-1.9c0.3-0.7,0.8-1.4,1.3-1.9
		c0.4-0.4,0.9-0.7,1.4-1c0.6-0.3,1.3-0.5,1.9-0.6c0.2,0,0.4,0,0.7,0h0.3h0.3c0.2,0,0.4,0.1,0.7,0.1c0.7,0.2,1.3,0.4,1.8,0.8
		c0.2,0.1,0.4,0.3,0.5,0.4c0.1,0.1,0.2,0.2,0.2,0.2L142.1,126z"/>
	<rect x="107.9" y="99.8" class="st26" width="68.3" height="68.3"/>
	<g>
		<g>
			<path class="st0" d="M121.7,53.9c0.3-0.5-2.1-2.5-5.4-4.5s-6.1-3.3-6.4-2.9s2.1,2.5,5.3,4.5S121.4,54.4,121.7,53.9z"/>
			<path class="st0" d="M123,51.9l-11.8-7.4l-1.3,2l11.8,7.4L123,51.9z"/>
			<path class="st4" d="M123,51.9c-0.3,0.5-3.2-0.8-6.4-2.9s-5.7-4.1-5.4-4.6s3.2,0.8,6.4,2.9S123.3,51.5,123,51.9z"/>
			<path class="st1" d="M122.3,51.5c-0.2,0.3-2.7-0.9-5.5-2.7s-5-3.5-4.8-3.8s2.7,0.9,5.5,2.7S122.5,51.2,122.3,51.5z"/>
			<path class="st2" d="M122,51.3c-0.2,0.3-2.5-0.9-5.2-2.6s-4.7-3.3-4.6-3.5s2.5,0.9,5.2,2.6S122.1,51,122,51.3z"/>
			<path class="st0" d="M116.6,47.4c0.1,0,0.3,0.1,0.4,0.2l0.8,0.5c0.1,0.1,0.2,0.1,0.3,0.2c0,0,0.1,0.1,0.2,0.2
				c1.1,0.7,1.6,1.1,1.5,1.2l0,0l-1.7-1.1l0,0c0-0.1-0.3-0.3-0.8-0.6s-0.9-0.5-0.9-0.5s3.4,2.4,3.3,2.6s-0.7-0.2-1.8-0.9
				c-0.1-0.1-0.2-0.1-0.3-0.1c-0.1,0-0.3-0.1-0.4-0.2l-0.8-0.5c-0.1-0.1-0.2-0.1-0.3-0.2c0,0-0.1-0.1-0.2-0.2
				c-1.1-0.7-1.6-1.1-1.6-1.2l0,0c0.1,0,0.2,0.1,0.4,0.2l1,0.6c0.1,0.1,0.2,0.1,0.3,0.2l0,0c0,0,0.3,0.3,0.9,0.7s0.9,0.6,1,0.5
				s-3.4-2.4-3.2-2.6s0.7,0.2,1.7,0.8C116.4,47.3,116.5,47.4,116.6,47.4z"/>
			<path class="st4" d="M111.4,45.6L111.4,45.6L111.4,45.6l-0.1-0.2c0,0-0.1,0-0.1,0.1v0.1c0,0.1-0.1,0.1-0.1,0.2s-0.2,0.3-0.2,0.4
				l-0.5,0.8c-0.1,0.1,0.1,0.3,0.2,0.1s0.3-0.5,0.5-0.8l0.2-0.4L111.4,45.6z"/>
			<path class="st4" d="M112.2,46.5L112.2,46.5c0-0.1,0-0.1,0-0.2l-0.1-0.1c0,0-0.1,0-0.1,0.1l0,0c0,0.1-0.1,0.1-0.1,0.2
				c-0.1,0.1-0.2,0.3-0.2,0.4l-0.5,0.8c-0.1,0.1,0.1,0.3,0.2,0.1s0.3-0.5,0.5-0.8S112.1,46.8,112.2,46.5
				C112.1,46.4,112.2,46.6,112.2,46.5z"/>
			<path class="st4" d="M113.3,47.4L113.3,47.4L113.3,47.4l-0.1-0.2c0,0-0.1,0-0.1,0.1v0.1l-0.1,0.2c-0.1,0.1-0.2,0.3-0.2,0.4
				l-0.5,0.8c-0.1,0.1,0.1,0.3,0.2,0.1s0.3-0.5,0.5-0.8l0.2-0.4C113.2,47.6,113.3,47.5,113.3,47.4z"/>
			<path class="st4" d="M114.6,48.3L114.6,48.3L114.6,48.3l-0.1-0.2c0,0-0.1,0-0.1,0.1l-0.1,0.1c0,0.1-0.1,0.1-0.1,0.2l-0.2,0.4
				l-0.5,0.8c-0.1,0.1,0.1,0.3,0.2,0.1s0.3-0.5,0.5-0.8l0.2-0.4C114.5,48.5,114.6,48.4,114.6,48.3z"/>
			<path class="st4" d="M115.9,49.2L115.9,49.2c0-0.1,0-0.1,0-0.2c0,0,0,0-0.1-0.1c0,0-0.1,0-0.1,0.1l0,0l-0.1,0.2l-0.2,0.4
				l-0.5,0.8c-0.1,0.1,0.1,0.3,0.2,0.1l0.5-0.8L115.9,49.2C115.8,49.3,115.8,49.2,115.9,49.2z"/>
			<path class="st4" d="M122,52.3C122,52.3,122,52.2,122,52.3C122,52.2,122.1,52.2,122,52.3c0.1-0.1,0.2-0.1,0.2,0v0.1
				c0,0,0,0,0,0.1l-0.1,0.2c-0.1,0.1-0.2,0.2-0.2,0.4l-0.5,0.8c-0.1,0.1-0.3,0-0.2-0.1s0.3-0.5,0.5-0.8l0.2-0.4
				C121.9,52.4,121.9,52.3,122,52.3z"/>
			<path class="st4" d="M120.8,51.9L120.8,51.9C120.8,51.8,120.9,51.8,120.8,51.9c0.1-0.1,0.2-0.1,0.2,0V52c0,0,0,0,0,0.1
				s-0.1,0.1-0.1,0.2l-0.2,0.4c-0.2,0.2-0.3,0.5-0.5,0.8s-0.3,0-0.2-0.1l0.4-1l0.2-0.4C120.7,52,120.7,51.9,120.8,51.9z"/>
			<path class="st4" d="M119.5,51.3L119.5,51.3C119.5,51.2,119.6,51.2,119.5,51.3c0.1-0.1,0.2-0.1,0.2,0v0.1c0,0,0,0,0,0.1
				s-0.1,0.1-0.1,0.2l-0.2,0.4c-0.2,0.2-0.3,0.5-0.5,0.8s-0.3,0-0.2-0.1l0.5-0.8l0.2-0.4C119.4,51.4,119.5,51.4,119.5,51.3z"/>
			<path class="st4" d="M118.1,50.5L118.1,50.5C118.1,50.4,118.2,50.4,118.1,50.5c0.1-0.1,0.2-0.1,0.2,0v0.1c0,0,0,0,0,0.1l-0.1,0.2
				l-0.2,0.4c-0.2,0.2-0.3,0.5-0.5,0.8s-0.3,0-0.2-0.1l0.5-0.8c0.1-0.1,0.2-0.2,0.2-0.4L118.1,50.5z"/>
			<path class="st4" d="M116.8,49.7L116.8,49.7C116.8,49.6,116.9,49.6,116.8,49.7c0.1-0.1,0.2-0.1,0.2,0v0.1v0.1l-0.1,0.2l-0.2,0.4
				c-0.2,0.2-0.3,0.5-0.5,0.8s-0.3,0-0.2-0.1l0.5-0.8c0.1-0.1,0.2-0.2,0.2-0.4S116.7,49.8,116.8,49.7z"/>
			<path class="st0" d="M122.7,51.6c0-0.1,0-0.1-0.1-0.2c0-0.1-0.1-0.1-0.1-0.1l-0.1-0.1l0,0l0,0l0,0l0,0c0,0,0,0.1,0.1,0.1l0,0l0,0
				l0,0l0,0l0,0l0,0l0,0v0.1l0.1,0.1h0.1c0,0,0.1,0,0.1-0.1C122.7,51.5,122.7,51.6,122.7,51.6z"/>
		</g>
		<g>
			<path class="st0" d="M135,46.1c3.5-1.5,6.2-3.2,6-3.7s-3.3,0.3-6.8,1.9s-6.2,3.2-6,3.7C128.5,48.4,131.5,47.6,135,46.1z"/>
			<path class="st0" d="M140.1,40.2l-12.8,5.5l1,2.2l12.7-5.5L140.1,40.2z"/>
			<path class="st4" d="M140.1,40.2c0.2,0.5-2.5,2.2-6,3.7s-6.6,2.3-6.8,1.9s2.5-2.2,6-3.7S139.9,39.7,140.1,40.2z"/>
			<path class="st1" d="M139.4,40.6c0.1,0.3-2.3,1.7-5.4,3s-5.8,2.2-5.9,1.8c-0.1-0.4,2.3-1.7,5.4-3S139.2,40.2,139.4,40.6z"/>
			<path class="st2" d="M139,40.7c0.1,0.3-2.1,1.5-5,2.8s-5.4,2-5.5,1.8s2.1-1.5,5-2.8S138.9,40.4,139,40.7z"/>
			<path class="st0" d="M132.7,42.9c0.1-0.1,0.2-0.1,0.4-0.2l0.8-0.4c0.2-0.1,0.4-0.2,0.4-0.1c0.1,0,0.2-0.1,0.3-0.1
				c1.2-0.5,1.8-0.7,1.9-0.6l0,0l-1.8,0.8l0,0c0-0.1-0.4,0.1-1,0.3s-1,0.4-0.9,0.5s3.9-1.5,4-1.2s-0.6,0.5-1.7,1
				c-0.1,0-0.2,0.1-0.3,0.2c-0.1,0.1-0.2,0.1-0.4,0.2l-0.8,0.4c-0.1,0.1-0.3,0.1-0.4,0.1c0,0-0.1,0-0.3,0.1
				c-1.2,0.5-1.9,0.7-1.9,0.6l0,0c0.1-0.1,0.2-0.1,0.4-0.2l1.1-0.5c0.1-0.1,0.3-0.1,0.4-0.1l0,0c0.4-0.1,0.7-0.2,1-0.4
				c0.6-0.3,1-0.5,1-0.5s-3.9,1.5-4,1.2s0.5-0.4,1.7-1L132.7,42.9z"/>
			<path class="st4" d="M128.3,46.2L128.3,46.2C128.3,46.1,128.2,46.1,128.3,46.2l-0.2-0.1v0.1v0.1c0,0.1,0.1,0.2,0.1,0.2
				s0.1,0.3,0.2,0.4c0.1,0.1,0.2,0.5,0.3,0.8c0,0.1,0.1,0.1,0.2,0c0,0,0.1-0.1,0-0.1l-0.4-0.8l-0.1-0.4
				C128.4,46.4,128.4,46.3,128.3,46.2z"/>
			<path class="st4" d="M129.5,46L129.5,46c0-0.1-0.1-0.1-0.1-0.1h-0.1V46c0,0,0,0,0,0.1s0.1,0.2,0.1,0.2l0.2,0.4l0.4,0.8
				c0,0.1,0.1,0.1,0.2,0.1c0.1,0,0.1-0.1,0.1-0.2l0,0c-0.1-0.3-0.2-0.5-0.4-0.8l-0.2-0.4C129.6,46.2,129.6,46.1,129.5,46z"/>
			<path class="st4" d="M130.9,45.6L130.9,45.6c0-0.1-0.1-0.1-0.1-0.1h-0.1v0.1v0.1c0,0.1,0.1,0.2,0.1,0.2s0.1,0.3,0.2,0.4
				s0.2,0.5,0.4,0.8c0,0.1,0.1,0.1,0.2,0c0,0,0.1-0.1,0-0.1l-0.4-0.8c-0.1-0.1-0.1-0.3-0.2-0.4C131,45.8,130.9,45.7,130.9,45.6z"/>
			<path class="st4" d="M132.4,45.1L132.4,45.1c0-0.1-0.1-0.1-0.1-0.1h-0.1v0.1c0,0,0,0,0,0.1s0.1,0.2,0.1,0.2l0.2,0.4l0.4,0.8
				c0,0.1,0.1,0.1,0.2,0.1c0.1,0,0.1-0.1,0.1-0.2l0,0c-0.1-0.3-0.2-0.5-0.4-0.8l-0.2-0.4C132.5,45.2,132.4,45.2,132.4,45.1z"/>
			<path class="st4" d="M133.8,44.5L133.8,44.5c0-0.1-0.1-0.1-0.1-0.1h-0.1v0.1v0.1c0,0.1,0.1,0.1,0.1,0.2c0.1,0.1,0.1,0.3,0.2,0.4
				c0.1,0.3,0.2,0.5,0.4,0.8c0,0.1,0.1,0.1,0.2,0c0,0,0.1-0.1,0-0.1c-0.1-0.3-0.2-0.5-0.4-0.8l-0.2-0.4
				C133.9,44.6,133.8,44.6,133.8,44.5z"/>
			<path class="st4" d="M139.8,41.2L139.8,41.2c0-0.1,0-0.1,0-0.2c0,0,0.1-0.1,0.1,0c0,0,0.1,0,0.1,0.1c0,0,0,0,0,0.1
				s0.1,0.1,0.1,0.2c0.1,0.1,0.1,0.3,0.2,0.4s0.2,0.5,0.4,0.8c0,0.1,0,0.1-0.1,0.1h-0.1c-0.1-0.3-0.2-0.5-0.4-0.8l-0.2-0.4
				C139.9,41.4,139.8,41.3,139.8,41.2z"/>
			<path class="st4" d="M138.8,42L138.8,42c0-0.1,0-0.1,0-0.2c0,0,0.1-0.1,0.1,0c0,0,0.1,0,0.1,0.1c0,0,0,0,0,0.1s0.1,0.2,0.1,0.2
				s0.1,0.3,0.2,0.4s0.2,0.5,0.4,0.8c0,0.1,0,0.1-0.1,0.1h-0.1c-0.1-0.3-0.2-0.5-0.4-0.8l-0.2-0.4C138.9,42.2,138.8,42.1,138.8,42z"
				/>
			<path class="st4" d="M137.6,42.7L137.6,42.7c0-0.1,0-0.1,0-0.2h0.1c0,0,0.1,0,0.1,0.1c0,0,0,0,0,0.1s0.1,0.1,0.1,0.2
				c0.1,0.1,0.1,0.3,0.2,0.4l0.4,0.8c0.1,0.2-0.2,0.2-0.2,0.1l-0.4-0.8l-0.2-0.4C137.7,42.9,137.6,42.8,137.6,42.7z"/>
			<path class="st4" d="M136.2,43.4L136.2,43.4c0-0.1,0-0.1,0-0.2h0.1c0,0,0.1,0,0.1,0.1c0,0,0,0,0,0.1s0.1,0.1,0.1,0.2l0.2,0.4
				l0.4,0.8c0.1,0.2-0.2,0.2-0.2,0.1l-0.4-0.8l-0.2-0.4C136.3,43.6,136.2,43.6,136.2,43.4z"/>
			<path class="st4" d="M134.8,44.1L134.8,44.1c0-0.1,0-0.1,0-0.2h0.1c0,0,0.1,0,0.1,0.1c0,0,0,0,0,0.1s0.1,0.2,0.1,0.2
				c0.1,0.1,0.1,0.3,0.2,0.4c0.1,0.3,0.2,0.5,0.4,0.8c0,0.1,0,0.1-0.1,0.1h-0.1c-0.1-0.3-0.2-0.5-0.4-0.8l-0.2-0.4
				C134.9,44.3,134.8,44.2,134.8,44.1z"/>
			<path class="st0" d="M139.7,40.3c-0.1,0-0.1,0-0.2,0h-0.2h-0.1l0,0l0,0l0,0h0.1l0,0h0.1h0.1l0,0l0,0
				C139.6,40.3,139.6,40.3,139.7,40.3L139.7,40.3L139.7,40.3C139.8,40.2,139.8,40.2,139.7,40.3C139.7,40.2,139.7,40.2,139.7,40.3z"
				/>
			<path class="st0" d="M139.5,40.7L139.5,40.7L139.5,40.7L139.5,40.7L139.5,40.7L139.5,40.7L139.5,40.7L139.5,40.7l0.1,0.1l0,0l0,0
				l0,0l0,0l0,0l0,0C139.6,40.8,139.5,40.7,139.5,40.7z"/>
		</g>
		<path class="st4" d="M133.1,58.7c1.8,3,0.8,6.9-2.2,8.6c-3,1.8-6.9,0.8-8.6-2.2c-1.8-3-0.8-6.8,2.2-8.6
			C127.4,54.8,131.2,55.7,133.1,58.7C133,58.7,133.1,58.7,133.1,58.7z"/>
		<path class="st1" d="M127.7,67.2c2.9,0,5.3-2.4,5.3-5.3s-2.4-5.3-5.3-5.3c-2.9,0-5.3,2.4-5.3,5.3l0,0
			C122.4,64.9,124.8,67.2,127.7,67.2z"/>
		<path class="st2" d="M127.7,66.9c2.8,0,5-2.2,5-5c0-2.8-2.2-5-5-5c-2.8,0-5,2.2-5,5l0,0C122.7,64.7,124.9,66.9,127.7,66.9z"/>
		<path class="st0" d="M129.1,56.1c0,0-0.1-0.1-0.2-0.1c-0.1,0-0.2,0-0.3,0c-0.2,0-0.5-0.1-0.7-0.1h-0.7c-0.2,0-0.5,0-0.6,0.3
			c0,0,0,0.1,0,0.2c0.2,0.1,0.4,0.1,0.6,0c0.2,0,0.4,0,0.6,0s0.4,0,0.6,0l0.3,0.1c0.1,0,0.1,0,0.2,0c0.1,0,0.1-0.1,0.2-0.1v-0.1
			C129.1,56.2,129.1,56.2,129.1,56.1z"/>
		<path class="st0" d="M130.3,56.6l-0.1-0.1l0,0v-0.1c0,0,0,0-0.1,0H130l-0.1-0.1l-0.2-0.1c-0.1,0-0.1,0-0.2,0
			c-0.1,0-0.1,0.1-0.1,0.2v0.1c0,0,0,0.1,0.1,0.1s0.1,0.1,0.2,0.1h0.1l0,0h0.1l0,0h0.1l0,0h0.1l0,0 M130.2,56.8L130.2,56.8
			L130.2,56.8c0-0.1,0.1-0.2,0.1-0.2L130.2,56.8z"/>
		<path class="st14" d="M130.3,64L130.3,64v-0.2l-0.1-0.1l-0.2-0.1l-0.1-0.1l0.1-0.1c0.1-0.2,0.1-0.3,0.2-0.5c0-0.2,0-0.3,0-0.5
			s-0.1-0.4-0.1-0.5c-0.1-0.2-0.2-0.3-0.3-0.4c-0.2-0.1-0.4-0.2-0.6-0.3c-0.2,0-0.4,0-0.6,0c-0.2,0.1-0.4,0.1-0.6,0.2
			c-0.2,0.1-0.4,0.2-0.6,0.3c-0.2,0.2-0.4,0.2-0.5,0.3s-0.2,0.1-0.4,0.1c-0.1,0-0.2,0-0.3,0c-0.1,0-0.2-0.1-0.2-0.1
			c-0.1-0.1-0.1-0.2-0.2-0.3c0-0.1-0.1-0.2-0.1-0.3s0-0.3,0.1-0.4c0.1-0.1,0.1-0.2,0.2-0.3s0.2-0.2,0.3-0.2c0.1-0.1,0.2-0.1,0.3-0.2
			c0.1,0,0.2,0,0.3,0c0.1,0,0.2,0,0.3,0.1h0.1h0.1h0.1c0,0,0.1,0,0.1-0.1l0.1-0.1v-0.1l0,0V60l-0.1-0.1l0,0l0,0l0,0
			c-0.1-0.1-0.3-0.1-0.4-0.2c-0.2,0-0.3,0-0.5,0c-0.1,0-0.3,0.1-0.4,0.1c-0.1,0.1-0.3,0.1-0.4,0.2h-0.1l-0.1-0.1l-0.2-0.1l-0.1-0.1
			h-0.1l0,0h-0.1l-0.1,0.1l-0.1,0.1V60l0,0v0.1c0,0,0,0.1,0.1,0.1l0,0l0.2,0.1l0.1,0.1v0.1c-0.1,0.2-0.2,0.3-0.2,0.5s0,0.3,0,0.5
			s0.1,0.4,0.2,0.5c0.1,0.2,0.2,0.3,0.3,0.4c0.2,0.1,0.4,0.3,0.6,0.3s0.4,0,0.6,0s0.4-0.1,0.6-0.2c0.2-0.1,0.4-0.2,0.6-0.4
			c0.2-0.1,0.4-0.2,0.5-0.3s0.3-0.1,0.4-0.1c0.2,0,0.3,0,0.5,0.1c0.1,0.1,0.1,0.2,0.2,0.3c0,0.1,0.1,0.2,0.1,0.3s0,0.3-0.1,0.4
			c-0.1,0.1-0.1,0.2-0.2,0.3c-0.1,0.1-0.2,0.2-0.3,0.2c-0.1,0.1-0.2,0.1-0.3,0.2c-0.1,0-0.2,0-0.3,0s-0.2,0-0.3-0.1h-0.1h-0.1H128
			l-0.1,0.1l-0.1,0.1v0.1v0.1l0.1,0.1l0,0l0,0l0,0c0.1,0.1,0.3,0.1,0.4,0.2c0.2,0,0.3,0,0.5,0c0.1,0,0.3-0.1,0.4-0.1
			c0.1-0.1,0.3-0.1,0.4-0.2h0.1h0.1l0.2,0.1l0.1,0.1L130.3,64L130.3,64c0,0,0.1,0,0.1-0.1C130.3,64.1,130.3,64,130.3,64z"/>
	</g>
</g>
</svg>
