<?xml version="1.0" encoding="utf-8"?>
<!-- Generator: Adobe Illustrator 25.2.0, SVG Export Plug-In . SVG Version: 6.00 Build 0)  -->
<svg version="1.1" id="Layer_1" xmlns="http://www.w3.org/2000/svg" xmlns:xlink="http://www.w3.org/1999/xlink" x="0px" y="0px"
	 viewBox="0 0 500 500" style="enable-background:new 0 0 500 500;" xml:space="preserve">
<style type="text/css">
	.st0{display:none;}
	.st1{display:inline;fill:#E0E0E0;}
	.st2{fill:#F5F5F5;}
	.st3{fill:#D8D8D8;}
	.st4{fill:#BDBDBD;}
	.st5{fill:#E5E5E5;}
	.st6{fill:#263238;}
	.st7{fill:#C6B6FF;}
	.st8{fill:#666666;}
	.st9{fill:#7C4DFF;}
	.st10{fill:#455A64;}
	.st11{fill:#E8505B;}
	.st12{fill:#FAFAFA;}
	.st13{fill:#E0E0E0;}
	.st14{fill:#3559FA;}
	.st15{fill:url(#SVGID_1_);}
	.st16{opacity:0.3;}
	.st17{fill:#726ABA;}
	.st18{fill:none;}
	.st19{fill:#EAB498;}
	.st20{opacity:0.4;}
	.st21{fill:#423E93;}
	.st22{fill:#AA6550;}
	.st23{fill:url(#SVGID_2_);}
	.st24{fill:#BCA6FF;}
	.st25{opacity:0.25;fill:#34648C;enable-background:new    ;}
</style>
<g id="Background_Complete">
</g>
<g id="Background_Simple" class="st0">
	<path class="st1" d="M37.6,167c0.9-29,9.6-57.4,25-81.3c16.9-26.2,43.2-47.6,74.3-51.5c31.1-4,66.4,13,78.2,43
		c11.9,30.3-0.4,67.9,19.3,93.9c11.9,15.7,32.5,22.2,51.7,22.1c19.1-0.1,37.5-5.8,56.1-10c18.5-4.2,38.3-6.7,56.7-0.7
		c28.8,9.4,49,39.4,51.7,69.6c2.7,30.2-10.1,59.8-29.9,81.8c-19.7,22-48.3,39.7-75.4,51.6c-48.1,21.1-107.2,25.8-156.8,4.3
		C156.7,376,106.7,360,84.2,333.1C51.7,294.3,30.1,216.3,37.6,167"/>
</g>
<g id="Floor">
</g>
<g id="Charts">
</g>
<g id="Screen">
</g>
<g id="Plant">
</g>
<g>
	<g>
		<g>
			<g>
				<path class="st2" d="M313.3,386.5l-6.1,33c-18.3-3.4-30.6-20.7-27.6-38.7c3.1-18.1,20.8-30.5,39.3-27.3
					c18.5,3.1,31.1,20.6,28.1,38.7L313.3,386.5z"/>
			</g>
		</g>
	</g>
	<g>
		<g>
			<g>
				<path class="st3" d="M404.9,239.6c14.4,8.1,32.9,3.1,41.1-11.3c8.2-14.4,3.2-32.7-11.2-40.9c-14.4-8.1-32.9-3.1-41.1,11.3
					C385.4,213.1,390.4,231.4,404.9,239.6z M407.3,206.4c3.9-6.9,12.8-9.3,19.7-5.4c6.9,3.9,9.3,12.7,5.4,19.5
					c-3.9,6.9-12.8,9.3-19.7,5.4C405.8,222.1,403.3,213.3,407.3,206.4z"/>
			</g>
			<g>
				<g>
					<path class="st4" d="M446,228.3c-8.2,14.4-26.7,19.4-41.1,11.3l7.8-13.6c6.9,3.9,15.7,1.5,19.7-5.4c3.9-6.9,1.5-15.6-5.4-19.5
						l7.8-13.6C449.2,195.6,454.2,213.9,446,228.3z"/>
				</g>
			</g>
			<g>
				<g>
					<path class="st5" d="M407.2,244.1c-17.7-10-24.6-31.4-14.5-49l17.7,9.2c-4.8,8.4-4,17.9,4.4,22.7L407.2,244.1z"/>
				</g>
			</g>
		</g>
	</g>
	<g>
		<g>
			<g>
				<path class="st5" d="M446.8,38.7c-24.7-23-63.7-21.7-86.8,2.9c-23.1,24.6-21.8,63.3,3,86.3c24.7,23,63.7,21.7,86.8-2.9
					C472.9,100.4,471.5,61.7,446.8,38.7z M426.3,103.3c-11.1,11.8-29.7,12.4-41.5,1.4s-12.5-29.5-1.4-41.3S413.1,51,424.9,62
					C436.7,73,437.4,91.5,426.3,103.3z"/>
			</g>
			<g>
				<g>
					<path class="st4" d="M360,41.7c23.1-24.6,62.1-25.9,86.8-2.9L424.9,62c-11.8-11-30.5-10.4-41.5,1.4
						c-11.1,11.8-10.4,30.3,1.4,41.3L362.9,128C338.2,105,336.9,66.3,360,41.7z"/>
				</g>
			</g>
			<g>
				<g>
					<path class="st3" d="M444.3,28.7c30.3,28.2,33.9,73.9,5.6,104.1l-30.8-26.6c13.5-14.4,16.5-33.6,2-47.1L444.3,28.7z"/>
				</g>
			</g>
		</g>
	</g>
	<g>
		<rect x="49.5" y="42.7" class="st4" width="109.1" height="98.6"/>
	</g>
	<g>
		<g>
			<path class="st6" d="M468.8,479.2c0,0.1-102.4,0.3-228.6,0.3c-126.3,0-228.6-0.1-228.6-0.3c0-0.1,102.3-0.3,228.6-0.3
				C366.5,478.9,468.8,479,468.8,479.2z"/>
		</g>
	</g>
	<g>
		<path class="st7" d="M200.6,437.7l24.7,11.4c-9.8,21.2-29,33.5-42.6,27.3c-13.5-6.3-18.1-29.9-8.3-51.2
			c9.8-21.2,27.9-27.8,42.7-26.8c0,0,12-0.2,16.8,8.1L200.6,437.7z"/>
	</g>
	<g>
		<path class="st8" d="M209.1,439.1l24.7,11.4c-9.8,21.2-29,33.5-42.6,27.3c-13.5-6.3-16.6-28.9-6.8-50.1s29-33.5,42.6-27.3
			c4.5,2.1,8.1,6.1,10.2,11.7L209.1,439.1z"/>
	</g>
	<g>
		<g>
			<path class="st9" d="M181.8,434.2c0.1,0.1-2.4,1.5-5.6,2.9c-3.2,1.4-5.9,2.4-5.9,2.2c-0.1-0.1,2.5-1.3,5.7-2.7
				C179.2,435.2,181.8,434.1,181.8,434.2z"/>
		</g>
	</g>
	<g>
		<g>
			<path class="st9" d="M179.1,446.4c0.1,0.1-2.1,1.2-4.8,2.4c-2.7,1.2-5.1,1.9-5.1,1.8s2.2-1,4.9-2.2
				C176.8,447.3,179,446.3,179.1,446.4z"/>
		</g>
	</g>
	<g>
		<g>
			<path class="st9" d="M179,456.6c0.1,0.1-1.7,1-3.9,2c-2.2,0.9-4.1,1.5-4.1,1.4s1.7-0.9,3.9-1.8
				C177.2,457.3,178.9,456.5,179,456.6z"/>
		</g>
	</g>
	<g>
		<g>
			<path class="st9" d="M181,465.9c0.1,0.1-1.5,1-1.4,1c-2.8,1.2-5.1,2-5.1,1.9c-0.1-0.1,2.2-1.1,4.9-2.4
				C180.6,465.9,180.9,465.8,181,465.9z"/>
		</g>
	</g>
	<g>
		<g>
			<path class="st9" d="M186,474.1c0.1,0.1-2.5,1.3-1.2,0.7c-2.8,1.2-2.9,1.2-3,1.1s-1.1,0.2,1.7-1C186.2,473.6,185.9,474,186,474.1
				z"/>
		</g>
	</g>
	<g>
		<g>
			<path class="st9" d="M186.5,423.7c0.1,0.1-3.1,1.7-6.9,3.4c-3.9,1.7-7.1,3.1-7.2,2.9c-0.1-0.1,3-1.7,6.9-3.4
				C183.2,424.8,186.4,423.5,186.5,423.7z"/>
		</g>
	</g>
	<g>
		<g>
			<path class="st9" d="M193.6,413.3c0.1,0.1-3.6,1.7-8.2,3.6c-4.6,1.9-8.3,3.2-8.4,3.1c-0.1-0.1,3.6-1.7,8.2-3.6
				S193.6,413.1,193.6,413.3z"/>
		</g>
	</g>
	<g>
		<g>
			<path class="st9" d="M208.2,401.6c0.1,0.1-5.2,2.2-11.7,4.6s-11.8,4.3-11.9,4.1c-0.1-0.1,5.2-2.2,11.7-4.6
				C202.8,403.3,208.2,401.4,208.2,401.6z"/>
		</g>
	</g>
	<g>
		<g>
			<rect x="229.8" y="437.9" class="st6" width="83.5" height="12.4"/>
		</g>
		<g>
			<g>
				<path class="st10" d="M254.1,437.8c0.1,0.1-1.1,2.9-2.7,6.4c-1.6,3.5-3.1,6.2-3.2,6.1c-0.1-0.1,1.1-2.9,2.7-6.4
					C252.5,440.5,254,437.8,254.1,437.8z"/>
			</g>
		</g>
		<g>
			<g>
				<path class="st10" d="M267.2,437.8c0.1,0.1-1.1,2.9-2.7,6.4s-3.1,6.2-3.2,6.1s1.1-2.9,2.7-6.4
					C265.6,440.5,267.1,437.8,267.2,437.8z"/>
			</g>
		</g>
		<g>
			<g>
				<path class="st10" d="M280.3,437.8c0.1,0.1-1.1,2.9-2.7,6.4s-3.1,6.2-3.2,6.1s1.1-2.9,2.7-6.4
					C278.7,440.5,280.1,437.8,280.3,437.8z"/>
			</g>
		</g>
		<g>
			<g>
				<path class="st10" d="M293.4,437.8c0.1,0.1-1.1,2.9-2.7,6.4s-3.1,6.2-3.2,6.1s1.1-2.9,2.7-6.4
					C291.8,440.5,293.2,437.8,293.4,437.8z"/>
			</g>
		</g>
		<g>
			<g>
				<path class="st10" d="M306.5,437.8c0.1,0.1-1.1,2.9-2.7,6.4s-3.1,6.2-3.2,6.1s1.1-2.9,2.7-6.4
					C304.9,440.5,306.3,437.8,306.5,437.8z"/>
			</g>
		</g>
		<g>
			<g>
				<path class="st10" d="M242.9,437.8c0.1,0.1-1.1,2.9-2.7,6.4c-1.6,3.5-3.1,6.2-3.2,6.1s1.1-2.9,2.7-6.4
					C241.3,440.5,242.7,437.8,242.9,437.8z"/>
			</g>
		</g>
	</g>
	<g>
		<g>
			<g>
				<g>
					<path class="st11" d="M292.4,340l6.3,97.6c-5.5,0.4-11.2,2.2-16.6,0.6c-5.3-1.6-11-1.6-16.3-3.1l16.6-94.8L292.4,340z"/>
				</g>
				<g>
					<path class="st6" d="M292.4,340l6.3,97.6c-5.5,0.4-11.2,2.2-16.6,0.6c-5.3-1.6-11-1.6-16.3-3.1l16.6-94.8L292.4,340z"/>
				</g>
				<g>
					<path class="st9" d="M282.5,340.3l6.4,98.5c-5.5,0.4-11.1,0.3-16.6-0.3c-5.5-0.6-11-1.6-16.3-3.1L282.5,340.3z"/>
				</g>
			</g>
			<g>
				<g>
					<path class="st6" d="M297.5,419.6c0.1,0.1-1.9,3-4.4,6.5c-2.6,3.5-4.7,6.3-4.8,6.2c-0.1-0.1,1.9-3,4.4-6.5
						C295.2,422.2,297.4,419.5,297.5,419.6z"/>
				</g>
			</g>
			<g>
				<g>
					<path class="st6" d="M296.6,403c0.1,0.1-1.9,3-4.4,6.5c-2.6,3.5-4.7,6.3-4.8,6.2c-0.1-0.1,1.9-3,4.4-6.5
						C294.3,405.7,296.5,402.9,296.6,403z"/>
				</g>
			</g>
			<g>
				<g>
					<path class="st6" d="M295.7,386.5c0.1,0.1-1.9,3-4.4,6.5c-2.6,3.5-4.7,6.3-4.8,6.2c-0.1-0.1,1.9-3,4.4-6.5
						C293.5,389.1,295.6,386.4,295.7,386.5z"/>
				</g>
			</g>
			<g>
				<g>
					<path class="st6" d="M294.9,369.9c0.1,0.1-1.9,3-4.4,6.5c-2.6,3.5-4.7,6.3-4.8,6.2c-0.1-0.1,1.9-3,4.4-6.5
						S294.8,369.8,294.9,369.9z"/>
				</g>
			</g>
			<g>
				<g>
					<path class="st6" d="M294,353.4c0.1,0.1-1.9,3-4.4,6.5c-2.6,3.5-4.7,6.3-4.8,6.2c-0.1-0.1,1.9-3,4.4-6.5
						C291.7,356,293.9,353.3,294,353.4z"/>
				</g>
			</g>
			<g>
				<g>
					<path class="st6" d="M290.8,340c0.1,0.1-1.3,2.3-3.2,4.9c-1.9,2.6-3.5,4.7-3.7,4.6c-0.1-0.1,1.3-2.3,3.2-4.9
						S290.7,339.9,290.8,340z"/>
				</g>
			</g>
		</g>
		<g>
			<g>
				<path class="st12" d="M287.2,427.4c0,0-0.9,0.6-2.8,1.1s-4.8,0.8-8.1-0.4c-3.3-1.1-6.8-4.1-8.3-8.5c-0.8-2.2-1-4.7-0.4-7.2
					c0.3-1.2,0.9-2.4,1.7-3.5c0.8-1,2-1.8,3.3-2.3c1.3-0.4,2.7-0.5,4,0s2.3,1.4,3,2.5c1.5,2.1,1.7,4.9,0.7,7.1s-2.9,3.6-4.8,4.4
					s-3.9,1-5.6,0.7s-3.2-0.9-4.4-1.6c-1.2-0.7-2.2-1.4-2.9-2c-0.7-0.6-1.2-1.2-1.6-1.6c-0.3-0.4-0.5-0.6-0.5-0.6s0.2,0.2,0.6,0.5
					c0.4,0.4,0.9,0.9,1.6,1.5c1.5,1.2,3.8,2.9,7.2,3.4c1.7,0.2,3.6,0.1,5.4-0.7c1.8-0.8,3.6-2.2,4.5-4.2s0.7-4.6-0.7-6.6
					c-0.7-1-1.6-1.8-2.8-2.3c-1.1-0.5-2.4-0.4-3.6,0s-2.3,1.2-3,2.1c-0.8,1-1.3,2.1-1.6,3.3c-0.6,2.4-0.3,4.8,0.4,6.9
					c1.5,4.3,4.8,7.2,8,8.3c3.2,1.2,6.1,0.9,8,0.5C286.2,427.9,287.2,427.4,287.2,427.4z"/>
			</g>
		</g>
		<g>
			<g>
				<path class="st12" d="M285.1,383.9c0,0.1-1.1,0.4-2.7,1c-1.7,0.6-4,1.5-6.4,2.7s-4.5,2.6-6,3.6s-2.3,1.7-2.4,1.7
					c0,0,0.7-0.8,2.2-2c1.4-1.1,3.5-2.5,5.9-3.8c2.5-1.3,4.8-2.1,6.6-2.6C284,384.1,285.1,383.9,285.1,383.9z"/>
			</g>
		</g>
		<g>
			<g>
				<path class="st12" d="M284.3,361.3c0.1,0-1.3,2.4-4.1,4c-2.8,1.6-5.5,1.6-5.5,1.5c0-0.2,2.6-0.4,5.3-1.9
					C282.7,363.3,284.2,361.2,284.3,361.3z"/>
			</g>
		</g>
	</g>
	<g>
		<g>
			<g>
				<g>
					<rect x="127.7" y="83.3" class="st2" width="271.8" height="245.5"/>
				</g>
				<g>
					<g>
						<path class="st6" d="M399.5,328.8c0-1.9-0.1-97.8-0.2-245.5l0.2,0.2c-78.3,0-171.7,0-271.8,0l0,0l0.3-0.3
							c0,89.4,0,173.4,0,245.5l-0.2-0.2C290.1,328.7,397.5,328.8,399.5,328.8c-2,0-109.4,0.1-271.8,0.2h-0.2v-0.2
							c0-72.1,0-156.1,0-245.5V83h0.3l0,0c100,0,193.5,0,271.8,0h0.2v0.2C399.6,231,399.5,326.9,399.5,328.8z"/>
					</g>
				</g>
			</g>
			<g>
				<g>
					<path class="st13" d="M400.5,98.1c0,0.1-61.1,0.3-136.4,0.3c-75.4,0-136.4-0.1-136.4-0.3c0-0.1,61.1-0.3,136.4-0.3
						C339.4,97.8,400.5,97.9,400.5,98.1z"/>
				</g>
			</g>
			<g>
				<circle class="st3" cx="134.9" cy="92" r="2.8"/>
			</g>
			<g>
				<circle class="st3" cx="143.4" cy="92" r="2.8"/>
			</g>
			<g>
				<circle class="st3" cx="151.9" cy="92" r="2.8"/>
			</g>
		</g>
		<g>
			<g>
				<path class="st7" d="M357.3,288.9c0,3.9-3.1,7-7,7s-7-3.1-7-7s3.1-7,7-7C354.2,281.9,357.3,285.1,357.3,288.9z"/>
			</g>
			<g>
				<path class="st8" d="M357.3,308c0,3.9-3.1,7-7,7s-7-3.1-7-7s3.1-7,7-7C354.2,301,357.3,304.1,357.3,308z"/>
			</g>
			<g>
				<g>
					<path class="st6" d="M378.5,287.6c0,0.1-3.8,0.3-8.4,0.3c-4.7,0-8.4-0.1-8.4-0.3c0-0.1,3.8-0.3,8.4-0.3
						C374.7,287.3,378.5,287.4,378.5,287.6z"/>
				</g>
			</g>
			<g>
				<g>
					<path class="st6" d="M377.4,308.6c0,0.1-3.3,0.3-7.4,0.3s-7.4-0.1-7.4-0.3c0-0.1,3.3-0.3,7.4-0.3
						C374,308.3,377.4,308.4,377.4,308.6z"/>
				</g>
			</g>
		</g>
		<g>
			<g>
				<g>
					<path class="st11" d="M257.8,215.4l-11.2-78.6c17.6-2.5,35.5,1,50.9,9.8c37.7,21.8,50.9,70.8,29.1,108.5s-70.8,50.9-108.5,29.1
						L257.8,215.4z"/>
				</g>
				<g>
					<path class="st6" d="M257.8,215.4l-11.2-78.6c17.6-2.5,35.5,1,50.9,9.8c37.7,21.8,50.9,70.8,29.1,108.5s-70.8,50.9-108.5,29.1
						L257.8,215.4z"/>
				</g>
				<g>
					<path class="st9" d="M243.2,212.6L232,133.9c17.6-2.5,35.5,1,50.9,9.8c37.7,21.8,50.9,70.8,29.1,108.5s-70.8,50.9-108.5,29.1
						L243.2,212.6z"/>
				</g>
				<g>
					<g>
						<path class="st14" d="M281.6,291.2c0,0.1-2.4-0.9-5.2-2.1c-2.9-1.2-5.2-2.3-5.1-2.3s2.4,0.9,5.2,2.1
							C279.3,290.1,281.6,291.2,281.6,291.2z"/>
					</g>
				</g>
				<g>
					<g>
						<path class="st14" d="M268.4,294c0,0.1-2-0.7-4.4-1.8c-2.4-1-4.3-1.9-4.3-2s2,0.7,4.4,1.8C266.5,293.1,268.4,294,268.4,294z"
							/>
					</g>
				</g>
				<g>
					<g>
						<path class="st14" d="M295.4,285.4c0,0.1-2.6-1-5.8-2.3c-3.2-1.3-5.8-2.4-5.7-2.5c0-0.1,2.6,1,5.8,2.3
							C292.9,284.2,295.4,285.3,295.4,285.4z"/>
					</g>
				</g>
				<g>
					<g>
						<path class="st14" d="M307.4,278.2c0,0.1-2.7-1.1-5.9-2.6c-3.2-1.5-5.8-2.8-5.8-2.8c0-0.1,2.7,1.1,5.9,2.6
							C304.9,276.9,307.5,278.2,307.4,278.2z"/>
					</g>
				</g>
				<g>
					<g>
						<path class="st14" d="M316.4,268c0,0.1-2.6-1.1-5.7-2.6s-5.6-2.8-5.6-2.8c0-0.1,2.6,1.1,5.7,2.6S316.4,267.9,316.4,268z"/>
					</g>
				</g>
				<g>
					<g>
						<path class="st14" d="M326,260.2c0,0.1-3.3-1.5-7.3-3.5s-7.2-3.6-7.2-3.7c0-0.1,3.3,1.5,7.3,3.5
							C322.8,258.5,326,260.2,326,260.2z"/>
					</g>
				</g>
				<g>
					<g>
						<path class="st14" d="M329.5,249.6c0,0-0.2,0-0.5-0.2c-0.3-0.1-0.8-0.3-1.4-0.6c-1.2-0.5-2.8-1.2-4.6-2.1
							c-1.8-0.9-3.4-1.7-4.5-2.4c-0.6-0.3-1-0.6-1.3-0.8s-0.5-0.3-0.5-0.3s0.2,0.1,0.5,0.2c0.4,0.2,0.9,0.5,1.4,0.7
							c1.1,0.6,2.7,1.4,4.5,2.3c1.8,0.9,3.4,1.6,4.6,2.1c0.5,0.2,1,0.4,1.4,0.6C329.3,249.5,329.5,249.6,329.5,249.6z"/>
					</g>
				</g>
				<g>
					<g>
						<path class="st14" d="M333.3,240c0,0.1-3-1.4-6.6-3.1c-3.6-1.8-6.6-3.3-6.5-3.3c0-0.1,3,1.3,6.6,3.1
							C330.4,238.4,333.3,239.9,333.3,240z"/>
					</g>
				</g>
				<g>
					<g>
						<path class="st14" d="M335.5,228.8c0,0.1-3-1.4-6.6-3.1c-3.6-1.8-6.6-3.3-6.5-3.3c0-0.1,3,1.3,6.6,3.1
							S335.5,228.8,335.5,228.8z"/>
					</g>
				</g>
				<g>
					<g>
						<path class="st14" d="M337.1,218.2c0,0.1-3.2-1.5-7.1-3.4s-7.1-3.5-7-3.6s3.2,1.5,7.1,3.4
							C333.9,216.5,337.1,218.1,337.1,218.2z"/>
					</g>
				</g>
				<g>
					<g>
						<path class="st14" d="M336.5,206.1c0,0.1-3.5-1.7-7.7-3.9s-7.6-4-7.6-4.1s3.5,1.7,7.7,3.9S336.5,206,336.5,206.1z"/>
					</g>
				</g>
				<g>
					<g>
						<path class="st14" d="M333.9,193.5c0,0.1-3.7-1.8-8.3-4.2c-4.5-2.4-8.2-4.3-8.2-4.4c0-0.1,3.7,1.8,8.3,4.2
							C330.3,191.4,334,193.4,333.9,193.5z"/>
					</g>
				</g>
				<g>
					<g>
						<path class="st14" d="M328,178.7c0,0.1-4.1-1.9-9.1-4.4s-9-4.5-9-4.6s4.1,1.9,9.1,4.4C324,176.6,328.1,178.6,328,178.7z"/>
					</g>
				</g>
				<g>
					<g>
						<path class="st14" d="M321.2,167.3c0,0.1-4.8-2.3-10.6-5.2c-5.8-2.9-10.6-5.3-10.5-5.4c0-0.1,4.8,2.3,10.6,5.2
							C316.5,164.9,321.3,167.3,321.2,167.3z"/>
					</g>
				</g>
				<g>
					<g>
						<path class="st14" d="M305,151.6c0,0.1-5-1.6-11.1-3.8c-6.1-2.1-11-3.9-11-4s5,1.6,11.1,3.8C300.1,149.7,305,151.5,305,151.6z
							"/>
					</g>
				</g>
			</g>
			<g>
				<g>
					<path class="st6" d="M321.3,195.7c0,0-0.3,0.1-0.9,0.1c-0.3,0-0.7,0.1-1.1,0.2c-0.4,0.1-0.9,0.2-1.5,0.4
						c-2.3,0.6-5.4,2.1-8.9,5c-1.8,1.4-3.6,3-5.6,4.9c-2,1.8-4.2,3.8-6.9,5.6c-2.6,1.8-5.7,3.4-9.3,4.2c-3.5,0.8-7.5,0.7-11.4-0.3
						s-7.8-3.1-10.7-6.3c-1.5-1.6-2.8-3.5-3.7-5.6c-0.9-2.1-1.5-4.4-1.4-6.8c0-2.4,0.8-4.8,2-6.9c1.3-2.1,3.1-3.9,5.3-5.2
						c2.2-1.3,4.6-2.2,7.2-2.5s5.3,0,7.8,0.8c5.1,1.6,9.6,5.2,12.8,9.8c3.2,4.6,5,10.1,6,15.8c0.9,5.7,1.1,11.6,0.5,17.5
						s-2.2,11.9-4.8,17.4c-2.7,5.5-6.5,10.4-11,14.3c-4.6,3.8-10,6.6-15.7,7.6c-5.7,1.1-11.6,0.6-16.8-1.3s-9.8-5.4-12.8-9.8
						c-3-4.4-4.6-9.6-4.5-14.7c0-2.5,0.5-5,1.3-7.3s2.1-4.5,3.7-6.2c0.8-0.8,1.8-1.6,2.9-2.1c1.1-0.5,2.2-0.8,3.4-0.9
						c2.3-0.1,4.6,0.6,6.4,1.8c0.9,0.6,1.8,1.3,2.5,2.1c0.7,0.8,1.3,1.7,1.8,2.7c0.9,1.9,1.3,4,1.3,6c0,4.1-1.5,7.8-3.5,10.8
						s-4.6,5.4-7.3,7.1c-2.7,1.7-5.5,2.8-8.2,3.3c-2.7,0.6-5.2,0.6-7.4,0.3c-4.5-0.5-7.7-2-9.8-3.2c-2-1.2-3-2-3-2s0.3,0.2,0.7,0.5
						c0.5,0.3,1.2,0.8,2.3,1.4c2,1.1,5.3,2.6,9.7,3c2.2,0.2,4.7,0.2,7.4-0.4c2.6-0.6,5.4-1.6,8.1-3.3c2.7-1.7,5.2-4,7.2-7
						c2-2.9,3.4-6.6,3.4-10.6c0-2-0.4-4-1.3-5.9c-0.5-0.9-1-1.8-1.7-2.6s-1.5-1.5-2.4-2.1c-1.8-1.2-4-1.9-6.2-1.7
						c-1.1,0.1-2.2,0.4-3.2,0.9s-1.9,1.2-2.7,2c-1.6,1.6-2.9,3.7-3.6,6c-0.8,2.3-1.2,4.7-1.3,7.2c0,5,1.5,10.1,4.5,14.4
						c2.9,4.4,7.4,7.7,12.6,9.6c5.2,1.9,10.9,2.3,16.5,1.2c5.6-1,11-3.8,15.5-7.5c4.5-3.8,8.3-8.6,10.9-14.1s4.2-11.4,4.8-17.2
						c0.6-5.9,0.4-11.8-0.5-17.4c-0.9-5.6-2.8-11.1-5.9-15.6s-7.5-8-12.5-9.6c-2.5-0.8-5.1-1.1-7.6-0.8s-4.9,1.1-7,2.4
						c-2.1,1.3-3.9,3-5.2,5c-1.2,2-2,4.4-2,6.7c-0.1,2.3,0.5,4.6,1.3,6.6c0.9,2.1,2.1,3.9,3.6,5.5c2.9,3.2,6.7,5.2,10.5,6.3
						c3.8,1,7.7,1.1,11.2,0.3c3.5-0.7,6.6-2.3,9.2-4.1s4.8-3.8,6.9-5.6c2-1.8,3.9-3.5,5.7-4.8c3.5-2.8,6.7-4.3,9-4.9
						c0.6-0.1,1.1-0.3,1.5-0.4c0.4-0.1,0.8-0.1,1.1-0.1C321,195.8,321.3,195.7,321.3,195.7z"/>
				</g>
			</g>
			<g>
				<g>
					<path class="st6" d="M291.2,148.5c0,0-0.1,0.1-0.2,0.2c-0.1,0.2-0.3,0.4-0.6,0.7c-0.5,0.6-1.3,1.4-2.3,2.5
						c-2.1,2.1-5.2,5-9.8,7.6c-2.3,1.3-5,2.4-8,3.1c-3,0.7-6.4,1-9.8,0.5c-1.7-0.2-3.5-0.7-5.2-1.3s-3.4-1.6-4.8-2.8
						c-1.4-1.2-2.7-2.8-3.4-4.7c-0.8-1.8-0.8-4.1,0.1-5.9c0.9-1.9,2.6-3.2,4.5-3.9s4-0.7,5.8,0s3.3,2,4.3,3.6s1.6,3.3,1.7,5.1
						c0.2,3.6-1.4,6.8-3.5,9.1s-4.8,3.6-7.4,4.3c-2.5,0.7-5,0.8-7,0.7c-2.1-0.1-3.9-0.5-5.3-0.9c-1.4-0.4-2.5-0.8-3.2-1.1
						c-0.4-0.2-0.6-0.3-0.8-0.4c-0.2-0.1-0.3-0.1-0.3-0.1s0.1,0,0.3,0.1s0.5,0.2,0.8,0.3c0.7,0.3,1.8,0.7,3.2,1
						c1.4,0.4,3.2,0.7,5.2,0.8c2.1,0.1,4.4-0.1,6.9-0.8s5.1-2,7.2-4.3c2-2.2,3.6-5.3,3.4-8.7c-0.1-1.7-0.7-3.4-1.6-4.9
						c-1-1.5-2.4-2.7-4.1-3.4c-3.4-1.4-7.9,0.1-9.6,3.6c-0.8,1.7-0.8,3.8,0,5.5c0.7,1.8,1.9,3.3,3.3,4.5c2.8,2.4,6.4,3.6,9.7,4.1
						c3.4,0.5,6.7,0.2,9.7-0.5s5.6-1.8,7.9-3c4.6-2.5,7.7-5.4,9.8-7.4c1-1,1.8-1.8,2.4-2.4c0.2-0.3,0.4-0.5,0.6-0.6
						C291.2,148.6,291.2,148.5,291.2,148.5z"/>
				</g>
			</g>
		</g>
		<g>
			<g>
				<path class="st9" d="M351.1,224.3c0,0,0-0.2,0-0.5s-0.1-0.8-0.1-1.3c-0.1-1.2-0.2-2.9-0.3-5.1c-0.3-4.4-0.8-10.9-2-18.8
					c-0.2-1-0.3-2-0.5-3s-0.4-2.1-0.6-3.1c-0.4-2.1-1.1-4.3-1.6-6.6c-1.3-4.5-3.1-9.2-5.4-13.9c-4.7-9.4-12.4-18.4-21.9-26
					c-4.8-3.7-9.9-6.8-14.9-9.5c-2.6-1.3-5.1-2.6-7.6-3.6c-2.5-1.2-5-2.1-7.5-3c-9.9-3.6-19.2-5.6-27.1-6.7s-14.4-1.3-18.8-1.1
					c-1.1,0-2.1,0-3,0.1c-0.8,0-1.6,0.1-2.2,0.1c-0.6,0-1,0.1-1.3,0.1s-0.5,0-0.5,0s0.2,0,0.5-0.1c0.3,0,0.8-0.1,1.3-0.1
					c0.6,0,1.3-0.1,2.2-0.2s1.8-0.2,3-0.2c4.5-0.2,10.9,0,18.9,1c7.9,1.1,17.3,3,27.2,6.6c2.5,0.9,5,1.8,7.5,3
					c2.6,1,5.1,2.3,7.7,3.6c5.1,2.7,10.2,5.8,15,9.6c9.5,7.6,17.2,16.6,22,26.1c2.4,4.7,4.1,9.5,5.4,14c0.6,2.3,1.2,4.5,1.6,6.6
					c0.2,1.1,0.4,2.1,0.6,3.1s0.3,2,0.5,3c1.2,7.9,1.6,14.4,1.8,18.8c0.1,2.2,0.2,4,0.2,5.1c0,0.6,0,1,0,1.3
					C351.1,224.2,351.1,224.3,351.1,224.3z"/>
			</g>
		</g>
		<g>
			<path class="st8" d="M357.2,224.3c0,3.3-2.7,6.1-6.1,6.1c-3.3,0-6.1-2.7-6.1-6.1c0-3.3,2.7-6.1,6.1-6.1S357.2,221,357.2,224.3z"
				/>
		</g>
		<g>
			<g>
				<path class="st8" d="M241.8,122.4c0,3.3-2.7,6.1-6.1,6.1c-3.3,0-6.1-2.7-6.1-6.1c0-3.3,2.7-6.1,6.1-6.1
					C239.1,116.4,241.8,119.1,241.8,122.4z"/>
			</g>
			<g>
				<g>
					<path class="st6" d="M260.6,111.8c0,0.1-6.5,0.3-14.5,0.3s-14.5-0.1-14.5-0.3c0-0.1,6.5-0.3,14.5-0.3
						C254.1,111.6,260.6,111.7,260.6,111.8z"/>
				</g>
			</g>
			<g>
				<g>
					<path class="st6" d="M267.6,111.8c0,0.1-1.1,0.3-2.4,0.3s-2.4-0.1-2.4-0.3c0-0.1,1.1-0.3,2.4-0.3
						C266.6,111.5,267.6,111.6,267.6,111.8z"/>
				</g>
			</g>
			<g>
				<path class="st2" d="M239.1,122.4c0,1.9-1.6,3.5-3.5,3.5s-3.5-1.6-3.5-3.5s1.6-3.5,3.5-3.5S239.1,120.5,239.1,122.4z"/>
			</g>
		</g>
		<g>
			<g>
				<path class="st13" d="M350.5,236.3c0,0,0,0.1-0.1,0.4c-0.1,0.3-0.2,0.7-0.3,1.2c-0.1,0.5-0.3,1.2-0.5,2s-0.4,1.7-0.7,2.7
					c-0.3,1-0.6,2.1-1,3.3s-0.9,2.5-1.4,3.9s-1.2,2.9-1.8,4.4c-0.6,1.6-1.5,3.1-2.3,4.8c-0.8,1.7-1.9,3.4-2.9,5.2
					c-0.5,0.9-1.1,1.8-1.7,2.7c-0.6,0.9-1.2,1.8-1.8,2.7c-0.6,0.9-1.3,1.8-2,2.7c-0.3,0.5-0.7,0.9-1,1.4c-0.4,0.5-0.7,0.9-1.1,1.4
					c-0.7,0.9-1.5,1.9-2.3,2.8s-1.6,1.8-2.5,2.7c-0.8,0.9-1.7,1.8-2.6,2.7c-0.9,0.9-1.8,1.8-2.8,2.7c-1,0.9-2,1.7-2.9,2.6
					c-1,0.8-2.1,1.7-3.1,2.5c-4.3,3.3-9,6.3-14.1,9c-5.1,2.6-10.4,4.6-15.5,6.2c-1.3,0.4-2.6,0.7-3.9,1.1c-1.3,0.3-2.6,0.6-3.9,0.9
					s-2.5,0.5-3.8,0.7s-2.5,0.4-3.7,0.6c-1.2,0.1-2.5,0.3-3.7,0.4s-2.4,0.1-3.6,0.2c-0.6,0-1.2,0.1-1.8,0.1c-0.6,0-1.2,0-1.7,0
					c-1.1,0-2.3,0-3.4,0s-2.2-0.1-3.3-0.1c-1.1-0.1-2.1-0.1-3.1-0.2c-2-0.2-4-0.4-5.9-0.7c-1.9-0.3-3.6-0.5-5.3-0.9
					s-3.2-0.7-4.7-1.1c-1.4-0.4-2.8-0.8-4-1.1c-1.2-0.4-2.3-0.8-3.3-1.1c-1-0.3-1.9-0.7-2.6-1c-0.7-0.3-1.4-0.6-1.9-0.8
					c-0.5-0.2-0.9-0.4-1.2-0.5s-0.4-0.2-0.4-0.2s0.1,0,0.4,0.1c0.3,0.1,0.7,0.3,1.2,0.4c0.5,0.2,1.2,0.4,1.9,0.7
					c0.7,0.3,1.6,0.6,2.6,0.9s2.1,0.7,3.3,1.1s2.6,0.7,4,1.1s3,0.7,4.6,1c1.6,0.4,3.4,0.6,5.3,0.9c1.8,0.3,3.8,0.4,5.8,0.7
					c1,0.1,2.1,0.1,3.1,0.2c1.1,0,2.1,0.1,3.2,0.1c1.1,0,2.2,0,3.4,0c0.6,0,1.1,0,1.7,0s1.2-0.1,1.7-0.1c1.2-0.1,2.4-0.1,3.6-0.2
					s2.4-0.3,3.6-0.4s2.5-0.4,3.7-0.6s2.5-0.4,3.8-0.7c1.3-0.3,2.5-0.6,3.8-0.9c1.3-0.4,2.6-0.7,3.8-1.1c5.1-1.6,10.4-3.6,15.5-6.2
					s9.8-5.7,14-8.9c1.1-0.8,2.1-1.7,3.1-2.5c1-0.9,2-1.7,2.9-2.6c1-0.8,1.9-1.8,2.8-2.6c0.9-0.9,1.8-1.7,2.6-2.7
					c0.8-0.9,1.7-1.8,2.5-2.7c0.8-0.9,1.5-1.8,2.3-2.7c0.4-0.5,0.7-0.9,1.1-1.4s0.7-0.9,1-1.4c0.7-0.9,1.3-1.8,2-2.7
					c0.6-0.9,1.2-1.8,1.8-2.7c0.6-0.9,1.2-1.7,1.7-2.6c1-1.8,2.1-3.4,2.9-5.1s1.7-3.2,2.3-4.8c0.7-1.5,1.4-3,1.9-4.4s1-2.7,1.5-3.9
					c0.4-1.2,0.7-2.3,1.1-3.3c0.3-1,0.6-1.9,0.8-2.7c0.2-0.8,0.4-1.4,0.5-2c0.1-0.5,0.2-0.9,0.3-1.2
					C350.5,236.4,350.5,236.3,350.5,236.3z"/>
			</g>
		</g>
	</g>
	<g>
		<g>
			<g>
				<path class="st10" d="M425.9,304.2c0,0-0.1,0.3-0.2,0.8c-0.2,0.5-0.4,1.2-0.7,2.1c-0.3,0.9-0.6,2.1-1,3.4s-0.8,2.8-1.2,4.5
					c-0.4,1.7-0.9,3.5-1.4,5.5s-0.9,4.1-1.3,6.4c-0.8,4.5-1.6,9.5-2.1,14.7c-0.5,5.3-0.7,10.3-0.8,14.9c0,2.3,0,4.5,0.1,6.5
					c0,2,0.1,3.9,0.2,5.7c0.1,1.7,0.2,3.3,0.3,4.7c0.1,1.4,0.2,2.5,0.3,3.5c0.1,0.9,0.2,1.7,0.2,2.2s0.1,0.8,0,0.8
					c0,0-0.1-0.3-0.1-0.8c-0.1-0.6-0.2-1.3-0.3-2.2c-0.1-1-0.3-2.1-0.4-3.5s-0.3-2.9-0.4-4.7c-0.1-1.7-0.3-3.6-0.3-5.7
					c-0.1-2-0.1-4.2-0.1-6.5c0-4.6,0.3-9.6,0.8-14.9s1.3-10.3,2.2-14.8c0.5-2.2,0.9-4.4,1.4-6.4s1-3.8,1.4-5.5s0.9-3.2,1.3-4.5
					s0.8-2.4,1.1-3.4c0.3-0.9,0.6-1.6,0.7-2.1C425.8,304.5,425.9,304.2,425.9,304.2z"/>
			</g>
		</g>
		<g>
			<path class="st10" d="M419.6,328.7c0.9-2.8,2.9-5.3,5.4-6.9c0.9-0.5,2-1,2.9-0.5c1.2,0.6,1.3,2.3,1,3.6c-0.6,2.2-2,4.1-3.9,5.4
				c-1.9,1.2-3.7,1.8-5.9,1.5"/>
		</g>
		<g>
			<path class="st10" d="M417.5,345.2c0.9-3.4,3.6-8.2,6.4-10.4c0.4-0.3,0.9-0.6,1.5-0.8c0.5-0.1,1.2,0,1.6,0.3
				c0.6,0.6,0.5,1.5,0.4,2.3c-1.1,5-5.2,9.1-10.2,10.2"/>
		</g>
		<g>
			<path class="st10" d="M416.9,359.7c1.4-3.2,3.7-6.1,6.5-8.2c0.7-0.5,1.5-1,2.3-0.8c1.2,0.2,1.8,1.7,1.7,3
				c-0.2,2.6-2.2,4.6-4.2,6.2c-2.2,1.7-6,3.1-6,3.1"/>
		</g>
		<g>
			<path class="st10" d="M417.2,370.1c1.4-2.4,3.2-4.7,5.5-6.3c0.5-0.3,1.1-0.7,1.7-0.7c0.6-0.1,1.3,0.1,1.6,0.6
				c0.6,0.8,0,1.9-0.6,2.7c-2.1,2.7-4.6,4.8-7.9,5.8"/>
		</g>
		<g>
			<path class="st10" d="M416.9,365.9c-2.4-2.9-5-5.6-7.9-8.1c-0.4-0.4-1-0.8-1.6-0.6c-0.4,0.1-0.7,0.6-0.7,1.1s0.1,0.9,0.3,1.3
				c1.7,4.2,5.8,7.4,10.2,8.6"/>
		</g>
		<g>
			<path class="st10" d="M417.2,352.3c-2.1-2.5-4.1-5-6.2-7.6c-0.6-0.7-1.2-1.5-2-1.9c-0.8-0.5-1.9-0.6-2.6,0
				c-0.8,0.5-1,1.6-0.8,2.5s0.7,1.7,1.2,2.5c1.3,1.8,2.7,3.6,4.5,4.8c1.8,1.3,3.5,2.1,5.7,1.7"/>
		</g>
		<g>
			<path class="st10" d="M418.1,337c-1.2-3.6-3.4-6.9-6.2-9.4c-0.5-0.4-1-0.8-1.6-0.9c-1.2-0.2-2.4,0.8-2.8,2
				c-0.5,1.4-0.1,2.9,0.6,4.1s1.8,2.2,2.9,3.1c2.1,1.6,4.4,2.9,6.9,3.7"/>
		</g>
		<g>
			<path class="st10" d="M420.5,323.4c-0.6-4.4-2.9-8-5.5-11.6c-0.6-0.7-1.3-1.5-2.3-1.4c-0.6,0.1-1.1,0.6-1.3,1.1
				c-0.2,0.5-0.3,1.2-0.2,1.8c0.1,5.3,3.8,10.3,8.8,12.1"/>
		</g>
		<g>
			<path class="st10" d="M422.3,316.4c-0.2-2.3-0.4-4.5-0.2-6.8c0.2-2.3,0.9-4.5,2.3-6.3c0.6-0.8,1.3-1.5,2.3-1.8
				c0.9-0.3,2-0.3,2.8,0.4c0.7,0.6,1,1.5,0.9,2.4c0,0.9-0.4,1.8-0.7,2.6C427.9,310.9,425.2,315.3,422.3,316.4"/>
		</g>
	</g>
	<g>
		<g>
			<g>
				<path class="st6" d="M395.2,321.6c0,0,0,0.2,0,0.6s0,0.9,0,1.6c0,1.4,0.1,3.4,0.2,5.8c0.1,2.5,0.4,5.4,0.7,8.6
					c0.4,3.2,1,6.8,1.7,10.5c0.8,3.7,1.7,7.2,2.6,10.3c1,3.1,1.9,5.9,2.8,8.2c0.9,2.3,1.6,4.2,2.2,5.4c0.2,0.6,0.5,1.1,0.6,1.5
					c0.1,0.3,0.2,0.5,0.2,0.5s-0.1-0.2-0.3-0.5c-0.2-0.4-0.4-0.9-0.7-1.4c-0.6-1.2-1.4-3.1-2.3-5.4s-1.9-5.1-2.9-8.2
					s-1.9-6.6-2.7-10.3c-0.8-3.7-1.3-7.3-1.7-10.5c-0.4-3.3-0.6-6.2-0.6-8.7c-0.1-2.5-0.1-4.5,0-5.9c0-0.6,0.1-1.2,0.1-1.6
					C395.2,321.8,395.2,321.6,395.2,321.6z"/>
			</g>
		</g>
		<g>
			<path class="st6" d="M396.2,339.6c0-2.1,0.8-4.2,2.2-5.8c0.5-0.5,1.1-1.1,1.8-1c1,0.1,1.4,1.3,1.4,2.2c0.1,1.6-0.5,3.3-1.5,4.5
				c-1,1.3-2.1,2-3.7,2.3"/>
		</g>
		<g>
			<path class="st6" d="M398.3,351.3c-0.1-2.5,0.7-6.4,2.2-8.4c0.2-0.3,0.5-0.6,0.8-0.8c0.3-0.2,0.8-0.3,1.1-0.1
				c0.5,0.3,0.7,0.9,0.7,1.5c0.3,3.6-1.6,7.3-4.7,9.2"/>
		</g>
		<g>
			<path class="st6" d="M401,361.3c0.2-2.5,1.2-4.9,2.7-7c0.3-0.5,0.8-1,1.4-1c0.9-0.1,1.6,0.8,1.8,1.7c0.4,1.8-0.5,3.6-1.5,5.1
				c-1.1,1.6-3.4,3.4-3.4,3.4"/>
		</g>
		<g>
			<path class="st6" d="M403.5,368.4c0.4-2,1.2-3.9,2.4-5.5c0.3-0.3,0.6-0.7,1-0.9c0.4-0.2,0.9-0.2,1.2,0.1c0.6,0.4,0.4,1.3,0.2,2
				c-0.8,2.3-2.1,4.2-4.1,5.6"/>
		</g>
		<g>
			<path class="st6" d="M402.4,365.5c-2.2-1.5-4.6-2.7-7.1-3.8c-0.4-0.2-0.9-0.3-1.2-0.1c-0.3,0.2-0.3,0.6-0.3,0.9
				c0.1,0.3,0.3,0.6,0.5,0.8c2.1,2.5,5.6,3.8,8.8,3.6"/>
		</g>
		<g>
			<path class="st6" d="M399.7,356.2c-2-1.3-3.9-2.5-5.9-3.8c-0.6-0.4-1.1-0.7-1.8-0.9c-0.7-0.1-1.4,0-1.8,0.5s-0.4,1.3,0,1.9
				c0.3,0.6,0.8,1,1.4,1.4c1.3,1,2.6,1.8,4.1,2.3s2.8,0.7,4.2,0"/>
		</g>
		<g>
			<path class="st6" d="M396.9,345.6c-1.6-2.2-3.8-4-6.3-5c-0.4-0.2-0.9-0.3-1.3-0.3c-0.9,0.1-1.5,1.1-1.5,2c0,1,0.5,2,1.3,2.7
				c0.7,0.7,1.7,1.1,2.7,1.5c1.8,0.6,3.6,1,5.5,1.1"/>
		</g>
		<g>
			<path class="st6" d="M395.7,335.8c-1.4-2.9-3.7-4.9-6.3-6.7c-0.5-0.4-1.2-0.8-1.8-0.5c-0.4,0.2-0.6,0.6-0.6,1s0.1,0.8,0.2,1.2
				c1.2,3.6,4.8,6.2,8.6,6.4"/>
		</g>
		<g>
			<path class="st6" d="M395.4,330.7c-0.6-1.5-1.3-3-1.6-4.6c-0.3-1.6-0.4-3.3,0.2-4.8c0.2-0.7,0.6-1.3,1.1-1.7
				c0.6-0.4,1.3-0.6,2-0.3c0.6,0.2,1,0.8,1.2,1.5s0.1,1.3,0.1,1.9C398,325.7,397.1,329.3,395.4,330.7"/>
		</g>
	</g>
	<g>
		<g>
			<g>
				<path class="st10" d="M439.3,321.3c0,0,0,0.2,0.1,0.6c0,0.4,0,0.9,0.1,1.6c0.1,1.4,0.1,3.4,0,5.9s-0.3,5.4-0.6,8.7
					c-0.4,3.3-0.9,6.8-1.7,10.5c-0.8,3.7-1.7,7.2-2.7,10.3c-1,3.1-2,5.9-2.9,8.2c-0.9,2.3-1.7,4.1-2.3,5.4c-0.3,0.6-0.5,1.1-0.7,1.4
					s-0.3,0.5-0.3,0.5s0-0.2,0.2-0.5c0.2-0.4,0.4-0.9,0.6-1.5c0.6-1.3,1.3-3.1,2.2-5.4c0.9-2.3,1.8-5.1,2.8-8.2
					c0.9-3.1,1.8-6.6,2.6-10.3c0.8-3.7,1.3-7.2,1.7-10.5c0.4-3.2,0.6-6.2,0.7-8.6c0.1-2.5,0.2-4.5,0.2-5.8c0-0.6,0-1.2,0-1.6
					C439.3,321.4,439.3,321.3,439.3,321.3z"/>
			</g>
		</g>
		<g>
			<path class="st10" d="M438.4,339.2c0-2.1-0.8-4.2-2.2-5.8c-0.5-0.5-1.1-1.1-1.8-1c-1,0.1-1.4,1.3-1.4,2.2
				c-0.1,1.6,0.5,3.3,1.5,4.5c1,1.3,2.1,2,3.7,2.3"/>
		</g>
		<g>
			<path class="st10" d="M436.2,350.9c0.1-2.5-0.7-6.4-2.2-8.4c-0.2-0.3-0.5-0.6-0.8-0.8c-0.3-0.2-0.8-0.3-1.1-0.1
				c-0.5,0.3-0.7,0.9-0.7,1.5c-0.3,3.6,1.6,7.3,4.7,9.2"/>
		</g>
		<g>
			<path class="st10" d="M433.5,360.9c-0.2-2.5-1.2-4.9-2.7-7c-0.3-0.5-0.8-1-1.4-1c-0.9-0.1-1.6,0.8-1.8,1.7
				c-0.4,1.8,0.5,3.6,1.5,5.1c1.1,1.6,3.4,3.4,3.4,3.4"/>
		</g>
		<g>
			<path class="st10" d="M431.1,368c-0.4-2-1.2-3.9-2.4-5.5c-0.3-0.3-0.6-0.7-1-0.9c-0.4-0.2-0.9-0.2-1.2,0.1
				c-0.6,0.4-0.4,1.3-0.2,2c0.8,2.3,2.1,4.2,4.1,5.6"/>
		</g>
		<g>
			<path class="st10" d="M432.1,365.2c2.2-1.5,4.6-2.7,7.1-3.8c0.4-0.2,0.9-0.3,1.2-0.1c0.3,0.2,0.3,0.6,0.3,0.9s-0.3,0.6-0.5,0.8
				c-2.1,2.5-5.6,3.8-8.8,3.6"/>
		</g>
		<g>
			<path class="st10" d="M434.9,355.9c2-1.3,3.9-2.5,5.9-3.8c0.6-0.4,1.1-0.7,1.8-0.9c0.7-0.1,1.4,0,1.8,0.5s0.4,1.3,0,1.9
				c-0.3,0.6-0.8,1-1.4,1.4c-1.3,1-2.6,1.8-4.1,2.3s-2.8,0.7-4.2,0"/>
		</g>
		<g>
			<path class="st10" d="M437.6,345.3c1.6-2.2,3.8-4,6.3-5c0.4-0.2,0.9-0.3,1.3-0.3c0.9,0.1,1.5,1.1,1.5,2c0,1-0.5,2-1.3,2.7
				c-0.7,0.7-1.7,1.1-2.7,1.5c-1.8,0.6-3.6,1-5.5,1.1"/>
		</g>
		<g>
			<path class="st10" d="M438.9,335.4c1.4-2.9,3.7-4.9,6.3-6.7c0.5-0.4,1.2-0.8,1.8-0.5c0.4,0.2,0.6,0.6,0.6,1s-0.1,0.8-0.2,1.2
				c-1.2,3.6-4.8,6.2-8.6,6.4"/>
		</g>
		<g>
			<path class="st10" d="M439.2,330.3c0.6-1.5,1.3-3,1.6-4.6c0.3-1.6,0.4-3.3-0.2-4.8c-0.2-0.7-0.6-1.3-1.1-1.7
				c-0.6-0.4-1.3-0.6-2-0.3c-0.6,0.2-1,0.8-1.2,1.5c-0.2,0.6-0.1,1.3-0.1,1.9C436.5,325.3,437.4,328.9,439.2,330.3"/>
		</g>
	</g>
	<g>
		<path class="st8" d="M387.7,479.2h-0.4c-1.2,0-2.1-0.9-2.1-2.1v-84.7c0-1.2,0.9-2.1,2.1-2.1h0.4c1.2,0,2.1,0.9,2.1,2.1v84.7
			C389.8,478.2,388.8,479.2,387.7,479.2z"/>
	</g>
	<g>
		<path class="st8" d="M444.3,479.2h-0.4c-1.2,0-2.1-0.9-2.1-2.1v-84.7c0-1.2,0.9-2.1,2.1-2.1h0.4c1.2,0,2.1,0.9,2.1,2.1v84.7
			C446.4,478.2,445.4,479.2,444.3,479.2z"/>
	</g>
	<g>
		<path class="st8" d="M416.8,479.2h-0.4c-1.2,0-2.1-0.9-2.1-2.1v-84.7c0-1.2,0.9-2.1,2.1-2.1h0.4c1.2,0,2.1,0.9,2.1,2.1v84.7
			C418.9,478.2,418,479.2,416.8,479.2z"/>
	</g>
	<g>
		<rect x="389.9" y="420.7" class="st8" width="52" height="1.8"/>
	</g>
	<g>
		<g>
			<g>
				<path class="st6" d="M237.5,209.8l-43.8,70.3c-8.1-3.4-19.4-11.8-24.8-18c-15.7-17.9-13.8-42.2-9.8-65.7L237.5,209.8z"/>
			</g>
			<g>
				<path class="st8" d="M227,208l-41.1,68c-7-4.2-13.3-9.5-18.7-15.7c-15.7-17.9-22.5-42-18.5-65.5L227,208z"/>
			</g>
			<g>
				<g>
					<path class="st6" d="M185.5,274c-0.1,0,0.5-2.3,0-6c-0.2-1.8-0.7-4-1.8-6.2c-1-2.2-2.5-4.4-4.6-6.4c-2.1-1.9-4.4-3.2-6.7-4
						s-4.5-1.2-6.3-1.2c-3.7-0.1-5.9,0.7-5.9,0.6c0,0,0.1-0.1,0.4-0.2c0.3-0.1,0.6-0.2,1.2-0.3c1-0.2,2.5-0.5,4.4-0.5
						s4.1,0.3,6.5,1.1c2.3,0.8,4.8,2.2,6.9,4.1c2.1,2,3.7,4.3,4.7,6.5c1,2.3,1.5,4.5,1.7,6.3c0.2,1.9,0.1,3.4-0.1,4.4
						c-0.1,0.5-0.2,0.9-0.2,1.2C185.5,273.8,185.5,274,185.5,274z"/>
				</g>
			</g>
			<g>
				<g>
					<path class="st6" d="M157.6,197.3c0,0,0.2,0.2,0.6,0.5c0.4,0.3,0.8,0.9,1.4,1.7c1,1.6,2.2,4.1,2.3,7.6c0.1,1.7-0.2,3.6-0.8,5.5
						c-0.7,1.9-1.8,3.8-3.5,5.3c-0.8,0.7-1.9,1.4-3.1,1.6c-1.2,0.2-2.6-0.3-3.4-1.4c-0.4-0.5-0.6-1.2-0.5-1.9s0.5-1.3,1-1.7
						c1-0.9,2.5-1.2,3.8-0.9c2.6,0.5,4.9,1.9,6.4,3.8c1.6,1.9,2.6,4.1,3.1,6.3s0.4,4.4,0,6.3c-0.4,1.9-1.2,3.7-2.1,5.1
						c-1.8,2.9-3.8,4.8-5.3,5.9c-0.7,0.6-1.4,1-1.8,1.2c-0.4,0.3-0.7,0.4-0.7,0.4s0.2-0.2,0.6-0.5c0.4-0.3,1-0.7,1.7-1.3
						c1.4-1.2,3.4-3.1,5.1-5.9c0.8-1.4,1.6-3.1,2-5s0.5-4,0-6.1s-1.5-4.3-3-6c-1.5-1.8-3.7-3.2-6.1-3.6c-1.2-0.2-2.5,0-3.3,0.8
						c-0.4,0.4-0.7,0.9-0.8,1.4s0.1,1.1,0.4,1.5c0.6,0.9,1.8,1.4,2.9,1.2c1.1-0.1,2.1-0.7,2.9-1.4c1.6-1.5,2.7-3.3,3.4-5.1
						s0.9-3.7,0.9-5.3c-0.1-3.3-1.2-5.9-2.1-7.5C158.3,198.1,157.5,197.4,157.6,197.3z"/>
				</g>
			</g>
			<g>
				<g>
					<path class="st6" d="M192.3,201.5c0.1,0.1-1.4,0.6-3.3,2.5c-1.9,1.8-4.1,5.3-4.6,10c-0.3,2.4-0.1,5,0.4,7.7s1.4,5.7,3.2,8.2
						c0.9,1.3,2.1,2.4,3.5,3.1c1.4,0.7,3.1,0.9,4.8,0.6c1.6-0.4,3.2-1.2,4.4-2.5c0.6-0.6,1.1-1.4,1.4-2.2c0.3-0.8,0.5-1.7,0.4-2.6
						c-0.2-3.6-3.4-6.5-6.7-6.8c-1.7-0.2-3.3,0.5-4.5,1.5c-1.3,1-2.2,2.4-2.8,3.8c-0.6,1.4-1.1,2.9-1.2,4.4c-0.2,1.5-0.1,2.9,0,4.3
						c0.4,2.8,1.3,5.2,2.5,7.3s2.6,3.7,4,5c1.4,1.2,2.8,2.2,4,2.8c2.4,1.2,3.9,1.5,3.8,1.6c0,0-0.1,0-0.3-0.1s-0.5-0.1-0.8-0.2
						c-0.3-0.1-0.8-0.2-1.2-0.4c-0.5-0.2-1.1-0.4-1.6-0.7c-1.2-0.6-2.6-1.5-4.1-2.8c-1.4-1.3-2.9-3-4.1-5c-1.2-2.1-2.2-4.6-2.6-7.4
						c-0.2-1.4-0.3-2.9,0-4.4c0.1-1.5,0.5-3.1,1.2-4.5c0.7-1.5,1.6-2.9,3-4c1.3-1,3.1-1.8,4.9-1.6c0.9,0.1,1.8,0.3,2.6,0.7
						s1.6,0.9,2.2,1.6c1.3,1.3,2.2,3.1,2.3,5c0,1-0.1,1.9-0.5,2.8c-0.3,0.9-0.9,1.7-1.5,2.3c-1.2,1.4-2.9,2.3-4.6,2.7
						c-1.7,0.4-3.6,0.2-5.1-0.6s-2.8-2-3.7-3.3c-1.9-2.7-2.7-5.7-3.3-8.4c-0.5-2.8-0.6-5.5-0.3-7.9c0.6-4.9,2.9-8.3,4.8-10.2
						c1-0.9,1.9-1.5,2.5-1.9c0.3-0.2,0.6-0.3,0.7-0.4C192.2,201.5,192.3,201.5,192.3,201.5z"/>
				</g>
			</g>
		</g>
		<g>
			<g>
				<path class="st10" d="M196.5,275.8c-0.1,0-1-2.5-2-5.7s-1.6-5.8-1.5-5.9c0.1,0,1,2.5,2,5.7S196.6,275.8,196.5,275.8z"/>
			</g>
		</g>
		<g>
			<g>
				<path class="st10" d="M201.7,267.6c-0.1,0-1-2.5-2-5.7s-1.6-5.8-1.5-5.9c0.1,0,1,2.5,2,5.7C201.1,264.9,201.8,267.6,201.7,267.6
					z"/>
			</g>
		</g>
		<g>
			<g>
				<path class="st10" d="M206.8,259.1c-0.1,0-1.1-2.6-2.1-5.9c-1-3.3-1.7-6-1.6-6c0.1,0,1.1,2.6,2.1,5.9S206.9,259.1,206.8,259.1z"
					/>
			</g>
		</g>
		<g>
			<g>
				<path class="st10" d="M211.9,250.9c-0.1,0-1.1-2.6-2.1-5.9c-1-3.3-1.7-6-1.6-6.1c0.1,0,1.1,2.6,2.1,5.9
					C211.3,248.1,212,250.8,211.9,250.9z"/>
			</g>
		</g>
		<g>
			<g>
				<path class="st10" d="M217.2,243c-0.1,0-1-2.5-2-5.7s-1.6-5.8-1.5-5.9c0.1,0,1,2.5,2,5.7C216.6,240.3,217.3,242.9,217.2,243z"/>
			</g>
		</g>
		<g>
			<g>
				<path class="st10" d="M222.2,234.3c-0.1,0-1.1-2.7-2.1-6.1c-1-3.4-1.7-6.2-1.6-6.2c0.1,0,1.1,2.7,2.1,6.1
					C221.6,231.5,222.3,234.3,222.2,234.3z"/>
			</g>
		</g>
		<g>
			<g>
				<path class="st10" d="M227.3,226c-0.1,0-1.1-2.7-2.1-6.1c-1-3.4-1.8-6.3-1.6-6.3c0.1,0,1.1,2.7,2.1,6.2
					C226.8,223.2,227.5,226,227.3,226z"/>
			</g>
		</g>
		<g>
			<g>
				<path class="st10" d="M232.5,217.7c-0.1,0-0.9-2-1.7-4.6s-1.3-4.7-1.2-4.7s0.9,2,1.7,4.6S232.6,217.7,232.5,217.7z"/>
			</g>
		</g>
	</g>
	<linearGradient id="SVGID_1_" gradientUnits="userSpaceOnUse" x1="48.162" y1="224.2271" x2="78.2" y2="224.2271">
		<stop  offset="6.926126e-08" style="stop-color:#34007F"/>
		<stop  offset="1" style="stop-color:#7C4DFF"/>
	</linearGradient>
	<path class="st15" d="M78.2,192.5c-5.5,2.4-28.3,31.7-30,50.8c-1.2,14.2,26.4,12.6,26.4,12.6s1.9-58.2,1.1-57.4"/>
	<g>
		<g>
			<path class="st6" d="M73,231.9c0,0-0.1,0.2-0.3,0.4c-0.2,0.3-0.5,0.6-0.9,1.1c-0.7,0.9-1.8,2.1-3,3.5c-1.2,1.3-2.3,2.5-3.2,3.4
				c-0.4,0.4-0.8,0.7-1,1c-0.2,0.2-0.4,0.3-0.4,0.3s0.1-0.1,0.3-0.4c0.3-0.3,0.6-0.7,1-1c1-1,2-2.2,3.1-3.4c1.1-1.3,2.1-2.4,3.1-3.4
				c0.3-0.4,0.6-0.7,0.9-1.1C72.8,232,73,231.9,73,231.9z"/>
		</g>
	</g>
	<g>
		<g>
			<path class="st14" d="M72,227.5c0,0-0.4,0.1-1,0.4c-0.6,0.3-1.4,0.9-2.2,1.9c-0.8,0.9-1.5,2.2-2.4,3.6c-0.9,1.4-2.2,2.7-3.9,3.6
				c-1.7,0.9-3.5,1.3-5.1,1.3s-3.1-0.4-4.2-0.9c-1.1-0.5-1.9-1.1-2.5-1.5c-0.5-0.4-0.8-0.7-0.8-0.7s0.3,0.3,0.8,0.7s1.4,1,2.5,1.5
				s2.5,0.9,4.2,0.9c1.6,0,3.4-0.4,5-1.3c1.6-0.9,2.9-2.2,3.8-3.5s1.6-2.6,2.5-3.5c0.8-0.9,1.6-1.5,2.3-1.8
				C71.7,227.6,72,227.5,72,227.5z"/>
		</g>
	</g>
	<g>
		<g>
			<path class="st14" d="M58.2,254c0,0-0.2,0-0.5-0.2c-0.3-0.1-0.7-0.4-1.2-0.8c-0.9-0.8-2-2.3-2.3-4.5s0.2-4.8,1.1-7.6
				c0.9-2.8,2.5-5.6,4.2-8.4c3.6-5.6,7.2-10.5,9.2-14.3c0.5-0.9,0.9-1.9,1.3-2.6c0.3-0.8,0.6-1.5,0.8-2.1c0.1-0.5,0.3-1,0.4-1.4
				c0.1-0.3,0.1-0.5,0.1-0.5s0,0.2-0.1,0.5c-0.1,0.4-0.2,0.8-0.3,1.4c-0.2,0.6-0.4,1.3-0.8,2.1s-0.7,1.7-1.3,2.7
				c-1.9,3.9-5.6,8.8-9.1,14.4c-1.8,2.8-3.3,5.6-4.2,8.3s-1.4,5.3-1.1,7.5c0.2,2.2,1.3,3.7,2.2,4.5C57.5,253.8,58.2,254,58.2,254z"
				/>
		</g>
	</g>
	<g>
		<g>
			<path class="st14" d="M73.7,246.3c0,0-0.1,0.3-0.4,0.6c-0.3,0.4-0.9,0.8-1.8,1.1c-0.8,0.3-1.9,0.3-3.1,0.3s-2.4-0.1-3.7,0.2
				c-2.6,0.5-4.6,2-5.8,3.2c-0.6,0.6-1,1.2-1.3,1.6c-0.3,0.4-0.4,0.6-0.4,0.6s0.4-1,1.6-2.3c1.2-1.3,3.2-2.8,5.9-3.3
				c1.3-0.3,2.6-0.2,3.7-0.2s2.2,0,3-0.3c0.8-0.2,1.4-0.6,1.8-1C73.6,246.6,73.7,246.3,73.7,246.3z"/>
		</g>
	</g>
	<g class="st16">
		<g>
			<path d="M74.6,255.9c-4.3-12.6-7.8-25.7-3.1-38.2C73.1,233.2,75,247.3,74.6,255.9z"/>
		</g>
	</g>
	<g>
		<g>
			<path class="st6" d="M114.8,236.7l-58.3,52.9c-3-3.3-6.9-5.9-8.6-10.1c-1.7-4.1-4.5-7.7-6.2-11.8L114.8,236.7z"/>
		</g>
		<g>
			<path class="st7" d="M109.7,230.6l-58.9,53.3c-3-3.3-5.7-6.9-8.1-10.6c-2.4-3.8-4.5-7.7-6.2-11.8L109.7,230.6z"/>
		</g>
	</g>
	<g>
		<path class="st17" d="M102.4,450.9l-1,17.9c0,0,17.8,7,18,10.4l-34.8-0.7l0.4-27.9L102.4,450.9z"/>
		<g>
			<path class="st13" d="M90.7,467.1c-0.7,0.2-1.2,0.9-1,1.6c0.1,0.7,0.9,1.2,1.6,1s1.3-1,1.1-1.7c-0.2-0.7-1.1-1.2-1.8-0.9"/>
		</g>
		<path class="st13" d="M84.6,478.4v-2.8l33.4,1.7c0,0,1.5,0.7,1.3,1.8L84.6,478.4z"/>
		<g>
			<path class="st6" d="M102,468.6c0,0.2-0.9,0.2-1.7,0.8c-0.9,0.5-1.3,1.2-1.5,1.2s0.1-1,1.2-1.7C101,468.2,102,468.5,102,468.6z"
				/>
		</g>
		<g>
			<path class="st6" d="M105.6,470.2c0,0.2-0.7,0.4-1.3,1.1c-0.6,0.7-0.8,1.5-0.9,1.5c-0.2,0-0.3-1,0.5-1.8
				C104.6,470.1,105.6,470.1,105.6,470.2z"/>
		</g>
		<g>
			<path class="st6" d="M107.6,474.6c-0.2,0-0.4-0.8,0.1-1.7c0.4-0.9,1.3-1.3,1.3-1.1c0.1,0.1-0.4,0.6-0.8,1.4
				C107.8,473.9,107.7,474.6,107.6,474.6z"/>
		</g>
		<g>
			<path class="st6" d="M101.7,464.5c-0.1,0.2-0.8-0.1-1.8-0.1s-1.7,0.3-1.8,0.2c-0.1-0.1,0.6-0.7,1.8-0.8
				C101.1,463.8,101.8,464.4,101.7,464.5z"/>
		</g>
		<path class="st6" d="M101.9,460.9c0,0.1-0.7,0.2-1.7,0c-0.5-0.1-1.2-0.3-1.8-0.6c-0.3-0.2-0.7-0.3-1-0.6c-0.2-0.1-0.3-0.2-0.5-0.4
			c-0.2-0.2-0.3-0.6-0.1-0.9c0.2-0.3,0.5-0.4,0.8-0.4s0.5,0.1,0.7,0.1c0.4,0.1,0.7,0.2,1.1,0.4c0.7,0.3,1.2,0.7,1.6,1.1
			c0.8,0.8,1.1,1.4,1,1.4c-0.1,0.1-0.5-0.5-1.3-1.1c-0.4-0.3-0.9-0.6-1.5-0.9c-0.3-0.1-0.6-0.2-1-0.3c-0.4-0.1-0.7-0.1-0.8,0
			c0,0.1,0,0.1,0,0.2c0.1,0.1,0.2,0.2,0.4,0.3c0.3,0.2,0.6,0.4,0.9,0.5c0.6,0.3,1.2,0.5,1.7,0.7
			C101.2,460.8,101.9,460.8,101.9,460.9z"/>
		<path class="st6" d="M101.7,461.2c-0.1,0-0.4-0.6-0.4-1.7c0-0.5,0.1-1.2,0.3-1.9c0.1-0.3,0.3-0.7,0.5-1s0.5-0.8,1.1-0.9
			c0.3,0,0.6,0.3,0.7,0.5s0.1,0.4,0.2,0.6c0.1,0.4,0,0.8,0,1.2c-0.1,0.7-0.4,1.3-0.8,1.8c-0.7,0.9-1.4,1.1-1.4,1
			c-0.1-0.1,0.5-0.4,1.1-1.3c0.3-0.4,0.5-1,0.6-1.6c0-0.3,0-0.7,0-1c0-0.4-0.2-0.7-0.3-0.6c-0.2,0-0.5,0.3-0.6,0.6
			c-0.2,0.3-0.3,0.6-0.5,0.9c-0.2,0.6-0.3,1.2-0.4,1.7C101.6,460.5,101.8,461.1,101.7,461.2z"/>
	</g>
	<path class="st17" d="M127.1,452.3l-3.3,17.6c0,0,16.8,9.3,16.5,12.6l-34.4-5.2l4.1-27.6L127.1,452.3z"/>
	<path class="st17" d="M127.1,452.3l-3.3,17.6c0,0,16.8,9.3,16.5,12.6l-34.4-5.2l4.1-27.6L127.1,452.3z"/>
	<path class="st17" d="M127.1,452.3l-3.3,17.6c0,0,16.8,9.3,16.5,12.6l-34.4-5.2l4.1-27.6L127.1,452.3z"/>
	<path class="st17" d="M127.1,452.3l-3.3,17.6c0,0,16.8,9.3,16.5,12.6l-34.4-5.2l4.1-27.6L127.1,452.3z"/>
	<path class="st17" d="M127.1,452.3l-3.3,17.6c0,0,16.8,9.3,16.5,12.6l-34.4-5.2l4.1-27.6L127.1,452.3z"/>
	<path class="st17" d="M127.1,452.3l-3.3,17.6c0,0,16.8,9.3,16.5,12.6l-34.4-5.2l4.1-27.6L127.1,452.3z"/>
	<path class="st17" d="M127.1,452.3l-3.3,17.6c0,0,16.8,9.3,16.5,12.6l-34.4-5.2l4.1-27.6L127.1,452.3z"/>
	<path class="st17" d="M127.1,452.3l-3.3,17.6c0,0,16.8,9.3,16.5,12.6l-34.4-5.2l4.1-27.6L127.1,452.3z"/>
	<path class="st17" d="M127.1,452.3l-3.3,17.6c0,0,16.8,9.3,16.5,12.6l-34.4-5.2l4.1-27.6L127.1,452.3z"/>
	<path class="st17" d="M127.1,452.3l-3.3,17.6c0,0,16.8,9.3,16.5,12.6l-34.4-5.2l4.1-27.6L127.1,452.3z"/>
	<path class="st17" d="M127.1,452.3l-3.3,17.6c0,0,16.8,9.3,16.5,12.6l-34.4-5.2l4.1-27.6L127.1,452.3z"/>
	<path class="st17" d="M127.1,452.3l-3.3,17.6c0,0,16.8,9.3,16.5,12.6l-34.4-5.2l4.1-27.6L127.1,452.3z"/>
	<path class="st17" d="M127.1,452.3l-3.3,17.6c0,0,16.8,9.3,16.5,12.6l-34.4-5.2l4.1-27.6L127.1,452.3z"/>
	<path class="st17" d="M127.1,452.3l-3.3,17.6c0,0,16.8,9.3,16.5,12.6l-34.4-5.2l4.1-27.6L127.1,452.3z"/>
	<path class="st17" d="M127.1,452.3l-3.3,17.6c0,0,16.8,9.3,16.5,12.6l-34.4-5.2l4.1-27.6L127.1,452.3z"/>
	<path class="st17" d="M127.1,452.3l-3.3,17.6c0,0,16.8,9.3,16.5,12.6l-34.4-5.2l4.1-27.6L127.1,452.3z"/>
	<path class="st17" d="M127.1,452.3l-3.3,17.6c0,0,16.8,9.3,16.5,12.6l-34.4-5.2l4.1-27.6L127.1,452.3z"/>
	<path class="st17" d="M127.1,452.3l-3.3,17.6c0,0,16.8,9.3,16.5,12.6l-34.4-5.2l4.1-27.6L127.1,452.3z"/>
	<path class="st17" d="M127.1,452.3l-3.3,17.6c0,0,16.8,9.3,16.5,12.6l-34.4-5.2l4.1-27.6L127.1,452.3z"/>
	<path class="st17" d="M127.1,452.3l-3.3,17.6c0,0,16.8,9.3,16.5,12.6l-34.4-5.2l4.1-27.6L127.1,452.3z"/>
	<path class="st17" d="M127.1,452.3l-3.3,17.6c0,0,16.8,9.3,16.5,12.6l-34.4-5.2l4.1-27.6L127.1,452.3z"/>
	<path class="st17" d="M127.1,452.3l-3.3,17.6c0,0,16.8,9.3,16.5,12.6l-34.4-5.2l4.1-27.6L127.1,452.3z"/>
	<path class="st17" d="M127.1,452.3l-3.3,17.6c0,0,16.8,9.3,16.5,12.6l-34.4-5.2l4.1-27.6L127.1,452.3z"/>
	<path class="st17" d="M127.1,452.3l-3.3,17.6c0,0,16.8,9.3,16.5,12.6l-34.4-5.2l4.1-27.6L127.1,452.3z"/>
	<path class="st17" d="M127.1,452.3l-3.3,17.6c0,0,16.8,9.3,16.5,12.6l-34.4-5.2l4.1-27.6L127.1,452.3z"/>
	<path class="st17" d="M127.1,452.3l-3.3,17.6c0,0,16.8,9.3,16.5,12.6l-34.4-5.2l4.1-27.6L127.1,452.3z"/>
	<path class="st17" d="M127.1,452.3l-3.3,17.6c0,0,16.8,9.3,16.5,12.6l-34.4-5.2l4.1-27.6L127.1,452.3z"/>
	<path class="st17" d="M127.1,452.3l-3.3,17.6c0,0,16.8,9.3,16.5,12.6l-34.4-5.2l4.1-27.6L127.1,452.3z"/>
	<path class="st17" d="M127.1,452.3l-3.3,17.6c0,0,16.8,9.3,16.5,12.6l-34.4-5.2l4.1-27.6L127.1,452.3z"/>
	<path class="st17" d="M127.1,452.3l-3.3,17.6c0,0,16.8,9.3,16.5,12.6l-34.4-5.2l4.1-27.6L127.1,452.3z"/>
	<path class="st17" d="M127.1,452.3l-3.3,17.6c0,0,16.8,9.3,16.5,12.6l-34.4-5.2l4.1-27.6L127.1,452.3z"/>
	<path class="st17" d="M127.1,452.3l-3.3,17.6c0,0,16.8,9.3,16.5,12.6l-34.4-5.2l4.1-27.6L127.1,452.3z"/>
	<path class="st17" d="M127.1,452.3l-3.3,17.6c0,0,16.8,9.3,16.5,12.6l-34.4-5.2l4.1-27.6L127.1,452.3z"/>
	<path class="st17" d="M127.1,452.3l-3.3,17.6c0,0,16.8,9.3,16.5,12.6l-34.4-5.2l4.1-27.6L127.1,452.3z"/>
	<path class="st17" d="M127.1,452.3l-3.3,17.6c0,0,16.8,9.3,16.5,12.6l-34.4-5.2l4.1-27.6L127.1,452.3z"/>
	<path class="st17" d="M127.1,452.3l-3.3,17.6c0,0,16.8,9.3,16.5,12.6l-34.4-5.2l4.1-27.6L127.1,452.3z"/>
	<path class="st17" d="M127.1,452.3l-3.3,17.6c0,0,16.8,9.3,16.5,12.6l-34.4-5.2l4.1-27.6L127.1,452.3z"/>
	<path class="st17" d="M127.1,452.3l-3.3,17.6c0,0,16.8,9.3,16.5,12.6l-34.4-5.2l4.1-27.6L127.1,452.3z"/>
	<path class="st17" d="M127.1,452.3l-3.3,17.6c0,0,16.8,9.3,16.5,12.6l-34.4-5.2l4.1-27.6L127.1,452.3z"/>
	<path class="st17" d="M127.1,452.3l-3.3,17.6c0,0,16.8,9.3,16.5,12.6l-34.4-5.2l4.1-27.6L127.1,452.3z"/>
	<path class="st17" d="M127.1,452.3l-3.3,17.6c0,0,16.8,9.3,16.5,12.6l-34.4-5.2l4.1-27.6L127.1,452.3z"/>
	<path class="st17" d="M127.1,452.3l-3.3,17.6c0,0,16.8,9.3,16.5,12.6l-34.4-5.2l4.1-27.6L127.1,452.3z"/>
	<path class="st17" d="M127.1,452.3l-3.3,17.6c0,0,16.8,9.3,16.5,12.6l-34.4-5.2l4.1-27.6L127.1,452.3z"/>
	<path class="st17" d="M127.1,452.3l-3.3,17.6c0,0,16.8,9.3,16.5,12.6l-34.4-5.2l4.1-27.6L127.1,452.3z"/>
	<path class="st17" d="M127.1,452.3l-3.3,17.6c0,0,16.8,9.3,16.5,12.6l-34.4-5.2l4.1-27.6L127.1,452.3z"/>
	<path class="st17" d="M127.1,452.3l-3.3,17.6c0,0,16.8,9.3,16.5,12.6l-34.4-5.2l4.1-27.6L127.1,452.3z"/>
	<path class="st17" d="M127.1,452.3l-3.3,17.6c0,0,16.8,9.3,16.5,12.6l-34.4-5.2l4.1-27.6L127.1,452.3z"/>
	<path class="st17" d="M127.1,452.3l-3.3,17.6c0,0,16.8,9.3,16.5,12.6l-34.4-5.2l4.1-27.6L127.1,452.3z"/>
	<path class="st17" d="M127.1,452.3l-3.3,17.6c0,0,16.8,9.3,16.5,12.6l-34.4-5.2l4.1-27.6L127.1,452.3z"/>
	<path class="st17" d="M127.1,452.3l-3.3,17.6c0,0,16.8,9.3,16.5,12.6l-34.4-5.2l4.1-27.6L127.1,452.3z"/>
	<path class="st17" d="M127.1,452.3l-3.3,17.6c0,0,16.8,9.3,16.5,12.6l-34.4-5.2l4.1-27.6L127.1,452.3z"/>
	<path class="st17" d="M127.1,452.3l-3.3,17.6c0,0,16.8,9.3,16.5,12.6l-34.4-5.2l4.1-27.6L127.1,452.3z"/>
	<path class="st17" d="M127.1,452.3l-3.3,17.6c0,0,16.8,9.3,16.5,12.6l-34.4-5.2l4.1-27.6L127.1,452.3z"/>
	<path class="st17" d="M127.1,452.3l-3.3,17.6c0,0,16.8,9.3,16.5,12.6l-34.4-5.2l4.1-27.6L127.1,452.3z"/>
	<path class="st17" d="M127.1,452.3l-3.3,17.6c0,0,16.8,9.3,16.5,12.6l-34.4-5.2l4.1-27.6L127.1,452.3z"/>
	<path class="st17" d="M127.1,452.3l-3.3,17.6c0,0,16.8,9.3,16.5,12.6l-34.4-5.2l4.1-27.6L127.1,452.3z"/>
	<path class="st17" d="M127.1,452.3l-3.3,17.6c0,0,16.8,9.3,16.5,12.6l-34.4-5.2l4.1-27.6L127.1,452.3z"/>
	<path class="st17" d="M127.1,452.3l-3.3,17.6c0,0,16.8,9.3,16.5,12.6l-34.4-5.2l4.1-27.6L127.1,452.3z"/>
	<path class="st17" d="M127.1,452.3l-3.3,17.6c0,0,16.8,9.3,16.5,12.6l-34.4-5.2l4.1-27.6L127.1,452.3z"/>
	<path class="st17" d="M127.1,452.3l-3.3,17.6c0,0,16.8,9.3,16.5,12.6l-34.4-5.2l4.1-27.6L127.1,452.3z"/>
	<path class="st17" d="M127.1,452.3l-3.3,17.6c0,0,16.8,9.3,16.5,12.6l-34.4-5.2l4.1-27.6L127.1,452.3z"/>
	<path class="st17" d="M127.1,452.3l-3.3,17.6c0,0,16.8,9.3,16.5,12.6l-34.4-5.2l4.1-27.6L127.1,452.3z"/>
	<path class="st17" d="M127.1,452.3l-3.3,17.6c0,0,16.8,9.3,16.5,12.6l-34.4-5.2l4.1-27.6L127.1,452.3z"/>
	<path class="st17" d="M127.1,452.3l-3.3,17.6c0,0,16.8,9.3,16.5,12.6l-34.4-5.2l4.1-27.6L127.1,452.3z"/>
	<path class="st17" d="M127.1,452.3l-3.3,17.6c0,0,16.8,9.3,16.5,12.6l-34.4-5.2l4.1-27.6L127.1,452.3z"/>
	<path class="st17" d="M127.1,452.3l-3.3,17.6c0,0,16.8,9.3,16.5,12.6l-34.4-5.2l4.1-27.6L127.1,452.3z"/>
	<path class="st17" d="M127.1,452.3l-3.3,17.6c0,0,16.8,9.3,16.5,12.6l-34.4-5.2l4.1-27.6L127.1,452.3z"/>
	<path class="st17" d="M127.1,452.3l-3.3,17.6c0,0,16.8,9.3,16.5,12.6l-34.4-5.2l4.1-27.6L127.1,452.3z"/>
	<path class="st17" d="M127.1,452.3l-3.3,17.6c0,0,16.8,9.3,16.5,12.6l-34.4-5.2l4.1-27.6L127.1,452.3z"/>
	<path class="st17" d="M127.1,452.3l-3.3,17.6c0,0,16.8,9.3,16.5,12.6l-34.4-5.2l4.1-27.6L127.1,452.3z"/>
	<path class="st17" d="M127.1,452.3l-3.3,17.6c0,0,16.8,9.3,16.5,12.6l-34.4-5.2l4.1-27.6L127.1,452.3z"/>
	<path class="st17" d="M127.1,452.3l-3.3,17.6c0,0,16.8,9.3,16.5,12.6l-34.4-5.2l4.1-27.6L127.1,452.3z"/>
	<path class="st17" d="M127.1,452.3l-3.3,17.6c0,0,16.8,9.3,16.5,12.6l-34.4-5.2l4.1-27.6L127.1,452.3z"/>
	<path class="st17" d="M127.1,452.3l-3.3,17.6c0,0,16.8,9.3,16.5,12.6l-34.4-5.2l4.1-27.6L127.1,452.3z"/>
	<path class="st17" d="M127.1,452.3l-3.3,17.6c0,0,16.8,9.3,16.5,12.6l-34.4-5.2l4.1-27.6L127.1,452.3z"/>
	<path class="st17" d="M127.1,452.3l-3.3,17.6c0,0,16.8,9.3,16.5,12.6l-34.4-5.2l4.1-27.6L127.1,452.3z"/>
	<path class="st17" d="M127.1,452.3l-3.3,17.6c0,0,16.8,9.3,16.5,12.6l-34.4-5.2l4.1-27.6L127.1,452.3z"/>
	<path class="st17" d="M127.1,452.3l-3.3,17.6c0,0,16.8,9.3,16.5,12.6l-34.4-5.2l4.1-27.6L127.1,452.3z"/>
	<path class="st17" d="M127.1,452.3l-3.3,17.6c0,0,16.8,9.3,16.5,12.6l-34.4-5.2l4.1-27.6L127.1,452.3z"/>
	<path class="st17" d="M127.1,452.3l-3.3,17.6c0,0,16.8,9.3,16.5,12.6l-34.4-5.2l4.1-27.6L127.1,452.3z"/>
	<path class="st17" d="M127.1,452.3l-3.3,17.6c0,0,16.8,9.3,16.5,12.6l-34.4-5.2l4.1-27.6L127.1,452.3z"/>
	<path class="st17" d="M127.1,452.3l-3.3,17.6c0,0,16.8,9.3,16.5,12.6l-34.4-5.2l4.1-27.6L127.1,452.3z"/>
	<path class="st17" d="M127.1,452.3l-3.3,17.6c0,0,16.8,9.3,16.5,12.6l-34.4-5.2l4.1-27.6L127.1,452.3z"/>
	<path class="st17" d="M127.1,452.3l-3.3,17.6c0,0,16.8,9.3,16.5,12.6l-34.4-5.2l4.1-27.6L127.1,452.3z"/>
	<path class="st17" d="M127.1,452.3l-3.3,17.6c0,0,16.8,9.3,16.5,12.6l-34.4-5.2l4.1-27.6L127.1,452.3z"/>
	<path class="st17" d="M127.1,452.3l-3.3,17.6c0,0,16.8,9.3,16.5,12.6l-34.4-5.2l4.1-27.6L127.1,452.3z"/>
	<path class="st17" d="M127.1,452.3l-3.3,17.6c0,0,16.8,9.3,16.5,12.6l-34.4-5.2l4.1-27.6L127.1,452.3z"/>
	<path class="st17" d="M127.1,452.3l-3.3,17.6c0,0,16.8,9.3,16.5,12.6l-34.4-5.2l4.1-27.6L127.1,452.3z"/>
	<path class="st17" d="M127.1,452.3l-3.3,17.6c0,0,16.8,9.3,16.5,12.6l-34.4-5.2l4.1-27.6L127.1,452.3z"/>
	<path class="st17" d="M127.1,452.3l-3.3,17.6c0,0,16.8,9.3,16.5,12.6l-34.4-5.2l4.1-27.6L127.1,452.3z"/>
	<path class="st17" d="M127.1,452.3l-3.3,17.6c0,0,16.8,9.3,16.5,12.6l-34.4-5.2l4.1-27.6L127.1,452.3z"/>
	<path class="st17" d="M127.1,452.3l-3.3,17.6c0,0,16.8,9.3,16.5,12.6l-34.4-5.2l4.1-27.6L127.1,452.3z"/>
	<path class="st17" d="M127.1,452.3l-3.3,17.6c0,0,16.8,9.3,16.5,12.6l-34.4-5.2l4.1-27.6L127.1,452.3z"/>
	<path class="st17" d="M127.1,452.3l-3.3,17.6c0,0,16.8,9.3,16.5,12.6l-34.4-5.2l4.1-27.6L127.1,452.3z"/>
	<path class="st17" d="M127.1,452.3l-3.3,17.6c0,0,16.8,9.3,16.5,12.6l-34.4-5.2l4.1-27.6L127.1,452.3z"/>
	<path class="st17" d="M127.1,452.3l-3.3,17.6c0,0,16.8,9.3,16.5,12.6l-34.4-5.2l4.1-27.6L127.1,452.3z"/>
	<path class="st17" d="M127.1,452.3l-3.3,17.6c0,0,16.8,9.3,16.5,12.6l-34.4-5.2l4.1-27.6L127.1,452.3z"/>
	<path class="st17" d="M127.1,452.3l-3.3,17.6c0,0,16.8,9.3,16.5,12.6l-34.4-5.2l4.1-27.6L127.1,452.3z"/>
	<path class="st17" d="M127.1,452.3l-3.3,17.6c0,0,16.8,9.3,16.5,12.6l-34.4-5.2l4.1-27.6L127.1,452.3z"/>
	<path class="st17" d="M127.1,452.3l-3.3,17.6c0,0,16.8,9.3,16.5,12.6l-34.4-5.2l4.1-27.6L127.1,452.3z"/>
	<path class="st17" d="M127.1,452.3l-3.3,17.6c0,0,16.8,9.3,16.5,12.6l-34.4-5.2l4.1-27.6L127.1,452.3z"/>
	<path class="st17" d="M127.1,452.3l-3.3,17.6c0,0,16.8,9.3,16.5,12.6l-34.4-5.2l4.1-27.6L127.1,452.3z"/>
	<path class="st17" d="M127.1,452.3l-3.3,17.6c0,0,16.8,9.3,16.5,12.6l-34.4-5.2l4.1-27.6L127.1,452.3z"/>
	<path class="st17" d="M127.1,452.3l-3.3,17.6c0,0,16.8,9.3,16.5,12.6l-34.4-5.2l4.1-27.6L127.1,452.3z"/>
	<path class="st17" d="M127.1,452.3l-3.3,17.6c0,0,16.8,9.3,16.5,12.6l-34.4-5.2l4.1-27.6L127.1,452.3z"/>
	<path class="st17" d="M127.1,452.3l-3.3,17.6c0,0,16.8,9.3,16.5,12.6l-34.4-5.2l4.1-27.6L127.1,452.3z"/>
	<path class="st17" d="M127.1,452.3l-3.3,17.6c0,0,16.8,9.3,16.5,12.6l-34.4-5.2l4.1-27.6L127.1,452.3z"/>
	<path class="st17" d="M127.1,452.3l-3.3,17.6c0,0,16.8,9.3,16.5,12.6l-34.4-5.2l4.1-27.6L127.1,452.3z"/>
	<path class="st17" d="M127.1,452.3l-3.3,17.6c0,0,16.8,9.3,16.5,12.6l-34.4-5.2l4.1-27.6L127.1,452.3z"/>
	<path class="st17" d="M127.1,452.3l-3.3,17.6c0,0,16.8,9.3,16.5,12.6l-34.4-5.2l4.1-27.6L127.1,452.3z"/>
	<path class="st17" d="M127.1,452.3l-3.3,17.6c0,0,16.8,9.3,16.5,12.6l-34.4-5.2l4.1-27.6L127.1,452.3z"/>
	<path class="st17" d="M127.1,452.3l-3.3,17.6c0,0,16.8,9.3,16.5,12.6l-34.4-5.2l4.1-27.6L127.1,452.3z"/>
	<path class="st17" d="M127.1,452.3l-3.3,17.6c0,0,16.8,9.3,16.5,12.6l-34.4-5.2l4.1-27.6L127.1,452.3z"/>
	<path class="st17" d="M127.1,452.3l-3.3,17.6c0,0,16.8,9.3,16.5,12.6l-34.4-5.2l4.1-27.6L127.1,452.3z"/>
	<path class="st17" d="M127.1,452.3l-3.3,17.6c0,0,16.8,9.3,16.5,12.6l-34.4-5.2l4.1-27.6L127.1,452.3z"/>
	<path class="st17" d="M127.1,452.3l-3.3,17.6c0,0,16.8,9.3,16.5,12.6l-34.4-5.2l4.1-27.6L127.1,452.3z"/>
	<path class="st17" d="M127.1,452.3l-3.3,17.6c0,0,16.8,9.3,16.5,12.6l-34.4-5.2l4.1-27.6L127.1,452.3z"/>
	<path class="st17" d="M127.1,452.3l-3.3,17.6c0,0,16.8,9.3,16.5,12.6l-34.4-5.2l4.1-27.6L127.1,452.3z"/>
	<path class="st17" d="M127.1,452.3l-3.3,17.6c0,0,16.8,9.3,16.5,12.6l-34.4-5.2l4.1-27.6L127.1,452.3z"/>
	<path class="st17" d="M127.1,452.3l-3.3,17.6c0,0,16.8,9.3,16.5,12.6l-34.4-5.2l4.1-27.6L127.1,452.3z"/>
	<path class="st17" d="M127.1,452.3l-3.3,17.6c0,0,16.8,9.3,16.5,12.6l-34.4-5.2l4.1-27.6L127.1,452.3z"/>
	<path class="st17" d="M127.1,452.3l-3.3,17.6c0,0,16.8,9.3,16.5,12.6l-34.4-5.2l4.1-27.6L127.1,452.3z"/>
	<path class="st17" d="M127.1,452.3l-3.3,17.6c0,0,16.8,9.3,16.5,12.6l-34.4-5.2l4.1-27.6L127.1,452.3z"/>
	<path class="st17" d="M127.1,452.3l-3.3,17.6c0,0,16.8,9.3,16.5,12.6l-34.4-5.2l4.1-27.6L127.1,452.3z"/>
	<path class="st17" d="M127.1,452.3l-3.3,17.6c0,0,16.8,9.3,16.5,12.6l-34.4-5.2l4.1-27.6L127.1,452.3z"/>
	<path class="st17" d="M127.1,452.3l-3.3,17.6c0,0,16.8,9.3,16.5,12.6l-34.4-5.2l4.1-27.6L127.1,452.3z"/>
	<path class="st17" d="M127.1,452.3l-3.3,17.6c0,0,16.8,9.3,16.5,12.6l-34.4-5.2l4.1-27.6L127.1,452.3z"/>
	<path class="st17" d="M127.1,452.3l-3.3,17.6c0,0,16.8,9.3,16.5,12.6l-34.4-5.2l4.1-27.6L127.1,452.3z"/>
	<path class="st17" d="M127.1,452.3l-3.3,17.6c0,0,16.8,9.3,16.5,12.6l-34.4-5.2l4.1-27.6L127.1,452.3z"/>
	<path class="st17" d="M127.1,452.3l-3.3,17.6c0,0,16.8,9.3,16.5,12.6l-34.4-5.2l4.1-27.6L127.1,452.3z"/>
	<path class="st17" d="M127.1,452.3l-3.3,17.6c0,0,16.8,9.3,16.5,12.6l-34.4-5.2l4.1-27.6L127.1,452.3z"/>
	<path class="st17" d="M127.1,452.3l-3.3,17.6c0,0,16.8,9.3,16.5,12.6l-34.4-5.2l4.1-27.6L127.1,452.3z"/>
	<path class="st18" d="M127.1,452.3l-3.3,17.6c0,0,16.8,9.3,16.5,12.6l-34.4-5.2l4.1-27.6L127.1,452.3z"/>
	<path class="st18" d="M127.1,452.3l-3.3,17.6c0,0,16.8,9.3,16.5,12.6l-34.4-5.2l4.1-27.6L127.1,452.3z"/>
	<path class="st18" d="M127.1,452.3l-3.3,17.6c0,0,16.8,9.3,16.5,12.6l-34.4-5.2l4.1-27.6L127.1,452.3z"/>
	<path class="st18" d="M127.1,452.3l-3.3,17.6c0,0,16.8,9.3,16.5,12.6l-34.4-5.2l4.1-27.6L127.1,452.3z"/>
	<g>
		<g>
			<path class="st13" d="M113.4,466.8c-0.7,0.1-1.3,0.8-1.2,1.5c0.1,0.7,0.7,1.3,1.4,1.2c0.7-0.1,1.4-0.9,1.3-1.5
				c-0.1-0.7-1-1.3-1.6-1.1"/>
		</g>
	</g>
	<g>
		<path class="st13" d="M105.9,477.3l0.4-2.7l32.9,6c0,0,1.4,0.9,1.1,1.9L105.9,477.3z"/>
	</g>
	<g>
		<g>
			<path class="st6" d="M124.3,469.8c0,0.2-0.9,0.1-1.8,0.5s-1.5,1.1-1.6,1s0.3-1,1.4-1.5S124.4,469.7,124.3,469.8z"/>
		</g>
	</g>
	<g>
		<g>
			<path class="st6" d="M127.7,471.9c0,0.2-0.8,0.3-1.4,1c-0.7,0.6-1,1.3-1.1,1.3c-0.2,0-0.1-1,0.7-1.8
				C126.7,471.6,127.7,471.7,127.7,471.9z"/>
		</g>
	</g>
	<g>
		<g>
			<path class="st6" d="M129.1,476.5c-0.2,0-0.3-0.9,0.3-1.7c0.6-0.9,1.4-1.1,1.5-0.9s-0.5,0.6-1,1.3
				C129.4,475.8,129.3,476.5,129.1,476.5z"/>
		</g>
	</g>
	<g>
		<g>
			<path class="st6" d="M124.7,465.7c-0.1,0.1-0.8-0.2-1.8-0.3c-1-0.1-1.7,0.1-1.8-0.1c-0.1-0.1,0.7-0.6,1.9-0.5
				C124,464.9,124.8,465.6,124.7,465.7z"/>
		</g>
	</g>
	<g>
		<g>
			<path class="st6" d="M125.3,462.2c0,0.1-0.7,0.1-1.7-0.3c-0.5-0.2-1.1-0.4-1.7-0.8c-0.3-0.2-0.6-0.4-0.9-0.7
				c-0.1-0.1-0.3-0.3-0.5-0.5s-0.2-0.7,0.1-0.9c0.2-0.2,0.5-0.3,0.8-0.3s0.5,0.1,0.6,0.2c0.4,0.2,0.7,0.3,1,0.5
				c0.6,0.4,1.1,0.9,1.4,1.3c0.7,0.9,0.9,1.5,0.8,1.6c-0.1,0-0.4-0.5-1.1-1.3c-0.4-0.4-0.8-0.8-1.4-1.1c-0.3-0.2-0.6-0.3-0.9-0.5
				s-0.7-0.2-0.8-0.1c0,0.1-0.1,0.1,0,0.2s0.2,0.2,0.3,0.4c0.3,0.2,0.6,0.5,0.8,0.7c0.6,0.4,1.1,0.7,1.6,0.9
				C124.6,461.9,125.3,462.1,125.3,462.2z"/>
		</g>
	</g>
	<g>
		<g>
			<path class="st6" d="M125,462.4c-0.1,0-0.3-0.6-0.2-1.7c0.1-0.5,0.2-1.2,0.5-1.8c0.2-0.3,0.4-0.7,0.6-1c0.3-0.3,0.6-0.7,1.2-0.7
				c0.3,0,0.6,0.3,0.6,0.6c0.1,0.2,0.1,0.5,0.1,0.7c0,0.4-0.1,0.8-0.2,1.2c-0.2,0.7-0.6,1.3-1,1.7c-0.8,0.8-1.5,0.9-1.5,0.8
				s0.6-0.3,1.2-1.1c0.3-0.4,0.6-0.9,0.8-1.5c0.1-0.3,0.1-0.7,0.1-1c0-0.4-0.1-0.7-0.2-0.7c-0.2,0-0.5,0.2-0.7,0.5s-0.4,0.6-0.6,0.9
				c-0.3,0.6-0.5,1.2-0.6,1.7C125,461.7,125.1,462.3,125,462.4z"/>
		</g>
	</g>
	<g>
		<g>
			<g>
				<path class="st19" d="M92,145.2l-0.1,46.5l19.9,1l0.6-11.3c0,0,7.1,1.4,8.9-5.2c1.2-4.2,0.9-36.7,0.9-36.7L92,145.2z"/>
			</g>
		</g>
	</g>
	<g>
		<g>
			<path class="st6" d="M72.5,288.9l-0.1,4.8c-0.1,6.4,0.6,12.7,2.3,18.9l2.2,8.3l5.4,139.5L108,462l-1.2-168.1L72.5,288.9z"/>
		</g>
		<g>
			<path class="st6" d="M81.4,291.2v5.9c0,7.5,4.1,14.5,10.7,18.1l0,0l20.6,56.8l-9.4,86.7l26.5,2.6l13.5-89.3
				c-1.4-4.4-16.5-80.8-16.5-80.8H81.4z"/>
		</g>
		<g>
			<g>
				<path class="st10" d="M127,370.2c0,0.1-3.1,0.8-6.9,1.6c-3.8,0.7-7,1.2-7,1c0-0.1,3.1-0.8,6.9-1.6
					C123.8,370.5,127,370.1,127,370.2z"/>
			</g>
		</g>
		<g>
			<g>
				<path class="st10" d="M127,377.3c0,0.1-0.8-0.2-2.1-0.5c-1.5-0.4-3.1-0.9-5-1.5c-3.9-1.1-7-2.4-6.9-2.5c0-0.1,0.8,0.2,2.1,0.5
					c1.5,0.4,3.1,0.9,5,1.5C124,375.9,127.1,377.2,127,377.3z"/>
			</g>
		</g>
		<g>
			<g>
				<path class="st10" d="M103.4,458.7c0,0,0-0.2,0-0.4c0-0.3,0.1-0.7,0.1-1.3c0.1-1.2,0.3-2.8,0.5-5c0.5-4.4,1.2-10.6,2-18.4
					c1.7-15.6,4.1-37,6.8-60.8v0.1c-0.1-0.3-0.3-0.7-0.4-1.1c-4.1-11.4-7.9-22.2-11.5-32.1c-1.8-4.9-3.4-9.6-5-14
					c-1.5-4.4-3.1-8.4-5.4-11.7c-2.2-3.3-4.7-5.9-6.5-8.5c-1.9-2.6-2.7-5.3-3.1-7.4c-0.4-2.2-0.4-3.9-0.3-5.1s0.2-1.8,0.2-1.8
					s0,0.2,0,0.5s0,0.7-0.1,1.3c0,1.2,0,2.9,0.4,5.1s1.2,4.8,3.1,7.3c1.8,2.6,4.3,5.2,6.5,8.5c2.3,3.3,3.9,7.4,5.5,11.8
					s3.3,9.1,5,14c3.5,9.9,7.4,20.7,11.5,32.1c0.1,0.4,0.3,0.7,0.4,1.1v0.1v0.1c-2.7,23.8-5.2,45.2-6.9,60.8
					c-0.9,7.7-1.6,14-2.2,18.4c-0.3,2.1-0.5,3.8-0.6,5c-0.1,0.6-0.1,1-0.2,1.3C103.4,458.6,103.4,458.7,103.4,458.7z"/>
			</g>
		</g>
	</g>
	<g class="st20">
		<polygon points="105.9,470.7 104.4,476.7 105.9,476.7 106.8,471.1 		"/>
	</g>
	<path class="st9" d="M71.2,291.2h55.7l-2.2-46.9c-0.4-9.2-0.3-10.3-0.5-18.8c0,0,8.7,10.5,15.5,17.8c4.1,4.4,10.6,5.7,16.1,3.1
		l35.7-24.9l-5.7-14.6l-33.4,17.4c-1.5-0.9-14.1-18.9-22.8-27.7c-5.6-5.6-13.1-8.9-21-9.1c-6-0.2-13.2,0.1-19.7,0.8
		c-9.8,1-17.5,8.9-18.3,18.8c-0.6,7.5,2.9,31.2,2.9,31.2l1.3,17.7L71.2,291.2z"/>
	<g>
		<g>
			<path class="st6" d="M72.6,197.4c0,0,0,0.2-0.1,0.6c-0.1,0.4-0.2,1-0.3,1.7c-0.1,0.7-0.3,1.6-0.4,2.7c-0.1,1-0.3,2.2-0.3,3.6
				c-0.3,5.3,0,12.6,0.9,20.7c0.9,8.1,1.9,15.3,2.2,20.6c0.4,5.3,0,8.6,0,8.6s0-0.2,0-0.6c0-0.4,0-1,0.1-1.7c0-1.5,0-3.6-0.2-6.3
				c-0.3-5.3-1.4-12.6-2.2-20.6c-0.9-8.1-1.2-15.4-0.8-20.7c0-1.3,0.2-2.5,0.3-3.6c0.1-1.1,0.3-1.9,0.4-2.7c0.1-0.7,0.2-1.2,0.3-1.7
				C72.6,197.6,72.6,197.4,72.6,197.4z"/>
		</g>
	</g>
	<g>
		<g>
			<path class="st6" d="M151,230c0,0,0-0.3,0.1-0.8s0.3-1.2,0.4-2c0.2-0.8,0.4-1.5,0.5-2s0.2-0.8,0.3-0.8c0,0,0,0.3-0.1,0.8
				s-0.3,1.2-0.4,2c-0.2,0.8-0.4,1.5-0.5,2C151.1,229.6,151,230,151,230z"/>
		</g>
	</g>
	<g>
		<g>
			<path class="st6" d="M154.2,230.5c-0.1,0-0.4-1.4-0.8-3.2c-0.4-1.8-0.7-3.2-0.6-3.3c0.1,0,0.4,1.4,0.8,3.2
				S154.3,230.4,154.2,230.5z"/>
		</g>
	</g>
	<g>
		<g>
			<path class="st6" d="M125.6,226.9c0,0-0.1-0.1-0.3-0.3c-0.3-0.2-0.6-0.5-0.9-0.9c-0.8-0.8-2-1.9-3.4-3.4s-3-3.3-4.6-5.4
				c-1.6-2.2-3.1-4.7-4.1-7.6c-1.1-2.9-1.5-5.9-1.4-8.5c0.1-2.7,0.6-5.1,1.5-6.9c0.9-1.8,2.1-3,3-3.7c0.5-0.3,0.8-0.6,1.1-0.7
				c0.3-0.1,0.4-0.2,0.4-0.2s-0.5,0.3-1.4,1s-2.1,1.9-2.9,3.7c-0.9,1.8-1.4,4.2-1.5,6.8c-0.2,2.7,0.3,5.6,1.4,8.5
				c2.1,5.8,5.9,10.1,8.6,13c1.4,1.5,2.5,2.6,3.3,3.4c0.4,0.4,0.7,0.7,0.9,0.9S125.6,226.9,125.6,226.9z"/>
		</g>
	</g>
	<g>
		<g>
			<g>
				<path class="st21" d="M132.6,200c0,0-0.2,0.2-0.5,0.4c-0.4,0.3-0.9,0.7-1.6,1.1c-1.5,0.8-3.9,1.6-7,1.6
					c-3.1,0.1-6.6-0.7-10.5-1.7c-1.9-0.5-4-1-6.2-1.3s-4.4-0.4-6.7,0.1c-1.1,0.2-2.2,0.6-3.2,1c-1,0.5-1.9,1.1-2.9,1.7
					c-0.9,0.6-1.8,1.2-2.8,1.6c-1,0.4-2,0.6-3,0.6c-2,0-3.9-0.7-5.5-1.4c-1.6-0.8-3.1-1.6-4.5-2.2c-2.8-1.3-5.3-1.3-7-0.9
					c-0.8,0.2-1.4,0.5-1.8,0.7s-0.6,0.4-0.6,0.4s0.2-0.2,0.5-0.4c0.4-0.2,1-0.5,1.8-0.8c1.6-0.4,4.2-0.5,7,0.8
					c1.4,0.6,2.9,1.4,4.5,2.1c1.6,0.7,3.4,1.4,5.4,1.4c4.2,0.1,7.1-4.3,11.9-4.9c2.3-0.4,4.6-0.4,6.8-0.1c2.2,0.3,4.2,0.8,6.2,1.3
					c3.9,1,7.4,1.8,10.5,1.7c3,0,5.4-0.8,6.9-1.6c0.8-0.4,1.3-0.8,1.7-1C132.4,200.1,132.6,200,132.6,200z"/>
			</g>
		</g>
		<g>
			<g>
				<path class="st21" d="M148.1,218.6c0,0,0,0.4-0.3,0.9c-0.3,0.6-0.8,1.4-1.6,2.1c-0.9,0.7-2.1,1.4-3.5,1.8
					c-1.5,0.4-3.1,0.5-4.8,0.6s-3.4,0.1-4.8,0.4c-1.4,0.3-2.7,0.8-3.7,1.4c-1,0.5-1.7,1.1-2.2,1.5s-0.7,0.7-0.7,0.7s0.2-0.3,0.6-0.7
					c0.5-0.4,1.2-1,2.2-1.6c1-0.5,2.3-1.1,3.7-1.4c1.5-0.3,3.1-0.4,4.8-0.5s3.4-0.2,4.8-0.6c1.4-0.4,2.6-1,3.5-1.7s1.4-1.5,1.7-2
					C148,219,148.1,218.6,148.1,218.6z"/>
			</g>
		</g>
		<g>
			<g>
				<path class="st21" d="M162,241.8c0,0,0.1-0.3,0.3-0.8s0.4-1.3,0.4-2.3s-0.1-2.2-0.5-3.5c-0.3-1.3-0.9-2.6-1.6-4.1
					c-0.6-1.4-1.2-2.8-1.7-4c-0.4-1.3-0.7-2.5-0.7-3.5c-0.1-1,0-1.9,0.2-2.4c0.1-0.6,0.3-0.8,0.3-0.8s-0.1,0.3-0.2,0.9
					c-0.1,0.6-0.2,1.4-0.1,2.4c0.1,1,0.3,2.2,0.8,3.5c0.4,1.3,1,2.6,1.7,4c0.6,1.4,1.2,2.8,1.6,4.1c0.3,1.3,0.5,2.5,0.4,3.6
					c-0.1,1-0.3,1.8-0.5,2.4C162.2,241.5,162,241.8,162,241.8z"/>
			</g>
		</g>
		<g>
			<g>
				<path class="st21" d="M187.3,211.1c0,0-0.1,0.2-0.3,0.5s-0.5,0.8-0.9,1.4c-0.8,1.2-2.1,2.8-4.1,4.5s-4.5,3.3-7.5,4.9
					c-3,1.6-6.5,3-10,4.6s-6.8,3.4-9.4,5.6c-2.6,2.1-4.6,4.5-5.8,6.7s-1.8,4.3-2,5.7c-0.1,0.7-0.1,1.3-0.1,1.6c0,0.4,0,0.6,0,0.6
					s0-0.2,0-0.6c0-0.4,0-0.9,0.1-1.6c0.2-1.4,0.7-3.5,1.9-5.7c1.2-2.3,3.2-4.7,5.8-6.8s5.9-3.9,9.5-5.6c3.5-1.6,7-3,10-4.6
					c3-1.5,5.6-3.2,7.5-4.8c2-1.6,3.3-3.2,4.1-4.4c0.4-0.6,0.7-1.1,0.9-1.4C187.2,211.3,187.3,211.1,187.3,211.1z"/>
			</g>
		</g>
		<g>
			<g>
				<path class="st21" d="M183.9,226.4c0,0,0-0.2,0-0.7c0-0.4-0.1-1-0.3-1.8c-0.4-1.5-1.4-3.4-2.7-5.4c-0.6-1-1.3-1.9-1.9-2.7
					c-0.6-0.8-1.2-1.6-1.4-2.4c-0.2-0.8-0.1-1.4-0.1-1.8c0-0.2,0.1-0.4,0.1-0.5s0-0.2,0-0.2s0,0.2-0.1,0.7c0,0.4-0.1,1.1,0.1,1.8
					c0.2,0.7,0.7,1.5,1.4,2.3c0.6,0.8,1.3,1.7,1.9,2.7c1.3,2,2.3,3.9,2.6,5.4c0.2,0.8,0.2,1.4,0.2,1.8c0,0.2,0,0.4,0,0.5
					C183.9,226.4,183.9,226.4,183.9,226.4z"/>
			</g>
		</g>
		<g>
			<g>
				<path class="st21" d="M124.7,234.1c0,0-0.6,0.5-1.9,1.1s-3.3,1.2-5.9,1.3s-5.6-0.5-8.8-1.7c-3.2-1.2-6.4-3-9.9-4.7
					s-6.9-3.1-10.3-3.6c-1.7-0.3-3.3-0.3-4.7-0.1c-1.5,0.2-2.8,0.6-4,1.1c-2.3,1-3.9,2.5-4.7,3.6c-0.2,0.3-0.4,0.5-0.5,0.8
					c-0.1,0.2-0.3,0.4-0.3,0.6c-0.2,0.3-0.3,0.5-0.3,0.5s0.1-0.2,0.2-0.5c0.1-0.2,0.2-0.4,0.3-0.6c0.1-0.2,0.3-0.5,0.5-0.8
					c0.8-1.2,2.4-2.7,4.7-3.7c1.2-0.5,2.5-0.9,4-1.1c1.5-0.2,3.1-0.2,4.8,0.1c3.4,0.5,6.8,1.9,10.3,3.6c3.5,1.7,6.7,3.5,9.9,4.7
					c3.1,1.2,6.1,1.8,8.7,1.7c2.5,0,4.6-0.6,5.8-1.2c0.6-0.3,1.1-0.6,1.4-0.8C124.5,234.2,124.7,234.1,124.7,234.1z"/>
			</g>
		</g>
		<g>
			<g>
				<path class="st21" d="M102.6,263.5c0,0-0.1-0.2-0.4-0.7c-0.2-0.5-0.5-1.2-0.8-2.1c-0.5-1.9-0.8-4.8-0.2-8.3
					c0.3-1.8,0.8-3.6,1.3-5.7c0.5-2,1-4.2,1.3-6.5c0.6-4.6-0.1-9.8-1.5-15s-3.3-10-4.8-14.4c-1.6-4.4-2.7-8.5-3.3-12
					c-0.6-3.5-0.4-6.5,0.5-8.3c0.4-0.9,0.8-1.5,1.2-1.9c0.4-0.4,0.6-0.6,0.6-0.6c0.1,0-0.9,0.7-1.7,2.5c-0.8,1.8-1,4.8-0.4,8.2
					c0.6,3.5,1.8,7.5,3.4,11.9c1.5,4.4,3.5,9.2,4.9,14.4s2,10.4,1.4,15.1c-0.3,2.3-0.8,4.5-1.3,6.5s-1,3.9-1.3,5.6
					c-0.6,3.5-0.4,6.4,0.1,8.3c0.2,1,0.5,1.7,0.8,2.1C102.5,263.2,102.6,263.5,102.6,263.5z"/>
			</g>
		</g>
		<g>
			<g>
				<path class="st21" d="M104.5,291.2c0,0,0-0.1,0-0.3c0-0.2,0.1-0.5,0.1-0.7c0.1-0.6,0.1-1.6,0.1-2.8c0-2.3-0.4-5.6-1.8-8.8
					c-0.7-1.6-1.5-3.1-2.2-4.5s-1.2-2.7-1.4-3.8c-0.3-1.1-0.3-2.1-0.2-2.8c0.1-0.7,0.2-1,0.2-1s-0.1,0.4-0.1,1s0,1.6,0.3,2.7
					s0.8,2.4,1.5,3.8s1.6,2.8,2.2,4.5c1.4,3.3,1.8,6.6,1.7,8.9C104.9,289.8,104.5,291.2,104.5,291.2z"/>
			</g>
		</g>
		<g>
			<g>
				<path class="st21" d="M122.4,291.2c0,0-0.1-0.2-0.3-0.6c-0.2-0.4-0.5-1-0.8-1.9c-0.5-1.7-0.9-4.2-0.6-7.4
					c0.1-1.6,0.4-3.3,0.8-5.1c0.4-1.8,1-3.7,1.5-5.7c1.1-4,2.3-8.5,1.6-13.3c-0.7-4.7-2.6-9-3.5-13c-1-4-1.2-7.8-1.1-11
					c0.1-3.1,0.7-5.7,1.1-7.4s0.8-2.6,0.8-2.6s-0.1,0.2-0.2,0.7c-0.1,0.4-0.3,1.1-0.5,2c-0.4,1.7-0.9,4.2-1,7.3s0.1,6.9,1.1,10.9
					s2.8,8.3,3.5,13c0.7,4.8-0.5,9.4-1.6,13.3c-0.6,2-1.1,3.9-1.5,5.7c-0.4,1.8-0.7,3.5-0.9,5c-0.3,3.1,0.1,5.7,0.6,7.3
					c0.2,0.8,0.5,1.5,0.7,1.9C122.3,290.9,122.4,291.2,122.4,291.2z"/>
			</g>
		</g>
		<g>
			<g>
				<path class="st21" d="M80.4,275.1c0,0,0,0.2-0.1,0.6s-0.2,1-0.3,1.7c-0.2,1.5-0.3,3.5-0.1,5.8c0.2,2.3,0.8,4.3,1.3,5.7
					c0.3,0.7,0.5,1.3,0.6,1.6c0.2,0.4,0.3,0.6,0.2,0.6c0,0-0.1-0.2-0.3-0.6c-0.2-0.4-0.4-0.9-0.7-1.6c-0.5-1.4-1.1-3.4-1.4-5.7
					c-0.2-2.3-0.1-4.4,0.1-5.9c0.1-0.7,0.2-1.3,0.4-1.7C80.4,275.3,80.4,275.1,80.4,275.1z"/>
			</g>
		</g>
		<g>
			<g>
				<path class="st21" d="M76,193.9c0,0,0.1,0,0.2,0.1s0.3,0.2,0.5,0.4c0.4,0.3,1.1,0.9,1.5,1.9s0.7,2.3,0.7,3.8s-0.2,3.2-0.6,5.1
					c-0.4,1.9-1,3.8-1.4,6.1c-0.3,2.2-0.5,4.6-0.4,7.1c0.1,5,1.1,10.5,2.4,16.1c1.3,5.7,2.6,11,3.1,16.1c0.6,5,0.4,9.6-0.3,13.3
					c-0.7,3.7-2,6.6-3,8.5c-0.5,0.9-1,1.6-1.3,2.1s-0.5,0.7-0.5,0.7s0.2-0.2,0.5-0.7s0.8-1.2,1.3-2.1c1-1.9,2.3-4.7,3-8.4
					c0.7-3.7,0.9-8.3,0.3-13.3s-1.9-10.4-3.1-16c-1.3-5.7-2.3-11.1-2.3-16.2c-0.1-2.5,0.1-4.9,0.5-7.1c0.3-2.2,1-4.2,1.4-6.1
					c0.5-1.8,0.7-3.5,0.7-5.1c0-1.5-0.2-2.8-0.7-3.8c-0.4-1-1-1.6-1.4-1.9C76.3,194.1,76,193.9,76,193.9z"/>
			</g>
		</g>
		<g>
			<g>
				<path class="st21" d="M96.4,267.8c0,0-0.1,0-0.2-0.1c-0.2-0.1-0.4-0.2-0.6-0.4c-0.5-0.3-1.3-0.8-2.2-1.3c-1.9-1-4.7-2.1-8-2.6
					c-3.2-0.5-6.2-0.4-8.4,0c-1.1,0.2-1.9,0.3-2.5,0.5c-0.2,0.1-0.5,0.1-0.7,0.2c-0.2,0-0.2,0.1-0.2,0c0,0,1.3-0.5,3.4-0.9
					s5.2-0.6,8.4,0c3.3,0.5,6.1,1.6,8,2.7C95.3,267,96.4,267.8,96.4,267.8z"/>
			</g>
		</g>
		<g>
			<g>
				<path class="st21" d="M125.6,263.2c0,0-0.1,0-0.2,0.1c-0.2,0.1-0.5,0.1-0.7,0.2c-0.7,0.2-1.6,0.5-2.7,0.8
					c-1.2,0.3-2.5,0.7-4,1.2c-1.5,0.4-3.1,0.9-4.9,1.3s-3.5,0.6-5,0.7c-1.6,0-3-0.2-4.1-0.5s-2-0.7-2.6-1s-0.9-0.6-0.9-0.6
					s0.3,0.2,0.9,0.5s1.5,0.7,2.6,1s2.5,0.5,4.1,0.4c1.5,0,3.2-0.3,5-0.7c1.7-0.4,3.4-0.9,4.9-1.3s2.8-0.8,4-1.1
					c1-0.3,1.9-0.5,2.7-0.7c0.3-0.1,0.5-0.1,0.7-0.2C125.5,263.2,125.6,263.2,125.6,263.2z"/>
			</g>
		</g>
	</g>
	<g>
		<g>
			<path class="st6" d="M112.3,248.1c0,0-0.1,0.2-0.2,0.4c-0.1,0.3-0.3,0.8-0.5,1.3c-0.2,0.6-0.5,1.2-0.9,2s-0.8,1.6-1.4,2.5
				c-0.3,0.5-0.6,0.9-0.9,1.4c-0.3,0.5-0.7,1-1,1.5c-0.7,1.1-1.5,2.1-2.4,3.2c-1.8,2.1-4,4.4-6.6,6.4s-5.2,3.6-7.7,4.9
				c-1.3,0.6-2.5,1.2-3.7,1.6c-0.6,0.2-1.1,0.5-1.7,0.7s-1.1,0.3-1.6,0.5c-1,0.4-2,0.5-2.8,0.7s-1.5,0.3-2.1,0.4
				c-0.5,0.1-1,0.2-1.4,0.2c-0.3,0-0.5,0.1-0.5,0.1s0.2,0,0.5-0.1c0.4-0.1,0.8-0.2,1.3-0.3c0.6-0.1,1.3-0.2,2.1-0.5
				c0.8-0.2,1.8-0.4,2.8-0.8c0.5-0.2,1-0.3,1.6-0.5s1.1-0.4,1.7-0.7c1.2-0.4,2.4-1,3.6-1.6c2.5-1.3,5.1-2.9,7.7-4.9
				c2.5-2,4.7-4.2,6.6-6.4c0.9-1.1,1.7-2.1,2.4-3.2c0.4-0.5,0.7-1,1-1.5s0.6-1,0.9-1.4c0.6-0.9,1-1.8,1.4-2.5s0.7-1.4,0.9-2
				c0.2-0.5,0.4-0.9,0.6-1.3C112.3,248.3,112.3,248.1,112.3,248.1z"/>
		</g>
	</g>
	<g class="st16">
		<g>
			<path d="M82.1,275.1c-0.4,0.1-0.4-0.8-0.4-1.3c0-0.7,0.4-1.4,0.9-1.9c1.1-1.1,2.7-1.4,4.1-1.8c2.4-0.7,4.8-1.7,7-2.9
				c3.1-1.8,5.9-4.1,8.6-6.4c2.1-1.7,4.1-3.5,6.2-5.2C108.5,255.4,100.5,270.2,82.1,275.1z"/>
		</g>
	</g>
	<g class="st16">
		<g>
			<path d="M114.6,213.8c3.8,11.9,6.7,24.3,10.5,36.1l-0.9-24.5C120.6,222.2,117.5,218.3,114.6,213.8z"/>
		</g>
	</g>
	<g>
		<g>
			<path class="st19" d="M189.6,216.8l3.8-4.1c0,0,4.4,0.1,5.1-0.7c0.7-0.9,6.9-7.6,6.9-7.6s-0.9-1.2-2.6-2.1
				c-1.3-0.7-1.1-0.5-2.1-0.9c-1.8-0.9-0.3-1.8-1.9-2c-0.9-0.1-2.9,1.5-3.7,2l-9.2,5.8L189.6,216.8z"/>
		</g>
		<g>
			<path class="st19" d="M189.3,205.5c-0.1-0.6,2.3-5,1.9-6.7s1.4-1.1,1.7,0s0.7,3.6,0.7,3.6L189.3,205.5z"/>
		</g>
		<g>
			<g>
				<path class="st22" d="M196,200.7c0,0-1.5,1.1-3.5,2.3c-1.9,1.2-3.5,2.2-3.6,2.2c0,0,1.5-1.1,3.5-2.3
					C194.4,201.6,196,200.7,196,200.7z"/>
			</g>
		</g>
		<g>
			<g>
				<path class="st22" d="M200.9,201.4c0,0-0.3-0.1-0.8,0c-0.5,0-1.1,0.2-1.7,0.7c-0.6,0.4-1,0.9-1.3,1.3c-0.3,0.4-0.5,0.6-0.5,0.6
					s0.1-0.3,0.4-0.7c0.3-0.4,0.7-0.9,1.3-1.4c0.6-0.4,1.3-0.6,1.8-0.6C200.7,201.2,200.9,201.4,200.9,201.4z"/>
			</g>
		</g>
		<g>
			<g>
				<path class="st22" d="M203.6,202.8c0,0-0.3-0.1-0.7-0.3s-1.1-0.2-1.7,0.2c-1.2,0.9-1.9,1.8-2,1.8c0,0,0.1-0.3,0.5-0.6
					c0.3-0.4,0.8-0.9,1.4-1.3c0.3-0.2,0.7-0.4,1-0.4s0.6,0.1,0.9,0.2C203.3,202.6,203.6,202.8,203.6,202.8z"/>
			</g>
		</g>
	</g>
	<g>
		<g>
			<g>
				<path class="st6" d="M125.6,147c0.6,4.4-5.6,7-5.6,7l-1.1,10.4c-0.9-0.1-2.9,0-2.9,0c0.5-4.9-5.8-3.9-6.4-0.6
					c-0.6,3.2,3,5.4,3,5.4c-2.5,3.9-3.6,5.9-7.1,9.6c-3.9,3.9-6,4.2-10,4.1l-4.4-0.2c0,0-1.6-3.8-2.7-12.7
					c-0.6-4.3-3.9-9.9-2.9-16.9c2.7-19.8,21.7-17.7,21.7-17.7C116.9,135.7,124.3,136.8,125.6,147z"/>
			</g>
		</g>
	</g>
	<g>
		<linearGradient id="SVGID_2_" gradientUnits="userSpaceOnUse" x1="202.3" y1="464.5" x2="305.8" y2="464.5">
			<stop  offset="6.926126e-08" style="stop-color:#34007F"/>
			<stop  offset="1" style="stop-color:#7C4DFF"/>
		</linearGradient>
		<rect x="202.3" y="450.3" class="st23" width="103.5" height="28.4"/>
		<path class="st6" d="M223.1,450.3c0.1,0.1-4.2,6.6-9.7,14.5s-10.1,14.3-10.2,14.2c-0.1-0.1,4.2-6.6,9.7-14.5
			C218.4,456.5,223,450.2,223.1,450.3z"/>
		<path class="st6" d="M238.4,450.3c0.1,0.1-4.2,6.6-9.7,14.5s-10.1,14.3-10.2,14.2c-0.1-0.1,4.2-6.6,9.7-14.5
			C233.7,456.5,238.3,450.2,238.4,450.3z"/>
		<path class="st6" d="M253.7,450.3c0.1,0.1-4.2,6.6-9.7,14.5s-10.1,14.3-10.2,14.2c-0.1-0.1,4.2-6.6,9.7-14.5
			C249,456.5,253.5,450.2,253.7,450.3z"/>
		<path class="st6" d="M268.9,450.3c0.1,0.1-4.2,6.6-9.7,14.5S249.1,479.1,249,479c-0.1-0.1,4.2-6.6,9.7-14.5
			C264.3,456.5,268.8,450.2,268.9,450.3z"/>
		<path class="st6" d="M284.2,450.3c0.1,0.1-4.2,6.6-9.7,14.5s-10.1,14.3-10.2,14.2c-0.1-0.1,4.2-6.6,9.7-14.5
			C279.5,456.5,284.1,450.2,284.2,450.3z"/>
		<path class="st6" d="M299.5,450.3c0.1,0.1-4.2,6.6-9.7,14.5s-10.1,14.3-10.2,14.2c-0.1-0.1,4.2-6.6,9.7-14.5
			C294.8,456.5,299.4,450.2,299.5,450.3z"/>
	</g>
	<g>
		<path class="st24" d="M392.8,377.6l3.9,35.2c0.4,4.5,4.1,7.9,8.6,7.9h22.4c4.5,0,8.1-3.3,8.6-7.9l3.9-35.2c0.2-1.8-1-3.3-2.8-3.5
			c-0.2,0-0.4,0-0.6,0h-41.1c-1.8,0-3.1,1.6-3.1,3.3C392.8,377.4,392.8,377.6,392.8,377.6z"/>
		<path class="st25" d="M437.2,374.1h-14.4c1.8,0,3.1,1.4,3.1,3.1c0,0.2,0,0.4,0,0.6l-3.9,35.2c-0.4,4.5-4.1,7.9-8.6,7.9h14.3
			c4.5,0,8.1-3.3,8.6-7.9l3.9-35.2c0.2-1.8-1-3.3-2.8-3.5C437.4,374.1,437.2,374.1,437.2,374.1z"/>
	</g>
	<g>
		<g>
			<g>
				<path class="st12" d="M436.6,407.4c0,0.1-8.9,0.3-20,0.3c-11,0-20-0.1-20-0.3s8.9-0.3,20-0.3
					C427.6,407.1,436.6,407.3,436.6,407.4z"/>
			</g>
		</g>
		<g>
			<g>
				<path class="st12" d="M436.8,405.5c0,0.1-9,0.3-20.1,0.3s-20.1-0.1-20.1-0.3s9-0.3,20.1-0.3S436.8,405.3,436.8,405.5z"/>
			</g>
		</g>
		<g>
			<g>
				<path class="st12" d="M436.6,403.3c0,0.1-9,0.3-20.1,0.3s-20.1-0.1-20.1-0.3s9-0.3,20.1-0.3S436.6,403.1,436.6,403.3z"/>
			</g>
		</g>
		<g>
			<g>
				<path class="st12" d="M402.5,419.3c-0.1,0-0.6-2.2-1.1-5s-0.8-5-0.6-5c0.1,0,0.6,2.2,1.1,5C402.4,417,402.6,419.3,402.5,419.3z"
					/>
			</g>
		</g>
		<g>
			<g>
				<path class="st12" d="M405,418.9c-0.1,0-0.3-2.2-0.5-4.8c-0.2-2.7-0.3-4.8-0.2-4.9c0.1,0,0.5,2.1,0.7,4.8
					C405.1,416.7,405,418.9,405,418.9z"/>
			</g>
		</g>
		<g>
			<g>
				<path class="st12" d="M409.2,418.9c-0.1,0-0.6-2.2-1-5c-0.3-2.8-0.4-5-0.2-5.1c0.1,0,0.4,2.2,0.7,5
					C409.1,416.6,409.4,418.9,409.2,418.9z"/>
			</g>
		</g>
		<g>
			<g>
				<path class="st12" d="M412.2,419.1c-0.1,0-0.4-2.2-0.5-5s0.1-5.1,0.2-5.1s0.2,2.3,0.3,5.1C412.4,416.8,412.5,419.1,412.2,419.1z
					"/>
			</g>
		</g>
		<g>
			<g>
				<path class="st12" d="M417.6,418.9c-0.1,0-0.3-2.1-0.4-4.8c-0.1-2.7,0-4.8,0.1-4.8s0.3,2.1,0.4,4.8
					C417.9,416.7,417.8,418.9,417.6,418.9z"/>
			</g>
		</g>
		<g>
			<g>
				<path class="st12" d="M421.5,419.1c-0.1,0-0.2-2.2-0.2-5c0-2.7,0.2-5,0.3-5c0.1,0,0.2,2.2,0.2,5
					C421.9,416.9,421.8,419.1,421.5,419.1z"/>
			</g>
		</g>
		<g>
			<g>
				<path class="st12" d="M425.2,418.6c-0.1,0,0-2.3,0.2-5.2c0.3-2.9,0.6-5.2,0.8-5.1c0.1,0,0,2.3-0.2,5.2
					C425.8,416.3,425.4,418.6,425.2,418.6z"/>
			</g>
		</g>
		<g>
			<g>
				<path class="st12" d="M430,418.1c-0.1,0,0-2,0.5-4.4s1.2-4.3,1.4-4.2c0.1,0-0.3,2-0.8,4.4C430.5,416.1,430.1,418.1,430,418.1z"
					/>
			</g>
		</g>
	</g>
</g>
</svg>
