<?xml version="1.0" encoding="utf-8"?>
<!-- Generator: Adobe Illustrator 25.2.0, SVG Export Plug-In . SVG Version: 6.00 Build 0)  -->
<svg version="1.1" id="Layer_1" xmlns="http://www.w3.org/2000/svg" xmlns:xlink="http://www.w3.org/1999/xlink" x="0px" y="0px"
	 viewBox="0 0 294.5 252.8" style="enable-background:new 0 0 294.5 252.8;" xml:space="preserve">
<style type="text/css">
	.st0{fill:#E4E4E4;}
	.st1{fill:#7C4DFF;fill-opacity:0.2;}
	.st2{fill:#666666;}
	.st3{fill:#C6B6FF;}
	.st4{fill:#FFFFFF;}
	.st5{fill:#838384;}
	.st6{fill:#C5B6FF;}
	.st7{fill:#7B4DFF;}
	.st8{fill:#D3D3D3;}
	.st9{fill:#AFAFAF;}
	.st10{fill:#F2F7FA;}
	.st11{fill-rule:evenodd;clip-rule:evenodd;fill:#C5B6FF;}
</style>
<g>
	<path class="st0" d="M233.9,213.9c42.7-42.6,42.8-111.7,0.2-154.4S122.4,16.7,79.6,59.3S36.8,171,79.4,213.7
		c0.1,0.1,0.1,0.1,0.2,0.2C122.4,256.3,191.2,256.3,233.9,213.9z"/>
	<path class="st1" d="M213.7,191.7c37.6-37.5,37.7-98.3,0.2-135.9S115.6,18.1,78,55.6s-37.7,98.3-0.2,135.9c0.1,0.1,0.1,0.1,0.2,0.2
		C115.6,228.9,176.1,228.9,213.7,191.7z"/>
	<path class="st2" d="M168.4,25.9c-0.5,0-0.8-0.4-0.8-0.8c0,0,0,0,0,0c0-1.1-0.2-2.2-0.6-3.2c-0.4-0.9-1-1.8-1.7-2.5
		c-0.7-0.7-1.6-1.3-2.5-1.7c-1-0.4-2-0.6-3.1-0.6c-0.5,0-0.8-0.4-0.8-0.8c0-0.5,0.4-0.8,0.8-0.8l0,0c2.1,0,4.1-0.8,5.6-2.3
		c0.7-0.7,1.3-1.6,1.7-2.5c0.4-1,0.6-2,0.6-3.1c-0.1-0.5,0.3-0.9,0.7-0.9c0.5-0.1,0.9,0.3,0.9,0.7c0,0.1,0,0.1,0,0.2
		c0,1.1,0.2,2.1,0.6,3.1c0.4,0.9,1,1.8,1.7,2.5c0.7,0.7,1.6,1.3,2.5,1.7c1,0.4,2,0.6,3.1,0.6c0.5,0,0.8,0.4,0.8,0.8
		c0,0.5-0.4,0.8-0.8,0.8c-1.1,0-2.1,0.2-3.1,0.6c-0.9,0.4-1.8,1-2.5,1.7c-0.7,0.7-1.3,1.6-1.8,2.5c-0.4,1-0.6,2-0.6,3.1
		C169.3,25.5,169,25.9,168.4,25.9C168.5,25.9,168.5,25.9,168.4,25.9z M163.6,16.3c2.2,1,3.9,2.7,4.8,4.9c0.5-1.1,1.2-2,2-2.9
		c0.8-0.8,1.8-1.5,2.9-2c-2.2-1-3.9-2.7-4.8-4.9c-0.5,1.1-1.2,2-2,2.9C165.6,15.2,164.7,15.8,163.6,16.3L163.6,16.3z"/>
	<path class="st2" d="M54,208.3c-0.3,0-0.5-0.2-0.5-0.5c0-0.6-0.1-1.2-0.4-1.8c-0.2-0.5-0.6-1-1-1.4c-0.4-0.4-0.9-0.8-1.4-1
		c-0.6-0.2-1.1-0.3-1.7-0.4c-0.3,0-0.4-0.3-0.4-0.5c0-0.2,0.2-0.4,0.4-0.4c0.6,0,1.2-0.1,1.7-0.4c0.5-0.2,1-0.5,1.4-0.9
		c0.4-0.4,0.8-0.9,1-1.4c0.2-0.6,0.4-1.1,0.4-1.8c0-0.3,0.2-0.5,0.5-0.5c0,0,0,0,0,0c0.3,0,0.5,0.2,0.5,0.5c0,0,0,0,0,0
		c0,0.6,0.1,1.2,0.3,1.8c0.7,1.7,2.3,2.8,4.2,2.8c0.3,0,0.5,0.2,0.5,0.5c0,0.3-0.2,0.5-0.5,0.5c0,0,0,0,0,0c-1.2,0-2.3,0.5-3.2,1.3
		c-0.4,0.4-0.8,0.9-1,1.4c-0.2,0.6-0.4,1.1-0.3,1.8C54.5,208.1,54.3,208.4,54,208.3z M51.3,202.9c1.2,0.5,2.2,1.5,2.7,2.7
		c0.5-1.2,1.5-2.2,2.8-2.7c-0.6-0.3-1.1-0.7-1.6-1.1c-0.5-0.5-0.9-1-1.1-1.7c-0.3,0.6-0.6,1.2-1.1,1.6
		C52.4,202.3,51.9,202.7,51.3,202.9z"/>
	<path class="st3" d="M206.3,29.6v-0.9V29.6L206.3,29.6z M206.3,29.6c-0.6,0-1.2-0.1-1.9-0.2l0.4-1.6c0.5,0.1,0.9,0.2,1.4,0.2
		L206.3,29.6z M208.1,29.4l-0.4-1.6c0.5-0.1,0.9-0.3,1.3-0.5l0.9,1.5C209.3,29,208.7,29.2,208.1,29.4z M202.7,28.7
		c-0.5-0.3-1-0.7-1.5-1.1l1.2-1.2c0.3,0.3,0.7,0.6,1.1,0.9L202.7,28.7z M211.3,27.5l-1.2-1.2c0.3-0.3,0.6-0.7,0.9-1.1l1.5,0.9
		C212.2,26.6,211.8,27.1,211.3,27.5z M200,26.1c-0.3-0.5-0.6-1.1-0.7-1.7l1.7-0.4c0.1,0.5,0.3,0.9,0.6,1.3L200,26.1z M213.2,24.3
		l-1.6-0.4c0.1-0.5,0.2-0.9,0.2-1.4l1.7-0.1v0.1C213.4,23.1,213.3,23.7,213.2,24.3L213.2,24.3z M199,22.5L199,22.5
		c0-0.6,0.1-1.2,0.2-1.8l1.6,0.4c-0.1,0.5-0.2,0.9-0.2,1.4H199z M211.5,20.9c-0.1-0.5-0.3-0.9-0.6-1.3l1.4-0.9
		c0.3,0.5,0.6,1.1,0.7,1.7L211.5,20.9z M201.5,19.7l-1.5-0.8c0.3-0.5,0.7-1.1,1.1-1.5l1.2,1.2C202,19,201.7,19.3,201.5,19.7
		L201.5,19.7z M210.1,18.5c-0.3-0.3-0.7-0.6-1.1-0.9l0.8-1.5c0.5,0.3,1,0.7,1.5,1.1L210.1,18.5z M203.5,17.7l-0.9-1.5
		c0.5-0.3,1.1-0.6,1.7-0.7l0.5,1.7C204.4,17.3,203.9,17.5,203.5,17.7L203.5,17.7z M207.7,17.1c-0.4-0.1-0.9-0.2-1.4-0.2v-1.7l0,0
		c0.6,0,1.2,0.1,1.8,0.2L207.7,17.1z"/>
	<path class="st3" d="M85.6,238.5L85.6,238.5v-0.7V238.5L85.6,238.5z M85.6,238.5c-0.5,0-1-0.1-1.4-0.2l0.3-1.3
		c0.4,0.1,0.7,0.1,1.1,0.1V238.5z M87.1,238.4l-0.3-1.3c0.4-0.1,0.7-0.2,1-0.4l0.7,1.2C88,238,87.5,238.2,87.1,238.4L87.1,238.4z
		 M82.8,237.8c-0.4-0.2-0.8-0.5-1.2-0.9l1-0.9c0.3,0.3,0.6,0.5,0.9,0.7L82.8,237.8z M89.6,236.9l-1-0.9c0.3-0.3,0.5-0.6,0.7-0.9
		l1.2,0.7C90.2,236.1,89.9,236.5,89.6,236.9L89.6,236.9z M80.7,235.7c-0.2-0.4-0.4-0.9-0.6-1.4l1.3-0.4c0.1,0.3,0.2,0.7,0.4,1
		L80.7,235.7z M91,234.4l-1.3-0.3c0.1-0.4,0.2-0.7,0.2-1.1l1.3-0.1v0.1C91.2,233.4,91.1,233.9,91,234.4z M80,232.9L80,232.9
		c0-0.5,0.1-1,0.2-1.4l1.3,0.4c-0.1,0.4-0.1,0.7-0.1,1.1L80,232.9z M89.7,231.8c-0.1-0.4-0.3-0.7-0.4-1l1.2-0.7
		c0.2,0.4,0.4,0.9,0.6,1.4L89.7,231.8z M81.8,230.8l-1.2-0.7c0.2-0.4,0.5-0.8,0.9-1.2l1,0.9C82.3,230.1,82,230.4,81.8,230.8
		L81.8,230.8z M88.6,229.8c-0.3-0.3-0.6-0.5-0.9-0.7l0.7-1.2c0.4,0.2,0.8,0.5,1.2,0.9L88.6,229.8z M83.4,229.2l-0.7-1.1
		c0.4-0.3,0.9-0.4,1.3-0.6l0.4,1.3C84.1,228.8,83.7,229,83.4,229.2L83.4,229.2z M86.7,228.7c-0.3-0.1-0.7-0.1-1.1-0.1v-1.3l0,0
		c0.5,0,0.9,0.1,1.4,0.2L86.7,228.7z"/>
	<path class="st1" d="M68.7,142.4c3.1-13.2-5.1-26.4-18.3-29.5S24,118,20.9,131.2c-3.1,13.2,5.1,26.4,18.3,29.5
		C52.4,163.8,65.6,155.6,68.7,142.4z"/>
	<path class="st4" d="M66.6,140.2c3.1-13.2-5.1-26.4-18.3-29.5c-13.2-3.1-26.4,5.1-29.5,18.3c-3.1,13.2,5.1,26.4,18.2,29.5
		C50.2,161.6,63.4,153.4,66.6,140.2z"/>
	<path class="st5" d="M42.7,159.7c-13.9,0-25.2-11.2-25.2-25.1s11.2-25.2,25.1-25.2c13.9,0,25.2,11.2,25.2,25.1c0,0,0,0,0,0.1
		C67.8,148.4,56.6,159.7,42.7,159.7z M42.7,110.5c-13.3,0-24.1,10.7-24.1,24c0,13.3,10.7,24.1,24,24.1c13.3,0,24.1-10.7,24.1-24
		c0,0,0,0,0-0.1C66.7,121.3,56,110.5,42.7,110.5z"/>
	<path class="st2" d="M33.9,165.5h-0.2c-0.9-0.3-1.7-0.6-2.6-0.9c-0.3-0.1-0.4-0.5-0.2-0.7c0.1-0.2,0.4-0.3,0.6-0.3
		c0.8,0.3,1.6,0.6,2.5,0.9c0.3,0.1,0.4,0.4,0.4,0.7C34.3,165.3,34.1,165.5,33.9,165.5z"/>
	<path class="st5" d="M26.4,162.1c-0.1,0-0.2,0-0.3-0.1c-1.6-1-3.1-2.1-4.6-3.4c-0.2-0.2-0.2-0.5,0-0.8c0.2-0.2,0.5-0.2,0.8-0.1
		c1.4,1.2,2.8,2.3,4.4,3.2c0.3,0.2,0.3,0.5,0.2,0.7C26.7,162,26.6,162.1,26.4,162.1z M18,154.8c-0.2,0-0.3-0.1-0.4-0.2
		c-1.2-1.5-2.2-3-3.1-4.7c-0.1-0.3-0.1-0.6,0.2-0.7c0,0,0,0,0,0c0.3-0.1,0.6,0,0.7,0.2c0,0,0,0,0,0c0.9,1.6,1.9,3.1,3,4.6
		c0.2,0.2,0.1,0.6-0.1,0.8c0,0,0,0,0,0C18.3,154.8,18.1,154.8,18,154.8z M12.8,145.1c-0.2,0-0.4-0.2-0.5-0.4c-0.6-1.8-1-3.6-1.3-5.5
		c0-0.3,0.2-0.6,0.5-0.6c0.3,0,0.6,0.2,0.6,0.4c0.3,1.8,0.7,3.6,1.2,5.3c0.1,0.3,0,0.6-0.3,0.7c0,0,0,0,0,0
		C12.9,145.1,12.8,145.1,12.8,145.1L12.8,145.1z M11.2,134.1L11.2,134.1c-0.3,0-0.5-0.3-0.5-0.5c0,0,0,0,0,0
		c0.1-1.9,0.3-3.8,0.7-5.6c0-0.3,0.2-0.6,0.5-0.6c0.3,0,0.6,0.2,0.6,0.5c0,0.1,0,0.2-0.1,0.3c-0.4,1.8-0.6,3.6-0.6,5.4
		C11.7,133.8,11.5,134.1,11.2,134.1L11.2,134.1z M13.4,123.2c-0.1,0-0.1,0-0.2,0c-0.3-0.1-0.4-0.4-0.3-0.7c0.7-1.7,1.6-3.4,2.6-5
		c0.2-0.2,0.5-0.3,0.7-0.2c0.3,0.2,0.3,0.5,0.2,0.7c0,0,0,0,0,0c-0.9,1.5-1.7,3.2-2.4,4.8C13.9,123.2,13.7,123.3,13.4,123.2
		L13.4,123.2z M70.9,120.9c-0.2,0-0.4-0.1-0.5-0.3c-0.8-1.6-1.8-3.2-2.9-4.7c-0.2-0.2-0.2-0.6,0-0.8c0.2-0.2,0.6-0.2,0.8,0
		c0,0,0.1,0.1,0.1,0.1c1.1,1.5,2.1,3.1,3,4.8c0.1,0.3,0,0.6-0.2,0.7C71.1,120.9,71,120.9,70.9,120.9z M19.4,113.9
		c-0.1,0-0.3,0-0.4-0.1c-0.2-0.2-0.2-0.5,0-0.8c1.3-1.4,2.6-2.7,4.1-3.8c0.3-0.1,0.6-0.1,0.7,0.2c0.1,0.2,0.1,0.5-0.1,0.6
		c-1.4,1.1-2.8,2.4-4,3.7C19.7,113.9,19.5,113.9,19.4,113.9L19.4,113.9z M64.2,112.1c-0.1,0-0.3-0.1-0.4-0.2
		c-1.3-1.2-2.8-2.4-4.3-3.4c-0.3-0.2-0.3-0.5-0.2-0.7c0,0,0,0,0,0c0.2-0.2,0.5-0.3,0.8-0.2c1.6,1,3.1,2.2,4.4,3.5
		c0.2,0.2,0.2,0.6,0,0.8c0,0,0,0,0,0C64.5,112,64.4,112,64.2,112.1L64.2,112.1z M28.1,107.2c-0.2,0-0.4-0.1-0.5-0.3
		c-0.1-0.3,0-0.6,0.2-0.7c1.7-0.9,3.4-1.6,5.2-2.2c0.3,0,0.6,0.2,0.6,0.5c0,0.2-0.1,0.4-0.3,0.5c-1.7,0.5-3.4,1.3-5,2.1
		C28.3,107.1,28.2,107.1,28.1,107.2L28.1,107.2z M55,106.1c-0.1,0-0.1,0-0.2,0c-1.7-0.7-3.4-1.3-5.2-1.7c-0.3-0.1-0.5-0.3-0.4-0.6
		c0,0,0,0,0,0c0.1-0.3,0.3-0.5,0.6-0.4c1.8,0.4,3.6,0.9,5.4,1.6c0.3,0.1,0.4,0.5,0.2,0.7c-0.1,0.2-0.3,0.3-0.4,0.3L55,106.1z
		 M38.6,103.8c-0.3,0-0.5-0.3-0.5-0.6c0-0.2,0.2-0.5,0.4-0.5c1.9-0.2,3.8-0.3,5.7-0.2c0.3,0,0.5,0.3,0.5,0.6c0,0.3-0.3,0.5-0.5,0.5
		c0,0,0,0,0,0C42.4,103.5,40.5,103.6,38.6,103.8L38.6,103.8z"/>
	<path class="st2" d="M73.6,128.7c-0.3,0-0.5-0.2-0.5-0.4c-0.2-0.9-0.4-1.7-0.6-2.6c-0.1-0.3,0.1-0.6,0.3-0.7c0,0,0,0,0,0
		c0.3-0.1,0.6,0.1,0.7,0.4c0,0,0,0,0,0c0.2,0.9,0.5,1.8,0.7,2.7c0.1,0.3-0.1,0.6-0.4,0.6c0,0,0,0,0,0L73.6,128.7z"/>
	<path class="st6" d="M62.2,137.7v-4l-3.1-0.3c-0.2-1.1-0.5-2.3-0.9-3.3l2.5-1.8l-2-3.5l-2.8,1.3c-0.7-0.9-1.5-1.7-2.4-2.4l1.3-2.8
		l-3.5-2l-1.8,2.5c-1.1-0.4-2.2-0.7-3.3-0.9l-0.3-3.1h-4l-0.3,3.1c-1.1,0.2-2.3,0.5-3.3,0.9l-1.8-2.5l-3.5,2l1.3,2.8
		c-0.9,0.7-1.7,1.6-2.4,2.4l-2.8-1.3l-2,3.5l2.5,1.8c-0.4,1.1-0.7,2.2-0.9,3.3l-3.1,0.3v4l3.1,0.3c0.2,1.1,0.5,2.3,0.9,3.3l-2.5,1.9
		l2,3.5l2.9-1.3c0.7,0.9,1.5,1.7,2.4,2.4l-1.3,2.9l3.5,2l1.8-2.5c1.1,0.4,2.2,0.7,3.3,0.9l0.3,3.1h4l0.3-3.1
		c1.1-0.2,2.3-0.5,3.3-0.9l1.8,2.5l3.5-2l-1.3-2.9c0.9-0.7,1.7-1.5,2.5-2.4l2.8,1.3l2-3.5l-2.5-1.8c0.4-1.1,0.7-2.2,0.9-3.3
		L62.2,137.7z M43.8,144.9c-5.1,0-9.2-4.1-9.2-9.2c0-5.1,4.1-9.2,9.2-9.2s9.2,4.1,9.2,9.2c0,0,0,0,0,0
		C53,140.7,48.9,144.9,43.8,144.9C43.8,144.9,43.8,144.9,43.8,144.9z"/>
	<path class="st7" d="M44.7,153.6h-4c-0.3,0-0.5-0.2-0.5-0.5l-0.3-2.7c-0.9-0.2-1.8-0.4-2.6-0.7l-1.6,2.2c-0.2,0.2-0.5,0.3-0.7,0.1
		l-3.5-2c-0.2-0.1-0.3-0.4-0.2-0.7l1.1-2.5c-0.7-0.6-1.3-1.2-1.9-1.9l-2.5,1.1c-0.2,0.1-0.5,0-0.7-0.2l-2-3.5
		c-0.1-0.2-0.1-0.6,0.1-0.7l2.2-1.6c-0.3-0.9-0.5-1.7-0.7-2.6l-2.7-0.3c-0.3,0-0.5-0.3-0.5-0.5v-4c0-0.3,0.2-0.5,0.5-0.5l2.7-0.3
		c0.2-0.9,0.4-1.8,0.7-2.6l-2.2-1.6c-0.2-0.2-0.3-0.5-0.1-0.7l2-3.5c0.1-0.2,0.4-0.3,0.7-0.2l2.5,1.1c0.6-0.7,1.2-1.3,1.9-1.9
		l-1.1-2.5c-0.1-0.3,0-0.5,0.2-0.7l3.5-2c0.2-0.1,0.5-0.1,0.7,0.2l1.6,2.2c0.9-0.3,1.7-0.5,2.6-0.7l0.3-2.7c0-0.3,0.3-0.5,0.5-0.5h4
		c0.3,0,0.5,0.2,0.5,0.5l0.3,2.7c0.9,0.2,1.8,0.4,2.6,0.7l1.6-2.2c0.2-0.2,0.5-0.3,0.7-0.2l3.5,2c0.2,0.1,0.3,0.4,0.2,0.7l-1.1,2.5
		c0.7,0.6,1.4,1.2,2,1.9l2.5-1.1c0.2-0.1,0.5,0,0.7,0.2l2,3.5c0.1,0.2,0.1,0.5-0.2,0.7l-2.2,1.6c0.3,0.9,0.5,1.7,0.7,2.6l2.7,0.3
		c0.3,0,0.5,0.3,0.5,0.5v4c0,0.3-0.2,0.5-0.5,0.5l-2.7,0.3c-0.2,0.9-0.4,1.8-0.7,2.6l2.2,1.6c0.2,0.2,0.3,0.5,0.2,0.7l-2,3.5
		c-0.1,0.2-0.4,0.3-0.7,0.2l-2.5-1.1c-0.6,0.7-1.3,1.3-2,1.9l1.1,2.5c0.1,0.3,0,0.5-0.2,0.7l-3.5,2c-0.2,0.1-0.5,0.1-0.7-0.1
		l-1.6-2.2c-0.9,0.3-1.7,0.5-2.6,0.7l-0.3,2.7C45.2,153.4,45,153.6,44.7,153.6z M41.2,152.5h3l0.3-2.6c0-0.2,0.2-0.4,0.5-0.5
		c1.1-0.2,2.2-0.5,3.2-0.9c0.2-0.1,0.5,0,0.6,0.2l1.5,2.1l2.6-1.5l-1-2.4c-0.1-0.2,0-0.5,0.2-0.6c0.9-0.7,1.7-1.5,2.4-2.4
		c0.2-0.2,0.4-0.3,0.6-0.2l2.4,1.1l1.5-2.6l-2.1-1.5c-0.2-0.1-0.3-0.4-0.2-0.6c0.4-1,0.7-2.1,0.9-3.2c0-0.2,0.2-0.4,0.5-0.5l2.6-0.3
		v-3l-2.6-0.3c-0.2,0-0.4-0.2-0.5-0.4c-0.2-1.1-0.4-2.2-0.9-3.2c-0.1-0.2,0-0.5,0.2-0.6l2.1-1.6l-1.5-2.6l-2.4,1.1
		c-0.2,0.1-0.5,0-0.6-0.2c-0.7-0.9-1.5-1.7-2.4-2.4c-0.2-0.2-0.3-0.4-0.2-0.6l1.1-2.4l-2.6-1.5l-1.5,2.1c-0.1,0.2-0.4,0.3-0.6,0.2
		c-1-0.4-2.1-0.7-3.2-0.9c-0.2,0-0.4-0.2-0.5-0.5l-0.3-2.6h-3l-0.3,2.6c0,0.2-0.2,0.4-0.5,0.5c-1.1,0.2-2.2,0.5-3.2,0.9
		c-0.2,0.1-0.5,0-0.6-0.2l-1.5-2.1l-2.6,1.5l1.1,2.4c0.1,0.2,0,0.5-0.2,0.6c-0.9,0.7-1.7,1.5-2.4,2.4c-0.2,0.2-0.4,0.3-0.6,0.2
		l-2.4-1.1l-1.6,2.6l2.1,1.6c0.2,0.1,0.3,0.4,0.2,0.6c-0.4,1-0.7,2.1-0.9,3.2c0,0.2-0.2,0.4-0.5,0.4l-2.6,0.3v3l2.6,0.3
		c0.2,0,0.4,0.2,0.5,0.5c0.2,1.1,0.4,2.2,0.9,3.2c0.1,0.2,0,0.5-0.2,0.6l-2.1,1.5l1.6,2.7l2.4-1.1c0.2-0.1,0.5,0,0.6,0.2
		c0.7,0.9,1.5,1.7,2.4,2.4c0.2,0.2,0.3,0.4,0.2,0.6l-1.1,2.4l2.6,1.5l1.5-2.1c0.1-0.2,0.4-0.3,0.6-0.2c1,0.4,2.1,0.7,3.2,0.9
		c0.2,0,0.4,0.2,0.5,0.5L41.2,152.5z M42.7,144.3c-5.4,0-9.7-4.3-9.8-9.7c0-5.4,4.3-9.7,9.7-9.8s9.7,4.3,9.8,9.7c0,0,0,0,0,0
		C52.4,139.9,48.1,144.3,42.7,144.3L42.7,144.3z M42.7,125.9c-4.8,0-8.7,3.9-8.7,8.6c0,4.8,3.9,8.7,8.6,8.7c4.8,0,8.7-3.9,8.7-8.6
		c0,0,0,0,0,0C51.3,129.8,47.5,126,42.7,125.9L42.7,125.9z"/>
	<path class="st1" d="M75.6,126.3l-1.6,4.7l-3.2-3.8L75.6,126.3z"/>
	<path class="st1" d="M76.5,131l-1.6,4.7l-3.3-3.8L76.5,131z"/>
	<path class="st2" d="M225.1,235.8c-0.2,0-0.3-0.1-0.4-0.2c-0.2-0.2-0.2-0.6,0-0.9l1.7-1.7c0.2-0.3,0.6-0.3,0.9-0.1
		c0.3,0.2,0.3,0.6,0.1,0.9c0,0-0.1,0.1-0.1,0.1l-1.6,1.7C225.4,235.7,225.3,235.8,225.1,235.8z"/>
	<path class="st2" d="M222.8,235.8c-0.2,0-0.3-0.1-0.4-0.2l-1.7-1.7c-0.2-0.3-0.2-0.7,0.1-0.9c0.2-0.2,0.5-0.2,0.8,0l1.7,1.7
		c0.2,0.2,0.2,0.6,0,0.9C223.1,235.7,222.9,235.8,222.8,235.8z"/>
	<path class="st2" d="M221.1,239.8c-0.2,0-0.3-0.1-0.4-0.2c-0.2-0.2-0.2-0.6,0-0.9l1.7-1.7c0.3-0.2,0.7-0.2,0.9,0.1
		c0.2,0.2,0.2,0.6,0,0.8l-1.7,1.7C221.4,239.7,221.3,239.8,221.1,239.8z"/>
	<path class="st2" d="M226.8,239.8c-0.2,0-0.3-0.1-0.4-0.2l-1.7-1.7c-0.2-0.2-0.2-0.6,0-0.9c0.2-0.2,0.6-0.2,0.9,0l1.7,1.7
		c0.2,0.2,0.3,0.6,0,0.9c0,0,0,0,0,0C227.1,239.7,226.9,239.8,226.8,239.8z"/>
	<path class="st7" d="M56.4,61.4c-0.2,0-0.4-0.1-0.6-0.2c-0.3-0.3-0.3-0.8,0-1.2c0,0,0,0,0,0l2.2-2.2c0.3-0.3,0.8-0.3,1.2,0
		s0.3,0.8,0,1.2L57,61.2C56.9,61.3,56.7,61.4,56.4,61.4z"/>
	<path class="st7" d="M53.3,61.5c-0.2,0-0.4-0.1-0.6-0.2l-2.2-2.3c-0.3-0.3-0.3-0.9,0.1-1.2c0.3-0.3,0.8-0.3,1.1,0l2.2,2.2
		c0.3,0.3,0.3,0.8,0,1.2C53.7,61.4,53.5,61.5,53.3,61.5z"/>
	<path class="st7" d="M51.1,66.8c-0.2,0-0.4-0.1-0.6-0.2c-0.3-0.3-0.3-0.8,0-1.2l2.2-2.2c0.3-0.3,0.8-0.3,1.2,0
		c0.3,0.3,0.3,0.8,0,1.2l-2.2,2.2C51.5,66.7,51.3,66.8,51.1,66.8z"/>
	<path class="st7" d="M58.7,66.8c-0.2,0-0.4-0.1-0.6-0.2l-2.2-2.2c-0.3-0.3-0.3-0.8,0-1.2c0.3-0.3,0.8-0.3,1.2,0l2.2,2.2
		c0.3,0.3,0.3,0.8,0,1.2C59.1,66.7,58.9,66.8,58.7,66.8z"/>
	<path class="st8" d="M278.6,186.8h-48.3c-2.2,0-4-1.8-4-4v-28.9c0-2.2,1.7-4,3.9-4c0,0,0,0,0.1,0h48.3c2.2,0,4,1.8,4,4
		c0,0,0,0,0,0.1v28.9C282.6,185,280.8,186.8,278.6,186.8L278.6,186.8z"/>
	<path class="st4" d="M276,184.1h-48.3c-2.2,0-4-1.8-4-4c0,0,0,0,0-0.1v-28.9c0-2.2,1.8-4,4-4H276c2.2,0,4,1.8,4,4v28.9
		C280,182.3,278.2,184.1,276,184.1C276,184.1,276,184.1,276,184.1z"/>
	<path class="st1" d="M276,181.4h-48.3c-2.2,0-4-1.8-4-4c0,0,0,0,0-0.1v2.7c0,2.2,1.7,4,3.9,4c0,0,0,0,0.1,0H276c2.2,0,4-1.8,4-4
		c0,0,0,0,0-0.1v-2.7C280,179.6,278.2,181.4,276,181.4C276,181.4,276,181.4,276,181.4z"/>
	<path class="st5" d="M276,184.8h-48.3c-2.6,0-4.7-2.1-4.7-4.7v-28.9c0-2.6,2.1-4.7,4.7-4.7H276c2.6,0,4.7,2.1,4.7,4.7v28.9
		C280.6,182.7,278.5,184.8,276,184.8z M227.7,147.8c-1.9,0-3.4,1.5-3.4,3.4V180c0,1.9,1.5,3.4,3.4,3.4H276c1.9,0,3.4-1.5,3.4-3.4
		v-28.8c0-1.9-1.5-3.4-3.4-3.4L227.7,147.8z"/>
	<path class="st6" d="M279.3,166.2h-55.7c-0.4,0-0.6-0.4-0.6-0.8c0-0.3,0.3-0.6,0.6-0.6h55.7c0.4,0,0.7,0.3,0.7,0.7
		C280,165.9,279.7,166.2,279.3,166.2L279.3,166.2z"/>
	<path class="st6" d="M238,175.6h-7.6c-0.4,0-0.7-0.3-0.7-0.7c0-0.4,0.3-0.7,0.7-0.7h7.6c0.4,0,0.7,0.3,0.7,0.7
		C238.7,175.3,238.4,175.6,238,175.6z"/>
	<path class="st6" d="M249.1,175.6h-7.6c-0.4,0-0.7-0.3-0.7-0.7c0,0,0,0,0,0c0-0.4,0.3-0.7,0.7-0.7h7.6c0.4,0,0.7,0.3,0.7,0.7
		C249.8,175.3,249.5,175.6,249.1,175.6C249.2,175.6,249.1,175.6,249.1,175.6z"/>
	<path class="st6" d="M260.3,175.6h-7.6c-0.4,0-0.7-0.3-0.7-0.6c0,0,0,0,0-0.1c0-0.4,0.3-0.7,0.7-0.7h7.6c0.4,0,0.7,0.3,0.7,0.7
		c0,0,0,0,0,0C260.9,175.3,260.7,175.6,260.3,175.6C260.3,175.6,260.3,175.6,260.3,175.6z"/>
	<path class="st6" d="M271.4,175.6h-7.5c-0.4,0-0.7-0.3-0.7-0.7c0,0,0,0,0,0c0-0.4,0.3-0.7,0.7-0.7h7.5c0.4,0,0.7,0.3,0.7,0.7
		C272.1,175.3,271.8,175.6,271.4,175.6C271.4,175.6,271.4,175.6,271.4,175.6z"/>
	<path class="st1" d="M245,67.7c8.7-8.6,8.7-22.6,0-31.3c-8.6-8.7-22.6-8.7-31.3,0s-8.7,22.6,0,31.3c0,0,0,0,0,0
		C222.4,76.3,236.4,76.3,245,67.7z"/>
	<path class="st6" d="M247.9,64.8c8.7-8.6,8.7-22.6,0-31.3s-22.6-8.7-31.3,0s-8.7,22.6,0,31.3c0,0,0,0,0,0
		C225.3,73.4,239.3,73.4,247.9,64.8z"/>
	<path class="st4" d="M232.3,28.4c11.9,0,21.7,9.5,22.1,21.4c0-0.2,0-0.5,0-0.7c0.3-12.2-9.4-22.3-21.6-22.6
		c-12.2-0.3-22.3,9.4-22.6,21.6c0,0.3,0,0.6,0,0.9c0,0.2,0,0.5,0,0.7C210.5,37.9,220.3,28.4,232.3,28.4z"/>
	<path class="st5" d="M232.3,72c-12.6,0-22.9-10.2-22.9-22.8c0-12.6,10.2-22.9,22.8-22.9c12.6,0,22.9,10.2,22.9,22.8c0,0,0,0,0,0.1
		C255.1,61.7,244.9,72,232.3,72z M232.3,27.7c-11.8,0-21.5,9.5-21.5,21.4s9.5,21.5,21.4,21.5c11.8,0,21.5-9.5,21.5-21.4
		c0,0,0-0.1,0-0.1C253.7,37.3,244.1,27.7,232.3,27.7z"/>
	<path class="st4" d="M218.7,46.1c-0.8,0-1.4-0.7-1.4-1.5c0-0.4,0.2-0.7,0.4-1c8-8.1,21.1-8.1,29.2,0c0,0,0,0,0,0
		c0.5,0.6,0.5,1.4,0,2c-0.5,0.6-1.4,0.6-2,0c0,0,0,0,0,0c-6.9-6.9-18.1-7-25.1-0.1c0,0-0.1,0.1-0.1,0.1
		C219.5,46,219.1,46.1,218.7,46.1z"/>
	<path class="st4" d="M222.1,49.5c-0.4,0-0.7-0.2-1-0.4c-0.5-0.6-0.5-1.4,0-2c6.2-6.2,16.2-6.2,22.3-0.1c0,0,0,0,0.1,0.1
		c0.6,0.5,0.8,1.4,0.3,2s-1.4,0.8-2,0.3c-0.1-0.1-0.2-0.2-0.3-0.3c-5.1-5.1-13.3-5.1-18.4,0C222.9,49.4,222.5,49.5,222.1,49.5z"/>
	<path class="st4" d="M225.5,52.9c-0.8,0-1.4-0.7-1.4-1.4c0-0.4,0.2-0.7,0.4-1c4.3-4.3,11.2-4.3,15.6-0.1c0,0,0,0,0.1,0.1
		c0.4,0.7,0.3,1.6-0.4,2c-0.5,0.3-1.1,0.3-1.6,0c-3.2-3.2-8.3-3.2-11.5,0c0,0,0,0,0,0C226.3,52.8,225.9,52.9,225.5,52.9z"/>
	<path class="st4" d="M232.3,61.3c2.2,0,3.9-1.7,3.9-3.9c0-2.2-1.7-3.9-3.9-3.9c-2.2,0-3.9,1.7-3.9,3.9c0,0,0,0,0,0
		C228.4,59.6,230.2,61.3,232.3,61.3C232.3,61.3,232.3,61.3,232.3,61.3z"/>
	<path class="st4" d="M106.4,102.4H86.7v7.5h19.7L106.4,102.4z"/>
	<path class="st4" d="M106.4,188.8H86.7v7.5h19.7L106.4,188.8z"/>
	<path class="st4" d="M102.8,110.1H90.3v78.6h12.5L102.8,110.1z"/>
	<path class="st4" d="M141,102.4h-19.7v7.5H141V102.4z"/>
	<path class="st4" d="M141,188.8h-19.7v7.5H141V188.8z"/>
	<path class="st4" d="M137.4,110.1h-12.5v78.6h12.5V110.1z"/>
	<path class="st4" d="M175.5,102.4h-19.7v7.5h19.7V102.4z"/>
	<path class="st4" d="M175.5,188.8h-19.7v7.5h19.7V188.8z"/>
	<path class="st4" d="M171.9,110.1h-12.5v78.6h12.5V110.1z"/>
	<path class="st4" d="M210.1,102.4h-19.7v7.5h19.7V102.4z"/>
	<path class="st4" d="M210.1,188.8h-19.7v7.5h19.7V188.8z"/>
	<path class="st4" d="M206.5,110.1H194v78.6h12.5L206.5,110.1z"/>
	<path class="st9" d="M107,110.5H86.1v-8.7H107V110.5z M87.4,109.3h18.4v-6.2H87.4V109.3z"/>
	<path class="st9" d="M107,196.9H86.1v-8.7H107V196.9z M87.4,195.6h18.4v-6.2H87.4V195.6z"/>
	<path class="st9" d="M103.4,189.4H89.7v-79.9h13.7V189.4z M90.9,188.1h11.3v-77.4H90.9V188.1z"/>
	<path class="st9" d="M141.6,110.5h-20.9v-8.7h20.9V110.5z M121.9,109.3h18.4v-6.2h-18.4L121.9,109.3z"/>
	<path class="st9" d="M141.6,196.9h-20.9v-8.7h20.9V196.9z M121.9,195.6h18.4v-6.2h-18.4L121.9,195.6z"/>
	<path class="st9" d="M138,189.4h-13.8v-79.9H138V189.4z M125.5,188.1h11.3v-77.4h-11.3L125.5,188.1z"/>
	<path class="st9" d="M176.1,110.5h-20.9v-8.7h20.9V110.5z M156.5,109.3h18.4v-6.2h-18.4V109.3z"/>
	<path class="st9" d="M176.1,196.9h-20.9v-8.7h20.9V196.9z M156.5,195.6h18.4v-6.2h-18.4V195.6z"/>
	<path class="st9" d="M172.6,189.4h-13.7v-79.9h13.7V189.4z M160,188.1h11.3v-77.4H160V188.1z"/>
	<path class="st9" d="M210.7,110.5h-20.9v-8.7h20.9L210.7,110.5z M191,109.3h18.4v-6.2H191V109.3z"/>
	<path class="st9" d="M210.7,196.9h-20.9v-8.7h20.9L210.7,196.9z M191,195.6h18.4v-6.2H191V195.6z"/>
	<path class="st9" d="M207.1,189.4h-13.7v-79.9h13.7V189.4z M194.6,188.1h11.3v-77.4h-11.3L194.6,188.1z"/>
	<path class="st4" d="M211.3,80.3l-62.1-36.4L85.6,80.3"/>
	<path class="st4" d="M225.7,206.7H71.2v11.7h154.5V206.7z"/>
	<path class="st4" d="M219.9,196.4H77v10.2h142.9V196.4z"/>
	<path class="st4" d="M219.9,92H77v10.2h142.9V92z"/>
	<path class="st4" d="M225.7,80.3H71.2V92h154.5V80.3z"/>
	<path class="st6" d="M204.6,80.3l-55.4-32.6L92.3,80.3"/>
	<path class="st4" d="M101.5,80.6l-0.3-0.5L149,52.7l0.2,0.1l46.4,27.3l-0.3,0.5L149,53.4L101.5,80.6z"/>
	<path class="st6" d="M219.9,199.1H77v7.6h142.9V199.1z"/>
	<path class="st5" d="M226.3,92.6H70.5V79.7h155.7V92.6z M71.8,91.4H225V80.9H71.8V91.4z"/>
	<path class="st5" d="M85.9,80.9l-0.6-1.1l63.9-36.6l0.3,0.2l62.1,36.4l-0.6,1.1l-61.8-36.3L85.9,80.9z"/>
	<path class="st5" d="M220.5,102.8H76.3V91.4h144.2L220.5,102.8L220.5,102.8z M77.6,101.6h141.7v-9H77.6V101.6z"/>
	<path class="st5" d="M226.3,218.9H70.5v-12.9h155.7V218.9z M71.8,217.7H225v-10.4H71.8V217.7z"/>
	<path class="st5" d="M220.5,207.3H76.3v-11.5h144.2L220.5,207.3L220.5,207.3z M77.6,206.1h141.7v-9H77.6V206.1z"/>
	<path class="st1" d="M167.2,161.4c7-9.3,5.1-22.4-4.2-29.4c-9.3-7-22.4-5.1-29.4,4.2c-7,9.3-5.1,22.4,4.2,29.4c0,0,0.1,0.1,0.1,0.1
		C147.2,172.6,160.3,170.7,167.2,161.4z"/>
	<path class="st6" d="M164,158.2c6.9-9.3,5.1-22.4-4.2-29.4c-9.3-6.9-22.4-5.1-29.4,4.2c-6.9,9.3-5.1,22.4,4.2,29.4
		c0,0,0.1,0.1,0.1,0.1C144,169.4,157.1,167.5,164,158.2z"/>
	<path class="st10" d="M147.2,126.3c11.3,0,20.5,8.9,20.9,20.2c0-0.3,0-0.5,0-0.8c0.3-11.6-8.9-21.1-20.5-21.4
		c-11.6-0.3-21.1,8.9-21.4,20.5c0,0.3,0,0.6,0,0.9c0,0.3,0,0.5,0,0.8C126.7,135.2,135.9,126.3,147.2,126.3z"/>
	<path class="st5" d="M147.2,167.5c-12,0-21.8-9.7-21.9-21.7c0-12,9.7-21.8,21.7-21.9c12,0,21.8,9.7,21.9,21.7c0,0,0,0,0,0.1
		C169,157.7,159.2,167.5,147.2,167.5z M147.2,125.5c-11.2,0-20.2,9-20.2,20.1c0,11.2,9,20.2,20.1,20.2c11.2,0,20.2-9,20.2-20.1
		c0,0,0,0,0-0.1C167.3,134.6,158.3,125.5,147.2,125.5L147.2,125.5z"/>
	<path class="st4" d="M158.8,139.9c0,0.7-0.3,1.4-0.8,1.9l-11.8,11.5c-0.5,0.5-1.3,0.8-2,0.8c-0.7,0-1.5-0.3-2-0.8l-5.9-5.7
		c-0.5-0.5-0.8-1.2-0.8-1.9c0-0.7,0.3-1.4,0.8-1.9c0.5-0.5,1.3-0.8,2-0.8c0.7,0,1.4,0.3,1.9,0.8l3.9,3.8l9.9-9.5
		c0.5-0.5,1.2-0.8,1.9-0.8c0.7,0,1.5,0.3,2,0.8C158.5,138.6,158.8,139.2,158.8,139.9z"/>
	<path class="st11" d="M234.2,159.5c1.7,0,3.2-1.4,3.2-3.2c0-1.7-1.4-3.2-3.2-3.2c-1.7,0-3.2,1.4-3.2,3.2
		C231,158.1,232.4,159.5,234.2,159.5C234.2,159.5,234.2,159.5,234.2,159.5z M234.2,161.6c2.9,0,5.3-2.4,5.3-5.3
		c0-2.9-2.4-5.3-5.3-5.3c-2.9,0-5.3,2.4-5.3,5.3S231.3,161.6,234.2,161.6C234.2,161.6,234.2,161.6,234.2,161.6z"/>
	<path class="st11" d="M243.7,159.5c1.7,0,3.2-1.4,3.1-3.2c0-1.7-1.4-3.2-3.2-3.1c-1.7,0-3.1,1.4-3.2,3.2
		C240.5,158.1,241.9,159.5,243.7,159.5C243.7,159.5,243.7,159.5,243.7,159.5z M243.7,161.6c2.9,0,5.3-2.4,5.3-5.3
		c0-2.9-2.4-5.3-5.3-5.3c-2.9,0-5.3,2.4-5.3,5.3S240.8,161.6,243.7,161.6C243.7,161.6,243.7,161.6,243.7,161.6z"/>
</g>
</svg>
