<?xml version="1.0" encoding="utf-8"?>
<!-- Generator: Adobe Illustrator 25.2.0, SVG Export Plug-In . SVG Version: 6.00 Build 0)  -->
<svg version="1.1" id="Layer_1" xmlns="http://www.w3.org/2000/svg" xmlns:xlink="http://www.w3.org/1999/xlink" x="0px" y="0px"
	 viewBox="0 0 299.2 163.4" style="enable-background:new 0 0 299.2 163.4;" xml:space="preserve">
<style type="text/css">
	.st0{opacity:0.25;fill:#C6B6FF;enable-background:new    ;}
	.st1{fill:#9B8DE2;}
	.st2{fill:#7C4DFF;}
	.st3{fill:#6D89D0;}
	.st4{fill:#2C3A64;}
	.st5{fill:#6C64BC;}
	.st6{fill:#FC9490;}
	.st7{fill:#932722;}
	.st8{fill:#2A3C87;}
	.st9{fill:#293EB7;}
	.st10{fill:#FF8585;}
	.st11{fill:#FFFFFF;}
	.st12{fill:#163560;}
	.st13{fill:#97BADD;}
	.st14{fill:#D9E9FE;}
	.st15{fill:#C6B6FF;}
	.st16{fill:#B0B0F7;}
	.st17{fill:#364B7F;}
	.st18{fill:#2E3552;}
	.st19{opacity:0.15;fill:#C94439;enable-background:new    ;}
	.st20{fill:#70C6B5;}
	.st21{fill:#E94235;}
	.st22{fill:#666666;}
	.st23{fill:#0E1B68;}
	.st24{fill:#E5E6E6;}
	.st25{opacity:0.5;fill:#666666;enable-background:new    ;}
	.st26{opacity:0.4;fill:#3559FA;enable-background:new    ;}
	.st27{fill:#F8ECEA;}
	.st28{opacity:0.1;}
	.st29{opacity:0.1;fill:#D67576;enable-background:new    ;}
	.st30{opacity:0.4;fill:#666666;enable-background:new    ;}
	.st31{fill:#CAF3ED;}
	.st32{opacity:0.56;fill:#C94439;enable-background:new    ;}
	.st33{opacity:0.6;fill:#88A2FF;enable-background:new    ;}
	.st34{opacity:0.25;fill:#666666;enable-background:new    ;}
	.st35{fill:#1A2E35;}
	.st36{fill:#121F23;}
	.st37{fill:#F48484;}
</style>
<path class="st0" d="M31.2,155.3c0,0-33-35.8-5.6-74.5c24.4-34.4,52.7-32,73.6-18.1c8.9,6,34.5,0.7,56.2-34.2
	C185.1-19.2,288,9.7,269.2,83.1c-9.1,35.5,27.6,36.8,8.9,72.3L31.2,155.3z"/>
<path class="st1" d="M177.9,136.8c0,0-6.3-7.3-0.4-12c0,0,4.3-2.6,7.8-2.4c0,0-5,8.3-3.4,9.2s4.9-9.7,4.9-9.7s9.8-0.9,13,0.6
	c0,0-8.4,6.9-6.6,7.3s10.8-6.3,10.8-6.3s9.1,1.6,8.6,7.1c-0.5,5.6-3.6,7.3-5,7.1s-9.5-3.2-9.6-2.1s4.7,4.8,8.1,5c0,0-6.4,7.1-10.7,5
	s-4.6-5.3-7.3-6.5s-4.9-1.2-3.8,0s5.9,2.4,7.4,5.1s2.9,4.5-1.5,3.9s-11.6-3.9-11.9-7.6L177.9,136.8z"/>
<path class="st2" d="M208.1,130.7c0,0-24.8-0.9-30.3,6.1c-1.1,2.7-2.8,5.1-4.9,6.9l-0.6,1.6c0,0,4.3-4.5,5.8-4.8
	C178.2,140.5,175.8,131.7,208.1,130.7z"/>
<path class="st3" d="M172.9,143.7c-3.3,2.7-5.4,6.7-5.7,11l1,0.1c0,0,1.7-7.3,4.8-10.1S172.9,143.7,172.9,143.7z"/>
<path class="st1" d="M113.1,76.9c0,0,9.6-5.4,5.1-12.7c0,0-3.6-4.5-7.4-5.6c0,0,2,10.9,0,11.2s-1.4-12.3-1.4-12.3
	s-10.1-4.9-14.1-4.5c0,0,6.3,10.7,4.2,10.4s-9.1-11-9.1-11s-10.3-2-12.1,4.2s1,9.2,2.6,9.6s11.4,0.3,11.2,1.5s-6.9,3.3-10.6,2.2
	c0,0,4.1,10.1,9.5,9.6s7.1-3.8,10.4-4.1s5.8,0.6,4.1,1.5s-7.3,0.3-10,2.6s-4.9,3.7,0.1,4.7s14,0.4,15.8-3.5L113.1,76.9z"/>
<path class="st2" d="M83,58.4c0,0,26.9,8.7,30,18.5c0.1,3.3,1,6.5,2.6,9.4v1.9c0,0-2.8-6.5-4.4-7.4C111.3,80.7,117.3,72.3,83,58.4z"
	/>
<path class="st3" d="M115.6,86.3c2.5,4.2,3.2,9.3,1.8,14l-1.1-0.3c0,0,1-8.4-1.1-12.7S115.6,86.3,115.6,86.3z"/>
<path class="st1" d="M171.8,119.8c0,0-13.2-7.4-7-17.4c0,0,4.9-6.2,10.2-7.7c0,0-2.8,14.9,0,15.3s1.9-16.9,1.9-16.9
	s13.9-6.7,19.4-6.1c0,0-8.6,14.6-5.8,14.2S203,86.1,203,86.1s14.2-2.6,16.5,5.8s-1.4,12.7-3.5,13.2s-15.6,0.3-15.3,2.1
	s9.5,4.6,14.6,3c0,0-5.6,13.9-13,13.2s-9.7-5.3-14.2-5.6s-7.9,0.9-5.6,2.1s10,0.4,13.7,3.5s6.7,5.1-0.2,6.5s-19.2,0.5-21.6-4.7
	L171.8,119.8z"/>
<path class="st2" d="M212.9,94.5c0,0-36.9,12-41.1,25.3c-0.1,4.5-1.3,8.9-3.5,12.8v2.6c0,0,3.9-9,6-10.2
	C174.2,125.1,166,113.5,212.9,94.5z"/>
<path class="st3" d="M168.3,132.7c-3.4,5.8-4.3,12.7-2.5,19.2l1.5-0.4c0,0-1.4-11.6,1.6-17.4S168.3,132.7,168.3,132.7z"/>
<path class="st4" d="M30.5,63.6c0,0-2.9,2.4,0.3,5.5c0,0-2.8,1-3.7,0.3c0.1,0.2,0.2,0.3,0.4,0.5c0,0-2.8,0.2-4.1-0.6
	S22.1,54,30.1,55.2c0,0,6.7-0.9,6.5,6.9s2.3,7.6,2.3,7.6c-0.3,0.2-0.6,0.3-1,0.4c0,0-0.5-0.2-0.6-0.4c0.1,0.2,0.1,0.4,0.3,0.6
	c0,0-2.7,0.4-4.1-0.5S30.1,65.3,30.5,63.6z"/>
<path class="st4" d="M30,67.6c-1.3-1.2-2.4-2.7-3.2-4.3c-0.7-1.5-3.9-7.6,2.1-8.2c0,0,4.3-0.2,6.2,0.5c1.5,0.5,3.8,1.9,3,7.5l0,1.8
	L30,67.6z"/>
<path class="st1" d="M23.1,110.8c-0.2-5.3-0.7-10.6-1.5-15.8c-1.1-6.2-2-9.7-2-9.8c-0.1-0.5-2.2-2.7-6.7-2.7s-4.1,3-4.1,3
	c0,0.1,0,0.2,0,0.2c2.8,11.3,4.1,23,4,34.6c0,0.3,0,0.7,0,1.1c0,0,10.5,0.3,10.5,0C23.6,119.7,23.5,115.1,23.1,110.8z"/>
<path class="st0" d="M24.4,120.3c0,0.3-0.1,0.5-0.3,0.5s-0.3-0.2-0.3-0.5h-9c0,0.3-0.1,0.5-0.3,0.5s-0.3-0.2-0.3-0.5
	c0-5.1-0.2-10.2-0.7-15.3c-0.6-6.5-1.8-12.9-3.4-19.2c0-0.1,0-0.2,0-0.3c0,0-0.4-2.9,4.1-3s6.6,2.1,6.7,2.7c0,0,0.6,2,1.3,5.7
	c0.2,1.2,0.5,2.6,0.8,4.1c0.8,5.2,1.3,10.5,1.5,15.8C24.6,115.1,24.8,118.6,24.4,120.3z"/>
<path class="st5" d="M13.5,120.8h35.2c0,0-0.8-3.3-21.2-2.8C13.1,118.3,13.5,120.8,13.5,120.8z"/>
<path class="st0" d="M10.6,155.4c4.1-20.7,3-33.3,3-33.5c0-0.3,0.6-0.6,0.9-0.6s1.7-0.1,1.9,0.2s1,16-5,33.9L10.6,155.4z"/>
<path class="st0" d="M43.5,155.4c-4.1-20.7-3-33.3-3-33.5c0-0.3-0.6-0.6-0.9-0.6s-1.7-0.1-1.9,0.2s-1,16,5,33.9L43.5,155.4z"/>
<path class="st0" d="M50,155.4c-4.1-20.7-3-33.3-3-33.5c0-0.3-0.6-0.6-0.9-0.6s-1.7-0.1-1.9,0.2s-1,16,5,33.9L50,155.4z"/>
<path class="st0" d="M17.2,155.4c4.1-20.7,3-33.3,3-33.5c0-0.3,0.6-0.6,0.9-0.6s1.7-0.1,1.9,0.2s1,16-5,33.9L17.2,155.4z"/>
<path class="st1" d="M49.4,121.8H12.8l0,0V120l0,0h36.6l0,0V121.8L49.4,121.8z"/>
<path class="st6" d="M67.4,156.3c-1.3,0-3.9,0.3-5.1-1.1s-3.7-2.1-4-2.6c-0.1-0.8,0-1.6,0.3-2.3c0.6-0.9-0.4-2-0.4-2l3.4,0.2
	c0,0,1.6,2.1,2.8,3.8c0.7,0.8,1.6,1.5,2.7,1.9c0.9,0.2,1.7,0.6,2.5,1C70.1,156,68.7,156.3,67.4,156.3z"/>
<path class="st7" d="M67.4,156.3c-1.3,0-3.9,0.3-5.1-1.1s-3.7-2.1-4-2.6c-0.2-0.8-0.1-1.6,0.3-2.3c1.3,0.6,2.4,1.4,3.3,2.5
	c1.2,1.7,4.4,2.4,5.1,1.4l0,0c0.9,0.2,1.7,0.5,2.5,1C70.1,156,68.7,156.3,67.4,156.3z"/>
<path class="st7" d="M58.3,152.7l1.3,2.8l0.8,0.1l-0.1-2.4L58.3,152.7z"/>
<path class="st8" d="M33,103.8c0,0,18.8,5.8,22.8,9.2s6.8,36.6,6.8,36.6c-0.5,0.2-1,0.3-1.5,0.3c-1-0.2-1.9-0.4-2.8-0.8
	c0,0-8.2-15.8-8.5-19.5s0.4-7-1.3-7.3S26.4,121.8,24,116c-1.4-3.6-1-7.5,0.9-10.8L33,103.8z"/>
<path class="st6" d="M63,156.3c-1.3,0-3.9,0.3-5.1-1.1s-3.7-2.1-4-2.6c-0.1-0.8,0-1.6,0.3-2.3c0.6-0.9-0.4-2-0.4-2l3.4,0.2
	c0,0,1.6,2.1,2.8,3.8c0.7,0.8,1.6,1.5,2.6,1.9c0.9,0.2,1.7,0.5,2.5,1C65.8,156,64.3,156.3,63,156.3z"/>
<path class="st4" d="M63,156.3c-1.3,0-3.9,0.3-5.1-1.1s-3.7-2.1-4-2.6c-0.2-0.8-0.1-1.6,0.3-2.3c1.3,0.6,2.4,1.4,3.3,2.5
	c1.2,1.7,4.4,2.4,5.1,1.4l0,0c0.9,0.2,1.7,0.5,2.5,1C65.8,156,64.3,156.3,63,156.3z"/>
<path class="st4" d="M53.9,152.7l1.3,2.8l0.9,0.1l-0.1-2.4L53.9,152.7z"/>
<path class="st9" d="M28.1,105.6c0,0,19.3,4.1,23.4,7.4s6.8,36.6,6.8,36.6c-0.5,0.2-1,0.3-1.5,0.3c-1-0.2-1.9-0.4-2.8-0.8
	c0,0-8.2-15.8-8.5-19.5s0.4-7-1.3-7.3S22,121.8,19.6,116c-1.4-3.6-1-7.5,0.9-10.8L28.1,105.6z"/>
<path class="st6" d="M35.3,74.4c-1.2,0.7-2.6,0.9-4,0.7c-1.6-0.4-2.7-2.5-2.6-2.5c0.7-0.1,0.9-1.1,0.9-5.1l0.3,0.1l5.2,1
	c0,0,0,1.7,0,3.2C35,73.1,35,74.3,35.3,74.4z"/>
<path class="st10" d="M35.1,68.6c0,0-0.1,1.6-0.1,3.2c-2.9-0.1-4.4-2.7-5.1-4.2L35.1,68.6z"/>
<path class="st6" d="M36.1,70.1c0,0-6.9,0.1-6.9-4.2s-0.9-7.1,3.5-7.4s5.2,1.4,5.6,2.8S37.8,69.9,36.1,70.1z"/>
<path class="st11" d="M20.1,92.8c-0.7-2.8,1.6-8.3,4-12.9c2.2-4.1,4.4-7.5,4.6-7.3c5.7,3.4,6.3,0.6,6.3,0.6s5.2,0.7,6.7,3.2
	c1.8,3.2,3.8,12,5.8,13.6c-0.3,0.8-0.2,1.7,0.1,2.6c0.1,0.2,0.1,0.5,0.2,0.7c0.3,0.7,0.6,1.4,1,2c-1,0.6-2.9,1.8-4.4,0.9
	c-2.2-1.3-3.9-5.1-4.8-6.7l0,0c-2.1,11.7,0.7,14.4-0.7,15.6s-3.7-0.6-8.4,1.4c-3.1,1.3-7.4,3.3-10.3,3.6c-1.5,0.2-2.7-0.1-3-1.1
	C16.2,106.2,21.4,98.2,20.1,92.8z"/>
<path class="st11" d="M34.5,67.5c0,0,0.1,0.6,1.5,0.5c0,0,1.1-0.1,1.1-0.7C36.3,67,35.4,67.1,34.5,67.5z"/>
<path class="st11" d="M16.3,97c1.1-1.6,2.5-2.9,4.2-3.9C20.3,92.5,27,84.3,27,83s1.8-10.4,1.8-10.4s-5.6,0.3-7.5,3
	C18.8,79,13.8,92,16.3,97z"/>
<path class="st6" d="M20.5,93.1l11.2,2.9l-1,1.9c0,0-13.7-0.1-14.4-0.9S20.5,93.1,20.5,93.1z"/>
<path class="st12" d="M39.7,89.6c1,1.5,2.6,5.4,4.8,6.7c1.4,0.8,3.4-0.3,4.4-0.9c-0.4-0.6-0.7-1.3-1-2c-0.8,0.2-1.8,0.4-2.4,0.6
	C44.3,94.3,39.7,89.6,39.7,89.6z"/>
<path class="st4" d="M38.6,88.1l-6,13.2l14.2,1.3l5.6-13.4L38.6,88.1z"/>
<path class="st2" d="M52.3,89.2l6.6-4.2l-6.6,14.4l-5.6,3.2L52.3,89.2z"/>
<path class="st6" d="M31.7,96.1c0.9-0.4,1.8-0.8,2.6-1.4c0.3-0.3,0.3,0.1,0.3,0.2c-0.1,0.5-0.4,0.9-0.8,1.1
	C33.1,96.3,32.3,96.3,31.7,96.1z"/>
<path class="st4" d="M35.4,57c0,0-2.2,6.1-5.3,7.1c-3.1,1-4.1-0.3-4.1-0.3c1.5-1.5,2.4-3.4,2.6-5.5C28.6,58.4,33.7,54.5,35.4,57z"/>
<path class="st4" d="M34.9,57.5c0.9,0.6,1.6,1.4,2.1,2.3c0.4,1.2,0.7,3.6,1.5,3.5c0,0,1.4-3.8-0.5-5.9S34.9,57.5,34.9,57.5z"/>
<path class="st9" d="M35.2,57.7c0,0-1.2,5.9-5.1,8c0,0,3.8-3.8,3.9-7.6S35.2,57.7,35.2,57.7z"/>
<path class="st4" d="M23.4,69.4c1.2,0.8,4.1,0.6,4.1,0.6c-0.1-0.1-0.3-0.3-0.4-0.5c1.7,0.8,5-0.8,5-0.8c-2.9,0-2.9-4.2-2-4.6
	c-0.1-3,0-6,0.3-9h-0.2C22.1,54,22.2,68.6,23.4,69.4z"/>
<path class="st6" d="M31.7,96.1c1.5-0.3,2.9-0.5,4.4-0.5c1,0.3,1.9,0.6,2.7,1.1c0.1,0.2-0.5,0.2-1,0.1c-0.5-0.1-1.1-0.2-1.6-0.1
	c0.8,0.3,1.6,0.6,2.4,0.9c0,0,0,0.1,0,0.1c0,0,0,0,0,0c-0.3,0.1-0.6,0.1-0.9,0c-0.6-0.1-1.1-0.2-1.7-0.2l2.2,0.7c0,0,0,0,0,0.1
	c0,0.1-0.2,0.2-0.7,0.2s-1.7-0.4-1.7-0.4l1.1,0.8c-0.3,0.1-0.6,0.1-0.9-0.1c-0.6-0.3-1.2-0.5-1.9-0.6c-0.8,0.2-1.7,0.3-2.5,0.2
	l-1-0.3L31.7,96.1z"/>
<path class="st1" d="M27.5,155.4c0.3,0,0.6-0.2,0.6-0.5l3.2-18l4.6-25.9l1.3-7.2l-3.3-0.1l-0.6,4.2l-4,29.5L27,154.9
	c-0.1,0.3,0.1,0.5,0.4,0.6C27.4,155.4,27.5,155.4,27.5,155.4z"/>
<path class="st13" d="M33.4,107.9c1.3,0.6,2.2,1.7,2.5,3.1l1.3-7.2l-3.3-0.1L33.4,107.9z"/>
<path class="st1" d="M108.4,155.4c-0.3,0-0.6-0.2-0.7-0.5l-3.2-18l-4.6-25.9l-1.3-7.2l3.3-0.1l0.6,4.2l4,29.5l2.3,17.5
	c0.1,0.3-0.1,0.5-0.4,0.6C108.5,155.4,108.5,155.4,108.4,155.4z"/>
<path class="st13" d="M102.6,107.9c-1.3,0.6-2.2,1.8-2.5,3.1l-1.3-7.2l3.3-0.1L102.6,107.9z"/>
<path class="st1" d="M23.4,106.7h87.2c0,0,0.1,0,0.1-0.1v-3.5c0,0,0,0-0.1,0H23.4c0,0,0,0-0.1,0L23.4,106.7
	C23.4,106.6,23.4,106.7,23.4,106.7z"/>
<path class="st14" d="M180.4,120.3h-12.5c-0.3,0-0.7-0.2-0.7-0.5c0-0.3,0.2-0.7,0.5-0.7c0.1,0,0.1,0,0.2,0h12.5
	c0.3,0,0.6,0.4,0.5,0.7C180.9,120,180.6,120.2,180.4,120.3z"/>
<path class="st14" d="M180.4,122.7h-12.5c-0.3,0-0.7-0.2-0.7-0.5c0-0.3,0.2-0.7,0.5-0.7c0.1,0,0.1,0,0.2,0h12.5
	c0.3,0,0.6,0.4,0.5,0.7C180.9,122.4,180.6,122.7,180.4,122.7z"/>
<path class="st15" d="M183,16.8v134.9c0,2.1-1.7,3.8-3.8,3.9h-67.6c-2.1,0-3.8-1.7-3.8-3.9V16.8c0-2.1,1.7-3.8,3.8-3.9h67.5
	C181.3,12.9,183,14.6,183,16.8z"/>
<path class="st16" d="M187,16.8v134.9c0,2.1-1.7,3.8-3.9,3.9h-67.6c-2.1,0-3.8-1.7-3.9-3.9V16.8c0-2.1,1.7-3.8,3.9-3.9h67.5
	C185.2,12.9,187,14.6,187,16.8z"/>
<path class="st17" d="M160.4,18.3h-19.5c-0.4,0-0.8-0.3-0.9-0.7c0-0.4,0.3-0.8,0.7-0.9c0.1,0,0.1,0,0.2,0h19.6
	c0.4,0,0.7,0.4,0.7,0.9C161,18,160.7,18.3,160.4,18.3L160.4,18.3z"/>
<path class="st17" d="M137.3,18.3c-0.4,0-0.8-0.3-0.8-0.8s0.3-0.8,0.8-0.8c0.4,0,0.8,0.3,0.8,0.8c0,0,0,0,0,0
	C138.1,18,137.8,18.3,137.3,18.3z"/>
<path class="st2" d="M155.2,147.7c0,2.7-2.2,4.9-4.9,4.9c-2.7,0-4.9-2.2-4.9-4.9c0-2.7,2.2-4.9,4.9-4.9c0,0,0,0,0,0
	C153,142.8,155.2,144.9,155.2,147.7C155.2,147.7,155.2,147.7,155.2,147.7z"/>
<path class="st11" d="M182.9,21.7h-66.7v118.6h66.7V21.7z"/>
<path class="st18" d="M292.8,156.3h-280v-0.8h280V156.3L292.8,156.3z"/>
<path class="st19" d="M133.9,97.3c-0.8,0.1-1.5-0.5-1.6-1.3c-0.1-0.8,0.5-1.5,1.3-1.6c0.1,0,0.2,0,0.2,0h0.5c0.9,0,1.6-0.7,1.6-1.6
	c0-0.4-0.2-0.8-0.4-1.1c-0.2-0.2-0.6-0.4-0.9-0.4h-7.8c-0.8,0-1.5-0.7-1.5-1.5s0.7-1.5,1.5-1.5h6.6c0.4-0.3,0.7-0.8,0.7-1.3
	c0-0.4-0.2-0.8-0.4-1.1c-0.1-0.1-0.3-0.2-0.4-0.3h-13.4c-0.8,0-1.5-0.7-1.5-1.5s0.7-1.5,1.5-1.5h15c0.9,0,1.6-0.7,1.6-1.6
	c0-0.4-0.1-0.8-0.4-1.1c-0.1-0.1-0.2-0.2-0.4-0.3h-8c-0.8,0-1.5-0.7-1.5-1.5s0.7-1.5,1.5-1.5h11.7c0.9,0,1.6-0.7,1.6-1.5
	c0,0,0,0,0,0c0-0.4-0.2-0.8-0.4-1.1c-0.2-0.2-0.4-0.3-0.6-0.4h-6c-0.8,0-1.5-0.7-1.5-1.5s0.7-1.5,1.5-1.5h4
	c7.7-6.5,19.1-5.7,25.8,1.8h2.5c0.8,0,1.5,0.7,1.5,1.5s-0.7,1.5-1.5,1.5l0,0H165c-0.8,0-1.5,0.7-1.5,1.5s0.7,1.5,1.5,1.5h2.3v0.1
	h5.9c0.8,0,1.5,0.7,1.5,1.5s-0.7,1.5-1.5,1.5h-6.5c-0.8,0.1-1.4,0.8-1.4,1.6c0.1,0.7,0.6,1.3,1.3,1.4h13.4c0.8,0,1.5,0.7,1.5,1.5
	s-0.7,1.5-1.5,1.5H165c-0.8,0-1.5,0.6-1.5,1.4c0,0.6,0.4,1.2,1,1.4h8c0.8,0,1.5,0.7,1.5,1.5s-0.7,1.5-1.5,1.5l0,0h-11.7
	c-0.8,0-1.5,0.7-1.5,1.5s0.7,1.5,1.5,1.5h3.8l0,0h1.6c0.8,0,1.5,0.7,1.5,1.5s-0.7,1.5-1.5,1.5h-4.5c-7.7,6.4-19.1,5.6-25.7-1.9
	H133.9z"/>
<path class="st15" d="M119.9,57l6.3,14.8l4.6-3.2l2.7,3.9L134,66l5.6-3.4L119.9,57z"/>
<path class="st1" d="M131.9,68l-5.7,3.9l4.6-3.2l2.7,3.9L134,66l-8.9-5.3L131.9,68z"/>
<path class="st2" d="M133.9,67.6l-8.8-6.9L134,66L133.9,67.6z"/>
<path class="st20" d="M133.7,74.4c0-0.3-0.1-0.6-0.2-0.8l0.4-0.1c0.1,0.3,0.1,0.6,0.2,0.9L133.7,74.4z"/>
<path class="st21" d="M128.4,84.5c-0.6,0-1.3-0.3-1.8-0.6l0.2-0.4c0.5,0.3,1,0.5,1.6,0.5L128.4,84.5z M130.3,84.1l-0.2-0.4
	c0.5-0.3,1-0.6,1.3-1.1l0.3,0.3C131.4,83.5,130.9,83.9,130.3,84.1L130.3,84.1z M125.4,82.5c-0.2-0.5-0.4-1.1-0.4-1.6v-0.2h0.4v0.2
	c0,0.5,0.1,1,0.3,1.4L125.4,82.5z M142.7,82.4v-0.4c0.6,0,1.2,0,1.8-0.1v0.4C143.9,82.3,143.3,82.4,142.7,82.4L142.7,82.4z
	 M140.9,82.3h-0.3c-0.5,0-1-0.1-1.5-0.2l0.1-0.4c0.5,0.1,1,0.2,1.5,0.2h0.3L140.9,82.3z M146.4,82.1l-0.1-0.4
	c0.6-0.1,1.2-0.2,1.8-0.3l0.1,0.4C147.6,81.9,147,82,146.4,82.1L146.4,82.1z M137.3,81.7c-0.5-0.2-1-0.4-1.5-0.7l-0.2-0.1l0.2-0.4
	c0.1,0,0.1,0.1,0.2,0.1c0.4,0.3,0.9,0.5,1.4,0.6L137.3,81.7z M132.8,81.5l-0.4-0.2c0.3-0.5,0.5-1,0.7-1.6l0.4,0.2
	C133.4,80.4,133.1,80.9,132.8,81.5L132.8,81.5z M149.9,81.5l-0.1-0.4c0.6-0.1,1.2-0.3,1.7-0.5l0.1,0.4
	C151.1,81.1,150.5,81.3,149.9,81.5L149.9,81.5z M153.4,80.5l-0.1-0.4c0.6-0.2,1.1-0.4,1.7-0.6l0.2,0.4
	C154.6,80.1,154,80.2,153.4,80.5L153.4,80.5z M134.1,79.9c-0.4-0.3-0.9-0.6-1.3-0.9l-0.1-0.1l0.2-0.4c0.1,0,0.1,0.1,0.1,0.1
	c0.5,0.3,0.9,0.6,1.4,0.9L134.1,79.9z M126.1,79.2l-0.3-0.3c0.5-0.4,1-0.7,1.6-0.9l0.2,0.4C127,78.5,126.5,78.8,126.1,79.2
	L126.1,79.2z M131,78.3c-0.5-0.1-1-0.2-1.6-0.2h-0.2v-0.4c0.6,0,1.2,0.1,1.9,0.2L131,78.3z M134.1,78l-0.4-0.1
	c0.1-0.6,0.2-1.2,0.2-1.8h0.4C134.2,76.8,134.2,77.4,134.1,78L134.1,78z"/>
<path class="st20" d="M156.9,79.2l-0.2-0.4l0.9-0.3l0.2,0.4L156.9,79.2z"/>
<path class="st22" d="M171,90.2c-0.2,0-0.4-0.2-0.4-0.4c0-0.2,0.1-0.5,0.4-0.5c0,0,0,0,0,0c2.7-0.3,5.2-1.6,7-3.6
	c0.2-0.2,0.5-0.2,0.6,0c0.1,0.2,0.2,0.4,0,0.6C176.7,88.5,174,89.9,171,90.2L171,90.2z"/>
<path class="st23" d="M167.8,89.6l-18,10.6l-18-10.6l0,0c0-0.1,1-0.9,2.5-2.1l0,0c5-4,15.4-12.2,15.4-12.2s10.5,8.2,15.4,12.2
	C166.7,88.7,167.7,89.5,167.8,89.6C167.8,89.6,167.8,89.6,167.8,89.6z"/>
<path class="st11" d="M156.3,69.6h-16.9c-1.4,0-2.6,1.2-2.6,2.6v25.5c0,1.4,1.2,2.6,2.6,2.6h21.1c1.4,0,2.6-1.2,2.6-2.6V76.5
	L156.3,69.6z"/>
<path class="st24" d="M156.3,73.9c0,1.4,1.2,2.6,2.6,2.6h4.3l-6.9-6.9V73.9z"/>
<path class="st25" d="M148.2,73.9h-7c-0.2,0-0.3,0.1-0.3,0.3v0v7c0,0.2,0.1,0.3,0.3,0.3l0,0h7c0.2,0,0.3-0.1,0.3-0.3v-7
	C148.5,74.1,148.4,73.9,148.2,73.9C148.2,73.9,148.2,73.9,148.2,73.9z"/>
<path class="st26" d="M155.5,83.8h-14c-0.4,0-0.8,0.2-0.8,0.7s0.2,0.8,0.7,0.8c0.1,0,0.1,0,0.2,0h14c0.4,0,0.8-0.2,0.8-0.7
	s-0.2-0.8-0.7-0.8C155.6,83.7,155.6,83.7,155.5,83.8z"/>
<path class="st26" d="M155.5,87.5h-14c-0.4,0-0.8,0.2-0.8,0.7s0.2,0.8,0.7,0.8c0.1,0,0.1,0,0.2,0h14c0.4,0,0.8-0.3,0.8-0.8
	C156.3,87.8,155.9,87.5,155.5,87.5C155.5,87.5,155.5,87.5,155.5,87.5z"/>
<path class="st26" d="M149.2,91.1h-7.6c-0.4,0-0.8,0.3-0.8,0.8s0.3,0.8,0.8,0.8h7.6c0.4,0,0.8-0.3,0.8-0.8S149.6,91.1,149.2,91.1z"
	/>
<path class="st27" d="M159.5,65.2h-15.1l-7.7,9.5v22c0,1.8,1.4,3.2,3.2,3.2h19.6c1.8,0,3.2-1.4,3.2-3.2c0,0,0,0,0,0V68.4
	C162.7,66.7,161.3,65.2,159.5,65.2z"/>
<g class="st28">
	<path class="st29" d="M144.4,65.2v6.3c0,1.8-1.4,3.2-3.2,3.2h-4.5L144.4,65.2z"/>
</g>
<path class="st21" d="M159.5,100h-19.6c-1.8,0-3.3-1.5-3.3-3.3v-22l7.8-9.5h15.1c1.8,0,3.3,1.5,3.3,3.3c0,0,0,0,0,0v28.2
	C162.8,98.5,161.3,100,159.5,100z M136.9,74.8v21.9c0,1.7,1.4,3.1,3.1,3.1c0,0,0,0,0.1,0h19.6c1.7,0,3.1-1.4,3.1-3c0,0,0,0,0,0V68.4
	c0-1.7-1.4-3.1-3-3.1c0,0,0,0,0,0h-15L136.9,74.8z"/>
<path class="st21" d="M141.2,74.8h-4.5c0,0-0.1,0-0.1-0.1c0,0,0-0.1,0-0.2l7.7-9.4c0,0,0.1,0,0.1,0c0.1,0,0.1,0.1,0.1,0.1v6.3
	C144.5,73.4,143,74.8,141.2,74.8z M137,74.6h4.2c1.7,0,3.1-1.4,3.1-3.1v-5.9L137,74.6z"/>
<path class="st21" d="M154.3,82.1c0,0-0.1,0-0.1,0c-2.3-2.3-6-2.3-8.4,0c-0.1,0-0.1,0-0.2,0c0-0.1,0-0.1,0-0.2
	c2.4-2.4,6.3-2.4,8.7,0C154.5,81.9,154.5,82,154.3,82.1C154.4,82.1,154.3,82.1,154.3,82.1z"/>
<path class="st21" d="M155.6,87h-11.7c-0.1,0-0.1-0.1-0.1-0.1c0-0.1,0.1-0.1,0.1-0.1h11.7c0.1,0,0.1,0.1,0.1,0.1
	C155.7,86.9,155.6,87,155.6,87z"/>
<path class="st21" d="M157.4,91h-15.3c-0.1,0-0.1-0.1-0.1-0.1c0-0.1,0.1-0.1,0.1-0.1h15.3c0.1,0,0.1,0.1,0.1,0.1
	C157.5,90.9,157.4,91,157.4,91L157.4,91z"/>
<path class="st21" d="M157.4,94h-15.3c-0.1,0-0.1-0.1-0.1-0.1c0-0.1,0.1-0.1,0.1-0.1h15.3c0.1,0,0.1,0.1,0.1,0.1
	C157.5,93.9,157.4,94,157.4,94L157.4,94z"/>
<path class="st21" d="M145,77.1c0,0.3-0.3,0.6-0.6,0.6s-0.6-0.3-0.6-0.6c0,0,0,0,0,0c0-0.3,0.3-0.6,0.6-0.6
	C144.7,76.5,145,76.8,145,77.1z"/>
<path class="st21" d="M144.4,78c-0.5,0-0.9-0.4-0.9-0.9s0.4-0.9,0.9-0.9s0.9,0.4,0.9,0.9l0,0C145.3,77.6,144.9,78,144.4,78z
	 M144.4,76.8c-0.2,0-0.3,0.1-0.3,0.3s0.1,0.3,0.3,0.3c0.2,0,0.3-0.1,0.3-0.3c0,0,0,0,0,0C144.8,76.9,144.6,76.8,144.4,76.8
	C144.5,76.8,144.5,76.8,144.4,76.8z"/>
<path class="st21" d="M155.8,77.1c0,0.3-0.2,0.6-0.5,0.7c-0.3,0-0.6-0.2-0.7-0.5c0-0.1,0-0.1,0-0.2c0-0.3,0.3-0.6,0.7-0.5
	C155.6,76.6,155.8,76.8,155.8,77.1z"/>
<path class="st21" d="M155.2,78c-0.5,0-0.9-0.4-0.9-0.9s0.4-0.9,0.9-0.9s0.9,0.4,0.9,0.9l0,0C156.1,77.6,155.7,78,155.2,78z
	 M155.2,76.8c-0.2,0-0.3,0.2-0.2,0.3c0,0.1,0.1,0.2,0.2,0.2c0.2,0,0.3-0.1,0.3-0.2c0-0.2-0.1-0.3-0.2-0.3
	C155.3,76.8,155.3,76.8,155.2,76.8z"/>
<path class="st2" d="M167.8,89.5v17.2c0,1.2-1,2.2-2.2,2.2h-31.5c-1.2,0-2.1-1-2.1-2.2V89.5l17.9,10.6L167.8,89.5z"/>
<path class="st1" d="M167.2,108.2l-11.5-11.5l-5.8,3.4l-5.8-3.4l-11.5,11.5c0.4,0.4,1,0.7,1.6,0.7h31.5
	C166.2,108.9,166.8,108.6,167.2,108.2z"/>
<path class="st15" d="M168.7,66.2c-4.5,0.5-8.1,4.1-8.4,8.7c-0.2,2.1,0.4,4.2,1.6,6c0.4,0.6,0.5,1.5,0.2,2.2l-0.7,1.8l3-0.8
	c0.5-0.1,1-0.1,1.5,0.1c4.8,2,10.3-0.2,12.3-5c2-4.8-0.2-10.3-5-12.3C171.8,66.2,170.2,66,168.7,66.2L168.7,66.2z"/>
<path class="st11" d="M169.9,80.3l0.5-0.5c0,0-0.4-1,1.3-2.6c0.8-0.6,1.2-1.6,1.2-2.7c-0.1-1.2-1.1-2.2-2.4-2.3
	c-1-0.1-2,0.4-2.7,1.2c-1.6,1.7-2.6,1.3-2.6,1.3l-0.5,0.5L169.9,80.3z"/>
<path class="st11" d="M165.9,77.1c-0.4,0.6-0.4,1.4,0.1,1.9c0.5,0.5,1.3,0.5,1.9,0.1L165.9,77.1z"/>
<path class="st11" d="M173.2,72.8l-0.3,0.3c-0.2-0.4-0.6-0.8-1-1l0.3-0.3c0.3-0.3,0.7-0.3,1,0C173.5,72,173.5,72.5,173.2,72.8z"/>
<path class="st2" d="M169.4,66.1c4.3,1.3,6.7,5.8,5.4,10.1c-1.3,4.3-5.8,6.7-10.1,5.4c-1.4-0.4-2.6-1.2-3.6-2.3
	c0.2,0.5,0.5,1,0.8,1.4c0.4,0.6,0.5,1.5,0.2,2.2l-0.8,1.8l3-0.8c0.5-0.1,1-0.1,1.5,0.1c4.8,2.1,10.3-0.1,12.4-4.9
	s-0.1-10.3-4.9-12.4C172.1,66.4,170.7,66.1,169.4,66.1L169.4,66.1z"/>
<path class="st21" d="M120.4,61.4l2.1,4.7c0.1,0.2,0,0.5-0.2,0.6h-0.1c-0.2,0.1-0.5,0-0.6-0.2c0,0,0,0,0,0l-2-4.7
	c-0.1-0.2,0-0.5,0.2-0.6c0,0,0,0,0,0C120.1,61.1,120.3,61.2,120.4,61.4C120.4,61.4,120.4,61.4,120.4,61.4z"/>
<path class="st30" d="M127.8,95.1c-0.6,0-1,0.4-1,1s0.4,1,1,1s1-0.4,1-1S128.3,95.1,127.8,95.1L127.8,95.1z M127.8,96.5
	c-0.2,0-0.4-0.2-0.4-0.4c0-0.2,0.2-0.4,0.4-0.4c0.2,0,0.4,0.2,0.4,0.4C128.2,96.3,128,96.5,127.8,96.5
	C127.8,96.5,127.8,96.5,127.8,96.5z"/>
<path class="st30" d="M165.3,113.1c-0.8-0.1-1.6,0.5-1.7,1.3c-0.1,0.8,0.5,1.6,1.3,1.7c0.1,0,0.2,0,0.3,0c0.8-0.1,1.4-0.8,1.3-1.7
	C166.5,113.7,166,113.2,165.3,113.1z M165.3,115.2c-0.3,0-0.6-0.3-0.6-0.6c0-0.3,0.3-0.6,0.6-0.6c0.3,0,0.6,0.3,0.5,0.7
	C165.8,115,165.6,115.2,165.3,115.2z"/>
<path class="st31" d="M181.2,77.2c-0.6,0-1.2,0.5-1.2,1.1s0.5,1.2,1.1,1.2c0.6,0,1.2-0.5,1.2-1.1c0,0,0,0,0,0
	C182.4,77.7,181.9,77.2,181.2,77.2z M181.2,78.8c-0.3,0-0.5-0.2-0.5-0.5s0.2-0.5,0.5-0.5c0.3,0,0.5,0.2,0.5,0.5
	S181.5,78.8,181.2,78.8z"/>
<path class="st30" d="M159,60.1c-0.7,0-1.2,0.5-1.2,1.2s0.5,1.2,1.2,1.2c0,0,0,0,0,0c0.7,0,1.2-0.5,1.2-1.2
	C160.2,60.7,159.7,60.1,159,60.1z M159,61.8c-0.3,0-0.5-0.2-0.5-0.5s0.2-0.5,0.5-0.5s0.5,0.2,0.5,0.5S159.3,61.8,159,61.8z"/>
<path class="st32" d="M121.8,87.2c-0.7,0-1.3,0.6-1.3,1.3s0.6,1.3,1.3,1.3s1.3-0.6,1.3-1.3l0,0C123.1,87.8,122.6,87.2,121.8,87.2z"
	/>
<path class="st32" d="M173.4,91.4c-0.5,0-0.9,0.4-0.9,0.9c0,0.5,0.4,0.9,0.9,0.9s0.9-0.4,0.9-0.9C174.3,91.9,173.9,91.5,173.4,91.4z
	"/>
<path class="st21" d="M142.4,59.2c-0.8,0-1.4,0.6-1.4,1.4l0,0c0,0.8,0.6,1.4,1.4,1.4c0.8,0,1.4-0.6,1.4-1.4
	C143.8,59.8,143.2,59.2,142.4,59.2C142.4,59.1,142.4,59.1,142.4,59.2z"/>
<path class="st33" d="M146.8,115.1c-0.6,0-1,0.4-1,1s0.4,1,1,1s1-0.4,1-1S147.3,115.1,146.8,115.1z"/>
<path class="st31" d="M170.3,60.1c-0.3,0-0.5,0.2-0.5,0.5c0,0.3,0.2,0.5,0.5,0.5s0.5-0.2,0.5-0.5S170.6,60.1,170.3,60.1z"/>
<path class="st33" d="M127.7,74.8c0.4,0,0.7-0.3,0.7-0.7s-0.3-0.7-0.7-0.7c-0.4,0-0.7,0.3-0.7,0.7c0,0,0,0,0,0
	C127,74.5,127.3,74.8,127.7,74.8z"/>
<path class="st33" d="M178.9,65.1c-0.6,0-1.1,0.5-1.1,1.1s0.5,1.1,1.1,1.1s1.1-0.5,1.1-1.1l0,0C180.1,65.6,179.6,65.1,178.9,65.1z"
	/>
<path class="st31" d="M121.2,78.8c0.4,0,0.7-0.3,0.7-0.7s-0.3-0.7-0.7-0.7s-0.7,0.3-0.7,0.7S120.8,78.8,121.2,78.8L121.2,78.8z"/>
<path class="st34" d="M153.5,52.3l0.4-0.5c0.1-0.2,0.1-0.4,0-0.6c-0.2-0.2-0.4-0.2-0.6,0c0,0,0,0,0,0l-0.4,0.5l-0.4-0.5
	c-0.2-0.2-0.4-0.2-0.6,0c-0.2,0.2-0.2,0.4,0,0.6l0.4,0.5l-0.4,0.5c-0.2,0.2-0.2,0.4,0,0.6c0,0,0,0,0,0c0.2,0.1,0.4,0.1,0.6,0
	l0.4-0.5l0.4,0.5c0.2,0.2,0.4,0.2,0.6,0c0.2-0.2,0.2-0.4,0-0.6L153.5,52.3z"/>
<path class="st34" d="M120.7,70.4l0.4-0.4c0.2-0.2,0.2-0.4,0-0.6c0,0,0,0,0,0c-0.2-0.1-0.4-0.1-0.6,0l-0.4,0.4l-0.4-0.4
	c-0.2-0.2-0.4-0.2-0.6,0s-0.2,0.4,0,0.6l0.4,0.4l-0.4,0.4c-0.2,0.2-0.2,0.4,0,0.6s0.4,0.2,0.6,0l0.4-0.4l0.4,0.4
	c0.2,0.1,0.4,0.1,0.6,0c0.2-0.2,0.2-0.4,0-0.6c0,0,0,0,0,0L120.7,70.4z"/>
<path class="st34" d="M174.3,98.2l0.4-0.4c0.1-0.1,0.1-0.3,0-0.5c-0.1-0.1-0.3-0.1-0.5,0c0,0,0,0,0,0l-0.4,0.4l-0.4-0.4
	c-0.1-0.1-0.3-0.1-0.5,0c0,0,0,0,0,0c-0.1,0.1-0.1,0.3,0,0.5l0.4,0.4l-0.4,0.4c-0.2,0.1-0.2,0.3-0.1,0.5c0.1,0.2,0.3,0.2,0.5,0.1
	c0,0,0.1,0,0.1-0.1l0.4-0.4l0.4,0.4c0.1,0.1,0.3,0.1,0.5,0c0.1-0.1,0.1-0.4,0-0.5L174.3,98.2z"/>
<path class="st6" d="M175.7,44.5l-0.4-0.2l-2.4-2c0,0-0.3,0.2,0,0.5L173,43l-0.9-0.7c-0.1,0.1-0.1,0.3-0.1,0.4
	c0.4,0.5,0.9,0.9,1.4,1.3c-0.5-0.3-0.9-0.6-1.3-1c-0.4-0.4-0.3,0.2-0.2,0.5c0.5,0.9,1.1,1.8,1.7,2.6c0.4,0.7,0.6,1.4,0.3,1.1
	s-1.9-1.3-2.1-1.1s0.8,1.1,1.3,1.7c0.5,1.1,1.5,1.8,2.6,2.1c1.6,0.2,1.9-0.6,1.9-0.6S176.4,45,175.7,44.5z"/>
<path class="st6" d="M226.4,85.5c0,0-0.4,3.9-0.8,4.6c-1,1.2-2,2.4-3.1,3.6c-0.1,0-0.4-0.3-0.1-0.8c1.2-2.1,0.9-1.6,0.5-3
	c-0.2-0.7-0.3,1.3-0.7,1.3s-0.2-2.1-0.2-2.7s1.8-0.9,2-3.2C223.9,83.8,226.4,85.5,226.4,85.5z"/>
<path class="st9" d="M214.2,45.7c-2.8,10.2-10.8,18.2-21,21C187.6,68.3,175,50,175,50s0.4-1.7,3.2-1.3c0,0,12.3,8.1,13.8,9
	c1.4,0.8,10.4-10.1,14.5-11.8C209,44.9,211.7,44.8,214.2,45.7z"/>
<path class="st9" d="M235.4,145.3c0,0,2.2,2,1.8,3.4s-2.4,2.4-2.7,4.1s-1.4,2.7-2.3,2.7h-4.6c0,0-0.7-1.2,1-1.6s2.4-2.4,2.3-4.3
	c0-1.5,0-3,0.2-4.4l3.7-0.9L235.4,145.3z"/>
<path class="st9" d="M208.4,150.5c0,0,0.4,4.6-0.6,5.1h-12.4c0,0,0-1.4,2-1.8s5.5-1.5,6.1-4.1S208.4,150.5,208.4,150.5z"/>
<path class="st35" d="M197.9,85.8c0,0,0.6,8,1.4,17.7c1,13.1,2.3,29.2,2.4,32.2c0.2,5.3,1.1,13.8,1.1,13.8s2,2,6.1,1.2
	c2.3-8.1,3.9-16.5,4.7-24.9c0-0.2,0-0.4,0-0.6c1-13,2.5-40.5,2.5-40.5L197.9,85.8z"/>
<g>
	<path class="st36" d="M197.9,85.8c0,0,0.6,8,1.4,17.7l14.3,22.3c0-0.2,0-0.4,0-0.6c1-13,2.5-40.5,2.5-40.5L197.9,85.8z"/>
</g>
<path class="st35" d="M200.9,86.8c0,0,11.8,29.1,19.5,42.7s10.2,17.5,10.2,17.5s4.4-1.8,4.8-2.9c0,0-3-26.4-8.1-32.8
	c-2.9-3.6-6.4-14.5-6.5-18.3s-1.1-11.4-1.1-11.4L200.9,86.8z"/>
<path class="st6" d="M216.4,42c0,0-8,3.8-12.6,2.4c0.9-1,1.9-1.9,3.1-2.5c-0.2-0.9-0.3-1.7-0.4-2.4c-0.1-0.8-0.2-1.6-0.2-2.5
	l3.1-2.4l2.9-2.3C212.1,36,213.6,39.6,216.4,42z"/>
<path class="st2" d="M220.6,83c0,0.5-1,1-1.5,1.3c-3.2,1.5-6.7,2.5-10.2,2.9c-4.3,0.4-9.3-0.5-11-0.5c-0.2,0-0.4-0.1-0.5-0.2
	c-0.1-0.1-0.2-5.2-0.1-11.7c0-0.3,0-0.5,0-0.8v-0.1c0-2.5,0.1-5.2,0.2-7.8c0.2-5.8,0.7-11.4,1.5-14.5c0.8-3.1,2.6-5.8,5-7.8l1.6-1.4
	c1.7,0.4,3.4,0.1,4.9-0.6c1.8-0.9,3.8-1.8,4.1-1.6c2.4,1.8,4,5.7,4.9,10.8c0,0,0,0,0,0.1c0.5,3.1,0.7,6.3,0.7,9.5
	c0,1.2,0,2.5-0.1,3.8c-0.3,4.8-0.2,9.6,0.1,14.4c0,0.7,0.1,1.3,0.1,1.9C220.5,81.7,220.6,82.5,220.6,83z"/>
<path class="st9" d="M220.3,78.8c-13.2-15.2-5-26.3-5-26.3l4.3-1.4c0.5,3.1,0.7,6.3,0.7,9.5c0,1.2,0,2.5-0.1,3.8
	C219.9,69.1,220,73.9,220.3,78.8z"/>
<path class="st37" d="M212.4,34.8c-1.3,2.2-3.4,3.9-5.9,4.7c-0.1-0.8-0.2-1.6-0.2-2.5l3.1-2.4L212.4,34.8z"/>
<path class="st6" d="M205,36.9c0,0,7.6,1.2,8.3-3.4s2.2-7.6-2.7-8.6s-6,0.6-6.7,2.2S203,36.5,205,36.9z"/>
<path class="st4" d="M216.1,24.3c0.1-0.1,0.2-0.1,0.6-0.1c-0.2-0.1-0.4-0.1-0.6-0.1c0-0.7-0.5-1.3-1.2-1.6c0.3,0.2,0.5,0.4,0.5,0.8
	c-1-1-3.1-1.8-8.9-1.3c-7.7,0.6-5.1,5.5-4.2,6.1s3.5-1,5.4-0.9s2.2,2.8,2.8,3.2s0.4-0.3,1.2-0.7s0.9,1,0.7,1.9
	c-0.2,0.9,0.9,2.1,0.9,2.1l1.2-1.3c1.2-1.3,2.3-6.6,1.8-7.8C216.1,24.5,216.1,24.4,216.1,24.3z"/>
<path class="st2" d="M214.7,40.2c0,0,4.8,2.3,7.1,5.8c3.6,5.4,7.7,25.2,7.8,27.1s-3,14.8-3,14.8s-3.1-0.2-4-1.8
	c0,0,0.6-13.3,0.2-14.2S209.7,54,211.1,50.4S214.7,40.2,214.7,40.2z"/>
<path class="st6" d="M225.5,90.1l-2.3,3.8c-0.2-0.1-0.2-0.2-0.2-0.4c0-0.3,0.7-2.3,0.7-2.3L225.5,90.1z"/>
<path class="st6" d="M223.3,90.2c0,0-1.6,1.9-1.3,2.3l1.2-0.9L223.3,90.2z"/>
</svg>
