<?xml version="1.0" encoding="utf-8"?>
<!-- Generator: Adobe Illustrator 25.2.0, SVG Export Plug-In . SVG Version: 6.00 Build 0)  -->
<svg version="1.1" id="Layer_1" xmlns="http://www.w3.org/2000/svg" xmlns:xlink="http://www.w3.org/1999/xlink" x="0px" y="0px"
	 viewBox="0 0 254.6 263.2" style="enable-background:new 0 0 254.6 263.2;" xml:space="preserve">
<style type="text/css">
	.st0{fill-rule:evenodd;clip-rule:evenodd;fill:#7C4DFF;}
</style>
<g>
	<path class="st0" d="M44.6,208.4h16v-14.5H49.6c-2.5,0-4.9-2.2-4.9-4.5V33.9c0-2.2,2.5-4.5,4.9-4.5h125.8c2.5,0,4.9,2.2,4.9,4.5V44
		h12.3V29.5c0-5.6-6.2-11.2-12.3-11.2H44.6c-7.4,0-12.3,4.5-12.3,11.2v167.8C32.3,202.8,38.5,208.4,44.6,208.4z"/>
	<path class="st0" d="M217.3,51.8H81.6c-7.4,0-12.3,4.5-12.3,11.2v167.8c0,5.6,6.2,11.2,12.3,11.2h135.7c7.4,0,12.3-4.5,12.3-11.2
		V63C229.6,57.4,223.5,51.8,217.3,51.8z M217.3,227.4c0,2.2-2.5,3.4-3.7,3.4H85.3c-1.2,0-3.7-2.2-3.7-3.4v-161
		c0-1.1,2.5-3.4,3.7-3.4h127c2.5,0,4.9,2.2,4.9,3.4L217.3,227.4z"/>
</g>
</svg>
