<?xml version="1.0" encoding="utf-8"?>
<!-- Generator: Adobe Illustrator 25.2.0, SVG Export Plug-In . SVG Version: 6.00 Build 0)  -->
<svg version="1.1" id="Layer_1" xmlns="http://www.w3.org/2000/svg" xmlns:xlink="http://www.w3.org/1999/xlink" x="0px" y="0px"
	 viewBox="0 0 144 144" style="enable-background:new 0 0 144 144;" xml:space="preserve">
<style type="text/css">
	.st0{fill:#7C4DFF;}
</style>
<path class="st0" d="M74.5,49.5h2.4V35.2c0-2.6,2.1-4.8,4.7-4.8c1.1,0,2.1,0.3,2.9,1l43,31c2.1,1.6,2.5,4.6,1,6.7
	c-0.3,0.4-0.6,0.7-1,1l-43,31c-1.5,1-3.4,1.2-5,0.5c-1.7-0.8-2.7-2.5-2.6-4.3V83h-7.4c-17.4,0.1-33.5,9.1-42.7,23.9l-3.1,5
	c-0.9,1.4-2.4,2.3-4.1,2.4c-0.4,0.1-0.8,0-1.2-0.2c-2.1-0.5-3.6-2.4-3.6-4.5c-0.1-33,26.5-59.8,59.5-59.9
	C74.4,49.5,74.4,49.5,74.5,49.5z"/>
</svg>
