<?xml version="1.0" encoding="utf-8"?>
<!-- Generator: Adobe Illustrator 25.2.0, SVG Export Plug-In . SVG Version: 6.00 Build 0)  -->
<svg version="1.1" id="Layer_1" xmlns="http://www.w3.org/2000/svg" xmlns:xlink="http://www.w3.org/1999/xlink" x="0px" y="0px"
	 viewBox="0 0 1563 1097" style="enable-background:new 0 0 1563 1097;" xml:space="preserve">
<style type="text/css">
	.st0{fill:#FFFFFF;}
	.st1{fill:#FFC984;}
	.st2{fill:#7C4DFF;}
	.st3{fill:#543DA5;}
	.st4{fill:#7B82FF;}
	.st5{fill:#373ABF;}
	.st6{fill:#FFE5B1;}
	.st7{fill:#1F3A93;}
	.st8{fill:#666666;}
	.st9{fill:#FF397C;}
	.st10{fill:url(#SVGID_1_);}
	.st11{opacity:0.75;fill:url(#SVGID_2_);enable-background:new    ;}
	.st12{fill:url(#SVGID_3_);}
	.st13{fill:url(#SVGID_4_);}
	.st14{fill:url(#SVGID_5_);}
	.st15{fill:#5E52B5;}
	.st16{fill:#B6B6B6;}
</style>
<g>
	<path class="st0" d="M1563,1097V24.5h-2.3c-13.5,0-24.5-10.9-24.6-24.5H1502c0,13.6-11,24.5-24.5,24.5l0,0
		c-13.6,0-24.6-11-24.6-24.5h-34.6c0.2,13.4-10.6,24.4-24,24.5c-0.2,0-0.4,0-0.6,0c-13.4,0-24.1-10.9-24.1-24.2c0-0.1,0-0.2,0-0.3
		h-34.6c0,13.6-11,24.5-24.5,24.5l0,0c-13.6,0-24.6-11-24.6-24.5h-34.6c0.2,13.3-10.4,24.3-23.7,24.5c-0.1,0-0.2,0-0.3,0
		c-13.6,0-24.6-11-24.6-24.5h-34.6c0,13.6-11,24.5-24.5,24.5l0,0c-13.6,0-24.6-11-24.6-24.5h-34.1c0,13.6-11,24.5-24.5,24.5
		c-13.6,0-24.6-11-24.6-24.5h-31.2c0,13.6-11,24.5-24.5,24.5c-13.5-0.1-24.4-11-24.5-24.5h-34.1c0,13.6-11,24.5-24.5,24.5
		c-13.6,0-24.6-11-24.6-24.5h-34.5c0.2,13.4-10.6,24.4-24,24.5c-0.2,0-0.4,0-0.6,0c-13.4,0-24.2-10.8-24.2-24.1c0-0.1,0-0.3,0-0.4
		h-34.6c0,13.6-11,24.5-24.5,24.5c-13.6,0-24.6-11-24.6-24.5h-34.6c0.2,13.3-10.4,24.3-23.7,24.5c-0.1,0-0.2,0-0.3,0
		c-13.6,0-24.6-11-24.6-24.5h-34.6c0,13.6-11,24.5-24.5,24.5c-13.6,0-24.6-11-24.6-24.5h-34c0,13.6-11,24.5-24.5,24.5
		c-13.6,0.1-24.6-10.9-24.7-24.5c0,0,0-0.1,0-0.1h-34.6c0,13.5-11,24.5-24.5,24.5c-13.6,0-24.6-11-24.6-24.5c0,0,0,0,0,0h-34.1
		c0,13.6-11,24.5-24.5,24.5c0,0-0.1,0-0.1,0c-13.5,0-24.5-11-24.5-24.5h-34.6c0.2,13.4-10.6,24.4-24,24.5c-0.2,0-0.4,0-0.6,0
		c-13.4,0-24.1-10.9-24.1-24.2c0-0.1,0-0.2,0-0.3h-34.6c0,13.5-10.9,24.5-24.4,24.5c-13.6,0.1-24.7-10.8-24.8-24.4c0,0,0-0.1,0-0.1
		H86.5c0.2,13.3-10.4,24.3-23.7,24.5c-0.1,0-0.2,0-0.3,0c-13.6,0-24.6-11-24.6-24.5c0,0,0,0,0,0H6.8c0,6.3-2.4,12.4-6.8,16.9V1097
		H1563z"/>
	<path class="st0" d="M951.3,932.6v-31.5c-3.1-0.3-6.2-1-9.1-2.1c-4.1,2.4-8.8,3.5-13.6,3.1c-49.3-23.8-104.5-66.2-83.4-128.1
		c22.5-65.4,105.4-102,168.8-109.4v-19.8c-23.5-27-45.8-109.3,11-115.8c29.2-32,135.6,1.9,101.8,50c1.9,28-1.9,73.4-25.3,91.2
		c18.5,4.5,37.5,5.2,49,22.3c11.5,17.2,11.7,42.2,20.5,60.9c4.2-8.8,7.4-16.7,18.5-18c8-17.2,16.3-19.8,33.3-21.8
		c4.5-0.5,19,4.5,20.1,4.5c16.9,0.3,30.1-11.6,45,3.2c31.5,31.3-19.1,53-44.2,53.3c-14.1,46.2-59.9,101.2-110.6,60.8v97.3H951.3z
		 M916.1,802.1c1.3,2.8,7.6,12.5,35.3,27.1v-54.9C926.3,786,918.2,798.3,916.1,802.1L916.1,802.1z"/>
	<path class="st1" d="M1170,828.2h-1.8c-16.2-1.2-26.8-17.2-33.3-29.2c-9.5-17.3-19.1-43.3-29.4-79.2c-2-6.6,1.8-13.6,8.4-15.6
		c6.6-2,13.6,1.8,15.7,8.4c9.5,33.3,18.5,57.9,26.9,73.4c8.4,15.5,12.9,16.7,13.4,16.9s4.2-1.4,10.4-12
		c6.1-10.8,11.5-21.9,16.2-33.3c3.3-7.5,6.8-15.3,10.2-22.1c3.1-6.2,10.6-8.7,16.8-5.6c6.2,3.1,8.7,10.6,5.6,16.8
		c-3.1,6.3-6.3,13.5-9.7,21.1c-5.4,13.2-11.8,25.9-19,38.2C1197,811.7,1186.5,828.2,1170,828.2z"/>
	<path class="st2" d="M1173.1,833.1c-1.1,0.1-2.2,0.1-3.3,0c-29.2-2.5-49.3-19.8-73.5-116.7c-6.7-26.6,36-37.3,42.6-10.7
		c16,64.1,27.6,69.4,33.8,79.2c5.9-10.4,11.2-21.1,15.9-32.2c3.2-7.1,43.2,10.9,40.1,17.8C1215,801.2,1200.8,833.1,1173.1,833.1z"/>
	<path class="st3" d="M967,691.1c48.8-16.8,101.8-16.8,150.6,0v225.7L967,943.2V691.1z"/>
	<path class="st4" d="M967,867.4v-2c37.5,0,56.8-1.2,75.3-2.3c18.5-1.1,37.5-2.3,75.3-2.3v2c-37.5,0-56.8,1.2-75.3,2.3
		C1023.8,866.3,1004.7,867.4,967,867.4z"/>
	<path class="st4" d="M967,899.4v-2c25.2,0.4,50.4-2.1,75-7.4c24.8-5.3,50.1-7.8,75.4-7.5v2c-25.2-0.3-50.4,2.1-75,7.4
		C1017.6,897.3,992.3,899.8,967,899.4z"/>
	<path class="st4" d="M1117.6,843.2c-25.2,0.3-50.4-1.3-75.4-4.6c-24.9-3.3-50.1-4.8-75.2-4.6v-2c25.2-0.3,50.4,1.3,75.4,4.6
		c24.9,3.3,49.9,4.8,75,4.6L1117.6,843.2z"/>
	<path class="st4" d="M1117.6,820.3c-25.2,0.3-50.4-1.5-75.4-5.2c-24.8-3.7-49.9-5.4-75-5.1v-2c25.2-0.3,50.4,1.5,75.4,5.2
		c24.8,3.7,49.9,5.4,75,5.2L1117.6,820.3z"/>
	<path class="st4" d="M1117.6,797.3c-25.3,0.3-50.5-1.8-75.4-6.4c-24.7-4.5-49.9-6.7-75-6.4v-2c25.3-0.3,50.5,1.8,75.4,6.4
		c24.7,4.5,49.9,6.7,75,6.3L1117.6,797.3z"/>
	<path class="st4" d="M967,766.8v-2c37.5,0,56.7-1.7,75.2-3.3c25-2.4,50.2-3.5,75.4-3.3v2c-25-0.2-50.1,0.9-75,3.3
		C1023.8,764.8,1004.7,766.8,967,766.8z"/>
	<path class="st4" d="M1117.6,747.3c-37.5,0-56.9-1.1-75.3-2.2c-18.5-1-37.5-2.2-75.3-2.2v-2c37.5,0,56.8,1.1,75.3,2.2
		c18.5,1,37.5,2.2,75.3,2.2V747.3z"/>
	<path class="st4" d="M967,726.6v-2c25.2,0.4,50.4-2.2,75-7.6c24.8-5.5,50.1-8.1,75.4-7.7v2c-25.2-0.4-50.4,2.2-75,7.7
		C1017.7,724.4,992.3,727,967,726.6z"/>
	<path class="st5" d="M1042.3,703.7c17.3,0,31.3-5.6,31.3-12.5c0-6.9-14-12.5-31.3-12.5s-31.4,5.6-31.4,12.5
		C1010.9,698,1025,703.7,1042.3,703.7z"/>
	<path class="st1" d="M1029.8,688v-59.6c0-6.9,5.6-12.5,12.5-12.5c6.9,0,12.5,5.6,12.5,12.5V688
		C1054.9,694.9,1029.8,694.9,1029.8,688z"/>
	<path class="st6" d="M942,879.3c-1.9,0-3.9-0.5-5.6-1.3c-30.4-15.2-70.9-39.7-70.9-76.7c0-32.5,31.3-64,95.9-96.3
		c6.2-3.1,13.7-0.6,16.8,5.6c3.1,6.2,0.6,13.7-5.6,16.8c-30.1,15-52.4,29.8-66.1,43.8c-10.6,10.8-16,20.8-16,30s5.8,19.2,17.1,29.2
		c12.2,10,25.5,18.4,39.8,25c6.1,3.1,8.6,10.5,5.6,16.7C951.1,876.4,946.8,879.2,942,879.3z"/>
	<path class="st6" d="M992,885.6c-2.5,0-4.9-0.5-7.2-1.5l-1-0.4c-3.3-1.7-6.9-2.8-10.6-3.2c-3.7,0.4-7.3,1.5-10.6,3.2l-1,0.4
		c-9.5,4.2-20.6,0-24.8-9.5c-4.3-9.5,0-20.6,9.5-24.8c0.3-0.1,0.7-0.3,1-0.4c16.2-8.7,35.7-8.7,52,0c4.2,1.7,7.3,5.4,8.3,9.8
		c1.1,5,0.6,10.2-1.5,14.8C1003,882.1,998.7,885.6,992,885.6z"/>
	<path class="st2" d="M932.1,886.4c-32.6-16.3-76-42.9-76-85.2c0-36.5,35.6-82.3,110.9-110.1c11.4-4.2,17.2,3.4,19.7,15.3
		s1.8,38.7-9.8,42c-62.5,17.5-76.8,46.5-76.8,52.9c0,9.1,9,24.5,51.7,45.8C962.8,852.5,935.3,887.9,932.1,886.4z"/>
	<path class="st1" d="M1042.3,691.1c-6.9,0-12.5-5.6-12.5-12.5v-31.4c0-6.9,5.6-12.5,12.5-12.5c6.9,0,12.5,5.6,12.5,12.5v31.4
		C1054.8,685.5,1049.2,691.1,1042.3,691.1z"/>
	<path class="st7" d="M1111.2,586.1c-3.6,36.4-30.1,66.3-53,66.3s-48.9-29.9-53-66.3c-4.1-36.3,22.4-46.4,28.5-39.8
		C1048.6,516.1,1115.2,544.8,1111.2,586.1z"/>
	<path class="st6" d="M1108.2,625.1v-25c-0.7-22.5-19.6-40.2-42.1-39.5c-21.5,0.7-38.8,18-39.5,39.5v25c-0.7,22.5,17,41.4,39.5,42.1
		c22.5,0.7,41.4-17,42.1-39.5C1108.2,626.8,1108.2,625.9,1108.2,625.1z"/>
	<path class="st7" d="M1054.9,597c0,10.4-8.4,18.8-18.8,18.8V597H1054.9z"/>
	<path class="st5" d="M1036,578.2l18.8,18.8H1036V578.2z"/>
	<path class="st7" d="M1054.9,590.7l-28.3-25v31.4h28.3V590.7z"/>
	<path class="st6" d="M1029.7,590.7c6.9,0,12.5,5.6,12.5,12.5v25c-13.8,0-25-11.2-25-25C1017.2,596.3,1022.8,590.7,1029.7,590.7z"/>
	<path class="st7" d="M1029.8,559.4c0-13.8,7.4-28.2,28.2-28.2s59.6,14.4,59.6,28.2s-16.9,25-37.5,25S1029.8,573.2,1029.8,559.4z"/>
	<path class="st1" d="M1243.1,758.8c-10.3,0-20.4-2-29.9-6c-6.4-2.7-9.4-10-6.8-16.4c2.7-6.4,10-9.4,16.4-6.8
		c13,5.4,27.6,5.4,40.6,0c6.4-2.7,13.7,0.4,16.4,6.8c2.7,6.4-0.4,13.7-6.8,16.4C1263.5,756.8,1253.3,758.8,1243.1,758.8z"/>
	<path class="st1" d="M1042.3,691.1c-6.9,0-12.5-5.6-12.5-12.5v-31.4c0-6.9,5.6-12.5,12.5-12.5c6.9,0,12.5,5.6,12.5,12.5v31.4
		C1054.8,685.5,1049.2,691.1,1042.3,691.1z"/>
	<path class="st8" d="M1111.2,586.1c-3.6,36.4-30.1,66.3-53,66.3s-48.9-29.9-53-66.3c-4.1-36.3,22.4-46.4,28.5-39.8
		C1048.6,516.1,1115.3,544.8,1111.2,586.1z"/>
	<path class="st6" d="M1108.2,625.1v-25c-0.7-22.5-19.6-40.2-42.1-39.5c-21.5,0.7-38.8,18-39.5,39.5v25c-0.7,22.5,17,41.4,39.5,42.1
		c22.5,0.7,41.4-17,42.1-39.5C1108.2,626.8,1108.2,625.9,1108.2,625.1z"/>
	<path class="st8" d="M1054.9,597c0,10.4-8.4,18.8-18.8,18.8c0,0,0,0,0,0V597H1054.9z"/>
	<path class="st5" d="M1036,578.2l18.8,18.8H1036V578.2z"/>
	<path class="st8" d="M1054.9,590.7l-28.3-25v31.4h28.3V590.7z"/>
	<path class="st6" d="M1029.8,590.7c6.9,0,12.5,5.6,12.5,12.5v25c-13.8,0-25-11.2-25-25C1017.3,596.3,1022.9,590.7,1029.8,590.7z"/>
	<path class="st8" d="M1029.8,559.4c0-13.8,7.4-28.2,28.2-28.2s59.6,14.4,59.6,28.2s-16.7,25-37.5,25S1029.8,573.2,1029.8,559.4z"/>
	<path class="st1" d="M1243.1,758.8c-10.2,0-20.4-2-29.8-6c-6.4-2.6-9.4-10-6.8-16.4c2.6-6.4,10-9.4,16.4-6.8
		c13,5.4,27.6,5.4,40.6,0c6.4-2.6,13.7,0.4,16.4,6.8c2.6,6.4-0.4,13.7-6.8,16.4C1263.5,756.8,1253.3,758.8,1243.1,758.8z"/>
	<path class="st9" d="M1211.7,565.6h62.5c10.4,0,18.8,8.4,18.8,18.8v62.7c0,10.4-8.4,18.8-18.8,18.8h-62.5
		c-10.4,0-18.8-8.4-18.8-18.8v-62.7C1192.9,574.1,1201.3,565.7,1211.7,565.6z"/>
	<path class="st0" d="M1539.5,963.2V820.5c0-44,8.3-88.7-43-107.4c14.1-24,1.7-75.5-5.3-101.3c-9.6-35.4-44.9-54.5-79.8-52
		c-38.3,2.8-60.9,25-63.7,63c-2,28.3-20.2,77.4,5.8,99.3c-34.5,22.5-24.5,72.2-24.5,107.6v133.3L1539.5,963.2z"/>
	<path class="st2" d="M1500.1,957.3c-12.7,0-23-10.3-23-23V750.1c0-12.7-2.3-26.8,9.9-23c13,4.2,36.2,14.7,36.2,36.2v170.9
		c0.1,12.7-10.1,23.1-22.8,23.2C1500.2,957.3,1500.1,957.3,1500.1,957.3z"/>
	<path class="st2" d="M1368.5,957.3c12.7,0,23-10.3,23-23V750.1c0-12.7,2.3-26.8-9.9-23c-13,4.2-36.2,14.7-36.2,36.2v170.9
		c-0.1,12.7,10.1,23.1,22.8,23.2C1368.3,957.3,1368.4,957.3,1368.5,957.3z"/>
	<path class="st3" d="M1381.7,727.1c26.3-8.8,78.9-8.8,105.2,0c11.8,65.5,16.3,132.1,13.2,198.6c0,17.5-131.5,2.6-131.5-15
		C1368.3,849.3,1372.7,787.9,1381.7,727.1z"/>
	<path class="st0" d="M1347.1,788.2c-1.9-1.9-1.9-5,0-7c1.9-1.9,5-1.9,7,0c1.9,1.9,1.9,5,0,6.9
		C1352.1,790.1,1349,790.1,1347.1,788.2z M1374.9,760.3c-1.9-1.9-1.9-5.1,0-7c1.9-1.9,5.1-1.9,7,0c1.9,1.9,1.9,5.1,0,7c0,0,0,0,0,0
		c-0.9,0.9-2.2,1.5-3.5,1.5C1377.1,761.8,1375.9,761.3,1374.9,760.3L1374.9,760.3z"/>
	<path class="st0" d="M1347.1,844c-1.9-1.9-1.9-5,0-7c1.9-1.9,5-1.9,7,0c1.9,1.9,1.9,5,0,6.9c-0.9,0.9-2.2,1.5-3.5,1.5
		C1349.2,845.5,1348,844.9,1347.1,844z M1374.9,816.1c-1.9-1.9-1.9-5,0-7c1.9-1.9,5-1.9,7,0c1.9,1.9,1.9,5,0,7
		c-0.9,0.9-2.2,1.4-3.5,1.4C1377.1,817.6,1375.9,817,1374.9,816.1z M1402.9,788.2c-1.9-1.9-1.9-5.1,0-7c1.9-1.9,5.1-1.9,7,0
		c1.9,1.9,1.9,5.1,0,7c0,0,0,0,0,0c-0.9,0.9-2.2,1.4-3.5,1.4C1405.1,789.6,1403.8,789.1,1402.9,788.2L1402.9,788.2z"/>
	<path class="st0" d="M1347.1,899.8c-1.9-1.9-1.9-5,0.1-6.9c1.9-1.9,5-1.9,6.9,0.1c1.9,1.9,1.9,5-0.1,6.9c-0.9,0.9-2.1,1.4-3.4,1.4
		C1349.2,901.3,1348,900.7,1347.1,899.8z M1374.9,871.9c-1.9-1.9-1.9-5.1,0-7c1.9-1.9,5.1-1.9,7,0c1.9,1.9,1.9,5.1,0,7c0,0,0,0,0,0
		c-0.9,0.9-2.2,1.4-3.5,1.4C1377.1,873.3,1375.9,872.8,1374.9,871.9L1374.9,871.9z M1402.9,844c-1.9-1.9-1.9-5.1,0-7
		c1.9-1.9,5.1-1.9,7,0c1.9,1.9,1.9,5.1,0,7c0,0,0,0,0,0c-0.9,0.9-2.2,1.5-3.5,1.5C1405.1,845.5,1403.8,844.9,1402.9,844L1402.9,844z
		 M1430.8,816.1c-1.9-1.9-1.9-5,0.1-6.9c1.9-1.9,5-1.9,6.9,0.1c1.9,1.9,1.9,5-0.1,6.9c-0.9,0.9-2.1,1.4-3.4,1.4
		C1433,817.6,1431.7,817,1430.8,816.1L1430.8,816.1z M1458.7,788.2c-1.9-1.9-1.9-5.1,0-7c1.9-1.9,5.1-1.9,7,0c1.9,1.9,1.9,5.1,0,7
		c0,0,0,0,0,0c-0.9,0.9-2.2,1.4-3.5,1.4c-1.3,0-2.5-0.5-3.4-1.4H1458.7z M1486.6,760.3c-1.9-1.9-1.9-5,0-7c1.9-1.9,5-1.9,7,0
		c1.9,1.9,1.9,5,0,7c-0.9,0.9-2.2,1.4-3.5,1.4C1488.8,761.8,1487.5,761.3,1486.6,760.3L1486.6,760.3z"/>
	<path class="st0" d="M1347.1,955.6c-1.9-1.9-1.9-5,0-7c1.9-1.9,5-1.9,7,0c1.9,1.9,1.9,5,0,6.9
		C1352.1,957.5,1349,957.5,1347.1,955.6z M1374.9,927.7c-1.9-1.9-1.9-5.1,0-7c1.9-1.9,5.1-1.9,7,0c1.9,1.9,1.9,5.1,0,7c0,0,0,0,0,0
		c-0.9,0.9-2.2,1.5-3.5,1.5C1377.1,929.2,1375.9,928.6,1374.9,927.7L1374.9,927.7z M1402.9,899.8c-1.9-1.9-1.9-5,0-7
		c1.9-1.9,5-1.9,7,0c1.9,1.9,1.9,5,0,6.9C1408,901.7,1404.8,901.8,1402.9,899.8C1402.9,899.8,1402.9,899.8,1402.9,899.8z
		 M1430.8,871.9c-1.9-1.9-1.9-5,0-7c1.9-1.9,5-1.9,7,0c1.9,1.9,1.9,5,0,6.9c-0.9,0.9-2.2,1.4-3.5,1.4
		C1433,873.4,1431.7,872.8,1430.8,871.9L1430.8,871.9z M1458.7,844c-1.9-1.9-1.9-5.1,0-7c1.9-1.9,5.1-1.9,7,0c1.9,1.9,1.9,5.1,0,7
		c0,0,0,0,0,0c-0.9,1-2.2,1.5-3.5,1.5c-1.3,0-2.5-0.6-3.4-1.5L1458.7,844z M1486.6,816.1c-1.9-1.9-1.9-5,0-7c1.9-1.9,5-1.9,7,0
		c1.9,1.9,1.9,5,0,6.9c-0.9,0.9-2.2,1.5-3.5,1.5C1488.8,817.6,1487.5,817,1486.6,816.1L1486.6,816.1z M1514.5,788.2
		c-1.9-1.9-1.9-5,0-7c1.9-1.9,5-1.9,7,0c1.9,1.9,1.9,5,0,6.9C1519.5,790.1,1516.4,790.1,1514.5,788.2z"/>
	<path class="st0" d="M1458.8,899.9c-1.9-1.9-1.9-5.1,0-7c1.9-1.9,5-2,7,0c0,0,0,0,0,0c1.9,1.9,1.9,5.1,0,7
		c-0.9,0.9-2.2,1.4-3.5,1.4C1461,901.3,1459.7,900.8,1458.8,899.9z M1486.7,871.9c-2-1.9-2.1-5.1-0.1-7.1c1.9-2,5.1-2.1,7.1-0.1
		c2,1.9,2.1,5.1,0.1,7.1c-1,1-2.3,1.5-3.6,1.5c-1.4,0.1-2.7-0.5-3.6-1.4H1486.7z M1514.6,844c-1.9-1.9-1.9-5,0-7c1.9-1.9,5-1.9,7,0
		c1.9,1.9,1.9,5,0,6.9c-0.9,0.9-2.2,1.5-3.5,1.5c-1.4,0-2.7-0.5-3.6-1.5L1514.6,844z"/>
	<path class="st0" d="M1486.6,927.7c-1.9-1.9-1.9-5,0-7c1.9-1.9,5-1.9,7,0c1.9,1.9,1.9,5,0,7c-0.9,0.9-2.2,1.4-3.5,1.4
		C1488.8,929.2,1487.5,928.7,1486.6,927.7z M1514.5,899.8c-1.9-1.9-1.9-5,0.1-6.9c1.9-1.9,5-1.9,6.9,0.1c1.9,1.9,1.9,5-0.1,6.9
		c-0.9,0.9-2.1,1.4-3.4,1.4C1516.7,901.3,1515.4,900.7,1514.5,899.8L1514.5,899.8z"/>
	<path class="st0" d="M1514.5,955.6c-1.9-1.9-1.9-5,0-7c1.9-1.9,5-1.9,7,0c1.9,1.9,1.9,5,0,6.9c-0.9,0.9-2.2,1.4-3.5,1.4
		C1516.7,957,1515.4,956.5,1514.5,955.6z"/>
	<path class="st5" d="M1421.3,575.9c-29.2,0-55.9,23.5-55.9,52.6c0,19.8-16.7,64.6-3.3,78.9c20.3,21.5,98,21.5,118.4,0
		c13.5-14.3-3.3-59.2-3.3-78.9C1477,599.4,1450.2,575.9,1421.3,575.9z"/>
	<path class="st6" d="M1440.8,763.3c23.6,0,42.8-11.8,42.8-26.3c-0.1-4.5-1.8-8.8-4.8-12.1c-24.1-4.7-48.9-5.6-73.3-2.7
		c-4.5,3.6-7.2,9-7.4,14.8C1398.1,751.5,1417.1,763.3,1440.8,763.3z"/>
	<path class="st6" d="M1440.8,753.5c18.2,0,32.9-8.8,32.9-19.8c-0.2-4.2-2.1-8.1-5.3-10.8c-17.6-2.4-35.4-3-53.1-1.7
		c-4.3,2.7-7.1,7.4-7.4,12.5C1408,744.6,1422.7,753.5,1440.8,753.5z"/>
	<path class="st1" d="M1421.3,723.8v-42.7c-0.4-7.3,5.1-13.5,12.4-13.9c7.3-0.4,13.5,5.1,13.9,12.4c0,0.5,0,1,0,1.5v42.7
		C1447.4,731.1,1421.3,731.1,1421.3,723.8z"/>
	<path class="st6" d="M1375.1,663.7v-24.3c0-21.8,17.7-39.5,39.5-39.5s39.5,17.7,39.5,39.5l0,0v24.3c0,21.8-17.7,39.5-39.5,39.5
		S1375.1,685.5,1375.1,663.7z"/>
	<path class="st5" d="M1398.1,595.6c0,32.9,46.1,22.2,46.1,42.8v-42.8H1398.1z"/>
	<path class="st5" d="M1467.1,608.8h-23v33h23V608.8z"/>
	<path class="st5" d="M1467.1,654.8h-19.7v39.5h19.7V654.8z"/>
	<path class="st6" d="M1450.7,628.5c-5.5,0-9.9,4.4-9.9,9.9V668c10.9,0,19.7-8.8,19.8-19.7v-9.9
		C1460.6,632.9,1456.2,628.5,1450.7,628.5z"/>
	<path class="st8" d="M1421.3,575.9c-29.2,0-55.9,23.5-55.9,52.6c0,19.8-16.7,64.6-3.3,78.9c20.3,21.5,98,21.5,118.4,0
		c13.5-14.3-3.3-59.2-3.3-78.9C1477,599.4,1450.2,575.9,1421.3,575.9z"/>
	<path class="st6" d="M1440.8,763.3c23.6,0,42.8-11.8,42.8-26.3c-0.1-4.5-1.8-8.8-4.8-12.1c-24.1-4.7-48.9-5.6-73.3-2.7
		c-4.5,3.6-7.2,9-7.4,14.8C1398.1,751.5,1417.1,763.3,1440.8,763.3z"/>
	<path class="st6" d="M1440.8,753.4c18.2,0,32.9-8.8,32.9-19.7c-0.2-4.2-2.1-8.1-5.3-10.8c-17.6-2.5-35.4-3-53.1-1.7
		c-4.3,2.7-7.1,7.4-7.4,12.5C1408,744.6,1422.7,753.4,1440.8,753.4z"/>
	<path class="st1" d="M1421.3,723.8v-42.7c-0.4-7.3,5.1-13.5,12.4-13.9c7.3-0.4,13.5,5.1,13.9,12.4c0,0.5,0,1,0,1.5v42.7
		C1447.4,731.1,1421.3,731.1,1421.3,723.8z"/>
	<path class="st6" d="M1375.1,663.7v-24.3c0-21.8,17.7-39.5,39.5-39.5s39.5,17.7,39.5,39.5v24.3c0,21.8-17.7,39.5-39.5,39.5
		S1375.1,685.5,1375.1,663.7z"/>
	<path class="st8" d="M1398.1,595.6c0,32.9,46.1,22.2,46.1,42.8v-42.8H1398.1z"/>
	<path class="st8" d="M1467.1,608.8h-23v33h23V608.8z"/>
	<path class="st8" d="M1467.1,654.8h-19.7v39.5h19.7V654.8z"/>
	<path class="st6" d="M1450.7,628.5c-5.5,0-9.9,4.4-9.9,9.9V668c10.9,0,19.7-8.8,19.8-19.7v-9.9
		C1460.6,632.9,1456.2,628.5,1450.7,628.5z"/>
	<path class="st0" d="M1261.3,641.5l-17.3-9.1l-16.7,10.2c-1,0.6-2.3,0.3-2.9-0.7c-0.3-0.5-0.4-1-0.3-1.5l3.3-19.3l-14.8-12.7
		c-0.9-0.8-1-2.2-0.2-3.1c0.3-0.4,0.7-0.6,1.2-0.7l19.3-2.8l7.5-18c0.5-1.1,1.7-1.5,2.8-1.1c0.5,0.2,0.9,0.6,1.1,1.1l8.7,17.5
		l19.5,1.5c1.2,0.1,2.1,1.2,1.9,2.4c0,0.5-0.3,0.9-0.6,1.3l-14,13.7l4.5,19c0.2,1.2-0.5,2.3-1.7,2.5
		C1262.2,641.8,1261.7,641.7,1261.3,641.5z"/>
	<path class="st2" d="M1243.1,542.1c-0.9,0-1.5-0.7-1.5-1.6v-12.5c0.1-0.9,1-1.4,1.8-1.3c0.7,0.1,1.2,0.6,1.3,1.3v12.5
		C1244.6,541.4,1243.9,542.1,1243.1,542.1L1243.1,542.1z"/>
	<path class="st2" d="M1205.4,552.2c-0.6,0-1.1-0.3-1.4-0.8l-3.1-5.5c-0.4-0.8-0.2-1.7,0.6-2.2c0.8-0.4,1.7-0.1,2.2,0.6l3.1,5.5
		c0.4,0.8,0.2,1.7-0.6,2.2c0,0,0,0,0,0C1206,552.2,1205.7,552.2,1205.4,552.2z"/>
	<path class="st2" d="M1177.9,579.8c-0.3,0-0.5,0-0.8,0l-10.9-6.3c-0.7-0.5-1-1.4-0.6-2.2c0.5-0.7,1.4-1,2.2-0.6l10.9,6.3
		c0.7,0.4,1,1.4,0.6,2.1C1178.9,579.6,1178.4,579.8,1177.9,579.8z"/>
	<path class="st2" d="M1167.8,617.4h-6.3c-0.9,0.1-1.7-0.4-1.8-1.3c-0.1-0.9,0.4-1.7,1.3-1.8c0.2,0,0.3,0,0.5,0h6.3
		c0.9-0.1,1.7,0.4,1.8,1.3s-0.4,1.7-1.3,1.8C1168.1,617.4,1168,617.4,1167.8,617.4z"/>
	<path class="st2" d="M1167,661.3c-0.9,0-1.6-0.7-1.6-1.6c0-0.6,0.3-1.1,0.8-1.4l10.9-6.3c0.8-0.4,1.7-0.2,2.2,0.6c0,0,0,0,0,0
		c0.4,0.8,0.2,1.7-0.6,2.2l-10.9,6.3C1167.6,661.2,1167.3,661.3,1167,661.3z"/>
	<path class="st2" d="M1202.3,688c-0.3,0-0.5-0.1-0.8-0.2c-0.7-0.5-1-1.4-0.6-2.2l3.1-5.5c0.5-0.7,1.4-1,2.2-0.6
		c0.8,0.4,1,1.4,0.6,2.2c0,0,0,0,0,0l-3.1,5.5C1203.4,687.7,1202.9,688,1202.3,688z"/>
	<path class="st2" d="M1243.1,705.2c-0.9,0-1.6-0.7-1.6-1.6c0,0,0,0,0,0v-12.5c0-0.9,0.7-1.6,1.6-1.6c0.9,0,1.6,0.7,1.6,1.6v12.5
		C1244.6,704.5,1243.9,705.2,1243.1,705.2L1243.1,705.2z"/>
	<path class="st2" d="M1283.7,688c-0.6,0-1.1-0.3-1.4-0.8l-3.2-5.5c-0.4-0.8-0.1-1.7,0.6-2.2c0.8-0.4,1.7-0.2,2.1,0.6l3.2,5.5
		c0.4,0.8,0.1,1.7-0.6,2.2C1284.3,687.9,1284,688,1283.7,688z"/>
	<path class="st2" d="M1319.1,661.3c-0.2,0.1-0.5,0.1-0.8,0l-10.9-6.3c-0.8-0.4-1-1.4-0.6-2.2c0.4-0.8,1.4-1,2.2-0.6l0,0l10.8,6.3
		c0.8,0.4,1,1.4,0.6,2.2c0,0,0,0,0,0C1320.2,661.1,1319.7,661.4,1319.1,661.3z"/>
	<path class="st2" d="M1324.6,617.4h-6.3c-0.9,0.1-1.7-0.4-1.8-1.3c-0.1-0.9,0.4-1.7,1.3-1.8c0.2,0,0.3,0,0.5,0h6.3
		c0.9-0.1,1.7,0.4,1.8,1.3c0.1,0.9-0.4,1.7-1.3,1.8C1325,617.4,1324.8,617.4,1324.6,617.4z"/>
	<path class="st2" d="M1308.3,579.8c-0.8,0.1-1.6-0.6-1.6-1.4c0-0.6,0.3-1.2,0.8-1.5l10.9-6.3c0.8-0.4,1.7,0,2.1,0.8
		c0.3,0.7,0.1,1.5-0.5,1.9l-10.8,6.3C1308.8,579.7,1308.6,579.8,1308.3,579.8z"/>
	<path class="st2" d="M1280.7,552.2c-0.3,0-0.5-0.1-0.8-0.2c-0.8-0.4-1-1.4-0.6-2.2l3.2-5.5c0.4-0.7,1.4-1,2.1-0.6
		c0.8,0.4,1,1.4,0.6,2.2l-3.2,5.5C1281.8,551.9,1281.3,552.2,1280.7,552.2z"/>
	<path class="st2" d="M1312,869.4h2.7c23.8-2,40.1-15.3,59.8-90.3c5.4-20.6-14.5-46.2-27.1-27.2c-20.8,31.5-30,72.6-35,80.1
		c-4.8-8.1-9.2-16.4-13-25c-2.6-5.5-35.1,8.3-32.6,13.8C1278,844.7,1289.5,869.4,1312,869.4z"/>
	<path class="st2" d="M1536.2,949.5c6.5,19,15.5,37.1,26.8,53.6v-40.5l-1.3-1.9l1.3,0.5V842.3c-5-27.5-13.1-43.3-46.1-97.9
		c-18.4-13.6-21.8-5.3-16.9,17c8.1,36.9,34.3,86,36.2,94.8C1528.5,854.7,1543.5,951.9,1536.2,949.5z"/>
	<path class="st1" d="M1265.2,811.1c9,0,17.9-1.8,26.2-5.2c5.4-2.7,7.6-9.3,4.9-14.8c-2.4-4.9-8.1-7.2-13.2-5.5
		c-11.4,4.7-24.2,4.7-35.6,0c-5.8-1.9-12,1.3-13.9,7.1c-1.7,5.2,0.7,10.8,5.5,13.2C1247.4,809.3,1256.2,811.1,1265.2,811.1z"/>
	
		<linearGradient id="SVGID_1_" gradientUnits="userSpaceOnUse" x1="1015.5" y1="1094.1445" x2="1015.5" y2="1346.5482" gradientTransform="matrix(1 0 0 1 -234 -249.59)">
		<stop  offset="3.409785e-07" style="stop-color:#C9B0FF"/>
		<stop  offset="1" style="stop-color:#FFFFFF"/>
	</linearGradient>
	<path class="st10" d="M1563,949c0,0-212.6-102.1-389-63.4c-68.9,15.1-60.7-8.1-270.1,80.5s-432.5,6.8-487.7-13.6
		C361.1,932,147.8,827.3,0,880.6V1097h1563V949z"/>
	
		<linearGradient id="SVGID_2_" gradientUnits="userSpaceOnUse" x1="1015.5" y1="1133.9408" x2="1015.5" y2="1413.1393" gradientTransform="matrix(1 0 0 1 -234 -249.59)">
		<stop  offset="2.024560e-07" style="stop-color:#7C4DFF;stop-opacity:0.39"/>
		<stop  offset="0.79" style="stop-color:#FFFFFF;stop-opacity:0"/>
	</linearGradient>
	<path class="st11" d="M0,884.4c0,0,105.3,125.6,333.4,97.7c228.2-27.9,266.8-101.1,459.7-64.5c193,36.6,233.9,76.1,372.1,102.9
		c50.4,9.8,98.3,31.4,203.6-27.9c61.4-35,126.6-63.1,194.1-83.9V1097H0V884.4z"/>
	
		<linearGradient id="SVGID_3_" gradientUnits="userSpaceOnUse" x1="1161.9916" y1="449.5989" x2="1077.1787" y2="483.8575" gradientTransform="matrix(1 0 0 1 -234 -249.59)">
		<stop  offset="2.663895e-07" style="stop-color:#7C4DFF"/>
		<stop  offset="0.56" style="stop-color:#8678F9"/>
		<stop  offset="1" style="stop-color:#F5CAFF"/>
	</linearGradient>
	<path class="st12" d="M818.2,172.5l89.5,107.6l19.8-34.8l11-19.3L818.2,172.5z"/>
	
		<linearGradient id="SVGID_4_" gradientUnits="userSpaceOnUse" x1="1194.9633" y1="405.7009" x2="1054.6261" y2="462.386" gradientTransform="matrix(1 0 0 1 -234 -249.59)">
		<stop  offset="2.663895e-07" style="stop-color:#7C4DFF"/>
		<stop  offset="0.56" style="stop-color:#8678F9"/>
		<stop  offset="1" style="stop-color:#F5CAFF"/>
	</linearGradient>
	<path class="st13" d="M818.2,172.5L954.5,200l31.1-17.8L818.2,172.5z"/>
	
		<linearGradient id="SVGID_5_" gradientUnits="userSpaceOnUse" x1="1134.1282" y1="439.1097" x2="1124.2106" y2="464.7372" gradientTransform="matrix(1 0 0 1 -234 -249.59)">
		<stop  offset="0" style="stop-color:#D3B1FD"/>
		<stop  offset="0.25" style="stop-color:#B298FB"/>
		<stop  offset="0.78" style="stop-color:#7C4DFF"/>
		<stop  offset="1" style="stop-color:#7C4DFF"/>
	</linearGradient>
	<path class="st14" d="M818.2,172.5l120.2,53.5l26.9,23.6L954.5,200L818.2,172.5z"/>
	<path class="st15" d="M927.5,245.2l37.9,4.2l-26.9-23.6L927.5,245.2z"/>
	<path class="st16" d="M1346.3,522.1c2.7-4,5.2-8.2,7.3-12.5l7.7,3.8c-2.3,4.8-4.9,9.4-7.9,13.8L1346.3,522.1z M1358.8,495.9
		c1.4-4.7,2.4-9.4,3.1-14.2l8.3,1.2c-0.7,5.3-1.8,10.4-3.4,15.5L1358.8,495.9z M1362.9,467.1c-0.1-3.9-0.4-7.8-1-11.7
		c0-1-0.3-1.8-0.5-2.8l8.3-1.6c0,1,0.4,2,0.5,3c0.6,4.3,1,8.6,1.1,12.9L1362.9,467.1z M1351.3,425.8l7.4-4.4c2.7,4.6,5,9.4,7,14.4
		l-8,3C1355.9,434.3,1353.7,429.9,1351.3,425.8L1351.3,425.8z M1332.6,403.8l5.4-6.6c4.1,3.4,7.9,7.2,11.4,11.2l-6.5,5.6
		C1339.6,410.4,1336.1,407,1332.6,403.8L1332.6,403.8z M1307.8,388.4l3.5-7.9c4.8,2.2,9.4,4.7,13.9,7.4l-4.5,7.4
		C1316.6,392.7,1312.2,390.4,1307.8,388.4L1307.8,388.4z M1279.6,379.2l1.9-8.3c5.2,1.2,10.2,2.6,15,4.2l-2.6,8.3
		C1289.2,381.7,1284.4,380.3,1279.6,379.2z M1250.4,374.8l0.6-8.6c5.3,0.4,10.4,1,15.4,1.7l-1.3,8.6
		C1260.4,375.7,1255.5,375.1,1250.4,374.8L1250.4,374.8z M1220.1,373.3l0.6-8.6c5,0.4,10,0.7,14.9,0.7v8.7
		C1230.5,373.9,1225.4,373.6,1220.1,373.3L1220.1,373.3z M1189.6,369.4l1.5-8.3c5,0.8,9.9,1.6,14.8,2.3l-1.1,8.5
		C1199.9,370.9,1194.8,370.3,1189.6,369.4L1189.6,369.4z M1159.8,362.5l2.3-8.3c4.8,1.3,9.8,2.6,14.5,3.7l-1.9,8.3
		C1169.7,365.1,1164.8,363.8,1159.8,362.5z M1130.7,353.2l3-8.2c4.8,1.7,9.5,3.3,14.2,4.8l-2.5,8.3
		C1140.3,356.6,1135.4,354.9,1130.7,353.2L1130.7,353.2z M1102.1,341.7l3.5-7.9c4.6,2,9.3,4.2,13.8,5.9l-3.2,8
		C1111.6,345.9,1106.8,343.7,1102.1,341.7z M1074.6,328.3l4.2-7.7c4.5,2.4,9,4.6,13.4,6.8l-3.7,7.8L1074.6,328.3z M1047.8,313.3
		l4.2-7.4c4.2,2.6,8.7,5.2,13,7.5l-4.2,7.5C1056.7,318.5,1052.2,315.9,1047.8,313.3L1047.8,313.3z M1022,296.6l4.8-7.2
		c4.2,2.8,8.3,5.6,12.5,8.3l-4.6,7.3c-4.1-2.5-8.4-5.3-12.6-8.3V296.6z M997,278.9l5.1-7c4.2,3,8.1,6,12.2,9l-4.9,7
		c-4.2-2.8-8.3-5.9-12.4-8.8V278.9z M973,259.8l5.5-6.7c3.8,3.2,7.7,6.4,11.7,9.5l-5.3,6.8c-4.2-3-8.1-6.2-12-9.5V259.8z"/>
	<path class="st16" d="M1337.9,544.8c1.9-1.7,3.8-3.5,5.5-5.4l-6.3-6c-1.6,1.8-3.3,3.3-5,5L1337.9,544.8z"/>
</g>
</svg>
