<?xml version="1.0" encoding="utf-8"?>
<!-- Generator: Adobe Illustrator 25.2.0, SVG Export Plug-In . SVG Version: 6.00 Build 0)  -->
<svg version="1.1" id="Layer_1" xmlns="http://www.w3.org/2000/svg" xmlns:xlink="http://www.w3.org/1999/xlink" x="0px" y="0px"
	 viewBox="0 0 216 216" style="enable-background:new 0 0 216 216;" xml:space="preserve">
<style type="text/css">
	.st0{clip-path:url(#SVGID_2_);}
	.st1{fill:#7C4DFF;stroke:#FFFFFF;stroke-width:2;}
	.st2{fill-rule:evenodd;clip-rule:evenodd;fill:#FFFFFF;}
</style>
<g>
	<g>
		<defs>
			<rect id="SVGID_1_" x="8.4" y="6.2" width="199.2" height="205.6"/>
		</defs>
		<clipPath id="SVGID_2_">
			<use xlink:href="#SVGID_1_"  style="overflow:visible;"/>
		</clipPath>
		<g class="st0">
			<path d="M16.7,88.5H8.4v8.2h8.3V88.5z"/>
			<path d="M16.7,96.7H8.4v8.2h8.3V96.7z"/>
			<path d="M16.7,104.9H8.4v8.2h8.3V104.9z"/>
			<path d="M16.7,113.2H8.4v8.2h8.3V113.2z"/>
			<path d="M16.7,121.4H8.4v8.2h8.3V121.4z"/>
			<path d="M25,88.5h-8.3v8.2H25V88.5z"/>
			<path d="M25,121.4h-8.3v8.2H25V121.4z"/>
			<path d="M25,129.6h-8.3v8.2H25V129.6z"/>
			<path d="M33.3,72H25v8.2h8.3V72z"/>
			<path d="M33.3,80.3H25v8.2h8.3V80.3z"/>
			<path d="M33.3,104.9H25v8.2h8.3V104.9z"/>
			<path d="M33.3,129.6H25v8.2h8.3V129.6z"/>
			<path d="M33.3,137.8H25v8.2h8.3V137.8z"/>
			<path d="M41.6,72h-8.3v8.2h8.3V72z"/>
			<path d="M41.6,80.3h-8.3v8.2h8.3V80.3z"/>
			<path d="M41.6,88.5h-8.3v8.2h8.3V88.5z"/>
			<path d="M41.6,96.7h-8.3v8.2h8.3V96.7z"/>
			<path d="M41.6,121.4h-8.3v8.2h8.3V121.4z"/>
			<path d="M49.9,88.5h-8.3v8.2h8.3V88.5z"/>
			<path d="M49.9,96.7h-8.3v8.2h8.3V96.7z"/>
			<path d="M49.9,104.9h-8.3v8.2h8.3V104.9z"/>
			<path d="M49.9,121.4h-8.3v8.2h8.3V121.4z"/>
			<path d="M58.2,72h-8.3v8.2h8.3V72z"/>
			<path d="M58.2,80.3h-8.3v8.2h8.3V80.3z"/>
			<path d="M58.2,96.7h-8.3v8.2h8.3V96.7z"/>
			<path d="M58.2,104.9h-8.3v8.2h8.3V104.9z"/>
			<path d="M58.2,137.8h-8.3v8.2h8.3V137.8z"/>
			<path d="M66.5,72h-8.3v8.2h8.3V72z"/>
			<path d="M66.5,88.5h-8.3v8.2h8.3V88.5z"/>
			<path d="M66.5,113.2h-8.3v8.2h8.3V113.2z"/>
			<path d="M66.5,121.4h-8.3v8.2h8.3V121.4z"/>
			<path d="M66.5,129.6h-8.3v8.2h8.3V129.6z"/>
			<path d="M74.8,80.3h-8.3v8.2h8.3V80.3z"/>
			<path d="M74.8,104.9h-8.3v8.2h8.3V104.9z"/>
			<path d="M74.8,121.4h-8.3v8.2h8.3V121.4z"/>
			<path d="M74.8,129.6h-8.3v8.2h8.3V129.6z"/>
			<path d="M83.1,6.2h-8.3v8.2h8.3V6.2z"/>
			<path d="M83.1,14.5h-8.3v8.2h8.3V14.5z"/>
			<path d="M83.1,30.9h-8.3v8.2h8.3V30.9z"/>
			<path d="M83.1,63.8h-8.3V72h8.3V63.8z"/>
			<path d="M83.1,72h-8.3v8.2h8.3V72z"/>
			<path d="M83.1,88.5h-8.3v8.2h8.3V88.5z"/>
			<path d="M83.1,96.7h-8.3v8.2h8.3V96.7z"/>
			<path d="M83.1,104.9h-8.3v8.2h8.3V104.9z"/>
			<path d="M83.1,137.8h-8.3v8.2h8.3V137.8z"/>
			<path d="M83.1,162.5h-8.3v8.2h8.3V162.5z"/>
			<path d="M83.1,179h-8.3v8.2h8.3V179z"/>
			<path d="M83.1,187.2h-8.3v8.2h8.3V187.2z"/>
			<path d="M83.1,195.4h-8.3v8.2h8.3V195.4z"/>
			<path d="M83.1,203.6h-8.3v8.2h8.3V203.6z"/>
			<path d="M91.4,14.5h-8.3v8.2h8.3V14.5z"/>
			<path d="M91.4,22.7h-8.3v8.2h8.3V22.7z"/>
			<path d="M91.4,30.9h-8.3v8.2h8.3V30.9z"/>
			<path d="M91.4,39.1h-8.3v8.2h8.3V39.1z"/>
			<path d="M91.4,55.6h-8.3v8.2h8.3V55.6z"/>
			<path d="M91.4,80.3h-8.3v8.2h8.3V80.3z"/>
			<path d="M91.4,88.5h-8.3v8.2h8.3V88.5z"/>
			<path d="M91.4,104.9h-8.3v8.2h8.3V104.9z"/>
			<path d="M91.4,113.2h-8.3v8.2h8.3V113.2z"/>
			<path d="M91.4,121.4h-8.3v8.2h8.3V121.4z"/>
			<path d="M91.4,129.6h-8.3v8.2h8.3V129.6z"/>
			<path d="M91.4,137.8h-8.3v8.2h8.3V137.8z"/>
			<path d="M91.4,179h-8.3v8.2h8.3V179z"/>
			<path d="M91.4,187.2h-8.3v8.2h8.3V187.2z"/>
			<path d="M91.4,195.4h-8.3v8.2h8.3V195.4z"/>
			<path d="M99.7,6.2h-8.3v8.2h8.3V6.2z"/>
			<path d="M99.7,14.5h-8.3v8.2h8.3V14.5z"/>
			<path d="M99.7,39.1h-8.3v8.2h8.3V39.1z"/>
			<path d="M99.7,47.4h-8.3v8.2h8.3V47.4z"/>
			<path d="M99.7,96.7h-8.3v8.2h8.3V96.7z"/>
			<path d="M99.7,113.2h-8.3v8.2h8.3V113.2z"/>
			<path d="M99.7,121.4h-8.3v8.2h8.3V121.4z"/>
			<path d="M99.7,129.6h-8.3v8.2h8.3V129.6z"/>
			<path d="M99.7,137.8h-8.3v8.2h8.3V137.8z"/>
			<path d="M99.7,162.5h-8.3v8.2h8.3V162.5z"/>
			<path d="M99.7,187.2h-8.3v8.2h8.3V187.2z"/>
			<path d="M108,14.5h-8.3v8.2h8.3V14.5z"/>
			<path d="M108,55.6h-8.3v8.2h8.3V55.6z"/>
			<path d="M108,63.8h-8.3V72h8.3V63.8z"/>
			<path d="M108,72h-8.3v8.2h8.3V72z"/>
			<path d="M108,80.3h-8.3v8.2h8.3V80.3z"/>
			<path d="M108,104.9h-8.3v8.2h8.3V104.9z"/>
			<path d="M108,113.2h-8.3v8.2h8.3V113.2z"/>
			<path d="M108,121.4h-8.3v8.2h8.3V121.4z"/>
			<path d="M108,129.6h-8.3v8.2h8.3V129.6z"/>
			<path d="M108,137.8h-8.3v8.2h8.3V137.8z"/>
			<path d="M108,146.1h-8.3v8.2h8.3V146.1z"/>
			<path d="M108,154.3h-8.3v8.2h8.3V154.3z"/>
			<path d="M108,179h-8.3v8.2h8.3V179z"/>
			<path d="M108,187.2h-8.3v8.2h8.3V187.2z"/>
			<path d="M108,195.4h-8.3v8.2h8.3V195.4z"/>
			<path d="M108,203.6h-8.3v8.2h8.3V203.6z"/>
			<path d="M116.3,6.2H108v8.2h8.3V6.2z"/>
			<path d="M116.3,14.5H108v8.2h8.3V14.5z"/>
			<path d="M116.3,22.7H108v8.2h8.3V22.7z"/>
			<path d="M116.3,55.6H108v8.2h8.3V55.6z"/>
			<path d="M116.3,63.8H108V72h8.3V63.8z"/>
			<path d="M116.3,80.3H108v8.2h8.3V80.3z"/>
			<path d="M116.3,113.2H108v8.2h8.3V113.2z"/>
			<path d="M116.3,121.4H108v8.2h8.3V121.4z"/>
			<path d="M116.3,154.3H108v8.2h8.3V154.3z"/>
			<path d="M116.3,162.5H108v8.2h8.3V162.5z"/>
			<path d="M116.3,179H108v8.2h8.3V179z"/>
			<path d="M116.3,203.6H108v8.2h8.3V203.6z"/>
			<path d="M124.6,6.2h-8.3v8.2h8.3V6.2z"/>
			<path d="M124.6,39.1h-8.3v8.2h8.3V39.1z"/>
			<path d="M124.6,47.4h-8.3v8.2h8.3V47.4z"/>
			<path d="M124.6,55.6h-8.3v8.2h8.3V55.6z"/>
			<path d="M124.6,63.8h-8.3V72h8.3V63.8z"/>
			<path d="M124.6,72h-8.3v8.2h8.3V72z"/>
			<path d="M124.6,80.3h-8.3v8.2h8.3V80.3z"/>
			<path d="M124.6,96.7h-8.3v8.2h8.3V96.7z"/>
			<path d="M124.6,104.9h-8.3v8.2h8.3V104.9z"/>
			<path d="M124.6,146.1h-8.3v8.2h8.3V146.1z"/>
			<path d="M124.6,162.5h-8.3v8.2h8.3V162.5z"/>
			<path d="M124.6,195.4h-8.3v8.2h8.3V195.4z"/>
			<path d="M132.9,30.9h-8.3v8.2h8.3V30.9z"/>
			<path d="M132.9,39.1h-8.3v8.2h8.3V39.1z"/>
			<path d="M132.9,55.6h-8.3v8.2h8.3V55.6z"/>
			<path d="M132.9,72h-8.3v8.2h8.3V72z"/>
			<path d="M132.9,80.3h-8.3v8.2h8.3V80.3z"/>
			<path d="M132.9,88.5h-8.3v8.2h8.3V88.5z"/>
			<path d="M132.9,96.7h-8.3v8.2h8.3V96.7z"/>
			<path d="M132.9,113.2h-8.3v8.2h8.3V113.2z"/>
			<path d="M132.9,121.4h-8.3v8.2h8.3V121.4z"/>
			<path d="M132.9,146.1h-8.3v8.2h8.3V146.1z"/>
			<path d="M132.9,179h-8.3v8.2h8.3V179z"/>
			<path d="M132.9,195.4h-8.3v8.2h8.3V195.4z"/>
			<path d="M132.9,203.6h-8.3v8.2h8.3V203.6z"/>
			<path d="M141.2,6.2h-8.3v8.2h8.3V6.2z"/>
			<path d="M141.2,39.1h-8.3v8.2h8.3V39.1z"/>
			<path d="M141.2,55.6h-8.3v8.2h8.3V55.6z"/>
			<path d="M141.2,63.8h-8.3V72h8.3V63.8z"/>
			<path d="M141.2,72h-8.3v8.2h8.3V72z"/>
			<path d="M141.2,80.3h-8.3v8.2h8.3V80.3z"/>
			<path d="M141.2,96.7h-8.3v8.2h8.3V96.7z"/>
			<path d="M141.2,170.7h-8.3v8.2h8.3V170.7z"/>
			<path d="M141.2,179h-8.3v8.2h8.3V179z"/>
			<path d="M149.5,88.5h-8.3v8.2h8.3V88.5z"/>
			<path d="M149.5,121.4h-8.3v8.2h8.3V121.4z"/>
			<path d="M149.5,129.6h-8.3v8.2h8.3V129.6z"/>
			<path d="M149.5,146.1h-8.3v8.2h8.3V146.1z"/>
			<path d="M149.5,170.7h-8.3v8.2h8.3V170.7z"/>
			<path d="M149.5,179h-8.3v8.2h8.3V179z"/>
			<path d="M149.5,187.2h-8.3v8.2h8.3V187.2z"/>
			<path d="M157.8,88.5h-8.3v8.2h8.3V88.5z"/>
			<path d="M157.8,104.9h-8.3v8.2h8.3V104.9z"/>
			<path d="M157.8,121.4h-8.3v8.2h8.3V121.4z"/>
			<path d="M157.8,129.6h-8.3v8.2h8.3V129.6z"/>
			<path d="M157.8,162.5h-8.3v8.2h8.3V162.5z"/>
			<path d="M157.8,170.7h-8.3v8.2h8.3V170.7z"/>
			<path d="M157.8,187.2h-8.3v8.2h8.3V187.2z"/>
			<path d="M166.1,72h-8.3v8.2h8.3V72z"/>
			<path d="M166.1,80.3h-8.3v8.2h8.3V80.3z"/>
			<path d="M166.1,88.5h-8.3v8.2h8.3V88.5z"/>
			<path d="M166.1,96.7h-8.3v8.2h8.3V96.7z"/>
			<path d="M166.1,121.4h-8.3v8.2h8.3V121.4z"/>
			<path d="M166.1,146.1h-8.3v8.2h8.3V146.1z"/>
			<path d="M166.1,203.6h-8.3v8.2h8.3V203.6z"/>
			<path d="M174.4,88.5h-8.3v8.2h8.3V88.5z"/>
			<path d="M174.4,96.7h-8.3v8.2h8.3V96.7z"/>
			<path d="M174.4,121.4h-8.3v8.2h8.3V121.4z"/>
			<path d="M174.4,129.6h-8.3v8.2h8.3V129.6z"/>
			<path d="M174.4,137.8h-8.3v8.2h8.3V137.8z"/>
			<path d="M174.4,154.3h-8.3v8.2h8.3V154.3z"/>
			<path d="M174.4,162.5h-8.3v8.2h8.3V162.5z"/>
			<path d="M174.4,170.7h-8.3v8.2h8.3V170.7z"/>
			<path d="M174.4,179h-8.3v8.2h8.3V179z"/>
			<path d="M174.4,187.2h-8.3v8.2h8.3V187.2z"/>
			<path d="M174.4,203.6h-8.3v8.2h8.3V203.6z"/>
			<path d="M182.7,88.5h-8.3v8.2h8.3V88.5z"/>
			<path d="M182.7,113.2h-8.3v8.2h8.3V113.2z"/>
			<path d="M182.7,121.4h-8.3v8.2h8.3V121.4z"/>
			<path d="M182.7,137.8h-8.3v8.2h8.3V137.8z"/>
			<path d="M182.7,146.1h-8.3v8.2h8.3V146.1z"/>
			<path d="M182.7,162.5h-8.3v8.2h8.3V162.5z"/>
			<path d="M182.7,203.6h-8.3v8.2h8.3V203.6z"/>
			<path d="M191,88.5h-8.3v8.2h8.3V88.5z"/>
			<path d="M191,104.9h-8.3v8.2h8.3V104.9z"/>
			<path d="M191,121.4h-8.3v8.2h8.3V121.4z"/>
			<path d="M191,129.6h-8.3v8.2h8.3V129.6z"/>
			<path d="M191,137.8h-8.3v8.2h8.3V137.8z"/>
			<path d="M191,162.5h-8.3v8.2h8.3V162.5z"/>
			<path d="M191,179h-8.3v8.2h8.3V179z"/>
			<path d="M191,195.4h-8.3v8.2h8.3V195.4z"/>
			<path d="M191,203.6h-8.3v8.2h8.3V203.6z"/>
			<path d="M199.3,80.3H191v8.2h8.3V80.3z"/>
			<path d="M199.3,88.5H191v8.2h8.3V88.5z"/>
			<path d="M199.3,96.7H191v8.2h8.3V96.7z"/>
			<path d="M199.3,121.4H191v8.2h8.3V121.4z"/>
			<path d="M199.3,129.6H191v8.2h8.3V129.6z"/>
			<path d="M199.3,146.1H191v8.2h8.3V146.1z"/>
			<path d="M199.3,154.3H191v8.2h8.3V154.3z"/>
			<path d="M199.3,170.7H191v8.2h8.3V170.7z"/>
			<path d="M199.3,187.2H191v8.2h8.3V187.2z"/>
			<path d="M199.3,203.6H191v8.2h8.3V203.6z"/>
			<path d="M207.6,96.7h-8.3v8.2h8.3V96.7z"/>
			<path d="M207.6,104.9h-8.3v8.2h8.3V104.9z"/>
			<path d="M207.6,121.4h-8.3v8.2h8.3V121.4z"/>
			<path d="M207.6,129.6h-8.3v8.2h8.3V129.6z"/>
			<path d="M207.6,137.8h-8.3v8.2h8.3V137.8z"/>
			<path d="M207.6,154.3h-8.3v8.2h8.3V154.3z"/>
			<path d="M207.6,179h-8.3v8.2h8.3V179z"/>
			<path d="M207.6,195.4h-8.3v8.2h8.3V195.4z"/>
			<path d="M8.4,6.2v57.6h58.1V6.2H8.4z M62.3,59.7H12.5V10.4h49.8V59.7L62.3,59.7z"/>
			<path d="M12.5,10.4v49.3h49.8V10.4H12.5z M58.8,56.2H16.1V13.9h42.7L58.8,56.2L58.8,56.2z"/>
			<path d="M49.9,22.7H25v24.7h24.9V22.7z"/>
			<path d="M8.4,154.3v57.6h58.1v-57.6H8.4z M62.3,207.7H12.5v-49.3h49.8V207.7L62.3,207.7z"/>
			<path d="M12.5,158.4v49.3h49.8v-49.3H12.5z M58.8,204.2H16.1v-42.3h42.7L58.8,204.2L58.8,204.2z"/>
			<path d="M49.9,170.7H25v24.7h24.9V170.7z"/>
			<path d="M149.5,6.2v57.6h58.1V6.2H149.5z M203.4,59.7h-49.8V10.4h49.8V59.7z"/>
			<path d="M153.6,10.4v49.3h49.8V10.4H153.6z M199.9,56.2h-42.7V13.9h42.7V56.2z"/>
			<path d="M191,22.7h-24.9v24.7H191V22.7z"/>
		</g>
	</g>
	<path class="st1" d="M90.3,80.1h36.6c6.2,0,11.2,5,11.2,11.2v36.6c0,6.2-5,11.2-11.2,11.2H90.3c-6.2,0-11.2-5-11.2-11.2V91.4
		C79.1,85.2,84.1,80.1,90.3,80.1z"/>
	<path class="st2" d="M125,99.8h3.3v-6.2c0-1-0.4-1.9-1.1-2.6c-0.7-0.7-1.6-1.1-2.6-1.1h-6.2v3.3h6.2c0.1,0,0.2,0,0.3,0.1
		c0.1,0.1,0.1,0.2,0.1,0.3V99.8z M114.5,104.6c0.2,0.1,0.4,0.1,0.6,0.1c0.2,0,0.4,0,0.6-0.1c0.2-0.1,0.4-0.2,0.5-0.4l3.3-3.3
		c0.2-0.2,0.3-0.3,0.4-0.5c0.1-0.2,0.1-0.4,0.1-0.6c0-0.2,0-0.4-0.1-0.6c-0.1-0.2-0.2-0.4-0.4-0.5c-0.2-0.2-0.3-0.3-0.5-0.4
		c-0.2-0.1-0.4-0.1-0.6-0.1c-0.2,0-0.4,0-0.6,0.1c-0.2,0.1-0.4,0.2-0.5,0.4l-3.3,3.3c-0.2,0.2-0.3,0.3-0.4,0.5
		c-0.1,0.2-0.1,0.4-0.1,0.6c0,0.2,0,0.4,0.1,0.6c0.1,0.2,0.2,0.4,0.4,0.5C114.2,104.4,114.3,104.5,114.5,104.6z M92.1,99.8h-3.3
		v-6.2c0-1,0.4-1.9,1.1-2.6c0.7-0.7,1.6-1.1,2.6-1.1h6.2v3.3h-6.2c-0.1,0-0.2,0-0.3,0.1s-0.1,0.2-0.1,0.3V99.8z M101.4,104.6
		c0.2,0.1,0.4,0.1,0.6,0.1c0.2,0,0.4,0,0.6-0.1c0.2-0.1,0.4-0.2,0.5-0.4c0.2-0.2,0.3-0.3,0.4-0.5c0.1-0.2,0.1-0.4,0.1-0.6
		c0-0.2,0-0.4-0.1-0.6c-0.1-0.2-0.2-0.4-0.4-0.5l-3.3-3.3c-0.3-0.3-0.7-0.5-1.2-0.5c-0.4,0-0.9,0.2-1.2,0.5
		c-0.3,0.3-0.5,0.7-0.5,1.2c0,0.4,0.2,0.9,0.5,1.2l3.3,3.3C101,104.4,101.2,104.5,101.4,104.6z M124.6,129.4h-6.2v-3.3h6.2
		c0.1,0,0.2,0,0.3-0.1c0.1-0.1,0.1-0.2,0.1-0.3v-6.2h3.3v6.2c0,1-0.4,1.9-1.1,2.6C126.5,129,125.6,129.4,124.6,129.4z M117.8,121
		c0.2,0.1,0.4,0.1,0.6,0.1c0.2,0,0.4,0,0.6-0.1c0.2-0.1,0.4-0.2,0.5-0.4c0.2-0.2,0.3-0.3,0.4-0.5c0.1-0.2,0.1-0.4,0.1-0.6
		c0-0.2,0-0.4-0.1-0.6c-0.1-0.2-0.2-0.4-0.4-0.5l-3.3-3.3c-0.2-0.2-0.3-0.3-0.5-0.4c-0.2-0.1-0.4-0.1-0.6-0.1c-0.2,0-0.4,0-0.6,0.1
		c-0.2,0.1-0.4,0.2-0.5,0.4c-0.2,0.2-0.3,0.3-0.4,0.5c-0.1,0.2-0.1,0.4-0.1,0.6c0,0.2,0,0.4,0.1,0.6c0.1,0.2,0.2,0.4,0.4,0.5
		l3.3,3.3C117.4,120.8,117.6,121,117.8,121z M98.7,129.4h-6.2c-1,0-1.9-0.4-2.6-1.1c-0.7-0.7-1.1-1.6-1.1-2.6v-6.2h3.3v6.2
		c0,0.1,0,0.2,0.1,0.3c0.1,0.1,0.2,0.1,0.3,0.1h6.2V129.4z M98.1,121c0.2,0.1,0.4,0.1,0.6,0.1c0.2,0,0.4,0,0.6-0.1
		c0.2-0.1,0.4-0.2,0.5-0.4l3.3-3.3c0.2-0.2,0.3-0.3,0.4-0.5c0.1-0.2,0.1-0.4,0.1-0.6c0-0.2,0-0.4-0.1-0.6c-0.1-0.2-0.2-0.4-0.4-0.5
		c-0.2-0.2-0.3-0.3-0.5-0.4c-0.2-0.1-0.4-0.1-0.6-0.1c-0.2,0-0.4,0-0.6,0.1c-0.2,0.1-0.4,0.2-0.5,0.4l-3.3,3.3
		c-0.2,0.2-0.3,0.3-0.4,0.5c-0.1,0.2-0.1,0.4-0.1,0.6c0,0.2,0,0.4,0.1,0.6c0.1,0.2,0.2,0.4,0.4,0.5C97.7,120.8,97.9,121,98.1,121z"
		/>
</g>
</svg>
