<?xml version="1.0" encoding="utf-8"?>
<!-- Generator: Adobe Illustrator 25.2.0, SVG Export Plug-In . SVG Version: 6.00 Build 0)  -->
<svg version="1.1" id="Layer_1" xmlns="http://www.w3.org/2000/svg" xmlns:xlink="http://www.w3.org/1999/xlink" x="0px" y="0px"
	 viewBox="0 0 30 25.1" style="enable-background:new 0 0 30 25.1;" xml:space="preserve">
<style type="text/css">
	.st0{fill:#7C4DFF;}
	.st1{fill:#666666;}
</style>
<g>
	<path class="st0" d="M27.1,8.3H22h-0.1c-0.5,0-0.7,0-0.9,0c-0.2,0-0.3,0-0.7,0h-0.6c-0.7,0-0.7-1.2-0.8-2.9C18.7,3,18.7-0.4,15,0
		h-0.3l-0.1,0.3c-0.3,0.9-0.5,1.7-0.7,2.4c-0.6,2.2-1,3.8-3.3,6.3c-0.4-0.7-1.1-1.3-1.9-1.3H2.1C1,7.9,0,9,0,10.3v12.1
		c0,1.3,1,2.4,2.1,2.4h6.7c0.9,0,1.7-0.6,2-1.5c1.1,0.6,3.5,1.8,5.6,1.8h6.8c4.7,0,4.7-4.9,4.7-6.7v-5.1c0.4-0.4,1.4-1.3,1.4-2.6
		C29.2,9.6,28.1,8.3,27.1,8.3z M8.8,23.8H2.1c-0.7,0-1.2-0.7-1.2-1.5v-12c0-0.8,0.5-1.5,1.2-1.5h6.7c0.7,0,1.2,0.7,1.2,1.5v12.1
		C10.1,23.1,9.5,23.8,8.8,23.8z M27.1,12.5l-0.2,0.1v5.6c0,4.1-1.1,5.8-3.7,5.8h-6.8c-2,0-4.6-1.4-5.4-1.8v-12v-0.1
		c2.8-3,3.2-4.8,3.9-7.2c0.2-0.7,0.4-1.3,0.6-2.1c2.1-0.1,2.4,1.7,2.5,4.5c0,2,0,4,1.6,4h0.6c0.4,0,0.5,0,0.7,0s0.4,0,1,0h5.2
		c0.4,0,1.2,0.8,1.2,1.3C28.3,11.7,27.1,12.5,27.1,12.5z"/>
	<path class="st1" d="M5.5,16.8c-1.5,0-2.7,1.2-2.7,2.7s1.2,2.7,2.7,2.7s2.7-1.2,2.7-2.7S7,16.8,5.5,16.8z M5.5,21.3
		c-1,0-1.8-0.8-1.8-1.8s0.8-1.8,1.8-1.8s1.8,0.8,1.8,1.8S6.5,21.3,5.5,21.3z"/>
</g>
</svg>
