<svg id="Layer_1" data-name="Layer 1" xmlns="http://www.w3.org/2000/svg" viewBox="0 0 216 216"><defs><style>.cls-1{fill:#666;}</style></defs><path class="cls-1" d="M159.91,207.38a17.23,17.23,0,0,1-8.6-2.34L108,179.21,64.49,204.44a16.65,16.65,0,0,1-18.43-.89A17.6,17.6,0,0,1,39,185.36L49.2,134.22l-37-34.87A17.86,17.86,0,0,1,7.65,80.7a17.5,17.5,0,0,1,14.48-12l50.25-5.93L92.45,15.39a17.2,17.2,0,0,1,31.71-.06l20.73,47.72,49.34,5.62a17.17,17.17,0,0,1,14,11.68,18.8,18.8,0,0,1-4.6,19.46l-37.29,35.35L176.79,186a17.61,17.61,0,0,1-6.9,18.09A16.91,16.91,0,0,1,159.91,207.38ZM107.9,166a11.72,11.72,0,0,1,6.69,2.09l43.28,25.79a3.9,3.9,0,0,0,4.41-.25,4.76,4.76,0,0,0,1.81-5l-10.24-51.28c-.68-4.9.84-9.3,3.91-11.87l36.85-34.95a5.78,5.78,0,0,0,1.39-6,4.29,4.29,0,0,0-3.41-3l-49.86-5.92a12.29,12.29,0,0,1-9.79-7.53L112.3,20.56a4.25,4.25,0,0,0-8,.06L83.63,68.21A12.13,12.13,0,0,1,74.1,75.6L23.71,81.54A4.54,4.54,0,0,0,20,84.76,5,5,0,0,0,21.19,90l37.13,35.2c3.4,3.52,4.62,7.94,3.5,12L51.72,188a4.79,4.79,0,0,0,1.88,5,3.81,3.81,0,0,0,4.31.25l44-25.49A10.39,10.39,0,0,1,107.9,166Zm-.35,13,0,0Zm1.36-.25-.24.13Z"/></svg>