<?xml version="1.0" encoding="utf-8"?>
<!-- Generator: Adobe Illustrator 25.2.0, SVG Export Plug-In . SVG Version: 6.00 Build 0)  -->
<svg version="1.1" id="Layer_1" xmlns="http://www.w3.org/2000/svg" xmlns:xlink="http://www.w3.org/1999/xlink" x="0px" y="0px"
	 viewBox="0 0 216 216" style="enable-background:new 0 0 216 216;" xml:space="preserve">
<style type="text/css">
	.st0{fill:#7C4DFF;}
</style>
<path class="st0" d="M159.9,207.4c-3,0-6-0.8-8.6-2.3L108,179.2l-43.5,25.2c-5.8,3.4-13,3.1-18.4-0.9c-5.8-4.1-8.6-11.3-7.1-18.2
	l10.2-51.1l-37-34.9c-5-4.8-6.8-12.1-4.6-18.7c2.1-6.5,7.7-11.2,14.5-12l50.2-5.9l20.1-47.4c3.7-8.8,13.7-12.9,22.5-9.2
	c4.1,1.7,7.5,5,9.2,9.2l20.7,47.7l49.3,5.6c6.5,0.9,12,5.4,14,11.7c2.3,6.8,0.5,14.4-4.6,19.5l-37.3,35.3l10.4,50.8
	c1.5,6.9-1.2,14-6.9,18.1C167,206.2,163.5,207.4,159.9,207.4z M107.9,166c2.4,0,4.7,0.7,6.7,2.1l43.3,25.8c1.4,0.8,3.1,0.7,4.4-0.2
	c1.6-1.1,2.3-3.1,1.8-5l-10.2-51.3c-0.7-4.9,0.8-9.3,3.9-11.9l36.8-35c1.6-1.6,2.1-3.9,1.4-6c-0.5-1.6-1.8-2.7-3.4-3l-49.9-5.9
	c-4.4-0.6-8.1-3.4-9.8-7.5l-20.6-47.5c-0.8-2.2-3.3-3.3-5.5-2.5c-1.2,0.4-2.1,1.4-2.5,2.6L83.6,68.2c-1.6,4-5.3,6.8-9.5,7.4
	l-50.4,5.9c-1.8,0.3-3.2,1.5-3.7,3.2c-0.7,1.8-0.2,3.9,1.2,5.2l37.1,35.2c3.4,3.5,4.6,7.9,3.5,12L51.7,188c-0.4,1.9,0.3,3.9,1.9,5
	c1.2,1,3,1.1,4.3,0.2l44-25.5C103.7,166.6,105.8,166,107.9,166z M107.6,179L107.6,179z M108.9,178.8l-0.2,0.1L108.9,178.8z"/>
</svg>
