<?xml version="1.0" encoding="utf-8"?>
<!-- Generator: Adobe Illustrator 25.2.0, SVG Export Plug-In . SVG Version: 6.00 Build 0)  -->
<svg version="1.1" id="Layer_1" xmlns="http://www.w3.org/2000/svg" xmlns:xlink="http://www.w3.org/1999/xlink" x="0px" y="0px"
	 viewBox="0 0 144 144" style="enable-background:new 0 0 144 144;" xml:space="preserve">
<style type="text/css">
	.st0{fill:#7C4DFF;}
</style>
<g id="Group_177">
	<g id="Group_176">
		<path id="Path_1302" class="st0" d="M36.4,142c-11.4,0-20.6-9.2-20.6-20.6V22.7c0.1-9.6,6.7-17.9,16-20.1V2.1h9.1V1.9h47
			c1.1,0,2.2,0.1,3.2,0.2h16.5c11.4,0,20.6,9.2,20.7,20.6v18.6c0,0.3,0,0.7,0,1v77.3h-0.1v1.8c0,11.4-9.2,20.6-20.6,20.7L36.4,142z
			 M38.7,11.3h-2.4c-6.3,0-11.3,5.1-11.4,11.4v98.7c0,6.3,5.1,11.3,11.4,11.4h71.2c6.3,0,11.4-5.1,11.4-11.4v-11.1l0,0V41.9
			c0-0.2,0-0.4,0-0.7V22.7c0-6.3-5.1-11.3-11.4-11.3H90.5c-0.8-0.1-1.8-0.1-2.6-0.1H50.2v0.1L38.7,11.3z"/>
	</g>
	<path id="Path_1305" class="st0" d="M106.7,74.5c0-5.6-9-9.9-21-9.9c-2.1,0-4.2,0.1-6.3,0.4V51.4c0-5.6-9-9.9-21-9.9
		s-21,4.2-21,9.9v29.5c0,5.6,9,9.9,21,9.9c2.1,0,4.2-0.1,6.3-0.4v3.8c0,5.6,9,9.9,21,9.9s21-4.2,21-9.9L106.7,74.5z M81.2,68
		c1.5-0.2,3-0.2,4.4-0.2c10.3,0,18,3.6,18,6.8s-7.7,6.8-17.9,6.8c-1.5,0-2.9-0.1-4.2-0.2c-8.1-0.8-13.8-3.8-13.8-6.6
		c0-0.3,0.1-0.7,0.3-1C71.4,70,76.2,67.9,81.2,68z M81.7,90.9c-8.2-0.8-13.9-3.8-13.9-6.6v-4.5c4.1,2.7,8.9,4.2,13.8,4.4
		c1.3,0.1,2.7,0.2,4.1,0.2c6.3,0.4,12.6-1.2,18-4.6v4.5c0,3.2-7.7,6.8-18,6.8C84.3,91.1,83,91,81.7,90.9L81.7,90.9z M58.4,44.6
		c10.3,0,18,3.6,18,6.8s-7.7,6.7-18,6.7s-18-3.6-18-6.7S48.1,44.6,58.4,44.6z M64.7,84.3v2.9c-2.1,0.3-4.2,0.4-6.3,0.4
		c-10.2,0-18-3.6-18-6.8v-4.6c5.4,3.3,11.7,4.9,18,4.6c2.1,0,4.2-0.1,6.3-0.4V84.3z M64.7,74.5v2.8c-2.1,0.3-4.2,0.5-6.3,0.5
		c-10.2,0-18-3.6-18-6.8v-4.6c5.4,3.3,11.7,4.9,18,4.6c2.7,0,5.5-0.2,8.2-0.7C65.4,71.4,64.7,72.9,64.7,74.5L64.7,74.5z M58.4,67.9
		c-10.3,0-18-3.6-18-6.8v-4.5c5.4,3.3,11.7,4.9,18,4.6c6.3,0.4,12.6-1.2,18-4.6v4.5C76.4,64.3,68.7,67.9,58.4,67.9L58.4,67.9z
		 M103.6,94.2c0,3.2-7.7,6.8-18,6.8s-18-3.6-18-6.8v-4.4l0.2-0.1c5.3,3.2,11.5,4.8,17.8,4.4c6.3,0.4,12.6-1.2,18-4.6L103.6,94.2z"/>
</g>
</svg>
