<svg data-name="Layer 1" id="Layer_1" viewBox="0 0 144 144" xmlns="http://www.w3.org/2000/svg">
    <defs>
        <style>.cls-1{fill:#1058ff;}</style>
    </defs>
    <title>Home_blue</title>
    <path class="cls-1"
        d="M136.21,42,81.49,5.55a13.66,13.66,0,0,0-15.18,0L11.59,42A13.7,13.7,0,0,0,5.5,53.4v72.94A13.75,13.75,0,0,0,19.18,140H128.62a13.75,13.75,0,0,0,13.68-13.68v-73A13.69,13.69,0,0,0,136.21,42Zm-3,38.75v45.59a4.51,4.51,0,0,1-4.43,4.56H19.17a4.49,4.49,0,0,1-4.56-4.42V53.41a4.55,4.55,0,0,1,2-3.81L71.35,13.13a4.59,4.59,0,0,1,2.49-.76,4.49,4.49,0,0,1,2.59.76L131.15,49.6a4.58,4.58,0,0,1,2,3.81Z"
        data-name="Path 1277" id="Path_1277" />
</svg>