<?xml version="1.0" encoding="utf-8"?>
<!-- Generator: Adobe Illustrator 25.2.0, SVG Export Plug-In . SVG Version: 6.00 Build 0)  -->
<svg version="1.1" id="Layer_1" xmlns="http://www.w3.org/2000/svg" xmlns:xlink="http://www.w3.org/1999/xlink" x="0px" y="0px"
	 viewBox="0 0 144 144" style="enable-background:new 0 0 144 144;" xml:space="preserve">
<style type="text/css">
	.st0{fill:#7C4DFF;}
</style>
<path id="Path_1277" class="st0" d="M136.2,42L81.5,5.6c-4.6-3.1-10.6-3.1-15.2,0L11.6,42c-3.8,2.5-6.1,6.8-6.1,11.4v72.9
	c0,7.5,6.1,13.6,13.7,13.7h109.4c7.5,0,13.6-6.1,13.7-13.7v-73C142.3,48.8,140,44.5,136.2,42z M133.2,80.8v45.6c0,2.5-2,4.5-4.4,4.6
	H19.2c-2.5,0-4.5-1.9-4.6-4.4c0,0,0,0,0,0V53.4c0-1.5,0.7-3,2-3.8l54.7-36.5c0.7-0.5,1.6-0.8,2.5-0.8c0.9,0,1.8,0.2,2.6,0.8
	l54.7,36.5c1.3,0.9,2,2.3,2,3.8L133.2,80.8z"/>
</svg>
