<?xml version="1.0" encoding="utf-8"?>
<!-- Generator: Adobe Illustrator 25.2.0, SVG Export Plug-In . SVG Version: 6.00 Build 0)  -->
<svg version="1.1" id="Layer_1" xmlns="http://www.w3.org/2000/svg" xmlns:xlink="http://www.w3.org/1999/xlink" x="0px" y="0px"
	 viewBox="0 0 216 216" style="enable-background:new 0 0 216 216;" xml:space="preserve">
<style type="text/css">
	.st0{fill:#666666;}
</style>
<g>
	<path class="st0" d="M188.8,63.6V36.9c-0.1-16.4-13.3-29.6-29.7-29.7h-23.8c-1.4-0.1-3-0.2-4.6-0.2H63.3v0.2H50.1V8
		c-13.4,3.2-22.9,15.1-23,28.9v142.2c0.1,16.4,13.3,29.6,29.7,29.7h102.4c16.3-0.1,29.6-13.4,29.6-29.7v-2.6h0.1V65.2
		C188.9,64.7,188.8,64.2,188.8,63.6z M175.6,63.6c0,0.3,0,0.6,0,1v98.5h-0.1V179c-0.1,9-7.3,16.3-16.3,16.4H56.9
		c-9-0.1-16.3-7.3-16.3-16.3V36.9c0.1-9,7.3-16.3,16.3-16.4h3.4l16.4,0.1v-0.2h54.2c1.2,0,2.5,0.1,3.8,0.2h24.6
		c9,0,16.3,7.4,16.4,16.4V63.6z"/>
	<path class="st0" d="M127.7,97.2c-3,0-5.9,0.2-8.9,0.6V78.2c0-8.2-13-14.4-30.3-14.4c-17.3,0-30.4,6.2-30.4,14.4v42.5
		c0,8.2,13.1,14.4,30.4,14.4c0.1,0,0.2,0,0.4,0c2.8,0,5.7-0.2,8.5-0.5v5.4c0,8.2,13.1,14.4,30.4,14.4c17.3,0,30.3-6.2,30.3-14.4
		v-28.4C158,103.3,145,97.2,127.7,97.2z M97.3,111.6v3.8c-2.9,0.4-5.9,0.7-8.9,0.7c-14.7,0-25.6-5.1-25.6-9.7v-6.3
		c7.7,4.7,16.6,7,25.6,6.5c0.1,0,0.1,0,0.2,0c3.7,0,7.5-0.3,11.1-1c-1.5,1.6-2.4,3.7-2.5,5.9L97.3,111.6L97.3,111.6z M62.8,114.3
		c7.7,4.8,16.6,7,25.6,6.5c0.1,0,0.2,0,0.3,0c2.8,0,5.7-0.2,8.5-0.5l0,9.4c-2.9,0.4-5.9,0.6-8.9,0.6c-14.7,0-25.6-5.1-25.6-9.6
		V114.3z M88.4,87.8c-14.7,0-25.6-5-25.6-9.6c0-4.4,11.2-9.6,25.6-9.6c14.7,0,25.7,5.1,25.7,9.7C114.1,82.7,103.1,87.8,88.4,87.8z
		 M114.1,86v6.2c0,4.5-10.9,9.6-25.5,9.7v-0.1h-0.1c-14.7,0-25.7-5.1-25.7-9.6V86c7.7,4.7,16.6,7,25.6,6.5
		C97.5,93,106.4,90.8,114.1,86z M121.4,102.2c2.1-0.2,4.1-0.3,6.2-0.3c14.7,0,25.7,5.1,25.7,9.6c0,4.6-11,9.7-25.6,9.7
		c0,0-0.1,0-0.1,0c-1.9,0-3.9-0.1-5.9-0.3c-12.3-1.2-19.6-5.7-19.6-9.3c0-0.5,0.1-1,0.4-1.4c4.8-5,11.5-7.8,18.4-7.8
		c0.1,0,0.3,0,0.4,0L121.4,102.2L121.4,102.2z M102,133.6L102,133.6c7.8,4.6,16.7,6.8,25.6,6.4c9.1,0.5,17.9-1.7,25.6-6.5v6.3
		c0,4.6-11,9.7-25.7,9.7c-14.7,0-25.6-5.1-25.6-9.7V133.6z M127.7,135.2c-1.9,0-3.8-0.1-5.7-0.3l-0.2,0v0
		c-12.2-1.2-19.7-5.7-19.7-9.3v-6.2c5.9,3.8,12.7,6,19.7,6.2c2,0.2,4,0.3,5.9,0.3c0,0,0,0,0,0c9,0.5,17.9-1.8,25.6-6.5v6.1
		C153.3,130.1,142.3,135.2,127.7,135.2z"/>
</g>
</svg>
