<?xml version="1.0" encoding="utf-8"?>
<!-- Generator: Adobe Illustrator 25.2.0, SVG Export Plug-In . SVG Version: 6.00 Build 0)  -->
<svg version="1.1" id="Layer_1" xmlns="http://www.w3.org/2000/svg" xmlns:xlink="http://www.w3.org/1999/xlink" x="0px" y="0px"
	 viewBox="0 0 144 144" style="enable-background:new 0 0 144 144;" xml:space="preserve">
<style type="text/css">
	.st0{fill:#7C4DFF;}
</style>
<g id="Group_241">
	<path id="Path_1288" class="st0" d="M140.4,63.1c0-30.3-24.6-54.8-54.8-54.8H58.4C28.2,8.3,3.6,32.9,3.6,63.1v17.8
		c0,30.3,24.6,54.8,54.8,54.8h27.2c30.3,0,54.8-24.6,54.8-54.8V63.1z M132,80.9c0,25.6-20.8,46.4-46.4,46.4H58.4
		c-25.6,0-46.4-20.8-46.4-46.4V63.1c0-25.6,20.8-46.4,46.4-46.4h27.2c25.6,0,46.4,20.8,46.4,46.4V80.9z"/>
	<g id="Group_142">
		<path id="Path_1289" class="st0" d="M70,66.8c-0.8-6.7-2.4-20.7-10.2-26.8c-7.1-6.1-17.9-5.2-24,1.9s-5.2,17.9,1.9,24
			c0.3,0.3,0.6,0.5,1,0.8c5,3.3,11,4.9,17,4.5c3.8-0.1,7.6-0.3,11.4-0.8c0.9-0.1,1.7-0.6,2.2-1.3C69.9,68.4,70.1,67.6,70,66.8z
			 M55.9,44.9c4.9,3.9,6.6,13.7,7.4,19.5c-5.8,0.6-15.6,1.2-20.6-2.7c-4.6-3.6-5.4-10.3-1.8-15c1.8-2.2,4.3-3.7,7.1-4
			c0.4-0.1,0.9-0.1,1.3-0.1C51.7,42.7,54,43.4,55.9,44.9L55.9,44.9z"/>
		<path id="Path_1290" class="st0" d="M74.6,69.1c0.5,0.7,1.3,1.2,2.2,1.2c3.8,0.5,7.6,0.8,11.4,0.8c6,0.4,12-1.2,17-4.5
			c7.1-6.2,7.8-16.9,1.7-24c-5.8-6.6-15.6-7.8-22.7-2.7l0,0c-7.8,6.1-9.4,20-10.1,26.8C73.9,67.6,74.1,68.4,74.6,69.1z M94.6,42.6
			c0.4,0,0.8,0,1.3,0.1c5.8,0.7,10,5.9,9.4,11.8c-0.3,2.8-1.8,5.4-4,7.2c-5,3.9-14.8,3.4-20.6,2.7c0.8-5.8,2.5-15.6,7.4-19.5
			C89.9,43.4,92.2,42.6,94.6,42.6z"/>
		<path id="Path_1291" class="st0" d="M74,77.2c0.8,6.7,2.3,20.7,10.1,26.8c7.4,5.8,18.1,4.6,23.9-2.8s4.6-18.1-2.8-23.9
			c-5-3.3-11-4.9-17-4.5c-3.8,0.1-7.6,0.3-11.4,0.8c-0.9,0.1-1.7,0.6-2.2,1.3C74.1,75.6,73.9,76.4,74,77.2z M88.1,99.1
			c-4.9-3.9-6.6-13.7-7.4-19.5c5.8-0.6,15.6-1.2,20.6,2.7c4.6,3.6,5.5,10.3,1.9,14.9c-1.8,2.3-4.4,3.7-7.3,4.1
			c-0.4,0-0.8,0.1-1.3,0.1C92.3,101.4,90,100.6,88.1,99.1L88.1,99.1z"/>
		<path id="Path_1292" class="st0" d="M69.4,75c-0.5-0.7-1.3-1.2-2.2-1.3c-3.8-0.5-7.6-0.8-11.4-0.8c-6-0.4-12,1.2-17,4.5
			c-7.4,5.8-8.6,16.5-2.8,23.9c5.8,7.4,16.5,8.6,23.9,2.8l0,0C67.6,97.9,69.2,84,70,77.2C70.1,76.4,69.9,75.6,69.4,75z M49.4,101.4
			c-0.4,0-0.8,0-1.3-0.1c-5.8-0.7-10-5.9-9.4-11.8c0.3-2.8,1.8-5.4,4-7.2c5-3.9,14.8-3.3,20.6-2.7c-0.8,5.8-2.5,15.6-7.4,19.5
			C54.1,100.6,51.7,101.4,49.4,101.4L49.4,101.4z"/>
	</g>
</g>
</svg>
