<?xml version="1.0" encoding="utf-8"?>
<!-- Generator: Adobe Illustrator 25.2.0, SVG Export Plug-In . SVG Version: 6.00 Build 0)  -->
<svg version="1.1" id="Layer_1" xmlns="http://www.w3.org/2000/svg" xmlns:xlink="http://www.w3.org/1999/xlink" x="0px" y="0px"
	 viewBox="0 0 216 216" style="enable-background:new 0 0 216 216;" xml:space="preserve">
<style type="text/css">
	.st0{fill:#7C4DFF;}
</style>
<g id="Group_145">
	<g id="Group_147">
		<g id="Group_145-2">
			<path id="Path_1293" class="st0" d="M108.9,97.8c-15.8,0-28.7-12.8-28.7-28.7s12.8-28.7,28.7-28.7s28.7,12.8,28.7,28.7l0,0
				C137.6,84.9,124.8,97.8,108.9,97.8z M108.9,48.8c-11.2,0-20.4,9.1-20.4,20.4c0,11.2,9.1,20.4,20.4,20.4
				c11.2,0,20.4-9.1,20.4-20.4c0,0,0,0,0,0l0,0C129.3,57.9,120.2,48.7,108.9,48.8L108.9,48.8z"/>
		</g>
		<g id="Group_146">
			<path id="Path_1294" class="st0" d="M156.6,177.1H61.1c-6.2,0.6-12.4-1.7-16.6-6.4c-2.5-3.5-3.4-7.8-2.4-12l1.8-8.3
				c1.6-12.6,8.7-23.9,19.4-30.8c4.8-3.2,10.2-5.4,15.9-6.5h0.3h58.7h0.3c5.7,1.1,11.1,3.3,15.9,6.5c10.7,6.9,17.8,18.2,19.4,30.8
				l1.8,8.3c1,4.2,0.1,8.5-2.4,12C169,175.4,162.8,177.7,156.6,177.1z M50.8,160.9c-0.3,1.5,0,3.1,0.9,4.3c2.6,2.2,6,3.2,9.5,2.8
				h95.5c3.4,0.4,6.9-0.6,9.5-2.9c0.8-1.3,1.1-2.8,0.8-4.3l-0.1-0.2l-1.9-8.9C163.1,137,152,125,137.4,122H80.2
				c-14.6,3-25.7,15-27.5,29.7l0,0.3L50.8,160.9z"/>
		</g>
	</g>
</g>
</svg>
