<?xml version="1.0" encoding="utf-8"?>
<!-- Generator: Adobe Illustrator 25.2.0, SVG Export Plug-In . SVG Version: 6.00 Build 0)  -->
<svg version="1.1" id="Layer_1" xmlns="http://www.w3.org/2000/svg" xmlns:xlink="http://www.w3.org/1999/xlink" x="0px" y="0px"
	 viewBox="0 0 288 265.5" style="enable-background:new 0 0 288 265.5;" xml:space="preserve">
<style type="text/css">
	.st0{fill:#E4E4E4;}
	.st1{fill:#7C4DFF;fill-opacity:0.2;}
	.st2{fill:#FFFFFF;}
	.st3{fill:#494949;}
	.st4{fill:#7C4DFF;}
	.st5{fill:#D3D3D3;}
	.st6{fill:#DDDDDD;}
	.st7{fill:#DFD5F9;}
	.st8{fill:#CCB9FF;}
	.st9{fill:#EBE4FF;}
	.st10{fill:#313131;}
	.st11{fill:#0B212E;}
	.st12{fill:#D39F75;}
	.st13{fill:#838384;}
	.st14{fill:#F9F8EF;}
	.st15{fill:#AFAFAF;}
	.st16{fill:#B17F57;}
	.st17{fill:#AF8765;}
</style>
<g>
	<path class="st0" d="M151.6,222.2c54.2,0,98.2-43.9,98.2-98.2c0-54.2-43.9-98.2-98.2-98.2c-54.2,0-98.2,43.9-98.2,98.2
		C53.5,178.3,97.4,222.2,151.6,222.2z"/>
	<path class="st1" d="M135.6,194.2c48.9,0,88.6-39.7,88.6-88.6c0-48.9-39.7-88.6-88.6-88.6C86.7,17,47,56.6,47,105.6
		C47,154.5,86.7,194.2,135.6,194.2z"/>
	<path class="st2" d="M238.7,92.2l-5.4,29.3l23.5,4.3l5.4-29.3L238.7,92.2z"/>
	<path class="st3" d="M256.9,125.9C256.9,125.9,256.8,125.9,256.9,125.9l-23.6-4.3c0,0,0,0-0.1,0c0,0,0,0,0-0.1l5.4-29.4
		c0,0,0,0,0-0.1c0,0,0,0,0.1,0l23.5,4.3c0,0,0,0,0.1,0c0,0,0,0,0,0.1L256.9,125.9C256.9,125.9,256.9,125.9,256.9,125.9z
		 M233.4,121.4l23.4,4.3l5.4-29.2l-23.4-4.3L233.4,121.4z"/>
	<path class="st3" d="M255,119.8C255,119.8,254.9,119.9,255,119.8l-17.6-3.2c0,0,0,0-0.1,0c0,0,0,0,0-0.1l3.4-18.5c0,0,0,0,0-0.1
		c0,0,0,0,0.1,0c0,0,0,0,0.1,0c0,0,0,0,0,0.1l-3.4,18.4l17.5,3.2c0,0,0,0,0,0C255,119.7,255,119.7,255,119.8
		C255,119.8,255,119.8,255,119.8C255,119.8,255,119.8,255,119.8L255,119.8z"/>
	<path class="st4" d="M240.6,109.2l-1.1,5.7l2.7,0.5l1.1-5.7L240.6,109.2z"/>
	<path class="st4" d="M244.6,111.5l-0.8,4.2l2.7,0.5l0.8-4.2L244.6,111.5z"/>
	<path class="st4" d="M249.2,110l-1.2,6.5l2.7,0.5l1.2-6.5L249.2,110z"/>
	<path class="st4" d="M253.9,108.5l-1.6,8.8l2.7,0.5l1.6-8.8L253.9,108.5z"/>
	<path class="st4" d="M253.1,105.9l2.9-4.5l-5.2,1.1L253.1,105.9z"/>
	<path class="st3" d="M253.1,106.1l-2.5-3.6l5.5-1.2L253.1,106.1z M251,102.6l0.9,1.2l1.3,1.9l2.7-4.2L251,102.6z"/>
	<path class="st3" d="M247.2,107.5C247.2,107.5,247.2,107.5,247.2,107.5C247.2,107.5,247.2,107.5,247.2,107.5
		C247.1,107.5,247.1,107.5,247.2,107.5c-0.1,0-0.1,0-0.1,0l-2.2-3.2l-4.2,2.9c0,0,0,0,0,0c0,0,0,0,0,0s0,0,0,0c0,0,0,0,0,0
		c0,0,0,0,0,0c0,0,0,0,0,0c0,0,0,0,0,0c0,0,0,0,0,0l4.2-2.9c0,0,0,0,0.1,0c0,0,0,0,0,0c0,0,0,0,0,0l2.2,3.2l4.6-3.1c0,0,0,0,0,0
		c0,0,0,0,0,0c0,0,0,0,0,0c0,0,0,0,0,0c0,0,0,0,0,0c0,0,0,0,0,0c0,0,0,0,0,0c0,0,0,0,0,0L247.2,107.5z"/>
	<path class="st2" d="M135.1,223.6l19.7,5c0.6,0.2,1.2,0.1,1.8-0.3c0.5-0.3,0.9-0.8,1.1-1.4l4.3-16.8l-24.2-6.1l-4.3,16.8
		c-0.2,0.6-0.1,1.2,0.3,1.8C134,223.1,134.5,223.4,135.1,223.6z"/>
	<path class="st3" d="M154.8,228.7l-19.7-5c-0.6-0.2-1.2-0.6-1.5-1.1c-0.3-0.6-0.4-1.2-0.3-1.9l4.3-16.8c0,0,0-0.1,0.1-0.1
		c0,0,0.1,0,0.1,0l24.2,6.1c0,0,0.1,0,0.1,0.1c0,0,0,0.1,0,0.1l-4.3,16.8c-0.2,0.6-0.6,1.2-1.1,1.5
		C156.1,228.8,155.4,228.9,154.8,228.7z M137.8,204.2l-4.2,16.6c-0.1,0.6-0.1,1.2,0.2,1.7c0.3,0.5,0.8,0.9,1.3,1l19.7,5
		c0.6,0.1,1.2,0.1,1.7-0.2c0.5-0.3,0.9-0.8,1-1.3l4.2-16.6L137.8,204.2z"/>
	<path class="st4" d="M162.6,207.2c0.1-0.3,0.1-0.6,0-0.9c0-0.3-0.1-0.6-0.3-0.9c-0.2-0.3-0.4-0.5-0.6-0.7c-0.2-0.2-0.5-0.3-0.8-0.4
		l-19.7-5c-0.3-0.1-0.6-0.1-0.9,0c-0.3,0-0.6,0.1-0.9,0.3c-0.3,0.2-0.5,0.4-0.7,0.6c-0.2,0.2-0.3,0.5-0.4,0.8l-0.7,2.9l24.2,6.1
		L162.6,207.2z"/>
	<path class="st3" d="M161.8,210.3l-24.2-6.1c0,0-0.1,0-0.1-0.1c0,0,0-0.1,0-0.1l0.7-2.9c0.2-0.6,0.6-1.2,1.1-1.5s1.2-0.4,1.9-0.3
		l19.7,5c0.6,0.2,1.2,0.6,1.5,1.1c0.3,0.6,0.4,1.2,0.3,1.9l-0.7,2.9C162,210.2,162,210.2,161.8,210.3
		C161.9,210.3,161.9,210.3,161.8,210.3z M137.9,203.9l23.9,6.1l0.7-2.8c0.1-0.6,0.1-1.2-0.2-1.7c-0.3-0.5-0.8-0.9-1.3-1l-19.7-5
		c-0.6-0.1-1.2-0.1-1.7,0.2c-0.5,0.3-0.9,0.8-1,1.3L137.9,203.9z"/>
	<path class="st2" d="M143.1,211.5c2.7-1.5,4.7,1.8,2.6,3.4c-0.7,0.6-1.6,1.2-3.6,2.5l-0.1,0l3.4,0.9"/>
	<path class="st3" d="M145.5,218.5l-3.4-0.9c0,0-0.1,0-0.1,0c0,0,0-0.1,0-0.1c0,0,0-0.1,0-0.1c0,0,0,0,0.1,0l0.1,0
		c2-1.3,2.9-1.9,3.6-2.5c0.4-0.3,0.7-0.7,0.8-1.2c0.1-0.5,0-1-0.3-1.4c-0.3-0.5-0.8-0.8-1.4-0.9c-0.6-0.1-1.1,0-1.6,0.3
		c0,0-0.1,0-0.1,0c0,0-0.1,0-0.1-0.1c0,0,0-0.1,0-0.1c0,0,0-0.1,0.1-0.1c0.5-0.4,1.2-0.5,1.8-0.4c0.6,0.1,1.2,0.5,1.5,1
		c0.3,0.5,0.4,1.1,0.3,1.6c-0.1,0.6-0.4,1.1-0.9,1.4c-0.7,0.5-1.5,1.1-3.4,2.4l3.1,0.8c0,0,0.1,0,0.1,0.1c0,0,0,0.1,0,0.1
		c0,0,0,0.1-0.1,0.1C145.5,218.5,145.5,218.5,145.5,218.5L145.5,218.5z"/>
	<path class="st2" d="M149.1,212.3l4.5,1.1l-0.3,1.2c-1.7,1.2-3,2.8-3.8,4.7"/>
	<path class="st3" d="M149.5,219.5L149.5,219.5C149.5,219.5,149.5,219.4,149.5,219.5c-0.1-0.1-0.1-0.1-0.1-0.2
		c0.8-1.9,2.1-3.6,3.8-4.7l0.3-1l-4.4-1.1c0,0,0,0-0.1,0c0,0,0,0,0,0c0,0,0,0,0-0.1c0,0,0,0,0-0.1c0,0,0,0,0,0c0,0,0,0,0,0
		c0,0,0,0,0.1,0c0,0,0,0,0.1,0l4.5,1.1c0,0,0.1,0,0.1,0.1c0,0,0,0.1,0,0.1l-0.3,1.2c0,0,0,0.1-0.1,0.1c-1.7,1.1-3,2.8-3.7,4.6
		C149.7,219.4,149.6,219.5,149.5,219.5C149.6,219.5,149.6,219.5,149.5,219.5z"/>
	<path class="st4" d="M154.8,228.6c0.6,0.2,1.2,0.1,1.8-0.3c0.5-0.3,0.9-0.8,1.1-1.4l1.1-4.4l-8.3,4.9L154.8,228.6z"/>
	<path class="st5" d="M154.8,228.7l-4.4-1.1c0,0,0,0,0,0c0,0,0,0,0,0s0,0,0,0c0,0,0,0,0-0.1c0,0,0-0.1,0.1-0.1l8.3-4.9
		c0,0,0,0,0.1,0c0,0,0.1,0,0.1,0c0,0,0,0,0,0.1c0,0,0,0.1,0,0.1l-1.1,4.3c-0.2,0.6-0.6,1.2-1.1,1.5
		C156.1,228.8,155.4,228.9,154.8,228.7z M150.8,227.4l4,1c0.6,0.1,1.2,0.1,1.7-0.2c0.5-0.3,0.9-0.8,1-1.3l1-4L150.8,227.4z"/>
	<path class="st2" d="M154.8,221.5c-0.7-0.2-1.5-0.1-2.2,0.3c-0.7,0.4-1.1,1-1.3,1.8l-1,3.8l0.1,0l8.3-4.9l0,0L154.8,221.5z"/>
	<path class="st3" d="M150.4,227.6L150.4,227.6c-0.1,0-0.2-0.1-0.2-0.1c0,0,0-0.1,0-0.1l1-3.8c0.2-0.8,0.7-1.5,1.4-1.9
		c0.7-0.4,1.5-0.5,2.3-0.3l3.9,1c0,0,0.1,0,0.1,0.1c0,0,0,0.1,0,0.1l0,0c0,0,0,0,0,0c0,0,0,0,0,0L150.4,227.6
		C150.5,227.6,150.4,227.6,150.4,227.6z M154.8,221.6c-0.7-0.2-1.5-0.1-2.1,0.3c-0.6,0.4-1.1,1-1.3,1.7l-0.9,3.6l7.9-4.7
		L154.8,221.6z"/>
	<path class="st2" d="M136.1,10.3c0-0.1,0-0.2,0-0.3c0-0.1,0-0.2,0.1-0.3c0.1-0.1,0.1-0.2,0.2-0.2c0.1-0.1,0.2-0.1,0.3-0.1l13.8-3.9
		c0.1,0,0.2,0,0.3,0c0.1,0,0.2,0,0.3,0.1c0.1,0.1,0.2,0.1,0.2,0.2c0.1,0.1,0.1,0.2,0.1,0.3l5.6,19.5c0.1,0.2,0,0.4-0.1,0.6
		c-0.1,0.2-0.3,0.3-0.5,0.4l-13.8,3.9c-0.2,0.1-0.4,0-0.6-0.1s-0.3-0.3-0.4-0.5L136.1,10.3z"/>
	<path class="st3" d="M156.5,26.6l-13.8,3.9c-0.2,0.1-0.5,0-0.7-0.1c-0.2-0.1-0.4-0.3-0.5-0.6L136,10.3c-0.1-0.2,0-0.5,0.1-0.7
		c0.1-0.2,0.3-0.4,0.6-0.5l13.8-3.9c0.1,0,0.2,0,0.4,0c0.1,0,0.2,0.1,0.4,0.1c0.1,0.1,0.2,0.1,0.3,0.2s0.1,0.2,0.2,0.3l5.6,19.5
		c0,0.1,0,0.2,0,0.4c0,0.1-0.1,0.2-0.1,0.4c-0.1,0.1-0.1,0.2-0.2,0.3S156.6,26.5,156.5,26.6z M136.7,9.4c-0.2,0.1-0.3,0.2-0.4,0.3
		c-0.1,0.2-0.1,0.4-0.1,0.5l5.6,19.5c0.1,0.2,0.2,0.3,0.3,0.4c0.2,0.1,0.4,0.1,0.5,0.1l13.8-3.9c0.1,0,0.2-0.1,0.2-0.1
		c0.1-0.1,0.1-0.1,0.2-0.2c0-0.1,0.1-0.2,0.1-0.3c0-0.1,0-0.2,0-0.3l-5.6-19.5c-0.1-0.2-0.2-0.3-0.3-0.4c-0.2-0.1-0.4-0.1-0.5-0.1
		L136.7,9.4z"/>
	<path class="st6" d="M151.3,11.3c0,0.1,0,0.1,0,0.2c0,0-0.1,0.1-0.1,0.1l-11.7,3.3c0,0-0.1,0-0.1,0c0,0-0.1,0-0.1,0
		c0,0,0,0-0.1-0.1c0,0,0,0,0-0.1l-1.1-4c0-0.1,0-0.1,0-0.2c0,0,0.1-0.1,0.1-0.1l11.7-3.3c0.1,0,0.1,0,0.2,0c0,0,0.1,0.1,0.1,0.1
		L151.3,11.3z"/>
	<path class="st5" d="M151.1,11.6l-11.7,3.3c-0.1,0-0.1,0-0.2,0c-0.1,0-0.1-0.1-0.1-0.2l-1.1-4c0-0.1,0-0.1,0-0.2
		c0-0.1,0.1-0.1,0.2-0.1l11.7-3.3c0,0,0.1,0,0.1,0c0,0,0.1,0,0.1,0c0,0,0.1,0,0.1,0.1c0,0,0,0.1,0,0.1l1.1,4c0,0,0,0.1,0,0.1
		c0,0,0,0.1,0,0.1C151.3,11.5,151.2,11.5,151.1,11.6C151.2,11.6,151.2,11.6,151.1,11.6z M138.2,10.5
		C138.2,10.5,138.1,10.6,138.2,10.5c-0.1,0.1-0.1,0.2-0.1,0.2l1.1,4c0,0,0,0.1,0.1,0.1c0,0,0.1,0,0.1,0l11.7-3.3c0,0,0.1,0,0.1-0.1
		c0,0,0-0.1,0-0.1l-1.1-4c0,0,0-0.1-0.1-0.1c0,0-0.1,0-0.1,0L138.2,10.5z"/>
	<path class="st4" d="M147.8,16.2C147.8,16.2,147.8,16.2,147.8,16.2c0,0.1,0,0.1,0,0.1c0,0,0,0,0,0c0,0,0,0-0.1,0l-2.6,0.7
		c0,0,0,0-0.1,0c0,0,0,0-0.1,0c0,0,0,0,0,0c0,0,0,0,0-0.1l-0.4-1.4c0,0,0-0.1,0-0.1c0,0,0.1-0.1,0.1-0.1l2.6-0.7c0,0,0.1,0,0.1,0
		c0,0,0.1,0.1,0.1,0.1L147.8,16.2z"/>
	<path class="st4" d="M152.4,14.8C152.4,14.9,152.4,14.9,152.4,14.8c0,0.1,0,0.1,0,0.1c0,0,0,0,0,0c0,0,0,0-0.1,0l-2.6,0.7
		c0,0,0,0-0.1,0c0,0,0,0-0.1,0c0,0,0,0,0,0c0,0,0,0,0-0.1l-0.4-1.4c0,0,0-0.1,0-0.1c0,0,0.1-0.1,0.1-0.1l2.6-0.7c0,0,0.1,0,0.1,0
		c0,0,0.1,0.1,0.1,0.1L152.4,14.8z"/>
	<path class="st4" d="M143.1,17.5C143.1,17.5,143.1,17.5,143.1,17.5c0,0.1,0,0.1,0,0.1c0,0,0,0,0,0c0,0,0,0-0.1,0l-2.6,0.7
		c0,0-0.1,0-0.1,0c0,0-0.1-0.1-0.1-0.1l-0.4-1.4c0,0,0-0.1,0-0.1c0,0,0.1-0.1,0.1-0.1l2.6-0.7c0,0,0.1,0,0.1,0c0,0,0.1,0.1,0.1,0.1
		L143.1,17.5z"/>
	<path class="st4" d="M146.2,18.5l1.2-0.4c0.1,0,0.2,0,0.3,0c0.1,0,0.2,0,0.3,0.1c0.1,0.1,0.2,0.1,0.3,0.2c0.1,0.1,0.1,0.2,0.2,0.3
		c0.1,0.2,0,0.5-0.1,0.7c-0.1,0.2-0.3,0.4-0.5,0.4l-1.2,0.4c-0.1,0-0.2,0-0.3,0c-0.1,0-0.2,0-0.3-0.1c-0.1-0.1-0.2-0.1-0.3-0.2
		c-0.1-0.1-0.1-0.2-0.2-0.3c0-0.1,0-0.2,0-0.3s0-0.2,0.1-0.3c0.1-0.1,0.1-0.2,0.2-0.3C146,18.6,146.1,18.6,146.2,18.5z"/>
	<path class="st4" d="M153.4,18.1c0,0,0,0.1,0,0.1c0,0-0.1,0.1-0.1,0.1l-2.6,0.7c0,0-0.1,0-0.1,0c0,0-0.1-0.1-0.1-0.1l-0.4-1.4
		c0,0,0-0.1,0-0.1c0,0,0.1-0.1,0.1-0.1l2.6-0.7c0,0,0.1,0,0.1,0c0,0,0.1,0.1,0.1,0.1L153.4,18.1z"/>
	<path class="st4" d="M144.1,20.8C144.1,20.8,144.1,20.8,144.1,20.8c0,0.1,0,0.1,0,0.1c0,0,0,0,0,0c0,0,0,0-0.1,0l-2.6,0.7
		c0,0,0,0-0.1,0c0,0,0,0-0.1,0c0,0,0,0,0,0c0,0,0,0,0-0.1l-0.4-1.4c0,0,0,0,0-0.1c0,0,0,0,0-0.1c0,0,0,0,0,0c0,0,0,0,0.1,0l2.6-0.7
		c0,0,0.1,0,0.1,0c0,0,0.1,0.1,0.1,0.1L144.1,20.8z"/>
	<path class="st4" d="M149.7,22.9C149.7,22.9,149.7,22.9,149.7,22.9c0,0.1,0,0.1,0,0.1c0,0,0,0,0,0c0,0,0,0-0.1,0l-2.6,0.7
		c0,0,0,0-0.1,0c0,0,0,0-0.1,0c0,0,0,0,0,0c0,0,0,0,0-0.1l-0.4-1.4c0,0,0-0.1,0-0.1c0,0,0.1-0.1,0.1-0.1l2.6-0.7c0,0,0.1,0,0.1,0
		c0,0,0.1,0.1,0.1,0.1L149.7,22.9z"/>
	<path class="st4" d="M154.3,21.6C154.3,21.6,154.3,21.6,154.3,21.6c0,0.1,0,0.1,0,0.1c0,0,0,0,0,0c0,0,0,0-0.1,0l-2.6,0.7
		c0,0-0.1,0-0.1,0c0,0-0.1-0.1-0.1-0.1L151,21c0,0,0-0.1,0-0.1c0,0,0.1-0.1,0.1-0.1l2.6-0.7c0,0,0,0,0.1,0c0,0,0,0,0.1,0
		c0,0,0,0,0,0s0,0,0,0.1L154.3,21.6z"/>
	<path class="st4" d="M145,24.2C145,24.2,145,24.3,145,24.2c0,0.1,0,0.1,0,0.1c0,0,0,0,0,0c0,0,0,0-0.1,0l-2.6,0.7c0,0,0,0-0.1,0
		c0,0,0,0-0.1,0c0,0,0,0,0,0c0,0,0,0,0-0.1l-0.4-1.4c0,0,0-0.1,0-0.1c0,0,0.1-0.1,0.1-0.1l2.6-0.7c0,0,0,0,0.1,0c0,0,0,0,0.1,0
		c0,0,0,0,0,0c0,0,0,0,0,0.1L145,24.2z"/>
	<path class="st4" d="M146,27.6C146,27.6,146,27.6,146,27.6c0,0.1,0,0.1,0,0.1c0,0,0,0,0,0c0,0,0,0-0.1,0l-2.6,0.7c0,0,0,0-0.1,0
		c0,0,0,0-0.1,0c0,0,0,0,0,0c0,0,0,0,0-0.1l-0.4-1.4c0,0,0-0.1,0-0.1c0,0,0.1-0.1,0.1-0.1l2.6-0.7c0,0,0,0,0.1,0c0,0,0,0,0.1,0
		c0,0,0,0,0,0c0,0,0,0,0,0.1L146,27.6z"/>
	<path class="st4" d="M155.3,24.9C155.3,24.9,155.3,24.9,155.3,24.9c0,0.1,0,0.1,0,0.1c0,0,0,0,0,0c0,0,0,0-0.1,0l-7.2,2.1
		c0,0,0,0-0.1,0c0,0,0,0-0.1,0c0,0,0,0,0,0c0,0,0,0,0-0.1l-0.4-1.4c0,0,0-0.1,0-0.1c0,0,0.1-0.1,0.1-0.1l7.2-2.1c0,0,0,0,0.1,0
		c0,0,0,0,0.1,0c0,0,0,0,0,0c0,0,0,0,0,0.1L155.3,24.9z"/>
	<path class="st3" d="M216.9,179.4c-0.1,0-0.2,0-0.3-0.1c-0.1-0.1-0.1-0.2-0.1-0.3c0-0.1,0-0.2,0.1-0.3l7.7-7.1
		c0.1-0.1,0.2-0.1,0.3-0.1c0.1,0,0.2,0,0.3,0.1l5.7,6.3l12.8-13.6c0.1-0.1,0.2-0.1,0.3-0.1c0.1,0,0.2,0,0.3,0.1l5.1,4.6l9.2-9.7
		c0,0,0.1-0.1,0.1-0.1c0,0,0.1,0,0.1-0.1c0.1,0,0.1,0,0.2,0c0.1,0,0.1,0,0.1,0.1c0,0,0.1,0.1,0.1,0.1c0,0,0,0.1,0.1,0.1
		c0,0.1,0,0.1,0,0.2c0,0.1,0,0.1-0.1,0.1c0,0-0.1,0.1-0.1,0.1l-9.5,10c-0.1,0.1-0.2,0.1-0.3,0.1c-0.1,0-0.2,0-0.3-0.1l-5.1-4.6
		l-12.8,13.6c0,0-0.1,0.1-0.1,0.1c0,0-0.1,0-0.2,0c-0.1,0-0.1,0-0.2,0c0,0-0.1-0.1-0.1-0.1l-5.8-6.3l-7.4,6.8
		C217.1,179.4,217,179.4,216.9,179.4z"/>
	<path class="st3" d="M259.3,163.3c-0.1,0-0.2,0-0.3-0.1c-0.1-0.1-0.1-0.2-0.1-0.3v-3.7h-3.6c-0.1,0-0.2-0.1-0.2-0.1
		s-0.1-0.2-0.1-0.3c0-0.1,0-0.2,0.1-0.3s0.1-0.1,0.2-0.1h4c0.1,0,0.2,0,0.3,0.1c0.1,0.1,0.1,0.2,0.1,0.3v4.1c0,0.1,0,0.2-0.1,0.3
		C259.5,163.3,259.4,163.3,259.3,163.3z"/>
	<path class="st5" d="M237.2,32.3l4.8,9.2c2.4-1.2,4.3-3.4,5.2-6L237.2,32.3z"/>
	<path class="st3" d="M241.9,41.7C241.9,41.7,241.9,41.7,241.9,41.7c-0.1,0-0.1-0.1-0.1-0.1l-4.8-9.2c0,0,0-0.1,0-0.1
		c0,0,0-0.1,0-0.1c0,0,0,0,0.1,0s0.1,0,0.1,0l9.9,3.2c0,0,0.1,0,0.1,0.1c0,0,0,0.1,0,0.1C246.3,38.2,244.5,40.4,241.9,41.7
		C242,41.7,242,41.7,241.9,41.7z M237.4,32.6l4.6,8.8c2.3-1.2,4.1-3.3,4.9-5.7L237.4,32.6z"/>
	<path class="st4" d="M226.8,31.9c0,0.7,0,1.4,0.1,2.1c0.4,2.7,1.9,5.2,4.2,6.8l6.1-8.4L235.5,22c-2.4,0.4-4.5,1.6-6.1,3.4
		C227.8,27.2,226.8,29.5,226.8,31.9z"/>
	<path class="st3" d="M231.1,40.9C231,40.9,231,40.9,231.1,40.9c-1.2-0.8-2.2-1.9-2.9-3c-0.7-1.2-1.2-2.5-1.4-3.8
		c-0.1-0.4-0.1-0.9-0.1-1.4c0-0.2,0-0.5,0-0.7c0,0,0,0,0,0c0.1-2.4,1-4.8,2.6-6.6c1.6-1.8,3.8-3,6.2-3.4c0,0,0.1,0,0.1,0
		c0,0,0.1,0.1,0.1,0.1l1.7,10.3c0,0,0,0.1,0,0.1l-6.1,8.4C231.2,40.8,231.1,40.8,231.1,40.9L231.1,40.9z M226.9,31.9
		c0,0.2,0,0.5,0,0.7c0,0.4,0,0.9,0.1,1.3c0.4,2.6,1.9,5,4,6.6l6-8.3l-1.6-10.1c-2.3,0.4-4.4,1.6-6,3.4
		C227.9,27.3,227,29.6,226.9,31.9L226.9,31.9z"/>
	<path class="st2" d="M237.1,32.3l-6.1,8.4c1.6,1.1,3.4,1.8,5.3,1.9c1.9,0.1,3.8-0.2,5.5-1.1L237.1,32.3z"/>
	<path class="st3" d="M237.2,42.8c-2.2,0-4.4-0.7-6.2-2c0,0,0,0,0,0c0,0,0,0,0-0.1c0,0,0-0.1,0-0.1l6.1-8.4c0,0,0,0,0.1,0
		c0,0,0,0,0.1,0c0,0,0,0,0.1,0c0,0,0,0,0,0.1l4.8,9.2c0,0,0,0,0,0.1c0,0,0,0,0,0.1c0,0,0,0,0,0c0,0,0,0,0,0
		C240.5,42.4,238.9,42.8,237.2,42.8z M231.3,40.7c1.5,1.1,3.3,1.7,5.1,1.8c1.8,0.1,3.7-0.2,5.4-1l-4.6-8.9L231.3,40.7z"/>
	<path class="st7" d="M240.4,22.3L240.4,22.3c-1.6-0.5-3.3-0.6-4.9-0.4l1.7,10.3l10,3.2c0.9-2.6,0.7-5.5-0.6-8
		C245.3,25.1,243.1,23.2,240.4,22.3L240.4,22.3z"/>
	<path class="st3" d="M247.1,35.7C247.1,35.7,247.1,35.7,247.1,35.7l-10-3.2c0,0,0,0-0.1,0c0,0,0,0,0-0.1L235.4,22c0,0,0-0.1,0-0.1
		c0,0,0.1,0,0.1-0.1c1.6-0.3,3.3-0.1,4.9,0.4c0,0,0,0,0.1,0c2.7,0.9,4.9,2.7,6.2,5.2c1.3,2.5,1.5,5.4,0.7,8.1l0,0.1
		C247.2,35.6,247.2,35.6,247.1,35.7C247.2,35.7,247.1,35.7,247.1,35.7z M237.3,32.2l9.7,3.2c0.8-2.6,0.6-5.4-0.7-7.8
		c-1.2-2.4-3.4-4.2-6-5.1c0,0,0,0-0.1,0c-1.5-0.5-3.1-0.6-4.7-0.4L237.3,32.2z"/>
	<path class="st2" d="M59,115.2c-0.2,0.5-0.6,0.9-1.1,1.1c-0.5,0.2-1.1,0.2-1.6-0.1L27,102.7c-0.5-0.2-0.9-0.6-1.1-1.1
		s-0.2-1.1,0.1-1.6L35.2,80l33,15.1L59,115.2z"/>
	<path class="st3" d="M56.2,116.3l-29.3-13.4c-0.5-0.2-0.9-0.7-1.1-1.2c-0.2-0.5-0.2-1.1,0.1-1.7l9.3-20.2L68.4,95l-9.3,20.2
		c-0.2,0.5-0.7,0.9-1.2,1.1C57.3,116.6,56.7,116.6,56.2,116.3z M35.3,80.1l-9.2,20c-0.2,0.5-0.2,1-0.1,1.4c0.2,0.5,0.5,0.8,1,1.1
		l29.3,13.4c0.5,0.2,1,0.2,1.4,0.1c0.5-0.2,0.8-0.5,1.1-1l9.2-20L35.3,80.1z"/>
	<path class="st2" d="M57.8,90.3L57.8,90.3c0.4-1.6,0.3-3.2-0.4-4.7c-0.7-1.5-1.9-2.6-3.3-3.3c-1.5-0.7-3.1-0.8-4.7-0.4
		c-1.6,0.4-2.9,1.4-3.8,2.7"/>
	<path class="st3" d="M57.9,90.5l-0.2-0.1l0.1-0.1l-0.1,0c0.4-1.5,0.3-3.2-0.4-4.6c-0.7-1.4-1.8-2.6-3.3-3.2
		c-1.4-0.7-3.1-0.8-4.6-0.4c-1.5,0.4-2.9,1.4-3.7,2.7l-0.2-0.2c0.9-1.4,2.3-2.4,3.9-2.8c1.6-0.4,3.3-0.3,4.8,0.4
		c1.5,0.7,2.7,1.9,3.4,3.4c0.7,1.5,0.9,3.2,0.4,4.8L57.9,90.5z"/>
	<path class="st4" d="M68.2,95.1l-33-15.1l-0.1,0.2c-1,4.2-0.6,8.6,1.3,12.5c1.9,3.9,5,7,9,8.8C59.9,108.1,68.2,95.1,68.2,95.1z"/>
	<path class="st3" d="M45.4,101.6c-3.9-1.8-7.1-5-9-8.9c-1.9-3.9-2.4-8.4-1.3-12.6l0,0l0.1-0.2c0,0,0-0.1,0.1-0.1c0,0,0.1,0,0.1,0
		l33,15.1c0,0,0.1,0,0.1,0.1c0,0,0,0.1,0,0.1l0,0c-1.6,2.3-3.6,4.2-6,5.7c-2.2,1.4-4.6,2.2-7.2,2.5
		C51.7,103.7,48.4,103.1,45.4,101.6z M35.3,80.2c-1,4.2-0.5,8.5,1.3,12.4c1.9,3.9,5,6.9,8.9,8.7c7.4,3.4,13.2,1.5,16.7-0.7
		c2.3-1.4,4.3-3.3,5.8-5.5L35.3,80.2L35.3,80.2z"/>
	<path class="st2" d="M39,98.9c0,0.1-0.1,0.2-0.2,0.3c-0.1,0.1-0.2,0.1-0.3,0.2c-0.1,0-0.2,0.1-0.3,0.1c-0.1,0-0.2,0-0.3-0.1
		l-1.7-0.8c-0.1,0-0.2-0.1-0.3-0.2c-0.1-0.1-0.1-0.2-0.2-0.3c0-0.1-0.1-0.2-0.1-0.3c0-0.1,0-0.2,0.1-0.3l1.4-3.1
		c0-0.1,0.1-0.2,0.2-0.3c0.1-0.1,0.2-0.1,0.3-0.2c0.1,0,0.2-0.1,0.3-0.1c0.1,0,0.2,0,0.3,0.1l1.7,0.8c0.1,0,0.2,0.1,0.3,0.2
		c0.1,0.1,0.1,0.2,0.2,0.3c0,0.1,0.1,0.2,0.1,0.3c0,0.1,0,0.2-0.1,0.3L39,98.9z"/>
	<path class="st3" d="M37.9,99.5l-1.7-0.8c-0.2-0.1-0.4-0.3-0.5-0.5c-0.1-0.2-0.1-0.5,0-0.7l1.4-3.1c0.1-0.2,0.3-0.4,0.5-0.5
		c0.2-0.1,0.5-0.1,0.7,0l1.7,0.8c0.2,0.1,0.4,0.3,0.5,0.5c0.1,0.2,0.1,0.5,0,0.7L39.1,99c-0.1,0.2-0.3,0.4-0.5,0.5
		C38.4,99.6,38.1,99.6,37.9,99.5z M38.3,94.1c-0.2-0.1-0.3-0.1-0.5,0c-0.2,0.1-0.3,0.2-0.4,0.3l-1.4,3.1c-0.1,0.2-0.1,0.3,0,0.5
		c0.1,0.2,0.2,0.3,0.3,0.4l1.7,0.8c0.2,0.1,0.3,0.1,0.5,0c0.2-0.1,0.3-0.2,0.4-0.3l1.4-3.1c0.1-0.2,0.1-0.3,0-0.5
		c-0.1-0.2-0.2-0.3-0.3-0.4L38.3,94.1z"/>
	<path class="st2" d="M54.5,106.1c-0.1,0.2-0.3,0.3-0.5,0.4c-0.2,0.1-0.4,0.1-0.6,0l-1.7-0.8c-0.1,0-0.2-0.1-0.3-0.2
		c-0.1-0.1-0.1-0.2-0.2-0.3c0-0.1-0.1-0.2-0.1-0.3c0-0.1,0-0.2,0.1-0.3l1.4-3.1c0-0.1,0.1-0.2,0.2-0.3c0.1-0.1,0.2-0.1,0.3-0.2
		c0.1,0,0.2-0.1,0.3-0.1c0.1,0,0.2,0,0.3,0.1l1.7,0.8c0.2,0.1,0.3,0.3,0.4,0.5c0.1,0.2,0.1,0.4,0,0.6L54.5,106.1z"/>
	<path class="st3" d="M53.4,106.6l-1.7-0.8c-0.2-0.1-0.4-0.3-0.5-0.5c-0.1-0.2-0.1-0.5,0-0.7l1.4-3.1c0.1-0.2,0.3-0.4,0.5-0.5
		c0.2-0.1,0.5-0.1,0.7,0l1.7,0.8c0.2,0.1,0.4,0.3,0.5,0.5c0.1,0.2,0.1,0.5,0,0.7l-1.4,3.1c-0.1,0.2-0.3,0.4-0.5,0.5
		C53.9,106.7,53.6,106.7,53.4,106.6z M53.8,101.2c-0.2-0.1-0.3-0.1-0.5,0c-0.2,0.1-0.3,0.2-0.4,0.3l-1.4,3.1c-0.1,0.2-0.1,0.3,0,0.5
		c0.1,0.2,0.2,0.3,0.3,0.4l1.7,0.8c0.1,0,0.2,0.1,0.3,0.1c0.1,0,0.2,0,0.3,0s0.2-0.1,0.2-0.1c0.1-0.1,0.1-0.1,0.2-0.2l1.4-3.1
		c0-0.1,0.1-0.2,0.1-0.3c0-0.1,0-0.2,0-0.3c0-0.1-0.1-0.2-0.1-0.2c-0.1-0.1-0.1-0.1-0.2-0.2L53.8,101.2z"/>
	<path class="st1" d="M30.9,154.3l-1.8,1.7l3.7,3.9l1.8-1.7L30.9,154.3z"/>
	<path class="st3" d="M34.9,158.2l-2.1,2l-3.9-4.2l2.1-2L34.9,158.2z M32.8,159.7l1.6-1.5l-3.5-3.7l-1.6,1.5L32.8,159.7z"/>
	<path class="st4" d="M48.5,157.6c1.6,1.7,2.7,3.8,3.1,6.1c0.4,2.3,0.1,4.7-0.9,6.8c-1,2.1-2.5,3.9-4.5,5.2c-2,1.2-4.3,1.9-6.6,1.8
		c-2.3-0.1-4.6-0.8-6.5-2.2c-1.9-1.3-3.4-3.2-4.2-5.4c-0.8-2.2-1-4.6-0.5-6.8c0.5-2.3,1.7-4.4,3.4-6c2.3-2.2,5.3-3.3,8.4-3.2
		C43.4,154,46.3,155.3,48.5,157.6L48.5,157.6z"/>
	<path class="st3" d="M48.2,174.4c-1.7,1.6-3.9,2.7-6.2,3.1c-2.3,0.4-4.7,0.1-6.9-0.9c-2.2-1-4-2.6-5.3-4.6c-1.3-2-1.9-4.3-1.8-6.7
		c0.1-2.4,0.8-4.7,2.2-6.6c1.4-1.9,3.3-3.4,5.5-4.3c2.2-0.9,4.6-1,6.9-0.5c2.3,0.5,4.4,1.7,6.1,3.4c2.2,2.3,3.4,5.4,3.3,8.6
		C51.8,169.2,50.5,172.2,48.2,174.4z M31.9,157.3c-1.7,1.6-2.8,3.6-3.3,5.9c-0.5,2.2-0.3,4.6,0.5,6.8c0.8,2.2,2.3,4,4.2,5.3
		c1.9,1.3,4.1,2.1,6.4,2.1c2.3,0.1,4.6-0.6,6.5-1.8c1.9-1.2,3.5-3,4.4-5.1c0.9-2.1,1.2-4.4,0.8-6.7c-0.4-2.3-1.4-4.4-3-6.1
		c-2.1-2.2-5.1-3.5-8.2-3.6C37.1,154,34.1,155.1,31.9,157.3L31.9,157.3z"/>
	<path class="st4" d="M27.5,155.6l3.1-2.9c1.1-1.1,1.6-0.6,2.2,0.1c0.6,0.6,1.2,0.9-0.1,2.2l-3.1,2.9c-1.1,1.1-1.6,0.6-2.2-0.1
		C26.8,157.1,26.3,156.7,27.5,155.6z"/>
	<path class="st3" d="M33.3,154.5l-4.1,3.9c-0.2,0.2-0.4,0.3-0.7,0.3c-0.3,0-0.5-0.1-0.7-0.3l-1-1.1c-0.2-0.2-0.3-0.4-0.3-0.7
		c0-0.3,0.1-0.5,0.3-0.7L31,152c0.2-0.2,0.4-0.3,0.7-0.3c0.3,0,0.5,0.1,0.7,0.3l1,1.1c0.2,0.2,0.3,0.4,0.3,0.7
		C33.6,154,33.5,154.3,33.3,154.5z M27.1,156.2c-0.1,0.1-0.1,0.1-0.1,0.2c0,0.1-0.1,0.2-0.1,0.2c0,0.1,0,0.2,0,0.2
		c0,0.1,0.1,0.1,0.1,0.2l1,1.1c0.1,0.1,0.3,0.2,0.4,0.2c0.2,0,0.3-0.1,0.4-0.2l4.1-3.9c0.1-0.1,0.2-0.3,0.2-0.4
		c0-0.2-0.1-0.3-0.2-0.4l-1-1.1c-0.1-0.1-0.3-0.2-0.4-0.2c-0.2,0-0.3,0.1-0.4,0.2L27.1,156.2z"/>
	<path class="st2" d="M46.3,172.5c3.7-3.5,3.9-9.4,0.4-13.2c-3.5-3.7-9.4-3.9-13.2-0.4c-3.7,3.5-3.9,9.4-0.4,13.2
		C36.7,175.8,42.6,176,46.3,172.5z"/>
	<path class="st3" d="M46.4,172.5c-1.3,1.3-3,2.1-4.9,2.4c-1.8,0.3-3.7,0.1-5.4-0.7c-1.7-0.8-3.1-2-4.1-3.6c-1-1.6-1.5-3.4-1.4-5.2
		c0-1.9,0.6-3.6,1.7-5.2c1.1-1.5,2.6-2.7,4.3-3.3c1.7-0.7,3.6-0.8,5.4-0.4c1.8,0.4,3.5,1.3,4.7,2.7c1.7,1.8,2.6,4.2,2.6,6.7
		C49.2,168.5,48.2,170.8,46.4,172.5z M33.6,159c-1.3,1.3-2.3,2.9-2.7,4.7c-0.4,1.8-0.3,3.7,0.4,5.4c0.7,1.7,1.8,3.2,3.3,4.2
		c1.5,1.1,3.3,1.6,5.1,1.7c1.8,0,3.6-0.4,5.2-1.4s2.8-2.4,3.5-4.1c0.7-1.7,1-3.5,0.7-5.3c-0.3-1.8-1.1-3.5-2.4-4.8
		c-0.8-0.9-1.8-1.6-2.9-2.1c-1.1-0.5-2.3-0.8-3.5-0.8c-1.2,0-2.4,0.2-3.6,0.6C35.5,157.5,34.4,158.2,33.6,159z"/>
	<path class="st4" d="M40.1,165.2c0,0,0.1,0.1,0.1,0.2c0,0.1,0,0.1,0,0.2c0,0.1,0,0.1,0,0.2c0,0.1-0.1,0.1-0.1,0.2
		c0,0-0.1,0.1-0.2,0.1c-0.1,0-0.1,0-0.2,0c-0.1,0-0.1,0-0.2,0c-0.1,0-0.1-0.1-0.2-0.1l-2.6-2.7c-0.1-0.1-0.1-0.2-0.1-0.4
		c0-0.1,0.1-0.3,0.2-0.4c0.1-0.1,0.2-0.1,0.4-0.1c0.1,0,0.3,0.1,0.4,0.2L40.1,165.2z"/>
	<path class="st3" d="M40.2,166c-0.1,0.1-0.3,0.2-0.5,0.2c-0.2,0-0.4-0.1-0.5-0.2l-2.6-2.7c-0.1-0.1-0.2-0.3-0.2-0.5
		s0.1-0.4,0.2-0.5c0.1-0.1,0.3-0.2,0.5-0.2c0.2,0,0.4,0.1,0.5,0.2l2.6,2.7c0.1,0.1,0.2,0.3,0.2,0.5C40.4,165.7,40.4,165.9,40.2,166z
		 M36.9,162.5c-0.1,0.1-0.1,0.2-0.1,0.2c0,0.1,0,0.2,0.1,0.3l2.6,2.7c0,0,0.1,0.1,0.1,0.1s0.1,0,0.1,0s0.1,0,0.1,0
		c0,0,0.1,0,0.1-0.1c0,0,0.1-0.1,0.1-0.1c0,0,0-0.1,0-0.1c0,0,0-0.1,0-0.1c0,0,0-0.1-0.1-0.1l-2.6-2.7c-0.1-0.1-0.2-0.1-0.2-0.1
		C37.1,162.4,37,162.5,36.9,162.5L36.9,162.5z"/>
	<path class="st1" d="M34.9,159.7c0,0.1,0.1,0.1,0.1,0.2c0,0.1,0,0.1,0,0.2c0,0.1,0,0.1,0,0.2c0,0.1-0.1,0.1-0.1,0.2
		c0,0-0.1,0.1-0.2,0.1c-0.1,0-0.1,0-0.2,0c-0.1,0-0.1,0-0.2,0c-0.1,0-0.1-0.1-0.2-0.1l-0.3-0.3c0-0.1-0.1-0.1-0.1-0.2
		c0-0.1,0-0.1,0-0.2c0-0.1,0-0.1,0-0.2s0.1-0.1,0.1-0.2c0,0,0.1-0.1,0.2-0.1c0.1,0,0.1,0,0.2,0c0.1,0,0.1,0,0.2,0s0.1,0.1,0.2,0.1
		L34.9,159.7z"/>
	<path class="st3" d="M35,160.6c-0.1,0.1-0.3,0.2-0.5,0.2c-0.2,0-0.4-0.1-0.5-0.2l-0.3-0.3c-0.1-0.1-0.2-0.3-0.2-0.5
		s0.1-0.4,0.2-0.5c0.1-0.1,0.3-0.2,0.5-0.2c0.2,0,0.4,0.1,0.5,0.2l0.3,0.3c0.1,0.1,0.2,0.3,0.2,0.5C35.2,160.3,35.2,160.5,35,160.6z
		 M34,159.5c-0.1,0.1-0.1,0.2-0.1,0.2c0,0.1,0,0.2,0.1,0.3l0.3,0.3c0,0,0.1,0.1,0.1,0.1c0,0,0.1,0,0.1,0c0,0,0.1,0,0.1,0
		c0,0,0.1,0,0.1-0.1c0,0,0.1-0.1,0.1-0.1c0,0,0-0.1,0-0.1c0,0,0-0.1,0-0.1c0,0,0-0.1-0.1-0.1l-0.3-0.3c-0.1-0.1-0.2-0.1-0.2-0.1
		C34.2,159.4,34.1,159.4,34,159.5L34,159.5z"/>
	<path class="st1" d="M46.1,171.4c0.1,0.1,0.1,0.2,0.1,0.4c0,0.1-0.1,0.3-0.2,0.4c-0.1,0.1-0.2,0.1-0.4,0.1c-0.1,0-0.3-0.1-0.4-0.2
		l-0.3-0.3c0-0.1-0.1-0.1-0.1-0.2c0-0.1,0-0.1,0-0.2c0-0.1,0-0.1,0-0.2c0-0.1,0.1-0.1,0.1-0.2c0.1,0,0.1-0.1,0.2-0.1
		c0.1,0,0.1,0,0.2,0s0.1,0,0.2,0.1s0.1,0.1,0.2,0.1L46.1,171.4z"/>
	<path class="st3" d="M46.2,172.3c-0.1,0.1-0.3,0.2-0.5,0.2c-0.2,0-0.4-0.1-0.5-0.2l-0.3-0.3c-0.1-0.1-0.2-0.3-0.2-0.5
		c0-0.2,0.1-0.3,0.2-0.5c0.1-0.1,0.3-0.2,0.5-0.2c0.2,0,0.4,0.1,0.5,0.2l0.3,0.3c0.1,0.1,0.2,0.3,0.2,0.5
		C46.4,172,46.3,172.2,46.2,172.3z M45.1,171.2c-0.1,0.1-0.1,0.2-0.1,0.2c0,0.1,0,0.2,0.1,0.3l0.3,0.3c0,0,0.1,0.1,0.1,0.1
		c0,0,0.1,0,0.1,0c0,0,0.1,0,0.1,0c0,0,0.1,0,0.1-0.1c0,0,0.1-0.1,0.1-0.1c0,0,0-0.1,0-0.1c0,0,0-0.1,0-0.1c0,0,0-0.1-0.1-0.1
		l-0.3-0.3c0,0-0.1-0.1-0.1-0.1c0,0-0.1,0-0.1,0c0,0-0.1,0-0.1,0C45.2,171.1,45.1,171.2,45.1,171.2L45.1,171.2z"/>
	<path class="st1" d="M33.9,170.8c0.1-0.1,0.2-0.2,0.4-0.2c0.1,0,0.3,0.1,0.4,0.2c0.1,0.1,0.2,0.2,0.2,0.4c0,0.1-0.1,0.3-0.1,0.4
		l0,0l-0.3,0.3c0,0-0.1,0.1-0.2,0.1c-0.1,0-0.1,0-0.2,0s-0.1,0-0.2,0c-0.1,0-0.1-0.1-0.2-0.1c0-0.1-0.1-0.1-0.1-0.2
		c0-0.1,0-0.1,0-0.2c0-0.1,0-0.1,0-0.2c0-0.1,0.1-0.1,0.1-0.2L33.9,170.8z"/>
	<path class="st3" d="M34.7,171.7l-0.3,0.3c-0.1,0.1-0.3,0.2-0.5,0.2c-0.2,0-0.4-0.1-0.5-0.2c-0.1-0.1-0.2-0.3-0.2-0.5
		c0-0.2,0.1-0.4,0.2-0.5l0,0l0.3-0.3c0.1-0.1,0.1-0.1,0.2-0.2c0.1,0,0.2-0.1,0.3-0.1s0.2,0,0.3,0.1c0.1,0,0.2,0.1,0.2,0.2
		c0.1,0.1,0.1,0.1,0.1,0.2c0,0.1,0.1,0.2,0,0.3c0,0.1,0,0.2-0.1,0.3C34.9,171.5,34.8,171.6,34.7,171.7L34.7,171.7z M33.7,171.2
		c-0.1,0.1-0.1,0.1-0.1,0.2c0,0.1,0,0.2,0.1,0.3c0.1,0.1,0.1,0.1,0.2,0.1c0.1,0,0.2,0,0.3-0.1l0,0l0.3-0.3c0,0,0.1-0.1,0.1-0.1
		c0,0,0-0.1,0-0.1c0,0,0-0.1,0-0.1s0-0.1-0.1-0.1c0,0-0.1-0.1-0.1-0.1c0,0-0.1,0-0.1,0c0,0-0.1,0-0.1,0c0,0-0.1,0-0.1,0.1
		L33.7,171.2z"/>
	<path class="st1" d="M45.6,159.7c0-0.1,0.1-0.1,0.2-0.1c0.1,0,0.1,0,0.2,0c0.1,0,0.1,0,0.2,0c0.1,0,0.1,0.1,0.2,0.1
		c0,0,0.1,0.1,0.1,0.2c0,0.1,0,0.1,0,0.2c0,0.1,0,0.1,0,0.2c0,0.1-0.1,0.1-0.1,0.2l0,0l-0.3,0.3c-0.1,0.1-0.2,0.1-0.4,0.1
		c-0.1,0-0.3-0.1-0.4-0.2c-0.1-0.1-0.1-0.2-0.1-0.4c0-0.1,0.1-0.3,0.2-0.4L45.6,159.7z"/>
	<path class="st3" d="M46.5,160.6l-0.3,0.3c-0.1,0.1-0.3,0.2-0.5,0.2c-0.2,0-0.3-0.1-0.5-0.2c-0.1-0.1-0.2-0.3-0.2-0.5
		c0-0.2,0.1-0.4,0.2-0.5l0.3-0.3c0.1-0.1,0.1-0.1,0.2-0.2c0.1,0,0.2-0.1,0.3-0.1s0.2,0,0.3,0.1c0.1,0,0.2,0.1,0.2,0.2
		c0.1,0.1,0.1,0.1,0.1,0.2c0,0.1,0.1,0.2,0,0.3c0,0.1,0,0.2-0.1,0.3C46.6,160.4,46.5,160.5,46.5,160.6L46.5,160.6z M45.4,160.1
		c-0.1,0.1-0.1,0.2-0.1,0.2c0,0.1,0,0.2,0.1,0.2c0.1,0.1,0.1,0.1,0.2,0.1s0.2,0,0.2-0.1l0.3-0.3c0.1-0.1,0.1-0.1,0.1-0.2
		c0-0.1,0-0.2-0.1-0.3c-0.1-0.1-0.1-0.1-0.2-0.1c-0.1,0-0.2,0-0.3,0.1c0,0,0,0,0,0L45.4,160.1z"/>
	<path class="st6" d="M81.6,20c-0.4-1.3-0.2-2.6,0.4-3.8c0.6-1.2,1.7-2,2.9-2.4c1.2-0.4,2.6-0.3,3.8,0.3c1.2,0.6,2,1.6,2.5,2.9
		l0.7,2.3c0.4,1.3,0.3,2.6-0.3,3.8c-0.6,1.2-1.6,2.1-2.9,2.5c-1.3,0.4-2.6,0.3-3.8-0.3c-1.2-0.6-2.1-1.6-2.5-2.9c0,0,0-0.1,0-0.1
		L81.6,20z"/>
	<path class="st3" d="M88.6,25.6c-1.3,0.4-2.7,0.3-3.9-0.3c-1.2-0.6-2.1-1.7-2.5-3L81.5,20c-0.2-0.6-0.3-1.3-0.2-2
		c0.1-0.7,0.2-1.3,0.6-1.9c0.3-0.6,0.7-1.1,1.2-1.5c0.5-0.4,1.1-0.8,1.7-1c0.6-0.2,1.3-0.3,2-0.2c0.7,0.1,1.3,0.2,1.9,0.6
		c0.6,0.3,1.1,0.7,1.5,1.2c0.4,0.5,0.8,1.1,1,1.7l0.7,2.3c0.4,1.3,0.3,2.7-0.3,3.9C90.9,24.3,89.9,25.2,88.6,25.6z M84.9,13.9
		c-1.2,0.4-2.3,1.2-2.9,2.4c-0.6,1.1-0.7,2.5-0.3,3.7l0.7,2.3c0.2,0.6,0.5,1.2,0.9,1.7c0.4,0.5,0.9,0.9,1.5,1.2
		c0.6,0.3,1.2,0.5,1.8,0.5c0.6,0.1,1.3,0,1.9-0.2c0.6-0.2,1.2-0.5,1.7-0.9c0.5-0.4,0.9-0.9,1.2-1.5c0.3-0.6,0.5-1.2,0.5-1.8
		c0.1-0.6,0-1.3-0.2-1.9l0,0L91,17c-0.4-1.2-1.2-2.3-2.4-2.9C87.4,13.6,86.1,13.5,84.9,13.9L84.9,13.9z"/>
	<path class="st8" d="M87.8,23.3c-0.9,0.3-1.9,0.3-2.9,0c-0.9-0.3-1.8-0.8-2.4-1.6c-0.6-0.8-1-1.7-1.1-2.7c-0.1-1,0.1-2,0.5-2.8
		c0.5-0.9,1.2-1.6,2-2.1c0.9-0.5,1.8-0.7,2.8-0.6c1,0.1,1.9,0.5,2.7,1.1c0.8,0.6,1.3,1.4,1.6,2.4c0.4,1.3,0.3,2.6-0.3,3.8
		C90.1,22,89.1,22.9,87.8,23.3z"/>
	<path class="st3" d="M87.9,23.4c-1,0.3-2,0.3-2.9,0c-1-0.3-1.8-0.8-2.5-1.6c-0.6-0.8-1-1.7-1.2-2.7c-0.1-1,0.1-2,0.5-2.9
		c0.5-0.9,1.2-1.6,2.1-2.1c0.9-0.5,1.9-0.7,2.9-0.6c1,0.1,2,0.5,2.7,1.1c0.8,0.6,1.4,1.5,1.7,2.4c0.4,1.3,0.3,2.7-0.3,3.9
		C90.2,22,89.1,22.9,87.9,23.4z M84.9,13.9c-0.9,0.3-1.7,0.8-2.3,1.6c-0.6,0.8-1,1.7-1.1,2.6c-0.1,1,0.1,1.9,0.6,2.8
		c0.5,0.8,1.2,1.5,2,2c0.9,0.4,1.8,0.6,2.8,0.5c1-0.1,1.9-0.5,2.6-1.1c0.7-0.6,1.3-1.4,1.5-2.4c0.3-0.9,0.3-1.9,0-2.8
		c-0.4-1.2-1.2-2.3-2.4-2.9C87.4,13.6,86.1,13.5,84.9,13.9z"/>
	<path class="st4" d="M80.9,5.4l-25.1,7.9l4,12.7l25.1-7.9L80.9,5.4z"/>
	<path class="st3" d="M85,18.3l-25.1,7.9c0,0-0.1,0-0.1,0c0,0,0,0,0-0.1l-4-12.7c0,0,0-0.1,0-0.1c0,0,0,0,0.1,0l25.1-7.9
		c0,0,0,0,0,0c0,0,0,0,0,0c0,0,0,0,0,0c0,0,0,0,0,0l4,12.7C85,18.1,85,18.2,85,18.3C85,18.2,85,18.2,85,18.3
		C85,18.2,85,18.2,85,18.3C85,18.3,85,18.3,85,18.3L85,18.3z M59.9,26l25-7.9L80.9,5.6l-25,7.9L59.9,26z"/>
	<path class="st9" d="M61.5,23.1l20.6-6.5l-2.5-8L59,15L61.5,23.1z"/>
	<path class="st3" d="M82.2,16.6l-20.7,6.5L59,15l20.7-6.5L82.2,16.6z M61.6,23l20.5-6.5l-2.5-8L59,15.1L61.6,23z"/>
	<path class="st2" d="M75.4,14.3c0.3,0.9,0.3,2,0,2.9c-0.3,0.9-0.8,1.8-1.6,2.4c-0.8,0.6-1.7,1-2.7,1.1c-1,0.1-2-0.1-2.9-0.5
		c-0.9-0.5-1.6-1.2-2.1-2c-0.5-0.9-0.7-1.9-0.6-2.8c0.1-1,0.5-1.9,1.1-2.7c0.6-0.8,1.5-1.3,2.4-1.6c0.6-0.2,1.3-0.3,1.9-0.2
		c0.7,0.1,1.3,0.2,1.9,0.5c0.6,0.3,1.1,0.7,1.5,1.2C74.9,13.1,75.2,13.7,75.4,14.3z"/>
	<path class="st3" d="M72.1,20.7c-1,0.3-2,0.3-3,0c-1-0.3-1.8-0.8-2.5-1.6c-0.6-0.8-1.1-1.7-1.2-2.7c-0.1-1,0.1-2,0.5-2.9
		c0.5-0.9,1.2-1.6,2.1-2.1c0.9-0.5,1.9-0.7,2.9-0.6c1,0.1,2,0.5,2.7,1.1s1.4,1.5,1.7,2.4c0.2,0.6,0.3,1.3,0.2,2
		c-0.1,0.7-0.2,1.3-0.6,1.9c-0.3,0.6-0.7,1.1-1.2,1.6C73.4,20.2,72.8,20.5,72.1,20.7z M69.1,11.1c-0.9,0.3-1.7,0.8-2.3,1.6
		c-0.6,0.8-1,1.7-1.1,2.6c-0.1,1,0.1,1.9,0.6,2.8c0.5,0.8,1.2,1.5,2,2c0.9,0.4,1.8,0.6,2.8,0.5c1-0.1,1.9-0.5,2.6-1.1
		c0.7-0.6,1.3-1.5,1.6-2.4c0.3-0.9,0.3-1.9,0-2.8c-0.4-1.2-1.3-2.3-2.4-2.9C71.7,10.9,70.4,10.7,69.1,11.1L69.1,11.1z"/>
	<path class="st3" d="M79.5,13.4c0.1,0.3,0.1,0.5,0,0.8c-0.1,0.3-0.2,0.5-0.4,0.7c-0.2,0.2-0.5,0.3-0.7,0.3c-0.3,0-0.5,0-0.8-0.1
		c-0.2-0.1-0.4-0.3-0.6-0.6c-0.1-0.2-0.2-0.5-0.2-0.8c0-0.3,0.1-0.5,0.3-0.7c0.2-0.2,0.4-0.4,0.7-0.4c0.3-0.1,0.7-0.1,1,0.1
		C79.1,12.8,79.4,13.1,79.5,13.4z"/>
	<path class="st3" d="M63.6,19.8c-0.2,0.1-0.4,0.1-0.5,0.1c-0.2,0-0.4-0.1-0.5-0.1c-0.2-0.1-0.3-0.2-0.4-0.3
		c-0.1-0.1-0.2-0.3-0.3-0.5c-0.1-0.2-0.1-0.4-0.1-0.5c0-0.2,0.1-0.4,0.2-0.5s0.2-0.3,0.3-0.4c0.1-0.1,0.3-0.2,0.5-0.3l0,0
		c0.3-0.1,0.7,0,1,0.1c0.3,0.2,0.5,0.4,0.6,0.8c0.1,0.3,0.1,0.7-0.1,1C64.2,19.4,63.9,19.6,63.6,19.8z"/>
	<path class="st6" d="M80.1,15.3c-0.4-1.3-0.2-2.6,0.4-3.8c0.6-1.2,1.7-2,2.9-2.4c1.2-0.4,2.6-0.3,3.8,0.3c1.2,0.6,2,1.6,2.5,2.9
		l0.7,2.3c0.4,1.3,0.3,2.6-0.3,3.8c-0.6,1.2-1.6,2.1-2.9,2.5c-1.3,0.4-2.6,0.3-3.8-0.3c-1.2-0.6-2.1-1.6-2.5-2.9c0,0,0-0.1,0-0.1
		L80.1,15.3z"/>
	<path class="st3" d="M87.1,20.9c-1.3,0.4-2.7,0.3-3.9-0.3c-1.2-0.6-2.1-1.7-2.5-3L80,15.3c-0.2-0.6-0.3-1.3-0.2-2
		c0.1-0.7,0.2-1.3,0.6-1.9c0.3-0.6,0.7-1.1,1.2-1.5c0.5-0.4,1.1-0.8,1.7-1c0.6-0.2,1.3-0.3,2-0.2C86,8.8,86.6,9,87.2,9.3
		c0.6,0.3,1.1,0.7,1.5,1.2c0.4,0.5,0.8,1.1,1,1.7l0.7,2.3c0.4,1.3,0.3,2.7-0.3,3.9C89.4,19.6,88.4,20.5,87.1,20.9z M83.4,9.1
		c-1.2,0.4-2.3,1.2-2.9,2.4c-0.6,1.1-0.7,2.5-0.3,3.7l0.7,2.3c0.4,1.2,1.2,2.3,2.4,2.9c1.1,0.6,2.5,0.7,3.7,0.3
		c1.2-0.4,2.3-1.2,2.9-2.4c0.6-1.1,0.7-2.5,0.3-3.7l0,0l-0.7-2.3c-0.4-1.2-1.2-2.3-2.4-2.9C85.9,8.9,84.6,8.7,83.4,9.1z"/>
	<path class="st8" d="M86.3,18.5c-0.9,0.3-1.9,0.3-2.9,0c-0.9-0.3-1.8-0.8-2.4-1.6c-0.6-0.8-1-1.7-1.1-2.7c-0.1-1,0.1-2,0.5-2.8
		c0.5-0.9,1.2-1.6,2-2.1c0.9-0.5,1.8-0.7,2.8-0.6c1,0.1,1.9,0.5,2.7,1.1c0.8,0.6,1.3,1.4,1.6,2.4c0.4,1.3,0.3,2.6-0.3,3.8
		C88.6,17.2,87.6,18.1,86.3,18.5z"/>
	<path class="st3" d="M86.4,18.6c-1,0.3-2,0.3-2.9,0c-1-0.3-1.8-0.8-2.5-1.6s-1-1.7-1.2-2.7c-0.1-1,0.1-2,0.5-2.9
		c0.5-0.9,1.2-1.6,2.1-2.1c0.9-0.5,1.9-0.7,2.9-0.6c1,0.1,2,0.5,2.7,1.1c0.8,0.6,1.4,1.5,1.7,2.4c0.4,1.3,0.3,2.7-0.3,3.9
		C88.7,17.3,87.6,18.2,86.4,18.6z M83.4,9.1c-0.9,0.3-1.7,0.8-2.3,1.6c-0.6,0.8-1,1.7-1.1,2.6c-0.1,1,0.1,1.9,0.6,2.8
		c0.5,0.8,1.2,1.5,2,2c0.9,0.4,1.8,0.6,2.8,0.5s1.9-0.5,2.6-1.1c0.7-0.6,1.3-1.4,1.5-2.4c0.3-0.9,0.3-1.9,0-2.8
		c-0.4-1.2-1.2-2.3-2.4-2.9C85.9,8.9,84.6,8.7,83.4,9.1z"/>
	<path class="st3" d="M69.2,17.1l-0.4-0.5L68,16.8l0,0.6l-0.5,0.1l0.2-2.7l0.6-0.2l1.5,2.2L69.2,17.1z M68.1,15.3l0,1.1l0.6-0.2
		L68.1,15.3L68.1,15.3z"/>
	<path class="st3" d="M71.5,16l0.1,0.4L70,16.9l-0.7-2.5L71,14l0.1,0.4L70,14.7l0.2,0.6l1.1-0.3l0.1,0.4l-1.1,0.3l0.2,0.6L71.5,16z"
		/>
	<path class="st3" d="M71.4,13.9l0.9-0.3c0.2-0.1,0.3-0.1,0.5-0.1c0.2,0,0.3,0.1,0.5,0.1c0.1,0.1,0.3,0.2,0.4,0.4
		c0.1,0.1,0.2,0.3,0.2,0.5c0.1,0.3,0.1,0.7-0.1,1c-0.1,0.1-0.2,0.3-0.3,0.4c-0.1,0.1-0.3,0.2-0.4,0.2L72,16.4L71.4,13.9z M72,14.2
		l0.4,1.6l0.4-0.1c0.1,0,0.2-0.1,0.3-0.1c0.1-0.1,0.1-0.1,0.2-0.2c0.1-0.2,0.1-0.4,0-0.7c0-0.2-0.2-0.4-0.3-0.5
		c-0.1-0.1-0.2-0.1-0.3-0.1c-0.1,0-0.2,0-0.3,0L72,14.2z"/>
	<path class="st3" d="M83.8,14.9l-0.3-0.5l-0.8,0.2l0,0.6l-0.5,0.1l0.2-2.4l0.5-0.1l1.3,1.9L83.8,14.9z M82.8,13.3l0,1l0.6-0.2
		L82.8,13.3L82.8,13.3z"/>
	<path class="st3" d="M85.8,14l0.1,0.4l-1.4,0.4l-0.6-2.2l1.4-0.4l0.1,0.4l-1,0.3l0.1,0.5l0.9-0.3l0.1,0.3l-0.9,0.3l0.1,0.5L85.8,14
		z"/>
	<path class="st3" d="M85.6,12.1l0.8-0.2c0.1,0,0.3-0.1,0.4-0.1c0.1,0,0.3,0.1,0.4,0.1c0.1,0.1,0.2,0.2,0.3,0.3
		c0.1,0.1,0.1,0.3,0.2,0.4c0.1,0.3,0.1,0.6-0.1,0.9c-0.1,0.1-0.2,0.2-0.3,0.3c-0.1,0.1-0.3,0.1-0.4,0.2l-0.8,0.2L85.6,12.1z
		 M86.2,12.3l0.4,1.4l0.3-0.1c0.1,0,0.2-0.1,0.2-0.1c0.1-0.1,0.1-0.1,0.2-0.2c0.1-0.2,0.1-0.4,0-0.6c0-0.2-0.1-0.4-0.3-0.5
		c-0.1,0-0.2-0.1-0.2-0.1c-0.1,0-0.2,0-0.3,0L86.2,12.3z"/>
	<path class="st0" d="M144.8,260.3c48.9,0,88.5-3.5,88.5-7.8c0-4.3-39.6-7.8-88.5-7.8c-48.9,0-88.5,3.5-88.5,7.8
		C56.3,256.8,95.9,260.3,144.8,260.3z"/>
	<path class="st3" d="M128.4,123.6c0,0-1.4,1.5-0.4,2.4c0.9,0.9,3.9-0.5,3.9-0.5L128.4,123.6z"/>
	<path class="st10" d="M198.7,47.9c0,0.1,0,0.1,0,0.2c-0.1,0.3-0.1,0.7-0.3,1c-0.4,1.2-0.9,2.4-1.5,3.5c-0.1,0.3-0.3,0.5-0.4,0.7
		c-0.8,1.3-1.7,2.6-2.8,3.7c-1.2,0.8-2.5,1.4-3.8,1.9l-9.7-7.2L176,40.3c-0.1-0.1-3-5.4,2.5-6.5c0.4-0.1,0.8-0.1,1.2-0.2
		c0.1,0,0.3,0,0.5,0c1.8-0.1,3.5,0,5.3,0.4c0.7,0.2,1.4,0.4,2.1,0.6c1.9,0.8,3.6,1.8,5.1,3.1c0.9,0.7,1.6,1.5,2.1,2.4
		c0.3,0.4,0.5,0.8,0.7,1.3c0.1,0.2,0.1,0.3,0.1,0.3S199.3,44.2,198.7,47.9z"/>
	<path class="st11" d="M196.9,52.6c-0.1,0.3-0.3,0.5-0.4,0.7c-1.6-2.4-3.8-4.4-6.4-5.8c-1.7-1.2-3.6-2.1-5.5-2.9
		c-1.9-0.6-3.8-0.9-5.8-1c-0.5,0-0.5-0.8,0-0.8c2,0.1,4.1,0.4,6,1c2,0.8,3.9,1.8,5.7,2.9C193,48.3,195.2,50.3,196.9,52.6z"/>
	<path class="st11" d="M195.6,41.4c-1.9-1.3-4-2.4-6.2-3.2c-2.9-0.8-7.7-2.1-9.6,1.1c0,0-0.1,0.1-0.1,0.1c0,0-0.1,0-0.1,0.1
		c-0.1,0-0.1,0-0.2,0c0,0-0.1,0-0.1-0.1c-0.1-0.1-0.1-0.1-0.2-0.2c-0.1,0-0.1,0-0.2-0.1c-0.1,0-0.1-0.1-0.2-0.1
		c0-0.1-0.1-0.1-0.1-0.2c0-0.1,0-0.1,0-0.2c0.6-1.3,1.6-2.4,2.8-3.2c1.2-0.8,2.5-1.4,4-1.5c0.7,0.2,1.4,0.4,2.1,0.6
		c-1.4-0.1-2.8,0.2-4.1,0.7c-1.3,0.6-2.4,1.4-3.4,2.5c1.8-1.5,4.6-1.4,6.9-0.9c2.8,0.6,5.4,1.7,7.8,3.2
		C195.1,40.6,195.4,41,195.6,41.4z"/>
	<path class="st11" d="M179.6,33.8c-0.7,0.8-1.2,1.8-1.5,2.8c-0.3,1-0.4,2.1-0.2,3.2c0.1,0.5-0.7,0.7-0.7,0.2
		c-0.2-1.1-0.2-2.2,0.1-3.2c0.2-1.1,0.7-2.1,1.4-2.9c0.4-0.1,0.8-0.1,1.2-0.2C179.7,33.7,179.6,33.7,179.6,33.8z"/>
	<path class="st11" d="M198.7,47.9c0,0.1,0,0.1,0,0.2c-0.1,0.3-0.1,0.7-0.3,1c-1.4-2.6-3.5-4.9-6-6.6c-1.6-1.2-3.5-1.9-5.5-2.3
		c-2.1-0.3-5.5-0.6-7.5,0.4c-0.4,0.2-0.8-0.4-0.4-0.7c1.8-0.9,4.6-0.8,6.5-0.7c2.2,0.2,4.3,0.8,6.2,1.9c2,1.1,3.8,2.6,5.3,4.3
		C197.7,46.3,198.2,47.1,198.7,47.9z"/>
	<path class="st3" d="M211.8,251.4h-12.6l0-1.4l0-0.8l-0.2-8.4V236l3.2-2.1l3.4,5.7l5.4,7.6l0.4,2l0.1,0.8L211.8,251.4z"/>
	<path class="st12" d="M134.2,114.8v-2.2l10.9,0.2l2.3,9.7l-8.8,1.6L134.2,114.8z"/>
	<path class="st3" d="M136,113.5l6.8,6l-6.3-4.1L136,113.5z"/>
	<path class="st13" d="M149,125.7l-2.5-3.4l2.9-2L149,125.7z"/>
	<path class="st14" d="M143.5,112.7c0,0,2.4-1.1,2.5-0.8s4.1,10.1,4,10.1l-4,0.6c0.2-1.8,0.1-3.7-0.5-5.4
		C145,115.7,144.4,114.2,143.5,112.7z"/>
	<path class="st15" d="M172.8,101.1c0.1,0.3-5.6,10.2-5.6,10.2L149,125.7c0-3-0.5-6-1.6-8.9c-1.6-3.8-3.4-4.3-3.4-4.3l14.4-9.5
		l0.7-0.5l0.2-0.1c0,0-1.7-1.8-1.8-2c0-0.1,0.3-0.1,0.7-0.2c0.4-0.1,0.9-0.1,1.3-0.1c0,0,0-0.1,0.1-0.1c0.4-0.9,3.1-8,5.7-14.7
		l0.3-0.7c2.2-5.9,4.2-11.3,4.2-11.4c0,0,0.9,8.3,1.7,15.8c0,0.2,0,0.4,0.1,0.5C172.1,95.6,172.7,101,172.8,101.1z"/>
	<path class="st13" d="M168.3,109.2l1.8-23.8l0.2,20.3L168.3,109.2z"/>
	<path class="st13" d="M171.5,89.5c0,0.1,0,0.1-0.1,0.2c0,0.1-0.1,0.2-0.1,0.3c0,0.1-0.1,0.2-0.2,0.2c-0.1,0-0.2,0.1-0.3,0
		c-0.1,0-0.2-0.1-0.2-0.2c-0.1-0.1-0.1-0.2,0-0.3c0.1-0.5-3.4-2.7-3.9-3.1c-0.5-0.4-1-0.8-1.6-1.2l0.3-0.7c1.9,1.5,3.9,3,5.9,4.4
		c0,0,0.1,0,0.1,0.1c0.1,0,0.1,0.1,0.1,0.2C171.5,89.3,171.5,89.4,171.5,89.5z"/>
	<path class="st3" d="M195.8,251.4H165l0.6-1.2l0.4-0.8l0.3-0.6l11.5-6.7l0.8-0.5l1.5-0.9l0.7-0.4l1.7-1l0.7-0.4l2.2-1.3l10.2,1.5
		l0.2,10.3l0,0.8L195.8,251.4z"/>
	<path class="st15" d="M206.5,234.9l0.3,0.5l-1.2,4.2l-2.4-2l-0.7-0.6l-3.5,3.8l-1.9-2.6l-2-24.2l0.5,25.1l-2.5,1.6l-4.9-2l-0.8-0.3
		l-2-0.8c0,0-0.9-3.3-1.6-5.7c-0.1-0.3-0.2-0.6-0.2-0.9c-0.1-0.5-0.3-1-0.3-1.5c0.1-0.1,0.4-1.1,0.8-2.2c0.1-0.3,0.2-0.5,0.3-0.7
		c0.3-1,0.6-1.8,0.6-1.8l-2.1-1.6l2.6-3.8l-6.2-27.5l1.2-2.2c0,0-8.6-33.9-10-39.2s1.7-24.2,1.7-24.2l39.7,0.7l-7,103.4l-0.1,0.8
		l-0.1,0.9l1.2,1.9L206.5,234.9z"/>
	<path class="st13" d="M192.6,135.2c0,0,4.3,16.9,5.4,20.1c1.1,3.2,11.2,9.2,11.2,9.2l1-15.2L192.6,135.2z"/>
	<path class="st13" d="M175.9,129.6c0.1,4.4,0,8.9-0.3,13.3c-0.4,4.5-1.7,8.9-3.9,12.9l-1.6-5.7L175.9,129.6z"/>
	<path class="st13" d="M189.3,147.5c-0.4-1-2.8-0.5-3.6-0.5l-1,0c-0.1-0.9-0.2-1.8-0.2-2.7l3-0.1c0.1,0,0.2,0.1,0.3,0l0.7-0.1
		c0.1,0,0.2,0,0.3-0.1c0.1-0.1,0.1-0.2,0.1-0.3s0-0.2-0.1-0.3c-0.1-0.1-0.2-0.1-0.3-0.1c-0.2,0-0.3,0-0.5,0l-3.5,0.1
		c-0.3-3.8-0.7-7.6-1-11.4c0-0.4-0.7-0.5-0.8-0.1l-0.1,0.5c0,0.1,0,0.2,0,0.2c0,0.1,0.1,0.1,0.2,0.2c0.2,3,0.5,6,0.8,9
		c0,0.5,0.1,1,0.1,1.6l-2.6,0.1c-0.4-3.9-0.9-7.8-1.3-11.7c-0.1-0.5-0.8-0.5-0.8,0l1.3,11.7l-3,0.1c-0.5,0-0.5,0.8,0,0.8l3.1-0.1
		l0.3,2.5l-3.3,0c-0.1,0-0.2,0-0.3,0.1c-0.1,0.1-0.1,0.2-0.1,0.3s0,0.2,0.1,0.3c0.1,0.1,0.2,0.1,0.3,0.1l3.4,0l0.1,0.8
		c0.2,1.7-0.1,4,1.1,5.4c0.7,0.6,1.4,1.1,2.2,1.5c1.2,0.9,2.3,1.9,3.3,3c0.3,0.4,1.1-0.5,0.8-0.9c-1.3-1.2-2.7-2.2-4.2-3.1
		c-0.4-0.2-0.7-0.5-1.1-0.7c-1-0.6-1-1.5-1.1-2.5c1-0.3,2-0.7,2.9-1.3c0.1,0,0.1-0.1,0.1-0.1c0-0.1,0.1-0.1,0.1-0.2
		c-0.1-0.6-0.1-1.2-0.2-1.9c1.3,0,2.9-0.1,3.5,0c0,0.1,0,0.2,0.1,0.3c0.1,0.1,0.1,0.1,0.2,0.1c0.1,0,0.1,0,0.2,0l0.3-0.1
		c0.1,0,0.2-0.1,0.2-0.2C189.3,147.7,189.4,147.6,189.3,147.5z M183.7,144.3c0.1,0.7,0.1,1.5,0.2,2.2c0,0.2,0,0.3,0,0.5l-2.5,0
		l-0.3-2.5L183.7,144.3z M184.1,148.8c0.1,1.1-1.4,1.4-2.3,1.6l-0.3-2.7l1.2,0c0.1,0,0.7,0,1.3,0C184,148.1,184.1,148.4,184.1,148.8
		L184.1,148.8z"/>
	<path class="st13" d="M174.4,132.1c0,0,0.5,0.4,9.1,1.3c8.6,0.8,12.6,0.3,12.6,0.3l-1.6-6.9l-19-0.3L174.4,132.1z"/>
	<path class="st13" d="M195.1,214l-6.8-56.6h-1.3L195.1,214z"/>
	<path class="st14" d="M211.8,127.1l-24.8-0.4l-14.8-0.3l-2.4-53.1l13.2-7.1l-4.8-5.9l8.2-10.4c2.1,3.5,4.3,6.8,6.8,9.9
		c0.6,0.7,1.1,1.4,1.7,2c1.2,1.4,2.5,2.6,4,3.7c3.3,2.3,7.4,3.3,11.4,2.7c0,0,0,0.2,0,0.5L211.8,127.1z"/>
	<path class="st3" d="M177.3,126.5l-0.4,6.1l7.8,0.9v-6.9L177.3,126.5z"/>
	<path class="st12" d="M193.1,59.8l-9.1,7.9l-1.1-1.5l-4.8-5.9l8.2-10.4C188.3,53.3,190.6,56.7,193.1,59.8z"/>
	<path class="st16" d="M185.1,54.1c0.4,1.5,0.4,3.1,0,4.7c-0.8,2.7-3.9,5.3-3.9,5.3l-3.1-3.8L185.1,54.1z"/>
	<path class="st12" d="M189.3,51.1l0,3.6l-4.2-0.6c-0.6,3.2-4,7.3-6.3,8c-2.3,0.7-5.1,0.8-6.1-1.9c-0.6-1.8-0.9-3.8-0.8-5.7
		c0,0-2.4-0.1-1.9-1.3c0.5-1.2,2.6-2.3,2.5-3.3c-0.1-0.8-0.6-2-0.7-3.2c0-0.4,0-0.7,0.1-1.1c0-0.1,0.1-0.2,0.1-0.3
		c0.5-1.5,1.9-4.7,4.5-6.2c2.8-1.5,5.2-1.5,4.9-1.3c-0.3,0.2-2.4,3.2-2,5.2c0.3,2,2.6,2.8,2.6,3c0,0.3,0.6,4.1,0.6,4.1
		c0.6-0.1,1.1-0.3,1.6-0.7c0.5-0.4,0.8-0.9,1-1.5c0.6-2,3-3.9,4.7-2.7S189.3,51.1,189.3,51.1z"/>
	<path class="st15" d="M178.1,68.8c0,0-0.7,8.8-0.7,17.7c0,2-0.1,5.2-0.2,8.9c0,1.1-0.1,2.3-0.1,3.5c-0.4,12.1-1,27.9-1.3,32.9
		c-0.4,7.1-5.8,22.8-6.1,22.2c-0.3-0.5-4.4-7.2-4.3-7.8s5.8-19.5,5.3-31.6c-0.5-12.2-1-41.2-1-41.2l6.4-3.4l0.8-0.4L178.1,68.8z"/>
	<path class="st15" d="M219.5,152.8c0.1,0.4-8.2,2.6-13.1,3c-4.9,0.4-7.3-1.2-7.6-1.8c-0.3-0.6-8-26.9-8-26.9l-3.8-0.4
		c0,0-1.3-6-1.2-28.1c0-0.5,0-1.1,0-1.7v-0.3c0.3-18.3,6.3-30.4,9-34.8c0.8,0.9,1.7,1.8,2.7,2.6c0.2,0.2,0.5,0.4,0.7,0.6
		c0.2,0.2,0.4,0.3,0.7,0.5c3.3,2.3,7.4,3.3,11.4,2.7c0,0,0,0.2,0,0.5c0.1,2.2,0.4,11.5,1.6,29.2
		C213.1,118.5,219.4,152.5,219.5,152.8z"/>
	<path class="st13" d="M200.4,130.2l16.2,5.5l-2-13.4L200.4,130.2z"/>
	<path class="st13" d="M212.5,105.3l-6.5,10.8l6.8-7.4L212.5,105.3z"/>
	<path class="st13" d="M203.8,87.1l2,13l6.6,5.6l-1-12.8L203.8,87.1z"/>
	<path class="st13" d="M203.4,142.8c0-0.1,0-0.2-0.1-0.2c-0.1-0.1-0.1-0.1-0.2-0.1c-1.8-3.4-3.5-6.7-5.2-10.2
		c-0.2-0.4-0.9-0.1-0.7,0.4c1.8,3.6,3.6,7.2,5.5,10.7c0,0.1,0.1,0.1,0.2,0.2c0.1,0,0.2,0,0.2,0c0.1,0,0.2-0.1,0.2-0.1
		c0.1-0.1,0.1-0.1,0.1-0.2C203.5,143.1,203.4,142.9,203.4,142.8z"/>
	<path class="st13" d="M205.7,140.1l-3.1-3.9c-1-1.3-2.5-2.7-3.1-4.2c-0.2-0.5-0.9-0.3-0.7,0.2c0.7,1.3,1.5,2.5,2.5,3.6l3.9,4.8
		C205.4,141.1,206,140.5,205.7,140.1z"/>
	<path class="st13" d="M195.5,124.4c-1.5-4.5-3.5-8.8-5.4-13.1c-0.2-0.5-0.9-0.1-0.7,0.4c1.9,4.3,3.8,8.5,5.3,12.9
		C195,125.1,195.7,124.9,195.5,124.4z"/>
	<path class="st12" d="M209.6,124.9c0,0-7.2,6-10.8,8.5s-4.5,2.9-5.3,3c-0.5,0-0.7-0.3-0.7-0.6c0-0.1-0.1-0.3-0.1-0.4
		c-0.2,0.1-0.5,0.2-0.8,0.2c-0.3,0-0.6,0-0.9-0.2c-0.3-0.3-0.5-0.7-0.6-1.2c0-0.2-0.1-0.4-0.1-0.5c-0.2,0-0.4,0-0.6,0
		c-0.3,0-0.5-0.1-0.8-0.3c-0.3-0.2-0.5-0.6-0.6-0.9c-0.1-0.2-0.1-0.4-0.1-0.5c-0.1,0-0.3,0-0.4,0c-0.6-0.1-1.1-0.3-1.6-0.7
		c-0.6-0.8,2.6-2.7,2.6-2.7c-0.7-0.1-1.3-0.1-2,0c-0.8,0.1-1.5-0.1-2.2-0.3c0,0,5.8-4.5,6-4.5s6.7,0.7,6.7,0.7l7-5.8L209.6,124.9z"
		/>
	<path class="st15" d="M230.4,108.3c0,0-9.5,11.7-12.4,15c-2.9,3.3-5.1,5.5-5.1,5.5l-9-10.6l4.8-5.2l0.6-0.7l5.6-6.1l-1.4-1.4
		l0.2-0.6l0.3-1.1l-0.1-0.1c-0.2-0.2-0.5-0.5-0.9-1c-0.2-0.2-0.3-0.4-0.5-0.6c-2.7-2.9-7.8-9.1-8.5-13.7c-1-6.3-1.3-16.3,6.2-19.7
		l8.1,11.7l-0.3,0.3l-0.9,1.2l0.2,0.1l0.1,0l0.8,0.3l0.7,0.3l1.3,3.1l0.3,0.7L230.4,108.3z"/>
	<path class="st14" d="M204.2,118.5l-4.1,3.4l7.6,8.3l4-2.9L204.2,118.5z"/>
	<path class="st4" d="M183.6,68.2l3,3.5l-3.8,3.3l2.4,51.5l-4.4,4.2l-2.7-4.2l3.4-51.6l-2.2-2.2L183.6,68.2z"/>
	<path class="st17" d="M141.6,123.5L141.6,123.5C141.6,123.5,141.6,123.5,141.6,123.5C141.7,123.6,141.7,123.6,141.6,123.5
		c0,0.1,0,0.1,0,0.1c0,0.1,0.1,0.3,0.2,0.5c0.2,0.5,0.4,1,0.6,1.5c0,0.1-0.8,0.3-1.2,0.5c-0.2,0-0.3,0.1-0.4,0.1h0
		c0,0,0.2,0.7,0,0.9c-0.3,0.1-0.5,0.2-0.8,0.3c-0.2,0-0.3,0.1-0.4,0.1l-0.1,0c-0.2,0.5-0.5,0.9-0.9,1.2c-0.4,0.2-0.8,0.3-1.2,0.3
		l-0.1-0.1l-0.3-0.2l0,0l-1.5-0.7l-0.4-0.2l-1.7-0.9l-0.4-0.2l-2.2-1.1l-4.6-2.4l1.7-6.4l6.7-2.6c0,0,9.9,6.3,10.1,6.8
		c0.1,0.8,0.1,1.6-0.1,2.4c0,0.1-1.7,0.1-2.5,0.1h0C141.9,123.5,141.7,123.5,141.6,123.5z"/>
	<path class="st12" d="M137.5,126c0,0.9-0.3,1.8-0.7,2.7c-0.1,0.2-0.2,0.3-0.3,0.4c-0.1,0-0.1,0.1-0.2,0.1c-0.2,0-0.4,0-0.5-0.1
		c-0.2-0.1-0.3-0.2-0.4-0.4c-0.1-0.1-0.1-0.2-0.2-0.3c-0.1,0-0.1,0.1-0.2,0.1c-0.2,0.1-0.5,0.2-0.7,0.2c-0.3,0-0.5,0-0.8-0.1
		c-0.1,0-0.3-0.1-0.3-0.2c-0.1-0.1-0.1-0.2-0.1-0.4v0c0-0.2,0-0.3,0.1-0.4c0,0-0.2,0-0.4,0.1c-0.7,0.1-2,0.1-2.3-0.4
		c-0.1-0.5,0.1-1.1,0.4-1.5c0.6-1,1.6-2.1,2.2-2.1c0.1,0,0.3,0,0.4,0c0.7,0.2,0.7,1.1,0.7,1.1c0.4-0.2,0.9-0.3,1.4-0.2
		c0.7,0.2,0.9,1.3,0.9,1.3S137.5,125.5,137.5,126z"/>
	<path class="st12" d="M134.8,112.5c0,0-1.9-0.4-2,0.6c0.2,1.9,0.7,3.7,1.4,5.4c0.2,0,2.1,0.2,2.1-0.3c0-0.5-0.2-4.5-0.2-4.5
		L134.8,112.5z"/>
	<path class="st3" d="M131.9,250.2h-26.6l0.1-1.2l0.1-0.8l1-8.7l8.7-1.9l4.2,2.7l0.7,0.5l1.1,0.7l0.7,0.5l1.6,1l0.7,0.4l1.3,0.8
		l0.7,0.4l4,2.6l0.6,1l0.4,0.8L131.9,250.2z"/>
	<path class="st3" d="M108.7,256.1H97.4c-4,0-14.2-3.9-14.2-3.9l0.3-1.7l0.2-0.8l1.3-6.7l9.4-2.3l2.9,2.6L98,244l0.6,0.6l0.7,0.6
		l0.8,0.7l0.6,0.6l1.3,1.1l0.6,0.6l3.5,3.2l1.5,2.7l0.4,0.8L108.7,256.1z"/>
	<path class="st13" d="M114.9,198.9l-0.2,25.5l1.1,2.7l-1.1,3.3l0,0.1l0.5,0.6l1,1.3l0,0.1l-0.1,0.8l-0.8,4.4l-8.7,1.9l-4.5-36.3
		l-0.8-6.6l-0.1-0.9l-0.1-0.8l-0.4-3l-0.2-2l-5.4-45.6l16.1-3.9l5.1-1.2v17.7l-1.2,35.5l0,1.1l-0.1,3.1l0,1.1L114.9,198.9z"/>
	<path class="st3" d="M104,188.4l2.7,7.2l-4.8,5.7l-1.1-9.3L104,188.4z"/>
	<path class="st3" d="M101.3,196.7l15.1-45.5v-12l-1.8,1.2l-1.9,13.2l-3.8,2.9L101.3,196.7z"/>
	<path class="st13" d="M111.2,140.4l-8.9,54.1l-0.1,0.9l0,0l-0.8,1.2l-0.6,0.9l-0.7,1.1l-2.2,3.4l-2.2,31.1l-0.1,0.9l0,0.6l-0.3,0.8
		l0.8,1.2l0.4,0.6l0,0.1l-1.6,3.1l-0.2,0.3l-0.9,0.4l-8.8,3.6l-3-3.9l1.1-3.1l0.2-46.5l2-1.4l-1.1-1.2l3.5-10.2l-3.2-39.1
		L111.2,140.4z"/>
	<path class="st3" d="M116.4,139.5c-0.1,2.1-1,4-2.4,5.5c-2.3,2.2-8.3,2.9-14.8,2.7c-4.9-0.3-9.7-1.2-14.4-2.4l-0.2-2L116.4,139.5z"
		/>
	<path class="st13" d="M106.3,145.2c-6.3,0.7-25.2-2.5-25.2-2.5l3.7-25.6l0.1-0.6c0,0,0-0.5-0.1-1.4c-0.2-2.7-0.8-9.2-1.3-16.5
		c-0.5-6.5-0.9-13.6-1-19.1c-0.1-2.6,0-5.1,0.2-7.7C83.4,66.6,87,60.4,91,55c0.2-0.2,0.3-0.5,0.5-0.7c0.1-0.2,0.3-0.4,0.4-0.5
		c0.7-0.9,1.4-1.8,2.1-2.7c2.4-2.9,4.9-5.7,7.5-8.4l12,5.4l-7.2,13.7l0.7,1.8l2.6,6.3l7.7,18.8c0,0,0,0,0,0c0,0,0,0,0,0
		c0,0,0,0.6,0,1.6c0,0.4,0,0.8,0,1.2c0,3.5-0.1,9.7-0.1,16.4v0.9c0,8.8,0,18.2,0.2,23.3C117.7,143.5,112.6,144.5,106.3,145.2z"/>
	<path class="st3" d="M93.5,111.9L83.4,98.7c-0.5-6.5-0.9-13.6-1-19.1l0.1-0.4L93.5,111.9z"/>
	<path class="st14" d="M117.2,88.8c-0.5-1-5.7-12.2-9.8-18.1c-3-4.3-11-12.4-15.6-16.9c0.7-0.9,1.4-1.8,2.1-2.7l12.3,10.7
		L117.2,88.8z"/>
	<path class="st17" d="M113.5,48.1l-7.2,13.7L94,51.1c2.4-2.9,4.9-5.7,7.5-8.4L113.5,48.1z"/>
	<path d="M107,63.6l-1.6,3.2l4.2,3.2l-0.8,2.9l8.4,16L107,63.6z"/>
	<path class="st14" d="M129,116.4l-2.1,7.2l-3.3-0.8l2.6-7.8L129,116.4z"/>
	<path class="st13" d="M127.2,115l-4.5,11.5l-29.2-14.6c0,0-10.6-27.2-11-32.2c-0.5-5,0-12.8,7.3-12.3c7.2,0.5,11.8,5.7,12.6,13.5
		c0.8,7.8,2.5,19.9,2.5,19.9l0.7,0.8l-0.7,0.8l2.7,0.6l12.7,7.7l0.9,0.5L127.2,115z"/>
	<path class="st17" d="M116.6,43.6c0,0,3,11-1,11.2c-4,0.2-7.4-2.9-8.8-5c-0.8-1.3-1.3-2.9-1.4-4.5v0l-10.2,4.3
		c0,0-7.5-7.5-5.3-15.1s8.6-8.2,12.5-7.8c2.5,0.2,4.5,0.4,6.3,1.6c1.1,0.7,2.1,1.7,2.8,2.9c0.9,1.3,1.6,2.6,2.1,4
		c0.2,0.4,0.3,0.7,0.4,1.1c0.2,0.8,0.5,1.5,0.8,2.2c0.5,0.9,3.7,3.3,3.7,4S116.6,43.6,116.6,43.6z"/>
	<path class="st3" d="M177.3,55.2L177.3,55.2c-0.3-0.1-0.5,0.1-0.5,0.4c-0.1,0.2-0.3,0.3-0.5,0.5c-0.2,0.2-0.4,0.4-0.7,0.5
		c-0.5,0.4-1,0.6-1.6,0.6c-0.5,0-0.5,0.7,0,0.8c0.8,0,1.5-0.3,2.1-0.8c0.5-0.3,1.3-0.9,1.4-1.6c0-0.1,0-0.2-0.1-0.2
		C177.5,55.3,177.4,55.2,177.3,55.2z"/>
	<path class="st3" d="M174.7,46.5c-0.5-0.2-1-0.3-1.5-0.3c-0.5,0-1,0.2-1.4,0.5c0-0.4,0-0.7,0.1-1.1c0-0.1,0.1-0.2,0.1-0.3
		c0.5-0.2,1.1-0.3,1.6-0.2c0.6,0,1.1,0.2,1.6,0.4C175.9,45.8,175.3,46.8,174.7,46.5z"/>
	<path class="st3" d="M175.4,48.6c0.2,0.6,0,1.3-0.4,1.4c-0.4,0.1-0.9-0.3-1.1-0.9c-0.2-0.6,0-1.3,0.4-1.4
		C174.6,47.6,175.2,48,175.4,48.6z"/>
	<path class="st13" d="M198.1,65c-0.2,2.1-0.4,4.2-0.5,6.4c0,0.1,0,0.2-0.1,0.3c-0.1,0.1-0.2,0.1-0.3,0.1c-0.9,0.1-1.9,0.3-2.7,0.7
		c0.7,0.9,1.6,1.7,2.7,2.3c0.1,0.1,0.1,0.1,0.2,0.2c0,0.1,0,0.2,0,0.3c-4.2,7.5-8,15.3-11.5,23.2c0-0.5,0-1.1,0-1.7v-0.3
		c3.2-7.3,6.8-14.4,10.6-21.3c-1.1-0.7-2.1-1.7-2.9-2.7c0,0,0-0.1,0-0.1c0-0.1,0-0.1,0-0.2c0,0,0-0.1,0.1-0.1c0,0,0.1-0.1,0.1-0.1
		c0.9-0.5,1.8-0.8,2.8-0.9c0.6-0.1,0.5-2.2,0.5-2.7c0.1-1.3,0.3-2.6,0.4-4C197.7,64.7,197.9,64.9,198.1,65z"/>
	<path class="st13" d="M177.2,95.4c0,1.1-0.1,2.3-0.1,3.5c-0.9-4.7-1.8-9.4-2.8-14.1c-0.4-1.9-1.2-4.2-1.1-6.2
		c0.1-0.9,1.3-2.1,2-2.9c-0.2-0.2-0.3-0.5-0.4-0.8c-0.1-0.3,0-0.6,0.1-0.9c0.4-1.4,0.7-2.7,1.1-4.1l0.8-0.4
		c-0.7,2.4-1.5,5.6-0.9,5.8c0,0,0.1,0,0.1,0.1c0,0,0.1,0.1,0.1,0.1c0,0,0,0.1,0,0.1c0,0.1,0,0.1,0,0.2c0,0.1,0,0.1-0.1,0.2
		c-0.7,0.7-1.4,1.6-2,2.4c-0.4,0.9,0.1,2.3,0.3,3.3c0.4,1.9,0.8,3.9,1.2,5.8C176.1,90.1,176.6,92.7,177.2,95.4z"/>
	<path class="st13" d="M200.8,87.4c-0.1-0.2-1-1.6-1-1.6c0,0-0.1-0.1-0.1-0.1c0,0-0.1-0.1-0.1-0.1c0,0-0.1,0-0.2,0
		c-0.1,0-0.1,0-0.1,0c0,0-0.1,0.1-0.1,0.1c0,0-0.1,0.1-0.1,0.1c0,0,0,0.1,0,0.2c0,0.1,0,0.1,0,0.1c0,0.1,0.1,0.1,0.1,0.2
		c-2.7,1-5.3,2.1-8,3.1c-0.5,0.2-0.3,0.9,0.2,0.7c2.7-1.1,5.5-2.1,8.2-3.2c0.2,0.3,0.3,0.5,0.5,0.8
		C200.4,88.2,201.1,87.8,200.8,87.4z"/>
	<path class="st13" d="M217.3,81.5c-2.6,1.3-5.3,2.4-8,3.4c-0.5,0.2-0.7-0.6-0.2-0.7c3.1-1.1,6-2.4,8.9-3.9l-0.9,1.2L217.3,81.5z"/>
	<path class="st13" d="M218.2,81.8c-2.3,1.9-4.5,4-6.6,6.1c-0.1,0.1-0.2,0.1-0.3,0.1c-0.1,0-0.2,0-0.3-0.1c-0.1-0.1-0.1-0.2-0.1-0.3
		c0-0.1,0-0.2,0.1-0.3c2.1-2,4.2-4,6.4-5.9L218.2,81.8z"/>
	<path class="st13" d="M220.5,85.9c-1.8,1-3.6,1.9-5.5,2.8c-0.4,0.2-0.8-0.4-0.4-0.7c1.9-0.9,3.7-1.9,5.6-2.8L220.5,85.9z"/>
	<path class="st13" d="M218.6,96.4c0,0.1-0.1,0.2-0.1,0.3c0,0.1-0.1,0.2-0.2,0.2c-0.1,0-0.2,0.1-0.3,0c-1.9,1.6-3.6,3.4-5.1,5.3
		c-0.2-0.2-0.3-0.4-0.5-0.6c1.6-2.1,3.5-4,5.5-5.7C218.3,95.8,218.8,96,218.6,96.4z"/>
	<path class="st13" d="M224.2,100.8l-9.6,3c0,0-0.1,0-0.1,0c-0.2,0.2-0.5,0.4-0.7,0.6l0.3-1.1l-0.1-0.1c2-1.9,4.2-3.6,6.4-5.2
		c0-0.1,0-0.2,0.1-0.2c0.1-0.1,0.2-0.1,0.2-0.1c0.1,0,0.2,0,0.3,0c0.4,0,0.5,0.5,0.2,0.7c-1.9,1.3-3.7,2.7-5.4,4.2l7.3-2.2
		c0-0.1,0.1-0.2,0.1-0.2c0.1-0.1,0.2-0.1,0.2-0.1h0.7c0.1,0,0.2,0,0.3,0.1c0.1,0.1,0.1,0.2,0.1,0.2c0,0.1,0,0.2-0.1,0.3
		C224.4,100.7,224.3,100.8,224.2,100.8z"/>
	<path class="st13" d="M219,114.2c-3.4-0.1-6.9-0.5-10.2-1.1l0.6-0.7c3.2,0.6,6.4,0.9,9.6,1c0.1,0,0.2,0,0.3,0.1
		c0.1,0.1,0.1,0.2,0.1,0.3s0,0.2-0.1,0.3C219.2,114.2,219.1,114.2,219,114.2z"/>
	<path class="st3" d="M190.8,130.9c-0.8,0.4-1.6,0.9-2.4,1.3c-0.1-0.2-0.1-0.4-0.1-0.5c-0.1,0-0.3,0-0.4,0l2.6-1.4
		C190.8,130,191.2,130.7,190.8,130.9z"/>
	<path class="st3" d="M192.7,132.4c-0.7,0.7-1.5,1.2-2.3,1.6c0-0.2-0.1-0.4-0.1-0.5c-0.2,0-0.4,0-0.6,0c0.9-0.3,1.8-0.8,2.4-1.5
		C192.5,131.5,193.1,132.1,192.7,132.4z"/>
	<path class="st3" d="M194.3,134.7c-0.5,0.4-1,0.7-1.6,1c0-0.1-0.1-0.3-0.1-0.4c-0.2,0.1-0.5,0.2-0.8,0.2c0-0.1,0-0.1,0.1-0.2
		c0-0.1,0.1-0.1,0.2-0.1c0.7-0.3,1.3-0.6,1.8-1C194.3,133.7,194.7,134.4,194.3,134.7z"/>
	<path class="st3" d="M196.7,131.3c-0.7,0.1-1.4,0-2-0.2c-0.5-0.2-0.7,0.6-0.2,0.7c0.7,0.2,1.5,0.3,2.2,0.3
		C197.2,132,197.2,131.2,196.7,131.3z"/>
	<path class="st3" d="M193.4,129.3l-0.3-0.1c-0.5-0.1-0.7,0.6-0.2,0.7l0.3,0.1c0.1,0,0.2,0,0.3,0c0.1-0.1,0.1-0.1,0.2-0.2
		c0-0.1,0-0.2,0-0.3C193.6,129.4,193.5,129.3,193.4,129.3z"/>
	<path class="st13" d="M191.8,234.6c-0.1,0.1-0.2,0.1-0.4,0.2c-0.1,0-0.1,0.1-0.2,0c-0.1,0-0.1,0-0.2-0.1c-0.1,0-0.1-0.1-0.1-0.2
		c0-0.1,0-0.1,0-0.2c-1.5-0.5-3-1-4.5-1.6c0.4,1.5,1.2,2.9,1.6,4.5c0.1,0.5,0.2,1,0.2,1.4c0.1,0.8,0.2,1.7,0.1,2.5
		c0,0.1,0,0.2-0.1,0.3c-0.1,0.1-0.2,0.1-0.3,0.1s-0.2,0-0.3-0.1c-0.1-0.1-0.1-0.2-0.1-0.3c0-1-0.1-1.9-0.2-2.8
		c-0.1-0.7-0.3-1.4-0.5-2.1c-0.6-1.1-1-2.3-1.3-3.6c0-0.1,0-0.1,0-0.2l-1.7-0.6c-0.1-0.3-0.2-0.6-0.2-0.9c0.7,0.2,1.3,0.5,2,0.7
		c0.2-1,0.5-2,0.9-3c0,0,0,0,0,0c-0.8-0.5-1.6-0.9-2.4-1.3c0.1-0.2,0.2-0.5,0.3-0.7c0.8,0.4,1.6,0.9,2.4,1.3
		c0.4-1.3,0.5-2.6-0.5-3.5c-0.1-0.1-0.1-0.2-0.1-0.3c0-0.1,0-0.2,0.1-0.3c1.7-1.9,0.2-5.1-0.1-7.3c-0.2-2.3-0.2-4.6-0.5-6.9
		c-0.4-2.7-1.3-5.2-1.8-7.8c-0.4-2.2-0.7-4.4-0.8-6.6c0-0.5-0.1-1-0.2-1.5c-0.4-0.3-0.9-0.6-1.3-0.8c-0.4-0.3,0-0.9,0.4-0.7
		c0.3,0.2,0.5,0.3,0.8,0.5c-0.1-0.8-0.2-1.5-0.3-2.3c-0.2-0.2-0.3-0.4-0.5-0.7c0-0.1-0.1-0.1-0.1-0.2c0-0.1,0-0.1,0-0.2
		c0-0.1,0.1-0.1,0.1-0.1c0.1,0,0.1-0.1,0.2,0c-1.5-8.4-4.4-16.7-7.2-24.7c-0.2-0.5,0.6-0.7,0.7-0.2c2.8,7.4,5.1,15,6.9,22.8
		c0.2,1,0.4,2.1,0.6,3.1c1.2,1.4,2.6,2.7,4,3.8c0.4,0.3-0.2,0.9-0.5,0.5c-1.1-1-2.3-2-3.3-3c0.1,0.6,0.1,1.1,0.2,1.7
		c0.8,0.5,1.7,1.1,2.5,1.7c0.1,0,0.1,0,0.2,0c0,0,0.1,0,0.1,0.1c0.1,0.1,0.3,0.2,0.4,0.4c0.3,0.3-0.1,0.9-0.5,0.6
		c-0.9-0.6-1.7-1.2-2.6-1.8c0.1,1.3,0.3,2.6,0.4,3.9c0.4,3.7,1.7,7.1,2.3,10.8c0.6,3.6,0.4,7.1,1.2,10.7c0.3,1.1,0.4,2.3,0.1,3.4
		c-0.3,0.9-0.6,0.8-0.2,1.6c0.4,0.8,0.5,1.7,0.3,2.6c-0.1,0.4-0.2,0.7-0.4,1.1c0.7,0.4,1.4,0.8,2,1.2c0.5,0.4,1.1,0.8,1.7,1.1h0
		c0.1,0,0.2,0,0.3,0c0.1,0.1,0.2,0.1,0.2,0.2c0,0,0,0,0,0.1c0,0.1,0,0.2,0,0.3c-0.1,0.1-0.1,0.2-0.2,0.2c-0.1,0-0.1,0-0.2,0
		c-0.8-0.3-1.5-0.7-2.1-1.2c-0.6-0.4-1.3-0.8-1.9-1.2c-0.5,0.9-0.8,1.9-0.8,2.9l5.5,1.9c0.1,0,0.1,0.1,0.2,0.1
		c0.1,0.1,0.1,0.1,0.1,0.2c0,0.1,0,0.2,0,0.2C192,234.5,191.9,234.6,191.8,234.6L191.8,234.6z"/>
	<path class="st13" d="M206.5,234.9c-0.2,0-0.4,0-0.6,0.1c-0.7,0.1-1.4,0.2-2.1,0.2c0,0-0.1,0-0.1,0c0,0.3-0.1,0.6-0.2,0.9
		c-0.1,0.5-0.2,1-0.3,1.5c-0.1,0.5-0.1,1,0,1.5c0.1,0.5-0.6,0.7-0.7,0.2c-0.2-0.7-0.1-1.5,0-2.3c0-0.2,0.1-0.3,0.1-0.5
		c0.1-0.4,0.2-0.8,0.3-1.2c-1,0.1-2,0.1-3,0.1c-0.4,0-0.7,0-1.1,0c-0.1,0-0.2,0-0.3-0.1c-0.1-0.1-0.1-0.2-0.1-0.3
		c0-0.1,0-0.2,0.1-0.3c0.1-0.1,0.2-0.1,0.3-0.1c0.8,0,1.5,0,2.3,0c0.5,0,0.9,0,1.4-0.1c0.1,0,0.3,0,0.4,0c0-0.5-0.2-1-0.6-1.4
		c-0.2-0.2-0.3-0.4-0.4-0.6c-0.1-0.3-0.2-0.7-0.2-1.1c-0.4,0-0.7,0-1.1,0c-0.1,0-0.2,0-0.3-0.1c-0.1-0.1-0.1-0.2-0.1-0.3
		c0-0.1,0-0.2,0.1-0.3c0.1-0.1,0.2-0.1,0.3-0.1c0.4,0,0.8,0,1.1,0c0-0.6,0.2-1.3,0.2-1.9c0.1-1.5,0.2-3,0.3-4.6
		c0.3-6.8,0.3-13.7,0.1-20.6c-0.1-2.7-0.1-5.4-0.2-8.2c-1.3-1.5-2.7-2.9-4.1-4.3c-0.1-0.1-0.1-0.2-0.1-0.3c0-0.1,0-0.2,0.1-0.3
		c0.1-0.1,0.2-0.1,0.3-0.1c0.1,0,0.2,0,0.3,0.1c1.2,1.2,2.4,2.4,3.5,3.6c0-0.9-0.1-1.8-0.1-2.8c-0.5-0.5-0.9-1-1.3-1.5
		c-0.8-0.8-1.6-1.7-2.2-2.7c-0.2-0.5,0.5-0.8,0.7-0.4c0.7,1.2,1.6,2.2,2.6,3.1l0.2,0.2c-0.1-2.2-0.2-4.4-0.4-6.5
		c-0.6-6.7-1.5-13.3-2.5-20c-0.1-0.5,0.7-0.7,0.7-0.2c0.9,6.5,1.8,12.9,2.4,19.4c0.2,2.7,0.4,5.4,0.5,8.1c0.5,0.5,0.9,1,1.4,1.5
		c0.1,0.1,0.1,0.1,0.1,0.2c0,0.1,0,0.2,0,0.2c0,0.1-0.1,0.1-0.1,0.2c-0.1,0-0.1,0.1-0.2,0.1h-0.3c0,0-0.1,0-0.1,0c0,0-0.1,0-0.1-0.1
		c0,0-0.1-0.1-0.1-0.1c0,0,0-0.1,0-0.1c0-0.1,0-0.1,0-0.1c-0.2-0.2-0.3-0.3-0.4-0.5c0,0.9,0.1,1.9,0.1,2.8c0.3,0.4,0.6,0.7,0.8,1.1
		c0.1,0,0.1,0,0.2,0.1c0.1,0,0.1,0.1,0.1,0.2c0.1,0.3,0.2,0.5,0.3,0.8c0.2,0.4-0.5,0.7-0.7,0.3c-0.2-0.4-0.5-0.7-0.8-1.1
		c0.1,2.1,0.1,4.3,0.2,6.4c0.2,6.8,0.3,13.7-0.1,20.6c-0.1,1.8-0.2,3.5-0.3,5.3c-0.1,0.7-0.1,1.3-0.1,1.9c0.7,0,1.4-0.1,2.1-0.1
		l-0.1,0.8c-0.7,0-1.4,0.1-2,0.1c0.1,0.6,0.3,1.1,0.6,1.6c0.2,0.4,0.4,0.9,0.4,1.4c0,0,0.1,0,0.1,0c0.7-0.1,1.4-0.2,2.2-0.4
		L206.5,234.9z"/>
	<path class="st13" d="M162.8,106.3l-0.5-0.3c-0.1,0-0.1-0.1-0.1-0.1c0,0-0.1-0.1-0.1-0.2c-1.2-0.9-2.5-1.8-3.7-2.7l0.7-0.5
		c1.4,1,2.8,2,4.1,3c0.1,0.1,0.1,0.1,0.2,0.2c0,0.1,0,0.2,0,0.3c-0.1,0.1-0.1,0.1-0.2,0.2C163,106.3,162.9,106.3,162.8,106.3z"/>
	<path class="st13" d="M165.4,103.3h-0.6c-0.1,0-0.2,0-0.2-0.1c-0.1-0.1-0.1-0.1-0.1-0.2c-2.1-0.7-4.2-1.6-6.2-2.7
		c0.4-0.1,0.9-0.1,1.3-0.1c0,0,0-0.1,0.1-0.1c1.9,0.9,3.9,1.8,6,2.4c0.1,0,0.2,0.1,0.2,0.2c0.1,0.1,0.1,0.2,0.1,0.3
		c0,0.1-0.1,0.2-0.1,0.2C165.5,103.3,165.5,103.3,165.4,103.3L165.4,103.3z"/>
	<path class="st15" d="M195.8,250.2h-30.2l0.4-0.8h29.8L195.8,250.2z"/>
	<path class="st15" d="M211.5,249.9h-12.3l0-0.8h12.2L211.5,249.9z"/>
	<path class="st15" d="M206.1,242.5c-0.4-0.4-1.1-0.2-1.5-0.2l-3.1,0c-0.1,0-0.2,0-0.3,0.1c-0.1,0.1-0.1,0.2-0.1,0.3
		c0,0.1,0,0.2,0.1,0.3c0.1,0.1,0.2,0.1,0.3,0.1h3.1c0.1,0,0.6,0,0.8,0c0,0.1,0.1,0.1,0.1,0.2c0.1,0,0.1,0.1,0.2,0.1
		c0.1,0,0.2,0,0.3-0.1c0.1,0,0.1-0.1,0.2-0.2c0-0.1,0.1-0.2,0-0.2C206.2,242.6,206.2,242.5,206.1,242.5z"/>
	<path class="st15" d="M205.9,241.1c-0.2-0.2-0.4-0.3-0.6-0.4c-0.2-0.1-0.5-0.1-0.8-0.1c-1,0-2,0-3,0c-0.1,0-0.2,0-0.3,0.1
		c-0.1,0.1-0.1,0.2-0.1,0.3s0,0.2,0.1,0.3c0.1,0.1,0.2,0.1,0.3,0.1l1.8,0c0.6,0,1.6-0.2,2.1,0.3C205.7,242,206.2,241.4,205.9,241.1z
		"/>
	<path class="st15" d="M180.7,243.9c-0.9-0.6-1.9-1.2-2.9-1.7l0.8-0.5c0.9,0.5,1.7,1,2.5,1.5C181.5,243.5,181.1,244.2,180.7,243.9z"
		/>
	<path class="st15" d="M183.1,242.7c-1-0.6-2-1.2-3-1.9l0.7-0.4c0.9,0.6,1.7,1.1,2.6,1.6c0.1,0.1,0.1,0.1,0.2,0.2c0,0.1,0,0.2,0,0.3
		c-0.1,0.1-0.1,0.1-0.2,0.2C183.2,242.7,183.1,242.7,183.1,242.7z"/>
	<path class="st15" d="M186.4,242.1c-1.3-0.9-2.6-1.8-3.9-2.8l0.7-0.4c1.2,0.8,2.4,1.7,3.6,2.5C187.2,241.8,186.8,242.4,186.4,242.1
		z"/>
	<path class="st15" d="M131.2,249.1h-25.8l0.1-0.8h25.3L131.2,249.1z"/>
	<path class="st15" d="M120.2,240.8c-0.8,0.4-1.6,0.8-2.3,1.3c-0.4,0.2-0.8-0.4-0.4-0.7c0.7-0.4,1.3-0.7,2-1.1L120.2,240.8z"/>
	<path class="st15" d="M122,242c-0.4,0.3-0.8,0.5-1.3,0.8c0,0-0.1,0-0.1,0c-0.1,0-0.1,0-0.2,0c0,0-0.1,0-0.1-0.1
		c0,0-0.1-0.1-0.1-0.1c0,0,0-0.1,0-0.1c0-0.1,0-0.1,0-0.1c0,0,0-0.1,0.1-0.1c0,0,0.1-0.1,0.1-0.1c0.3-0.2,0.6-0.4,0.9-0.6L122,242z"
		/>
	<path class="st15" d="M124.3,243.4c-0.3,0.2-0.5,0.5-0.8,0.8c-0.3,0.4-0.9-0.2-0.5-0.5c0.2-0.2,0.4-0.5,0.7-0.7L124.3,243.4z"/>
	<path class="st15" d="M126.2,244.7c-0.2,0.2-0.3,0.4-0.5,0.6c-0.1,0.1-0.1,0.1-0.2,0.2c-0.1,0-0.2,0-0.3,0
		c-0.1-0.1-0.2-0.1-0.2-0.2c0-0.1,0-0.2,0-0.3c0.1-0.2,0.3-0.4,0.5-0.6L126.2,244.7z"/>
	<path class="st15" d="M98,244c-1.1,0.3-2.2,0.7-3.2,1.2c-0.4,0.2-0.8-0.5-0.4-0.7c0.9-0.4,1.9-0.8,2.9-1.1L98,244z"/>
	<path class="st15" d="M99.3,245.2c-0.8,0.2-1.6,0.5-2.3,0.9c-0.5,0.2-0.8-0.5-0.4-0.7c0.7-0.3,1.3-0.6,2-0.8L99.3,245.2z"/>
	<path class="st15" d="M100.7,246.5c-0.2,0.1-0.3,0.1-0.3,0.1c-0.6,0.2-1.1,0.6-1.6,0.9c-0.4,0.3-0.8-0.4-0.4-0.7
		c0.5-0.4,1.1-0.7,1.7-1L100.7,246.5z"/>
	<path class="st15" d="M102.6,248.2c-0.5,0.2-1,0.5-1.4,0.9c-0.4,0.3-0.9-0.2-0.5-0.5c0.4-0.4,0.9-0.6,1.3-0.9L102.6,248.2z"/>
	<path class="st15" d="M108,254.8c-3.8,0.3-7.7,0.7-11.4,0.1c-4.4-0.7-8.8-2.7-13-4.3l0.2-0.8c2.2,0.8,4.4,1.6,6.6,2.4
		c2.3,1,4.6,1.6,7.1,2c3.4,0.2,6.8,0.1,10.2-0.2L108,254.8z"/>
	<path class="st3" d="M114.1,36.3c-0.8,0.2-1.6,0.8-2.1,1.5c-0.4,0.6-1.4,0-1-0.6c0.6-1,1.6-1.7,2.7-2C113.9,35.6,114,36,114.1,36.3
		z"/>
	<path class="st3" d="M96.4,85c-4.3-0.4-8.6,0-12.7,1.1c-0.1,0-0.2,0.1-0.2,0.2c0,0.1-0.1,0.2,0,0.3c0,0.1,0.1,0.2,0.2,0.2
		c0.1,0.1,0.2,0.1,0.3,0.1c3.9-1,7.9-1.4,11.9-1.1c0,0.1,0,0.1,0.1,0.2c0,0.1,0.1,0.1,0.2,0.1c0.1,0,0.1,0,0.2,0
		c0.1,0,0.1-0.1,0.2-0.1l0.3-0.3c0.1-0.1,0.1-0.1,0.1-0.2c0-0.1,0-0.2,0-0.2c0-0.1-0.1-0.1-0.1-0.2C96.5,85,96.4,85,96.4,85L96.4,85
		z"/>
	<path class="st3" d="M96.4,87.1c-1.9,0-3.7,0.1-5.6,0.4c-2,0.2-4,0.5-6,0.7c-0.5,0.1-0.3,0.8,0.2,0.7c1.9-0.3,3.9-0.5,5.8-0.7
		c1.8-0.3,3.7-0.4,5.6-0.4C96.9,88,96.9,87.2,96.4,87.1z"/>
	<path class="st3" d="M97.8,70.9c-1.2-1.5-2.8-2.6-4.7-3.2s-3.8-0.7-5.7-0.2c-1.7,0.5-3.2,1.5-4.3,2.9c-1.1,1.4-1.6,3.2-1.5,4.9
		c0,0.5,0.8,0.5,0.8,0c0-1.7,0.5-3.4,1.6-4.7c1.1-1.3,2.6-2.2,4.2-2.5c3.4-0.8,6.9,0.9,9,3.4C97.6,71.8,98.1,71.3,97.8,70.9z"/>
	<path class="st3" d="M117.1,108.1c-1.7-0.9-3.7-1.6-5.4-2.5c-1.7-0.8-3.2-1.8-4.6-2.9c-0.8-0.5-1.7-0.8-2.6-0.7
		c0.5-0.8,1.1-1.6,1.7-2.2c0,0,0.1-0.1,0.1-0.2c0-0.1,0-0.1,0-0.2c0-0.1-0.1-0.1-0.1-0.2c0,0-0.1-0.1-0.2-0.1
		c-1.7-0.3-1.5-3.8-1.6-5.5l3.9,2.2c0,0,0.1,0,0.1,0c0.1,0,0.1,0,0.2,0c0,0,0.1,0,0.1-0.1c0,0,0.1-0.1,0.1-0.1c0,0,0-0.1,0-0.1
		c0-0.1,0-0.1,0-0.1c0,0,0-0.1-0.1-0.1c0,0-0.1-0.1-0.1-0.1c-0.1-0.1-0.2-0.2-0.4-0.2c0,0-0.1-0.1-0.2-0.1l-3.8-2.2l0,0
		c0-0.4-0.1-0.8-0.1-1.3c1.2,1.1,2.6,2,4,2.8c0.1,0,0.2,0.1,0.3,0c0.1,0,0.2-0.1,0.2-0.1c0.1-0.1,0.1-0.2,0.1-0.3
		c0-0.1,0-0.2-0.1-0.2c-0.3-0.2-0.5-0.5-0.8-0.7c-0.1-0.1-0.2-0.1-0.2-0.1c-0.1,0-0.2,0-0.3,0.1c-1.2-0.7-2.3-1.6-3.4-2.6
		c-0.1-1-0.2-2.1-0.4-3.1c-0.1-0.9-0.4-1.8-0.9-2.5c0.8-1.4,1.9-2.6,1.2-4.2l-1.6-3.8c-0.2-0.5-0.3-1-0.8-1.2
		c-0.4-0.2-0.8,0.5-0.4,0.7c0.8,0.3,1.5,3.2,1.8,3.9c0.4,0.9,0.7,1.2,0.2,2.2l0,0.1c-0.2-0.3-0.4-0.6-0.6-0.8
		c-0.2-0.3-0.5-0.7-0.7-1c-0.5-0.7-0.9-1.4-1.3-2.1c-0.1-0.1-0.1-0.2-0.2-0.2c-0.1,0-0.2,0-0.3,0c-0.1,0.1-0.2,0.1-0.2,0.2
		c0,0.1,0,0.2,0,0.3c0.5,0.9,1.1,1.7,1.7,2.5c0.4,0.6,0.8,1.1,1.3,1.6c-0.2,0.3-0.3,0.6-0.5,0.9c-1-1.3-2-2.5-3.1-3.6
		c-0.3-0.4-0.9,0.2-0.5,0.5c1.2,1.2,2.3,2.4,3.3,3.7c0,0,0,0.1-0.1,0.1c0,0.1-0.1,0.2,0,0.3c0,0.1,0.1,0.2,0.2,0.2
		c0.1,0,0.1,0,0.2,0c0.1,0,0.1,0,0.2,0c0.1,0.2,0.2,0.5,0.3,0.7c0.4,1.4,0.6,2.9,0.6,4.4c-0.1,0.1-0.1,0.1-0.1,0.2
		c0,0.1,0,0.2,0.1,0.2c0,0.6,0.1,1.2,0.1,1.7c0,0.1,0,0.2,0,0.3c0,0.1,0,0.1,0,0.2c0,0.1,0,0.1,0.1,0.2c0.1,1.5,0.1,3.1,0.3,4.6
		c0,0.4,0.1,0.8,0.3,1.2c0.2,0.3,0.5,0.6,0.9,0.8c-0.7,0.8-1.3,1.6-1.7,2.5c0,0.1,0,0.1,0,0.2c0,0.1,0,0.1,0.1,0.2
		c0,0.1,0.1,0.1,0.1,0.1c0.1,0,0.1,0.1,0.2,0.1c0.5-0.1,1.1-0.1,1.6,0.1c0.5,0.1,1,0.4,1.5,0.7c0.3,0.3,0.6,0.5,0.9,0.8
		c1.1,0.7,2.3,1.3,3.5,2c0.4,0.2,0.9,0.5,1.4,0.7c-0.7,0.3-1.5,0.5-2.3,0.7c-0.9,0.3-1.8,0.5-2.7,0.8c-1.8,0.5-3.6,0.8-5.5,1.1
		c-0.5,0.1-0.3,0.8,0.2,0.7c2.1-0.3,4.1-0.8,6.2-1.3c1.3-0.4,3.9-0.7,4.9-1.7c1.2,0.5,2.4,1,3.5,1.7L117.1,108.1z"/>
	<path class="st3" d="M89.8,126.4c-1.9-3-3.6-6.1-5.1-9.3l0.1-0.6c0,0,0-0.5-0.1-1.4c1.7,3.7,3.6,7.3,5.8,10.8
		C90.8,126.4,90.1,126.8,89.8,126.4z"/>
	<path class="st3" d="M107.7,121.9c-5.4-0.5-10.9-0.7-16.3-0.5c0.3-0.8,0.5-1.7,0.7-2.5c4.5,0.1,8.9,0.3,13.4,0.5
		c0.5,0,0.5-0.8,0-0.8c-4.5-0.2-8.9-0.4-13.4-0.5c-0.1-0.1-0.2-0.1-0.3-0.1c-0.1,0-0.2,0-0.3,0.1c-0.5,0-1,0-1.5-0.1
		c-0.1,0-0.2,0-0.3,0.1c-0.1,0.1-0.1,0.2-0.1,0.3s0,0.2,0.1,0.3c0.1,0.1,0.2,0.1,0.3,0.1c0.4,0,0.9,0,1.3,0c-0.2,1-0.5,1.9-0.8,2.8
		c0,0.1,0,0.2,0,0.3c0.1,0.1,0.1,0.2,0.2,0.2c0,0,0.1,0,0.1,0c5.3-0.2,10.7,0,16,0.4c0.1,0.2,0.9,0.1,1,0
		C108.3,122.5,108.1,121.9,107.7,121.9z"/>
	<path class="st3" d="M116.2,232.5l-0.1,0.8c-0.6,0.1-1.3,0.3-1.9,0.5c-0.3,0.9-0.4,1.9-0.2,2.9c0.1,0.5-0.7,0.5-0.8,0
		c-0.1-0.9-0.1-1.7,0.1-2.6c-1.3,0.4-2.7,0.9-4,1.2c-0.5,0.1-0.7-0.6-0.2-0.7c1.5-0.3,3-0.9,4.5-1.3c0-0.2,0-0.5-0.1-0.7
		c-0.1-0.2-0.2-0.4-0.4-0.6c-1.4,0.6-2.8,1.3-4.1,2.1c-0.4,0.3-0.8-0.4-0.4-0.7c1.3-0.9,2.6-1.6,4.1-2.1c0,0,0,0,0,0
		c0.5-1.5,1.6-3.4,1.1-5c-0.2-1-0.4-2.1-0.3-3.2c-0.1-3.2-0.3-6.5-0.4-9.7c-0.1-3.2-0.3-6.5-0.4-9.7c0-1.1-0.2-2.2-0.2-3.4
		c-0.1,0.1-0.3,0.3-0.4,0.4c-0.3,0.4-0.9-0.2-0.5-0.5c0.3-0.3,0.7-0.7,1-1c0-0.2,0-0.5,0.1-0.7c0.1-1,0.4-1.9,0.6-2.9
		c-0.7,0.8-1.5,1.4-2.4,2c-0.4,0.3-0.8-0.4-0.4-0.7c1.1-0.7,2.1-1.6,3-2.6c1.1-6.2,1-12.9,1.2-19.2s0.1-12.6-0.1-18.8
		c0-0.5,0.8-0.5,0.8,0c0.2,6.8,0.3,13.6,0,20.4c-0.1,3.5-0.3,7-0.5,10.5c-0.1,2.1-0.2,4.2-0.5,6.2c0,0,0.1-0.1,0.1-0.1
		c0.3-0.2,0.6-0.5,0.8-0.8l0,1.1c-0.4,0.3-0.8,0.7-1.1,1c-0.1,0.4-0.2,0.9-0.3,1.3c-0.2,0.8-0.3,1.5-0.4,2.3
		c0.6-0.5,1.1-1.1,1.7-1.6l0,1.1c-0.6,0.6-1.2,1.1-1.8,1.7c-0.1,2.4,0.1,4.8,0.2,7.2c0.1,3.2,0.3,6.5,0.4,9.7
		c0.1,1.7,0.2,3.5,0.2,5.2c0.1,1.5-0.1,3.4,0.5,4.8c0.1,0.4,0.2,0.8,0.1,1.2c0,0.4-0.2,0.8-0.4,1.1c-0.2,0.7-0.5,1.4-0.7,2.1
		c0,0,0,0.1,0,0.1c0.4-0.2,0.8-0.3,1.2-0.4l0.5,0.6c-0.5,0.2-1,0.4-1.5,0.5c0.2,0.3,0.5,0.5,0.7,0.8c0.1,0.1,0.1,0.1,0.1,0.2
		c0,0.1,0,0.2,0,0.2c0,0,0,0,0,0C115,232.7,115.6,232.6,116.2,232.5z"/>
	<path class="st3" d="M100.7,192c-0.3,1.3-0.7,2.5-1.2,3.7c0.5-0.2,1-0.4,1.6-0.7c0.4-0.2,0.8-0.3,1.2-0.5l-0.1,0.9
		c-0.3,0.1-0.6,0.3-0.9,0.4c-0.7,0.3-1.4,0.6-2,0.9c-0.2,0.6-0.5,1.2-0.8,1.8c0.8-0.3,1.6-0.6,2.3-0.9l-0.7,1.1
		c-0.7,0.3-1.3,0.5-2,0.8c-0.8,1.6-1.4,3.2-1.9,4.9c-0.5,2.3-0.7,4.6-0.8,6.9l-0.5,12.8c-0.1,2.3-0.2,4.5-0.3,6.8
		c0,0.9-0.1,1.8-0.1,2.7c0.4-0.2,0.7-0.4,1.1-0.5l-0.1,0.9c-0.4,0.2-0.7,0.4-1.1,0.5c-0.1,0.5-0.1,1.1,0.2,1.6
		c0.2,0.2,0.3,0.4,0.5,0.7l0.9-0.3l0.4,0.6l0,0.1c-0.3,0.1-0.7,0.2-1,0.3c0.1,1-0.2,2-0.6,2.8c-0.4,0.7-0.6,1.5-0.8,2.3
		c-0.1,0.5-0.8,0.3-0.7-0.2c0.1-0.5,0.3-1,0.5-1.4c0.6-1,0.9-2.1,1-3.3c-2.8,0.9-5.5,1.9-8.2,2.9c-0.5,0.2-0.7-0.6-0.2-0.7
		c2.7-1,5.4-2,8.1-2.9c-0.1-0.2-0.3-0.4-0.6-0.5c-0.1,0-0.1-0.1-0.1-0.1c0-0.1-0.1-0.1-0.1-0.2c0-0.4,0-0.9,0.1-1.3
		c-1.9,1-3.8,2-5.7,3.1c-0.1,0.1-0.2,0.1-0.3,0c-0.1,0-0.2-0.1-0.2-0.2c-0.1-0.1-0.1-0.2,0-0.3c0-0.1,0.1-0.2,0.2-0.2
		c2-1.2,4-2.2,6.1-3.3c0.3-7.1,0.6-14.2,0.9-21.3c0.1-3.3,0.1-6.8,1.3-10c0.4-1,0.8-2,1.2-3l-1.7,0.7c-0.5,0.2-0.7-0.6-0.2-0.7
		c0.8-0.3,1.6-0.6,2.4-1c0.3-0.6,0.5-1.2,0.8-1.8c-1,0.4-2,0.9-3,1.3c-0.4,0.2-0.8-0.5-0.4-0.7c1.3-0.6,2.5-1.2,3.8-1.7
		c0.3-0.8,0.7-1.7,1-2.6c0.4-1.2,0.7-2.4,0.9-3.6c0.5-2.5,0.6-5.1,1-7.6c0.5-3.8,1-7.5,1.4-11.3c1-7.5,1.9-15,2.9-22.5
		c0.1-0.5,0.8-0.5,0.8,0c-1.1,8.8-2.2,17.5-3.4,26.3c-0.6,4.5-1.2,9-1.7,13.5C101.3,189.6,101,190.8,100.7,192z"/>
	<path class="st3" d="M114.5,144c0-0.1,0-0.1,0-0.2c0-0.1-0.1-0.1-0.1-0.1c0,0-0.1-0.1-0.2-0.1c-0.1,0-0.1,0-0.2,0l-0.1,0
		c-0.1,0-0.2,0.1-0.2,0.1c-0.1,0.1-0.1,0.1-0.1,0.2v0.1c0,0.1,0,0.1,0,0.2c0,0.1,0.1,0.1,0.1,0.1c-0.2,0.9-0.4,1.8-0.7,2.6
		c-0.3,1.2-0.5,2.4-0.7,3.6c-0.1,0.8-0.2,2.4-0.8,3c-0.9,0.8-2,1.5-3.1,2c-0.4,0.2,0,0.9,0.4,0.7c1.3-0.7,3.7-1.8,3.9-3.5
		c0.2-1.7,0.5-3.3,0.9-4.9C113.8,146.8,114.6,145.3,114.5,144z"/>
	<path class="st3" d="M117.3,90.4c0,0.4,0,0.8,0,1.2L108,79.5c-1.9-2.3-3.7-4.6-5.3-7.1c-0.4-0.5-0.7-1.2-0.9-1.8
		c-0.2-0.7-0.2-1.3-0.1-2c-2.4,0.2-4-3.3-5.1-5c-1.9-2.8-4-5.6-5.8-8.6c0.2-0.2,0.3-0.5,0.5-0.7c1.3,2.2,2.9,4.4,4.3,6.5
		c0.8,1.2,1.6,2.3,2.4,3.5c0.8,1.2,2.1,4.1,4.1,3.3c0.3-0.1,0.6,0.3,0.4,0.6c-1.2,2.7,2.2,5.9,3.6,7.8c1.5,2,3.1,4.1,4.6,6.1
		L117.3,90.4z"/>
	<path class="st10" d="M108.4,33.2c-0.1,0.3-1.3,3.3-1.9,4.5c-0.4,0.8-1,1.5-1.7,2c0,0-1.7-3.6-3.9-1.6c-2.2,2-0.7,6.1-0.7,6.1
		l-4.9,5.4c0,0-7.5-7.5-5.3-15.1s8.6-8.2,12.5-7.8c2.5,0.2,4.5,0.4,6.3,1.6c-0.8,0.1-1.5,0.3-2.2,0.7c-1,0.7-1.4,0.8-0.7,1.5
		S108.4,32.9,108.4,33.2z"/>
	<path class="st10" d="M115.6,54.8c-4,0.2-7.4-2.9-8.8-5c-0.8-1.3-1.3-2.9-1.4-4.5v0c0.1-1,0.1-2,0-3c-0.1-0.9-0.3-1.8-0.7-2.6
		l0.7-3.2c0,0,1.5,3.2,3.4,6.2c0.6,0.9,1.4,1.7,2.4,2.3c0.9,0.6,2,1,3.1,1.2c-0.1-0.5-0.1-1.1,0.1-1.6c0.3-0.6,2.2-1.1,2.2-1.1
		S119.5,54.6,115.6,54.8z"/>
	<path class="st3" d="M100.1,44.2c0.2,0.4,0.4,0.7,0.7,0.9s0.7,0.4,1,0.6c0.7,0.1,1.5,0.1,2.2,0l0.1,0.9
		C104.2,46.5,100.6,47.1,100.1,44.2z"/>
	<path class="st11" d="M185.8,52.8v0.6c0.8-0.1,1.5-0.2,2.3-0.4c0.9-0.3,1.2-1.8,1.2-1.8c-0.4,0.6-0.9,1-1.5,1.3
		C187.2,52.8,186.5,52.9,185.8,52.8z"/>
	<path class="st3" d="M100.9,39.7c0,0,0.5-1.5,1.6-0.9c1.1,0.7,1.2,3.1,1.2,3.1L100.9,39.7z"/>
	<path class="st3" d="M103.3,41.9c0,0.1-0.7,0.1-0.4,0.9c0.3,0.8,0.8,1,0.9,0.8C103.7,43,103.5,42.4,103.3,41.9z"/>
	<path class="st11" d="M186.6,47.9c0,0,1.2-2.2,2.2-1.9c1,0.3,0.7,1.9,0.7,1.9H186.6z"/>
	<path class="st11" d="M186.6,48.2c0.2,0.1,0.4,0.2,0.6,0.4c0.1,0.2,0.2,0.4,0.2,0.6c0,0.8-0.7,0.7-0.7,0.7V48.2z"/>
	<path class="st3" d="M114.1,39.6c-0.1,0.6-0.4,1.1-0.7,1.1s-0.4-0.6-0.3-1.2c0.1-0.6,0.4-1.1,0.7-1.1
		C114.1,38.4,114.2,38.9,114.1,39.6z"/>
	<path class="st3" d="M136.1,113.6c0-0.2-0.4-0.1-0.4,0.1c0.2,0.9,0.3,1.8,0.4,2.7c0,0.3,0,0.7,0.1,1c0,1.2-2.2,1.1-2,1.1
		c0.6,0.2,2,0.4,2.3-0.5C136.9,116.7,136.4,115,136.1,113.6z"/>
	<path class="st3" d="M137.6,127.3c-0.1,0.5-0.2,1.1-0.5,1.6l-0.3-0.2c-0.1,0.2-0.2,0.3-0.3,0.4c0,0,0,0,0,0
		c0.1-0.1,0.2-0.2,0.3-0.4c0.2-0.4,0.3-0.8,0.4-1.3c0.1-0.3,0.1-0.5,0.2-0.8c0-0.6-0.3-0.8-1.1-0.5c-0.5,0.5-0.8,1.1-0.9,1.8
		c0,0.2-0.1,0.5-0.1,0.7v0c-0.1-0.1-0.1-0.2-0.2-0.3c-0.1,0-0.1,0.1-0.2,0.1c0-0.2,0-0.4,0.1-0.7c0.1-0.6,0.3-1.1,0.7-1.5
		c0.2-0.2,0.4-0.4,0.6-0.5c0,0,0,0,0,0c-0.2-0.7-0.6-1-1.4-0.9c-0.5,0.1-0.7,0.5-1,0.9c-0.4,0.7-0.7,1.5-0.9,2.2v0l-0.3-0.4
		c0.1-0.3,0.2-0.6,0.3-0.8c0.1-0.3,0.3-0.7,0.5-1c0.2-0.4,0.4-0.7,0.6-1c0,0,0,0-0.1-0.1c0,0,0-0.1,0-0.1c0.1-0.3-0.6-1-0.5-1
		c0.4,0.2,0.9,0.5,0.9,0.9c0,0,0,0,0.1,0c0.2-0.1,0.4-0.2,0.7-0.2c0.2,0,0.5,0.1,0.7,0.2c0.2,0.1,0.4,0.3,0.5,0.4
		c0.1,0.2,0.2,0.4,0.3,0.6c0.1,0,0.2,0,0.3,0c0.1,0,0.2,0.1,0.3,0.1c0.2,0.2,0.4,0.5,0.5,0.8C137.8,126.7,137.8,127,137.6,127.3z"/>
	<path class="st3" d="M139.9,127.3c-0.2,0-0.3,0.1-0.4,0.1c-0.2-0.2-0.4-0.4-0.6-0.6c-0.3-0.2-0.5-0.5-0.7-0.9
		c-0.1-0.2,0.3-0.3,0.4-0.1c0.1,0.2,0.3,0.4,0.5,0.6c0.1,0.1,0.3,0.3,0.4,0.4C139.6,126.9,139.8,127.1,139.9,127.3z"/>
	<path class="st3" d="M141.2,126c-0.2,0-0.3,0.1-0.4,0.1c-0.4-0.5-0.7-1.1-0.8-1.8c0-0.1,0-0.1,0-0.1c0,0,0.1-0.1,0.1-0.1
		c0.1,0,0.1,0,0.1,0c0,0,0.1,0.1,0.1,0.1C140.5,124.9,140.8,125.5,141.2,126z"/>
	<path class="st3" d="M142.2,123.5C142.2,123.5,142.2,123.5,142.2,123.5L142.2,123.5c-0.3,0-0.5,0.1-0.6,0.1
		c-0.3-0.6-0.6-1.2-0.8-1.8c0-0.2,0.3-0.3,0.4-0.2l0.9,0.7c0.1,0.1,0.3,0.2,0.4,0.3c0.1,0,0.2,0.1,0.2,0.2
		C142.9,123,142.5,123.3,142.2,123.5z"/>
	<path class="st13" d="M174.4,126.9c0,1-0.3,1.7-0.6,1.7c-0.3,0-0.6-0.8-0.6-1.7s0.3-1.7,0.6-1.7S174.4,125.9,174.4,126.9z"/>
	<path class="st13" d="M175.6,113.8c0,1-0.3,1.7-0.6,1.7c-0.3,0-0.6-0.8-0.6-1.7s0.3-1.7,0.6-1.7
		C175.3,112.1,175.6,112.9,175.6,113.8z"/>
	<path class="st3" d="M120.9,111.2l-12.2,4.3c-0.5,0.2-0.7-0.6-0.2-0.7l11.6-4.1L120.9,111.2z"/>
	<path class="st3" d="M93,111.9l24.2,17.5l0-5.6L93,111.9z"/>
	<path class="st3" d="M106.1,102.7l11,1.8v4.5L106.1,102.7z"/>
	<path class="st3" d="M92.1,121.9v1.8l15.6,0.4v-1.7L92.1,121.9z"/>
	<path class="st3" d="M104.7,97.7l4.2,6.3l-2.8-1.3l-1.8-0.2l1-2.8L104.7,97.7z"/>
	<path class="st3" d="M107,63.6l-2,4l-0.4-0.5L107,63.6z"/>
	<path class="st4" d="M44.5,162.3l-4.1,3.9c0,0-0.1,0.1-0.2,0.1c-0.1,0-0.1,0-0.2,0c-0.1,0-0.1,0-0.2,0c-0.1,0-0.1-0.1-0.2-0.1
		s-0.1-0.1-0.1-0.2c0-0.1,0-0.1,0-0.2c0-0.1,0-0.1,0-0.2c0-0.1,0.1-0.1,0.1-0.2c0,0,0,0,0,0l4.1-3.9c0.1-0.1,0.2-0.1,0.4-0.1
		c0.1,0,0.3,0.1,0.4,0.2c0.1,0.1,0.1,0.2,0.1,0.4C44.6,162.1,44.6,162.2,44.5,162.3z"/>
	<path class="st3" d="M44.5,162.3l-4.1,3.9c-0.1,0.1-0.3,0.2-0.4,0.2c-0.2,0-0.3-0.1-0.4-0.2c-0.1-0.1-0.2-0.3-0.2-0.4
		c0-0.2,0.1-0.3,0.2-0.4l4.1-3.9c0.1-0.1,0.3-0.2,0.4-0.1c0.1,0,0.3,0.1,0.4,0.2c0.1,0.1,0.2,0.3,0.2,0.4
		C44.7,162.1,44.6,162.2,44.5,162.3L44.5,162.3z M39.7,165.5c0,0-0.1,0.1-0.1,0.1c0,0.1,0,0.1-0.1,0.2c0,0.1,0,0.1,0,0.2
		c0,0.1,0.1,0.1,0.1,0.2c0,0,0.1,0.1,0.1,0.1c0.1,0,0.1,0,0.2,0c0.1,0,0.1,0,0.2,0c0.1,0,0.1-0.1,0.2-0.1c0,0,0,0,0,0l4.1-3.9
		c0.1-0.1,0.1-0.2,0.1-0.3c0-0.1,0-0.2-0.1-0.3c-0.1-0.1-0.2-0.1-0.3-0.1c-0.1,0-0.2,0-0.3,0.1L39.7,165.5z"/>
	<path class="st1" d="M40.8,164.9c0.2,0.2,0.3,0.4,0.3,0.6c0,0.2,0,0.5-0.1,0.7c-0.1,0.2-0.2,0.4-0.4,0.5s-0.4,0.2-0.6,0.2
		c-0.2,0-0.4-0.1-0.6-0.2c-0.2-0.1-0.3-0.3-0.4-0.5c-0.1-0.2-0.1-0.4,0-0.7c0-0.2,0.2-0.4,0.3-0.6c0.2-0.2,0.5-0.3,0.8-0.3
		C40.3,164.6,40.5,164.7,40.8,164.9z"/>
	<path class="st3" d="M40.8,166.7c-0.2,0.2-0.4,0.3-0.7,0.3c-0.3,0-0.5,0-0.8-0.1c-0.2-0.1-0.4-0.3-0.6-0.5
		c-0.1-0.2-0.2-0.5-0.2-0.7c0-0.3,0.1-0.5,0.2-0.7c0.1-0.2,0.4-0.4,0.6-0.5c0.2-0.1,0.5-0.1,0.8-0.1c0.3,0.1,0.5,0.2,0.7,0.4
		c0.1,0.1,0.2,0.3,0.3,0.4c0.1,0.2,0.1,0.3,0.1,0.5c0,0.2,0,0.3-0.1,0.5C41.1,166.4,41,166.6,40.8,166.7z M39.3,165
		c-0.1,0.1-0.2,0.3-0.3,0.5s0,0.4,0,0.6c0.1,0.2,0.2,0.3,0.3,0.4c0.2,0.1,0.3,0.2,0.5,0.2c0.2,0,0.4,0,0.5-0.2
		c0.2-0.1,0.3-0.3,0.4-0.4c0.1-0.2,0.1-0.4,0.1-0.6c0-0.2-0.1-0.4-0.3-0.5c-0.1-0.1-0.2-0.2-0.3-0.2c-0.1-0.1-0.2-0.1-0.4-0.1
		c-0.1,0-0.3,0-0.4,0.1C39.5,164.9,39.3,164.9,39.3,165z"/>
</g>
</svg>
