<?xml version="1.0" encoding="utf-8"?>
<!-- Generator: Adobe Illustrator 25.2.0, SVG Export Plug-In . SVG Version: 6.00 Build 0)  -->
<svg version="1.1" id="Layer_1" xmlns="http://www.w3.org/2000/svg" xmlns:xlink="http://www.w3.org/1999/xlink" x="0px" y="0px"
	 viewBox="0 0 239 252" style="enable-background:new 0 0 239 252;" xml:space="preserve">
<style type="text/css">
	.st0{fill:#E4E4E4;}
	.st1{fill:#7C4DFF;fill-opacity:0.2;}
	.st2{fill:#494949;}
	.st3{opacity:0.5;fill:#B3CDFF;enable-background:new    ;}
	.st4{fill:#FFFFFF;}
	.st5{fill:#666666;}
	.st6{fill:#C6B6FF;}
	.st7{fill:#B9CEF9;}
	.st8{font-family:'Montserrat-Bold';}
	.st9{font-size:5.97px;}
	.st10{fill:#D3D3D3;}
	.st11{fill:#F2F7FA;}
	.st12{font-size:6.94px;}
	.st13{letter-spacing:1;}
	.st14{fill:none;stroke:#BF360C;stroke-miterlimit:10;}
	.st15{font-size:3.4px;}
	.st16{fill-rule:evenodd;clip-rule:evenodd;fill:#C6B6FF;}
</style>
<circle id="Ellipse_183" class="st0" cx="119.6" cy="132.1" r="111.1"/>
<circle id="Ellipse_184" class="st1" cx="108.6" cy="113.1" r="89"/>
<g id="Group_1649">
	<g id="Group_1646">
		<path id="Path_3159" class="st2" d="M64.7,151.6c-0.2,0-0.4-0.1-0.5-0.2c-0.8-0.8-1.7-1.6-2.5-2.5c-0.2-0.3-0.2-0.7,0.1-1
			c0,0,0,0,0,0c0.3-0.2,0.6-0.2,0.9,0c0.8,0.8,1.6,1.7,2.4,2.5c0.3,0.3,0.3,0.7,0,1C65.1,151.5,64.9,151.6,64.7,151.6L64.7,151.6z"
			/>
	</g>
	<g id="Group_1647">
		<path id="Path_3160" class="st2" d="M57.8,144c-0.2,0-0.4-0.1-0.5-0.3c-1.4-1.8-2.8-3.7-4-5.6c-0.2-0.3-0.2-0.8,0.1-1c0,0,0,0,0,0
			c0.3-0.2,0.7-0.2,1,0.1c0,0,0,0,0,0l0.1,0.1c1.2,1.9,2.5,3.8,3.9,5.5c0.2,0.3,0.2,0.7-0.1,1C58.2,143.9,58,144,57.8,144L57.8,144z
			 M180.6,140.3c-0.4,0-0.7-0.3-0.7-0.7c0-0.1,0-0.3,0.1-0.4c1.3-1.9,2.5-3.8,3.6-5.8c0.1-0.4,0.6-0.5,0.9-0.4s0.5,0.6,0.4,0.9l0,0
			l-0.1,0.1c-1.1,2-2.4,4-3.6,5.9C181.1,140.2,180.9,140.3,180.6,140.3L180.6,140.3z M50.4,132.5c-0.3,0-0.5-0.1-0.6-0.4
			c-1.1-2-2-4.1-2.9-6.2c-0.2-0.3-0.1-0.8,0.2-1c0.3-0.2,0.8-0.1,1,0.2c0,0,0,0.1,0.1,0.1c0,0,0,0.1,0.1,0.1
			c0.9,2.1,1.8,4.2,2.9,6.1c0.2,0.3,0,0.8-0.3,0.9C50.7,132.5,50.5,132.5,50.4,132.5z M187.4,128.3c-0.4,0-0.7-0.3-0.7-0.7
			c0-0.1,0-0.2,0.1-0.3c0.9-2.1,1.8-4.2,2.5-6.3c0.1-0.4,0.5-0.6,0.8-0.5s0.6,0.5,0.5,0.8l0,0c0,0,0,0.1-0.1,0.1
			c-0.8,2.2-1.6,4.3-2.5,6.4C187.9,128.2,187.6,128.4,187.4,128.3z M45.2,119.8c-0.3,0-0.6-0.2-0.7-0.5c-0.7-2.2-1.3-4.4-1.8-6.7
			c0-0.4,0.2-0.7,0.6-0.8c0,0,0,0,0,0c0.3,0,0.6,0.2,0.8,0.5c0.5,2.2,1,4.4,1.7,6.6c0.1,0.4-0.1,0.8-0.5,0.9
			C45.3,119.8,45.3,119.8,45.2,119.8L45.2,119.8z M191.8,115.4h-0.2c-0.4-0.1-0.6-0.5-0.5-0.8c0.5-2.2,1-4.4,1.3-6.7
			c0.1-0.4,0.5-0.6,0.9-0.5c0.3,0.1,0.5,0.4,0.5,0.7c-0.3,2.3-0.8,4.6-1.3,6.8C192.4,115.2,192.1,115.4,191.8,115.4L191.8,115.4z
			 M42.3,106.5c-0.4,0-0.6-0.3-0.7-0.6c-0.3-2.3-0.5-4.6-0.5-6.9c0-0.4,0.3-0.7,0.7-0.7c0.4,0,0.7,0.2,0.7,0.6c0,0,0,0.1,0,0.1
			c0.1,2.3,0.2,4.5,0.5,6.8c0.1,0.4-0.2,0.7-0.6,0.8C42.4,106.5,42.4,106.5,42.3,106.5L42.3,106.5L42.3,106.5z M193.9,101.9
			L193.9,101.9c-0.4,0-0.7-0.4-0.7-0.7c0,0,0,0,0,0c0.1-1.5,0.1-3.1,0.1-4.7c0-0.7,0-1.4,0-2.1c0-0.4,0.3-0.7,0.7-0.7c0,0,0,0,0,0
			l0,0c0.4,0,0.7,0.3,0.7,0.7c0,0.7,0,1.4,0,2.2c0,1.6,0,3.2-0.1,4.8C194.6,101.6,194.2,101.9,193.9,101.9L193.9,101.9z M41.9,92.8
			L41.9,92.8c-0.4,0-0.7-0.4-0.7-0.7c0.1-2.3,0.4-4.6,0.7-6.9c0-0.4,0.3-0.7,0.7-0.7c0,0,0,0,0,0c0.4,0,0.7,0.3,0.7,0.7
			c0,0,0,0.1,0,0.2c-0.3,2.2-0.5,4.5-0.7,6.7C42.6,92.5,42.3,92.8,41.9,92.8L41.9,92.8z M193.4,88.2c-0.4,0-0.6-0.3-0.7-0.6
			c-0.3-2.2-0.6-4.5-1.1-6.7c-0.1-0.4,0.1-0.8,0.4-0.9c0,0,0,0,0,0c0.4-0.1,0.8,0.1,0.9,0.5c0,0,0,0,0,0c0,0,0,0.1,0,0.1
			c0.5,2.2,0.9,4.5,1.1,6.8C194.2,87.8,193.9,88.2,193.4,88.2C193.5,88.2,193.5,88.2,193.4,88.2L193.4,88.2z M190.6,74.9
			c-0.3,0-0.6-0.2-0.7-0.5c-0.7-2.2-1.4-4.3-2.3-6.4c-0.1-0.4,0.1-0.8,0.5-0.9c0.3-0.1,0.7,0,0.8,0.3c0.9,2.1,1.6,4.3,2.3,6.5
			c0.1,0.4-0.1,0.8-0.5,0.9C190.8,74.8,190.7,74.9,190.6,74.9L190.6,74.9z M185.5,62.2c-0.3,0-0.5-0.2-0.6-0.4c-1-2-2.2-4-3.4-5.9
			c-0.2-0.3,0-0.8,0.3-0.9c0.3-0.1,0.6-0.1,0.8,0.2c1.2,1.9,2.4,3.9,3.4,6c0.2,0.3,0,0.8-0.3,0.9c0,0,0,0,0,0
			C185.7,62.2,185.6,62.2,185.5,62.2L185.5,62.2z M54.9,54.4c-0.4,0-0.7-0.3-0.7-0.7c0,0,0,0,0,0c0-0.1,0-0.3,0.1-0.4
			c1.3-1.9,2.7-3.8,4.1-5.5c0.2-0.3,0.6-0.4,1-0.2c0.3,0.2,0.4,0.6,0.2,1l0,0l-0.1,0.1c-1.4,1.7-2.8,3.6-4.1,5.4
			C55.4,54.3,55.2,54.4,54.9,54.4z M178.1,50.7c-0.2,0-0.4-0.1-0.6-0.3c-1.4-1.8-2.9-3.5-4.4-5.2c-0.2-0.3-0.2-0.7,0.1-1
			c0,0,0,0,0,0c0.3-0.2,0.6-0.2,0.9,0c1.6,1.7,3.1,3.5,4.5,5.3c0.2,0.3,0.2,0.7-0.1,1c0,0,0,0,0,0C178.4,50.6,178.3,50.7,178.1,50.7
			z M63.6,43.8c-0.4,0-0.7-0.3-0.7-0.7c0,0,0,0,0,0c0-0.2,0.1-0.3,0.2-0.5c1.6-1.7,3.3-3.2,5.1-4.7c0.3-0.2,0.8-0.2,1,0.2
			c0,0,0,0,0,0c0.2,0.3,0.2,0.6-0.1,0.9c-1.7,1.5-3.4,3-5,4.6C64,43.8,63.8,43.9,63.6,43.8L63.6,43.8z M168.9,40.7
			c-0.2,0-0.3-0.1-0.5-0.2c-1.7-1.5-3.4-3-5.2-4.3c-0.3-0.2-0.4-0.7-0.1-1c0.2-0.3,0.7-0.4,1-0.1c1.8,1.4,3.6,2.8,5.3,4.4
			c0.3,0.3,0.3,0.7,0.1,1C169.2,40.6,169.1,40.7,168.9,40.7z M74,35c-0.4,0-0.7-0.3-0.7-0.7c0,0,0,0,0,0c0-0.2,0.1-0.4,0.3-0.5
			c1.9-1.3,3.8-2.6,5.8-3.7c0.3-0.2,0.8-0.1,1,0.2c0.2,0.3,0.1,0.7-0.2,0.9c0,0-0.1,0.1-0.1,0.1c-2,1.1-3.9,2.4-5.7,3.7
			C74.3,35,74.1,35,74,35z M157.9,32.5c-0.1,0-0.3,0-0.4-0.1c-1.9-1.2-3.9-2.3-5.9-3.3c-0.4-0.2-0.5-0.6-0.4-0.9
			c0.1-0.3,0.5-0.5,0.9-0.4l0.1,0.1c2,1,4.1,2.2,6,3.4c0.3,0.2,0.4,0.6,0.2,0.9c0,0,0,0,0,0.1C158.4,32.4,158.1,32.5,157.9,32.5
			L157.9,32.5z M85.8,28.1c-0.4,0-0.7-0.3-0.7-0.7c0-0.3,0.2-0.5,0.4-0.6c2.1-1,4.2-1.9,6.4-2.6c0.4-0.1,0.8,0.1,0.8,0.5
			c0.1,0.3-0.1,0.6-0.4,0.8c-2.1,0.8-4.2,1.6-6.3,2.6C86,28.1,85.9,28.2,85.8,28.1z M145.7,26.3c-0.1,0-0.2,0-0.2,0
			c-2.1-0.8-4.2-1.6-6.4-2.2c-0.4-0.1-0.5-0.5-0.4-0.9c0.1-0.3,0.5-0.5,0.8-0.4c2.2,0.6,4.4,1.4,6.5,2.2c0.4,0.2,0.5,0.6,0.4,0.9
			C146.2,26.2,146,26.3,145.7,26.3L145.7,26.3z M98.7,23.5c-0.4,0-0.7-0.3-0.7-0.7c0,0,0,0,0-0.1c0-0.3,0.2-0.6,0.5-0.6
			c2.2-0.6,4.5-1.1,6.8-1.4c0.4-0.1,0.8,0.1,0.9,0.5c0.1,0.4-0.1,0.7-0.5,0.8h-0.1c-2.2,0.4-4.4,0.8-6.6,1.4
			C98.8,23.5,98.7,23.5,98.7,23.5L98.7,23.5z M132.6,22.5h-0.1c-2.2-0.4-4.5-0.8-6.7-1c-0.4,0-0.7-0.4-0.6-0.8c0,0,0,0,0,0
			c0.1-0.4,0.4-0.7,0.8-0.6c2.3,0.2,4.6,0.6,6.8,1c0.4,0.1,0.6,0.5,0.5,0.8c0,0,0,0,0,0C133.2,22.3,132.9,22.5,132.6,22.5
			L132.6,22.5z M112.2,21.3c-0.4-0.1-0.6-0.4-0.6-0.8c0.1-0.3,0.3-0.5,0.6-0.6c2.3-0.2,4.6-0.2,6.9-0.2c0.4,0,0.7,0.4,0.6,0.8
			c0,0.3-0.3,0.6-0.6,0.6l0,0c-2.3,0-4.5,0-6.8,0.2L112.2,21.3z"/>
	</g>
	<g id="Group_1648">
		<path id="Path_3161" class="st2" d="M174.1,148.5c-0.4,0-0.7-0.3-0.7-0.7c0,0,0,0,0,0c0-0.2,0.1-0.3,0.2-0.5
			c0.8-0.9,1.5-1.7,2.3-2.6c0.2-0.3,0.7-0.4,1-0.2c0,0,0,0,0,0c0.3,0.2,0.4,0.6,0.2,0.9c0,0,0,0,0,0.1l-0.1,0.1
			c-0.8,0.9-1.5,1.8-2.3,2.6C174.5,148.4,174.3,148.5,174.1,148.5z"/>
	</g>
</g>
<g id="Group_1650">
	<path id="Path_3162" class="st2" d="M189.6,211.5H46.1c-0.4,0.1-0.7-0.2-0.8-0.6c-0.1-0.4,0.2-0.7,0.6-0.8c0,0,0.1,0,0.1,0h143.6
		c0.4,0,0.7,0.4,0.6,0.8C190.2,211.2,190,211.5,189.6,211.5z"/>
</g>
<circle id="Ellipse_185" class="st3" cx="200.3" cy="102.9" r="22.1"/>
<circle id="Ellipse_186" class="st4" cx="197.8" cy="100.3" r="22.1"/>
<path id="Path_3163" class="st4" d="M197.7,79.5c12,0,21.7,9.5,22.1,21.5c0-0.2,0-0.4,0-0.7c-0.3-12.2-10.4-21.9-22.6-21.6
	c-11.8,0.3-21.4,9.8-21.6,21.6c0,0.2,0,0.4,0,0.7C175.9,89,185.8,79.5,197.7,79.5z"/>
<g id="Group_1651">
	<path id="Path_3164" class="st2" d="M197.7,123.1c-12.6,0-22.8-10.2-22.8-22.8c0-12.6,10.2-22.8,22.8-22.8
		c12.6,0,22.8,10.2,22.8,22.8c0,0,0,0,0,0l0,0C220.5,112.9,210.3,123.1,197.7,123.1z M197.7,78.9c-11.8,0-21.4,9.6-21.4,21.4
		s9.6,21.4,21.4,21.4c11.8,0,21.4-9.6,21.4-21.4c0,0,0,0,0,0C219.1,88.5,209.6,78.9,197.7,78.9z"/>
</g>
<g id="Group_1652">
	<path id="Path_3165" class="st5" d="M77.8,19.4c-0.4,0-0.7-0.3-0.7-0.7c0-3.5-2.9-6.4-6.4-6.4l0,0c-0.4,0-0.7-0.2-0.8-0.6
		c0,0,0,0,0,0c0-0.4,0.3-0.7,0.6-0.8h0.1c3.5,0,6.4-2.9,6.4-6.4c0,0,0,0,0,0l0,0c0-0.4,0.2-0.7,0.6-0.8c0.4,0,0.7,0.2,0.8,0.6v0.1
		c0,3.5,2.9,6.4,6.4,6.4c0,0,0,0,0,0l0,0c0.4,0,0.7,0.4,0.6,0.8c0,0.3-0.3,0.6-0.6,0.6c-3.5,0-6.4,2.9-6.4,6.4l0,0l0,0
		C78.5,19.1,78.2,19.4,77.8,19.4C77.8,19.4,77.8,19.4,77.8,19.4z M74,11.6c1.7,0.8,3.1,2.2,3.9,3.9c0.8-1.7,2.2-3.1,3.9-3.9
		c-1.7-0.8-3.1-2.2-3.9-3.9C77.1,9.4,75.7,10.8,74,11.6z"/>
</g>
<g id="Group_1653">
	<path id="Path_3166" class="st6" d="M51.3,23L51.3,23v-0.7V23L51.3,23z M51.3,23c-0.5,0-1-0.1-1.5-0.2l0.3-1.3
		c0.4,0.1,0.7,0.1,1.1,0.1L51.3,23z M52.8,22.8l-0.3-1.3c0.4-0.1,0.7-0.2,1-0.4l0.7,1.2C53.7,22.5,53.2,22.7,52.8,22.8z M48.4,22.3
		c-0.4-0.2-0.8-0.6-1.2-0.9l1-1c0.3,0.3,0.6,0.5,0.9,0.7L48.4,22.3z M55.3,21.3l-1-1c0.3-0.3,0.5-0.6,0.7-0.9l1.2,0.7
		C55.9,20.6,55.6,21,55.3,21.3L55.3,21.3z M46.3,20.2c-0.2-0.4-0.4-0.9-0.6-1.4l1.3-0.4c0.1,0.3,0.2,0.7,0.4,1L46.3,20.2z
		 M56.7,18.8l-1.3-0.4c0.1-0.4,0.1-0.7,0.1-1.1l1.4-0.1v0.1C57,17.8,56.9,18.3,56.7,18.8L56.7,18.8z M45.6,17.3L45.6,17.3
		c0-0.5,0.1-1,0.2-1.4l1.3,0.3c-0.1,0.4-0.1,0.7-0.1,1.1H45.6z M55.5,16.1c-0.1-0.4-0.3-0.7-0.4-1l1.2-0.7c0.3,0.4,0.5,0.9,0.6,1.4
		L55.5,16.1z M47.5,15.1l-1.2-0.7c0.2-0.4,0.6-0.8,0.9-1.2l1,0.9C47.9,14.5,47.7,14.8,47.5,15.1L47.5,15.1z M54.3,14.1
		c-0.3-0.3-0.6-0.5-0.9-0.7l0.7-1.2c0.4,0.2,0.8,0.5,1.2,0.9L54.3,14.1z M49,13.5l-0.7-1.2c0.4-0.2,0.9-0.4,1.4-0.6l0.4,1.3
		C49.7,13.1,49.4,13.3,49,13.5L49,13.5z M52.3,13c-0.4,0-0.7-0.1-1.1,0v-1.4l0,0c0.5,0,1,0.1,1.4,0.2L52.3,13z"/>
</g>
<rect x="15.6" y="65.8" class="st4" width="71.4" height="71.4"/>
<polygon class="st7" points="76.1,129.6 76.1,132.9 79.4,132.9 82.7,132.9 82.7,129.6 79.4,129.6 "/>
<g>
	<polygon class="st1" points="43,70.1 39.7,70.1 39.7,73.4 43,73.4 46.3,73.4 46.3,70.1 	"/>
	<rect x="59.6" y="70.1" class="st1" width="3.3" height="3.3"/>
	<polygon class="st1" points="56.2,73.4 52.9,73.4 52.9,70.1 49.6,70.1 49.6,73.4 46.3,73.4 46.3,76.7 46.3,80 43,80 43,83.3 
		46.3,83.3 46.3,86.6 49.6,86.6 52.9,86.6 52.9,83.3 49.6,83.3 49.6,80 49.6,76.7 52.9,76.7 56.2,76.7 59.6,76.7 59.6,73.4 	"/>
	<polygon class="st1" points="62.9,80 62.9,76.7 59.6,76.7 59.6,80 59.6,83.3 62.9,83.3 	"/>
	<polygon class="st1" points="39.7,86.6 39.7,89.9 43,89.9 43,86.6 43,83.3 39.7,83.3 	"/>
	<rect x="56.2" y="83.3" class="st1" width="3.3" height="3.3"/>
	<rect x="43" y="106.5" class="st1" width="3.3" height="3.3"/>
	<rect x="19.9" y="89.9" class="st1" width="3.3" height="3.3"/>
	<polygon class="st1" points="79.4,93.2 79.4,89.9 76.1,89.9 76.1,93.2 76.1,96.5 79.4,96.5 	"/>
	<polygon class="st1" points="36.4,99.8 39.7,99.8 39.7,96.5 43,96.5 43,93.2 39.7,93.2 36.4,93.2 36.4,89.9 33.1,89.9 33.1,93.2 
		33.1,96.5 36.4,96.5 	"/>
	<polygon class="st1" points="52.9,96.5 56.2,96.5 56.2,93.2 59.6,93.2 59.6,96.5 62.9,96.5 62.9,93.2 66.2,93.2 66.2,89.9 
		62.9,89.9 62.9,86.6 59.6,86.6 59.6,89.9 56.2,89.9 52.9,89.9 49.6,89.9 46.3,89.9 46.3,93.2 49.6,93.2 52.9,93.2 52.9,96.5 
		49.6,96.5 49.6,99.8 52.9,99.8 	"/>
	<polygon class="st1" points="66.2,99.8 69.5,99.8 69.5,103.2 72.8,103.2 72.8,99.8 76.1,99.8 76.1,96.5 72.8,96.5 72.8,93.2 
		72.8,89.9 69.5,89.9 69.5,93.2 69.5,96.5 66.2,96.5 62.9,96.5 62.9,99.8 	"/>
	<polygon class="st1" points="36.4,99.8 33.1,99.8 33.1,96.5 29.8,96.5 29.8,93.2 29.8,89.9 26.5,89.9 26.5,93.2 23.2,93.2 
		23.2,96.5 19.9,96.5 19.9,99.8 23.2,99.8 23.2,96.5 26.5,96.5 26.5,99.8 29.8,99.8 29.8,103.2 26.5,103.2 26.5,106.5 29.8,106.5 
		29.8,109.8 33.1,109.8 33.1,106.5 29.8,106.5 29.8,103.2 33.1,103.2 33.1,106.5 36.4,106.5 36.4,103.2 	"/>
	<polygon class="st1" points="43,103.2 46.3,103.2 46.3,106.5 49.6,106.5 49.6,103.2 49.6,99.8 46.3,99.8 46.3,96.5 43,96.5 
		43,99.8 	"/>
	<path class="st1" d="M79.4,99.8h-3.3v3.3v3.3h-3.3v3.3h-6.6v-3.3h3.3v-3.3h-3.3h-3.3v-3.3h-3.3h-3.3h-3.3v3.3v3.3h3.3v-3.3h3.3v3.3
		h3.3v3.3h-3.3v0h-3.3v3.3h-3.3v3.3h3.3h3.3v6.7h3.3v3.2h3.3v-3.2h3.3v3.2h3.3v-3.2h0.1V123h3.2v3.3h6.6V123h-3.3v-3.3h-6.6v-9.9
		h3.2v3.3h3.3v3.3v3.3h3.3v-3.3v-3.3v-3.3h-3.3v-3.3h3.3v-3.3h-3.3V99.8z M70.4,120.6h-8.3v-8.3h8.3V120.6z"/>
	<polygon class="st1" points="23.2,103.2 19.9,103.2 19.9,106.5 19.9,109.8 23.2,109.8 23.2,113.1 26.5,113.1 26.5,109.8 
		26.5,106.5 23.2,106.5 	"/>
	<polygon class="st1" points="39.7,106.5 36.4,106.5 36.4,109.8 36.4,113.1 39.7,113.1 39.7,116.4 39.7,119.7 43,119.7 43,116.4 
		43,113.1 43,109.8 39.7,109.8 	"/>
	<polygon class="st1" points="49.6,109.8 46.3,109.8 46.3,113.1 49.6,113.1 49.6,109.8 52.9,109.8 52.9,106.5 49.6,106.5 	"/>
	<rect x="52.9" y="119.7" class="st1" width="3.3" height="3.3"/>
	<polygon class="st1" points="43,126.3 43,129.6 46.3,129.6 46.3,126.3 46.3,123 46.3,119.7 49.6,119.7 49.6,116.4 46.3,116.4 
		46.3,119.7 43,119.7 43,123 	"/>
	<polygon class="st1" points="56.2,126.3 56.2,129.6 59.6,129.6 62.9,129.6 62.9,126.3 59.6,126.3 	"/>
	<rect x="39.7" y="129.6" class="st1" width="3.3" height="3.3"/>
	<polygon class="st1" points="49.6,132.9 52.9,132.9 52.9,129.6 49.6,129.6 46.3,129.6 46.3,132.9 	"/>
	<rect x="64.6" y="114.8" class="st1" width="3.3" height="3.3"/>
	<path class="st1" d="M36.4,70.1H19.9v16.5h16.5V70.1z M33.9,84.1H22.3V72.6h11.6V84.1z"/>
	<rect x="24.8" y="75" class="st1" width="6.6" height="6.6"/>
	<path class="st1" d="M66.2,70.1v16.5h16.5V70.1H66.2z M80.2,84.1H68.7V72.6h11.6V84.1z"/>
	<rect x="71.1" y="75" class="st1" width="6.6" height="6.6"/>
	<path class="st1" d="M19.9,133h16.5v-16.6H19.9V133z M22.3,118.9h11.6v11.6H22.3V118.9z"/>
	<rect x="24.8" y="121.4" class="st1" width="6.6" height="6.6"/>
</g>
<text transform="matrix(1 0 0 1 31.44 63.5)" class="st2 st8 st9">-</text>
<text transform="matrix(1 0 0 1 34.62 63.5)" class="st2 st8 st9">S</text>
<text transform="matrix(1 0 0 1 39.38 63.5)" class="st2 st8 st9">C</text>
<text transform="matrix(1 0 0 1 44.63 63.5)" class="st2 st8 st9">AN M</text>
<text transform="matrix(1 0 0 1 65.24 63.5)" class="st2 st8 st9">E</text>
<text transform="matrix(1 0 0 1 70.08 63.5)" class="st2 st8 st9">-</text>
<g id="Group_1658">
	<g id="Group_1654">
		<path id="Path_3167" class="st5" d="M44.3,36.7c-0.4,0-0.7-0.3-0.7-0.7c0,0,0,0,0,0c0-0.2,0.1-0.4,0.2-0.5l1.8-1.8
			c0.3-0.2,0.7-0.2,1,0.1c0,0,0,0,0,0c0.2,0.3,0.2,0.6,0,0.9l-1.8,1.8C44.6,36.6,44.5,36.7,44.3,36.7z"/>
	</g>
	<g id="Group_1655">
		<path id="Path_3168" class="st5" d="M41.7,36.7c-0.2,0-0.4-0.1-0.5-0.2l-1.8-1.8c-0.3-0.3-0.2-0.7,0.1-1c0,0,0,0,0,0
			c0.3-0.2,0.6-0.2,0.9,0l1.8,1.8c0.3,0.3,0.3,0.7,0,1c0,0,0,0,0,0C42.1,36.6,41.9,36.7,41.7,36.7L41.7,36.7z"/>
	</g>
	<g id="Group_1656">
		<path id="Path_3169" class="st5" d="M39.9,41.1c-0.4,0-0.7-0.3-0.7-0.7c0,0,0,0,0,0c0-0.2,0.1-0.4,0.2-0.5l1.8-1.8
			c0.3-0.3,0.7-0.3,1,0s0.3,0.7,0,1l-1.9,1.8C40.3,41,40.1,41.1,39.9,41.1z"/>
	</g>
	<g id="Group_1657">
		<path id="Path_3170" class="st5" d="M46.1,41.1c-0.2,0-0.4-0.1-0.5-0.2L43.8,39c-0.3-0.3-0.3-0.7,0-1s0.7-0.3,1,0l1.8,1.8
			c0.3,0.3,0.3,0.7,0,1C46.5,41,46.3,41,46.1,41.1L46.1,41.1z"/>
	</g>
</g>
<path id="Path_3171" class="st2" d="M129.3,248.3c-0.3,0-0.5-0.2-0.6-0.4l-4-10.1c-34.5-26.5-34-58.4-34-58.7c0-0.4,0.3-0.7,0.7-0.7
	h62.4v-50.5c0-0.4,0.3-0.7,0.7-0.7c0.3,0,0.5,0.2,0.6,0.4l12.9,34.8c4.1,11.1,5.9,23,5.2,34.8l-1.4,23.8l3.9,10.9
	c0.1,0.4,0,0.8-0.4,0.9c-0.3,0.1-0.7,0-0.9-0.3c0,0,0-0.1-0.1-0.1l-3.9-11.1c0-0.1,0-0.2,0-0.3l1.4-24c0.7-11.6-1-23.3-5.1-34.2
	l-11.5-31.1V179c0,0.4-0.3,0.7-0.7,0.7H92.1c0.1,4.7,2.3,33.1,33.6,57c0.1,0.1,0.2,0.2,0.2,0.3l4,10.3c0.1,0.4,0,0.8-0.4,0.9
	C129.5,248.2,129.4,248.3,129.3,248.3z"/>
<g id="Group_1659">
	<path id="Path_3172" class="st4" d="M97.8,110.4c0,0-14.8-3.9-20.9-4.6s-13,12.4,2,17.2c12.1,3.8,16.6,4.6,16.6,4.6H96L97.8,110.4z
		"/>
	<path id="Path_3173" class="st2" d="M96,128.3h-0.4c-0.3,0-4.8-0.9-16.8-4.6c-6.7-2.1-10.2-6.4-9.4-11.4c0.6-4.1,4.3-7.6,7.7-7.2
		c6,0.7,20.4,4.5,21,4.6c0.3,0.1,0.5,0.4,0.5,0.8l-1.8,17.2C96.7,128,96.4,128.3,96,128.3z M76.4,106.5c-2.6,0-5.2,2.8-5.7,6
		c-0.3,2.1-0.1,7.1,8.5,9.8c10.2,3.2,15,4.3,16.2,4.5l1.7-15.8c-2.8-0.7-15-3.8-20.2-4.4L76.4,106.5L76.4,106.5z"/>
</g>
<g id="Group_1660">
	<path id="Path_3174" class="st4" d="M96.6,135.1c0,0-14.8-3.9-20.9-4.6s-13,12.4,2,17.2c12.1,3.8,16.6,4.6,16.6,4.6h0.4L96.6,135.1
		z"/>
	<path id="Path_3175" class="st2" d="M94.8,153h-0.4c-0.3-0.1-4.8-0.9-16.8-4.6c-6.7-2.2-10.2-6.4-9.4-11.4c0.6-4.1,4.3-7.6,7.7-7.2
		c6,0.7,20.4,4.5,21,4.6c0.3,0.1,0.5,0.4,0.5,0.8l-1.8,17.1C95.4,152.7,95.1,153,94.8,153z M75.2,131.2c-2.6,0-5.2,2.8-5.7,6
		c-0.3,2-0.1,7.1,8.5,9.8c10.2,3.2,15,4.3,16.2,4.5l1.7-15.9c-2.8-0.7-15-3.8-20.2-4.4L75.2,131.2L75.2,131.2z"/>
</g>
<g id="Group_1661">
	<path id="Path_3176" class="st4" d="M99.5,152.9c0,0-14.8-3.9-20.9-4.6s-13,12.4,2,17.1c12.1,3.8,16.6,4.6,16.6,4.6h0.4L99.5,152.9
		z"/>
	<path id="Path_3177" class="st2" d="M97.6,170.8h-0.4c-0.3,0-4.8-0.9-16.8-4.6c-6.7-2.1-10.2-6.4-9.4-11.4c0.6-4.1,4.3-7.6,7.7-7.2
		c6,0.8,20.4,4.5,21,4.6c0.3,0.1,0.5,0.4,0.5,0.8l-1.8,17.1C98.3,170.5,98,170.8,97.6,170.8z M78.1,149c-2.6,0-5.2,2.8-5.7,6
		c-0.3,2.1-0.1,7.1,8.5,9.8c10.2,3.2,15,4.3,16.2,4.5l1.7-15.9c-2.8-0.7-15-3.8-20.2-4.4L78.1,149L78.1,149z"/>
</g>
<g id="Group_1662">
	<path id="Path_3178" class="st6" d="M34.9,211.3H19.2c-0.4,0-0.7-0.3-0.7-0.7c0-0.4,0.3-0.7,0.7-0.7h15.7c0.4,0,0.7,0.4,0.6,0.8
		c0,0,0,0,0,0C35.5,211,35.2,211.3,34.9,211.3z"/>
</g>
<g id="Group_1663">
	<path id="Path_3179" class="st6" d="M207,211.5h-5.3c-0.4,0-0.7-0.4-0.6-0.8c0,0,0,0,0,0c0-0.3,0.3-0.6,0.6-0.6h5.3
		c0.4-0.1,0.7,0.2,0.8,0.6c0.1,0.4-0.2,0.7-0.6,0.8c0,0-0.1,0-0.1,0C207.1,211.5,207,211.5,207,211.5z"/>
</g>
<path id="Path_3180" class="st1" d="M159.1,175.2V138l-4.6-12.4v51.1H91.4c0.4,5.6,1.4,11.2,2.9,16.6c0.5,0.1,1,0.1,1.6,0.1H141
	C151,193.4,159.1,185.3,159.1,175.2C159.1,175.3,159.1,175.3,159.1,175.2z"/>
<path id="Rectangle_254" class="st10" d="M95.9,40H141c10,0,18.1,8.1,18.1,18.1l0,0v114.7c0,10-8.1,18.1-18.1,18.1H95.9
	c-10,0-18.1-8.1-18.1-18.1l0,0V58.1C77.8,48.1,85.9,40,95.9,40C95.9,40,95.9,40,95.9,40z"/>
<path id="Path_3181" class="st6" d="M141,188.5H95.9c-10,0-18.1-8.1-18.1-18.1l0,0v2.4c0,10,8,18.1,18,18.2c0,0,0,0,0.1,0H141
	c10,0,18.1-8.1,18.1-18.1l0,0v-2.4C159.1,180.5,151,188.5,141,188.5z"/>
<path id="Path_3182" class="st4" d="M141,40H95.9c-10,0-18.1,8.1-18.1,18.1c0,0,0,0,0,0l0,0v1.2c0-10,8.1-18.1,18.1-18.1
	c0,0,0,0,0,0H141c10,0,18.1,8.1,18.1,18.1v-1.2C159.1,48.1,151,40,141,40z"/>
<g id="Group_1664">
	<path id="Rectangle_255" class="st11" d="M86.7,60.1h63.5c1.6,0,2.9,1.3,2.9,2.9v111.4c0,1.6-1.3,2.9-2.9,2.9H86.7
		c-1.6,0-2.9-1.3-2.9-2.9V63C83.8,61.4,85.1,60.1,86.7,60.1z"/>
	<path id="Path_3183" class="st6" d="M150.2,178H86.7c-2,0-3.6-1.6-3.6-3.6V63c0-2,1.6-3.6,3.6-3.6l0,0h63.5c2,0,3.6,1.6,3.6,3.6v0
		v111.4C153.8,176.3,152.2,178,150.2,178C150.2,178,150.2,178,150.2,178z M86.7,60.8c-1.2,0-2.2,1-2.2,2.2v111.4
		c0,1.2,1,2.2,2.2,2.2c0,0,0,0,0,0h63.5c1.2,0,2.2-1,2.2-2.2l0,0V63c0-1.2-1-2.2-2.2-2.2l0,0L86.7,60.8z"/>
</g>
<g id="Group_1665">
	<path id="Path_3184" class="st4" d="M141,191.6H95.9c-10.4,0-18.8-8.4-18.8-18.8V58.1c0-10.4,8.4-18.8,18.8-18.8H128
		c0.4,0,0.7,0.2,0.8,0.6c0,0.4-0.2,0.7-0.6,0.8H95.9c-9.6,0-17.4,7.8-17.4,17.4v114.7c0,9.6,7.8,17.4,17.4,17.4H141
		c9.6,0,17.4-7.8,17.4-17.4V58.1c0-9.6-7.8-17.4-17.4-17.4h-6.7c-0.4,0-0.7-0.4-0.6-0.8c0-0.3,0.3-0.6,0.6-0.6h6.7
		c10.4,0,18.8,8.4,18.8,18.8v114.7C159.8,183.2,151.4,191.6,141,191.6z"/>
</g>
<path id="Path_3185" class="st2" d="M120.8,47.9c0,1.3-1,2.3-2.3,2.3c-1.3,0-2.3-1-2.3-2.3c0-1.3,1-2.3,2.3-2.3
	S120.8,46.6,120.8,47.9C120.8,47.9,120.8,47.9,120.8,47.9z"/>
<g id="Group_1666">
	<path id="Path_3186" class="st2" d="M127.5,54.3h-18.1c-0.4,0-0.7-0.4-0.6-0.8c0-0.3,0.3-0.6,0.6-0.6h18.1c0.4,0,0.7,0.4,0.6,0.8
		C128.1,54,127.8,54.3,127.5,54.3z"/>
</g>
<path id="Path_3187" class="st6" d="M89,64.2c0,0.6-0.4,1-1,1s-1-0.4-1-1s0.4-1,1-1S89,63.6,89,64.2z"/>
<path id="Path_3188" class="st6" d="M92,64.2c0,0.6-0.4,1-1,1s-1-0.4-1-1s0.4-1,1-1S92,63.6,92,64.2z"/>
<path id="Path_3189" class="st6" d="M95,64.2c0,0.6-0.4,1-1,1s-1-0.4-1-1s0.4-1,1-1S95,63.6,95,64.2z"/>
<g id="Group_1667">
	<path id="Path_3190" class="st6" d="M106.2,64.8h-7.7c-0.4,0-0.7-0.3-0.7-0.7c0-0.4,0.3-0.7,0.7-0.7h7.7c0.4,0,0.7,0.2,0.8,0.6
		c0,0.4-0.2,0.7-0.6,0.8H106.2z"/>
</g>
<g id="Group_1668">
	<path id="Path_3191" class="st6" d="M146.8,65.8h-6c-0.4,0-0.7-0.3-0.7-0.7v-2c0-0.4,0.3-0.7,0.7-0.7h6c0.4,0,0.7,0.3,0.7,0.7v2
		C147.5,65.5,147.1,65.8,146.8,65.8z M141.5,64.5h4.6v-0.6h-4.6V64.5z"/>
</g>
<rect id="Rectangle_256" x="146.8" y="63.5" class="st6" width="1.2" height="1.3"/>
<g id="Group_1672">
	<path id="Path_3195" class="st4" d="M97.4,44.3h-1.7c-0.4,0-0.7-0.2-0.8-0.6c0-0.4,0.2-0.7,0.6-0.8h1.8c0.4,0,0.7,0.2,0.8,0.6
		c0,0.4-0.2,0.7-0.6,0.8H97.4z"/>
</g>
<g id="Group_1673">
	<path id="Path_3196" class="st4" d="M110.1,44.3h-9.3c-0.4,0-0.7-0.4-0.6-0.8c0,0,0,0,0,0c0-0.3,0.3-0.6,0.6-0.6h9.3
		c0.4,0,0.7,0.2,0.8,0.6c0,0.4-0.2,0.7-0.6,0.8l0,0H110.1z"/>
</g>
<path class="st6" d="M94.7,72.7h49.8c2.2,0,3.9,1.8,3.9,3.9v49.9c0,2.2-1.8,3.9-3.9,3.9H94.7c-2.2,0-3.9-1.8-3.9-3.9V76.6
	C90.7,74.5,92.5,72.7,94.7,72.7z"/>
<path class="st6" d="M135.8,166.6L135.8,166.6c0-3-2.5-5.5-5.5-5.5h-21.5c-3,0-5.5,2.5-5.5,5.5l0,0c0,3,2.4,5.5,5.5,5.5c0,0,0,0,0,0
	h21.5C133.3,172.1,135.8,169.7,135.8,166.6C135.8,166.7,135.8,166.7,135.8,166.6z"/>
<polygon class="st2" points="102.5,75.8 102.5,77 95.1,77 95.1,84.4 93.9,84.4 93.9,75.8 "/>
<polygon class="st2" points="136.6,127.2 136.6,125.9 144,125.9 144,118.6 145.2,118.6 145.2,127.2 "/>
<polygon class="st2" points="145.2,84.4 144,84.4 144,77 136.6,77 136.6,75.8 145.2,75.8 "/>
<polygon class="st2" points="93.9,118.5 95.1,118.5 95.1,125.9 102.5,125.9 102.5,127.2 93.9,127.2 "/>
<rect x="99.8" y="84.2" class="st4" width="39.4" height="39.4"/>
<g>
	<polygon class="st6" points="115,86.6 113.2,86.6 113.2,88.4 115,88.4 116.8,88.4 116.8,86.6 	"/>
	<rect x="124.1" y="86.6" class="st6" width="1.8" height="1.8"/>
	<polygon class="st6" points="122.3,88.4 120.5,88.4 120.5,86.6 118.6,86.6 118.6,88.4 116.8,88.4 116.8,90.2 116.8,92.1 115,92.1 
		115,93.9 116.8,93.9 116.8,95.7 118.6,95.7 120.5,95.7 120.5,93.9 118.6,93.9 118.6,92.1 118.6,90.2 120.5,90.2 122.3,90.2 
		124.1,90.2 124.1,88.4 	"/>
	<polygon class="st6" points="126,92.1 126,90.2 124.1,90.2 124.1,92.1 124.1,93.9 126,93.9 	"/>
	<polygon class="st6" points="113.2,95.7 113.2,97.5 115,97.5 115,95.7 115,93.9 113.2,93.9 	"/>
	<rect x="122.3" y="93.9" class="st6" width="1.8" height="1.8"/>
	<rect x="115" y="106.7" class="st6" width="1.8" height="1.8"/>
	<rect x="102.2" y="97.5" class="st6" width="1.8" height="1.8"/>
	<polygon class="st6" points="122.3,99.4 124.1,99.4 124.1,101.2 126,101.2 126,99.4 127.8,99.4 127.8,97.5 126,97.5 126,95.7 
		124.1,95.7 124.1,97.5 122.3,97.5 120.5,97.5 118.6,97.5 116.8,97.5 116.8,99.4 118.6,99.4 120.5,99.4 120.5,101.2 122.3,101.2 	
		"/>
	<polygon class="st6" points="135.1,99.4 135.1,97.5 133.3,97.5 133.3,99.4 133.3,101.2 135.1,101.2 	"/>
	<rect x="102.2" y="101.2" class="st6" width="1.8" height="1.8"/>
	<polygon class="st6" points="111.3,103 113.2,103 113.2,101.2 115,101.2 115,99.4 113.2,99.4 111.3,99.4 111.3,97.5 109.5,97.5 
		109.5,99.4 109.5,101.2 111.3,101.2 	"/>
	<rect x="118.6" y="101.2" class="st6" width="1.8" height="1.8"/>
	<polygon class="st6" points="131.4,101.2 131.4,99.4 131.4,97.5 129.6,97.5 129.6,99.4 129.6,101.2 127.8,101.2 126,101.2 126,103 
		127.8,103 129.6,103 129.6,104.8 131.4,104.8 131.4,103 133.3,103 133.3,101.2 	"/>
	<polygon class="st6" points="111.3,103 109.5,103 109.5,101.2 107.7,101.2 107.7,99.4 107.7,97.5 105.8,97.5 105.8,99.4 104,99.4 
		104,101.2 105.8,101.2 105.8,103 107.7,103 107.7,104.8 109.5,104.8 109.5,106.7 111.3,106.7 111.3,104.8 	"/>
	<polygon class="st6" points="115,104.8 116.8,104.8 116.8,106.7 118.6,106.7 118.6,104.8 118.6,103 116.8,103 116.8,101.2 
		115,101.2 115,103 	"/>
	<polygon class="st6" points="135.1,103 133.3,103 133.3,104.8 133.3,106.7 131.4,106.7 131.4,108.5 133.3,108.5 133.3,110.3 
		135.1,110.3 135.1,112.2 135.1,114 136.9,114 136.9,112.2 136.9,110.3 136.9,108.5 135.1,108.5 135.1,106.7 136.9,106.7 
		136.9,104.8 135.1,104.8 	"/>
	<polygon class="st6" points="104,104.8 102.2,104.8 102.2,106.7 102.2,108.5 104,108.5 104,110.3 105.8,110.3 105.8,108.5 
		105.8,106.7 104,106.7 	"/>
	<rect x="105.8" y="104.8" class="st6" width="1.8" height="1.8"/>
	<polygon class="st6" points="126,104.8 126,103 124.1,103 122.3,103 120.5,103 120.5,104.8 120.5,106.7 122.3,106.7 122.3,104.8 
		124.1,104.8 124.1,106.7 126,106.7 126,108.5 127.8,108.5 127.8,106.7 129.6,106.7 129.6,104.8 127.8,104.8 	"/>
	<rect x="107.7" y="106.7" class="st6" width="1.8" height="1.8"/>
	<polygon class="st6" points="113.2,106.7 111.3,106.7 111.3,108.5 111.3,110.3 113.2,110.3 113.2,112.2 113.2,114 115,114 
		115,112.2 115,110.3 115,108.5 113.2,108.5 	"/>
	<rect x="118.6" y="106.7" class="st6" width="1.8" height="1.8"/>
	<rect x="116.8" y="108.5" class="st6" width="1.8" height="1.8"/>
	<polygon class="st6" points="124.1,112.2 124.1,110.3 124.1,108.5 122.3,108.5 122.3,110.3 120.5,110.3 120.5,112.2 122.3,112.2 	
		"/>
	<rect x="116.8" y="112.2" class="st6" width="1.8" height="1.8"/>
	<rect x="120.5" y="114" class="st6" width="1.8" height="1.8"/>
	<path class="st6" d="M131.5,114v-5.5h-7.3v7.3h1.9v1.8h1.8v-1.8h1.8v1.8h1.8v-1.8l0,0l0,0h1.8v1.8h3.7v-1.8h-1.8V114H131.5
		L131.5,114z M125.5,109.9h4.6v4.6h-4.6L125.5,109.9z"/>
	<polygon class="st6" points="115,117.7 115,119.5 116.8,119.5 116.8,117.7 116.8,115.8 116.8,114 115,114 115,115.8 	"/>
	<polygon class="st6" points="122.3,117.7 122.3,119.5 124.1,119.5 126,119.5 126,117.7 124.1,117.7 	"/>
	<rect x="113.2" y="119.5" class="st6" width="1.8" height="1.8"/>
	<polygon class="st6" points="118.6,121.3 120.5,121.3 120.5,119.5 118.6,119.5 116.8,119.5 116.8,121.3 	"/>
	<polygon class="st6" points="133.3,119.5 133.3,121.3 135.1,121.3 136.9,121.3 136.9,119.5 135.1,119.5 	"/>
	<rect x="126.9" y="111.3" class="st6" width="1.8" height="1.8"/>
	<path class="st6" d="M111.3,86.6h-9.2v9.1h9.2V86.6z M110,94.3h-6.4v-6.4h6.4V94.3z"/>
	<rect x="104.9" y="89.3" class="st6" width="3.7" height="3.7"/>
	<path class="st6" d="M127.8,86.6v9.1h9.1v-9.1H127.8z M135.6,94.3h-6.4v-6.4h6.4V94.3z"/>
	<rect x="130.5" y="89.3" class="st6" width="3.7" height="3.7"/>
	<path class="st6" d="M102.2,121.3h9.2v-9.2h-9.2V121.3z M103.6,113.6h6.4v6.4h-6.4L103.6,113.6z"/>
	<rect x="104.9" y="114.9" class="st6" width="3.7" height="3.7"/>
</g>
<text transform="matrix(1 0 0 1 108.34 169)" class="st2 st8 st12 st13">S</text>
<text transform="matrix(1 0 0 1 113.88 169)" class="st2 st8 st12 st13">C</text>
<text transform="matrix(1 0 0 1 119.98 169)" class="st2 st8 st12 st13">AN</text>
<line class="st14" x1="90.8" y1="90.5" x2="148.3" y2="90.5"/>
<text transform="matrix(1 0 0 1 107.64 82.82)" class="st2 st8 st15">-</text>
<text transform="matrix(1 0 0 1 109.45 82.82)" class="st2 st8 st15">S</text>
<text transform="matrix(1 0 0 1 112.16 82.82)" class="st2 st8 st15">C</text>
<text transform="matrix(1 0 0 1 115.14 82.82)" class="st2 st8 st15">AN M</text>
<text transform="matrix(1 0 0 1 126.86 82.82)" class="st2 st8 st15">E</text>
<text transform="matrix(1 0 0 1 129.62 82.82)" class="st2 st8 st15">-</text>
<g id="Group_1674">
	<path id="Path_3197" class="st2" d="M123.6,183.9h-10.1c-0.4,0-0.7-0.2-0.8-0.6c0-0.4,0.2-0.7,0.6-0.8h10.3c0.4,0,0.7,0.4,0.6,0.8
		c0,0,0,0,0,0C124.2,183.6,123.9,183.9,123.6,183.9z"/>
</g>
<path id="Path_3198" class="st4" d="M166.7,182.3c0,0-8.1-28.7-12.2-32.4s-24.4-10.9-29-12.6c-7-2.6-14.3,8.8-5.2,15.7
	c8,6.2,15.2,13,15.2,13l1.5,20.2c-9.2,11.6-11.8,27.2-6.8,41.2L166.7,182.3z"/>
<g id="Group_1675">
	<path id="Path_3199" class="st2" d="M130.1,228c-0.3,0-0.6-0.2-0.7-0.5c-5-14.1-2.5-29.8,6.7-41.6l-1.4-19.6
		c-1.2-1.1-7.7-7.2-14.9-12.8c-5.4-4.1-5.2-9.5-3.3-12.9c2-3.6,5.8-5.3,9.2-4.1l1.1,0.4c10.4,3.8,24.6,9.2,28.1,12.3
		c4.2,3.8,12.1,31.5,12.4,32.7c0.1,0.4-0.2,0.7-0.6,0.8c-0.3,0.1-0.7-0.1-0.8-0.4c-2.2-7.9-8.8-29.1-12-32.1
		c-3.7-3.4-21.7-9.9-27.7-12.1l-1.1-0.4c-3.2-1.2-6.2,0.9-7.5,3.4c-1.6,2.9-1.7,7.5,3,11.1c8,6.1,15.1,13,15.2,13
		c0.1,0.1,0.2,0.3,0.2,0.5l1.5,20.2c0,0.2,0,0.4-0.2,0.5c-9,11.5-11.5,26.7-6.6,40.5c0.1,0.4-0.1,0.8-0.4,0.9c0,0,0,0,0,0
		C130.3,227.9,130.2,227.9,130.1,228L130.1,228z"/>
</g>
<path id="Path_3209" class="st4" d="M130.1,227.3c0,0,6,14.5,21.1,16s24.1-10.4,24.1-10.4l-3.5-11.8l1.1-18.1c0,0-4.7-18.1-6.2-20.7
	s-6.9,3.3-6.9,3.3l-28.3,31.2c0,0-1.4,5-1.4,5.4C129.1,223.7,129.1,225.7,130.1,227.3z"/>
<g id="Group_1684">
	<path id="Path_3210" class="st2" d="M147.7,242.6c-2.6,0-5.2-0.4-7.6-1.3c-5.3-2-9-6.4-10.8-13.1c-4.6-16.4-2.2-30.6,7.2-42.4
		c0.2-0.3,0.6-0.3,0.9-0.1c0.3,0.2,0.3,0.6,0.1,0.8l0,0c-9.1,11.5-11.4,25.3-7,41.3c1.8,6.3,5.2,10.5,10.1,12.4
		c12.4,4.8,31.1-6,34-7.8l-3.8-11.1c0-0.1,0-0.2,0-0.2l1.1-18c-0.6-2.9-1.3-5.7-2.3-8.5c-0.4-1.2-0.7-2.4-1-3.4
		c-1-3.4-4-14.7-4.1-14.8c-0.1-0.3,0.1-0.6,0.4-0.7c0.3-0.1,0.6,0.1,0.7,0.4l0,0c0,0.1,3.1,11.3,4,14.8c0.3,1,0.6,2.1,1,3.3
		c1,2.9,1.7,5.8,2.3,8.7c0,0,0,0.1,0,0.1l-1.1,18l3.9,11.4c0.1,0.3,0,0.5-0.2,0.7C174.9,233.6,160.6,242.6,147.7,242.6z"/>
</g>
<g id="Group_1686">
	<g>
		<path id="Path_3217_8_" class="st16" d="M196.6,88.1h1.2v1.2h1.2v-1.2h2.4v1.2h-1.2v1.2h1.2v1.2h-1.2v1.2H199v-2.4h-1.2v2.4h-1.2
			v-1.2h-1.2v-1.2h1.2L196.6,88.1z"/>
		<path id="Path_3218_8_" class="st16" d="M185.8,88.1v8.4h8.4v-8.4H185.8z M193,95.3h-6v-6h6V95.3z"/>
		<path id="Path_3219_8_" class="st16" d="M202.6,88.1v8.4h8.4v-8.4H202.6z M209.8,95.3h-6v-6h6V95.3z"/>
		<path id="Path_3220_8_" class="st16" d="M188.2,90.5h3.6v3.6h-3.6V90.5z"/>
		<path id="Path_3221_8_" class="st16" d="M205,90.5h3.6v3.6H205V90.5z"/>
		<path id="Path_3222_8_" class="st16" d="M197.8,92.9h1.2v1.2h-1.2L197.8,92.9z"/>
		<path id="Path_3223_8_" class="st16" d="M200.2,92.9h1.2v4.8h-1.2v1.2h-2.4v1.2h1.2v2.4h-2.4v-1.2H193v-1.2h3.6v-1.2h-4.8v2.4h1.2
			v1.2h2.4v1.2h-3.6v-1.2h-1.2v1.2h-1.2v-2.4h1.2v-1.2h-2.4v-1.2H187v1.2h1.2v1.2h-2.4v-3.6h3.6v1.2h1.2v-1.2h4.8v-2.4h1.2v1.2h1.2
			v1.2h1.2v-1.2h1.2L200.2,92.9z"/>
		<path id="Path_3224_8_" class="st16" d="M197.8,95.3h1.2v1.2h-1.2L197.8,95.3z"/>
		<path id="Path_3225_8_" class="st16" d="M201.4,97.7h2.4v1.2h1.2v1.2h-2.4v-1.2h-1.2L201.4,97.7z"/>
		<path id="Path_3226_8_" class="st16" d="M207.4,97.7h1.2v1.2h-1.2V97.7z"/>
		<path id="Path_3227_8_" class="st16" d="M209.8,98.9h1.2v2.4h-1.2v1.2h-1.2v-1.2h-1.2v-1.2h2.4L209.8,98.9z"/>
		<path id="Path_3228_8_" class="st16" d="M200.2,100.1h1.2v1.2h-1.2V100.1z"/>
		<path id="Path_3229_8_" class="st16" d="M205,100.1h1.2v2.4H205V100.1z"/>
		<path id="Path_3230_8_" class="st16" d="M202.6,101.3h1.2v1.2h1.2v1.2h1.2v3.6H205v-2.4h-1.2v-1.2h-1.2L202.6,101.3z"/>
		<path id="Path_3231_8_" class="st16" d="M185.8,102.5h1.2v1.2h-1.2V102.5z"/>
		<path id="Path_3232_8_" class="st16" d="M200.2,102.5h1.2v1.2h-1.2V102.5z"/>
		<path id="Path_3233_8_" class="st16" d="M206.2,102.5h1.2v1.2h-1.2V102.5z"/>
		<path id="Path_3234_8_" class="st16" d="M195.4,103.7h1.2v2.4h1.2v1.2h-1.2v1.2h-1.2V103.7z"/>
		<path id="Path_3235_8_" class="st16" d="M199,103.7h1.2v2.4h1.2v-2.4h1.2v1.2h1.2v1.2h-1.2v1.2h2.4v1.2h1.2v-1.2h1.2v2.4h-1.2v1.2
			h1.2v2.4h-1.2v-1.2h-2.4v1.2h-1.2v-2.4h2.4v-1.2h-2.4v-1.2h-1.2v-1.2h-1.2v1.2H199v3.6h-2.4v1.2h-1.2v-3.6h1.2v1.2h1.2v-1.2h-1.2
			v-1.2h1.2v-1.2h1.2v-1.2h-1.2v-1.2h1.2V103.7z"/>
		<path id="Path_3236_8_" class="st16" d="M208.6,103.7h2.4v4.8h-1.2v1.2h-1.2v-2.4h1.2v-1.2h-2.4v-1.2h1.2L208.6,103.7z"/>
		<path id="Path_3237_8_" class="st16" d="M185.8,104.9v8.4h8.4v-8.4H185.8z M193,112.1h-6v-6h6V112.1z"/>
		<path id="Path_3238_8_" class="st16" d="M188.2,107.3h3.6v3.6h-3.6V107.3z"/>
		<path id="Path_3239_8_" class="st16" d="M200.2,109.7h1.2v1.2h-1.2V109.7z"/>
		<path id="Path_3240_8_" class="st16" d="M207.4,109.7h1.2v1.2h-1.2V109.7z"/>
		<path id="Path_3241_8_" class="st16" d="M209.8,109.7h1.2v1.2h-1.2L209.8,109.7z"/>
		<path id="Path_3242_8_" class="st16" d="M208.6,110.9h1.2v1.2h1.2v1.2h-2.4L208.6,110.9z"/>
		<path id="Path_3243_8_" class="st16" d="M200.2,112.1h1.2v1.2h-1.2V112.1z"/>
	</g>
</g>
</svg>
