<?xml version="1.0" encoding="utf-8"?>
<!-- Generator: Adobe Illustrator 25.2.0, SVG Export Plug-In . SVG Version: 6.00 Build 0)  -->
<svg version="1.1" id="Layer_1" xmlns="http://www.w3.org/2000/svg" xmlns:xlink="http://www.w3.org/1999/xlink" x="0px" y="0px"
	 viewBox="0 0 334.9 71.2" style="enable-background:new 0 0 334.9 71.2;" xml:space="preserve">
<style type="text/css">
	.st0{fill:#FFFFFF;}
	.st1{fill:#F2F1F6;}
	.st2{fill:#7C4DFF;}
	.st3{fill:#EBEBEB;}
	.st4{fill:#666666;}
	.st5{fill:none;stroke:#7C4DFF;stroke-dasharray:2,2;}
</style>
<path class="st0" d="M12.2,4.5h310c5.2,0,9.5,4.3,9.5,9.5v45c0,5.2-4.3,9.5-9.5,9.5h-310c-5.2,0-9.5-4.3-9.5-9.5V14
	C2.7,8.7,6.9,4.5,12.2,4.5z"/>
<path class="st1" d="M71.7,33.3C71.7,24.3,79,17,88,17h7.3c9,0,16.3,7.3,16.3,16.3v7.3c0,9-7.3,16.3-16.3,16.3l0,0H88
	c-9,0-16.3-7.3-16.3-16.3l0,0V33.3z"/>
<path class="st1" d="M71.7,33.3C71.7,24.3,79,17,88,17h7.3c9,0,16.3,7.3,16.3,16.3v7.3c0,9-7.3,16.3-16.3,16.3l0,0H88
	c-9,0-16.3-7.3-16.3-16.3l0,0V33.3z"/>
<path class="st2" d="M71.7,33.3C71.7,24.3,79,17,88,17h7.3c9,0,16.3,7.3,16.3,16.3v7.3c0,9-7.3,16.3-16.3,16.3l0,0H88
	c-9,0-16.3-7.3-16.3-16.3l0,0V33.3z"/>
<path class="st0" d="M102.8,39.3L97.3,41c0-0.1,0-0.1,0-0.2c0-0.4-0.2-0.9-0.5-1.2s-0.7-0.5-1.2-0.5h-3.1l-4.4-1.3H88h-3.2V37
	c0-0.1,0-0.1,0-0.2c0-0.1-0.1-0.1-0.1-0.1l-0.1-0.1c-0.1,0-0.1,0-0.2,0h-5.6c-0.1,0-0.1,0-0.2,0s-0.2,0.1-0.2,0.2c0,0.1,0,0.1,0,0.2
	v8.6c0,0.1,0,0.1,0,0.2c0,0.1,0.1,0.1,0.1,0.1l0.1,0.1c0.1,0,0.1,0,0.2,0h5.5c0.1,0,0.1,0,0.2,0s0.1-0.1,0.1-0.1l0.1-0.1
	c0-0.1,0-0.1,0-0.2V45h1.9l6.4,2.5c0.2,0.1,0.4,0.1,0.6,0.1s0.4-0.1,0.6-0.2l9.7-5.1c0.4-0.2,0.6-0.5,0.8-0.9c0.1-0.4,0.1-0.8,0-1.2
	c-0.2-0.4-0.4-0.7-0.8-0.9C103.6,39.2,103.2,39.1,102.8,39.3z M84,45.1h-4.7v-7.7H84V45.1z M104,41.1c0,0.1-0.1,0.2-0.2,0.3
	s-0.1,0.2-0.2,0.2l-9.6,5c-0.1,0-0.2,0.1-0.3,0.1c-0.1,0-0.2,0-0.3,0L87,44.1h-0.2h-2v-5.4H88l4.4,1.3h0.1h3.2
	c0.2,0,0.4,0.1,0.6,0.2c0.3,0.3,0.3,0.8,0,1.1c-0.1,0.1-0.3,0.2-0.6,0.2h-4.5c-0.4,0-0.7,0.1-1,0.4c-0.3,0.3-0.4,0.6-0.4,1v0.2
	c0,0.1,0,0.2,0.1,0.3c0.2,0.2,0.4,0.2,0.6,0c0.1-0.1,0.1-0.2,0.1-0.3V43c0-0.1,0.1-0.3,0.1-0.4c0.1-0.1,0.2-0.1,0.3-0.2h4.5
	c0.4,0,0.7-0.1,1-0.3l6.4-2c0.1,0,0.3,0,0.4,0s0.3,0.1,0.3,0.2c0.1,0.1,0.2,0.2,0.2,0.4C104,40.9,104,41,104,41.1L104,41.1z"/>
<path class="st0" d="M93.3,25.5c-3.1,0-5.5,2.5-5.5,5.5s2.5,5.5,5.5,5.5s5.5-2.5,5.5-5.5v-0.1l0,0C98.8,27.9,96.4,25.5,93.3,25.5
	L93.3,25.5z M93.3,26.2c2.6,0,4.8,2.1,4.8,4.8s-2.1,4.8-4.8,4.8s-4.8-2.1-4.8-4.8l0,0C88.6,28.4,90.7,26.2,93.3,26.2z M93.3,27.7
	c-0.2,0-0.4,0.2-0.4,0.4v0.4c-0.7,0.1-1.2,0.7-1.3,1.4c0,0.9,0.8,1.5,1.6,1.5l0,0l0,0c0.4,0.1,0.7,0.5,0.6,0.9
	c-0.1,0.4-0.5,0.7-0.9,0.6c-0.4-0.1-0.7-0.4-0.7-0.8c0-0.2-0.2-0.4-0.4-0.4c-0.2,0-0.4,0.2-0.4,0.4c0,0.7,0.6,1.3,1.4,1.4V34
	c0,0.2,0.2,0.4,0.4,0.4c0.2,0,0.4-0.2,0.4-0.4v-0.3c0.7-0.1,1.3-0.8,1.3-1.5c0-0.8-0.7-1.5-1.5-1.5c-0.1,0-0.1,0-0.2,0l0,0
	c-0.4,0.1-0.8-0.2-0.9-0.6s0.2-0.8,0.6-0.9c0.1,0,0.2,0,0.3,0l0,0c0.5,0,0.9,0.3,0.9,0.8c0,0.2,0.2,0.4,0.4,0.4
	c0.2,0,0.4-0.2,0.4-0.4c0-0.7-0.6-1.3-1.3-1.5v-0.3C93.7,27.9,93.6,27.7,93.3,27.7L93.3,27.7z"/>
<circle class="st3" cx="38.5" cy="37" r="15"/>
<path class="st4" d="M36.6,37.6v-1.8H38c0.5,0,1-0.1,1.4-0.5c0.4-0.3,0.6-0.7,0.6-1.2s-0.2-0.9-0.5-1.2c-0.4-0.3-1-0.5-1.5-0.4
	c-0.5,0-1,0.2-1.4,0.5S36,33.7,36,34.2h-2.3c0-1,0.5-2,1.3-2.7c0.9-0.7,2-1.1,3.2-1c1.1,0,2.1,0.3,3,0.9c0.8,0.5,1.2,1.4,1.2,2.3
	c0,0.7-0.2,1.3-0.7,1.9c-0.5,0.5-1.1,0.9-1.8,1l0,0c0.8,0,1.6,0.4,2.2,0.9c0.5,0.5,0.8,1.3,0.8,2c0,1-0.5,2-1.3,2.6
	c-1,0.7-2.2,1.1-3.4,1c-1.2,0.1-2.3-0.3-3.3-1c-0.8-0.7-1.3-1.6-1.3-2.7H36c0,0.5,0.3,0.9,0.7,1.2c0.5,0.3,1,0.5,1.6,0.5
	s1.1-0.1,1.5-0.5c0.4-0.3,0.6-0.8,0.6-1.2c0-0.5-0.2-1-0.6-1.3c-0.5-0.3-1-0.5-1.6-0.5H36.6z"/>
<path class="st5" d="M38.5,4v18"/>
</svg>
