<?xml version="1.0" encoding="utf-8"?>
<!-- Generator: Adobe Illustrator 25.2.0, SVG Export Plug-In . SVG Version: 6.00 Build 0)  -->
<svg version="1.1" id="Layer_1" xmlns="http://www.w3.org/2000/svg" xmlns:xlink="http://www.w3.org/1999/xlink" x="0px" y="0px"
	 viewBox="0 0 334.9 70.1" style="enable-background:new 0 0 334.9 70.1;" xml:space="preserve">
<style type="text/css">
	.st0{fill:#FFFFFF;}
	.st1{fill:#F2F1F6;}
	.st2{fill:#7C4DFF;}
	.st3{fill:#EBEBEB;}
	.st4{fill:#666666;}
	.st5{fill:none;stroke:#7C4DFF;stroke-dasharray:2,2;}
</style>
<path class="st0" d="M12.2,3.4h310c5.2,0,9.5,4.3,9.5,9.5v45c0,5.2-4.3,9.5-9.5,9.5h-310c-5.2,0-9.5-4.3-9.5-9.5v-45
	C2.7,7.6,6.9,3.4,12.2,3.4z"/>
<path class="st1" d="M71.7,32.2c0-9,7.3-16.3,16.3-16.3l0,0h7.3c9,0,16.3,7.3,16.3,16.3l0,0v7.3c0,9-7.3,16.3-16.3,16.3l0,0H88
	c-9,0-16.3-7.3-16.3-16.3l0,0V32.2z"/>
<path class="st1" d="M71.7,32.2c0-9,7.3-16.3,16.3-16.3l0,0h7.3c9,0,16.3,7.3,16.3,16.3l0,0v7.3c0,9-7.3,16.3-16.3,16.3l0,0H88
	c-9,0-16.3-7.3-16.3-16.3l0,0V32.2z"/>
<path class="st2" d="M71.7,32.2c0-9,7.3-16.3,16.3-16.3l0,0h7.3c9,0,16.3,7.3,16.3,16.3l0,0v7.3c0,9-7.3,16.3-16.3,16.3l0,0H88
	c-9,0-16.3-7.3-16.3-16.3l0,0V32.2z"/>
<path class="st0" d="M91.6,27.6v10l-2.7-2.2c-0.3-0.2-0.7-0.2-0.9,0.1l0,0c-0.2,0.3-0.2,0.7,0.1,0.9l0,0l3.5,2.9
	c0.4,0.3,0.9,0.3,1.2,0l3.5-2.9c0.3-0.2,0.3-0.6,0.1-0.9s-0.6-0.3-0.9-0.1l-2.7,2.2v-10c0-0.3-0.3-0.6-0.6-0.6
	C91.8,27,91.6,27.2,91.6,27.6z"/>
<path class="st0" d="M83.3,37.3c-0.3,0-0.5,0.3-0.6,0.6v3.6c0,1.1,0.9,2,2,2h14.7c1.1,0,2-0.9,2-2V38c0-0.3-0.3-0.6-0.6-0.6
	s-0.6,0.3-0.6,0.6l0,0v3.6c0,0.4-0.3,0.8-0.8,0.8l0,0H84.8c-0.4,0-0.8-0.3-0.8-0.8l0,0V38C84,37.6,83.7,37.3,83.3,37.3L83.3,37.3z"
	/>
<circle class="st3" cx="38.5" cy="35.4" r="15"/>
<path class="st4" d="M33.5,32.9c0-1.1,0.4-2.1,1.2-2.8c0.9-0.7,2.1-1.1,3.2-1.1c1.1,0,2.2,0.3,3.1,1c0.8,0.6,1.2,1.5,1.2,2.5
	c0,0.3-0.1,0.7-0.2,1c-0.1,0.4-0.3,0.7-0.5,1s-0.5,0.6-0.7,0.9l-0.9,1l-3,2.8l0,0h5.5v2h-8.8v-1.7l4.5-4.4c0.5-0.4,0.9-0.9,1.3-1.5
	c0.2-0.4,0.3-0.8,0.3-1.2c0-0.4-0.2-0.9-0.5-1.2c-0.8-0.7-2-0.6-2.8,0.1c-0.4,0.4-0.6,0.9-0.6,1.4l0,0L33.5,32.9L33.5,32.9z"/>
<path class="st5" d="M38.5,2.9v18"/>
<path class="st5" d="M38.5,50.9v17"/>
</svg>
