<?xml version="1.0" encoding="utf-8"?>
<!-- Generator: Adobe Illustrator 25.2.0, SVG Export Plug-In . SVG Version: 6.00 Build 0)  -->
<svg version="1.1" id="Layer_1" xmlns="http://www.w3.org/2000/svg" xmlns:xlink="http://www.w3.org/1999/xlink" x="0px" y="0px"
	 viewBox="0 0 334.9 70.8" style="enable-background:new 0 0 334.9 70.8;" xml:space="preserve">
<style type="text/css">
	.st0{fill:#FFFFFF;}
	.st1{fill:#F2F1F6;}
	.st2{fill:#7C4DFF;}
	.st3{fill:#EBEBEB;}
	.st4{fill:#666666;}
	.st5{fill:none;stroke:#7C4DFF;stroke-dasharray:2,2;}
</style>
<path class="st0" d="M12.2,3.6h310c5.2,0,9.5,4.3,9.5,9.5v45c0,5.2-4.3,9.5-9.5,9.5h-310c-5.2,0-9.5-4.3-9.5-9.5v-45
	C2.7,7.9,6.9,3.6,12.2,3.6z"/>
<path class="st1" d="M71.7,32.4c0-9,7.3-16.3,16.3-16.3l0,0h7.3c9,0,16.3,7.3,16.3,16.3v7.3c0,9-7.3,16.3-16.3,16.3l0,0H88
	c-9,0-16.3-7.3-16.3-16.3l0,0V32.4z"/>
<path class="st1" d="M71.7,32.4c0-9,7.3-16.3,16.3-16.3l0,0h7.3c9,0,16.3,7.3,16.3,16.3v7.3c0,9-7.3,16.3-16.3,16.3l0,0H88
	c-9,0-16.3-7.3-16.3-16.3l0,0V32.4z"/>
<path class="st2" d="M71.7,32.4c0-9,7.3-16.3,16.3-16.3l0,0h7.3c9,0,16.3,7.3,16.3,16.3v7.3c0,9-7.3,16.3-16.3,16.3l0,0H88
	c-9,0-16.3-7.3-16.3-16.3l0,0V32.4z"/>
<path class="st0" d="M86.9,45.9c0.7,0,1.3-0.1,1.9-0.4c0.6-0.2,1.2-0.6,1.6-1.1l2.2-2.2c0.1-0.1,0.2-0.3,0.2-0.5s-0.1-0.3-0.2-0.5
	c-0.1-0.1-0.3-0.2-0.5-0.2s-0.3,0.1-0.5,0.2l-2.2,2.2c-1.1,1-2.6,1.4-4,0.8c-0.7-0.3-1.3-0.7-1.7-1.4c-0.4-0.6-0.6-1.3-0.6-2
	c0-0.5,0.1-1,0.3-1.4c0.2-0.4,0.5-0.9,0.8-1.2l4.1-4.1c0.9-0.9,2.1-1.2,3.3-1c0.6,0.1,1.2,0.4,1.6,0.8c0.5,0.4,0.8,0.9,1.1,1.4
	c0.1,0.2,0.2,0.3,0.4,0.4c0.3,0.1,0.7,0,0.9-0.4c0.1-0.2,0.1-0.4,0-0.5c-1.1-2.6-4.1-3.8-6.7-2.6c-0.6,0.2-1.1,0.6-1.5,1l-4.1,4.1
	c-0.7,0.7-1.2,1.6-1.4,2.5c-0.4,2,0.4,4,2.1,5.2C85,45.6,85.9,45.9,86.9,45.9z"/>
<path class="st0" d="M100.8,27c-2-2-5.2-2-7.2,0l-2.2,2.2c-0.1,0.1-0.1,0.1-0.2,0.2c0,0.1-0.1,0.2-0.1,0.3c0,0.1,0,0.2,0,0.3
	c0.1,0.2,0.2,0.3,0.4,0.4c0.1,0,0.2,0,0.3,0c0.1,0,0.2,0,0.3-0.1c0.1,0,0.2-0.1,0.2-0.1l2.2-2.2c1.5-1.4,3.8-1.3,5.2,0.2
	c1.3,1.4,1.3,3.6,0,5.1l-4.1,4.1c-1.5,1.4-3.8,1.4-5.2-0.1c-0.3-0.3-0.6-0.7-0.8-1.1c-0.1-0.2-0.2-0.3-0.4-0.4
	c-0.2-0.1-0.4-0.1-0.5,0c-0.2,0.1-0.3,0.2-0.4,0.4s-0.1,0.4,0,0.5c0.7,1.6,2,2.7,3.7,3c0.8,0.2,1.7,0.1,2.4-0.1
	c0.8-0.2,1.5-0.7,2.1-1.3l4.1-4.1C102.7,32.2,102.7,29,100.8,27L100.8,27z"/>
<path class="st0" d="M97.7,40.4c-0.1-0.1-0.3-0.2-0.5-0.2s-0.3,0.1-0.5,0.2c-0.1,0.1-0.2,0.3-0.2,0.5s0.1,0.3,0.2,0.5l2.1,2.1
	c0.3,0.3,0.7,0.3,1,0l0,0c0.1-0.1,0.2-0.3,0.2-0.5s-0.1-0.3-0.2-0.5L97.7,40.4z"/>
<path class="st0" d="M101.5,38.3c0-0.2-0.1-0.4-0.2-0.5s-0.3-0.2-0.5-0.2h-1c-0.4,0-0.7,0.3-0.7,0.7s0.3,0.7,0.7,0.7h1
	c0.2,0,0.4-0.1,0.5-0.2C101.5,38.6,101.5,38.4,101.5,38.3z"/>
<path class="st0" d="M94.7,42.7c-0.2,0-0.4,0.1-0.5,0.2C94.1,43,94,43.2,94,43.4v1c0,0.2,0.1,0.4,0.2,0.5c0.3,0.3,0.7,0.3,1,0l0,0
	c0.1-0.1,0.2-0.3,0.2-0.5v-1c0-0.2-0.1-0.4-0.2-0.5C95.1,42.8,94.9,42.7,94.7,42.7z"/>
<path class="st0" d="M86.9,31.2c0.1,0,0.3,0,0.4-0.1s0.2-0.2,0.2-0.3c0-0.1,0-0.3,0-0.4s-0.1-0.3-0.2-0.4l-2-2
	c-0.1-0.1-0.3-0.2-0.5-0.2c-0.1,0-0.2,0-0.3,0c-0.1,0-0.2,0.1-0.2,0.1c-0.1,0.1-0.1,0.1-0.2,0.2c0,0.1,0,0.2,0,0.3
	c0,0.1,0,0.2,0.1,0.3c0,0.1,0.1,0.2,0.2,0.2l2,2C86.6,31.1,86.8,31.2,86.9,31.2z"/>
<path class="st0" d="M88.8,26.9v1c0,0.2,0.1,0.4,0.2,0.5s0.3,0.2,0.5,0.2c0.3,0,0.6-0.2,0.7-0.6v-1c0-0.2-0.1-0.4-0.2-0.5
	s-0.3-0.2-0.5-0.2s-0.4,0.1-0.5,0.2S88.9,26.8,88.8,26.9z"/>
<path class="st0" d="M83.3,32.4c-0.4,0-0.7,0.3-0.7,0.7l0,0c0,0.2,0.1,0.4,0.2,0.5s0.3,0.2,0.5,0.2h1c0.4,0,0.7-0.3,0.7-0.7
	c0-0.2-0.1-0.4-0.2-0.5s-0.3-0.2-0.5-0.2H83.3z"/>
<circle class="st3" cx="38.5" cy="35.6" r="15"/>
<path class="st4" d="M38,41.3v-9.8l0,0l-3.1,2.1v-2.3l3.1-2.2h2.5v12.1H38V41.3z"/>
<path class="st5" d="M38.5,51.1v17"/>
</svg>
