<?xml version="1.0" encoding="utf-8"?>
<!-- Generator: Adobe Illustrator 25.2.0, SVG Export Plug-In . SVG Version: 6.00 Build 0)  -->
<svg version="1.1" id="Layer_1" xmlns="http://www.w3.org/2000/svg" xmlns:xlink="http://www.w3.org/1999/xlink" x="0px" y="0px"
	 viewBox="0 0 144 144" style="enable-background:new 0 0 144 144;" xml:space="preserve">
<style type="text/css">
	.st0{fill:#7C4DFF;}
	.st1{opacity:0.2;enable-background:new    ;}
	.st2{fill:#33208C;}
	.st3{fill:#407BFF;}
	.st4{fill:#5233C1;}
	.st5{fill:#263238;}
	.st6{fill:#FF8B7B;}
	.st7{fill:#FFFFFF;}
	.st8{fill:#FF5652;}
</style>
<path class="st0" d="M70.1,61.6H8.4v65.9c0,1,0.8,1.8,1.8,1.8h60L70.1,61.6z"/>
<path class="st1" d="M70.1,61.6H8.4v4.8h35.5l1.2,62.9l0.8-62.9h24.2V61.6z"/>
<path class="st0" d="M70.1,65H7.8C7.4,65,7,64.6,7,64.1V52.2c0-0.5,0.4-0.9,0.8-0.9c0,0,0,0,0,0h62.2L70.1,65L70.1,65z"/>
<path class="st2" d="M32.2,129.2l-0.6-78H45l0.6,78H32.2z"/>
<path class="st3" d="M70.1,61.6h26.1v65.9c0,1-0.8,1.8-1.8,1.8c0,0,0,0,0,0H70.1V61.6z"/>
<path class="st4" d="M70.1,61.6h26.1v65.9c0,1-0.8,1.8-1.8,1.8c0,0,0,0,0,0H70.1V61.6z"/>
<path class="st1" d="M70.1,61.6h26.1v4.8H81.6l-2,62.9l0.2-62.9h-9.7V61.6z"/>
<path class="st3" d="M70.1,65h26.6c0.5,0,0.9-0.4,0.9-0.8c0,0,0,0,0,0V52.2c0-0.5-0.4-0.9-0.8-0.9c0,0,0,0,0,0H70.1V65z"/>
<path class="st4" d="M70.1,65h26.6c0.5,0,0.9-0.4,0.9-0.8c0,0,0,0,0,0V52.2c0-0.5-0.4-0.9-0.8-0.9c0,0,0,0,0,0H70.1V65z"/>
<path class="st5" d="M79.7,129.2l1.1-78h8.4l-1.1,78H79.7z"/>
<path class="st2" d="M79.7,129.2l1.1-78h8.4l-1.1,78H79.7z"/>
<path class="st4" d="M84,25.4H73c-0.6,0.1-1.2,0.2-1.8,0.5c-11.1,4.8-16.5,17.3-19,25.4h11.3C63.5,51.3,90.1,24.6,84,25.4z"/>
<path class="st2" d="M63.5,51.3c0-10.5,7.8-20.6,18.9-25.4S63.5,51.3,63.5,51.3z"/>
<path class="st4" d="M86.9,32.1h-8.2c-0.5,0-1,0.2-1.5,0.4C67.6,36,60.1,45.3,56,51.3h8.3C64.4,51.3,91.6,31.5,86.9,32.1z"/>
<path class="st2" d="M64.4,51.3C68.4,40.9,76,36,85.6,32.4S64.4,51.3,64.4,51.3z"/>
<path class="st4" d="M32,22.1H21c-0.4,0-0.8,0.2-1,0.6c-3.4,5.4,11.3,19.5,22,28.6h11.2C53.3,51.3,36.8,21.2,32,22.1z"/>
<path class="st2" d="M53.3,51.3c-10.7-9.1-25.5-23.2-22-28.6S53.3,51.3,53.3,51.3z"/>
<path class="st4" d="M43.5,29.6h-8.2c-0.3,0-0.7,0.2-0.9,0.4C30.9,34,39,44.5,45.1,51.3h8.3C53.4,51.3,47.3,29,43.5,29.6z"/>
<path class="st2" d="M53.4,51.3C47.2,44.5,39.2,34,42.8,30S53.4,51.3,53.4,51.3z"/>
<path class="st6" d="M131.7,124.1l2.9-1l-1.4-7l-2.8,0.9L131.7,124.1z"/>
<path class="st6" d="M109.1,126.6h3l0.8-7.1h-3L109.1,126.6z"/>
<path class="st5" d="M112.4,126.2h-3.7c-0.1,0-0.2,0.1-0.3,0.2l-0.5,2.7c0,0.3,0.2,0.5,0.4,0.5c0,0,0,0,0,0c1.2,0,2-0.1,3.5-0.1
	c0.9,0,3.7,0.1,4.9,0.1s1.4-1.2,0.8-1.4c-1.7-0.3-3.4-0.9-4.8-1.9C112.7,126.2,112.6,126.2,112.4,126.2z"/>
<path class="st5" d="M134.4,122.8l-3.1,1c-0.1,0-0.2,0.1-0.2,0.3l0.3,2.8c0,0.2,0.2,0.4,0.5,0.4c0,0,0.1,0,0.1,0
	c1.1-0.4,2.7-1,4.1-1.4c1.6-0.5,2.6-0.8,4.5-1.4c1.2-0.4,1.1-1.7,0.6-1.6c-2.4,0.2-3.7,0.7-6,0.1
	C134.9,122.7,134.7,122.7,134.4,122.8z"/>
<path class="st6" d="M119.4,33.9c0.4,0.8,0.8,1.8,1.2,2.7s0.9,1.8,1.3,2.7s0.9,1.8,1.4,2.6s1,1.6,1.5,2.4c0.3,0.4,0.5,0.8,0.8,1.1
	l0.4,0.5c0.1,0.1,0.2,0.2,0.3,0.3c0.1,0.1,0.3,0.3,0.5,0.3c0.2,0.1,0.5,0.1,0.7,0.1c0.8-0.1,1.5-0.4,2.2-0.8
	c0.4-0.2,0.8-0.5,1.1-0.8c0.4-0.3,0.8-0.6,1.1-0.8l1.7,1.5l-1,1.4c-0.3,0.4-0.7,0.8-1.2,1.2c-0.4,0.4-0.9,0.8-1.3,1.1
	c-0.5,0.4-1.1,0.6-1.8,0.8c-0.7,0.3-1.5,0.3-2.2,0.2c-0.8-0.1-1.6-0.4-2.2-0.9c-0.3-0.2-0.6-0.5-0.9-0.8l-0.6-0.7
	c-0.4-0.4-0.7-0.8-1-1.3c-1.3-1.7-2.4-3.5-3.4-5.4c-0.5-0.9-1-1.9-1.4-2.8s-0.9-1.9-1.3-2.9L119.4,33.9z"/>
<path class="st4" d="M113.9,34.2c-0.5,2.9,2.9,7,2.9,7l5.1-2.3c-0.4-2.1-1.3-4-2.6-5.7C116.9,30.3,114.5,31,113.9,34.2z"/>
<path class="st1" d="M116.7,35.2c-1.4-0.5-2.4-0.3-2.8,0c0.3,2.7,3,5.9,3,5.9l3.6-1.6C120,37.6,118.6,36,116.7,35.2z"/>
<path class="st6" d="M131.3,44.8l1.7-3.5l2.3,2.4c0,0-0.6,2.8-2.8,2.4L131.3,44.8z"/>
<path class="st6" d="M134.3,39.6l1.7,2.2l-0.8,1.9l-2.2-2.5L134.3,39.6z"/>
<path class="st1" d="M133.1,116.2l0.7,3.6l-2.9,0.9l-0.7-3.6L133.1,116.2z"/>
<path class="st1" d="M109.9,119.5h3l-0.4,3.7h-3L109.9,119.5z"/>
<path class="st0" d="M100.5,34.2c4.3,11.2,4.8,23.5,5.4,26l15.8-2.8c0.4-15.2-3.3-23.5-4.4-25.5c-0.2-0.3-0.4-0.5-0.7-0.5
	c-0.4,0-1.1-0.1-1.9-0.1c-0.4,0-0.9,0-1.4,0c-0.3,0-0.6,0-0.8,0c-2.3,0.3-4.5,0.7-6.7,1.2c-0.4,0.1-0.9,0.2-1.3,0.3l-1.1,0.3
	L100.5,34.2z"/>
<path class="st1" d="M102.1,38.7c0.5,1.8,1,3.5,1.3,5.2c0.5-3.1,0.7-6.2,0.7-6.2L102.1,38.7z"/>
<path class="st6" d="M105.1,24.9c0.8,2.1,1.9,6.1,0.6,7.8c1.6,1.3,3.6,2,5.7,1.7c2.6-0.4,1.8-2.1,1-2.9c-2.5-0.2-2.8-2-2.6-3.8
	L105.1,24.9z"/>
<path class="st7" d="M113.1,35.1c1-0.9,1.1-2.4,0.2-3.4c-0.1-0.1-0.2-0.2-0.4-0.3c-0.3,0-0.6,0-0.9,0.1c0,0,2.5,2.1-0.3,2.9
	c-2.1-0.2-4.2-0.8-6-1.9c-0.2,0-0.4,0.1-0.6,0.3c0.8,1.6,6,2.8,6,2.8c0.1-0.3,0.1-0.5,0.3-0.7c0.5,1.5,0.9,3,1.2,4.5
	c0.3,0,1-0.2,1-0.2c-0.3-1.5-0.7-3-1.1-4.5C112.7,34.7,112.9,34.9,113.1,35.1z"/>
<path class="st1" d="M107,26l2.8,1.7c0,0.4,0,0.8,0,1.3c-1.1,0-2.2-0.7-2.6-1.8C107,26.8,107,26.4,107,26z"/>
<path class="st5" d="M110.7,21.8c2.2-0.8,2-6.6-1.4-5.7c-2.3,0.6-2,1.2-1.6,2.8S109.3,22.4,110.7,21.8z"/>
<path class="st6" d="M104.3,21.6c0.7,3,0.9,4.7,2.7,6c2.6,1.9,6-0.1,6.2-3.2c0.2-2.8-1-7.1-4-7.8c-2.2-0.5-4.4,0.9-4.9,3.2
	C104.1,20.3,104.1,21,104.3,21.6z"/>
<path class="st5" d="M104.7,23.7c2.2-0.8,1.3-6.5-2-5.6c-2.3,0.6-1.9,1.9-1.2,3.2S103.3,24.2,104.7,23.7z"/>
<path class="st5" d="M109.7,13.8c-0.6-1.5-3.5-2.6-4.1,0.3c-2.5-0.2-8.4,4.8-1.4,4.8c3.5,0.9,8.7-1.1,8.8-3.1S110.6,12.9,109.7,13.8
	z"/>
<path class="st6" d="M103.5,24.4c0.4,0.6,1,1,1.6,1.1c0.8,0.2,1.2-0.7,0.9-1.5s-1.1-1.8-1.9-1.5c-0.6,0.2-1,0.8-0.8,1.4
	C103.3,24.2,103.4,24.3,103.5,24.4z"/>
<path class="st5" d="M134.7,118.8l-4.8,1.6c0,0-4.8-17.7-6.6-27.1c-0.6-2.8-2.1-6.5-3.5-10.7c-1.7-5.2-3.8-10.9-5.4-15.4
	c-1.8-4.7-3.1-8-3.1-8l10.3-1.8c0,0,8.9,24.6,10.1,33.8C133,100.8,134.7,118.8,134.7,118.8z"/>
<path class="st1" d="M119.8,82.6c-1.7-5.2-3.8-10.9-5.4-15.4l0.8-2.5C118.2,67.6,119.8,77.3,119.8,82.6z"/>
<path class="st5" d="M116.7,58.3c0,0,0.9,26.3,0.5,35.2c-0.4,9.8-3.3,28.9-3.3,28.9h-5.5c0,0,1.2-17.3,1.1-26.9
	c-0.2-10.9-3.6-35.3-3.6-35.3L116.7,58.3z"/>
<path class="st0" d="M114.5,122.5h-6.4v-1.9l7.2-0.2L114.5,122.5z"/>
<path class="st0" d="M135.4,118.7l-5.7,1.9l-0.6-1.9l6.4-2.2L135.4,118.7z"/>
<path class="st5" d="M108.8,21.6c0,0.2,0.2,0.4,0.4,0.4s0.3-0.2,0.2-0.5s-0.2-0.4-0.4-0.4S108.8,21.4,108.8,21.6z"/>
<path class="st5" d="M111.5,21.1c0,0.2,0.2,0.4,0.4,0.4s0.3-0.2,0.2-0.5s-0.2-0.4-0.4-0.4S111.5,20.9,111.5,21.1z"/>
<path class="st8" d="M110.7,21.4c0.4,0.7,0.9,1.3,1.5,1.9c-0.3,0.3-0.7,0.4-1.1,0.4L110.7,21.4z"/>
<path class="st5" d="M110.2,24.5c-0.6,0-1.1-0.2-1.5-0.5c0,0,0-0.1,0-0.1c0,0,0,0,0,0c0,0,0.1,0,0.1,0c0.5,0.4,1.1,0.6,1.7,0.5
	c0,0,0.1,0,0.1,0c0,0,0,0.1,0,0.1c0,0,0,0-0.1,0C110.4,24.5,110.3,24.5,110.2,24.5z"/>
<path class="st5" d="M107.8,20.9L107.8,20.9c-0.1,0-0.2-0.1-0.2-0.2c0,0,0,0,0,0c0.2-0.4,0.6-0.7,1-0.8c0.1,0,0.2,0,0.2,0.1
	s0,0.1-0.1,0.1C108.4,20.2,108.1,20.5,107.8,20.9C107.9,20.8,107.9,20.9,107.8,20.9z"/>
<path class="st5" d="M112.5,20c0,0-0.1,0-0.1-0.1c-0.2-0.3-0.5-0.5-0.9-0.5c-0.1,0-0.1-0.1-0.1-0.2c0-0.1,0.1-0.1,0.1-0.1
	c0.5,0,0.9,0.2,1.2,0.6c0,0.1,0,0.2,0,0.2S112.5,20,112.5,20z"/>
<path class="st0" d="M113.4,126.7c-0.3,0-0.5-0.1-0.8-0.1c0,0,0,0,0-0.1s0-0.1,0-0.1s1-0.7,1.4-0.5c0,0,0.1,0.1,0.1,0.2
	c0,0.1,0,0.3-0.2,0.4C113.8,126.7,113.7,126.7,113.4,126.7z M112.8,126.5c0.3,0.1,0.7,0.1,1,0c0.1-0.1,0.1-0.2,0.1-0.3
	c0,0,0-0.1,0-0.1C113.7,126,113.2,126.3,112.8,126.5z"/>
<path class="st0" d="M112.7,126.6L112.7,126.6C112.7,126.6,112.7,126.6,112.7,126.6c0-0.5,0.1-0.9,0.4-1.3c0.1-0.1,0.2-0.1,0.3-0.1
	c0.2,0,0.2,0.1,0.2,0.2C113.6,125.8,113.1,126.5,112.7,126.6L112.7,126.6z M113.2,125.4c-0.1,0-0.1,0-0.1,0.1
	c-0.2,0.3-0.3,0.6-0.3,1c0.3-0.2,0.7-0.8,0.6-1C113.3,125.5,113.3,125.4,113.2,125.4z"/>
<path class="st0" d="M134.8,123.1C134.8,123.1,134.8,123.1,134.8,123.1l-0.1-0.1c0.1-0.1,1.1-1.1,1.5-1c0.1,0,0.1,0.1,0.2,0.2
	c0.1,0.1,0.1,0.3,0,0.4C136.1,122.9,135.3,123.1,134.8,123.1z M136.2,122.1c-0.4,0.2-0.8,0.4-1.2,0.8c0.7-0.1,1.1-0.3,1.2-0.5
	C136.3,122.3,136.3,122.2,136.2,122.1C136.2,122.2,136.2,122.2,136.2,122.1L136.2,122.1z"/>
<path class="st0" d="M134.8,123.1C134.8,123.1,134.8,123.1,134.8,123.1c-0.2-0.4-0.2-0.9,0-1.3c0.1-0.1,0.2-0.2,0.3-0.2
	c0.2,0,0.3,0,0.3,0.1C135.6,122.1,135.1,122.9,134.8,123.1C134.8,123.1,134.8,123.1,134.8,123.1z M135.3,121.7L135.3,121.7
	c-0.2,0-0.3,0.1-0.3,0.2c-0.1,0.3-0.2,0.7-0.1,1C135.2,122.5,135.5,121.9,135.3,121.7C135.3,121.7,135.3,121.7,135.3,121.7z"/>
<path class="st6" d="M104.2,38c-0.4,0.9-0.7,1.8-1.1,2.7s-0.7,1.9-1,2.8s-0.7,1.9-0.9,2.8s-0.6,1.9-0.8,2.8
	c-0.1,0.4-0.2,0.9-0.3,1.4l-0.1,0.3l0,0c0-0.1-0.1-0.2-0.2-0.3c-0.1-0.1,0,0.2,0.3,0.3s0.7,0.3,1.1,0.5c1.8,0.5,3.7,0.8,5.6,1
	l0.1,2.3c-1,0.2-2.1,0.3-3.2,0.4c-1.1,0-2.2,0-3.3-0.1c-0.6-0.1-1.2-0.2-1.8-0.5c-0.4-0.1-0.7-0.3-1-0.5c-0.4-0.3-0.8-0.6-1.1-1
	c-0.4-0.5-0.6-1.1-0.7-1.8c0-0.1,0-0.3,0-0.5v-0.3v-0.4c0-0.6,0.1-1.1,0.2-1.7c0.4-2.1,0.9-4.2,1.6-6.2c0.3-1,0.7-2,1.1-3
	s0.8-2,1.2-3L104.2,38z"/>
<path class="st4" d="M100.5,34.2c-1.6,0.8-2.6,6-2.6,6l4.5,2.9c0,0,1.2-2.4,2-4.3C106.2,35,103.6,32.5,100.5,34.2z"/>
<path class="st6" d="M106.4,52.2l3-0.2l-1.3,2.9c0,0-2.8-0.2-2.4-1.6L106.4,52.2z"/>
<path class="st6" d="M111.4,54.1l-1.5,1.9l-1.8-1l1.3-2.9L111.4,54.1z"/>
</svg>
