<?xml version="1.0" encoding="utf-8"?>
<!-- Generator: Adobe Illustrator 25.2.0, SVG Export Plug-In . SVG Version: 6.00 Build 0)  -->
<svg version="1.1" id="Layer_1" xmlns="http://www.w3.org/2000/svg" xmlns:xlink="http://www.w3.org/1999/xlink" x="0px" y="0px"
	 viewBox="0 0 86.5 86.5" style="enable-background:new 0 0 86.5 86.5;" xml:space="preserve">
<style type="text/css">
	.st0{fill:#5233C1;}
	.st1{fill:#7C4DFF;}
	.st2{fill:#AA0505;}
	.st3{fill:#FF1200;}
	.st4{fill:#977BFF;}
	.st5{fill:#FFFFFF;}
	.st6{fill:#B97DFF;}
	.st7{fill:#FF8515;}
	.st8{fill:#1DFF75;}
	.st9{fill:#FFDB7F;}
	.st10{fill:#EB840A;}
	.st11{clip-path:url(#SVGID_2_);}
	.st12{fill:#00F1F1;}
	.st13{fill:#FF9885;}
</style>
<path class="st0" d="M16.9,10.6h53.7c3.3,0,6,2.7,6,6v53.7c0,3.3-2.7,6-6,6H16.9c-3.3,0-6-2.7-6-6V16.6
	C10.9,13.3,13.6,10.6,16.9,10.6z"/>
<path class="st1" d="M11.2,16.3L64,6.2c3.3-0.6,6.4,1.5,7,4.8l10.1,52.8c0.6,3.3-1.5,6.4-4.8,7L23.6,80.8c-3.3,0.6-6.4-1.5-7-4.8
	L6.4,23.3C5.8,20,8,16.9,11.2,16.3z"/>
<circle class="st0" cx="43.8" cy="43.5" r="18.4"/>
<path class="st2" d="M46.6,35.5c0.3-1.8-0.9-3.4-2.7-3.7c1.1-0.5,2.3-0.4,3.3,0.2c1.8,1,2.4,3.2,1.3,5c0,0,0,0,0,0.1
	c-1.7,2.8-5.9,2.6-5.9,2.6C43.2,39.5,46.2,38.3,46.6,35.5z"/>
<path class="st3" d="M42.1,33.3c1-1.8,3.2-2.4,5-1.4c0,0,0.1,0,0.1,0.1c1.4,0.8,2.1,2.3,1.8,3.9c-0.8-0.4-1.7-0.6-2.6-0.3
	c-2.5,0.7-3.5,3.6-3.7,4.3h-0.1C42.6,39.9,40.5,36.2,42.1,33.3z"/>
<path class="st2" d="M41.8,33.9c-1,2.8,0.9,5.8,0.9,5.8h0.1c0.2-0.6,0.5-1.3,0.8-1.8C43.4,36.5,42.8,35.1,41.8,33.9z"/>
<path class="st2" d="M37,38c-1.1-1.4-0.8-3.4,0.5-4.6c-1.2,0.1-2.2,0.8-2.8,1.8c-1,1.7-0.5,4,1.2,5c0,0,0,0,0.1,0
	c2.8,1.7,6.4-0.6,6.4-0.6C41.9,39.9,38.6,40.3,37,38z"/>
<path class="st3" d="M44.4,39.6c0.3,1-0.4,2-1.4,2.3c-1,0.3-2-0.4-2.3-1.4c-0.3-1,0.4-2,1.4-2.3C43.1,37.9,44.1,38.5,44.4,39.6
	C44.4,39.5,44.4,39.6,44.4,39.6z"/>
<path class="st4" d="M49.8,38.2l-14.4,3.7l3.7,14.4l14.4-3.7L49.8,38.2z"/>
<path class="st4" d="M49.7,38.2l-14.2,3.6c-0.5,0.1-0.9,0.6-0.8,1.2c0,0,0,0.1,0,0.1l1.1,4.3L52,43.3L50.9,39
	c-0.1-0.5-0.6-0.9-1.1-0.8C49.7,38.2,49.7,38.2,49.7,38.2z"/>
<path class="st0" d="M51.1,43.5l-14.4,3.7l0.2,0.9l14.4-3.7L51.1,43.5z"/>
<path class="st3" d="M44.5,39.5l-3.7,0.9l3.7,14.4l3.7-0.9L44.5,39.5z"/>
<path class="st3" d="M39.7,34c-1.7-1-4-0.5-5,1.2c0,0,0,0,0,0.1c-0.8,1.3-0.6,3,0.4,4.2c0.5-0.8,1.2-1.3,2.1-1.5
	c2.5-0.7,4.8,1.5,5.4,2h0.1C42.5,40,42.6,35.7,39.7,34z"/>
<path class="st5" d="M38.5,24.6c-0.2,0-0.4-0.2-0.5-0.4l-1.2-4.5c-0.1-0.3,0.1-0.6,0.4-0.6s0.6,0.1,0.6,0.4L39,24
	c0.1,0.3-0.1,0.5-0.4,0.6C38.6,24.6,38.6,24.6,38.5,24.6z"/>
<path class="st5" d="M50.6,67.9c-0.2,0-0.4-0.2-0.5-0.4L49,63c-0.1-0.3,0.1-0.5,0.4-0.6c0,0,0,0,0,0c0.3-0.1,0.5,0.1,0.6,0.4
	l1.2,4.5c0.1,0.3-0.1,0.5-0.4,0.6L50.6,67.9z"/>
<path class="st6" d="M48.8,24.6h-0.1c-0.3-0.1-0.4-0.3-0.3-0.6l1.2-4.5c0.1-0.3,0.4-0.4,0.6-0.4c0.3,0.1,0.4,0.4,0.3,0.6l-1.2,4.4
	C49.3,24.4,49.1,24.6,48.8,24.6z"/>
<path class="st6" d="M36.3,67.9h-0.1c-0.3-0.1-0.4-0.4-0.3-0.6l0,0l1.2-4.5c0.1-0.3,0.3-0.4,0.6-0.3c0,0,0,0,0,0
	c0.3,0.1,0.4,0.3,0.4,0.6c0,0,0,0,0,0l-1.2,4.5C36.7,67.7,36.5,67.9,36.3,67.9z"/>
<path class="st5" d="M57,28.9c-0.1,0-0.3,0-0.3-0.1c-0.2-0.2-0.2-0.5,0-0.7c0,0,0,0,0,0l4.3-4.3c0.2-0.2,0.5-0.2,0.7,0c0,0,0,0,0,0
	c0.2,0.2,0.2,0.5,0,0.7l-4.3,4.3C57.3,28.8,57.1,28.9,57,28.9z"/>
<path class="st5" d="M24.1,61.4c-0.1,0-0.3-0.1-0.4-0.2c-0.2-0.2-0.2-0.5,0-0.7l4.3-4.3c0.2-0.2,0.5-0.2,0.7,0
	c0.2,0.2,0.2,0.5,0,0.7c0,0,0,0,0,0l-4.3,4.3C24.4,61.3,24.3,61.4,24.1,61.4z"/>
<path class="st6" d="M63.1,37.3c-0.3,0-0.5-0.2-0.6-0.4c0-0.3,0.2-0.5,0.4-0.6l4.5-1.2c0.3-0.1,0.5,0.1,0.6,0.4
	c0.1,0.3-0.1,0.5-0.4,0.6c0,0,0,0,0,0l-4.5,1.2L63.1,37.3z"/>
<path class="st6" d="M19.2,48.6c-0.2,0-0.4-0.2-0.5-0.4c-0.1-0.3,0.1-0.5,0.4-0.6c0,0,0,0,0,0l4.5-1.2c0.3-0.1,0.5,0.1,0.6,0.3
	c0,0,0,0,0,0c0.1,0.3-0.1,0.5-0.4,0.6l-4.5,1.2L19.2,48.6z"/>
<path class="st5" d="M24.5,37.3h-0.1l-6-1.6c-0.3-0.1-0.4-0.4-0.4-0.6c0.1-0.3,0.4-0.4,0.6-0.4l6,1.6c0.3,0.1,0.4,0.3,0.4,0.6
	c0,0,0,0.1,0,0.1C24.9,37.2,24.7,37.3,24.5,37.3z"/>
<path class="st5" d="M69.9,49.6c0,0-0.1,0-0.1,0l-6-1.6c-0.3-0.1-0.4-0.3-0.3-0.6c0.1-0.3,0.3-0.5,0.6-0.4c0,0,0,0,0,0l6,1.6
	c0.3,0,0.5,0.3,0.4,0.6C70.4,49.5,70.1,49.7,69.9,49.6L69.9,49.6z"/>
<path class="st6" d="M30,29c-0.1,0-0.3-0.1-0.4-0.1l-3.2-3.3c-0.2-0.2-0.2-0.5,0-0.7s0.5-0.2,0.7,0c0,0,0,0,0.1,0.1l3.2,3.3
	c0.2,0.2,0.2,0.5,0,0.7c0,0,0,0,0,0C30.3,29,30.1,29,30,29z"/>
<path class="st6" d="M61.4,61.3c-0.1,0-0.3-0.1-0.4-0.2l-3.2-3.3c-0.2-0.2-0.2-0.5,0-0.7c0,0,0,0,0,0c0.2-0.2,0.5-0.2,0.7,0
	c0,0,0,0,0,0l3.2,3.3c0.2,0.2,0.2,0.5,0,0.7c0,0,0,0,0,0C61.7,61.3,61.6,61.3,61.4,61.3z"/>
<path class="st7" d="M75.1,58.8L74,57.3l-1.4,0.9l-1.1-1.4L70,57.5l-1-0.9l-0.5,0.5l1.3,1.2l1.4-0.7l1.2,1.5l1.4-0.9l1,1.4
	L75.1,58.8z"/>
<path class="st8" d="M28.5,17.3l0.8-0.1l0.3,1.2h1.1l0.4,0.9l0.5-0.2L31,18h-1.1l-0.3-1.3l-1.2,0.1L28.5,17.3z"/>
<path class="st9" d="M25.2,73.2l1,1c0.1,0.1,0.2,0.1,0.2,0c0,0,0.1-0.1,0.1-0.1l0.2-1.4l1.2-0.6C28,72.1,28,72,28,71.9
	c0,0,0-0.1-0.1-0.1l-1.2-0.6l-0.2-1.4c0-0.1-0.1-0.2-0.2-0.1c0,0-0.1,0-0.1,0.1l-0.9,1l-1.4-0.2c-0.1,0-0.2,0.1-0.2,0.2
	c0,0,0,0.1,0,0.1l0.6,1.2l-0.6,1.2c0,0.1,0,0.2,0.1,0.2c0,0,0.1,0,0.1,0L25.2,73.2z"/>
<path class="st10" d="M65.1,29.5l0.6,0.5c0,0,0.1,0,0.1,0c0,0,0,0,0-0.1l0.1-0.8l0.7-0.4c0,0,0.1-0.1,0-0.1c0,0,0,0,0,0l-0.7-0.3
	l-0.1-0.8c0,0-0.1-0.1-0.1,0c0,0,0,0,0,0l-0.5,0.6L64.3,28c0,0-0.1,0-0.1,0.1c0,0,0,0.1,0,0.1l0.4,0.7l-0.3,0.7c0,0.1,0,0.1,0.1,0.1
	c0,0,0,0,0,0L65.1,29.5z"/>
<g>
	<defs>
		<rect id="SVGID_1_" x="13.4" y="26.3" transform="matrix(0.9683 -0.2499 0.2499 0.9683 -6.2479 4.3179)" width="0.9" height="1"/>
	</defs>
	<clipPath id="SVGID_2_">
		<use xlink:href="#SVGID_1_"  style="overflow:visible;"/>
	</clipPath>
	<g class="st11">
		<path class="st12" d="M13.4,26.9c0.1,0.3,0.3,0.4,0.6,0.3c0.3-0.1,0.4-0.3,0.3-0.6c-0.1-0.3-0.3-0.4-0.6-0.3c0,0,0,0,0,0
			C13.5,26.4,13.4,26.6,13.4,26.9C13.4,26.9,13.4,26.9,13.4,26.9z"/>
	</g>
</g>
<path class="st6" d="M58.2,17.6c-0.1,0-0.2-0.1-0.2-0.2c0,0,0,0,0,0c0-1.1-0.9-2-2-2.1l0,0c-0.1,0-0.2-0.1-0.2-0.2c0,0,0,0,0,0
	c0-0.1,0.1-0.2,0.2-0.2c0,0,0,0,0,0l0,0c1.1,0,2-0.9,2-2.1c0-0.1,0.1-0.2,0.2-0.2c0.1,0,0.2,0.1,0.2,0.2v0.1c0,1.1,0.9,2.1,2.1,2.1
	l0,0c0.1,0,0.2,0.1,0.2,0.2c0,0,0,0,0,0c0,0.1-0.1,0.2-0.2,0.2c-1.1,0-2.1,0.9-2.1,2.1v0C58.4,17.5,58.3,17.6,58.2,17.6z M57,15.1
	c0.6,0.3,1,0.7,1.2,1.2c0.3-0.6,0.7-1,1.2-1.2c-0.6-0.2-1-0.7-1.2-1.2C58,14.4,57.6,14.8,57,15.1z"/>
<path class="st13" d="M58.7,67.7h-0.8c-0.2,0-0.4-0.2-0.4-0.4s0.2-0.4,0.4-0.4h0.8c0.2,0,0.4,0.2,0.4,0.4S58.9,67.7,58.7,67.7z"/>
<path class="st13" d="M61.7,67.7h-0.9c-0.2,0-0.4-0.2-0.4-0.4s0.2-0.4,0.4-0.4l0,0h0.9c0.2,0,0.4,0.2,0.4,0.4S61.9,67.7,61.7,67.7z"
	/>
<path class="st13" d="M59.8,69.7c-0.2,0-0.4-0.2-0.4-0.4v-0.8c0-0.2,0.2-0.4,0.4-0.4s0.4,0.2,0.4,0.4v0.8
	C60.1,69.5,60,69.6,59.8,69.7z"/>
<path class="st13" d="M59.8,66.8c-0.2,0-0.4-0.2-0.4-0.4l0,0v-0.9c0-0.2,0.2-0.4,0.4-0.4s0.4,0.2,0.4,0.4l0,0v0.9
	C60.1,66.6,60,66.8,59.8,66.8L59.8,66.8z"/>
</svg>
