<?xml version="1.0" encoding="utf-8"?>
<!-- Generator: Adobe Illustrator 25.2.0, SVG Export Plug-In . SVG Version: 6.00 Build 0)  -->
<svg version="1.1" id="Layer_1" xmlns="http://www.w3.org/2000/svg" xmlns:xlink="http://www.w3.org/1999/xlink" x="0px" y="0px"
	 viewBox="0 0 216 216" style="enable-background:new 0 0 216 216;" xml:space="preserve">
<style type="text/css">
	.st0{fill:#7C4DFF;}
	.st1{fill:#666666;}
	.st2{fill:#FFFFFF;}
</style>
<g id="OBJECTS">
	<path class="st0" d="M140.4,10.2l51,53.1v132.6c0,4.4-3.6,8-8,8H62.7c-4.4,0-8-3.6-8-8v-36.3l-0.1-8.2V18.2c0-4.4,3.6-8,8-8
		L140.4,10.2z M142.2,2H62.6c-8.9,0-16.1,7.3-16.1,16.2v141.3h0.1v36.3c0,8.9,7.2,16.1,16.1,16.1h120.8c8.9,0,16.1-7.2,16.1-16.1
		V61.7c0-1-0.4-2-1.1-2.8L145.1,3.2C144.4,2.5,143.3,2,142.2,2z"/>
	<path class="st1" d="M119.7,104.2c-1.2-1.6-2.8-2.7-4.7-3.2c-2.6-0.4-5.2-0.6-7.8-0.5H96.7v32.7h6.6v-12.3h4.3
		c2.3,0,4.6-0.1,6.8-0.5c1.2-0.3,2.4-0.8,3.4-1.6c1.2-0.8,2.1-1.9,2.7-3.2c0.8-1.6,1.1-3.3,1.1-5
		C121.8,108.5,121.1,106.1,119.7,104.2z M114.1,113.2c-0.5,0.7-1.2,1.3-2,1.6c-1.7,0.4-3.5,0.6-5.2,0.5h-3.6v-9.3h3.2
		c1.6,0,3.2,0,4.7,0.2c1,0.2,1.9,0.7,2.6,1.4c0.7,0.8,1.1,1.9,1,3C114.8,111.6,114.6,112.5,114.1,113.2L114.1,113.2z"/>
	<path class="st1" d="M153.2,109.5c-0.7-2-1.7-3.8-3.1-5.3c-1.3-1.4-3-2.5-4.9-3c-2-0.5-4.1-0.7-6.1-0.6H127v32.7h12.4
		c2,0.1,3.9-0.2,5.8-0.7c1.7-0.5,3.3-1.4,4.6-2.6c1.6-1.6,2.8-3.6,3.5-5.8c0.7-2.2,1-4.6,1-6.9C154.4,114.6,154,112,153.2,109.5z
		 M146.8,122.9c-0.3,1.2-0.9,2.2-1.7,3.1c-0.8,0.7-1.7,1.1-2.6,1.4c-1.3,0.2-2.7,0.3-4.1,0.3h-4.7v-21.6h2.9c1.8-0.1,3.6,0,5.4,0.3
		c1.1,0.2,2.2,0.7,3,1.5c0.9,0.9,1.5,2,1.9,3.2c0.5,1.9,0.8,3.8,0.7,5.8C147.6,118.9,147.3,120.9,146.8,122.9L146.8,122.9z"/>
	<path class="st1" d="M182.2,106.1v-5.5h-22.3v32.7h6.6v-14h13.6v-5.5h-13.6v-7.7L182.2,106.1z"/>
	<path class="st0" d="M135.1,24l43.8,45.6h-43.8V24z"/>
	<path class="st2" d="M47.1,151.9c-20,0.1-36.3-16.1-36.4-36.2s16.1-36.3,36.2-36.4c20-0.1,36.3,16.1,36.4,36.2c0,0,0,0.1,0,0.1
		C83.2,135.6,67.1,151.8,47.1,151.9z"/>
	<path class="st0" d="M47.1,83.2c17.9,0,32.5,14.4,32.5,32.4c0,17.9-14.4,32.5-32.4,32.5c-17.9,0-32.5-14.4-32.5-32.4
		c0,0,0-0.1,0-0.1C14.7,97.7,29.2,83.2,47.1,83.2z M47.1,75.4c-22.2-0.1-40.2,17.9-40.3,40s17.9,40.2,40,40.3
		c22.2,0.1,40.2-17.9,40.3-40c0,0,0-0.1,0-0.1C87.1,93.4,69.2,75.5,47.1,75.4z"/>
	<path class="st0" d="M67.2,115.2c-1.1-1-2.8-1-3.8,0l-6.2,6.2l-7.5,7.5v-27c0-2,0.1-4,0-6.1v-0.1c0.1-1.5-1-2.8-2.5-2.9
		s-2.8,1-2.9,2.5c0,0.1,0,0.2,0,0.3V129l-1.6-1.6l-9.7-9.8l-2.3-2.3c-1.1-1-2.8-1-3.8,0c-1,1.1-1,2.8,0,3.8l6.1,6.2
		c3.3,3.3,6.5,6.5,9.8,9.8l2.3,2.3c0.2,0.2,0.4,0.3,0.6,0.4c0.4,0.2,0.8,0.4,1.3,0.3h0.2c0.6,0,1.2-0.3,1.7-0.8l6.2-6.2l9.8-9.8
		c0.8-0.8,1.5-1.5,2.3-2.3C68.2,118.1,68.2,116.3,67.2,115.2z"/>
</g>
</svg>
