<svg id="Layer_1" data-name="Layer 1" xmlns="http://www.w3.org/2000/svg" xmlns:xlink="http://www.w3.org/1999/xlink" viewBox="0 0 216 216"><defs><style>.cls-1{fill:none;}.cls-2{clip-path:url(#clip-path);}.cls-3,.cls-4{fill:#1058ff;}.cls-4{fill-rule:evenodd;}.cls-5{fill:#fff;}</style><clipPath id="clip-path"><rect class="cls-1" x="6.9" y="17.59" width="202.2" height="180.83"/></clipPath></defs><g class="cls-2"><path class="cls-3" d="M138.88,140.29c-.21-13,14.54-16.82,20.73-17.77v20.83L198.21,105l-38.4-38v21c-5.78.14-33.91,2.18-41.25,28-.21.62-4.22,14.7,3.06,26.75,4.68,7.69,12.84,12.66,24.33,14.91a46,46,0,0,0,7.74.68c1.7.07,3.81.2,6.6.34l.13-2C160.22,156.41,139.08,154.31,138.88,140.29Z"/><path class="cls-3" d="M44.79,57.9a39.3,39.3,0,1,0,39.3-39.25A39.35,39.35,0,0,0,44.79,57.9Z"/><path class="cls-3" d="M84.09,98.35A40.45,40.45,0,1,1,124.58,57.9,40.52,40.52,0,0,1,84.09,98.35Zm0-78.5A38.05,38.05,0,1,0,122.18,57.9,38.11,38.11,0,0,0,84.09,19.85Z"/><path class="cls-4" d="M158,164.31c-46.21-1.55-47.16-34-47.16-34-.52-9.3-.22-15.15,1-18.25,1.7-5.22.22-5.78-1.62-5.78H68.19a80.32,80.32,0,0,0-29.13,7.33,56.73,56.73,0,0,0-21,16.35C11.46,138.37,7.78,148.73,7,160.64v22.2c-.14,1.27-.58,6.91,3.54,11.14,2.94,3,7.13,4.36,12.21,4.43H146c1.4,0,6.7-.2,10.82-3.59,3.24-2.68,4.71-6.49,4.71-11V167.69A3.48,3.48,0,0,0,158,164.31Z"/><path class="cls-5" d="M41.85,155.07a3.47,3.47,0,0,0-3.6,3.32V195a3.62,3.62,0,0,0,7.21,0V158.39A3.47,3.47,0,0,0,41.85,155.07Z"/><path class="cls-5" d="M125.22,159.79a3.46,3.46,0,0,0-3.61,3.25v32.13a3.63,3.63,0,0,0,7.21,0V163A3.46,3.46,0,0,0,125.22,159.79Z"/></g></svg>