<?xml version="1.0" encoding="utf-8"?>
<!-- Generator: Adobe Illustrator 25.2.0, SVG Export Plug-In . SVG Version: 6.00 Build 0)  -->
<svg version="1.1" id="Layer_1" xmlns="http://www.w3.org/2000/svg" xmlns:xlink="http://www.w3.org/1999/xlink" x="0px" y="0px"
	 viewBox="0 0 216 216" style="enable-background:new 0 0 216 216;" xml:space="preserve">
<style type="text/css">
	.st0{fill:#7C4DFF;}
	.st1{fill:#666666;}
</style>
<path class="st0" d="M73,129.9c6,9.8,11.6,19.1,11.6,31.8c0,2.2,1.7,3.9,3.9,3.9h39c2.1,0,3.9-1.7,3.9-3.9c0,0,0,0,0,0
	c0-12.6,5.6-21.9,11.6-31.8c5.8-9.5,11.7-19.3,11.7-31.9c0-25.8-20.9-46.8-46.8-46.7c-25.8,0-46.7,20.9-46.7,46.7
	C61.2,110.6,67.2,120.4,73,129.9z M108,59.1c21.5,0,39,17.5,39,39c0,10.4-5.2,18.9-10.6,27.8c-5.7,9.4-11.6,19.1-12.6,31.9H92.2
	c-1-12.8-6.9-22.5-12.6-31.9c-5.5-9-10.6-17.5-10.6-27.9C69,76.5,86.5,59.1,108,59.1z"/>
<path class="st0" d="M127.5,169.7h-39c-2.2,0-3.9,1.7-3.9,3.9c0,2.2,1.7,3.9,3.9,3.9h39c2.2,0,3.9-1.7,3.9-3.9
	C131.4,171.4,129.6,169.7,127.5,169.7L127.5,169.7z"/>
<path class="st0" d="M131.4,185.4c0-2.2-1.7-3.9-3.9-3.9h-39c-2.2,0-3.9,1.7-3.9,3.9c0,2.2,1.7,3.9,3.9,3.9h39
	C129.6,189.3,131.4,187.6,131.4,185.4z"/>
<path class="st0" d="M117.5,203.3l6.5-7.4c1.2-1.4,0.7-2.4-1.1-2.4H93.1c-1.8,0-2.3,1.1-1.1,2.4l6.5,7.4c0.3,0.3,0.7,0.5,1.1,0.5
	h16.9C116.8,203.8,117.2,203.6,117.5,203.3z"/>
<path class="st1" d="M18.9,101.3h25v-6.5h-25c-1.8-0.1-3.3,1.3-3.4,3.1c-0.1,1.8,1.3,3.3,3.1,3.4C18.6,101.3,18.7,101.3,18.9,101.3z
	"/>
<path class="st1" d="M172.1,101.3h25c1.8,0.1,3.3-1.3,3.4-3.1c0.1-1.8-1.3-3.3-3.1-3.4c-0.1,0-0.2,0-0.4,0h-25V101.3z"/>
<path class="st1" d="M60.3,141.1l-17.7,17.7c-1.2,1.3-1.1,3.4,0.2,4.6c1.2,1.1,3.1,1.1,4.4,0l17.7-17.7L60.3,141.1z"/>
<path class="st1" d="M173.3,37.3c1.2-1.3,1.2-3.4-0.1-4.6c-1.3-1.2-3.2-1.2-4.5,0l-17.7,17.7l4.6,4.6L173.3,37.3z"/>
<path class="st1" d="M111.2,8.9c-0.1-1.8-1.6-3.2-3.4-3.1c-1.7,0.1-3,1.4-3.1,3.1v25h6.5V8.9z"/>
<path class="st1" d="M60.3,55l4.6-4.6L47.3,32.7c-1.3-1.2-3.4-1.2-4.6,0.1c-1.2,1.3-1.2,3.2,0,4.5L60.3,55z"/>
<path class="st1" d="M173.3,163.4c1.3-1.3,1.3-3.3,0-4.6c0,0,0,0,0,0l-17.7-17.7l-4.6,4.6l17.7,17.7
	C170,164.6,172,164.6,173.3,163.4C173.3,163.4,173.3,163.4,173.3,163.4z"/>
</svg>
