<?xml version="1.0" encoding="utf-8"?>
<!-- Generator: Adobe Illustrator 25.2.0, SVG Export Plug-In . SVG Version: 6.00 Build 0)  -->
<svg version="1.1" id="Layer_1" xmlns="http://www.w3.org/2000/svg" xmlns:xlink="http://www.w3.org/1999/xlink" x="0px" y="0px"
	 viewBox="0 0 36 36" style="enable-background:new 0 0 36 36;" xml:space="preserve">
<style type="text/css">
	.st0{fill:#F1F1F1;}
	.st1{fill:#7C4DFF;}
	.st2{fill:#666666;}
</style>
<circle class="st0" cx="18.8" cy="18" r="15.5"/>
<path class="st1" d="M26.4,12.3H11c-0.5,0-1,0.3-1.3,0.6c-0.4,0.4-0.6,0.9-0.6,1.4V22c0,0.5,0.2,1,0.6,1.4C10,23.8,10.5,24,11,24
	h15.4c1.1,0,2-0.9,2-2v-7.7C28.3,13.2,27.5,12.3,26.4,12.3z M27.1,14.2L27.1,14.2l0,7.8c0,0.2-0.1,0.4-0.2,0.5
	c-0.1,0.1-0.3,0.2-0.5,0.2H11c-0.2,0-0.4-0.1-0.5-0.2c-0.1-0.1-0.2-0.3-0.2-0.5v-7.7c0-0.2,0.1-0.4,0.2-0.5c0.1-0.1,0.3-0.2,0.5-0.2
	c0,0,0,0,0,0h15.4C26.7,13.6,27,13.8,27.1,14.2z"/>
<path class="st2" d="M12.7,16.9c0.6,0,1.1-0.5,1.1-1.1c0-0.6-0.5-1.1-1.1-1.1s-1.1,0.5-1.1,1.1c0,0,0,0,0,0
	C11.6,16.4,12.1,16.9,12.7,16.9L12.7,16.9z"/>
<path class="st2" d="M24.7,21.5c0.6,0,1.1-0.5,1.1-1.1s-0.5-1.1-1.1-1.1s-1.1,0.5-1.1,1.1S24.1,21.5,24.7,21.5L24.7,21.5z"/>
<path class="st2" d="M18.7,15.5c-0.5,0-1,0.2-1.4,0.5c-0.9,0.6-1.3,1.6-1.1,2.6c0.2,1,1,1.8,2,2c1,0.2,2.1-0.2,2.6-1.1
	c0.8-1.2,0.5-2.8-0.7-3.6C19.7,15.7,19.2,15.5,18.7,15.5L18.7,15.5z M18.7,19.8c-0.9,0-1.7-0.8-1.7-1.7c0-0.1,0-0.2,0-0.3
	c0.1-0.3,0.2-0.6,0.5-0.9c0.2-0.2,0.5-0.4,0.9-0.5c0.3-0.1,0.7,0,1,0.1c0.3,0.1,0.6,0.3,0.8,0.6c0.2,0.3,0.3,0.6,0.3,0.9
	c0,0.2,0,0.4-0.1,0.6c-0.1,0.2-0.2,0.4-0.4,0.5c-0.2,0.2-0.3,0.3-0.5,0.4C19.2,19.7,18.9,19.8,18.7,19.8z"/>
</svg>
