<?xml version="1.0" encoding="utf-8"?>
<!-- Generator: Adobe Illustrator 25.2.0, SVG Export Plug-In . SVG Version: 6.00 Build 0)  -->
<svg version="1.1" id="Layer_1" xmlns="http://www.w3.org/2000/svg" xmlns:xlink="http://www.w3.org/1999/xlink" x="0px" y="0px"
	 viewBox="0 0 36 36" style="enable-background:new 0 0 36 36;" xml:space="preserve">
<style type="text/css">
	.st0{fill:#F1F1F1;}
	.st1{fill:#666666;}
	.st2{fill:#7C4DFF;}
</style>
<circle class="st0" cx="18" cy="18" r="15.5"/>
<path class="st1" d="M13.6,23.6h-0.7c-0.1,0-0.1-0.1-0.1-0.2v-6.2c0-0.1,0.1-0.2,0.1-0.2h0.7c0.1,0,0.1,0.1,0.1,0.2v6.2
	C13.7,23.5,13.6,23.6,13.6,23.6z"/>
<path class="st1" d="M16.7,23.6H16c-0.1,0-0.1-0.1-0.1-0.2v-6.2c0-0.1,0.1-0.2,0.1-0.2h0.7c0.1,0,0.1,0.1,0.1,0.2v6.2
	C16.8,23.5,16.8,23.6,16.7,23.6z"/>
<path class="st1" d="M19.8,23.6h-0.7c-0.1,0-0.1-0.1-0.1-0.2v-6.2c0-0.1,0.1-0.2,0.1-0.2h0.7c0.1,0,0.1,0.1,0.1,0.2v6.2
	C20,23.5,19.9,23.6,19.8,23.6z"/>
<path class="st1" d="M23,23.6h-0.7c-0.1,0-0.1-0.1-0.1-0.2v-6.2c0-0.1,0.1-0.2,0.1-0.2H23c0.1,0,0.1,0.1,0.1,0.2v6.2
	C23.1,23.5,23,23.6,23,23.6z"/>
<path class="st2" d="M26.4,22.8h-0.5v-5l0.1,0c0.7,0,1.2-0.6,1.2-1.2v-1c0-0.7-0.5-1.2-1.2-1.2h-0.1l-7.6-5.4
	c-0.2-0.1-0.4-0.1-0.6,0l-7.6,5.4H10h0c-0.7,0-1.2,0.6-1.2,1.2v1c0,0.7,0.6,1.2,1.2,1.2h0.1v5H9.6c-0.7,0-1.2,0.6-1.2,1.2v1.6h0.2
	h0.1h0h18.5h0.1h0.3l0-0.8l0-0.8C27.6,23.3,27.1,22.8,26.4,22.8z M12,14.2l6-4.3l6,4.3H12z M9.5,24C9.5,24,9.5,23.9,9.5,24
	c0.1-0.1,0.1-0.1,0.1-0.1l1,0c0.3,0,0.5-0.2,0.5-0.5v-6.1c0-0.3-0.2-0.5-0.5-0.5H10c-0.1,0-0.1-0.1-0.1-0.1v-1
	c0-0.1,0.1-0.2,0.1-0.2l0.3,0c0.1,0,0.1,0,0.2,0h14.9l0,0h0c0.2,0,0.2,0,0.3,0H26c0.1,0,0.1,0.1,0.1,0.1l0,1.1c0,0,0,0.1,0,0.1
	c0,0-0.1,0-0.1,0h-0.7c-0.3,0-0.5,0.2-0.5,0.5v6.2c0,0.3,0.2,0.5,0.5,0.5h1c0.1,0,0.1,0.1,0.1,0.2v0.5h-17V24z"/>
</svg>
