<?xml version="1.0" encoding="utf-8"?>
<!-- Generator: Adobe Illustrator 25.2.0, SVG Export Plug-In . SVG Version: 6.00 Build 0)  -->
<svg version="1.1" id="Layer_1" xmlns="http://www.w3.org/2000/svg" xmlns:xlink="http://www.w3.org/1999/xlink" x="0px" y="0px"
	 viewBox="0 0 36 36" style="enable-background:new 0 0 36 36;" xml:space="preserve">
<style type="text/css">
	.st0{fill:#F1F1F1;}
	.st1{fill:#7C4DFF;stroke:#7C4DFF;stroke-width:0.1;}
	.st2{fill:#666666;}
	.st3{fill:#666666;stroke:#666666;stroke-width:0.1;}
</style>
<g>
	<circle class="st0" cx="18.5" cy="17.8" r="15.5"/>
	<path class="st1" d="M13.8,16.7L13.8,16.7c0.1-0.4,0.2-0.7,0.5-0.9l8.9-6.2c0.3-0.2,0.7-0.3,1-0.2c0.4,0.1,0.7,0.3,0.9,0.6l0,0
		l3.1,4.5c0.2,0.3,0.3,0.7,0.2,1c-0.1,0.4-0.3,0.7-0.5,0.9L19,22.6c-0.3,0.2-0.7,0.3-1,0.2c-0.4-0.1-0.7-0.3-0.9-0.5L14,17.8
		C13.8,17.5,13.7,17.1,13.8,16.7z M27.6,14.9l-3.1-4.5c0-0.1-0.1-0.1-0.1-0.2c-0.1,0-0.1-0.1-0.2-0.1h-0.2c-0.1,0-0.1,0-0.2,0.1
		l-8.9,6.2c-0.1,0-0.1,0.1-0.2,0.1c0,0.1-0.1,0.1-0.1,0.2l0,0c0,0.1,0,0.1,0,0.2c0,0.1,0,0.1,0.1,0.2l3.1,4.5c0,0.1,0.1,0.1,0.1,0.2
		c0.1,0,0.1,0.1,0.2,0.1h0.2c0.1,0,0.1,0,0.2-0.1l8.9-6.2c0.1,0,0.1-0.1,0.2-0.1c0-0.1,0.1-0.1,0.1-0.2l0,0c0-0.1,0-0.1,0-0.2
		C27.7,15,27.6,15,27.6,14.9z"/>
	<path class="st2" d="M16.2,16.5c-0.3,0.2-0.4,0.7-0.2,1.1c0.2,0.4,0.7,0.5,1.1,0.3c0.4-0.2,0.5-0.7,0.3-1.1c0,0,0-0.1-0.1-0.1
		C17.1,16.4,16.6,16.3,16.2,16.5C16.3,16.5,16.2,16.5,16.2,16.5z"/>
	<path class="st2" d="M25.1,14.4c-0.4,0.2-0.5,0.7-0.2,1.1c0.2,0.4,0.7,0.5,1.1,0.2c0.4-0.2,0.5-0.7,0.2-1.1c0,0,0,0,0,0
		C26,14.3,25.6,14.1,25.1,14.4C25.2,14.3,25.2,14.4,25.1,14.4z"/>
	<path class="st2" d="M20.1,14.6c-0.6,0.4-0.9,1.2-0.7,1.9c0.1,0.3,0.3,0.7,0.5,0.9c0.2,0.3,0.6,0.4,0.9,0.5c0.4,0.1,0.7,0,1.1-0.1
		c0.3-0.1,0.6-0.4,0.8-0.7c0.2-0.3,0.3-0.6,0.3-1c0-0.4-0.1-0.7-0.4-1c-0.3-0.4-0.7-0.7-1.1-0.8C21,14.2,20.5,14.3,20.1,14.6z
		 M22.3,15.8c0,0.2,0,0.3,0,0.5c0,0.1-0.1,0.3-0.1,0.4c-0.1,0.1-0.2,0.2-0.4,0.4c-0.2,0.1-0.4,0.2-0.6,0.2c-0.2,0-0.5-0.1-0.6-0.2
		c-0.2-0.1-0.3-0.3-0.4-0.5C20,16.4,20,16.1,20,15.9c0.1-0.2,0.2-0.4,0.3-0.6c0.2-0.2,0.4-0.3,0.6-0.4c0.2,0,0.5,0,0.7,0.1
		c0.2,0.1,0.3,0.3,0.4,0.4L22.3,15.8z"/>
	<path class="st3" d="M20,20.8L20,20.8c0.6-0.5,1.6-0.4,2,0.3c0,0,0,0.1,0.1,0.1c0.4,0.7,0.3,1.5-0.3,2l0,0l-3.6,2.5l0,0
		C17.8,26,17.4,26.1,17,26l0,0l-8.1-1.3l-0.1-0.1l0,0c0,0-0.1-0.1-0.1-0.1c0,0,0-0.1,0-0.1c0-0.1,0-0.1,0-0.2l1-6.2l0.1-0.1l0,0
		l0.1-0.1c0,0,0.1,0,0.1,0h0.2l3.6,0.6l0,0l1.1-0.8l2.8,4l0,0l0.2,0.2c0.1,0.1,0.2,0.1,0.2,0.1c0.2,0.1,0.4,0,0.5-0.1l0,0L20,20.8z
		 M11.7,24.3L11.7,24.3L11.7,24.3l1-5.2v0h-0.1l-2.1-0.4h-0.1l0,0l-0.9,5.1l0,0V24l0,0L11.7,24.3z M21.2,22.6L21.2,22.6
		c0.3-0.2,0.4-0.5,0.2-0.8l0,0c-0.1-0.1-0.1-0.1-0.2-0.2c-0.1-0.1-0.1-0.1-0.2-0.1c-0.2-0.1-0.4,0-0.5,0.1l0,0l-1.4,0.9l0,0
		c-0.7,0.5-1.6,0.4-2.1-0.3c0,0,0,0,0-0.1l0,0l-2.2-3.2l0,0l-0.1-0.1l0,0l0,0l-0.5,0.4l0,0c0,0-0.1,0-0.1,0h-0.2l-0.3-0.1l0,0v0
		l-1,5.2l0,0v0.1l0,0l4.5,0.8h0.1c0.1,0,0.3-0.1,0.4-0.2L21.2,22.6z"/>
</g>
</svg>
