<?xml version="1.0" encoding="utf-8"?>
<!-- Generator: Adobe Illustrator 25.2.0, SVG Export Plug-In . SVG Version: 6.00 Build 0)  -->
<svg version="1.1" id="Layer_1" xmlns="http://www.w3.org/2000/svg" xmlns:xlink="http://www.w3.org/1999/xlink" x="0px" y="0px"
	 viewBox="0 0 36 36" style="enable-background:new 0 0 36 36;" xml:space="preserve">
<style type="text/css">
	.st0{fill:#F1F1F1;}
	.st1{clip-path:url(#SVGID_2_);}
	.st2{fill:#7C4DFF;}
	.st3{fill:#666666;}
</style>
<circle class="st0" cx="18" cy="18.8" r="15.5"/>
<g>
	<defs>
		<rect id="SVGID_1_" x="9.5" y="10.3" width="17" height="17"/>
	</defs>
	<clipPath id="SVGID_2_">
		<use xlink:href="#SVGID_1_"  style="overflow:visible;"/>
	</clipPath>
	<g class="st1">
		<path class="st2" d="M26.5,14.5c0-2.3-1.9-4.2-4.2-4.2h-8.6c-2.3,0-4.2,1.8-4.2,4.1c0,0,0,0,0,0.1v8.6c0,2.3,1.9,4.2,4.2,4.2h8.6
			c2.3,0,4.2-1.9,4.2-4.2V14.5z M25.2,23.1c0,1.6-1.3,2.9-2.9,2.9h-8.6c-1.6,0-2.9-1.3-2.9-2.9v-8.5c0-1.6,1.3-2.9,2.9-2.9h8.6
			c1.6,0,2.9,1.3,2.9,2.9L25.2,23.1z"/>
		<path class="st3" d="M22.5,16.1h-1.3l0.3-1.3c0.1-0.3-0.1-0.6-0.4-0.7c0,0-0.1,0-0.1,0c-0.2,0-0.3,0-0.5,0.1
			c-0.1,0.1-0.3,0.3-0.3,0.4l-0.3,1.5h-2.9l0.2-1.3c0-0.2,0-0.3-0.1-0.5c-0.1-0.1-0.2-0.2-0.4-0.3c-0.2,0-0.3,0-0.5,0.1
			c-0.1,0.2-0.2,0.4-0.2,0.5l-0.3,1.5h-1.5c-0.4,0-0.7,0.2-0.7,0.6s0.2,0.7,0.6,0.7c0.1,0,0.1,0,0.2,0h1.3L15,20.2h-1.6
			c-0.4,0-0.6,0.4-0.6,0.7c0,0.3,0.3,0.5,0.6,0.6h1.2l-0.1,1.2c-0.1,0.3,0.1,0.6,0.4,0.7c0,0,0,0,0.1,0h0.1c0.3,0,0.6-0.2,0.6-0.5
			l0.3-1.5h2.9l-0.3,1.3c-0.1,0.3,0.1,0.6,0.5,0.7c0,0,0,0,0,0h0.1c0.3,0,0.6-0.2,0.6-0.5l0.3-1.5h1.5c0.4,0,0.7-0.2,0.7-0.6
			c0-0.4-0.2-0.7-0.6-0.7c-0.1,0-0.1,0-0.2,0h-1.3v-0.1l0.6-2.8h1.5c0.3,0,0.6-0.2,0.7-0.5c0-0.3-0.2-0.6-0.5-0.7
			C22.6,16.1,22.6,16.1,22.5,16.1z M19.6,17.5l-0.6,2.8h-2.9l0.6-2.9L19.6,17.5L19.6,17.5z"/>
	</g>
</g>
</svg>
