<?xml version="1.0" encoding="utf-8"?>
<!-- Generator: Adobe Illustrator 25.2.0, SVG Export Plug-In . SVG Version: 6.00 Build 0)  -->
<svg version="1.1" id="Layer_1" xmlns="http://www.w3.org/2000/svg" xmlns:xlink="http://www.w3.org/1999/xlink" x="0px" y="0px"
	 viewBox="0 0 36.9 36.6" style="enable-background:new 0 0 36.9 36.6;" xml:space="preserve">
<style type="text/css">
	.st0{fill-rule:evenodd;clip-rule:evenodd;fill:#7C4DFF;}
</style>
<path class="st0" d="M33.7,10.4c0-0.3-0.1-0.7-0.2-1c-0.1-0.3-0.3-0.6-0.6-0.8c-0.2-0.2-0.5-0.4-0.8-0.5c-0.3-0.1-0.7-0.2-1-0.2H5.8
	c-0.3,0-0.7,0.1-1,0.2c-1,0.4-1.6,1.3-1.6,2.4v17c0,1.1,0.6,2,1.6,2.4c0.3,0.1,0.7,0.2,1,0.2h25.2c0.3,0,0.7-0.1,1-0.2
	c0.3-0.1,0.6-0.3,0.8-0.6c0.2-0.2,0.4-0.5,0.6-0.8c0.1-0.3,0.2-0.7,0.2-1L33.7,10.4z M31.4,10.4v17.1c0,0,0,0.1,0,0.1
	c0,0,0,0.1-0.1,0.1c0,0-0.1,0.1-0.1,0.1c0,0-0.1,0-0.1,0H5.8c0,0-0.1,0-0.1,0c0,0-0.1,0-0.1-0.1c0,0-0.1-0.1-0.1-0.1
	c0,0,0-0.1,0-0.1V10.4c0,0,0-0.1,0-0.1c0,0,0.1-0.1,0.1-0.1c0,0,0.1-0.1,0.1-0.1c0,0,0.1,0,0.1,0h25.2c0,0,0.1,0,0.1,0l0.1,0.1
	c0,0,0.1,0.1,0.1,0.1C31.4,10.2,31.4,10.3,31.4,10.4z M7.5,14.3l10.4,5.9c0.2,0.1,0.4,0.2,0.5,0.1c0.2,0,0.4-0.1,0.5-0.1l10.4-5.9
	c0.5-0.3,0.7-1,0.4-1.5c-0.1-0.3-0.4-0.4-0.7-0.5c-0.3-0.1-0.6,0-0.8,0.1L18.5,18l-9.8-5.6c-0.3-0.2-0.6-0.2-0.8-0.1
	c-0.3,0.1-0.5,0.3-0.7,0.5C7,13,6.9,13.3,7,13.6C7.1,13.9,7.3,14.1,7.5,14.3z"/>
</svg>
