<?xml version="1.0" encoding="utf-8"?>
<!-- Generator: Adobe Illustrator 25.2.0, SVG Export Plug-In . SVG Version: 6.00 Build 0)  -->
<svg version="1.1" id="Layer_1" xmlns="http://www.w3.org/2000/svg" xmlns:xlink="http://www.w3.org/1999/xlink" x="0px" y="0px"
	 viewBox="0 0 36 36" style="enable-background:new 0 0 36 36;" xml:space="preserve">
<style type="text/css">
	.st0{fill:#F1F1F1;}
	.st1{fill:#7C4DFF;}
	.st2{fill:#666666;}
</style>
<circle class="st0" cx="18" cy="17.8" r="15.5"/>
<path class="st1" d="M24.6,10.6h-0.7V9.3c0-0.4-0.3-0.6-0.6-0.6c-0.2,0-0.3,0.1-0.5,0.2c-0.1,0.1-0.2,0.3-0.2,0.5v1.3h-9.2V9.3
	c0-0.2-0.1-0.3-0.2-0.5c-0.1-0.1-0.3-0.2-0.5-0.2c-0.4,0-0.6,0.3-0.6,0.6v1.3h-0.7c-1.4,0-2.6,1.2-2.6,2.6v11.2
	c0,1.5,1.2,2.6,2.6,2.6c0,0,0,0,0,0h13.1c0.7,0,1.4-0.3,1.9-0.8c0.5-0.5,0.8-1.2,0.8-1.9V13.2c0-0.7-0.3-1.4-0.8-1.9
	C25.9,10.8,25.3,10.6,24.6,10.6z M25.9,24.3c0,0.7-0.6,1.3-1.3,1.3H11.4c-0.7,0-1.3-0.6-1.3-1.3v-7.9h15.7V24.3z M25.9,15.2H10.1v-2
	c0-0.3,0.1-0.7,0.4-0.9c0.2-0.2,0.6-0.4,0.9-0.4h0.7v1.4c0,0.4,0.3,0.6,0.6,0.6c0.2,0,0.3-0.1,0.5-0.2c0.1-0.1,0.2-0.3,0.2-0.5v-1.3
	h9.2v1.3c0,0.2,0.1,0.3,0.2,0.5c0.1,0.1,0.3,0.2,0.5,0.2c0.4,0,0.6-0.3,0.6-0.6v-1.3h0.7c0.3,0,0.7,0.1,0.9,0.4
	c0.2,0.2,0.4,0.6,0.4,0.9V15.2z"/>
<path class="st2" d="M12.6,18.4h0.9c0.3,0,0.5,0.2,0.5,0.5v0.9c0,0.3-0.2,0.5-0.5,0.5h-0.9c-0.3,0-0.5-0.2-0.5-0.5v-0.9
	C12.1,18.6,12.4,18.4,12.6,18.4z"/>
<path class="st2" d="M12.6,22.2h0.9c0.3,0,0.5,0.2,0.5,0.5v0.9c0,0.3-0.2,0.5-0.5,0.5h-0.9c-0.3,0-0.5-0.2-0.5-0.5v-0.9
	C12.1,22.4,12.4,22.2,12.6,22.2z"/>
<path class="st2" d="M17.5,18.4h0.9c0.3,0,0.5,0.2,0.5,0.5v0.9c0,0.3-0.2,0.5-0.5,0.5h-0.9c-0.3,0-0.5-0.2-0.5-0.5v-0.9
	C17,18.6,17.3,18.4,17.5,18.4z"/>
<path class="st2" d="M17.5,22.2h0.9c0.3,0,0.5,0.2,0.5,0.5v0.9c0,0.3-0.2,0.5-0.5,0.5h-0.9c-0.3,0-0.5-0.2-0.5-0.5v-0.9
	C17,22.4,17.3,22.2,17.5,22.2z"/>
<path class="st2" d="M22.5,18.4h0.9c0.3,0,0.5,0.2,0.5,0.5v0.9c0,0.3-0.2,0.5-0.5,0.5h-0.9c-0.3,0-0.5-0.2-0.5-0.5v-0.9
	C22,18.6,22.2,18.4,22.5,18.4z"/>
<path class="st2" d="M22.5,22.2h0.9c0.3,0,0.5,0.2,0.5,0.5v0.9c0,0.3-0.2,0.5-0.5,0.5h-0.9c-0.3,0-0.5-0.2-0.5-0.5v-0.9
	C22,22.4,22.2,22.2,22.5,22.2z"/>
</svg>
