<?xml version="1.0" encoding="utf-8"?>
<!-- Generator: Adobe Illustrator 25.2.0, SVG Export Plug-In . SVG Version: 6.00 Build 0)  -->
<svg version="1.1" id="Layer_1" xmlns="http://www.w3.org/2000/svg" xmlns:xlink="http://www.w3.org/1999/xlink" x="0px" y="0px"
	 viewBox="0 0 36 36" style="enable-background:new 0 0 36 36;" xml:space="preserve">
<style type="text/css">
	.st0{fill:#F1F1F1;}
	.st1{fill:#7C4DFF;}
	.st2{fill:#666666;}
</style>
<circle class="st0" cx="18" cy="17.8" r="15.5"/>
<path class="st1" d="M24.6,10.6h-0.7V9.3c0-0.2-0.1-0.3-0.2-0.5c-0.1-0.1-0.3-0.2-0.5-0.2c-0.2,0-0.3,0.1-0.5,0.2
	c-0.1,0.1-0.2,0.3-0.2,0.5v1.3h-9.2V9.3c0-0.2-0.1-0.3-0.2-0.5c-0.1-0.1-0.3-0.2-0.5-0.2c-0.2,0-0.3,0.1-0.5,0.2
	c-0.1,0.1-0.2,0.3-0.2,0.5v1.3h-0.7c-1.4,0-2.6,1.2-2.6,2.6v11.2c0,1.5,1.2,2.6,2.6,2.6c0,0,0,0,0,0h13.1c0.7,0,1.4-0.3,1.9-0.8
	c0.5-0.5,0.8-1.2,0.8-1.9V13.2c0-0.7-0.3-1.4-0.8-1.9C25.9,10.8,25.3,10.6,24.6,10.6z M25.9,24.3c0,0.7-0.6,1.3-1.3,1.3H11.4
	c-0.7,0-1.3-0.6-1.3-1.3v-7.9h15.7L25.9,24.3z M25.9,15.2H10.1v-2c0-0.3,0.1-0.7,0.4-0.9c0.2-0.2,0.6-0.4,0.9-0.4h0.7v1.4
	c0,0.4,0.3,0.6,0.6,0.6c0.2,0,0.3-0.1,0.5-0.2c0.1-0.1,0.2-0.3,0.2-0.5v-1.3h9.2v1.3c0,0.2,0.1,0.3,0.2,0.5c0.1,0.1,0.3,0.2,0.5,0.2
	c0.4,0,0.6-0.3,0.6-0.6v-1.3h0.7c0.3,0,0.7,0.1,0.9,0.4c0.2,0.2,0.4,0.6,0.4,0.9V15.2z"/>
<path class="st2" d="M14.6,21l-0.8,0.8l2.6,2.6l5.7-5.8l-0.8-0.8l-4.9,4.9L14.6,21z"/>
</svg>
