<?xml version="1.0" encoding="utf-8"?>
<!-- Generator: Adobe Illustrator 25.2.0, SVG Export Plug-In . SVG Version: 6.00 Build 0)  -->
<svg version="1.1" id="Layer_1" xmlns="http://www.w3.org/2000/svg" xmlns:xlink="http://www.w3.org/1999/xlink" x="0px" y="0px"
	 viewBox="0 0 38.5 38.4" style="enable-background:new 0 0 38.5 38.4;" xml:space="preserve">
<style type="text/css">
	.st0{fill:#F1F1F1;}
	.st1{fill:#7C4DFF;stroke:#7C4DFF;stroke-width:0.2;}
	.st2{fill:#666666;stroke:#666666;stroke-width:0.2;}
</style>
<g>
	<circle class="st0" cx="19.3" cy="19.2" r="18.1"/>
	<g>
		<path class="st1" d="M25.3,23.4L25.3,23.4c0.1,0.2,0.2,0.4,0.1,0.6l0,0c0,0.2-0.1,0.4-0.3,0.5c-0.4,0.3-0.8,0.2-1.1-0.2
			c0,0,0,0,0,0l0,0L22.4,22c-0.1-0.2-0.4-0.3-0.6-0.2c0,0,0,0-0.1,0c-0.2,0.1-0.3,0.4-0.1,0.7c0,0,0,0,0,0l1.2,1.7l0,0l0,0l0,0l0,0
			l0,0c0.2,0.3,0.2,0.8-0.2,1c-0.4,0.2-0.8,0.1-1.1-0.2l-1.4-2.2c-0.1-0.2-0.4-0.3-0.6-0.2c0,0,0,0,0,0c-0.2,0.1-0.3,0.4-0.2,0.6
			l0,0l0,0l0,0l1,1.6l0,0h0l0,0c0.2,0.3,0.3,0.6,0.2,0.9c0,0.1-0.1,0.2-0.2,0.3c-0.3,0.2-0.7,0.2-1-0.1c0,0,0,0,0,0L18,23.8l0,0
			c-0.2-0.2-0.4-0.2-0.6,0c0,0,0,0,0,0c-0.1,0.1-0.2,0.4-0.1,0.6l0,0l1.2,1.9l0,0v0.1l0,0c0.1,0.3,0,0.6-0.3,0.8l0,0
			c-0.2,0.1-0.4,0.1-0.6,0.1c-0.2-0.1-0.4-0.2-0.6-0.3l0,0l0,0c-0.8-0.5-2-1.4-4-2.9l-1.2-0.9l0,0L9,21.2l0,0
			c-0.1-0.1-0.2-0.1-0.4-0.1c-0.1,0-0.2,0.1-0.3,0.2c-0.2,0.2-0.2,0.5,0,0.6l0,0l2.9,2.2l0,0l1.1,0.8c2.1,1.6,3.4,2.5,4.2,3
			c0.4,0.3,0.9,0.5,1.4,0.5l0,0c0.3,0,0.6-0.1,0.9-0.3c0.3-0.2,0.5-0.5,0.6-0.8c0.5,0.3,1.2,0.2,1.6-0.2c0.3-0.2,0.5-0.5,0.6-0.9
			c0.2,0.1,0.4,0.1,0.6,0.1c0.4,0,0.7-0.1,1-0.3l0,0c0.3-0.2,0.5-0.5,0.6-0.8c0.2,0.1,0.4,0.2,0.6,0.2c0.1,0,0.2,0,0.3,0l0,0
			c1,0,1.7-0.8,1.7-1.8c0-0.4-0.1-0.7-0.3-1v-0.1H26L25.4,23h-0.1l0,0.1c0,0,0,0,0,0.1l0,0C25.3,23.3,25.3,23.3,25.3,23.4z"/>
		<path class="st1" d="M15.2,13.4l-3.8,1.3l-2.7-0.3c-0.2,0-0.5,0.1-0.5,0.4c0,0,0,0,0,0.1c0,0.2,0.1,0.5,0.4,0.5c0,0,0,0,0.1,0
			l2.8,0.3h0.1c0,0,0.1,0,0.1,0l3.5-1.2l0,0v-0.1l0.2-0.8L15.2,13.4L15.2,13.4z"/>
		<path class="st2" d="M19.6,14.6l5.5,8.6l0,0l0,0l0,0l0,0l0,0c0,0,0.1,0,0.1,0l0,0L26,23l0,0l4.2-3.2l0,0c0.2-0.2,0.2-0.4,0.1-0.6
			c-0.1-0.2-0.4-0.2-0.6-0.1c0,0,0,0,0,0l-4.1,3.1l-5.4-8.5c-0.1-0.2-0.3-0.2-0.4-0.2h-0.2h-0.2c-0.1,0-0.1,0-0.2,0.1
			c-0.1,0-0.1,0.1-0.2,0.1l0,0l0,0.1L18.8,14l-0.5,0.7c-0.4,0.6-0.9,1.3-1.2,2c-0.2,0.3-0.6,0.5-1,0.5c-0.3,0-0.7,0-1-0.1l1-4.1
			c0.1-0.5,0.5-0.8,1-0.9l0,0l3-0.1l4,1.9l0,0c0.1,0,0.2,0,0.3,0l5.7-0.8l0,0c0.2,0,0.4-0.3,0.4-0.5c0,0,0,0,0,0
			c0-0.2-0.2-0.4-0.5-0.4c0,0,0,0,0,0l0,0l-5.6,0.9l-4-1.9c-0.1,0-0.1,0-0.2,0l0,0l-3,0.1l0,0c-0.7,0-1.3,0.4-1.7,1.1
			c-0.1,0.2-0.2,0.4-0.3,0.7c0,0.1,0,0.2,0,0.2v0.1l0,0L15,14.3l0,0l-0.8,3.2c-0.1,0.2,0.1,0.5,0.3,0.6c0.5,0.1,1,0.2,1.4,0.2
			c0.8,0.1,1.6-0.3,2-1l0,0C18.4,16.3,19.3,15.1,19.6,14.6z"/>
	</g>
</g>
</svg>
