<?xml version="1.0" encoding="utf-8"?>
<!-- Generator: Adobe Illustrator 25.2.0, SVG Export Plug-In . SVG Version: 6.00 Build 0)  -->
<svg version="1.1" id="Layer_1" xmlns="http://www.w3.org/2000/svg" xmlns:xlink="http://www.w3.org/1999/xlink" x="0px" y="0px"
	 viewBox="0 0 36 36" style="enable-background:new 0 0 36 36;" xml:space="preserve">
<style type="text/css">
	.st0{fill:#F1F1F1;}
	.st1{fill:#666666;}
	.st2{fill:#7C4DFF;}
</style>
<circle class="st0" cx="18" cy="18.4" r="15.5"/>
<g>
	<path class="st1" d="M21,22.3l1.2-2.5h1.3c0.4,0,0.7-0.3,0.7-0.7c0-0.4-0.3-0.7-0.7-0.7c0,0,0,0,0,0h-1.7c-0.3,0-0.5,0.2-0.6,0.4
		l-0.8,1.6L18.1,16c-0.1-0.2-0.4-0.4-0.6-0.3c-0.2,0-0.5,0.1-0.6,0.3l-1.2,2.5h-3.2h-1.7H9.6c-0.4,0-0.7,0.3-0.7,0.7
		c0,0.4,0.3,0.7,0.7,0.7h6.5c0.3,0,0.5-0.2,0.6-0.4l0.8-1.6l2.3,4.5c0.1,0.3,0.5,0.5,0.9,0.3C20.8,22.6,20.9,22.5,21,22.3L21,22.3z"
		/>
	<path class="st2" d="M18.6,26.9c4.7,0,8.5-3.8,8.5-8.5s-3.8-8.5-8.5-8.5c-4.3,0-7.8,3.3-8.3,7.5h1.4c0.6-3.8,4.2-6.4,8-5.8
		c3.8,0.6,6.4,4.2,5.8,8C25,23,22,25.5,18.6,25.5c-2.8,0-5.3-1.7-6.4-4.3h-1.5C11.8,24.5,15,26.8,18.6,26.9z"/>
</g>
</svg>
