<?xml version="1.0" encoding="utf-8"?>
<!-- Generator: Adobe Illustrator 25.2.0, SVG Export Plug-In . SVG Version: 6.00 Build 0)  -->
<svg version="1.1" id="Layer_1" xmlns="http://www.w3.org/2000/svg" xmlns:xlink="http://www.w3.org/1999/xlink" x="0px" y="0px"
	 viewBox="0 0 330.2 367.9" style="enable-background:new 0 0 330.2 367.9;" xml:space="preserve">
<style type="text/css">
	.st0{opacity:0.1;fill:#7C4DFF;enable-background:new    ;}
	.st1{opacity:0.15;fill:#7C4DFF;enable-background:new    ;}
	.st2{opacity:0.2;fill:#7C4DFF;enable-background:new    ;}
	.st3{fill:#7C4DFF;}
	.st4{fill:none;stroke:#7C4DFF;stroke-linecap:round;stroke-linejoin:round;}
	.st5{fill:#FFFFFF;}
	.st6{fill:#2ED06D;}
	.st7{fill:#B1E3CA;}
	.st8{fill:#E94235;}
	.st9{fill:#B6B6B6;}
	.st10{fill:none;stroke:#FDBB21;}
	.st11{fill:none;stroke:#B6B6B6;}
	.st12{fill:none;stroke:#FDBB21;stroke-width:1.5;}
	.st13{fill:none;stroke:#52EEC7;stroke-width:1.5;}
	.st14{fill:none;stroke:#52EEC7;stroke-width:2;}
	.st15{fill:none;stroke:#7C4DFF;stroke-width:2;}
	.st16{fill:none;stroke:#7C4DFF;}
	.st17{fill:#FDBB21;}
</style>
<ellipse class="st0" cx="163.7" cy="195" rx="98" ry="97.5"/>
<ellipse class="st1" cx="163.7" cy="195" rx="83" ry="82.5"/>
<ellipse class="st2" cx="163.7" cy="195" rx="66" ry="65.5"/>
<ellipse class="st3" cx="163.7" cy="195" rx="49" ry="48.5"/>
<path class="st4" d="M203.2,165.6c5.7,8.1,8.9,17.7,9,27.6c0,16.3-8.3,31.5-22,40.2"/>
<path class="st4" d="M178.7,238.8c-4.9,1.6-10.1,2.4-15.3,2.5c-27,0-48.8-21.5-48.8-48.1c0-8.7,2.4-17.2,6.8-24.7"/>
<path class="st4" d="M142.7,149.8c6.5-3.1,13.6-4.7,20.8-4.7c12.8,0,25.1,5,34.3,13.8"/>
<path class="st5" d="M189.7,183.1c0,1.5-0.6,2.9-1.6,3.9l-24.4,23.8c-1.1,1-2.6,1.6-4.1,1.6c-1.5,0-2.9-0.6-4-1.6L143.3,199
	c-1.1-1.1-1.6-2.5-1.6-4c0-1.5,0.6-2.9,1.7-3.9c1.1-1,2.5-1.6,4-1.6c1.5,0,2.9,0.6,4,1.6l8.1,7.9l20.4-19.9c1.1-1,2.5-1.6,4-1.6
	c1.5,0,2.9,0.6,4,1.7C189,180.2,189.7,181.6,189.7,183.1z"/>
<path class="st6" d="M257.2,343.3c0.1,0,0.3,0,0.4,0c0.2-0.1,0.3-0.2,0.4-0.3l1.3-2.4c0.1-0.2,0.1-0.4,0-0.5
	c-0.1-0.2-0.2-0.3-0.3-0.4c-0.2-0.1-0.4-0.1-0.5-0.1c-0.2,0-0.3,0.1-0.5,0.3l-1.3,2.4c-0.1,0.1-0.1,0.3-0.1,0.4
	c0,0.1,0.1,0.3,0.1,0.4C256.9,343.2,257,343.3,257.2,343.3z"/>
<path class="st6" d="M255.1,342.8l-2.4-1.3c-0.2-0.1-0.4-0.1-0.5,0c-0.2,0.1-0.3,0.2-0.4,0.3c-0.1,0.2-0.1,0.4-0.1,0.5
	c0,0.2,0.1,0.3,0.3,0.5l2.4,1.3c0.2,0.1,0.4,0.1,0.6,0.1c0.1,0,0.3-0.1,0.4-0.2c0.1-0.1,0.2-0.2,0.2-0.4c0-0.1,0-0.3-0.1-0.4
	C255.4,342.9,255.3,342.8,255.1,342.8z"/>
<path class="st6" d="M254.9,345.6c-0.2,0-0.3,0.1-0.4,0.3l-1.3,2.4c-0.1,0.1-0.1,0.3-0.1,0.4c0,0.1,0.1,0.3,0.2,0.4
	c0.1,0.1,0.2,0.2,0.3,0.2c0.1,0,0.3,0,0.4,0c0.2-0.1,0.3-0.2,0.4-0.4l1.3-2.4c0.1-0.2,0.1-0.4,0-0.5c-0.1-0.2-0.2-0.3-0.4-0.4
	C255.3,345.5,255.1,345.5,254.9,345.6z"/>
<path class="st6" d="M261.2,346.2c-0.1-0.1-0.2-0.2-0.3-0.3l-2.4-1.3c-0.2-0.1-0.4-0.1-0.5,0c-0.4,0.1-0.6,0.6-0.4,1
	c0.1,0.1,0.1,0.3,0.3,0.4l2.4,1.3c0.2,0.1,0.4,0.1,0.6,0.1c0.1,0,0.3-0.1,0.4-0.2c0.1-0.1,0.2-0.2,0.2-0.4
	C261.3,346.5,261.3,346.3,261.2,346.2z"/>
<path class="st7" d="M271.2,292.5c-1.4,0-2.5-1.1-2.5-2.5s1.1-2.5,2.5-2.5s2.5,1.1,2.5,2.5S272.6,292.5,271.2,292.5z"/>
<path class="st8" d="M71.7,283.5v-0.6V283.5L71.7,283.5z M71.7,283.5c-0.5,0-1-0.1-1.6-0.2l0.4-1.3c0.4,0.1,0.8,0.1,1.2,0.1
	L71.7,283.5z M73.3,283.4l-0.4-1.3c0.4-0.1,0.8-0.2,1.1-0.4l0.7,1.1C74.3,283,73.8,283.2,73.3,283.4z M68.7,282.8
	c-0.4-0.2-0.9-0.5-1.2-0.9l1-0.9c0.3,0.3,0.6,0.5,1,0.7L68.7,282.8z M75.9,281.9l-1-0.9c0.3-0.3,0.5-0.5,0.7-0.9l1.2,0.6
	C76.7,281.2,76.3,281.6,75.9,281.9L75.9,281.9z M66.5,280.8c-0.3-0.4-0.5-0.9-0.6-1.3l1.4-0.3c0.1,0.4,0.3,0.7,0.5,1L66.5,280.8z
	 M77.5,279.5l-1.4-0.3c0.1-0.4,0.2-0.7,0.2-1.1l1.4-0.1v0.1C77.7,278.5,77.6,279,77.5,279.5L77.5,279.5z M65.7,278.1L65.7,278.1
	c0-0.5,0.1-0.9,0.2-1.4l1.4,0.3c-0.1,0.3-0.2,0.7-0.2,1.1L65.7,278.1z M76.1,276.9c-0.1-0.4-0.3-0.7-0.5-1l1.2-0.7
	c0.3,0.4,0.5,0.9,0.6,1.3L76.1,276.9z M67.7,276l-1.2-0.6c0.3-0.4,0.6-0.8,1-1.1l1,0.9C68.2,275.4,67.9,275.7,67.7,276z M74.9,275
	c-0.3-0.3-0.6-0.5-1-0.7l0.7-1.1c0.5,0.2,0.9,0.5,1.2,0.9L74.9,275z M69.4,274.4l-0.7-1.1c0.5-0.2,0.9-0.4,1.4-0.6l0.4,1.2
	C70.1,274.1,69.7,274.2,69.4,274.4L69.4,274.4z M72.9,273.9c-0.4-0.1-0.8-0.1-1.2-0.1v-1.3l0,0c0.5,0,1,0.1,1.5,0.2L72.9,273.9z"/>
<path class="st9" d="M311.7,172.5v-0.4V172.5L311.7,172.5z M311.7,172.5c-0.3,0-0.7,0-1-0.1l0.2-0.8c0.3,0.1,0.5,0.1,0.8,0.1
	L311.7,172.5z M312.7,172.4l-0.2-0.8c0.3-0.1,0.5-0.1,0.7-0.3l0.5,0.7C313.4,172.2,313.1,172.3,312.7,172.4L312.7,172.4z
	 M309.7,172.1c-0.3-0.1-0.6-0.3-0.8-0.6l0.7-0.6c0.2,0.2,0.4,0.3,0.6,0.4L309.7,172.1z M314.5,171.5l-0.7-0.6
	c0.2-0.2,0.3-0.4,0.5-0.6l0.8,0.4C315,171.1,314.8,171.3,314.5,171.5z M308.2,170.8c-0.2-0.3-0.3-0.5-0.4-0.8l0.9-0.2
	c0.1,0.2,0.2,0.4,0.3,0.6L308.2,170.8z M315.6,169.9l-0.9-0.2c0.1-0.2,0.1-0.5,0.1-0.7h1l0,0C315.7,169.3,315.7,169.7,315.6,169.9z
	 M307.7,169.1L307.7,169.1c0-0.3,0-0.6,0.1-0.9l0.9,0.2c-0.1,0.2-0.1,0.4-0.1,0.7H307.7z M314.6,168.3c-0.1-0.2-0.2-0.4-0.3-0.6
	l0.8-0.4c0.2,0.3,0.3,0.5,0.4,0.8L314.6,168.3z M309,167.7l-0.8-0.4c0.2-0.3,0.4-0.5,0.6-0.7l0.7,0.6
	C309.3,167.3,309.1,167.5,309,167.7L309,167.7z M313.8,167.1c-0.2-0.2-0.4-0.3-0.6-0.4l0.5-0.7c0.3,0.1,0.6,0.3,0.8,0.6L313.8,167.1
	z M310.2,166.7l-0.5-0.7c0.3-0.2,0.7-0.3,1-0.4l0.2,0.8C310.7,166.5,310.4,166.6,310.2,166.7L310.2,166.7z M312.5,166.4
	c-0.3-0.1-0.5-0.1-0.8-0.1v-0.8l0,0c0.3,0,0.7,0,1,0.1L312.5,166.4z"/>
<path class="st10" d="M165.2,19.5c0,1.7-1.3,3-3,3s-3-1.3-3-3s1.3-3,3-3S165.2,17.9,165.2,19.5z"/>
<circle class="st11" cx="46.7" cy="330.5" r="2.5"/>
<path class="st12" d="M114.4,357.4l-5.2-3.5l5.8-5L114.4,357.4z"/>
<path class="st13" d="M283.1,223.5l6.5-9.1l6.5,9.8L283.1,223.5z"/>
<circle class="st14" cx="120.2" cy="75" r="4.5"/>
<circle class="st14" cx="15.2" cy="229" r="3.5"/>
<circle class="st15" cx="296.7" cy="64.5" r="6"/>
<circle class="st16" cx="43.2" cy="83" r="2"/>
<path class="st3" d="M50.8,160.4c0.1,0.1,0.2,0.2,0.4,0.3c0.2,0.1,0.4,0,0.6-0.1l2.7-1.4c0.2-0.1,0.3-0.3,0.3-0.5
	c0.1-0.2,0-0.4-0.1-0.6c-0.1-0.2-0.3-0.3-0.5-0.4c-0.2-0.1-0.4-0.1-0.6,0l-2.7,1.4c-0.1,0.1-0.3,0.2-0.3,0.3
	c-0.1,0.1-0.1,0.3-0.1,0.5C50.6,160.1,50.7,160.3,50.8,160.4z"/>
<path class="st3" d="M49.2,158.6l-1.4-2.7c-0.1-0.2-0.3-0.3-0.5-0.4c-0.2-0.1-0.4,0-0.6,0.1c-0.2,0.1-0.3,0.3-0.4,0.4
	c-0.1,0.2-0.1,0.4,0,0.6l1.4,2.7c0.1,0.2,0.3,0.3,0.5,0.4c0.2,0.1,0.3,0.1,0.5,0c0.2,0,0.3-0.1,0.4-0.3c0.1-0.1,0.2-0.3,0.2-0.4
	C49.3,158.9,49.3,158.7,49.2,158.6z"/>
<path class="st3" d="M47.8,161.1c-0.2-0.1-0.4-0.1-0.6,0l-2.7,1.4c-0.4,0.2-0.6,0.7-0.3,1.1c0,0,0,0.1,0.1,0.1
	c0.1,0.1,0.2,0.2,0.4,0.3c0.2,0.1,0.4,0.1,0.6-0.1l2.7-1.4c0.2-0.1,0.3-0.3,0.3-0.5c0-0.2,0-0.4-0.1-0.6
	C48.2,161.3,48,161.2,47.8,161.1z"/>
<path class="st3" d="M52.8,165.6c0-0.2,0-0.3-0.1-0.5l-1.4-2.7c-0.2-0.4-0.7-0.5-1.1-0.3c-0.3,0.2-0.5,0.6-0.4,1l1.4,2.7
	c0.1,0.2,0.3,0.3,0.5,0.4c0.2,0,0.3,0,0.5,0c0.2,0,0.3-0.1,0.4-0.3C52.7,165.9,52.7,165.7,52.8,165.6z"/>
<path class="st17" d="M239.1,75.2c0.1,0.1,0.2,0.2,0.3,0.2c0.2,0,0.3,0,0.5-0.1l1.9-1.2c0.2-0.2,0.3-0.5,0.1-0.8
	c-0.1-0.1-0.2-0.2-0.4-0.3c-0.1-0.1-0.3-0.1-0.4,0l-1.9,1.2c-0.1,0.1-0.2,0.2-0.2,0.3C238.9,74.8,238.9,75,239.1,75.2L239.1,75.2z"
	/>
<path class="st17" d="M237.9,74l-1.2-1.9c-0.1-0.1-0.2-0.2-0.4-0.2c-0.1,0-0.3,0-0.4,0.1c-0.1,0.1-0.2,0.2-0.3,0.4
	c-0.1,0.1-0.1,0.3,0,0.4l1.2,1.9c0.1,0.1,0.2,0.2,0.4,0.3c0.1,0,0.2,0,0.4,0c0.1-0.1,0.2-0.1,0.3-0.2c0.1-0.1,0.1-0.2,0.1-0.3
	C238,74.3,238,74.1,237.9,74z"/>
<path class="st17" d="M237,76c-0.1-0.1-0.3-0.1-0.4,0l-1.9,1.2c-0.1,0.1-0.2,0.2-0.2,0.3c0,0.1-0.1,0.2-0.1,0.3
	c0,0.1,0.1,0.2,0.2,0.3c0.1,0.1,0.2,0.1,0.3,0.2c0.2,0,0.3,0,0.5-0.1l1.9-1.2c0.3-0.2,0.3-0.6,0.1-0.8C237.3,76.1,237.1,76,237,76z"
	/>
<path class="st17" d="M240.9,79c0-0.1,0-0.2-0.1-0.3l-1.2-1.9c-0.1-0.1-0.2-0.2-0.4-0.2c-0.2,0-0.3,0-0.4,0.1
	c-0.1,0.1-0.2,0.2-0.3,0.3c0,0.2,0,0.3,0.1,0.4l1.2,1.9c0.1,0.1,0.2,0.2,0.4,0.3c0.1,0,0.2,0,0.4,0c0.1,0,0.2-0.1,0.3-0.2
	C240.9,79.3,240.9,79.1,240.9,79z"/>
<path class="st9" d="M182.7,323.5c-0.2,0-0.4-0.2-0.4-0.4c0-1.8-1.5-3.3-3.3-3.3l0,0c-0.2,0-0.4-0.1-0.4-0.3c0,0,0,0,0,0
	c0-0.2,0.1-0.4,0.3-0.4c0,0,0,0,0,0h0.1c1.8,0,3.3-1.5,3.3-3.3c0-0.2,0.1-0.4,0.3-0.4s0.4,0.1,0.4,0.3l0,0v0.1
	c0,1.8,1.5,3.3,3.3,3.3c0.2,0,0.3,0.2,0.3,0.4c0,0.2-0.1,0.3-0.3,0.3c-1.8,0-3.3,1.5-3.3,3.3c0,0,0,0,0,0
	C183.1,323.4,182.9,323.5,182.7,323.5L182.7,323.5z M180.7,319.5c0.9,0.4,1.6,1.1,2,2c0.4-0.9,1.1-1.6,2-2c-0.9-0.4-1.6-1.1-2-2
	C182.3,318.4,181.6,319.2,180.7,319.5L180.7,319.5z"/>
<path class="st6" d="M273.7,136.5c-0.3,0-0.6-0.3-0.5-0.6c0,0,0,0,0,0c0.1-2.8-2.1-5.2-4.9-5.3l0,0c-0.3,0-0.6-0.2-0.6-0.5
	c0,0,0,0,0,0c0-0.3,0.2-0.6,0.5-0.6h0.1c2.8-0.1,5-2.5,4.9-5.3c0-0.3,0.2-0.6,0.5-0.6c0.3,0,0.6,0.2,0.6,0.5v0.1
	c-0.1,2.8,2.1,5.2,4.9,5.3c0.3,0,0.5,0.3,0.5,0.6c0,0.3-0.2,0.5-0.5,0.5c-2.8,0.1-5,2.5-4.9,5.3
	C274.3,136.3,274.1,136.5,273.7,136.5z M270.7,130.1c1.4,0.7,2.4,1.8,3,3.2c0.6-1.4,1.6-2.5,3-3.2c-1.4-0.7-2.4-1.8-3-3.2
	C273.2,128.3,272.1,129.4,270.7,130.1L270.7,130.1z"/>
</svg>
