<?xml version="1.0" encoding="utf-8"?>
<!-- Generator: Adobe Illustrator 25.2.0, SVG Export Plug-In . SVG Version: 6.00 Build 0)  -->
<svg version="1.1" id="Layer_1" xmlns="http://www.w3.org/2000/svg" xmlns:xlink="http://www.w3.org/1999/xlink" x="0px" y="0px"
	 viewBox="0 0 190.3 182.5" style="enable-background:new 0 0 190.3 182.5;" xml:space="preserve">
<style type="text/css">
	.st0{fill:#F1F1F1;}
	.st1{fill:#7C4DFF;}
	.st2{fill:#666666;}
</style>
<g>
	<circle class="st0" cx="94.5" cy="91.2" r="84.6"/>
	<path class="st1" d="M73.1,133.5c5.6,0,10.9-2.2,14.8-6.1l9.2-9.2c0.5-0.5,0.8-1.3,0.8-2c0-0.7-0.3-1.5-0.8-2c-1.1-1.1-2.9-1.1-4,0
		l-9.2,9.3c-6,6-15.7,6-21.7,0c-2.9-2.9-4.5-6.8-4.5-10.8c0-4.1,1.6-8,4.5-10.8l17-17.1c3.6-3.6,8.8-5.2,13.8-4.2
		c5,1,9.2,4.4,11.2,9.1c0.3,0.7,0.8,1.2,1.5,1.5c1.4,0.6,3.1-0.1,3.7-1.6c0.3-0.7,0.3-1.5,0-2.2c-4.7-10.7-17.2-15.6-27.9-10.9
		c-2.3,1-4.4,2.4-6.2,4.2L58.3,97.8c-8.2,8.2-8.2,21.4,0,29.6C62.2,131.3,67.6,133.5,73.1,133.5z"/>
	<path class="st1" d="M130.7,55c-8.2-8.1-21.4-8.1-29.6,0l-9.3,9.3c-0.3,0.3-0.5,0.6-0.6,0.9c-0.1,0.3-0.2,0.7-0.2,1.1
		c0,0.4,0.1,0.8,0.2,1.1c0.1,0.3,0.3,0.7,0.6,0.9c0.3,0.3,0.6,0.5,0.9,0.6c0.3,0.1,0.7,0.2,1.1,0.2c0.4,0,0.7,0,1.1-0.2
		c0.3-0.2,0.7-0.4,0.9-0.6L105,59c6-6,15.7-6,21.7,0s6,15.7,0,21.7l-17.1,17.1c-6.1,5.8-15.6,5.8-21.7,0c-1.4-1.4-2.5-3.1-3.3-4.9
		c-0.3-0.7-0.8-1.2-1.5-1.5c-1.4-0.6-3.1,0.1-3.7,1.6c-0.3,0.7-0.3,1.5,0,2.2c4.5,10.7,16.9,15.6,27.5,11.1c2.5-1,4.7-2.5,6.6-4.4
		l17.1-17.1C138.7,76.5,138.7,63.3,130.7,55z"/>
	<path class="st2" d="M117.8,110.6c-1.1-1.1-2.9-1.1-4,0s-1.1,2.9,0,4l8.6,8.6c1.1,1,2.8,1,3.9-0.1c1.1-1.1,1.1-2.8,0.1-3.9
		L117.8,110.6z"/>
	<path class="st2" d="M133.6,101.9c0-1.6-1.3-2.8-2.8-2.8h-4.3c-0.8,0-1.5,0.3-2,0.8c-1.1,1.1-1.1,2.9,0,4c0.5,0.5,1.3,0.8,2,0.8
		h4.3C132.4,104.7,133.6,103.5,133.6,101.9L133.6,101.9L133.6,101.9z"/>
	<path class="st2" d="M105.2,120.5c-1.6,0-2.8,1.3-2.8,2.8v4.3c0,0.8,0.3,1.5,0.8,2c1.1,1.1,2.9,1.1,4,0c0,0,0,0,0,0
		c0.5-0.5,0.8-1.3,0.8-2v-4.3C108,121.7,106.8,120.5,105.2,120.5C105.2,120.5,105.2,120.5,105.2,120.5L105.2,120.5z"/>
	<path class="st2" d="M73.1,72.7c0.6,0,1.1-0.2,1.6-0.5c0.9-0.6,1.4-1.8,1.2-2.9c-0.1-0.5-0.4-1-0.8-1.4l-8.6-8.5
		c-0.3-0.3-0.6-0.5-0.9-0.7c-0.4-0.2-0.7-0.3-1.1-0.3c-0.4,0-0.8,0.1-1.1,0.2c-0.7,0.3-1.3,0.9-1.6,1.6c-0.1,0.4-0.2,0.7-0.2,1.1
		c0,0.4,0.1,0.8,0.3,1.1c0.2,0.4,0.4,0.7,0.7,0.9l8.6,8.5C71.7,72.4,72.4,72.7,73.1,72.7z"/>
	<path class="st2" d="M81,54.9v4.3c0,1.6,1.3,2.8,2.8,2.8c1.6,0,2.8-1.3,2.8-2.8v-4.3c0-0.8-0.3-1.5-0.8-2c-1.1-1.1-2.9-1.1-4,0
		c0,0,0,0,0,0C81.3,53.5,81,54.2,81,54.9z"/>
	<path class="st2" d="M58.2,77.7c-0.8,0-1.5,0.3-2,0.8c-1.1,1.1-1.1,2.9,0,4c0,0,0,0,0,0c0.5,0.5,1.2,0.8,2,0.8h4.3
		c1.6,0,2.8-1.3,2.8-2.8c0-1.6-1.3-2.8-2.8-2.8c0,0,0,0,0,0L58.2,77.7z"/>
</g>
</svg>
